<?xml version="1.0" encoding="utf-8" standalone="no"?>
<!DOCTYPE svg PUBLIC "-//W3C//DTD SVG 1.1//EN"
  "http://www.w3.org/Graphics/SVG/1.1/DTD/svg11.dtd">
<svg xmlns:xlink="http://www.w3.org/1999/xlink" width="540pt" height="216pt" viewBox="0 0 540 216" xmlns="http://www.w3.org/2000/svg" version="1.1">
 <metadata>
  <rdf:RDF xmlns:dc="http://purl.org/dc/elements/1.1/" xmlns:cc="http://creativecommons.org/ns#" xmlns:rdf="http://www.w3.org/1999/02/22-rdf-syntax-ns#">
   <cc:Work>
    <dc:type rdf:resource="http://purl.org/dc/dcmitype/StillImage"/>
    <dc:date>2023-05-15T20:00:37.516621</dc:date>
    <dc:format>image/svg+xml</dc:format>
    <dc:creator>
     <cc:Agent>
      <dc:title>Matplotlib v3.7.0, https://matplotlib.org/</dc:title>
     </cc:Agent>
    </dc:creator>
   </cc:Work>
  </rdf:RDF>
 </metadata>
 <defs>
  <style type="text/css">*{stroke-linejoin: round; stroke-linecap: butt}</style>
 </defs>
 <g id="figure_1">
  <g id="patch_1">
   <path d="M 0 216 
L 540 216 
L 540 0 
L 0 0 
z
" style="fill: #ffffff"/>
  </g>
  <g id="axes_1">
   <g id="patch_2">
    <path d="M 55.5 173.22 
L 260.01 173.22 
L 260.01 17.16 
L 55.5 17.16 
z
" style="fill: #ffffff"/>
   </g>
   <g id="patch_3">
    <path d="M 65.7255 173.22 
L 106.6275 173.22 
L 106.6275 104.569856 
L 65.7255 104.569856 
z
" clip-path="url(#p7d82092c9e)" style="fill: #aeccdb; opacity: 0.5; stroke: #ffffff; stroke-linejoin: miter"/>
   </g>
   <g id="patch_4">
    <path d="M 167.9805 173.22 
L 208.8825 173.22 
L 208.8825 59.890714 
L 167.9805 59.890714 
z
" clip-path="url(#p7d82092c9e)" style="fill: #aeccdb; opacity: 0.5; stroke: #ffffff; stroke-linejoin: miter"/>
   </g>
   <g id="patch_5">
    <path d="M 106.6275 173.22 
L 147.5295 173.22 
L 147.5295 90.95615 
L 106.6275 90.95615 
z
" clip-path="url(#p7d82092c9e)" style="fill: #3274a1; opacity: 0.5; stroke: #ffffff; stroke-linejoin: miter"/>
   </g>
   <g id="patch_6">
    <path d="M 208.8825 173.22 
L 249.7845 173.22 
L 249.7845 70.471211 
L 208.8825 70.471211 
z
" clip-path="url(#p7d82092c9e)" style="fill: #3274a1; opacity: 0.5; stroke: #ffffff; stroke-linejoin: miter"/>
   </g>
   <g id="matplotlib.axis_1">
    <g id="xtick_1">
     <g id="line2d_1"/>
     <g id="text_1">
      <text style="fill: #262626; font: 11px 'Arial', 'DejaVu Sans', 'Liberation Sans', 'Bitstream Vera Sans', sans-serif; text-anchor: middle" x="106.6275" y="185.078281" transform="rotate(-0 106.6275 185.078281)">1.5</text>
     </g>
    </g>
    <g id="xtick_2">
     <g id="line2d_2"/>
     <g id="text_2">
      <text style="fill: #262626; font: 11px 'Arial', 'DejaVu Sans', 'Liberation Sans', 'Bitstream Vera Sans', sans-serif; text-anchor: middle" x="208.8825" y="185.078281" transform="rotate(-0 208.8825 185.078281)">2.5</text>
     </g>
    </g>
    <g id="text_3">
     <text style="fill: #262626; font: 12px 'Arial', 'DejaVu Sans', 'Liberation Sans', 'Bitstream Vera Sans', sans-serif; text-anchor: middle" x="157.755" y="200.484062" transform="rotate(-0 157.755 200.484062)">multiplier</text>
    </g>
   </g>
   <g id="matplotlib.axis_2">
    <g id="ytick_1">
     <g id="line2d_3">
      <defs>
       <path id="m7dcd09c34c" d="M 0 0 
L -6 0 
" style="stroke: #262626; stroke-width: 1.25"/>
      </defs>
      <g>
       <use xlink:href="#m7dcd09c34c" x="55.5" y="173.22" style="fill: #262626; stroke: #262626; stroke-width: 1.25"/>
      </g>
     </g>
     <g id="text_4">
      <text style="fill: #262626; font: 11px 'Arial', 'DejaVu Sans', 'Liberation Sans', 'Bitstream Vera Sans', sans-serif; text-anchor: end" x="46" y="177.399141" transform="rotate(-0 46 177.399141)">0.0</text>
     </g>
    </g>
    <g id="ytick_2">
     <g id="line2d_4">
      <g>
       <use xlink:href="#m7dcd09c34c" x="55.5" y="142.008" style="fill: #262626; stroke: #262626; stroke-width: 1.25"/>
      </g>
     </g>
     <g id="text_5">
      <text style="fill: #262626; font: 11px 'Arial', 'DejaVu Sans', 'Liberation Sans', 'Bitstream Vera Sans', sans-serif; text-anchor: end" x="46" y="146.187141" transform="rotate(-0 46 146.187141)">0.2</text>
     </g>
    </g>
    <g id="ytick_3">
     <g id="line2d_5">
      <g>
       <use xlink:href="#m7dcd09c34c" x="55.5" y="110.796" style="fill: #262626; stroke: #262626; stroke-width: 1.25"/>
      </g>
     </g>
     <g id="text_6">
      <text style="fill: #262626; font: 11px 'Arial', 'DejaVu Sans', 'Liberation Sans', 'Bitstream Vera Sans', sans-serif; text-anchor: end" x="46" y="114.975141" transform="rotate(-0 46 114.975141)">0.4</text>
     </g>
    </g>
    <g id="ytick_4">
     <g id="line2d_6">
      <g>
       <use xlink:href="#m7dcd09c34c" x="55.5" y="79.584" style="fill: #262626; stroke: #262626; stroke-width: 1.25"/>
      </g>
     </g>
     <g id="text_7">
      <text style="fill: #262626; font: 11px 'Arial', 'DejaVu Sans', 'Liberation Sans', 'Bitstream Vera Sans', sans-serif; text-anchor: end" x="46" y="83.763141" transform="rotate(-0 46 83.763141)">0.6</text>
     </g>
    </g>
    <g id="ytick_5">
     <g id="line2d_7">
      <g>
       <use xlink:href="#m7dcd09c34c" x="55.5" y="48.372" style="fill: #262626; stroke: #262626; stroke-width: 1.25"/>
      </g>
     </g>
     <g id="text_8">
      <text style="fill: #262626; font: 11px 'Arial', 'DejaVu Sans', 'Liberation Sans', 'Bitstream Vera Sans', sans-serif; text-anchor: end" x="46" y="52.551141" transform="rotate(-0 46 52.551141)">0.8</text>
     </g>
    </g>
    <g id="ytick_6">
     <g id="line2d_8">
      <g>
       <use xlink:href="#m7dcd09c34c" x="55.5" y="17.16" style="fill: #262626; stroke: #262626; stroke-width: 1.25"/>
      </g>
     </g>
     <g id="text_9">
      <text style="fill: #262626; font: 11px 'Arial', 'DejaVu Sans', 'Liberation Sans', 'Bitstream Vera Sans', sans-serif; text-anchor: end" x="46" y="21.339141" transform="rotate(-0 46 21.339141)">1.0</text>
     </g>
    </g>
    <g id="text_10">
     <text style="fill: #262626; font: 12px 'Arial', 'DejaVu Sans', 'Liberation Sans', 'Bitstream Vera Sans', sans-serif; text-anchor: middle" x="22.010938" y="95.19" transform="rotate(-90 22.010938 95.19)">contribution</text>
    </g>
   </g>
   <g id="PathCollection_1">
    <defs>
     <path id="C0_0_7472ffbb72" d="M 0 3.5 
C 0.928211 3.5 1.81853 3.131218 2.474874 2.474874 
C 3.131218 1.81853 3.5 0.928211 3.5 -0 
C 3.5 -0.928211 3.131218 -1.81853 2.474874 -2.474874 
C 1.81853 -3.131218 0.928211 -3.5 0 -3.5 
C -0.928211 -3.5 -1.81853 -3.131218 -2.474874 -2.474874 
C -3.131218 -1.81853 -3.5 -0.928211 -3.5 0 
C -3.5 0.928211 -3.131218 1.81853 -2.474874 2.474874 
C -1.81853 3.131218 -0.928211 3.5 0 3.5 
z
"/>
    </defs>
    <use xlink:href="#C0_0_7472ffbb72" x="86.67725" y="101.4324" style="fill: #a6cee3; fill-opacity: 0.8; stroke: #ffffff; stroke-opacity: 0.8; stroke-width: 0.95"/>
    <use xlink:href="#C0_0_7472ffbb72" x="89.323302" y="162.2958" style="fill: #a6cee3; fill-opacity: 0.8; stroke: #ffffff; stroke-opacity: 0.8; stroke-width: 0.95"/>
    <use xlink:href="#C0_0_7472ffbb72" x="83.182165" y="17.16" style="fill: #a6cee3; fill-opacity: 0.8; stroke: #ffffff; stroke-opacity: 0.8; stroke-width: 0.95"/>
    <use xlink:href="#C0_0_7472ffbb72" x="84.404662" y="158.9145" style="fill: #a6cee3; fill-opacity: 0.8; stroke: #ffffff; stroke-opacity: 0.8; stroke-width: 0.95"/>
    <use xlink:href="#C0_0_7472ffbb72" x="86.824183" y="156.768675" style="fill: #a6cee3; fill-opacity: 0.8; stroke: #ffffff; stroke-opacity: 0.8; stroke-width: 0.95"/>
    <use xlink:href="#C0_0_7472ffbb72" x="89.278924" y="144.3489" style="fill: #a6cee3; fill-opacity: 0.8; stroke: #ffffff; stroke-opacity: 0.8; stroke-width: 0.95"/>
    <use xlink:href="#C0_0_7472ffbb72" x="83.284163" y="100.9122" style="fill: #a6cee3; fill-opacity: 0.8; stroke: #ffffff; stroke-opacity: 0.8; stroke-width: 0.95"/>
    <use xlink:href="#C0_0_7472ffbb72" x="89.245936" y="55.26465" style="fill: #a6cee3; fill-opacity: 0.8; stroke: #ffffff; stroke-opacity: 0.8; stroke-width: 0.95"/>
    <use xlink:href="#C0_0_7472ffbb72" x="82.602862" y="29.1246" style="fill: #a6cee3; fill-opacity: 0.8; stroke: #ffffff; stroke-opacity: 0.8; stroke-width: 0.95"/>
    <use xlink:href="#C0_0_7472ffbb72" x="88.727822" y="135.37545" style="fill: #a6cee3; fill-opacity: 0.8; stroke: #ffffff; stroke-opacity: 0.8; stroke-width: 0.95"/>
    <use xlink:href="#C0_0_7472ffbb72" x="87.835331" y="103.968375" style="fill: #a6cee3; fill-opacity: 0.8; stroke: #ffffff; stroke-opacity: 0.8; stroke-width: 0.95"/>
    <use xlink:href="#C0_0_7472ffbb72" x="87.557266" y="59.5563" style="fill: #a6cee3; fill-opacity: 0.8; stroke: #ffffff; stroke-opacity: 0.8; stroke-width: 0.95"/>
    <use xlink:href="#C0_0_7472ffbb72" x="82.037967" y="98.70135" style="fill: #a6cee3; fill-opacity: 0.8; stroke: #ffffff; stroke-opacity: 0.8; stroke-width: 0.95"/>
    <use xlink:href="#C0_0_7472ffbb72" x="82.096905" y="131.0838" style="fill: #a6cee3; fill-opacity: 0.8; stroke: #ffffff; stroke-opacity: 0.8; stroke-width: 0.95"/>
    <use xlink:href="#C0_0_7472ffbb72" x="89.712085" y="102.993" style="fill: #a6cee3; fill-opacity: 0.8; stroke: #ffffff; stroke-opacity: 0.8; stroke-width: 0.95"/>
    <use xlink:href="#C0_0_7472ffbb72" x="84.051891" y="115.2177" style="fill: #a6cee3; fill-opacity: 0.8; stroke: #ffffff; stroke-opacity: 0.8; stroke-width: 0.95"/>
   </g>
   <g id="PathCollection_2">
    <defs>
     <path id="C1_0_80d102ceed" d="M 0 3.5 
C 0.928211 3.5 1.81853 3.131218 2.474874 2.474874 
C 3.131218 1.81853 3.5 0.928211 3.5 -0 
C 3.5 -0.928211 3.131218 -1.81853 2.474874 -2.474874 
C 1.81853 -3.131218 0.928211 -3.5 0 -3.5 
C -0.928211 -3.5 -1.81853 -3.131218 -2.474874 -2.474874 
C -3.131218 -1.81853 -3.5 -0.928211 -3.5 0 
C -3.5 0.928211 -3.131218 1.81853 -2.474874 2.474874 
C -1.81853 3.131218 -0.928211 3.5 0 3.5 
z
"/>
    </defs>
    <use xlink:href="#C1_0_80d102ceed" x="124.546962" y="137.45625" style="fill: #1f78b4; fill-opacity: 0.8; stroke: #ffffff; stroke-opacity: 0.8; stroke-width: 0.95"/>
    <use xlink:href="#C1_0_80d102ceed" x="122.972065" y="115.2177" style="fill: #1f78b4; fill-opacity: 0.8; stroke: #ffffff; stroke-opacity: 0.8; stroke-width: 0.95"/>
    <use xlink:href="#C1_0_80d102ceed" x="129.230099" y="146.6898" style="fill: #1f78b4; fill-opacity: 0.8; stroke: #ffffff; stroke-opacity: 0.8; stroke-width: 0.95"/>
    <use xlink:href="#C1_0_80d102ceed" x="125.556185" y="106.959525" style="fill: #1f78b4; fill-opacity: 0.8; stroke: #ffffff; stroke-opacity: 0.8; stroke-width: 0.95"/>
    <use xlink:href="#C1_0_80d102ceed" x="125.122292" y="20.086125" style="fill: #1f78b4; fill-opacity: 0.8; stroke: #ffffff; stroke-opacity: 0.8; stroke-width: 0.95"/>
    <use xlink:href="#C1_0_80d102ceed" x="122.12908" y="129.848325" style="fill: #1f78b4; fill-opacity: 0.8; stroke: #ffffff; stroke-opacity: 0.8; stroke-width: 0.95"/>
    <use xlink:href="#C1_0_80d102ceed" x="132.161487" y="90.11805" style="fill: #1f78b4; fill-opacity: 0.8; stroke: #ffffff; stroke-opacity: 0.8; stroke-width: 0.95"/>
    <use xlink:href="#C1_0_80d102ceed" x="126.573865" y="47.72175" style="fill: #1f78b4; fill-opacity: 0.8; stroke: #ffffff; stroke-opacity: 0.8; stroke-width: 0.95"/>
    <use xlink:href="#C1_0_80d102ceed" x="127.47911" y="24.507825" style="fill: #1f78b4; fill-opacity: 0.8; stroke: #ffffff; stroke-opacity: 0.8; stroke-width: 0.95"/>
   </g>
   <g id="PathCollection_3">
    <defs>
     <path id="C2_0_44ae89f407" d="M 0 3.5 
C 0.928211 3.5 1.81853 3.131218 2.474874 2.474874 
C 3.131218 1.81853 3.5 0.928211 3.5 -0 
C 3.5 -0.928211 3.131218 -1.81853 2.474874 -2.474874 
C 1.81853 -3.131218 0.928211 -3.5 0 -3.5 
C -0.928211 -3.5 -1.81853 -3.131218 -2.474874 -2.474874 
C -3.131218 -1.81853 -3.5 -0.928211 -3.5 0 
C -3.5 0.928211 -3.131218 1.81853 -2.474874 2.474874 
C -1.81853 3.131218 -0.928211 3.5 0 3.5 
z
"/>
    </defs>
    <use xlink:href="#C2_0_44ae89f407" x="193.210148" y="43.495125" style="fill: #a6cee3; fill-opacity: 0.8; stroke: #ffffff; stroke-opacity: 0.8; stroke-width: 0.95"/>
    <use xlink:href="#C2_0_44ae89f407" x="188.164158" y="140.9676" style="fill: #a6cee3; fill-opacity: 0.8; stroke: #ffffff; stroke-opacity: 0.8; stroke-width: 0.95"/>
    <use xlink:href="#C2_0_44ae89f407" x="191.466678" y="22.6221" style="fill: #a6cee3; fill-opacity: 0.8; stroke: #ffffff; stroke-opacity: 0.8; stroke-width: 0.95"/>
    <use xlink:href="#C2_0_44ae89f407" x="189.710039" y="24.31275" style="fill: #a6cee3; fill-opacity: 0.8; stroke: #ffffff; stroke-opacity: 0.8; stroke-width: 0.95"/>
    <use xlink:href="#C2_0_44ae89f407" x="185.384856" y="66.579" style="fill: #a6cee3; fill-opacity: 0.8; stroke: #ffffff; stroke-opacity: 0.8; stroke-width: 0.95"/>
    <use xlink:href="#C2_0_44ae89f407" x="186.499426" y="52.2735" style="fill: #a6cee3; fill-opacity: 0.8; stroke: #ffffff; stroke-opacity: 0.8; stroke-width: 0.95"/>
    <use xlink:href="#C2_0_44ae89f407" x="185.657639" y="68.984925" style="fill: #a6cee3; fill-opacity: 0.8; stroke: #ffffff; stroke-opacity: 0.8; stroke-width: 0.95"/>
   </g>
   <g id="PathCollection_4">
    <defs>
     <path id="C3_0_fa175beedd" d="M 0 3.5 
C 0.928211 3.5 1.81853 3.131218 2.474874 2.474874 
C 3.131218 1.81853 3.5 0.928211 3.5 -0 
C 3.5 -0.928211 3.131218 -1.81853 2.474874 -2.474874 
C 1.81853 -3.131218 0.928211 -3.5 0 -3.5 
C -0.928211 -3.5 -1.81853 -3.131218 -2.474874 -2.474874 
C -3.131218 -1.81853 -3.5 -0.928211 -3.5 0 
C -3.5 0.928211 -3.131218 1.81853 -2.474874 2.474874 
C -1.81853 3.131218 -0.928211 3.5 0 3.5 
z
"/>
    </defs>
    <use xlink:href="#C3_0_fa175beedd" x="225.348321" y="77.568225" style="fill: #1f78b4; fill-opacity: 0.8; stroke: #ffffff; stroke-opacity: 0.8; stroke-width: 0.95"/>
    <use xlink:href="#C3_0_fa175beedd" x="227.176298" y="99.026475" style="fill: #1f78b4; fill-opacity: 0.8; stroke: #ffffff; stroke-opacity: 0.8; stroke-width: 0.95"/>
    <use xlink:href="#C3_0_fa175beedd" x="231.691092" y="100.847175" style="fill: #1f78b4; fill-opacity: 0.8; stroke: #ffffff; stroke-opacity: 0.8; stroke-width: 0.95"/>
    <use xlink:href="#C3_0_fa175beedd" x="226.475187" y="31.2054" style="fill: #1f78b4; fill-opacity: 0.8; stroke: #ffffff; stroke-opacity: 0.8; stroke-width: 0.95"/>
    <use xlink:href="#C3_0_fa175beedd" x="229.353879" y="60.20655" style="fill: #1f78b4; fill-opacity: 0.8; stroke: #ffffff; stroke-opacity: 0.8; stroke-width: 0.95"/>
    <use xlink:href="#C3_0_fa175beedd" x="229.482312" y="44.86065" style="fill: #1f78b4; fill-opacity: 0.8; stroke: #ffffff; stroke-opacity: 0.8; stroke-width: 0.95"/>
    <use xlink:href="#C3_0_fa175beedd" x="228.801135" y="69.4401" style="fill: #1f78b4; fill-opacity: 0.8; stroke: #ffffff; stroke-opacity: 0.8; stroke-width: 0.95"/>
    <use xlink:href="#C3_0_fa175beedd" x="226.681032" y="57.7356" style="fill: #1f78b4; fill-opacity: 0.8; stroke: #ffffff; stroke-opacity: 0.8; stroke-width: 0.95"/>
    <use xlink:href="#C3_0_fa175beedd" x="228.401742" y="72.626325" style="fill: #1f78b4; fill-opacity: 0.8; stroke: #ffffff; stroke-opacity: 0.8; stroke-width: 0.95"/>
    <use xlink:href="#C3_0_fa175beedd" x="232.866908" y="55.979925" style="fill: #1f78b4; fill-opacity: 0.8; stroke: #ffffff; stroke-opacity: 0.8; stroke-width: 0.95"/>
    <use xlink:href="#C3_0_fa175beedd" x="230.584095" y="137.8464" style="fill: #1f78b4; fill-opacity: 0.8; stroke: #ffffff; stroke-opacity: 0.8; stroke-width: 0.95"/>
    <use xlink:href="#C3_0_fa175beedd" x="228.341119" y="32.11575" style="fill: #1f78b4; fill-opacity: 0.8; stroke: #ffffff; stroke-opacity: 0.8; stroke-width: 0.95"/>
    <use xlink:href="#C3_0_fa175beedd" x="227.850114" y="29.839875" style="fill: #1f78b4; fill-opacity: 0.8; stroke: #ffffff; stroke-opacity: 0.8; stroke-width: 0.95"/>
    <use xlink:href="#C3_0_fa175beedd" x="228.885228" y="117.2985" style="fill: #1f78b4; fill-opacity: 0.8; stroke: #ffffff; stroke-opacity: 0.8; stroke-width: 0.95"/>
   </g>
   <g id="PathCollection_5"/>
   <g id="PathCollection_6"/>
   <g id="line2d_9">
    <path d="M 86.1765 115.788937 
L 86.1765 93.350775 
" clip-path="url(#p7d82092c9e)" style="fill: none; stroke: #000000; stroke-width: 1.9; stroke-linecap: round"/>
   </g>
   <g id="line2d_10">
    <path d="M 86.1765 115.788937 
L 86.1765 115.788937 
" clip-path="url(#p7d82092c9e)" style="fill: none; stroke: #000000; stroke-width: 1.9; stroke-linecap: round"/>
   </g>
   <g id="line2d_11">
    <path d="M 86.1765 93.350775 
L 86.1765 93.350775 
" clip-path="url(#p7d82092c9e)" style="fill: none; stroke: #000000; stroke-width: 1.9; stroke-linecap: round"/>
   </g>
   <g id="line2d_12">
    <path d="M 188.4315 75.074099 
L 188.4315 44.707329 
" clip-path="url(#p7d82092c9e)" style="fill: none; stroke: #000000; stroke-width: 1.9; stroke-linecap: round"/>
   </g>
   <g id="line2d_13">
    <path d="M 188.4315 75.074099 
L 188.4315 75.074099 
" clip-path="url(#p7d82092c9e)" style="fill: none; stroke: #000000; stroke-width: 1.9; stroke-linecap: round"/>
   </g>
   <g id="line2d_14">
    <path d="M 188.4315 44.707329 
L 188.4315 44.707329 
" clip-path="url(#p7d82092c9e)" style="fill: none; stroke: #000000; stroke-width: 1.9; stroke-linecap: round"/>
   </g>
   <g id="line2d_15">
    <path d="M 127.0785 107.172434 
L 127.0785 74.739866 
" clip-path="url(#p7d82092c9e)" style="fill: none; stroke: #000000; stroke-width: 1.9; stroke-linecap: round"/>
   </g>
   <g id="line2d_16">
    <path d="M 127.0785 107.172434 
L 127.0785 107.172434 
" clip-path="url(#p7d82092c9e)" style="fill: none; stroke: #000000; stroke-width: 1.9; stroke-linecap: round"/>
   </g>
   <g id="line2d_17">
    <path d="M 127.0785 74.739866 
L 127.0785 74.739866 
" clip-path="url(#p7d82092c9e)" style="fill: none; stroke: #000000; stroke-width: 1.9; stroke-linecap: round"/>
   </g>
   <g id="line2d_18">
    <path d="M 229.3335 79.342605 
L 229.3335 61.599817 
" clip-path="url(#p7d82092c9e)" style="fill: none; stroke: #000000; stroke-width: 1.9; stroke-linecap: round"/>
   </g>
   <g id="line2d_19">
    <path d="M 229.3335 79.342605 
L 229.3335 79.342605 
" clip-path="url(#p7d82092c9e)" style="fill: none; stroke: #000000; stroke-width: 1.9; stroke-linecap: round"/>
   </g>
   <g id="line2d_20">
    <path d="M 229.3335 61.599817 
L 229.3335 61.599817 
" clip-path="url(#p7d82092c9e)" style="fill: none; stroke: #000000; stroke-width: 1.9; stroke-linecap: round"/>
   </g>
   <g id="patch_7">
    <path d="M 55.5 173.22 
L 55.5 17.16 
" style="fill: none; stroke: #262626; stroke-width: 1.25; stroke-linejoin: miter; stroke-linecap: square"/>
   </g>
   <g id="legend_1">
    <g id="patch_8">
     <path d="M 143.843125 167.72 
L 252.31 167.72 
Q 254.51 167.72 254.51 165.52 
L 254.51 84.58875 
Q 254.51 82.38875 252.31 82.38875 
L 143.843125 82.38875 
Q 141.643125 82.38875 141.643125 84.58875 
L 141.643125 165.52 
Q 141.643125 167.72 143.843125 167.72 
z
" style="fill: #ffffff; opacity: 0.8; stroke: #cccccc; stroke-linejoin: miter"/>
    </g>
    <g id="text_11">
     <text style="fill: #262626; font: 12px 'Arial', 'DejaVu Sans', 'Liberation Sans', 'Bitstream Vera Sans', sans-serif; text-anchor: start" x="155.149375" y="95.906875" transform="rotate(-0 155.149375 95.906875)">discloser_type</text>
    </g>
    <g id="PathCollection_7">
     <defs>
      <path id="m21b06a339f" d="M 0 3 
C 0.795609 3 1.55874 2.683901 2.12132 2.12132 
C 2.683901 1.55874 3 0.795609 3 0 
C 3 -0.795609 2.683901 -1.55874 2.12132 -2.12132 
C 1.55874 -2.683901 0.795609 -3 0 -3 
C -0.795609 -3 -1.55874 -2.683901 -2.12132 -2.12132 
C -2.683901 -1.55874 -3 -0.795609 -3 0 
C -3 0.795609 -2.683901 1.55874 -2.12132 2.12132 
C -1.55874 2.683901 -0.795609 3 0 3 
z
" style="stroke: #a6cee3"/>
     </defs>
     <g>
      <use xlink:href="#m21b06a339f" x="157.043125" y="109.707031" style="fill: #a6cee3; stroke: #a6cee3"/>
     </g>
    </g>
    <g id="text_12">
     <text style="fill: #262626; font: 11px 'Arial', 'DejaVu Sans', 'Liberation Sans', 'Bitstream Vera Sans', sans-serif; text-anchor: start" x="176.843125" y="112.594531" transform="rotate(-0 176.843125 112.594531)">non-discloser</text>
    </g>
    <g id="PathCollection_8">
     <defs>
      <path id="mc47320f7d7" d="M 0 3 
C 0.795609 3 1.55874 2.683901 2.12132 2.12132 
C 2.683901 1.55874 3 0.795609 3 0 
C 3 -0.795609 2.683901 -1.55874 2.12132 -2.12132 
C 1.55874 -2.683901 0.795609 -3 0 -3 
C -0.795609 -3 -1.55874 -2.683901 -2.12132 -2.12132 
C -2.683901 -1.55874 -3 -0.795609 -3 0 
C -3 0.795609 -2.683901 1.55874 -2.12132 2.12132 
C -1.55874 2.683901 -0.795609 3 0 3 
z
" style="stroke: #1f78b4"/>
     </defs>
     <g>
      <use xlink:href="#mc47320f7d7" x="157.043125" y="125.852969" style="fill: #1f78b4; stroke: #1f78b4"/>
     </g>
    </g>
    <g id="text_13">
     <text style="fill: #262626; font: 11px 'Arial', 'DejaVu Sans', 'Liberation Sans', 'Bitstream Vera Sans', sans-serif; text-anchor: start" x="176.843125" y="128.740469" transform="rotate(-0 176.843125 128.740469)">discloser</text>
    </g>
    <g id="patch_9">
     <path d="M 146.043125 144.886406 
L 168.043125 144.886406 
L 168.043125 137.186406 
L 146.043125 137.186406 
z
" style="fill: #aeccdb; opacity: 0.5; stroke: #ffffff; stroke-linejoin: miter"/>
    </g>
    <g id="text_14">
     <text style="fill: #262626; font: 11px 'Arial', 'DejaVu Sans', 'Liberation Sans', 'Bitstream Vera Sans', sans-serif; text-anchor: start" x="176.843125" y="144.886406" transform="rotate(-0 176.843125 144.886406)">non-discloser</text>
    </g>
    <g id="patch_10">
     <path d="M 146.043125 161.032344 
L 168.043125 161.032344 
L 168.043125 153.332344 
L 146.043125 153.332344 
z
" style="fill: #3274a1; opacity: 0.5; stroke: #ffffff; stroke-linejoin: miter"/>
    </g>
    <g id="text_15">
     <text style="fill: #262626; font: 11px 'Arial', 'DejaVu Sans', 'Liberation Sans', 'Bitstream Vera Sans', sans-serif; text-anchor: start" x="176.843125" y="161.032344" transform="rotate(-0 176.843125 161.032344)">discloser</text>
    </g>
   </g>
  </g>
  <g id="axes_2">
   <g id="patch_11">
    <path d="M 322.53 173.22 
L 527.04 173.22 
L 527.04 17.16 
L 322.53 17.16 
z
" style="fill: #ffffff"/>
   </g>
   <g id="patch_12">
    <path d="M 332.7555 637.022981 
L 373.6575 637.022981 
L 373.6575 72.752275 
L 332.7555 72.752275 
z
" clip-path="url(#p29da3f55e2)" style="fill: #aeccdb; opacity: 0.5; stroke: #ffffff; stroke-linejoin: miter"/>
   </g>
   <g id="patch_13">
    <path d="M 435.0105 637.022981 
L 475.9125 637.022981 
L 475.9125 67.73371 
L 435.0105 67.73371 
z
" clip-path="url(#p29da3f55e2)" style="fill: #aeccdb; opacity: 0.5; stroke: #ffffff; stroke-linejoin: miter"/>
   </g>
   <g id="patch_14">
    <path d="M 373.6575 637.022981 
L 414.5595 637.022981 
L 414.5595 85.435279 
L 373.6575 85.435279 
z
" clip-path="url(#p29da3f55e2)" style="fill: #3274a1; opacity: 0.5; stroke: #ffffff; stroke-linejoin: miter"/>
   </g>
   <g id="patch_15">
    <path d="M 475.9125 637.022981 
L 516.8145 637.022981 
L 516.8145 75.903022 
L 475.9125 75.903022 
z
" clip-path="url(#p29da3f55e2)" style="fill: #3274a1; opacity: 0.5; stroke: #ffffff; stroke-linejoin: miter"/>
   </g>
   <g id="matplotlib.axis_3">
    <g id="xtick_3">
     <g id="line2d_21"/>
     <g id="text_16">
      <text style="fill: #262626; font: 11px 'Arial', 'DejaVu Sans', 'Liberation Sans', 'Bitstream Vera Sans', sans-serif; text-anchor: middle" x="373.6575" y="185.078281" transform="rotate(-0 373.6575 185.078281)">1.5</text>
     </g>
    </g>
    <g id="xtick_4">
     <g id="line2d_22"/>
     <g id="text_17">
      <text style="fill: #262626; font: 11px 'Arial', 'DejaVu Sans', 'Liberation Sans', 'Bitstream Vera Sans', sans-serif; text-anchor: middle" x="475.9125" y="185.078281" transform="rotate(-0 475.9125 185.078281)">2.5</text>
     </g>
    </g>
    <g id="text_18">
     <text style="fill: #262626; font: 12px 'Arial', 'DejaVu Sans', 'Liberation Sans', 'Bitstream Vera Sans', sans-serif; text-anchor: middle" x="424.785" y="200.484062" transform="rotate(-0 424.785 200.484062)">multiplier</text>
    </g>
   </g>
   <g id="matplotlib.axis_4">
    <g id="ytick_7">
     <g id="line2d_23">
      <g>
       <use xlink:href="#m7dcd09c34c" x="322.53" y="173.22" style="fill: #262626; stroke: #262626; stroke-width: 1.25"/>
      </g>
     </g>
     <g id="text_19">
      <text style="fill: #262626; font: 11px 'Arial', 'DejaVu Sans', 'Liberation Sans', 'Bitstream Vera Sans', sans-serif; text-anchor: end" x="313.03" y="177.399141" transform="rotate(-0 313.03 177.399141)">0.60</text>
     </g>
    </g>
    <g id="ytick_8">
     <g id="line2d_24">
      <g>
       <use xlink:href="#m7dcd09c34c" x="322.53" y="134.569752" style="fill: #262626; stroke: #262626; stroke-width: 1.25"/>
      </g>
     </g>
     <g id="text_20">
      <text style="fill: #262626; font: 11px 'Arial', 'DejaVu Sans', 'Liberation Sans', 'Bitstream Vera Sans', sans-serif; text-anchor: end" x="313.03" y="138.748892" transform="rotate(-0 313.03 138.748892)">0.65</text>
     </g>
    </g>
    <g id="ytick_9">
     <g id="line2d_25">
      <g>
       <use xlink:href="#m7dcd09c34c" x="322.53" y="95.919503" style="fill: #262626; stroke: #262626; stroke-width: 1.25"/>
      </g>
     </g>
     <g id="text_21">
      <text style="fill: #262626; font: 11px 'Arial', 'DejaVu Sans', 'Liberation Sans', 'Bitstream Vera Sans', sans-serif; text-anchor: end" x="313.03" y="100.098644" transform="rotate(-0 313.03 100.098644)">0.70</text>
     </g>
    </g>
    <g id="ytick_10">
     <g id="line2d_26">
      <g>
       <use xlink:href="#m7dcd09c34c" x="322.53" y="57.269255" style="fill: #262626; stroke: #262626; stroke-width: 1.25"/>
      </g>
     </g>
     <g id="text_22">
      <text style="fill: #262626; font: 11px 'Arial', 'DejaVu Sans', 'Liberation Sans', 'Bitstream Vera Sans', sans-serif; text-anchor: end" x="313.03" y="61.448395" transform="rotate(-0 313.03 61.448395)">0.75</text>
     </g>
    </g>
    <g id="ytick_11">
     <g id="line2d_27">
      <g>
       <use xlink:href="#m7dcd09c34c" x="322.53" y="18.619006" style="fill: #262626; stroke: #262626; stroke-width: 1.25"/>
      </g>
     </g>
     <g id="text_23">
      <text style="fill: #262626; font: 11px 'Arial', 'DejaVu Sans', 'Liberation Sans', 'Bitstream Vera Sans', sans-serif; text-anchor: end" x="313.03" y="22.798147" transform="rotate(-0 313.03 22.798147)">0.80</text>
     </g>
    </g>
    <g id="text_24">
     <text style="fill: #262626; font: 12px 'Arial', 'DejaVu Sans', 'Liberation Sans', 'Bitstream Vera Sans', sans-serif; text-anchor: middle" x="282.042188" y="95.19" transform="rotate(-90 282.042188 95.19)">payoff</text>
    </g>
   </g>
   <g id="PathCollection_9">
    <defs>
     <path id="C4_0_c1042f8980" d="M 0 3.5 
C 0.928211 3.5 1.81853 3.131218 2.474874 2.474874 
C 3.131218 1.81853 3.5 0.928211 3.5 -0 
C 3.5 -0.928211 3.131218 -1.81853 2.474874 -2.474874 
C 1.81853 -3.131218 0.928211 -3.5 0 -3.5 
C -0.928211 -3.5 -1.81853 -3.131218 -2.474874 -2.474874 
C -3.131218 -1.81853 -3.5 -0.928211 -3.5 0 
C -3.5 0.928211 -3.131218 1.81853 -2.474874 2.474874 
C -1.81853 3.131218 -0.928211 3.5 0 3.5 
z
"/>
    </defs>
    <use xlink:href="#C4_0_c1042f8980" x="358.233737" y="81.892135" style="fill: #a6cee3; fill-opacity: 0.8; stroke: #ffffff; stroke-opacity: 0.8; stroke-width: 0.95"/>
    <use xlink:href="#C4_0_c1042f8980" x="355.837189" y="17.171517" style="fill: #a6cee3; fill-opacity: 0.8; stroke: #ffffff; stroke-opacity: 0.8; stroke-width: 0.95"/>
    <use xlink:href="#C4_0_c1042f8980" x="355.672695" y="155.966327" style="fill: #a6cee3; fill-opacity: 0.8; stroke: #ffffff; stroke-opacity: 0.8; stroke-width: 0.95"/>
    <use xlink:href="#C4_0_c1042f8980" x="352.314636" y="19.677467" style="fill: #a6cee3; fill-opacity: 0.8; stroke: #ffffff; stroke-opacity: 0.8; stroke-width: 0.95"/>
    <use xlink:href="#C4_0_c1042f8980" x="351.398782" y="17.16" style="fill: #a6cee3; fill-opacity: 0.8; stroke: #ffffff; stroke-opacity: 0.8; stroke-width: 0.95"/>
    <use xlink:href="#C4_0_c1042f8980" x="355.578331" y="35.231035" style="fill: #a6cee3; fill-opacity: 0.8; stroke: #ffffff; stroke-opacity: 0.8; stroke-width: 0.95"/>
    <use xlink:href="#C4_0_c1042f8980" x="348.82737" y="73.173958" style="fill: #a6cee3; fill-opacity: 0.8; stroke: #ffffff; stroke-opacity: 0.8; stroke-width: 0.95"/>
    <use xlink:href="#C4_0_c1042f8980" x="355.045088" y="116.933551" style="fill: #a6cee3; fill-opacity: 0.8; stroke: #ffffff; stroke-opacity: 0.8; stroke-width: 0.95"/>
    <use xlink:href="#C4_0_c1042f8980" x="351.982227" y="149.947272" style="fill: #a6cee3; fill-opacity: 0.8; stroke: #ffffff; stroke-opacity: 0.8; stroke-width: 0.95"/>
    <use xlink:href="#C4_0_c1042f8980" x="355.639199" y="45.302835" style="fill: #a6cee3; fill-opacity: 0.8; stroke: #ffffff; stroke-opacity: 0.8; stroke-width: 0.95"/>
    <use xlink:href="#C4_0_c1042f8980" x="348.410893" y="65.240553" style="fill: #a6cee3; fill-opacity: 0.8; stroke: #ffffff; stroke-opacity: 0.8; stroke-width: 0.95"/>
    <use xlink:href="#C4_0_c1042f8980" x="353.052555" y="121.903585" style="fill: #a6cee3; fill-opacity: 0.8; stroke: #ffffff; stroke-opacity: 0.8; stroke-width: 0.95"/>
    <use xlink:href="#C4_0_c1042f8980" x="355.861299" y="73.443263" style="fill: #a6cee3; fill-opacity: 0.8; stroke: #ffffff; stroke-opacity: 0.8; stroke-width: 0.95"/>
    <use xlink:href="#C4_0_c1042f8980" x="353.478735" y="41.22056" style="fill: #a6cee3; fill-opacity: 0.8; stroke: #ffffff; stroke-opacity: 0.8; stroke-width: 0.95"/>
    <use xlink:href="#C4_0_c1042f8980" x="353.625534" y="79.653559" style="fill: #a6cee3; fill-opacity: 0.8; stroke: #ffffff; stroke-opacity: 0.8; stroke-width: 0.95"/>
    <use xlink:href="#C4_0_c1042f8980" x="351.143718" y="70.118786" style="fill: #a6cee3; fill-opacity: 0.8; stroke: #ffffff; stroke-opacity: 0.8; stroke-width: 0.95"/>
   </g>
   <g id="PathCollection_10">
    <defs>
     <path id="C5_0_a6eacb7cea" d="M 0 3.5 
C 0.928211 3.5 1.81853 3.131218 2.474874 2.474874 
C 3.131218 1.81853 3.5 0.928211 3.5 -0 
C 3.5 -0.928211 3.131218 -1.81853 2.474874 -2.474874 
C 1.81853 -3.131218 0.928211 -3.5 0 -3.5 
C -0.928211 -3.5 -1.81853 -3.131218 -2.474874 -2.474874 
C -3.131218 -1.81853 -3.5 -0.928211 -3.5 0 
C -3.5 0.928211 -3.131218 1.81853 -2.474874 2.474874 
C -1.81853 3.131218 -0.928211 3.5 0 3.5 
z
"/>
    </defs>
    <use xlink:href="#C5_0_a6eacb7cea" x="394.893999" y="32.336175" style="fill: #1f78b4; fill-opacity: 0.8; stroke: #ffffff; stroke-opacity: 0.8; stroke-width: 0.95"/>
    <use xlink:href="#C5_0_a6eacb7cea" x="391.652263" y="63.131775" style="fill: #1f78b4; fill-opacity: 0.8; stroke: #ffffff; stroke-opacity: 0.8; stroke-width: 0.95"/>
    <use xlink:href="#C5_0_a6eacb7cea" x="398.830527" y="33.173695" style="fill: #1f78b4; fill-opacity: 0.8; stroke: #ffffff; stroke-opacity: 0.8; stroke-width: 0.95"/>
    <use xlink:href="#C5_0_a6eacb7cea" x="397.631347" y="74.602575" style="fill: #1f78b4; fill-opacity: 0.8; stroke: #ffffff; stroke-opacity: 0.8; stroke-width: 0.95"/>
    <use xlink:href="#C5_0_a6eacb7cea" x="394.813878" y="154.743558" style="fill: #1f78b4; fill-opacity: 0.8; stroke: #ffffff; stroke-opacity: 0.8; stroke-width: 0.95"/>
    <use xlink:href="#C5_0_a6eacb7cea" x="392.102528" y="47.496158" style="fill: #1f78b4; fill-opacity: 0.8; stroke: #ffffff; stroke-opacity: 0.8; stroke-width: 0.95"/>
    <use xlink:href="#C5_0_a6eacb7cea" x="389.436544" y="82.979517" style="fill: #1f78b4; fill-opacity: 0.8; stroke: #ffffff; stroke-opacity: 0.8; stroke-width: 0.95"/>
    <use xlink:href="#C5_0_a6eacb7cea" x="389.94534" y="130.784379" style="fill: #1f78b4; fill-opacity: 0.8; stroke: #ffffff; stroke-opacity: 0.8; stroke-width: 0.95"/>
    <use xlink:href="#C5_0_a6eacb7cea" x="395.209968" y="149.669678" style="fill: #1f78b4; fill-opacity: 0.8; stroke: #ffffff; stroke-opacity: 0.8; stroke-width: 0.95"/>
   </g>
   <g id="PathCollection_11">
    <defs>
     <path id="C6_0_981728cba8" d="M 0 3.5 
C 0.928211 3.5 1.81853 3.131218 2.474874 2.474874 
C 3.131218 1.81853 3.5 0.928211 3.5 -0 
C 3.5 -0.928211 3.131218 -1.81853 2.474874 -2.474874 
C 1.81853 -3.131218 0.928211 -3.5 0 -3.5 
C -0.928211 -3.5 -1.81853 -3.131218 -2.474874 -2.474874 
C -3.131218 -1.81853 -3.5 -0.928211 -3.5 0 
C -3.5 0.928211 -3.131218 1.81853 -2.474874 2.474874 
C -1.81853 3.131218 -0.928211 3.5 0 3.5 
z
"/>
    </defs>
    <use xlink:href="#C6_0_981728cba8" x="458.731058" y="45.562965" style="fill: #a6cee3; fill-opacity: 0.8; stroke: #ffffff; stroke-opacity: 0.8; stroke-width: 0.95"/>
    <use xlink:href="#C6_0_981728cba8" x="459.501398" y="153.630065" style="fill: #a6cee3; fill-opacity: 0.8; stroke: #ffffff; stroke-opacity: 0.8; stroke-width: 0.95"/>
    <use xlink:href="#C6_0_981728cba8" x="457.272679" y="32.957491" style="fill: #a6cee3; fill-opacity: 0.8; stroke: #ffffff; stroke-opacity: 0.8; stroke-width: 0.95"/>
    <use xlink:href="#C6_0_981728cba8" x="454.999603" y="30.009462" style="fill: #a6cee3; fill-opacity: 0.8; stroke: #ffffff; stroke-opacity: 0.8; stroke-width: 0.95"/>
    <use xlink:href="#C6_0_981728cba8" x="459.089539" y="76.151953" style="fill: #a6cee3; fill-opacity: 0.8; stroke: #ffffff; stroke-opacity: 0.8; stroke-width: 0.95"/>
    <use xlink:href="#C6_0_981728cba8" x="455.112963" y="62.521142" style="fill: #a6cee3; fill-opacity: 0.8; stroke: #ffffff; stroke-opacity: 0.8; stroke-width: 0.95"/>
    <use xlink:href="#C6_0_981728cba8" x="453.143364" y="73.302893" style="fill: #a6cee3; fill-opacity: 0.8; stroke: #ffffff; stroke-opacity: 0.8; stroke-width: 0.95"/>
   </g>
   <g id="PathCollection_12">
    <defs>
     <path id="C7_0_8caeeafdd0" d="M 0 3.5 
C 0.928211 3.5 1.81853 3.131218 2.474874 2.474874 
C 3.131218 1.81853 3.5 0.928211 3.5 -0 
C 3.5 -0.928211 3.131218 -1.81853 2.474874 -2.474874 
C 1.81853 -3.131218 0.928211 -3.5 0 -3.5 
C -0.928211 -3.5 -1.81853 -3.131218 -2.474874 -2.474874 
C -3.131218 -1.81853 -3.5 -0.928211 -3.5 0 
C -3.5 0.928211 -3.131218 1.81853 -2.474874 2.474874 
C -1.81853 3.131218 -0.928211 3.5 0 3.5 
z
"/>
    </defs>
    <use xlink:href="#C7_0_8caeeafdd0" x="498.813168" y="84.465717" style="fill: #1f78b4; fill-opacity: 0.8; stroke: #ffffff; stroke-opacity: 0.8; stroke-width: 0.95"/>
    <use xlink:href="#C7_0_8caeeafdd0" x="499.30575" y="98.832074" style="fill: #1f78b4; fill-opacity: 0.8; stroke: #ffffff; stroke-opacity: 0.8; stroke-width: 0.95"/>
    <use xlink:href="#C7_0_8caeeafdd0" x="491.416439" y="106.69115" style="fill: #1f78b4; fill-opacity: 0.8; stroke: #ffffff; stroke-opacity: 0.8; stroke-width: 0.95"/>
    <use xlink:href="#C7_0_8caeeafdd0" x="497.704562" y="42.338021" style="fill: #1f78b4; fill-opacity: 0.8; stroke: #ffffff; stroke-opacity: 0.8; stroke-width: 0.95"/>
    <use xlink:href="#C7_0_8caeeafdd0" x="493.291408" y="64.683853" style="fill: #1f78b4; fill-opacity: 0.8; stroke: #ffffff; stroke-opacity: 0.8; stroke-width: 0.95"/>
    <use xlink:href="#C7_0_8caeeafdd0" x="500.405498" y="48.842602" style="fill: #1f78b4; fill-opacity: 0.8; stroke: #ffffff; stroke-opacity: 0.8; stroke-width: 0.95"/>
    <use xlink:href="#C7_0_8caeeafdd0" x="498.349391" y="87.727616" style="fill: #1f78b4; fill-opacity: 0.8; stroke: #ffffff; stroke-opacity: 0.8; stroke-width: 0.95"/>
    <use xlink:href="#C7_0_8caeeafdd0" x="499.755267" y="61.475311" style="fill: #1f78b4; fill-opacity: 0.8; stroke: #ffffff; stroke-opacity: 0.8; stroke-width: 0.95"/>
    <use xlink:href="#C7_0_8caeeafdd0" x="499.201547" y="75.697959" style="fill: #1f78b4; fill-opacity: 0.8; stroke: #ffffff; stroke-opacity: 0.8; stroke-width: 0.95"/>
    <use xlink:href="#C7_0_8caeeafdd0" x="495.253201" y="53.165994" style="fill: #1f78b4; fill-opacity: 0.8; stroke: #ffffff; stroke-opacity: 0.8; stroke-width: 0.95"/>
    <use xlink:href="#C7_0_8caeeafdd0" x="492.502915" y="146.039685" style="fill: #1f78b4; fill-opacity: 0.8; stroke: #ffffff; stroke-opacity: 0.8; stroke-width: 0.95"/>
    <use xlink:href="#C7_0_8caeeafdd0" x="499.358335" y="42.779985" style="fill: #1f78b4; fill-opacity: 0.8; stroke: #ffffff; stroke-opacity: 0.8; stroke-width: 0.95"/>
    <use xlink:href="#C7_0_8caeeafdd0" x="493.164518" y="22.81508" style="fill: #1f78b4; fill-opacity: 0.8; stroke: #ffffff; stroke-opacity: 0.8; stroke-width: 0.95"/>
    <use xlink:href="#C7_0_8caeeafdd0" x="492.114664" y="127.087254" style="fill: #1f78b4; fill-opacity: 0.8; stroke: #ffffff; stroke-opacity: 0.8; stroke-width: 0.95"/>
   </g>
   <g id="PathCollection_13"/>
   <g id="PathCollection_14"/>
   <g id="line2d_28">
    <path d="M 353.2065 83.85762 
L 353.2065 61.64693 
" clip-path="url(#p29da3f55e2)" style="fill: none; stroke: #000000; stroke-width: 1.9; stroke-linecap: round"/>
   </g>
   <g id="line2d_29">
    <path d="M 353.2065 83.85762 
L 353.2065 83.85762 
" clip-path="url(#p29da3f55e2)" style="fill: none; stroke: #000000; stroke-width: 1.9; stroke-linecap: round"/>
   </g>
   <g id="line2d_30">
    <path d="M 353.2065 61.64693 
L 353.2065 61.64693 
" clip-path="url(#p29da3f55e2)" style="fill: none; stroke: #000000; stroke-width: 1.9; stroke-linecap: round"/>
   </g>
   <g id="line2d_31">
    <path d="M 455.4615 83.643638 
L 455.4615 51.823782 
" clip-path="url(#p29da3f55e2)" style="fill: none; stroke: #000000; stroke-width: 1.9; stroke-linecap: round"/>
   </g>
   <g id="line2d_32">
    <path d="M 455.4615 83.643638 
L 455.4615 83.643638 
" clip-path="url(#p29da3f55e2)" style="fill: none; stroke: #000000; stroke-width: 1.9; stroke-linecap: round"/>
   </g>
   <g id="line2d_33">
    <path d="M 455.4615 51.823782 
L 455.4615 51.823782 
" clip-path="url(#p29da3f55e2)" style="fill: none; stroke: #000000; stroke-width: 1.9; stroke-linecap: round"/>
   </g>
   <g id="line2d_34">
    <path d="M 394.1085 101.506832 
L 394.1085 69.363726 
" clip-path="url(#p29da3f55e2)" style="fill: none; stroke: #000000; stroke-width: 1.9; stroke-linecap: round"/>
   </g>
   <g id="line2d_35">
    <path d="M 394.1085 101.506832 
L 394.1085 101.506832 
" clip-path="url(#p29da3f55e2)" style="fill: none; stroke: #000000; stroke-width: 1.9; stroke-linecap: round"/>
   </g>
   <g id="line2d_36">
    <path d="M 394.1085 69.363726 
L 394.1085 69.363726 
" clip-path="url(#p29da3f55e2)" style="fill: none; stroke: #000000; stroke-width: 1.9; stroke-linecap: round"/>
   </g>
   <g id="line2d_37">
    <path d="M 496.3635 85.235451 
L 496.3635 66.570592 
" clip-path="url(#p29da3f55e2)" style="fill: none; stroke: #000000; stroke-width: 1.9; stroke-linecap: round"/>
   </g>
   <g id="line2d_38">
    <path d="M 496.3635 85.235451 
L 496.3635 85.235451 
" clip-path="url(#p29da3f55e2)" style="fill: none; stroke: #000000; stroke-width: 1.9; stroke-linecap: round"/>
   </g>
   <g id="line2d_39">
    <path d="M 496.3635 66.570592 
L 496.3635 66.570592 
" clip-path="url(#p29da3f55e2)" style="fill: none; stroke: #000000; stroke-width: 1.9; stroke-linecap: round"/>
   </g>
   <g id="patch_16">
    <path d="M 322.53 173.22 
L 322.53 18.619006 
" style="fill: none; stroke: #262626; stroke-width: 1.25; stroke-linejoin: miter; stroke-linecap: square"/>
   </g>
   <g id="legend_2"/>
  </g>
 </g>
 <defs>
  <clipPath id="p7d82092c9e">
   <rect x="55.5" y="17.16" width="204.51" height="156.06"/>
  </clipPath>
  <clipPath id="p29da3f55e2">
   <rect x="322.53" y="17.16" width="204.51" height="156.06"/>
  </clipPath>
 </defs>
</svg>
