<?xml version="1.0" encoding="utf-8" standalone="no"?>
<!DOCTYPE svg PUBLIC "-//W3C//DTD SVG 1.1//EN"
  "http://www.w3.org/Graphics/SVG/1.1/DTD/svg11.dtd">
<svg xmlns:xlink="http://www.w3.org/1999/xlink" width="540pt" height="216pt" viewBox="0 0 540 216" xmlns="http://www.w3.org/2000/svg" version="1.1">
 <metadata>
  <rdf:RDF xmlns:dc="http://purl.org/dc/elements/1.1/" xmlns:cc="http://creativecommons.org/ns#" xmlns:rdf="http://www.w3.org/1999/02/22-rdf-syntax-ns#">
   <cc:Work>
    <dc:type rdf:resource="http://purl.org/dc/dcmitype/StillImage"/>
    <dc:date>2023-03-16T17:37:28.838189</dc:date>
    <dc:format>image/svg+xml</dc:format>
    <dc:creator>
     <cc:Agent>
      <dc:title>Matplotlib v3.7.0, https://matplotlib.org/</dc:title>
     </cc:Agent>
    </dc:creator>
   </cc:Work>
  </rdf:RDF>
 </metadata>
 <defs>
  <style type="text/css">*{stroke-linejoin: round; stroke-linecap: butt}</style>
 </defs>
 <g id="figure_1">
  <g id="patch_1">
   <path d="M 0 216 
L 540 216 
L 540 0 
L 0 0 
z
" style="fill: #ffffff"/>
  </g>
  <g id="axes_1">
   <g id="patch_2">
    <path d="M 55.5 173.22 
L 263.52 173.22 
L 263.52 12.96 
L 55.5 12.96 
z
" style="fill: #ffffff"/>
   </g>
   <g id="patch_3">
    <path d="M 65.901 173.22 
L 107.505 173.22 
L 107.505 101.23019 
L 65.901 101.23019 
z
" clip-path="url(#p973294e354)" style="fill: #aeccdb; opacity: 0.5; stroke: #ffffff; stroke-linejoin: miter"/>
   </g>
   <g id="patch_4">
    <path d="M 169.911 173.22 
L 211.515 173.22 
L 211.515 76.985729 
L 169.911 76.985729 
z
" clip-path="url(#p973294e354)" style="fill: #aeccdb; opacity: 0.5; stroke: #ffffff; stroke-linejoin: miter"/>
   </g>
   <g id="patch_5">
    <path d="M 107.505 173.22 
L 149.109 173.22 
L 149.109 75.007754 
L 107.505 75.007754 
z
" clip-path="url(#p973294e354)" style="fill: #3274a1; opacity: 0.5; stroke: #ffffff; stroke-linejoin: miter"/>
   </g>
   <g id="patch_6">
    <path d="M 211.515 173.22 
L 253.119 173.22 
L 253.119 48.454622 
L 211.515 48.454622 
z
" clip-path="url(#p973294e354)" style="fill: #3274a1; opacity: 0.5; stroke: #ffffff; stroke-linejoin: miter"/>
   </g>
   <g id="matplotlib.axis_1">
    <g id="xtick_1">
     <g id="line2d_1"/>
     <g id="text_1">
      <text style="fill: #262626; font: 11px 'Arial', 'DejaVu Sans', 'Liberation Sans', 'Bitstream Vera Sans', sans-serif; text-anchor: middle" x="107.505" y="185.078281" transform="rotate(-0 107.505 185.078281)">1.5</text>
     </g>
    </g>
    <g id="xtick_2">
     <g id="line2d_2"/>
     <g id="text_2">
      <text style="fill: #262626; font: 11px 'Arial', 'DejaVu Sans', 'Liberation Sans', 'Bitstream Vera Sans', sans-serif; text-anchor: middle" x="211.515" y="185.078281" transform="rotate(-0 211.515 185.078281)">2.5</text>
     </g>
    </g>
    <g id="text_3">
     <text style="fill: #262626; font: 12px 'Arial', 'DejaVu Sans', 'Liberation Sans', 'Bitstream Vera Sans', sans-serif; text-anchor: middle" x="159.51" y="200.484062" transform="rotate(-0 159.51 200.484062)">multiplier</text>
    </g>
   </g>
   <g id="matplotlib.axis_2">
    <g id="ytick_1">
     <g id="line2d_3">
      <defs>
       <path id="m1e90aed455" d="M 0 0 
L -6 0 
" style="stroke: #262626; stroke-width: 1.25"/>
      </defs>
      <g>
       <use xlink:href="#m1e90aed455" x="55.5" y="173.22" style="fill: #262626; stroke: #262626; stroke-width: 1.25"/>
      </g>
     </g>
     <g id="text_4">
      <text style="fill: #262626; font: 11px 'Arial', 'DejaVu Sans', 'Liberation Sans', 'Bitstream Vera Sans', sans-serif; text-anchor: end" x="46" y="177.399141" transform="rotate(-0 46 177.399141)">0.0</text>
     </g>
    </g>
    <g id="ytick_2">
     <g id="line2d_4">
      <g>
       <use xlink:href="#m1e90aed455" x="55.5" y="142.694286" style="fill: #262626; stroke: #262626; stroke-width: 1.25"/>
      </g>
     </g>
     <g id="text_5">
      <text style="fill: #262626; font: 11px 'Arial', 'DejaVu Sans', 'Liberation Sans', 'Bitstream Vera Sans', sans-serif; text-anchor: end" x="46" y="146.873426" transform="rotate(-0 46 146.873426)">0.2</text>
     </g>
    </g>
    <g id="ytick_3">
     <g id="line2d_5">
      <g>
       <use xlink:href="#m1e90aed455" x="55.5" y="112.168571" style="fill: #262626; stroke: #262626; stroke-width: 1.25"/>
      </g>
     </g>
     <g id="text_6">
      <text style="fill: #262626; font: 11px 'Arial', 'DejaVu Sans', 'Liberation Sans', 'Bitstream Vera Sans', sans-serif; text-anchor: end" x="46" y="116.347712" transform="rotate(-0 46 116.347712)">0.4</text>
     </g>
    </g>
    <g id="ytick_4">
     <g id="line2d_6">
      <g>
       <use xlink:href="#m1e90aed455" x="55.5" y="81.642857" style="fill: #262626; stroke: #262626; stroke-width: 1.25"/>
      </g>
     </g>
     <g id="text_7">
      <text style="fill: #262626; font: 11px 'Arial', 'DejaVu Sans', 'Liberation Sans', 'Bitstream Vera Sans', sans-serif; text-anchor: end" x="46" y="85.821998" transform="rotate(-0 46 85.821998)">0.6</text>
     </g>
    </g>
    <g id="ytick_5">
     <g id="line2d_7">
      <g>
       <use xlink:href="#m1e90aed455" x="55.5" y="51.117143" style="fill: #262626; stroke: #262626; stroke-width: 1.25"/>
      </g>
     </g>
     <g id="text_8">
      <text style="fill: #262626; font: 11px 'Arial', 'DejaVu Sans', 'Liberation Sans', 'Bitstream Vera Sans', sans-serif; text-anchor: end" x="46" y="55.296283" transform="rotate(-0 46 55.296283)">0.8</text>
     </g>
    </g>
    <g id="ytick_6">
     <g id="line2d_8">
      <g>
       <use xlink:href="#m1e90aed455" x="55.5" y="20.591429" style="fill: #262626; stroke: #262626; stroke-width: 1.25"/>
      </g>
     </g>
     <g id="text_9">
      <text style="fill: #262626; font: 11px 'Arial', 'DejaVu Sans', 'Liberation Sans', 'Bitstream Vera Sans', sans-serif; text-anchor: end" x="46" y="24.770569" transform="rotate(-0 46 24.770569)">1.0</text>
     </g>
    </g>
    <g id="text_10">
     <text style="fill: #262626; font: 12px 'Arial', 'DejaVu Sans', 'Liberation Sans', 'Bitstream Vera Sans', sans-serif; text-anchor: middle" x="22.010938" y="93.09" transform="rotate(-90 22.010938 93.09)">contribution</text>
    </g>
   </g>
   <g id="PathCollection_1">
    <defs>
     <path id="C0_0_2c64a37dda" d="M 0 3.5 
C 0.928211 3.5 1.81853 3.131218 2.474874 2.474874 
C 3.131218 1.81853 3.5 0.928211 3.5 -0 
C 3.5 -0.928211 3.131218 -1.81853 2.474874 -2.474874 
C 1.81853 -3.131218 0.928211 -3.5 0 -3.5 
C -0.928211 -3.5 -1.81853 -3.131218 -2.474874 -2.474874 
C -3.131218 -1.81853 -3.5 -0.928211 -3.5 0 
C -3.5 0.928211 -3.131218 1.81853 -2.474874 2.474874 
C -1.81853 3.131218 -0.928211 3.5 0 3.5 
z
"/>
    </defs>
    <use xlink:href="#C0_0_2c64a37dda" x="89.521895" y="86.730476" style="fill: #a6cee3; fill-opacity: 0.8; stroke: #ffffff; stroke-opacity: 0.8; stroke-width: 0.95"/>
    <use xlink:href="#C0_0_2c64a37dda" x="82.596822" y="70.450095" style="fill: #a6cee3; fill-opacity: 0.8; stroke: #ffffff; stroke-opacity: 0.8; stroke-width: 0.95"/>
    <use xlink:href="#C0_0_2c64a37dda" x="85.03727" y="146.001238" style="fill: #a6cee3; fill-opacity: 0.8; stroke: #ffffff; stroke-opacity: 0.8; stroke-width: 0.95"/>
    <use xlink:href="#C0_0_2c64a37dda" x="86.411008" y="134.299714" style="fill: #a6cee3; fill-opacity: 0.8; stroke: #ffffff; stroke-opacity: 0.8; stroke-width: 0.95"/>
    <use xlink:href="#C0_0_2c64a37dda" x="83.615573" y="107.844095" style="fill: #a6cee3; fill-opacity: 0.8; stroke: #ffffff; stroke-opacity: 0.8; stroke-width: 0.95"/>
    <use xlink:href="#C0_0_2c64a37dda" x="89.927706" y="96.142571" style="fill: #a6cee3; fill-opacity: 0.8; stroke: #ffffff; stroke-opacity: 0.8; stroke-width: 0.95"/>
    <use xlink:href="#C0_0_2c64a37dda" x="84.832073" y="121.835048" style="fill: #a6cee3; fill-opacity: 0.8; stroke: #ffffff; stroke-opacity: 0.8; stroke-width: 0.95"/>
    <use xlink:href="#C0_0_2c64a37dda" x="90.7386" y="123.870095" style="fill: #a6cee3; fill-opacity: 0.8; stroke: #ffffff; stroke-opacity: 0.8; stroke-width: 0.95"/>
    <use xlink:href="#C0_0_2c64a37dda" x="89.611998" y="121.835048" style="fill: #a6cee3; fill-opacity: 0.8; stroke: #ffffff; stroke-opacity: 0.8; stroke-width: 0.95"/>
    <use xlink:href="#C0_0_2c64a37dda" x="83.208343" y="81.897238" style="fill: #a6cee3; fill-opacity: 0.8; stroke: #ffffff; stroke-opacity: 0.8; stroke-width: 0.95"/>
    <use xlink:href="#C0_0_2c64a37dda" x="88.470648" y="20.591429" style="fill: #a6cee3; fill-opacity: 0.8; stroke: #ffffff; stroke-opacity: 0.8; stroke-width: 0.95"/>
    <use xlink:href="#C0_0_2c64a37dda" x="90.365051" y="55.696" style="fill: #a6cee3; fill-opacity: 0.8; stroke: #ffffff; stroke-opacity: 0.8; stroke-width: 0.95"/>
    <use xlink:href="#C0_0_2c64a37dda" x="84.359541" y="162.281619" style="fill: #a6cee3; fill-opacity: 0.8; stroke: #ffffff; stroke-opacity: 0.8; stroke-width: 0.95"/>
    <use xlink:href="#C0_0_2c64a37dda" x="87.836581" y="75.028952" style="fill: #a6cee3; fill-opacity: 0.8; stroke: #ffffff; stroke-opacity: 0.8; stroke-width: 0.95"/>
    <use xlink:href="#C0_0_2c64a37dda" x="83.020564" y="78.335905" style="fill: #a6cee3; fill-opacity: 0.8; stroke: #ffffff; stroke-opacity: 0.8; stroke-width: 0.95"/>
    <use xlink:href="#C0_0_2c64a37dda" x="90.925922" y="136.843524" style="fill: #a6cee3; fill-opacity: 0.8; stroke: #ffffff; stroke-opacity: 0.8; stroke-width: 0.95"/>
   </g>
   <g id="PathCollection_2">
    <defs>
     <path id="C1_0_28b082e675" d="M 0 3.5 
C 0.928211 3.5 1.81853 3.131218 2.474874 2.474874 
C 3.131218 1.81853 3.5 0.928211 3.5 -0 
C 3.5 -0.928211 3.131218 -1.81853 2.474874 -2.474874 
C 1.81853 -3.131218 0.928211 -3.5 0 -3.5 
C -0.928211 -3.5 -1.81853 -3.131218 -2.474874 -2.474874 
C -3.131218 -1.81853 -3.5 -0.928211 -3.5 0 
C -3.5 0.928211 -3.131218 1.81853 -2.474874 2.474874 
C -1.81853 3.131218 -0.928211 3.5 0 3.5 
z
"/>
    </defs>
    <use xlink:href="#C1_0_28b082e675" x="123.249411" y="36.617429" style="fill: #1f78b4; fill-opacity: 0.8; stroke: #ffffff; stroke-opacity: 0.8; stroke-width: 0.95"/>
    <use xlink:href="#C1_0_28b082e675" x="126.255057" y="81.897238" style="fill: #1f78b4; fill-opacity: 0.8; stroke: #ffffff; stroke-opacity: 0.8; stroke-width: 0.95"/>
    <use xlink:href="#C1_0_28b082e675" x="129.891842" y="132.264667" style="fill: #1f78b4; fill-opacity: 0.8; stroke: #ffffff; stroke-opacity: 0.8; stroke-width: 0.95"/>
    <use xlink:href="#C1_0_28b082e675" x="132.854831" y="129.720857" style="fill: #1f78b4; fill-opacity: 0.8; stroke: #ffffff; stroke-opacity: 0.8; stroke-width: 0.95"/>
    <use xlink:href="#C1_0_28b082e675" x="133.449824" y="20.591429" style="fill: #1f78b4; fill-opacity: 0.8; stroke: #ffffff; stroke-opacity: 0.8; stroke-width: 0.95"/>
    <use xlink:href="#C1_0_28b082e675" x="127.9188" y="55.187238" style="fill: #1f78b4; fill-opacity: 0.8; stroke: #ffffff; stroke-opacity: 0.8; stroke-width: 0.95"/>
    <use xlink:href="#C1_0_28b082e675" x="127.252169" y="26.696571" style="fill: #1f78b4; fill-opacity: 0.8; stroke: #ffffff; stroke-opacity: 0.8; stroke-width: 0.95"/>
    <use xlink:href="#C1_0_28b082e675" x="127.204663" y="80.879714" style="fill: #1f78b4; fill-opacity: 0.8; stroke: #ffffff; stroke-opacity: 0.8; stroke-width: 0.95"/>
    <use xlink:href="#C1_0_28b082e675" x="129.725358" y="65.362476" style="fill: #1f78b4; fill-opacity: 0.8; stroke: #ffffff; stroke-opacity: 0.8; stroke-width: 0.95"/>
    <use xlink:href="#C1_0_28b082e675" x="132.952701" y="102.756476" style="fill: #1f78b4; fill-opacity: 0.8; stroke: #ffffff; stroke-opacity: 0.8; stroke-width: 0.95"/>
    <use xlink:href="#C1_0_28b082e675" x="129.254193" y="91.563714" style="fill: #1f78b4; fill-opacity: 0.8; stroke: #ffffff; stroke-opacity: 0.8; stroke-width: 0.95"/>
    <use xlink:href="#C1_0_28b082e675" x="125.335295" y="76.555238" style="fill: #1f78b4; fill-opacity: 0.8; stroke: #ffffff; stroke-opacity: 0.8; stroke-width: 0.95"/>
   </g>
   <g id="PathCollection_3">
    <defs>
     <path id="C2_0_680fe5f54b" d="M 0 3.5 
C 0.928211 3.5 1.81853 3.131218 2.474874 2.474874 
C 3.131218 1.81853 3.5 0.928211 3.5 -0 
C 3.5 -0.928211 3.131218 -1.81853 2.474874 -2.474874 
C 1.81853 -3.131218 0.928211 -3.5 0 -3.5 
C -0.928211 -3.5 -1.81853 -3.131218 -2.474874 -2.474874 
C -3.131218 -1.81853 -3.5 -0.928211 -3.5 0 
C -3.5 0.928211 -3.131218 1.81853 -2.474874 2.474874 
C -1.81853 3.131218 -0.928211 3.5 0 3.5 
z
"/>
    </defs>
    <use xlink:href="#C2_0_680fe5f54b" x="195.318739" y="131.755905" style="fill: #a6cee3; fill-opacity: 0.8; stroke: #ffffff; stroke-opacity: 0.8; stroke-width: 0.95"/>
    <use xlink:href="#C2_0_680fe5f54b" x="192.990182" y="38.143714" style="fill: #a6cee3; fill-opacity: 0.8; stroke: #ffffff; stroke-opacity: 0.8; stroke-width: 0.95"/>
    <use xlink:href="#C2_0_680fe5f54b" x="187.916161" y="107.335333" style="fill: #a6cee3; fill-opacity: 0.8; stroke: #ffffff; stroke-opacity: 0.8; stroke-width: 0.95"/>
    <use xlink:href="#C2_0_680fe5f54b" x="188.855029" y="100.467048" style="fill: #a6cee3; fill-opacity: 0.8; stroke: #ffffff; stroke-opacity: 0.8; stroke-width: 0.95"/>
    <use xlink:href="#C2_0_680fe5f54b" x="195.333555" y="83.423524" style="fill: #a6cee3; fill-opacity: 0.8; stroke: #ffffff; stroke-opacity: 0.8; stroke-width: 0.95"/>
    <use xlink:href="#C2_0_680fe5f54b" x="189.219618" y="111.151048" style="fill: #a6cee3; fill-opacity: 0.8; stroke: #ffffff; stroke-opacity: 0.8; stroke-width: 0.95"/>
    <use xlink:href="#C2_0_680fe5f54b" x="185.733515" y="69.432571" style="fill: #a6cee3; fill-opacity: 0.8; stroke: #ffffff; stroke-opacity: 0.8; stroke-width: 0.95"/>
    <use xlink:href="#C2_0_680fe5f54b" x="187.185779" y="40.941905" style="fill: #a6cee3; fill-opacity: 0.8; stroke: #ffffff; stroke-opacity: 0.8; stroke-width: 0.95"/>
    <use xlink:href="#C2_0_680fe5f54b" x="193.834149" y="25.933429" style="fill: #a6cee3; fill-opacity: 0.8; stroke: #ffffff; stroke-opacity: 0.8; stroke-width: 0.95"/>
    <use xlink:href="#C2_0_680fe5f54b" x="187.791598" y="92.835619" style="fill: #a6cee3; fill-opacity: 0.8; stroke: #ffffff; stroke-opacity: 0.8; stroke-width: 0.95"/>
    <use xlink:href="#C2_0_680fe5f54b" x="190.853603" y="80.370952" style="fill: #a6cee3; fill-opacity: 0.8; stroke: #ffffff; stroke-opacity: 0.8; stroke-width: 0.95"/>
    <use xlink:href="#C2_0_680fe5f54b" x="189.009157" y="69.17819" style="fill: #a6cee3; fill-opacity: 0.8; stroke: #ffffff; stroke-opacity: 0.8; stroke-width: 0.95"/>
    <use xlink:href="#C2_0_680fe5f54b" x="192.482325" y="49.845238" style="fill: #a6cee3; fill-opacity: 0.8; stroke: #ffffff; stroke-opacity: 0.8; stroke-width: 0.95"/>
   </g>
   <g id="PathCollection_4">
    <defs>
     <path id="C3_0_e9135bf30c" d="M 0 3.5 
C 0.928211 3.5 1.81853 3.131218 2.474874 2.474874 
C 3.131218 1.81853 3.5 0.928211 3.5 -0 
C 3.5 -0.928211 3.131218 -1.81853 2.474874 -2.474874 
C 1.81853 -3.131218 0.928211 -3.5 0 -3.5 
C -0.928211 -3.5 -1.81853 -3.131218 -2.474874 -2.474874 
C -3.131218 -1.81853 -3.5 -0.928211 -3.5 0 
C -3.5 0.928211 -3.131218 1.81853 -2.474874 2.474874 
C -1.81853 3.131218 -0.928211 3.5 0 3.5 
z
"/>
    </defs>
    <use xlink:href="#C3_0_e9135bf30c" x="234.000401" y="22.880857" style="fill: #1f78b4; fill-opacity: 0.8; stroke: #ffffff; stroke-opacity: 0.8; stroke-width: 0.95"/>
    <use xlink:href="#C3_0_e9135bf30c" x="233.928387" y="27.459714" style="fill: #1f78b4; fill-opacity: 0.8; stroke: #ffffff; stroke-opacity: 0.8; stroke-width: 0.95"/>
    <use xlink:href="#C3_0_e9135bf30c" x="236.232358" y="20.591429" style="fill: #1f78b4; fill-opacity: 0.8; stroke: #ffffff; stroke-opacity: 0.8; stroke-width: 0.95"/>
    <use xlink:href="#C3_0_e9135bf30c" x="236.259473" y="72.993905" style="fill: #1f78b4; fill-opacity: 0.8; stroke: #ffffff; stroke-opacity: 0.8; stroke-width: 0.95"/>
    <use xlink:href="#C3_0_e9135bf30c" x="229.276512" y="33.819238" style="fill: #1f78b4; fill-opacity: 0.8; stroke: #ffffff; stroke-opacity: 0.8; stroke-width: 0.95"/>
    <use xlink:href="#C3_0_e9135bf30c" x="228.137339" y="84.186667" style="fill: #1f78b4; fill-opacity: 0.8; stroke: #ffffff; stroke-opacity: 0.8; stroke-width: 0.95"/>
    <use xlink:href="#C3_0_e9135bf30c" x="231.499146" y="30.766667" style="fill: #1f78b4; fill-opacity: 0.8; stroke: #ffffff; stroke-opacity: 0.8; stroke-width: 0.95"/>
    <use xlink:href="#C3_0_e9135bf30c" x="237.005974" y="53.660952" style="fill: #1f78b4; fill-opacity: 0.8; stroke: #ffffff; stroke-opacity: 0.8; stroke-width: 0.95"/>
    <use xlink:href="#C3_0_e9135bf30c" x="228.670511" y="85.20419" style="fill: #1f78b4; fill-opacity: 0.8; stroke: #ffffff; stroke-opacity: 0.8; stroke-width: 0.95"/>
    <use xlink:href="#C3_0_e9135bf30c" x="235.448999" y="24.661524" style="fill: #1f78b4; fill-opacity: 0.8; stroke: #ffffff; stroke-opacity: 0.8; stroke-width: 0.95"/>
    <use xlink:href="#C3_0_e9135bf30c" x="228.718203" y="42.21381" style="fill: #1f78b4; fill-opacity: 0.8; stroke: #ffffff; stroke-opacity: 0.8; stroke-width: 0.95"/>
    <use xlink:href="#C3_0_e9135bf30c" x="229.322922" y="54.932857" style="fill: #1f78b4; fill-opacity: 0.8; stroke: #ffffff; stroke-opacity: 0.8; stroke-width: 0.95"/>
    <use xlink:href="#C3_0_e9135bf30c" x="227.68029" y="20.591429" style="fill: #1f78b4; fill-opacity: 0.8; stroke: #ffffff; stroke-opacity: 0.8; stroke-width: 0.95"/>
    <use xlink:href="#C3_0_e9135bf30c" x="232.032402" y="48.573333" style="fill: #1f78b4; fill-opacity: 0.8; stroke: #ffffff; stroke-opacity: 0.8; stroke-width: 0.95"/>
    <use xlink:href="#C3_0_e9135bf30c" x="227.840339" y="104.282762" style="fill: #1f78b4; fill-opacity: 0.8; stroke: #ffffff; stroke-opacity: 0.8; stroke-width: 0.95"/>
   </g>
   <g id="PathCollection_5"/>
   <g id="PathCollection_6"/>
   <g id="line2d_9">
    <path d="M 86.703 110.549298 
L 86.703 91.911083 
" clip-path="url(#p973294e354)" style="fill: none; stroke: #000000; stroke-width: 1.9; stroke-linecap: round"/>
   </g>
   <g id="line2d_10">
    <path d="M 86.703 110.549298 
L 86.703 110.549298 
" clip-path="url(#p973294e354)" style="fill: none; stroke: #000000; stroke-width: 1.9; stroke-linecap: round"/>
   </g>
   <g id="line2d_11">
    <path d="M 86.703 91.911083 
L 86.703 91.911083 
" clip-path="url(#p973294e354)" style="fill: none; stroke: #000000; stroke-width: 1.9; stroke-linecap: round"/>
   </g>
   <g id="line2d_12">
    <path d="M 190.713 85.833605 
L 190.713 68.137853 
" clip-path="url(#p973294e354)" style="fill: none; stroke: #000000; stroke-width: 1.9; stroke-linecap: round"/>
   </g>
   <g id="line2d_13">
    <path d="M 190.713 85.833605 
L 190.713 85.833605 
" clip-path="url(#p973294e354)" style="fill: none; stroke: #000000; stroke-width: 1.9; stroke-linecap: round"/>
   </g>
   <g id="line2d_14">
    <path d="M 190.713 68.137853 
L 190.713 68.137853 
" clip-path="url(#p973294e354)" style="fill: none; stroke: #000000; stroke-width: 1.9; stroke-linecap: round"/>
   </g>
   <g id="line2d_15">
    <path d="M 128.307 85.544528 
L 128.307 64.47098 
" clip-path="url(#p973294e354)" style="fill: none; stroke: #000000; stroke-width: 1.9; stroke-linecap: round"/>
   </g>
   <g id="line2d_16">
    <path d="M 128.307 85.544528 
L 128.307 85.544528 
" clip-path="url(#p973294e354)" style="fill: none; stroke: #000000; stroke-width: 1.9; stroke-linecap: round"/>
   </g>
   <g id="line2d_17">
    <path d="M 128.307 64.47098 
L 128.307 64.47098 
" clip-path="url(#p973294e354)" style="fill: none; stroke: #000000; stroke-width: 1.9; stroke-linecap: round"/>
   </g>
   <g id="line2d_18">
    <path d="M 232.317 55.422231 
L 232.317 41.487013 
" clip-path="url(#p973294e354)" style="fill: none; stroke: #000000; stroke-width: 1.9; stroke-linecap: round"/>
   </g>
   <g id="line2d_19">
    <path d="M 232.317 55.422231 
L 232.317 55.422231 
" clip-path="url(#p973294e354)" style="fill: none; stroke: #000000; stroke-width: 1.9; stroke-linecap: round"/>
   </g>
   <g id="line2d_20">
    <path d="M 232.317 41.487013 
L 232.317 41.487013 
" clip-path="url(#p973294e354)" style="fill: none; stroke: #000000; stroke-width: 1.9; stroke-linecap: round"/>
   </g>
   <g id="patch_7">
    <path d="M 55.5 173.22 
L 55.5 20.591429 
" style="fill: none; stroke: #262626; stroke-width: 1.25; stroke-linejoin: miter; stroke-linecap: square"/>
   </g>
   <g id="legend_1">
    <g id="patch_8">
     <path d="M 147.353125 167.72 
L 255.82 167.72 
Q 258.02 167.72 258.02 165.52 
L 258.02 84.58875 
Q 258.02 82.38875 255.82 82.38875 
L 147.353125 82.38875 
Q 145.153125 82.38875 145.153125 84.58875 
L 145.153125 165.52 
Q 145.153125 167.72 147.353125 167.72 
z
" style="fill: #ffffff; opacity: 0.8; stroke: #cccccc; stroke-linejoin: miter"/>
    </g>
    <g id="text_11">
     <text style="fill: #262626; font: 12px 'Arial', 'DejaVu Sans', 'Liberation Sans', 'Bitstream Vera Sans', sans-serif; text-anchor: start" x="158.659375" y="95.906875" transform="rotate(-0 158.659375 95.906875)">discloser_type</text>
    </g>
    <g id="PathCollection_7">
     <defs>
      <path id="ma13767b6d0" d="M 0 3 
C 0.795609 3 1.55874 2.683901 2.12132 2.12132 
C 2.683901 1.55874 3 0.795609 3 0 
C 3 -0.795609 2.683901 -1.55874 2.12132 -2.12132 
C 1.55874 -2.683901 0.795609 -3 0 -3 
C -0.795609 -3 -1.55874 -2.683901 -2.12132 -2.12132 
C -2.683901 -1.55874 -3 -0.795609 -3 0 
C -3 0.795609 -2.683901 1.55874 -2.12132 2.12132 
C -1.55874 2.683901 -0.795609 3 0 3 
z
" style="stroke: #a6cee3"/>
     </defs>
     <g>
      <use xlink:href="#ma13767b6d0" x="160.553125" y="109.707031" style="fill: #a6cee3; stroke: #a6cee3"/>
     </g>
    </g>
    <g id="text_12">
     <text style="fill: #262626; font: 11px 'Arial', 'DejaVu Sans', 'Liberation Sans', 'Bitstream Vera Sans', sans-serif; text-anchor: start" x="180.353125" y="112.594531" transform="rotate(-0 180.353125 112.594531)">non-discloser</text>
    </g>
    <g id="PathCollection_8">
     <defs>
      <path id="m4f3c3726e7" d="M 0 3 
C 0.795609 3 1.55874 2.683901 2.12132 2.12132 
C 2.683901 1.55874 3 0.795609 3 0 
C 3 -0.795609 2.683901 -1.55874 2.12132 -2.12132 
C 1.55874 -2.683901 0.795609 -3 0 -3 
C -0.795609 -3 -1.55874 -2.683901 -2.12132 -2.12132 
C -2.683901 -1.55874 -3 -0.795609 -3 0 
C -3 0.795609 -2.683901 1.55874 -2.12132 2.12132 
C -1.55874 2.683901 -0.795609 3 0 3 
z
" style="stroke: #1f78b4"/>
     </defs>
     <g>
      <use xlink:href="#m4f3c3726e7" x="160.553125" y="125.852969" style="fill: #1f78b4; stroke: #1f78b4"/>
     </g>
    </g>
    <g id="text_13">
     <text style="fill: #262626; font: 11px 'Arial', 'DejaVu Sans', 'Liberation Sans', 'Bitstream Vera Sans', sans-serif; text-anchor: start" x="180.353125" y="128.740469" transform="rotate(-0 180.353125 128.740469)">discloser</text>
    </g>
    <g id="patch_9">
     <path d="M 149.553125 144.886406 
L 171.553125 144.886406 
L 171.553125 137.186406 
L 149.553125 137.186406 
z
" style="fill: #aeccdb; opacity: 0.5; stroke: #ffffff; stroke-linejoin: miter"/>
    </g>
    <g id="text_14">
     <text style="fill: #262626; font: 11px 'Arial', 'DejaVu Sans', 'Liberation Sans', 'Bitstream Vera Sans', sans-serif; text-anchor: start" x="180.353125" y="144.886406" transform="rotate(-0 180.353125 144.886406)">non-discloser</text>
    </g>
    <g id="patch_10">
     <path d="M 149.553125 161.032344 
L 171.553125 161.032344 
L 171.553125 153.332344 
L 149.553125 153.332344 
z
" style="fill: #3274a1; opacity: 0.5; stroke: #ffffff; stroke-linejoin: miter"/>
    </g>
    <g id="text_15">
     <text style="fill: #262626; font: 11px 'Arial', 'DejaVu Sans', 'Liberation Sans', 'Bitstream Vera Sans', sans-serif; text-anchor: start" x="180.353125" y="161.032344" transform="rotate(-0 180.353125 161.032344)">discloser</text>
    </g>
   </g>
  </g>
  <g id="axes_2">
   <g id="patch_11">
    <path d="M 319.02 173.22 
L 527.04 173.22 
L 527.04 12.96 
L 319.02 12.96 
z
" style="fill: #ffffff"/>
   </g>
   <g id="patch_12">
    <path d="M 329.421 173.22 
L 371.025 173.22 
L 371.025 89.910238 
L 329.421 89.910238 
z
" clip-path="url(#pe4983d827d)" style="fill: #aeccdb; opacity: 0.5; stroke: #ffffff; stroke-linejoin: miter"/>
   </g>
   <g id="patch_13">
    <path d="M 433.431 173.22 
L 475.035 173.22 
L 475.035 77.231215 
L 433.431 77.231215 
z
" clip-path="url(#pe4983d827d)" style="fill: #aeccdb; opacity: 0.5; stroke: #ffffff; stroke-linejoin: miter"/>
   </g>
   <g id="patch_14">
    <path d="M 371.025 173.22 
L 412.629 173.22 
L 412.629 115.329062 
L 371.025 115.329062 
z
" clip-path="url(#pe4983d827d)" style="fill: #3274a1; opacity: 0.5; stroke: #ffffff; stroke-linejoin: miter"/>
   </g>
   <g id="patch_15">
    <path d="M 475.035 173.22 
L 516.639 173.22 
L 516.639 48.465414 
L 475.035 48.465414 
z
" clip-path="url(#pe4983d827d)" style="fill: #3274a1; opacity: 0.5; stroke: #ffffff; stroke-linejoin: miter"/>
   </g>
   <g id="matplotlib.axis_3">
    <g id="xtick_3">
     <g id="line2d_21"/>
     <g id="text_16">
      <text style="fill: #262626; font: 11px 'Arial', 'DejaVu Sans', 'Liberation Sans', 'Bitstream Vera Sans', sans-serif; text-anchor: middle" x="371.025" y="185.078281" transform="rotate(-0 371.025 185.078281)">1.5</text>
     </g>
    </g>
    <g id="xtick_4">
     <g id="line2d_22"/>
     <g id="text_17">
      <text style="fill: #262626; font: 11px 'Arial', 'DejaVu Sans', 'Liberation Sans', 'Bitstream Vera Sans', sans-serif; text-anchor: middle" x="475.035" y="185.078281" transform="rotate(-0 475.035 185.078281)">2.5</text>
     </g>
    </g>
    <g id="text_18">
     <text style="fill: #262626; font: 12px 'Arial', 'DejaVu Sans', 'Liberation Sans', 'Bitstream Vera Sans', sans-serif; text-anchor: middle" x="423.03" y="200.484062" transform="rotate(-0 423.03 200.484062)">multiplier</text>
    </g>
   </g>
   <g id="matplotlib.axis_4">
    <g id="ytick_7">
     <g id="line2d_23">
      <g>
       <use xlink:href="#m1e90aed455" x="319.02" y="173.22" style="fill: #262626; stroke: #262626; stroke-width: 1.25"/>
      </g>
     </g>
     <g id="text_19">
      <text style="fill: #262626; font: 11px 'Arial', 'DejaVu Sans', 'Liberation Sans', 'Bitstream Vera Sans', sans-serif; text-anchor: end" x="309.52" y="177.399141" transform="rotate(-0 309.52 177.399141)">0.0</text>
     </g>
    </g>
    <g id="ytick_8">
     <g id="line2d_24">
      <g>
       <use xlink:href="#m1e90aed455" x="319.02" y="142.694286" style="fill: #262626; stroke: #262626; stroke-width: 1.25"/>
      </g>
     </g>
     <g id="text_20">
      <text style="fill: #262626; font: 11px 'Arial', 'DejaVu Sans', 'Liberation Sans', 'Bitstream Vera Sans', sans-serif; text-anchor: end" x="309.52" y="146.873426" transform="rotate(-0 309.52 146.873426)">0.2</text>
     </g>
    </g>
    <g id="ytick_9">
     <g id="line2d_25">
      <g>
       <use xlink:href="#m1e90aed455" x="319.02" y="112.168571" style="fill: #262626; stroke: #262626; stroke-width: 1.25"/>
      </g>
     </g>
     <g id="text_21">
      <text style="fill: #262626; font: 11px 'Arial', 'DejaVu Sans', 'Liberation Sans', 'Bitstream Vera Sans', sans-serif; text-anchor: end" x="309.52" y="116.347712" transform="rotate(-0 309.52 116.347712)">0.4</text>
     </g>
    </g>
    <g id="ytick_10">
     <g id="line2d_26">
      <g>
       <use xlink:href="#m1e90aed455" x="319.02" y="81.642857" style="fill: #262626; stroke: #262626; stroke-width: 1.25"/>
      </g>
     </g>
     <g id="text_22">
      <text style="fill: #262626; font: 11px 'Arial', 'DejaVu Sans', 'Liberation Sans', 'Bitstream Vera Sans', sans-serif; text-anchor: end" x="309.52" y="85.821998" transform="rotate(-0 309.52 85.821998)">0.6</text>
     </g>
    </g>
    <g id="ytick_11">
     <g id="line2d_27">
      <g>
       <use xlink:href="#m1e90aed455" x="319.02" y="51.117143" style="fill: #262626; stroke: #262626; stroke-width: 1.25"/>
      </g>
     </g>
     <g id="text_23">
      <text style="fill: #262626; font: 11px 'Arial', 'DejaVu Sans', 'Liberation Sans', 'Bitstream Vera Sans', sans-serif; text-anchor: end" x="309.52" y="55.296283" transform="rotate(-0 309.52 55.296283)">0.8</text>
     </g>
    </g>
    <g id="ytick_12">
     <g id="line2d_28">
      <g>
       <use xlink:href="#m1e90aed455" x="319.02" y="20.591429" style="fill: #262626; stroke: #262626; stroke-width: 1.25"/>
      </g>
     </g>
     <g id="text_24">
      <text style="fill: #262626; font: 11px 'Arial', 'DejaVu Sans', 'Liberation Sans', 'Bitstream Vera Sans', sans-serif; text-anchor: end" x="309.52" y="24.770569" transform="rotate(-0 309.52 24.770569)">1.0</text>
     </g>
    </g>
    <g id="text_25">
     <text style="fill: #262626; font: 12px 'Arial', 'DejaVu Sans', 'Liberation Sans', 'Bitstream Vera Sans', sans-serif; text-anchor: middle" x="285.530937" y="93.09" transform="rotate(-90 285.530937 93.09)">payoff</text>
    </g>
   </g>
   <g id="PathCollection_9">
    <defs>
     <path id="C4_0_d9b6d4fd2c" d="M 0 3.5 
C 0.928211 3.5 1.81853 3.131218 2.474874 2.474874 
C 3.131218 1.81853 3.5 0.928211 3.5 -0 
C 3.5 -0.928211 3.131218 -1.81853 2.474874 -2.474874 
C 1.81853 -3.131218 0.928211 -3.5 0 -3.5 
C -0.928211 -3.5 -1.81853 -3.131218 -2.474874 -2.474874 
C -3.131218 -1.81853 -3.5 -0.928211 -3.5 0 
C -3.5 0.928211 -3.131218 1.81853 -2.474874 2.474874 
C -1.81853 3.131218 -0.928211 3.5 0 3.5 
z
"/>
    </defs>
    <use xlink:href="#C4_0_d9b6d4fd2c" x="352.520167" y="108.468485" style="fill: #a6cee3; fill-opacity: 0.8; stroke: #ffffff; stroke-opacity: 0.8; stroke-width: 0.95"/>
    <use xlink:href="#C4_0_d9b6d4fd2c" x="345.288158" y="120.031255" style="fill: #a6cee3; fill-opacity: 0.8; stroke: #ffffff; stroke-opacity: 0.8; stroke-width: 0.95"/>
    <use xlink:href="#C4_0_d9b6d4fd2c" x="347.21853" y="45.104502" style="fill: #a6cee3; fill-opacity: 0.8; stroke: #ffffff; stroke-opacity: 0.8; stroke-width: 0.95"/>
    <use xlink:href="#C4_0_d9b6d4fd2c" x="355.302489" y="51.579654" style="fill: #a6cee3; fill-opacity: 0.8; stroke: #ffffff; stroke-opacity: 0.8; stroke-width: 0.95"/>
    <use xlink:href="#C4_0_d9b6d4fd2c" x="355.103943" y="79.792814" style="fill: #a6cee3; fill-opacity: 0.8; stroke: #ffffff; stroke-opacity: 0.8; stroke-width: 0.95"/>
    <use xlink:href="#C4_0_d9b6d4fd2c" x="353.943904" y="100.605801" style="fill: #a6cee3; fill-opacity: 0.8; stroke: #ffffff; stroke-opacity: 0.8; stroke-width: 0.95"/>
    <use xlink:href="#C4_0_d9b6d4fd2c" x="346.910422" y="69.617576" style="fill: #a6cee3; fill-opacity: 0.8; stroke: #ffffff; stroke-opacity: 0.8; stroke-width: 0.95"/>
    <use xlink:href="#C4_0_d9b6d4fd2c" x="345.759532" y="67.305022" style="fill: #a6cee3; fill-opacity: 0.8; stroke: #ffffff; stroke-opacity: 0.8; stroke-width: 0.95"/>
    <use xlink:href="#C4_0_d9b6d4fd2c" x="354.244329" y="65.454978" style="fill: #a6cee3; fill-opacity: 0.8; stroke: #ffffff; stroke-opacity: 0.8; stroke-width: 0.95"/>
    <use xlink:href="#C4_0_d9b6d4fd2c" x="347.744985" y="103.380866" style="fill: #a6cee3; fill-opacity: 0.8; stroke: #ffffff; stroke-opacity: 0.8; stroke-width: 0.95"/>
    <use xlink:href="#C4_0_d9b6d4fd2c" x="347.095564" y="173.22" style="fill: #a6cee3; fill-opacity: 0.8; stroke: #ffffff; stroke-opacity: 0.8; stroke-width: 0.95"/>
    <use xlink:href="#C4_0_d9b6d4fd2c" x="352.694718" y="139.45671" style="fill: #a6cee3; fill-opacity: 0.8; stroke: #ffffff; stroke-opacity: 0.8; stroke-width: 0.95"/>
    <use xlink:href="#C4_0_d9b6d4fd2c" x="352.222482" y="25.216537" style="fill: #a6cee3; fill-opacity: 0.8; stroke: #ffffff; stroke-opacity: 0.8; stroke-width: 0.95"/>
    <use xlink:href="#C4_0_d9b6d4fd2c" x="347.221933" y="116.79368" style="fill: #a6cee3; fill-opacity: 0.8; stroke: #ffffff; stroke-opacity: 0.8; stroke-width: 0.95"/>
    <use xlink:href="#C4_0_d9b6d4fd2c" x="350.569415" y="120.956277" style="fill: #a6cee3; fill-opacity: 0.8; stroke: #ffffff; stroke-opacity: 0.8; stroke-width: 0.95"/>
    <use xlink:href="#C4_0_d9b6d4fd2c" x="351.79239" y="51.579654" style="fill: #a6cee3; fill-opacity: 0.8; stroke: #ffffff; stroke-opacity: 0.8; stroke-width: 0.95"/>
   </g>
   <g id="PathCollection_10">
    <defs>
     <path id="C5_0_0248a74aac" d="M 0 3.5 
C 0.928211 3.5 1.81853 3.131218 2.474874 2.474874 
C 3.131218 1.81853 3.5 0.928211 3.5 -0 
C 3.5 -0.928211 3.131218 -1.81853 2.474874 -2.474874 
C 1.81853 -3.131218 0.928211 -3.5 0 -3.5 
C -0.928211 -3.5 -1.81853 -3.131218 -2.474874 -2.474874 
C -3.131218 -1.81853 -3.5 -0.928211 -3.5 0 
C -3.5 0.928211 -3.131218 1.81853 -2.474874 2.474874 
C -1.81853 3.131218 -0.928211 3.5 0 3.5 
z
"/>
    </defs>
    <use xlink:href="#C5_0_0248a74aac" x="390.655332" y="162.582251" style="fill: #1f78b4; fill-opacity: 0.8; stroke: #ffffff; stroke-opacity: 0.8; stroke-width: 0.95"/>
    <use xlink:href="#C5_0_0248a74aac" x="392.026358" y="109.393506" style="fill: #1f78b4; fill-opacity: 0.8; stroke: #ffffff; stroke-opacity: 0.8; stroke-width: 0.95"/>
    <use xlink:href="#C5_0_0248a74aac" x="386.896258" y="57.129784" style="fill: #1f78b4; fill-opacity: 0.8; stroke: #ffffff; stroke-opacity: 0.8; stroke-width: 0.95"/>
    <use xlink:href="#C5_0_0248a74aac" x="389.752913" y="52.504675" style="fill: #1f78b4; fill-opacity: 0.8; stroke: #ffffff; stroke-opacity: 0.8; stroke-width: 0.95"/>
    <use xlink:href="#C5_0_0248a74aac" x="394.536021" y="173.22" style="fill: #1f78b4; fill-opacity: 0.8; stroke: #ffffff; stroke-opacity: 0.8; stroke-width: 0.95"/>
    <use xlink:href="#C5_0_0248a74aac" x="390.382732" y="139.45671" style="fill: #1f78b4; fill-opacity: 0.8; stroke: #ffffff; stroke-opacity: 0.8; stroke-width: 0.95"/>
    <use xlink:href="#C5_0_0248a74aac" x="394.667579" y="164.894805" style="fill: #1f78b4; fill-opacity: 0.8; stroke: #ffffff; stroke-opacity: 0.8; stroke-width: 0.95"/>
    <use xlink:href="#C5_0_0248a74aac" x="394.527595" y="108.005974" style="fill: #1f78b4; fill-opacity: 0.8; stroke: #ffffff; stroke-opacity: 0.8; stroke-width: 0.95"/>
    <use xlink:href="#C5_0_0248a74aac" x="388.910032" y="130.669004" style="fill: #1f78b4; fill-opacity: 0.8; stroke: #ffffff; stroke-opacity: 0.8; stroke-width: 0.95"/>
    <use xlink:href="#C5_0_0248a74aac" x="390.730331" y="83.4929" style="fill: #1f78b4; fill-opacity: 0.8; stroke: #ffffff; stroke-opacity: 0.8; stroke-width: 0.95"/>
    <use xlink:href="#C5_0_0248a74aac" x="395.596269" y="94.130649" style="fill: #1f78b4; fill-opacity: 0.8; stroke: #ffffff; stroke-opacity: 0.8; stroke-width: 0.95"/>
    <use xlink:href="#C5_0_0248a74aac" x="394.879444" y="108.468485" style="fill: #1f78b4; fill-opacity: 0.8; stroke: #ffffff; stroke-opacity: 0.8; stroke-width: 0.95"/>
   </g>
   <g id="PathCollection_11">
    <defs>
     <path id="C6_0_6c9f05668a" d="M 0 3.5 
C 0.928211 3.5 1.81853 3.131218 2.474874 2.474874 
C 3.131218 1.81853 3.5 0.928211 3.5 -0 
C 3.5 -0.928211 3.131218 -1.81853 2.474874 -2.474874 
C 1.81853 -3.131218 0.928211 -3.5 0 -3.5 
C -0.928211 -3.5 -1.81853 -3.131218 -2.474874 -2.474874 
C -3.131218 -1.81853 -3.5 -0.928211 -3.5 0 
C -3.5 0.928211 -3.131218 1.81853 -2.474874 2.474874 
C -1.81853 3.131218 -0.928211 3.5 0 3.5 
z
"/>
    </defs>
    <use xlink:href="#C6_0_6c9f05668a" x="451.071051" y="136.681645" style="fill: #a6cee3; fill-opacity: 0.8; stroke: #ffffff; stroke-opacity: 0.8; stroke-width: 0.95"/>
    <use xlink:href="#C6_0_6c9f05668a" x="451.891057" y="37.704329" style="fill: #a6cee3; fill-opacity: 0.8; stroke: #ffffff; stroke-opacity: 0.8; stroke-width: 0.95"/>
    <use xlink:href="#C6_0_6c9f05668a" x="451.149527" y="104.305887" style="fill: #a6cee3; fill-opacity: 0.8; stroke: #ffffff; stroke-opacity: 0.8; stroke-width: 0.95"/>
    <use xlink:href="#C6_0_6c9f05668a" x="459.055978" y="95.518182" style="fill: #a6cee3; fill-opacity: 0.8; stroke: #ffffff; stroke-opacity: 0.8; stroke-width: 0.95"/>
    <use xlink:href="#C6_0_6c9f05668a" x="454.862459" y="80.717835" style="fill: #a6cee3; fill-opacity: 0.8; stroke: #ffffff; stroke-opacity: 0.8; stroke-width: 0.95"/>
    <use xlink:href="#C6_0_6c9f05668a" x="453.592359" y="114.018615" style="fill: #a6cee3; fill-opacity: 0.8; stroke: #ffffff; stroke-opacity: 0.8; stroke-width: 0.95"/>
    <use xlink:href="#C6_0_6c9f05668a" x="450.471522" y="75.167706" style="fill: #a6cee3; fill-opacity: 0.8; stroke: #ffffff; stroke-opacity: 0.8; stroke-width: 0.95"/>
    <use xlink:href="#C6_0_6c9f05668a" x="449.100604" y="42.791948" style="fill: #a6cee3; fill-opacity: 0.8; stroke: #ffffff; stroke-opacity: 0.8; stroke-width: 0.95"/>
    <use xlink:href="#C6_0_6c9f05668a" x="455.26395" y="25.216537" style="fill: #a6cee3; fill-opacity: 0.8; stroke: #ffffff; stroke-opacity: 0.8; stroke-width: 0.95"/>
    <use xlink:href="#C6_0_6c9f05668a" x="456.204056" y="88.580519" style="fill: #a6cee3; fill-opacity: 0.8; stroke: #ffffff; stroke-opacity: 0.8; stroke-width: 0.95"/>
    <use xlink:href="#C6_0_6c9f05668a" x="451.655399" y="83.03039" style="fill: #a6cee3; fill-opacity: 0.8; stroke: #ffffff; stroke-opacity: 0.8; stroke-width: 0.95"/>
    <use xlink:href="#C6_0_6c9f05668a" x="449.119961" y="68.692554" style="fill: #a6cee3; fill-opacity: 0.8; stroke: #ffffff; stroke-opacity: 0.8; stroke-width: 0.95"/>
    <use xlink:href="#C6_0_6c9f05668a" x="454.022164" y="51.579654" style="fill: #a6cee3; fill-opacity: 0.8; stroke: #ffffff; stroke-opacity: 0.8; stroke-width: 0.95"/>
   </g>
   <g id="PathCollection_12">
    <defs>
     <path id="C7_0_4c5a4abd42" d="M 0 3.5 
C 0.928211 3.5 1.81853 3.131218 2.474874 2.474874 
C 3.131218 1.81853 3.5 0.928211 3.5 -0 
C 3.5 -0.928211 3.131218 -1.81853 2.474874 -2.474874 
C 1.81853 -3.131218 0.928211 -3.5 0 -3.5 
C -0.928211 -3.5 -1.81853 -3.131218 -2.474874 -2.474874 
C -3.131218 -1.81853 -3.5 -0.928211 -3.5 0 
C -3.5 0.928211 -3.131218 1.81853 -2.474874 2.474874 
C -1.81853 3.131218 -0.928211 3.5 0 3.5 
z
"/>
    </defs>
    <use xlink:href="#C7_0_4c5a4abd42" x="491.33221" y="23.366494" style="fill: #1f78b4; fill-opacity: 0.8; stroke: #ffffff; stroke-opacity: 0.8; stroke-width: 0.95"/>
    <use xlink:href="#C7_0_4c5a4abd42" x="496.781019" y="27.991602" style="fill: #1f78b4; fill-opacity: 0.8; stroke: #ffffff; stroke-opacity: 0.8; stroke-width: 0.95"/>
    <use xlink:href="#C7_0_4c5a4abd42" x="494.061734" y="20.591429" style="fill: #1f78b4; fill-opacity: 0.8; stroke: #ffffff; stroke-opacity: 0.8; stroke-width: 0.95"/>
    <use xlink:href="#C7_0_4c5a4abd42" x="492.427113" y="78.867792" style="fill: #1f78b4; fill-opacity: 0.8; stroke: #ffffff; stroke-opacity: 0.8; stroke-width: 0.95"/>
    <use xlink:href="#C7_0_4c5a4abd42" x="495.485872" y="32.61671" style="fill: #1f78b4; fill-opacity: 0.8; stroke: #ffffff; stroke-opacity: 0.8; stroke-width: 0.95"/>
    <use xlink:href="#C7_0_4c5a4abd42" x="495.441254" y="77.942771" style="fill: #1f78b4; fill-opacity: 0.8; stroke: #ffffff; stroke-opacity: 0.8; stroke-width: 0.95"/>
    <use xlink:href="#C7_0_4c5a4abd42" x="497.875968" y="29.379134" style="fill: #1f78b4; fill-opacity: 0.8; stroke: #ffffff; stroke-opacity: 0.8; stroke-width: 0.95"/>
    <use xlink:href="#C7_0_4c5a4abd42" x="493.279464" y="51.579654" style="fill: #1f78b4; fill-opacity: 0.8; stroke: #ffffff; stroke-opacity: 0.8; stroke-width: 0.95"/>
    <use xlink:href="#C7_0_4c5a4abd42" x="492.147178" y="88.580519" style="fill: #1f78b4; fill-opacity: 0.8; stroke: #ffffff; stroke-opacity: 0.8; stroke-width: 0.95"/>
    <use xlink:href="#C7_0_4c5a4abd42" x="495.865832" y="23.829004" style="fill: #1f78b4; fill-opacity: 0.8; stroke: #ffffff; stroke-opacity: 0.8; stroke-width: 0.95"/>
    <use xlink:href="#C7_0_4c5a4abd42" x="499.130449" y="41.866926" style="fill: #1f78b4; fill-opacity: 0.8; stroke: #ffffff; stroke-opacity: 0.8; stroke-width: 0.95"/>
    <use xlink:href="#C7_0_4c5a4abd42" x="500.348306" y="54.354719" style="fill: #1f78b4; fill-opacity: 0.8; stroke: #ffffff; stroke-opacity: 0.8; stroke-width: 0.95"/>
    <use xlink:href="#C7_0_4c5a4abd42" x="493.78018" y="20.591429" style="fill: #1f78b4; fill-opacity: 0.8; stroke: #ffffff; stroke-opacity: 0.8; stroke-width: 0.95"/>
    <use xlink:href="#C7_0_4c5a4abd42" x="491.417329" y="45.104502" style="fill: #1f78b4; fill-opacity: 0.8; stroke: #ffffff; stroke-opacity: 0.8; stroke-width: 0.95"/>
    <use xlink:href="#C7_0_4c5a4abd42" x="500.05259" y="110.318528" style="fill: #1f78b4; fill-opacity: 0.8; stroke: #ffffff; stroke-opacity: 0.8; stroke-width: 0.95"/>
   </g>
   <g id="PathCollection_13"/>
   <g id="PathCollection_14"/>
   <g id="line2d_29">
    <path d="M 350.223 99.781068 
L 350.223 80.039408 
" clip-path="url(#pe4983d827d)" style="fill: none; stroke: #000000; stroke-width: 1.9; stroke-linecap: round"/>
   </g>
   <g id="line2d_30">
    <path d="M 350.223 99.781068 
L 350.223 99.781068 
" clip-path="url(#pe4983d827d)" style="fill: none; stroke: #000000; stroke-width: 1.9; stroke-linecap: round"/>
   </g>
   <g id="line2d_31">
    <path d="M 350.223 80.039408 
L 350.223 80.039408 
" clip-path="url(#pe4983d827d)" style="fill: none; stroke: #000000; stroke-width: 1.9; stroke-linecap: round"/>
   </g>
   <g id="line2d_32">
    <path d="M 454.233 86.117551 
L 454.233 68.34488 
" clip-path="url(#pe4983d827d)" style="fill: none; stroke: #000000; stroke-width: 1.9; stroke-linecap: round"/>
   </g>
   <g id="line2d_33">
    <path d="M 454.233 86.117551 
L 454.233 86.117551 
" clip-path="url(#pe4983d827d)" style="fill: none; stroke: #000000; stroke-width: 1.9; stroke-linecap: round"/>
   </g>
   <g id="line2d_34">
    <path d="M 454.233 68.34488 
L 454.233 68.34488 
" clip-path="url(#pe4983d827d)" style="fill: none; stroke: #000000; stroke-width: 1.9; stroke-linecap: round"/>
   </g>
   <g id="line2d_35">
    <path d="M 391.827 126.938666 
L 391.827 103.719458 
" clip-path="url(#pe4983d827d)" style="fill: none; stroke: #000000; stroke-width: 1.9; stroke-linecap: round"/>
   </g>
   <g id="line2d_36">
    <path d="M 391.827 126.938666 
L 391.827 126.938666 
" clip-path="url(#pe4983d827d)" style="fill: none; stroke: #000000; stroke-width: 1.9; stroke-linecap: round"/>
   </g>
   <g id="line2d_37">
    <path d="M 391.827 103.719458 
L 391.827 103.719458 
" clip-path="url(#pe4983d827d)" style="fill: none; stroke: #000000; stroke-width: 1.9; stroke-linecap: round"/>
   </g>
   <g id="line2d_38">
    <path d="M 495.837 55.753022 
L 495.837 41.177806 
" clip-path="url(#pe4983d827d)" style="fill: none; stroke: #000000; stroke-width: 1.9; stroke-linecap: round"/>
   </g>
   <g id="line2d_39">
    <path d="M 495.837 55.753022 
L 495.837 55.753022 
" clip-path="url(#pe4983d827d)" style="fill: none; stroke: #000000; stroke-width: 1.9; stroke-linecap: round"/>
   </g>
   <g id="line2d_40">
    <path d="M 495.837 41.177806 
L 495.837 41.177806 
" clip-path="url(#pe4983d827d)" style="fill: none; stroke: #000000; stroke-width: 1.9; stroke-linecap: round"/>
   </g>
   <g id="patch_16">
    <path d="M 319.02 173.22 
L 319.02 20.591429 
" style="fill: none; stroke: #262626; stroke-width: 1.25; stroke-linejoin: miter; stroke-linecap: square"/>
   </g>
   <g id="legend_2"/>
  </g>
 </g>
 <defs>
  <clipPath id="p973294e354">
   <rect x="55.5" y="12.96" width="208.02" height="160.26"/>
  </clipPath>
  <clipPath id="pe4983d827d">
   <rect x="319.02" y="12.96" width="208.02" height="160.26"/>
  </clipPath>
 </defs>
</svg>
