<?xml version="1.0" encoding="utf-8" standalone="no"?>
<!DOCTYPE svg PUBLIC "-//W3C//DTD SVG 1.1//EN"
  "http://www.w3.org/Graphics/SVG/1.1/DTD/svg11.dtd">
<svg xmlns:xlink="http://www.w3.org/1999/xlink" width="540pt" height="216pt" viewBox="0 0 540 216" xmlns="http://www.w3.org/2000/svg" version="1.1">
 <metadata>
  <rdf:RDF xmlns:dc="http://purl.org/dc/elements/1.1/" xmlns:cc="http://creativecommons.org/ns#" xmlns:rdf="http://www.w3.org/1999/02/22-rdf-syntax-ns#">
   <cc:Work>
    <dc:type rdf:resource="http://purl.org/dc/dcmitype/StillImage"/>
    <dc:date>2023-06-02T18:17:46.159741</dc:date>
    <dc:format>image/svg+xml</dc:format>
    <dc:creator>
     <cc:Agent>
      <dc:title>Matplotlib v3.7.0, https://matplotlib.org/</dc:title>
     </cc:Agent>
    </dc:creator>
   </cc:Work>
  </rdf:RDF>
 </metadata>
 <defs>
  <style type="text/css">*{stroke-linejoin: round; stroke-linecap: butt}</style>
 </defs>
 <g id="figure_1">
  <g id="patch_1">
   <path d="M 0 216 
L 540 216 
L 540 0 
L 0 0 
z
" style="fill: #ffffff"/>
  </g>
  <g id="axes_1">
   <g id="patch_2">
    <path d="M 55.5 173.22 
L 260.01 173.22 
L 260.01 17.16 
L 55.5 17.16 
z
" style="fill: #ffffff"/>
   </g>
   <g id="patch_3">
    <path d="M 65.7255 173.22 
L 106.6275 173.22 
L 106.6275 82.515101 
L 65.7255 82.515101 
z
" clip-path="url(#p0a927b06f8)" style="fill: #aeccdb; opacity: 0.5; stroke: #ffffff; stroke-linejoin: miter"/>
   </g>
   <g id="patch_4">
    <path d="M 167.9805 173.22 
L 208.8825 173.22 
L 208.8825 43.481533 
L 167.9805 43.481533 
z
" clip-path="url(#p0a927b06f8)" style="fill: #aeccdb; opacity: 0.5; stroke: #ffffff; stroke-linejoin: miter"/>
   </g>
   <g id="patch_5">
    <path d="M 106.6275 173.22 
L 147.5295 173.22 
L 147.5295 58.280979 
L 106.6275 58.280979 
z
" clip-path="url(#p0a927b06f8)" style="fill: #3274a1; opacity: 0.5; stroke: #ffffff; stroke-linejoin: miter"/>
   </g>
   <g id="patch_6">
    <path d="M 208.8825 173.22 
L 249.7845 173.22 
L 249.7845 31.451811 
L 208.8825 31.451811 
z
" clip-path="url(#p0a927b06f8)" style="fill: #3274a1; opacity: 0.5; stroke: #ffffff; stroke-linejoin: miter"/>
   </g>
   <g id="matplotlib.axis_1">
    <g id="xtick_1">
     <g id="line2d_1"/>
     <g id="text_1">
      <text style="fill: #262626; font: 11px 'Arial', 'DejaVu Sans', 'Liberation Sans', 'Bitstream Vera Sans', sans-serif; text-anchor: middle" x="106.6275" y="185.078281" transform="rotate(-0 106.6275 185.078281)">1.5</text>
     </g>
    </g>
    <g id="xtick_2">
     <g id="line2d_2"/>
     <g id="text_2">
      <text style="fill: #262626; font: 11px 'Arial', 'DejaVu Sans', 'Liberation Sans', 'Bitstream Vera Sans', sans-serif; text-anchor: middle" x="208.8825" y="185.078281" transform="rotate(-0 208.8825 185.078281)">2.5</text>
     </g>
    </g>
    <g id="text_3">
     <text style="fill: #262626; font: 12px 'Arial', 'DejaVu Sans', 'Liberation Sans', 'Bitstream Vera Sans', sans-serif; text-anchor: middle" x="157.755" y="200.484062" transform="rotate(-0 157.755 200.484062)">multiplier</text>
    </g>
   </g>
   <g id="matplotlib.axis_2">
    <g id="ytick_1">
     <g id="line2d_3">
      <defs>
       <path id="m3b2ab628cb" d="M 0 0 
L -6 0 
" style="stroke: #262626; stroke-width: 1.25"/>
      </defs>
      <g>
       <use xlink:href="#m3b2ab628cb" x="55.5" y="173.22" style="fill: #262626; stroke: #262626; stroke-width: 1.25"/>
      </g>
     </g>
     <g id="text_4">
      <text style="fill: #262626; font: 11px 'Arial', 'DejaVu Sans', 'Liberation Sans', 'Bitstream Vera Sans', sans-serif; text-anchor: end" x="46" y="177.399141" transform="rotate(-0 46 177.399141)">0.0</text>
     </g>
    </g>
    <g id="ytick_2">
     <g id="line2d_4">
      <g>
       <use xlink:href="#m3b2ab628cb" x="55.5" y="142.008" style="fill: #262626; stroke: #262626; stroke-width: 1.25"/>
      </g>
     </g>
     <g id="text_5">
      <text style="fill: #262626; font: 11px 'Arial', 'DejaVu Sans', 'Liberation Sans', 'Bitstream Vera Sans', sans-serif; text-anchor: end" x="46" y="146.187141" transform="rotate(-0 46 146.187141)">0.2</text>
     </g>
    </g>
    <g id="ytick_3">
     <g id="line2d_5">
      <g>
       <use xlink:href="#m3b2ab628cb" x="55.5" y="110.796" style="fill: #262626; stroke: #262626; stroke-width: 1.25"/>
      </g>
     </g>
     <g id="text_6">
      <text style="fill: #262626; font: 11px 'Arial', 'DejaVu Sans', 'Liberation Sans', 'Bitstream Vera Sans', sans-serif; text-anchor: end" x="46" y="114.975141" transform="rotate(-0 46 114.975141)">0.4</text>
     </g>
    </g>
    <g id="ytick_4">
     <g id="line2d_6">
      <g>
       <use xlink:href="#m3b2ab628cb" x="55.5" y="79.584" style="fill: #262626; stroke: #262626; stroke-width: 1.25"/>
      </g>
     </g>
     <g id="text_7">
      <text style="fill: #262626; font: 11px 'Arial', 'DejaVu Sans', 'Liberation Sans', 'Bitstream Vera Sans', sans-serif; text-anchor: end" x="46" y="83.763141" transform="rotate(-0 46 83.763141)">0.6</text>
     </g>
    </g>
    <g id="ytick_5">
     <g id="line2d_7">
      <g>
       <use xlink:href="#m3b2ab628cb" x="55.5" y="48.372" style="fill: #262626; stroke: #262626; stroke-width: 1.25"/>
      </g>
     </g>
     <g id="text_8">
      <text style="fill: #262626; font: 11px 'Arial', 'DejaVu Sans', 'Liberation Sans', 'Bitstream Vera Sans', sans-serif; text-anchor: end" x="46" y="52.551141" transform="rotate(-0 46 52.551141)">0.8</text>
     </g>
    </g>
    <g id="ytick_6">
     <g id="line2d_8">
      <g>
       <use xlink:href="#m3b2ab628cb" x="55.5" y="17.16" style="fill: #262626; stroke: #262626; stroke-width: 1.25"/>
      </g>
     </g>
     <g id="text_9">
      <text style="fill: #262626; font: 11px 'Arial', 'DejaVu Sans', 'Liberation Sans', 'Bitstream Vera Sans', sans-serif; text-anchor: end" x="46" y="21.339141" transform="rotate(-0 46 21.339141)">1.0</text>
     </g>
    </g>
    <g id="text_10">
     <text style="fill: #262626; font: 12px 'Arial', 'DejaVu Sans', 'Liberation Sans', 'Bitstream Vera Sans', sans-serif; text-anchor: middle" x="22.010938" y="95.19" transform="rotate(-90 22.010938 95.19)">contribution</text>
    </g>
   </g>
   <g id="PathCollection_1">
    <defs>
     <path id="C0_0_4d9cbe96ad" d="M 0 3.5 
C 0.928211 3.5 1.81853 3.131218 2.474874 2.474874 
C 3.131218 1.81853 3.5 0.928211 3.5 -0 
C 3.5 -0.928211 3.131218 -1.81853 2.474874 -2.474874 
C 1.81853 -3.131218 0.928211 -3.5 0 -3.5 
C -0.928211 -3.5 -1.81853 -3.131218 -2.474874 -2.474874 
C -3.131218 -1.81853 -3.5 -0.928211 -3.5 0 
C -3.5 0.928211 -3.131218 1.81853 -2.474874 2.474874 
C -1.81853 3.131218 -0.928211 3.5 0 3.5 
z
"/>
    </defs>
    <use xlink:href="#C0_0_4d9cbe96ad" x="88.460692" y="50.973" style="fill: #a6cee3; fill-opacity: 0.8; stroke: #ffffff; stroke-opacity: 0.8; stroke-width: 0.95"/>
    <use xlink:href="#C0_0_4d9cbe96ad" x="82.447387" y="114.484691" style="fill: #a6cee3; fill-opacity: 0.8; stroke: #ffffff; stroke-opacity: 0.8; stroke-width: 0.95"/>
    <use xlink:href="#C0_0_4d9cbe96ad" x="83.722346" y="53.352638" style="fill: #a6cee3; fill-opacity: 0.8; stroke: #ffffff; stroke-opacity: 0.8; stroke-width: 0.95"/>
    <use xlink:href="#C0_0_4d9cbe96ad" x="84.976075" y="53.786327" style="fill: #a6cee3; fill-opacity: 0.8; stroke: #ffffff; stroke-opacity: 0.8; stroke-width: 0.95"/>
    <use xlink:href="#C0_0_4d9cbe96ad" x="90.46115" y="141.460421" style="fill: #a6cee3; fill-opacity: 0.8; stroke: #ffffff; stroke-opacity: 0.8; stroke-width: 0.95"/>
    <use xlink:href="#C0_0_4d9cbe96ad" x="86.733453" y="113.260105" style="fill: #a6cee3; fill-opacity: 0.8; stroke: #ffffff; stroke-opacity: 0.8; stroke-width: 0.95"/>
    <use xlink:href="#C0_0_4d9cbe96ad" x="83.415129" y="50.288526" style="fill: #a6cee3; fill-opacity: 0.8; stroke: #ffffff; stroke-opacity: 0.8; stroke-width: 0.95"/>
   </g>
   <g id="PathCollection_2">
    <defs>
     <path id="C1_0_726064f69c" d="M 0 3.5 
C 0.928211 3.5 1.81853 3.131218 2.474874 2.474874 
C 3.131218 1.81853 3.5 0.928211 3.5 -0 
C 3.5 -0.928211 3.131218 -1.81853 2.474874 -2.474874 
C 1.81853 -3.131218 0.928211 -3.5 0 -3.5 
C -0.928211 -3.5 -1.81853 -3.131218 -2.474874 -2.474874 
C -3.131218 -1.81853 -3.5 -0.928211 -3.5 0 
C -3.5 0.928211 -3.131218 1.81853 -2.474874 2.474874 
C -1.81853 3.131218 -0.928211 3.5 0 3.5 
z
"/>
    </defs>
    <use xlink:href="#C1_0_726064f69c" x="130.82786" y="25.373684" style="fill: #1f78b4; fill-opacity: 0.8; stroke: #ffffff; stroke-opacity: 0.8; stroke-width: 0.95"/>
    <use xlink:href="#C1_0_726064f69c" x="129.607119" y="101.213368" style="fill: #1f78b4; fill-opacity: 0.8; stroke: #ffffff; stroke-opacity: 0.8; stroke-width: 0.95"/>
    <use xlink:href="#C1_0_726064f69c" x="127.875757" y="17.16" style="fill: #1f78b4; fill-opacity: 0.8; stroke: #ffffff; stroke-opacity: 0.8; stroke-width: 0.95"/>
    <use xlink:href="#C1_0_726064f69c" x="129.130435" y="49.467158" style="fill: #1f78b4; fill-opacity: 0.8; stroke: #ffffff; stroke-opacity: 0.8; stroke-width: 0.95"/>
    <use xlink:href="#C1_0_726064f69c" x="131.287474" y="87.944357" style="fill: #1f78b4; fill-opacity: 0.8; stroke: #ffffff; stroke-opacity: 0.8; stroke-width: 0.95"/>
    <use xlink:href="#C1_0_726064f69c" x="124.869547" y="35.777684" style="fill: #1f78b4; fill-opacity: 0.8; stroke: #ffffff; stroke-opacity: 0.8; stroke-width: 0.95"/>
    <use xlink:href="#C1_0_726064f69c" x="124.729625" y="116.271789" style="fill: #1f78b4; fill-opacity: 0.8; stroke: #ffffff; stroke-opacity: 0.8; stroke-width: 0.95"/>
    <use xlink:href="#C1_0_726064f69c" x="128.990262" y="33.039789" style="fill: #1f78b4; fill-opacity: 0.8; stroke: #ffffff; stroke-opacity: 0.8; stroke-width: 0.95"/>
   </g>
   <g id="PathCollection_3">
    <defs>
     <path id="C2_0_fa4a61281f" d="M 0 3.5 
C 0.928211 3.5 1.81853 3.131218 2.474874 2.474874 
C 3.131218 1.81853 3.5 0.928211 3.5 -0 
C 3.5 -0.928211 3.131218 -1.81853 2.474874 -2.474874 
C 1.81853 -3.131218 0.928211 -3.5 0 -3.5 
C -0.928211 -3.5 -1.81853 -3.131218 -2.474874 -2.474874 
C -3.131218 -1.81853 -3.5 -0.928211 -3.5 0 
C -3.5 0.928211 -3.131218 1.81853 -2.474874 2.474874 
C -1.81853 3.131218 -0.928211 3.5 0 3.5 
z
"/>
    </defs>
    <use xlink:href="#C2_0_fa4a61281f" x="187.575383" y="57.3888" style="fill: #a6cee3; fill-opacity: 0.8; stroke: #ffffff; stroke-opacity: 0.8; stroke-width: 0.95"/>
    <use xlink:href="#C2_0_fa4a61281f" x="187.625612" y="26.195053" style="fill: #a6cee3; fill-opacity: 0.8; stroke: #ffffff; stroke-opacity: 0.8; stroke-width: 0.95"/>
    <use xlink:href="#C2_0_fa4a61281f" x="186.615177" y="25.099895" style="fill: #a6cee3; fill-opacity: 0.8; stroke: #ffffff; stroke-opacity: 0.8; stroke-width: 0.95"/>
    <use xlink:href="#C2_0_fa4a61281f" x="191.989385" y="54.139435" style="fill: #a6cee3; fill-opacity: 0.8; stroke: #ffffff; stroke-opacity: 0.8; stroke-width: 0.95"/>
    <use xlink:href="#C2_0_fa4a61281f" x="189.491276" y="21.266842" style="fill: #a6cee3; fill-opacity: 0.8; stroke: #ffffff; stroke-opacity: 0.8; stroke-width: 0.95"/>
    <use xlink:href="#C2_0_fa4a61281f" x="191.711368" y="29.754316" style="fill: #a6cee3; fill-opacity: 0.8; stroke: #ffffff; stroke-opacity: 0.8; stroke-width: 0.95"/>
    <use xlink:href="#C2_0_fa4a61281f" x="186.408161" y="53.67804" style="fill: #a6cee3; fill-opacity: 0.8; stroke: #ffffff; stroke-opacity: 0.8; stroke-width: 0.95"/>
    <use xlink:href="#C2_0_fa4a61281f" x="192.431762" y="44.812737" style="fill: #a6cee3; fill-opacity: 0.8; stroke: #ffffff; stroke-opacity: 0.8; stroke-width: 0.95"/>
    <use xlink:href="#C2_0_fa4a61281f" x="186.928376" y="60.966316" style="fill: #a6cee3; fill-opacity: 0.8; stroke: #ffffff; stroke-opacity: 0.8; stroke-width: 0.95"/>
    <use xlink:href="#C2_0_fa4a61281f" x="183.701549" y="61.513895" style="fill: #a6cee3; fill-opacity: 0.8; stroke: #ffffff; stroke-opacity: 0.8; stroke-width: 0.95"/>
   </g>
   <g id="PathCollection_4">
    <defs>
     <path id="C3_0_f81627ddc5" d="M 0 3.5 
C 0.928211 3.5 1.81853 3.131218 2.474874 2.474874 
C 3.131218 1.81853 3.5 0.928211 3.5 -0 
C 3.5 -0.928211 3.131218 -1.81853 2.474874 -2.474874 
C 1.81853 -3.131218 0.928211 -3.5 0 -3.5 
C -0.928211 -3.5 -1.81853 -3.131218 -2.474874 -2.474874 
C -3.131218 -1.81853 -3.5 -0.928211 -3.5 0 
C -3.5 0.928211 -3.131218 1.81853 -2.474874 2.474874 
C -1.81853 3.131218 -0.928211 3.5 0 3.5 
z
"/>
    </defs>
    <use xlink:href="#C3_0_f81627ddc5" x="224.989547" y="17.16" style="fill: #1f78b4; fill-opacity: 0.8; stroke: #ffffff; stroke-opacity: 0.8; stroke-width: 0.95"/>
    <use xlink:href="#C3_0_f81627ddc5" x="229.069838" y="17.16" style="fill: #1f78b4; fill-opacity: 0.8; stroke: #ffffff; stroke-opacity: 0.8; stroke-width: 0.95"/>
    <use xlink:href="#C3_0_f81627ddc5" x="225.676815" y="17.16" style="fill: #1f78b4; fill-opacity: 0.8; stroke: #ffffff; stroke-opacity: 0.8; stroke-width: 0.95"/>
    <use xlink:href="#C3_0_f81627ddc5" x="233.608395" y="79.584" style="fill: #1f78b4; fill-opacity: 0.8; stroke: #ffffff; stroke-opacity: 0.8; stroke-width: 0.95"/>
    <use xlink:href="#C3_0_f81627ddc5" x="228.13097" y="26.195053" style="fill: #1f78b4; fill-opacity: 0.8; stroke: #ffffff; stroke-opacity: 0.8; stroke-width: 0.95"/>
   </g>
   <g id="PathCollection_5"/>
   <g id="PathCollection_6"/>
   <g id="line2d_9">
    <path d="M 86.1765 97.27598 
L 86.1765 67.754222 
" clip-path="url(#p0a927b06f8)" style="fill: none; stroke: #000000; stroke-width: 1.9; stroke-linecap: round"/>
   </g>
   <g id="line2d_10">
    <path d="M 86.1765 97.27598 
L 86.1765 97.27598 
" clip-path="url(#p0a927b06f8)" style="fill: none; stroke: #000000; stroke-width: 1.9; stroke-linecap: round"/>
   </g>
   <g id="line2d_11">
    <path d="M 86.1765 67.754222 
L 86.1765 67.754222 
" clip-path="url(#p0a927b06f8)" style="fill: none; stroke: #000000; stroke-width: 1.9; stroke-linecap: round"/>
   </g>
   <g id="line2d_12">
    <path d="M 188.4315 48.604752 
L 188.4315 38.358314 
" clip-path="url(#p0a927b06f8)" style="fill: none; stroke: #000000; stroke-width: 1.9; stroke-linecap: round"/>
   </g>
   <g id="line2d_13">
    <path d="M 188.4315 48.604752 
L 188.4315 48.604752 
" clip-path="url(#p0a927b06f8)" style="fill: none; stroke: #000000; stroke-width: 1.9; stroke-linecap: round"/>
   </g>
   <g id="line2d_14">
    <path d="M 188.4315 38.358314 
L 188.4315 38.358314 
" clip-path="url(#p0a927b06f8)" style="fill: none; stroke: #000000; stroke-width: 1.9; stroke-linecap: round"/>
   </g>
   <g id="line2d_15">
    <path d="M 127.0785 71.698095 
L 127.0785 44.863863 
" clip-path="url(#p0a927b06f8)" style="fill: none; stroke: #000000; stroke-width: 1.9; stroke-linecap: round"/>
   </g>
   <g id="line2d_16">
    <path d="M 127.0785 71.698095 
L 127.0785 71.698095 
" clip-path="url(#p0a927b06f8)" style="fill: none; stroke: #000000; stroke-width: 1.9; stroke-linecap: round"/>
   </g>
   <g id="line2d_17">
    <path d="M 127.0785 44.863863 
L 127.0785 44.863863 
" clip-path="url(#p0a927b06f8)" style="fill: none; stroke: #000000; stroke-width: 1.9; stroke-linecap: round"/>
   </g>
   <g id="line2d_18">
    <path d="M 229.3335 43.611393 
L 229.3335 19.292228 
" clip-path="url(#p0a927b06f8)" style="fill: none; stroke: #000000; stroke-width: 1.9; stroke-linecap: round"/>
   </g>
   <g id="line2d_19">
    <path d="M 229.3335 43.611393 
L 229.3335 43.611393 
" clip-path="url(#p0a927b06f8)" style="fill: none; stroke: #000000; stroke-width: 1.9; stroke-linecap: round"/>
   </g>
   <g id="line2d_20">
    <path d="M 229.3335 19.292228 
L 229.3335 19.292228 
" clip-path="url(#p0a927b06f8)" style="fill: none; stroke: #000000; stroke-width: 1.9; stroke-linecap: round"/>
   </g>
   <g id="patch_7">
    <path d="M 55.5 173.22 
L 55.5 17.16 
" style="fill: none; stroke: #262626; stroke-width: 1.25; stroke-linejoin: miter; stroke-linecap: square"/>
   </g>
   <g id="legend_1">
    <g id="patch_8">
     <path d="M 143.843125 167.72 
L 252.31 167.72 
Q 254.51 167.72 254.51 165.52 
L 254.51 84.58875 
Q 254.51 82.38875 252.31 82.38875 
L 143.843125 82.38875 
Q 141.643125 82.38875 141.643125 84.58875 
L 141.643125 165.52 
Q 141.643125 167.72 143.843125 167.72 
z
" style="fill: #ffffff; opacity: 0.8; stroke: #cccccc; stroke-linejoin: miter"/>
    </g>
    <g id="text_11">
     <text style="fill: #262626; font: 12px 'Arial', 'DejaVu Sans', 'Liberation Sans', 'Bitstream Vera Sans', sans-serif; text-anchor: start" x="155.149375" y="95.906875" transform="rotate(-0 155.149375 95.906875)">discloser_type</text>
    </g>
    <g id="PathCollection_7">
     <defs>
      <path id="mf6db0397c0" d="M 0 3 
C 0.795609 3 1.55874 2.683901 2.12132 2.12132 
C 2.683901 1.55874 3 0.795609 3 0 
C 3 -0.795609 2.683901 -1.55874 2.12132 -2.12132 
C 1.55874 -2.683901 0.795609 -3 0 -3 
C -0.795609 -3 -1.55874 -2.683901 -2.12132 -2.12132 
C -2.683901 -1.55874 -3 -0.795609 -3 0 
C -3 0.795609 -2.683901 1.55874 -2.12132 2.12132 
C -1.55874 2.683901 -0.795609 3 0 3 
z
" style="stroke: #a6cee3"/>
     </defs>
     <g>
      <use xlink:href="#mf6db0397c0" x="157.043125" y="109.707031" style="fill: #a6cee3; stroke: #a6cee3"/>
     </g>
    </g>
    <g id="text_12">
     <text style="fill: #262626; font: 11px 'Arial', 'DejaVu Sans', 'Liberation Sans', 'Bitstream Vera Sans', sans-serif; text-anchor: start" x="176.843125" y="112.594531" transform="rotate(-0 176.843125 112.594531)">non-discloser</text>
    </g>
    <g id="PathCollection_8">
     <defs>
      <path id="m24a40b3c70" d="M 0 3 
C 0.795609 3 1.55874 2.683901 2.12132 2.12132 
C 2.683901 1.55874 3 0.795609 3 0 
C 3 -0.795609 2.683901 -1.55874 2.12132 -2.12132 
C 1.55874 -2.683901 0.795609 -3 0 -3 
C -0.795609 -3 -1.55874 -2.683901 -2.12132 -2.12132 
C -2.683901 -1.55874 -3 -0.795609 -3 0 
C -3 0.795609 -2.683901 1.55874 -2.12132 2.12132 
C -1.55874 2.683901 -0.795609 3 0 3 
z
" style="stroke: #1f78b4"/>
     </defs>
     <g>
      <use xlink:href="#m24a40b3c70" x="157.043125" y="125.852969" style="fill: #1f78b4; stroke: #1f78b4"/>
     </g>
    </g>
    <g id="text_13">
     <text style="fill: #262626; font: 11px 'Arial', 'DejaVu Sans', 'Liberation Sans', 'Bitstream Vera Sans', sans-serif; text-anchor: start" x="176.843125" y="128.740469" transform="rotate(-0 176.843125 128.740469)">discloser</text>
    </g>
    <g id="patch_9">
     <path d="M 146.043125 144.886406 
L 168.043125 144.886406 
L 168.043125 137.186406 
L 146.043125 137.186406 
z
" style="fill: #aeccdb; opacity: 0.5; stroke: #ffffff; stroke-linejoin: miter"/>
    </g>
    <g id="text_14">
     <text style="fill: #262626; font: 11px 'Arial', 'DejaVu Sans', 'Liberation Sans', 'Bitstream Vera Sans', sans-serif; text-anchor: start" x="176.843125" y="144.886406" transform="rotate(-0 176.843125 144.886406)">non-discloser</text>
    </g>
    <g id="patch_10">
     <path d="M 146.043125 161.032344 
L 168.043125 161.032344 
L 168.043125 153.332344 
L 146.043125 153.332344 
z
" style="fill: #3274a1; opacity: 0.5; stroke: #ffffff; stroke-linejoin: miter"/>
    </g>
    <g id="text_15">
     <text style="fill: #262626; font: 11px 'Arial', 'DejaVu Sans', 'Liberation Sans', 'Bitstream Vera Sans', sans-serif; text-anchor: start" x="176.843125" y="161.032344" transform="rotate(-0 176.843125 161.032344)">discloser</text>
    </g>
   </g>
  </g>
  <g id="axes_2">
   <g id="patch_11">
    <path d="M 322.53 173.22 
L 527.04 173.22 
L 527.04 17.16 
L 322.53 17.16 
z
" style="fill: #ffffff"/>
   </g>
   <g id="patch_12">
    <path d="M 332.7555 435.444188 
L 373.6575 435.444188 
L 373.6575 136.42135 
L 332.7555 136.42135 
z
" clip-path="url(#p677f26a739)" style="fill: #aeccdb; opacity: 0.5; stroke: #ffffff; stroke-linejoin: miter"/>
   </g>
   <g id="patch_13">
    <path d="M 435.0105 435.444188 
L 475.9125 435.444188 
L 475.9125 67.597146 
L 435.0105 67.597146 
z
" clip-path="url(#p677f26a739)" style="fill: #aeccdb; opacity: 0.5; stroke: #ffffff; stroke-linejoin: miter"/>
   </g>
   <g id="patch_14">
    <path d="M 373.6575 435.444188 
L 414.5595 435.444188 
L 414.5595 134.504168 
L 373.6575 134.504168 
z
" clip-path="url(#p677f26a739)" style="fill: #3274a1; opacity: 0.5; stroke: #ffffff; stroke-linejoin: miter"/>
   </g>
   <g id="patch_15">
    <path d="M 475.9125 435.444188 
L 516.8145 435.444188 
L 516.8145 52.77856 
L 475.9125 52.77856 
z
" clip-path="url(#p677f26a739)" style="fill: #3274a1; opacity: 0.5; stroke: #ffffff; stroke-linejoin: miter"/>
   </g>
   <g id="matplotlib.axis_3">
    <g id="xtick_3">
     <g id="line2d_21"/>
     <g id="text_16">
      <text style="fill: #262626; font: 11px 'Arial', 'DejaVu Sans', 'Liberation Sans', 'Bitstream Vera Sans', sans-serif; text-anchor: middle" x="373.6575" y="185.078281" transform="rotate(-0 373.6575 185.078281)">1.5</text>
     </g>
    </g>
    <g id="xtick_4">
     <g id="line2d_22"/>
     <g id="text_17">
      <text style="fill: #262626; font: 11px 'Arial', 'DejaVu Sans', 'Liberation Sans', 'Bitstream Vera Sans', sans-serif; text-anchor: middle" x="475.9125" y="185.078281" transform="rotate(-0 475.9125 185.078281)">2.5</text>
     </g>
    </g>
    <g id="text_18">
     <text style="fill: #262626; font: 12px 'Arial', 'DejaVu Sans', 'Liberation Sans', 'Bitstream Vera Sans', sans-serif; text-anchor: middle" x="424.785" y="200.484062" transform="rotate(-0 424.785 200.484062)">multiplier</text>
    </g>
   </g>
   <g id="matplotlib.axis_4">
    <g id="ytick_7">
     <g id="line2d_23">
      <g>
       <use xlink:href="#m3b2ab628cb" x="322.53" y="157.220799" style="fill: #262626; stroke: #262626; stroke-width: 1.25"/>
      </g>
     </g>
     <g id="text_19">
      <text style="fill: #262626; font: 11px 'Arial', 'DejaVu Sans', 'Liberation Sans', 'Bitstream Vera Sans', sans-serif; text-anchor: end" x="313.03" y="161.39994" transform="rotate(-0 313.03 161.39994)">0.60</text>
     </g>
    </g>
    <g id="ytick_8">
     <g id="line2d_24">
      <g>
       <use xlink:href="#m3b2ab628cb" x="322.53" y="134.035517" style="fill: #262626; stroke: #262626; stroke-width: 1.25"/>
      </g>
     </g>
     <g id="text_20">
      <text style="fill: #262626; font: 11px 'Arial', 'DejaVu Sans', 'Liberation Sans', 'Bitstream Vera Sans', sans-serif; text-anchor: end" x="313.03" y="138.214658" transform="rotate(-0 313.03 138.214658)">0.65</text>
     </g>
    </g>
    <g id="ytick_9">
     <g id="line2d_25">
      <g>
       <use xlink:href="#m3b2ab628cb" x="322.53" y="110.850235" style="fill: #262626; stroke: #262626; stroke-width: 1.25"/>
      </g>
     </g>
     <g id="text_21">
      <text style="fill: #262626; font: 11px 'Arial', 'DejaVu Sans', 'Liberation Sans', 'Bitstream Vera Sans', sans-serif; text-anchor: end" x="313.03" y="115.029375" transform="rotate(-0 313.03 115.029375)">0.70</text>
     </g>
    </g>
    <g id="ytick_10">
     <g id="line2d_26">
      <g>
       <use xlink:href="#m3b2ab628cb" x="322.53" y="87.664952" style="fill: #262626; stroke: #262626; stroke-width: 1.25"/>
      </g>
     </g>
     <g id="text_22">
      <text style="fill: #262626; font: 11px 'Arial', 'DejaVu Sans', 'Liberation Sans', 'Bitstream Vera Sans', sans-serif; text-anchor: end" x="313.03" y="91.844093" transform="rotate(-0 313.03 91.844093)">0.75</text>
     </g>
    </g>
    <g id="ytick_11">
     <g id="line2d_27">
      <g>
       <use xlink:href="#m3b2ab628cb" x="322.53" y="64.47967" style="fill: #262626; stroke: #262626; stroke-width: 1.25"/>
      </g>
     </g>
     <g id="text_23">
      <text style="fill: #262626; font: 11px 'Arial', 'DejaVu Sans', 'Liberation Sans', 'Bitstream Vera Sans', sans-serif; text-anchor: end" x="313.03" y="68.65881" transform="rotate(-0 313.03 68.65881)">0.80</text>
     </g>
    </g>
    <g id="text_24">
     <text style="fill: #262626; font: 12px 'Arial', 'DejaVu Sans', 'Liberation Sans', 'Bitstream Vera Sans', sans-serif; text-anchor: middle" x="282.042188" y="95.19" transform="rotate(-90 282.042188 95.19)">payoff</text>
    </g>
   </g>
   <g id="PathCollection_9">
    <defs>
     <path id="C4_0_53c805560d" d="M 0 3.5 
C 0.928211 3.5 1.81853 3.131218 2.474874 2.474874 
C 3.131218 1.81853 3.5 0.928211 3.5 -0 
C 3.5 -0.928211 3.131218 -1.81853 2.474874 -2.474874 
C 1.81853 -3.131218 0.928211 -3.5 0 -3.5 
C -0.928211 -3.5 -1.81853 -3.131218 -2.474874 -2.474874 
C -3.131218 -1.81853 -3.5 -0.928211 -3.5 0 
C -3.5 0.928211 -3.131218 1.81853 -2.474874 2.474874 
C -1.81853 3.131218 -0.928211 3.5 0 3.5 
z
"/>
    </defs>
    <use xlink:href="#C4_0_53c805560d" x="351.092739" y="160.762995" style="fill: #a6cee3; fill-opacity: 0.8; stroke: #ffffff; stroke-opacity: 0.8; stroke-width: 0.95"/>
    <use xlink:href="#C4_0_53c805560d" x="348.256817" y="156.588473" style="fill: #a6cee3; fill-opacity: 0.8; stroke: #ffffff; stroke-opacity: 0.8; stroke-width: 0.95"/>
    <use xlink:href="#C4_0_53c805560d" x="354.234881" y="128.609174" style="fill: #a6cee3; fill-opacity: 0.8; stroke: #ffffff; stroke-opacity: 0.8; stroke-width: 0.95"/>
    <use xlink:href="#C4_0_53c805560d" x="353.014368" y="134.74527" style="fill: #a6cee3; fill-opacity: 0.8; stroke: #ffffff; stroke-opacity: 0.8; stroke-width: 0.95"/>
    <use xlink:href="#C4_0_53c805560d" x="358.255736" y="130.10351" style="fill: #a6cee3; fill-opacity: 0.8; stroke: #ffffff; stroke-opacity: 0.8; stroke-width: 0.95"/>
    <use xlink:href="#C4_0_53c805560d" x="353.42593" y="93.156203" style="fill: #a6cee3; fill-opacity: 0.8; stroke: #ffffff; stroke-opacity: 0.8; stroke-width: 0.95"/>
    <use xlink:href="#C4_0_53c805560d" x="348.623409" y="150.983823" style="fill: #a6cee3; fill-opacity: 0.8; stroke: #ffffff; stroke-opacity: 0.8; stroke-width: 0.95"/>
   </g>
   <g id="PathCollection_10">
    <defs>
     <path id="C5_0_f55ea7b666" d="M 0 3.5 
C 0.928211 3.5 1.81853 3.131218 2.474874 2.474874 
C 3.131218 1.81853 3.5 0.928211 3.5 -0 
C 3.5 -0.928211 3.131218 -1.81853 2.474874 -2.474874 
C 1.81853 -3.131218 0.928211 -3.5 0 -3.5 
C -0.928211 -3.5 -1.81853 -3.131218 -2.474874 -2.474874 
C -3.131218 -1.81853 -3.5 -0.928211 -3.5 0 
C -3.5 0.928211 -3.131218 1.81853 -2.474874 2.474874 
C -1.81853 3.131218 -0.928211 3.5 0 3.5 
z
"/>
    </defs>
    <use xlink:href="#C5_0_f55ea7b666" x="395.762444" y="146.984023" style="fill: #1f78b4; fill-opacity: 0.8; stroke: #ffffff; stroke-opacity: 0.8; stroke-width: 0.95"/>
    <use xlink:href="#C5_0_f55ea7b666" x="397.878925" y="95.122207" style="fill: #1f78b4; fill-opacity: 0.8; stroke: #ffffff; stroke-opacity: 0.8; stroke-width: 0.95"/>
    <use xlink:href="#C5_0_f55ea7b666" x="393.16297" y="154.305691" style="fill: #1f78b4; fill-opacity: 0.8; stroke: #ffffff; stroke-opacity: 0.8; stroke-width: 0.95"/>
    <use xlink:href="#C5_0_f55ea7b666" x="397.725381" y="157.695352" style="fill: #1f78b4; fill-opacity: 0.8; stroke: #ffffff; stroke-opacity: 0.8; stroke-width: 0.95"/>
    <use xlink:href="#C5_0_f55ea7b666" x="395.801021" y="104.294872" style="fill: #1f78b4; fill-opacity: 0.8; stroke: #ffffff; stroke-opacity: 0.8; stroke-width: 0.95"/>
    <use xlink:href="#C5_0_f55ea7b666" x="389.532896" y="165.966125" style="fill: #1f78b4; fill-opacity: 0.8; stroke: #ffffff; stroke-opacity: 0.8; stroke-width: 0.95"/>
    <use xlink:href="#C5_0_f55ea7b666" x="391.670965" y="78.445074" style="fill: #1f78b4; fill-opacity: 0.8; stroke: #ffffff; stroke-opacity: 0.8; stroke-width: 0.95"/>
    <use xlink:href="#C5_0_f55ea7b666" x="393.151799" y="173.22" style="fill: #1f78b4; fill-opacity: 0.8; stroke: #ffffff; stroke-opacity: 0.8; stroke-width: 0.95"/>
   </g>
   <g id="PathCollection_11">
    <defs>
     <path id="C6_0_39270fa4cb" d="M 0 3.5 
C 0.928211 3.5 1.81853 3.131218 2.474874 2.474874 
C 3.131218 1.81853 3.5 0.928211 3.5 -0 
C 3.5 -0.928211 3.131218 -1.81853 2.474874 -2.474874 
C 1.81853 -3.131218 0.928211 -3.5 0 -3.5 
C -0.928211 -3.5 -1.81853 -3.131218 -2.474874 -2.474874 
C -3.131218 -1.81853 -3.5 -0.928211 -3.5 0 
C -3.5 0.928211 -3.131218 1.81853 -2.474874 2.474874 
C -1.81853 3.131218 -0.928211 3.5 0 3.5 
z
"/>
    </defs>
    <use xlink:href="#C6_0_39270fa4cb" x="454.941133" y="105.869692" style="fill: #a6cee3; fill-opacity: 0.8; stroke: #ffffff; stroke-opacity: 0.8; stroke-width: 0.95"/>
    <use xlink:href="#C6_0_39270fa4cb" x="455.846462" y="59.530765" style="fill: #a6cee3; fill-opacity: 0.8; stroke: #ffffff; stroke-opacity: 0.8; stroke-width: 0.95"/>
    <use xlink:href="#C6_0_39270fa4cb" x="456.98028" y="58.242693" style="fill: #a6cee3; fill-opacity: 0.8; stroke: #ffffff; stroke-opacity: 0.8; stroke-width: 0.95"/>
    <use xlink:href="#C6_0_39270fa4cb" x="450.47924" y="47.342722" style="fill: #a6cee3; fill-opacity: 0.8; stroke: #ffffff; stroke-opacity: 0.8; stroke-width: 0.95"/>
    <use xlink:href="#C6_0_39270fa4cb" x="458.407648" y="50.039713" style="fill: #a6cee3; fill-opacity: 0.8; stroke: #ffffff; stroke-opacity: 0.8; stroke-width: 0.95"/>
    <use xlink:href="#C6_0_39270fa4cb" x="451.575926" y="74.513067" style="fill: #a6cee3; fill-opacity: 0.8; stroke: #ffffff; stroke-opacity: 0.8; stroke-width: 0.95"/>
    <use xlink:href="#C6_0_39270fa4cb" x="453.419296" y="69.503148" style="fill: #a6cee3; fill-opacity: 0.8; stroke: #ffffff; stroke-opacity: 0.8; stroke-width: 0.95"/>
    <use xlink:href="#C6_0_39270fa4cb" x="453.228241" y="77.902728" style="fill: #a6cee3; fill-opacity: 0.8; stroke: #ffffff; stroke-opacity: 0.8; stroke-width: 0.95"/>
    <use xlink:href="#C6_0_39270fa4cb" x="453.946211" y="56.141103" style="fill: #a6cee3; fill-opacity: 0.8; stroke: #ffffff; stroke-opacity: 0.8; stroke-width: 0.95"/>
    <use xlink:href="#C6_0_39270fa4cb" x="458.71894" y="76.88583" style="fill: #a6cee3; fill-opacity: 0.8; stroke: #ffffff; stroke-opacity: 0.8; stroke-width: 0.95"/>
   </g>
   <g id="PathCollection_12">
    <defs>
     <path id="C7_0_22cfb7de2a" d="M 0 3.5 
C 0.928211 3.5 1.81853 3.131218 2.474874 2.474874 
C 3.131218 1.81853 3.5 0.928211 3.5 -0 
C 3.5 -0.928211 3.131218 -1.81853 2.474874 -2.474874 
C 1.81853 -3.131218 0.928211 -3.5 0 -3.5 
C -0.928211 -3.5 -1.81853 -3.131218 -2.474874 -2.474874 
C -3.131218 -1.81853 -3.5 -0.928211 -3.5 0 
C -3.5 0.928211 -3.131218 1.81853 -2.474874 2.474874 
C -1.81853 3.131218 -0.928211 3.5 0 3.5 
z
"/>
    </defs>
    <use xlink:href="#C7_0_22cfb7de2a" x="500.295055" y="60.005317" style="fill: #1f78b4; fill-opacity: 0.8; stroke: #ffffff; stroke-opacity: 0.8; stroke-width: 0.95"/>
    <use xlink:href="#C7_0_22cfb7de2a" x="501.322411" y="52.27689" style="fill: #1f78b4; fill-opacity: 0.8; stroke: #ffffff; stroke-opacity: 0.8; stroke-width: 0.95"/>
    <use xlink:href="#C7_0_22cfb7de2a" x="501.280969" y="17.16" style="fill: #1f78b4; fill-opacity: 0.8; stroke: #ffffff; stroke-opacity: 0.8; stroke-width: 0.95"/>
    <use xlink:href="#C7_0_22cfb7de2a" x="491.520319" y="93.08841" style="fill: #1f78b4; fill-opacity: 0.8; stroke: #ffffff; stroke-opacity: 0.8; stroke-width: 0.95"/>
    <use xlink:href="#C7_0_22cfb7de2a" x="491.326071" y="41.362181" style="fill: #1f78b4; fill-opacity: 0.8; stroke: #ffffff; stroke-opacity: 0.8; stroke-width: 0.95"/>
   </g>
   <g id="PathCollection_13"/>
   <g id="PathCollection_14"/>
   <g id="line2d_28">
    <path d="M 353.2065 145.13221 
L 353.2065 127.71049 
" clip-path="url(#p677f26a739)" style="fill: none; stroke: #000000; stroke-width: 1.9; stroke-linecap: round"/>
   </g>
   <g id="line2d_29">
    <path d="M 353.2065 145.13221 
L 353.2065 145.13221 
" clip-path="url(#p677f26a739)" style="fill: none; stroke: #000000; stroke-width: 1.9; stroke-linecap: round"/>
   </g>
   <g id="line2d_30">
    <path d="M 353.2065 127.71049 
L 353.2065 127.71049 
" clip-path="url(#p677f26a739)" style="fill: none; stroke: #000000; stroke-width: 1.9; stroke-linecap: round"/>
   </g>
   <g id="line2d_31">
    <path d="M 455.4615 73.085572 
L 455.4615 62.10872 
" clip-path="url(#p677f26a739)" style="fill: none; stroke: #000000; stroke-width: 1.9; stroke-linecap: round"/>
   </g>
   <g id="line2d_32">
    <path d="M 455.4615 73.085572 
L 455.4615 73.085572 
" clip-path="url(#p677f26a739)" style="fill: none; stroke: #000000; stroke-width: 1.9; stroke-linecap: round"/>
   </g>
   <g id="line2d_33">
    <path d="M 455.4615 62.10872 
L 455.4615 62.10872 
" clip-path="url(#p677f26a739)" style="fill: none; stroke: #000000; stroke-width: 1.9; stroke-linecap: round"/>
   </g>
   <g id="line2d_34">
    <path d="M 394.1085 147.308053 
L 394.1085 121.700282 
" clip-path="url(#p677f26a739)" style="fill: none; stroke: #000000; stroke-width: 1.9; stroke-linecap: round"/>
   </g>
   <g id="line2d_35">
    <path d="M 394.1085 147.308053 
L 394.1085 147.308053 
" clip-path="url(#p677f26a739)" style="fill: none; stroke: #000000; stroke-width: 1.9; stroke-linecap: round"/>
   </g>
   <g id="line2d_36">
    <path d="M 394.1085 121.700282 
L 394.1085 121.700282 
" clip-path="url(#p677f26a739)" style="fill: none; stroke: #000000; stroke-width: 1.9; stroke-linecap: round"/>
   </g>
   <g id="line2d_37">
    <path d="M 496.3635 65.180933 
L 496.3635 40.376186 
" clip-path="url(#p677f26a739)" style="fill: none; stroke: #000000; stroke-width: 1.9; stroke-linecap: round"/>
   </g>
   <g id="line2d_38">
    <path d="M 496.3635 65.180933 
L 496.3635 65.180933 
" clip-path="url(#p677f26a739)" style="fill: none; stroke: #000000; stroke-width: 1.9; stroke-linecap: round"/>
   </g>
   <g id="line2d_39">
    <path d="M 496.3635 40.376186 
L 496.3635 40.376186 
" clip-path="url(#p677f26a739)" style="fill: none; stroke: #000000; stroke-width: 1.9; stroke-linecap: round"/>
   </g>
   <g id="patch_16">
    <path d="M 322.53 157.220799 
L 322.53 64.47967 
" style="fill: none; stroke: #262626; stroke-width: 1.25; stroke-linejoin: miter; stroke-linecap: square"/>
   </g>
   <g id="legend_2"/>
  </g>
 </g>
 <defs>
  <clipPath id="p0a927b06f8">
   <rect x="55.5" y="17.16" width="204.51" height="156.06"/>
  </clipPath>
  <clipPath id="p677f26a739">
   <rect x="322.53" y="17.16" width="204.51" height="156.06"/>
  </clipPath>
 </defs>
</svg>
