<?xml version="1.0" encoding="utf-8" standalone="no"?>
<!DOCTYPE svg PUBLIC "-//W3C//DTD SVG 1.1//EN"
  "http://www.w3.org/Graphics/SVG/1.1/DTD/svg11.dtd">
<svg xmlns:xlink="http://www.w3.org/1999/xlink" width="540pt" height="216pt" viewBox="0 0 540 216" xmlns="http://www.w3.org/2000/svg" version="1.1">
 <metadata>
  <rdf:RDF xmlns:dc="http://purl.org/dc/elements/1.1/" xmlns:cc="http://creativecommons.org/ns#" xmlns:rdf="http://www.w3.org/1999/02/22-rdf-syntax-ns#">
   <cc:Work>
    <dc:type rdf:resource="http://purl.org/dc/dcmitype/StillImage"/>
    <dc:date>2023-04-14T14:55:42.207957</dc:date>
    <dc:format>image/svg+xml</dc:format>
    <dc:creator>
     <cc:Agent>
      <dc:title>Matplotlib v3.7.0, https://matplotlib.org/</dc:title>
     </cc:Agent>
    </dc:creator>
   </cc:Work>
  </rdf:RDF>
 </metadata>
 <defs>
  <style type="text/css">*{stroke-linejoin: round; stroke-linecap: butt}</style>
 </defs>
 <g id="figure_1">
  <g id="patch_1">
   <path d="M 0 216 
L 540 216 
L 540 0 
L 0 0 
z
" style="fill: #ffffff"/>
  </g>
  <g id="axes_1">
   <g id="patch_2">
    <path d="M 55.5 173.22 
L 263.52 173.22 
L 263.52 12.96 
L 55.5 12.96 
z
" style="fill: #ffffff"/>
   </g>
   <g id="patch_3">
    <path d="M 65.901 173.22 
L 107.505 173.22 
L 107.505 101.23019 
L 65.901 101.23019 
z
" clip-path="url(#pe2ec1394a3)" style="fill: #aeccdb; opacity: 0.5; stroke: #ffffff; stroke-linejoin: miter"/>
   </g>
   <g id="patch_4">
    <path d="M 169.911 173.22 
L 211.515 173.22 
L 211.515 76.985729 
L 169.911 76.985729 
z
" clip-path="url(#pe2ec1394a3)" style="fill: #aeccdb; opacity: 0.5; stroke: #ffffff; stroke-linejoin: miter"/>
   </g>
   <g id="patch_5">
    <path d="M 107.505 173.22 
L 149.109 173.22 
L 149.109 75.007754 
L 107.505 75.007754 
z
" clip-path="url(#pe2ec1394a3)" style="fill: #3274a1; opacity: 0.5; stroke: #ffffff; stroke-linejoin: miter"/>
   </g>
   <g id="patch_6">
    <path d="M 211.515 173.22 
L 253.119 173.22 
L 253.119 48.454622 
L 211.515 48.454622 
z
" clip-path="url(#pe2ec1394a3)" style="fill: #3274a1; opacity: 0.5; stroke: #ffffff; stroke-linejoin: miter"/>
   </g>
   <g id="matplotlib.axis_1">
    <g id="xtick_1">
     <g id="line2d_1"/>
     <g id="text_1">
      <text style="fill: #262626; font: 11px 'Arial', 'DejaVu Sans', 'Liberation Sans', 'Bitstream Vera Sans', sans-serif; text-anchor: middle" x="107.505" y="185.078281" transform="rotate(-0 107.505 185.078281)">1.5</text>
     </g>
    </g>
    <g id="xtick_2">
     <g id="line2d_2"/>
     <g id="text_2">
      <text style="fill: #262626; font: 11px 'Arial', 'DejaVu Sans', 'Liberation Sans', 'Bitstream Vera Sans', sans-serif; text-anchor: middle" x="211.515" y="185.078281" transform="rotate(-0 211.515 185.078281)">2.5</text>
     </g>
    </g>
    <g id="text_3">
     <text style="fill: #262626; font: 12px 'Arial', 'DejaVu Sans', 'Liberation Sans', 'Bitstream Vera Sans', sans-serif; text-anchor: middle" x="159.51" y="200.484062" transform="rotate(-0 159.51 200.484062)">multiplier</text>
    </g>
   </g>
   <g id="matplotlib.axis_2">
    <g id="ytick_1">
     <g id="line2d_3">
      <defs>
       <path id="ma34caca0b1" d="M 0 0 
L -6 0 
" style="stroke: #262626; stroke-width: 1.25"/>
      </defs>
      <g>
       <use xlink:href="#ma34caca0b1" x="55.5" y="173.22" style="fill: #262626; stroke: #262626; stroke-width: 1.25"/>
      </g>
     </g>
     <g id="text_4">
      <text style="fill: #262626; font: 11px 'Arial', 'DejaVu Sans', 'Liberation Sans', 'Bitstream Vera Sans', sans-serif; text-anchor: end" x="46" y="177.399141" transform="rotate(-0 46 177.399141)">0.0</text>
     </g>
    </g>
    <g id="ytick_2">
     <g id="line2d_4">
      <g>
       <use xlink:href="#ma34caca0b1" x="55.5" y="142.694286" style="fill: #262626; stroke: #262626; stroke-width: 1.25"/>
      </g>
     </g>
     <g id="text_5">
      <text style="fill: #262626; font: 11px 'Arial', 'DejaVu Sans', 'Liberation Sans', 'Bitstream Vera Sans', sans-serif; text-anchor: end" x="46" y="146.873426" transform="rotate(-0 46 146.873426)">0.2</text>
     </g>
    </g>
    <g id="ytick_3">
     <g id="line2d_5">
      <g>
       <use xlink:href="#ma34caca0b1" x="55.5" y="112.168571" style="fill: #262626; stroke: #262626; stroke-width: 1.25"/>
      </g>
     </g>
     <g id="text_6">
      <text style="fill: #262626; font: 11px 'Arial', 'DejaVu Sans', 'Liberation Sans', 'Bitstream Vera Sans', sans-serif; text-anchor: end" x="46" y="116.347712" transform="rotate(-0 46 116.347712)">0.4</text>
     </g>
    </g>
    <g id="ytick_4">
     <g id="line2d_6">
      <g>
       <use xlink:href="#ma34caca0b1" x="55.5" y="81.642857" style="fill: #262626; stroke: #262626; stroke-width: 1.25"/>
      </g>
     </g>
     <g id="text_7">
      <text style="fill: #262626; font: 11px 'Arial', 'DejaVu Sans', 'Liberation Sans', 'Bitstream Vera Sans', sans-serif; text-anchor: end" x="46" y="85.821998" transform="rotate(-0 46 85.821998)">0.6</text>
     </g>
    </g>
    <g id="ytick_5">
     <g id="line2d_7">
      <g>
       <use xlink:href="#ma34caca0b1" x="55.5" y="51.117143" style="fill: #262626; stroke: #262626; stroke-width: 1.25"/>
      </g>
     </g>
     <g id="text_8">
      <text style="fill: #262626; font: 11px 'Arial', 'DejaVu Sans', 'Liberation Sans', 'Bitstream Vera Sans', sans-serif; text-anchor: end" x="46" y="55.296283" transform="rotate(-0 46 55.296283)">0.8</text>
     </g>
    </g>
    <g id="ytick_6">
     <g id="line2d_8">
      <g>
       <use xlink:href="#ma34caca0b1" x="55.5" y="20.591429" style="fill: #262626; stroke: #262626; stroke-width: 1.25"/>
      </g>
     </g>
     <g id="text_9">
      <text style="fill: #262626; font: 11px 'Arial', 'DejaVu Sans', 'Liberation Sans', 'Bitstream Vera Sans', sans-serif; text-anchor: end" x="46" y="24.770569" transform="rotate(-0 46 24.770569)">1.0</text>
     </g>
    </g>
    <g id="text_10">
     <text style="fill: #262626; font: 12px 'Arial', 'DejaVu Sans', 'Liberation Sans', 'Bitstream Vera Sans', sans-serif; text-anchor: middle" x="22.010938" y="93.09" transform="rotate(-90 22.010938 93.09)">contribution</text>
    </g>
   </g>
   <g id="PathCollection_1">
    <defs>
     <path id="C0_0_c4e57a1413" d="M 0 3.5 
C 0.928211 3.5 1.81853 3.131218 2.474874 2.474874 
C 3.131218 1.81853 3.5 0.928211 3.5 -0 
C 3.5 -0.928211 3.131218 -1.81853 2.474874 -2.474874 
C 1.81853 -3.131218 0.928211 -3.5 0 -3.5 
C -0.928211 -3.5 -1.81853 -3.131218 -2.474874 -2.474874 
C -3.131218 -1.81853 -3.5 -0.928211 -3.5 0 
C -3.5 0.928211 -3.131218 1.81853 -2.474874 2.474874 
C -1.81853 3.131218 -0.928211 3.5 0 3.5 
z
"/>
    </defs>
    <use xlink:href="#C0_0_c4e57a1413" x="88.031685" y="86.730476" style="fill: #a6cee3; fill-opacity: 0.8; stroke: #ffffff; stroke-opacity: 0.8; stroke-width: 0.95"/>
    <use xlink:href="#C0_0_c4e57a1413" x="90.388869" y="70.450095" style="fill: #a6cee3; fill-opacity: 0.8; stroke: #ffffff; stroke-opacity: 0.8; stroke-width: 0.95"/>
    <use xlink:href="#C0_0_c4e57a1413" x="91.560154" y="146.001238" style="fill: #a6cee3; fill-opacity: 0.8; stroke: #ffffff; stroke-opacity: 0.8; stroke-width: 0.95"/>
    <use xlink:href="#C0_0_c4e57a1413" x="81.664847" y="134.299714" style="fill: #a6cee3; fill-opacity: 0.8; stroke: #ffffff; stroke-opacity: 0.8; stroke-width: 0.95"/>
    <use xlink:href="#C0_0_c4e57a1413" x="85.654327" y="107.844095" style="fill: #a6cee3; fill-opacity: 0.8; stroke: #ffffff; stroke-opacity: 0.8; stroke-width: 0.95"/>
    <use xlink:href="#C0_0_c4e57a1413" x="91.055201" y="96.142571" style="fill: #a6cee3; fill-opacity: 0.8; stroke: #ffffff; stroke-opacity: 0.8; stroke-width: 0.95"/>
    <use xlink:href="#C0_0_c4e57a1413" x="91.035076" y="121.835048" style="fill: #a6cee3; fill-opacity: 0.8; stroke: #ffffff; stroke-opacity: 0.8; stroke-width: 0.95"/>
    <use xlink:href="#C0_0_c4e57a1413" x="90.866607" y="123.870095" style="fill: #a6cee3; fill-opacity: 0.8; stroke: #ffffff; stroke-opacity: 0.8; stroke-width: 0.95"/>
    <use xlink:href="#C0_0_c4e57a1413" x="86.667385" y="121.835048" style="fill: #a6cee3; fill-opacity: 0.8; stroke: #ffffff; stroke-opacity: 0.8; stroke-width: 0.95"/>
    <use xlink:href="#C0_0_c4e57a1413" x="91.527819" y="81.897238" style="fill: #a6cee3; fill-opacity: 0.8; stroke: #ffffff; stroke-opacity: 0.8; stroke-width: 0.95"/>
    <use xlink:href="#C0_0_c4e57a1413" x="91.86423" y="20.591429" style="fill: #a6cee3; fill-opacity: 0.8; stroke: #ffffff; stroke-opacity: 0.8; stroke-width: 0.95"/>
    <use xlink:href="#C0_0_c4e57a1413" x="89.026996" y="55.696" style="fill: #a6cee3; fill-opacity: 0.8; stroke: #ffffff; stroke-opacity: 0.8; stroke-width: 0.95"/>
    <use xlink:href="#C0_0_c4e57a1413" x="81.585294" y="162.281619" style="fill: #a6cee3; fill-opacity: 0.8; stroke: #ffffff; stroke-opacity: 0.8; stroke-width: 0.95"/>
    <use xlink:href="#C0_0_c4e57a1413" x="83.773449" y="75.028952" style="fill: #a6cee3; fill-opacity: 0.8; stroke: #ffffff; stroke-opacity: 0.8; stroke-width: 0.95"/>
    <use xlink:href="#C0_0_c4e57a1413" x="82.754091" y="78.335905" style="fill: #a6cee3; fill-opacity: 0.8; stroke: #ffffff; stroke-opacity: 0.8; stroke-width: 0.95"/>
    <use xlink:href="#C0_0_c4e57a1413" x="85.426354" y="136.843524" style="fill: #a6cee3; fill-opacity: 0.8; stroke: #ffffff; stroke-opacity: 0.8; stroke-width: 0.95"/>
   </g>
   <g id="PathCollection_2">
    <defs>
     <path id="C1_0_ac5ed96bc7" d="M 0 3.5 
C 0.928211 3.5 1.81853 3.131218 2.474874 2.474874 
C 3.131218 1.81853 3.5 0.928211 3.5 -0 
C 3.5 -0.928211 3.131218 -1.81853 2.474874 -2.474874 
C 1.81853 -3.131218 0.928211 -3.5 0 -3.5 
C -0.928211 -3.5 -1.81853 -3.131218 -2.474874 -2.474874 
C -3.131218 -1.81853 -3.5 -0.928211 -3.5 0 
C -3.5 0.928211 -3.131218 1.81853 -2.474874 2.474874 
C -1.81853 3.131218 -0.928211 3.5 0 3.5 
z
"/>
    </defs>
    <use xlink:href="#C1_0_ac5ed96bc7" x="124.195663" y="36.617429" style="fill: #1f78b4; fill-opacity: 0.8; stroke: #ffffff; stroke-opacity: 0.8; stroke-width: 0.95"/>
    <use xlink:href="#C1_0_ac5ed96bc7" x="125.150682" y="81.897238" style="fill: #1f78b4; fill-opacity: 0.8; stroke: #ffffff; stroke-opacity: 0.8; stroke-width: 0.95"/>
    <use xlink:href="#C1_0_ac5ed96bc7" x="132.644789" y="132.264667" style="fill: #1f78b4; fill-opacity: 0.8; stroke: #ffffff; stroke-opacity: 0.8; stroke-width: 0.95"/>
    <use xlink:href="#C1_0_ac5ed96bc7" x="131.601005" y="129.720857" style="fill: #1f78b4; fill-opacity: 0.8; stroke: #ffffff; stroke-opacity: 0.8; stroke-width: 0.95"/>
    <use xlink:href="#C1_0_ac5ed96bc7" x="133.36784" y="20.591429" style="fill: #1f78b4; fill-opacity: 0.8; stroke: #ffffff; stroke-opacity: 0.8; stroke-width: 0.95"/>
    <use xlink:href="#C1_0_ac5ed96bc7" x="130.534284" y="55.187238" style="fill: #1f78b4; fill-opacity: 0.8; stroke: #ffffff; stroke-opacity: 0.8; stroke-width: 0.95"/>
    <use xlink:href="#C1_0_ac5ed96bc7" x="123.947373" y="26.696571" style="fill: #1f78b4; fill-opacity: 0.8; stroke: #ffffff; stroke-opacity: 0.8; stroke-width: 0.95"/>
    <use xlink:href="#C1_0_ac5ed96bc7" x="127.074611" y="80.879714" style="fill: #1f78b4; fill-opacity: 0.8; stroke: #ffffff; stroke-opacity: 0.8; stroke-width: 0.95"/>
    <use xlink:href="#C1_0_ac5ed96bc7" x="126.037894" y="65.362476" style="fill: #1f78b4; fill-opacity: 0.8; stroke: #ffffff; stroke-opacity: 0.8; stroke-width: 0.95"/>
    <use xlink:href="#C1_0_ac5ed96bc7" x="130.602149" y="102.756476" style="fill: #1f78b4; fill-opacity: 0.8; stroke: #ffffff; stroke-opacity: 0.8; stroke-width: 0.95"/>
    <use xlink:href="#C1_0_ac5ed96bc7" x="128.490888" y="91.563714" style="fill: #1f78b4; fill-opacity: 0.8; stroke: #ffffff; stroke-opacity: 0.8; stroke-width: 0.95"/>
    <use xlink:href="#C1_0_ac5ed96bc7" x="133.162772" y="76.555238" style="fill: #1f78b4; fill-opacity: 0.8; stroke: #ffffff; stroke-opacity: 0.8; stroke-width: 0.95"/>
   </g>
   <g id="PathCollection_3">
    <defs>
     <path id="C2_0_2442ba9432" d="M 0 3.5 
C 0.928211 3.5 1.81853 3.131218 2.474874 2.474874 
C 3.131218 1.81853 3.5 0.928211 3.5 -0 
C 3.5 -0.928211 3.131218 -1.81853 2.474874 -2.474874 
C 1.81853 -3.131218 0.928211 -3.5 0 -3.5 
C -0.928211 -3.5 -1.81853 -3.131218 -2.474874 -2.474874 
C -3.131218 -1.81853 -3.5 -0.928211 -3.5 0 
C -3.5 0.928211 -3.131218 1.81853 -2.474874 2.474874 
C -1.81853 3.131218 -0.928211 3.5 0 3.5 
z
"/>
    </defs>
    <use xlink:href="#C2_0_2442ba9432" x="194.067521" y="131.755905" style="fill: #a6cee3; fill-opacity: 0.8; stroke: #ffffff; stroke-opacity: 0.8; stroke-width: 0.95"/>
    <use xlink:href="#C2_0_2442ba9432" x="188.25612" y="38.143714" style="fill: #a6cee3; fill-opacity: 0.8; stroke: #ffffff; stroke-opacity: 0.8; stroke-width: 0.95"/>
    <use xlink:href="#C2_0_2442ba9432" x="185.841631" y="107.335333" style="fill: #a6cee3; fill-opacity: 0.8; stroke: #ffffff; stroke-opacity: 0.8; stroke-width: 0.95"/>
    <use xlink:href="#C2_0_2442ba9432" x="192.0922" y="100.467048" style="fill: #a6cee3; fill-opacity: 0.8; stroke: #ffffff; stroke-opacity: 0.8; stroke-width: 0.95"/>
    <use xlink:href="#C2_0_2442ba9432" x="195.719798" y="83.423524" style="fill: #a6cee3; fill-opacity: 0.8; stroke: #ffffff; stroke-opacity: 0.8; stroke-width: 0.95"/>
    <use xlink:href="#C2_0_2442ba9432" x="190.339876" y="111.151048" style="fill: #a6cee3; fill-opacity: 0.8; stroke: #ffffff; stroke-opacity: 0.8; stroke-width: 0.95"/>
    <use xlink:href="#C2_0_2442ba9432" x="188.759098" y="69.432571" style="fill: #a6cee3; fill-opacity: 0.8; stroke: #ffffff; stroke-opacity: 0.8; stroke-width: 0.95"/>
    <use xlink:href="#C2_0_2442ba9432" x="186.729623" y="40.941905" style="fill: #a6cee3; fill-opacity: 0.8; stroke: #ffffff; stroke-opacity: 0.8; stroke-width: 0.95"/>
    <use xlink:href="#C2_0_2442ba9432" x="194.928133" y="25.933429" style="fill: #a6cee3; fill-opacity: 0.8; stroke: #ffffff; stroke-opacity: 0.8; stroke-width: 0.95"/>
    <use xlink:href="#C2_0_2442ba9432" x="187.880337" y="92.835619" style="fill: #a6cee3; fill-opacity: 0.8; stroke: #ffffff; stroke-opacity: 0.8; stroke-width: 0.95"/>
    <use xlink:href="#C2_0_2442ba9432" x="186.717519" y="80.370952" style="fill: #a6cee3; fill-opacity: 0.8; stroke: #ffffff; stroke-opacity: 0.8; stroke-width: 0.95"/>
    <use xlink:href="#C2_0_2442ba9432" x="188.472373" y="69.17819" style="fill: #a6cee3; fill-opacity: 0.8; stroke: #ffffff; stroke-opacity: 0.8; stroke-width: 0.95"/>
    <use xlink:href="#C2_0_2442ba9432" x="195.409784" y="49.845238" style="fill: #a6cee3; fill-opacity: 0.8; stroke: #ffffff; stroke-opacity: 0.8; stroke-width: 0.95"/>
   </g>
   <g id="PathCollection_4">
    <defs>
     <path id="C3_0_f330339cb7" d="M 0 3.5 
C 0.928211 3.5 1.81853 3.131218 2.474874 2.474874 
C 3.131218 1.81853 3.5 0.928211 3.5 -0 
C 3.5 -0.928211 3.131218 -1.81853 2.474874 -2.474874 
C 1.81853 -3.131218 0.928211 -3.5 0 -3.5 
C -0.928211 -3.5 -1.81853 -3.131218 -2.474874 -2.474874 
C -3.131218 -1.81853 -3.5 -0.928211 -3.5 0 
C -3.5 0.928211 -3.131218 1.81853 -2.474874 2.474874 
C -1.81853 3.131218 -0.928211 3.5 0 3.5 
z
"/>
    </defs>
    <use xlink:href="#C3_0_f330339cb7" x="230.491952" y="22.880857" style="fill: #1f78b4; fill-opacity: 0.8; stroke: #ffffff; stroke-opacity: 0.8; stroke-width: 0.95"/>
    <use xlink:href="#C3_0_f330339cb7" x="234.262385" y="27.459714" style="fill: #1f78b4; fill-opacity: 0.8; stroke: #ffffff; stroke-opacity: 0.8; stroke-width: 0.95"/>
    <use xlink:href="#C3_0_f330339cb7" x="231.988399" y="20.591429" style="fill: #1f78b4; fill-opacity: 0.8; stroke: #ffffff; stroke-opacity: 0.8; stroke-width: 0.95"/>
    <use xlink:href="#C3_0_f330339cb7" x="229.92222" y="72.993905" style="fill: #1f78b4; fill-opacity: 0.8; stroke: #ffffff; stroke-opacity: 0.8; stroke-width: 0.95"/>
    <use xlink:href="#C3_0_f330339cb7" x="227.607833" y="33.819238" style="fill: #1f78b4; fill-opacity: 0.8; stroke: #ffffff; stroke-opacity: 0.8; stroke-width: 0.95"/>
    <use xlink:href="#C3_0_f330339cb7" x="234.555353" y="84.186667" style="fill: #1f78b4; fill-opacity: 0.8; stroke: #ffffff; stroke-opacity: 0.8; stroke-width: 0.95"/>
    <use xlink:href="#C3_0_f330339cb7" x="234.586421" y="30.766667" style="fill: #1f78b4; fill-opacity: 0.8; stroke: #ffffff; stroke-opacity: 0.8; stroke-width: 0.95"/>
    <use xlink:href="#C3_0_f330339cb7" x="229.659001" y="53.660952" style="fill: #1f78b4; fill-opacity: 0.8; stroke: #ffffff; stroke-opacity: 0.8; stroke-width: 0.95"/>
    <use xlink:href="#C3_0_f330339cb7" x="231.274884" y="85.20419" style="fill: #1f78b4; fill-opacity: 0.8; stroke: #ffffff; stroke-opacity: 0.8; stroke-width: 0.95"/>
    <use xlink:href="#C3_0_f330339cb7" x="228.428533" y="24.661524" style="fill: #1f78b4; fill-opacity: 0.8; stroke: #ffffff; stroke-opacity: 0.8; stroke-width: 0.95"/>
    <use xlink:href="#C3_0_f330339cb7" x="236.429709" y="42.21381" style="fill: #1f78b4; fill-opacity: 0.8; stroke: #ffffff; stroke-opacity: 0.8; stroke-width: 0.95"/>
    <use xlink:href="#C3_0_f330339cb7" x="229.73923" y="54.932857" style="fill: #1f78b4; fill-opacity: 0.8; stroke: #ffffff; stroke-opacity: 0.8; stroke-width: 0.95"/>
    <use xlink:href="#C3_0_f330339cb7" x="229.298084" y="20.591429" style="fill: #1f78b4; fill-opacity: 0.8; stroke: #ffffff; stroke-opacity: 0.8; stroke-width: 0.95"/>
    <use xlink:href="#C3_0_f330339cb7" x="237.068281" y="48.573333" style="fill: #1f78b4; fill-opacity: 0.8; stroke: #ffffff; stroke-opacity: 0.8; stroke-width: 0.95"/>
    <use xlink:href="#C3_0_f330339cb7" x="231.029921" y="104.282762" style="fill: #1f78b4; fill-opacity: 0.8; stroke: #ffffff; stroke-opacity: 0.8; stroke-width: 0.95"/>
   </g>
   <g id="PathCollection_5"/>
   <g id="PathCollection_6"/>
   <g id="line2d_9">
    <path d="M 86.703 110.549298 
L 86.703 91.911083 
" clip-path="url(#pe2ec1394a3)" style="fill: none; stroke: #000000; stroke-width: 1.9; stroke-linecap: round"/>
   </g>
   <g id="line2d_10">
    <path d="M 86.703 110.549298 
L 86.703 110.549298 
" clip-path="url(#pe2ec1394a3)" style="fill: none; stroke: #000000; stroke-width: 1.9; stroke-linecap: round"/>
   </g>
   <g id="line2d_11">
    <path d="M 86.703 91.911083 
L 86.703 91.911083 
" clip-path="url(#pe2ec1394a3)" style="fill: none; stroke: #000000; stroke-width: 1.9; stroke-linecap: round"/>
   </g>
   <g id="line2d_12">
    <path d="M 190.713 85.833605 
L 190.713 68.137853 
" clip-path="url(#pe2ec1394a3)" style="fill: none; stroke: #000000; stroke-width: 1.9; stroke-linecap: round"/>
   </g>
   <g id="line2d_13">
    <path d="M 190.713 85.833605 
L 190.713 85.833605 
" clip-path="url(#pe2ec1394a3)" style="fill: none; stroke: #000000; stroke-width: 1.9; stroke-linecap: round"/>
   </g>
   <g id="line2d_14">
    <path d="M 190.713 68.137853 
L 190.713 68.137853 
" clip-path="url(#pe2ec1394a3)" style="fill: none; stroke: #000000; stroke-width: 1.9; stroke-linecap: round"/>
   </g>
   <g id="line2d_15">
    <path d="M 128.307 85.544528 
L 128.307 64.47098 
" clip-path="url(#pe2ec1394a3)" style="fill: none; stroke: #000000; stroke-width: 1.9; stroke-linecap: round"/>
   </g>
   <g id="line2d_16">
    <path d="M 128.307 85.544528 
L 128.307 85.544528 
" clip-path="url(#pe2ec1394a3)" style="fill: none; stroke: #000000; stroke-width: 1.9; stroke-linecap: round"/>
   </g>
   <g id="line2d_17">
    <path d="M 128.307 64.47098 
L 128.307 64.47098 
" clip-path="url(#pe2ec1394a3)" style="fill: none; stroke: #000000; stroke-width: 1.9; stroke-linecap: round"/>
   </g>
   <g id="line2d_18">
    <path d="M 232.317 55.422231 
L 232.317 41.487013 
" clip-path="url(#pe2ec1394a3)" style="fill: none; stroke: #000000; stroke-width: 1.9; stroke-linecap: round"/>
   </g>
   <g id="line2d_19">
    <path d="M 232.317 55.422231 
L 232.317 55.422231 
" clip-path="url(#pe2ec1394a3)" style="fill: none; stroke: #000000; stroke-width: 1.9; stroke-linecap: round"/>
   </g>
   <g id="line2d_20">
    <path d="M 232.317 41.487013 
L 232.317 41.487013 
" clip-path="url(#pe2ec1394a3)" style="fill: none; stroke: #000000; stroke-width: 1.9; stroke-linecap: round"/>
   </g>
   <g id="patch_7">
    <path d="M 55.5 173.22 
L 55.5 20.591429 
" style="fill: none; stroke: #262626; stroke-width: 1.25; stroke-linejoin: miter; stroke-linecap: square"/>
   </g>
   <g id="legend_1">
    <g id="patch_8">
     <path d="M 147.353125 167.72 
L 255.82 167.72 
Q 258.02 167.72 258.02 165.52 
L 258.02 84.58875 
Q 258.02 82.38875 255.82 82.38875 
L 147.353125 82.38875 
Q 145.153125 82.38875 145.153125 84.58875 
L 145.153125 165.52 
Q 145.153125 167.72 147.353125 167.72 
z
" style="fill: #ffffff; opacity: 0.8; stroke: #cccccc; stroke-linejoin: miter"/>
    </g>
    <g id="text_11">
     <text style="fill: #262626; font: 12px 'Arial', 'DejaVu Sans', 'Liberation Sans', 'Bitstream Vera Sans', sans-serif; text-anchor: start" x="158.659375" y="95.906875" transform="rotate(-0 158.659375 95.906875)">discloser_type</text>
    </g>
    <g id="PathCollection_7">
     <defs>
      <path id="m9a95714ba5" d="M 0 3 
C 0.795609 3 1.55874 2.683901 2.12132 2.12132 
C 2.683901 1.55874 3 0.795609 3 0 
C 3 -0.795609 2.683901 -1.55874 2.12132 -2.12132 
C 1.55874 -2.683901 0.795609 -3 0 -3 
C -0.795609 -3 -1.55874 -2.683901 -2.12132 -2.12132 
C -2.683901 -1.55874 -3 -0.795609 -3 0 
C -3 0.795609 -2.683901 1.55874 -2.12132 2.12132 
C -1.55874 2.683901 -0.795609 3 0 3 
z
" style="stroke: #a6cee3"/>
     </defs>
     <g>
      <use xlink:href="#m9a95714ba5" x="160.553125" y="109.707031" style="fill: #a6cee3; stroke: #a6cee3"/>
     </g>
    </g>
    <g id="text_12">
     <text style="fill: #262626; font: 11px 'Arial', 'DejaVu Sans', 'Liberation Sans', 'Bitstream Vera Sans', sans-serif; text-anchor: start" x="180.353125" y="112.594531" transform="rotate(-0 180.353125 112.594531)">non-discloser</text>
    </g>
    <g id="PathCollection_8">
     <defs>
      <path id="mc614ae0236" d="M 0 3 
C 0.795609 3 1.55874 2.683901 2.12132 2.12132 
C 2.683901 1.55874 3 0.795609 3 0 
C 3 -0.795609 2.683901 -1.55874 2.12132 -2.12132 
C 1.55874 -2.683901 0.795609 -3 0 -3 
C -0.795609 -3 -1.55874 -2.683901 -2.12132 -2.12132 
C -2.683901 -1.55874 -3 -0.795609 -3 0 
C -3 0.795609 -2.683901 1.55874 -2.12132 2.12132 
C -1.55874 2.683901 -0.795609 3 0 3 
z
" style="stroke: #1f78b4"/>
     </defs>
     <g>
      <use xlink:href="#mc614ae0236" x="160.553125" y="125.852969" style="fill: #1f78b4; stroke: #1f78b4"/>
     </g>
    </g>
    <g id="text_13">
     <text style="fill: #262626; font: 11px 'Arial', 'DejaVu Sans', 'Liberation Sans', 'Bitstream Vera Sans', sans-serif; text-anchor: start" x="180.353125" y="128.740469" transform="rotate(-0 180.353125 128.740469)">discloser</text>
    </g>
    <g id="patch_9">
     <path d="M 149.553125 144.886406 
L 171.553125 144.886406 
L 171.553125 137.186406 
L 149.553125 137.186406 
z
" style="fill: #aeccdb; opacity: 0.5; stroke: #ffffff; stroke-linejoin: miter"/>
    </g>
    <g id="text_14">
     <text style="fill: #262626; font: 11px 'Arial', 'DejaVu Sans', 'Liberation Sans', 'Bitstream Vera Sans', sans-serif; text-anchor: start" x="180.353125" y="144.886406" transform="rotate(-0 180.353125 144.886406)">non-discloser</text>
    </g>
    <g id="patch_10">
     <path d="M 149.553125 161.032344 
L 171.553125 161.032344 
L 171.553125 153.332344 
L 149.553125 153.332344 
z
" style="fill: #3274a1; opacity: 0.5; stroke: #ffffff; stroke-linejoin: miter"/>
    </g>
    <g id="text_15">
     <text style="fill: #262626; font: 11px 'Arial', 'DejaVu Sans', 'Liberation Sans', 'Bitstream Vera Sans', sans-serif; text-anchor: start" x="180.353125" y="161.032344" transform="rotate(-0 180.353125 161.032344)">discloser</text>
    </g>
   </g>
  </g>
  <g id="axes_2">
   <g id="patch_11">
    <path d="M 319.02 173.22 
L 527.04 173.22 
L 527.04 12.96 
L 319.02 12.96 
z
" style="fill: #ffffff"/>
   </g>
   <g id="patch_12">
    <path d="M 329.421 173.22 
L 371.025 173.22 
L 371.025 89.910238 
L 329.421 89.910238 
z
" clip-path="url(#p9541322ecf)" style="fill: #aeccdb; opacity: 0.5; stroke: #ffffff; stroke-linejoin: miter"/>
   </g>
   <g id="patch_13">
    <path d="M 433.431 173.22 
L 475.035 173.22 
L 475.035 77.231215 
L 433.431 77.231215 
z
" clip-path="url(#p9541322ecf)" style="fill: #aeccdb; opacity: 0.5; stroke: #ffffff; stroke-linejoin: miter"/>
   </g>
   <g id="patch_14">
    <path d="M 371.025 173.22 
L 412.629 173.22 
L 412.629 115.329062 
L 371.025 115.329062 
z
" clip-path="url(#p9541322ecf)" style="fill: #3274a1; opacity: 0.5; stroke: #ffffff; stroke-linejoin: miter"/>
   </g>
   <g id="patch_15">
    <path d="M 475.035 173.22 
L 516.639 173.22 
L 516.639 48.465414 
L 475.035 48.465414 
z
" clip-path="url(#p9541322ecf)" style="fill: #3274a1; opacity: 0.5; stroke: #ffffff; stroke-linejoin: miter"/>
   </g>
   <g id="matplotlib.axis_3">
    <g id="xtick_3">
     <g id="line2d_21"/>
     <g id="text_16">
      <text style="fill: #262626; font: 11px 'Arial', 'DejaVu Sans', 'Liberation Sans', 'Bitstream Vera Sans', sans-serif; text-anchor: middle" x="371.025" y="185.078281" transform="rotate(-0 371.025 185.078281)">1.5</text>
     </g>
    </g>
    <g id="xtick_4">
     <g id="line2d_22"/>
     <g id="text_17">
      <text style="fill: #262626; font: 11px 'Arial', 'DejaVu Sans', 'Liberation Sans', 'Bitstream Vera Sans', sans-serif; text-anchor: middle" x="475.035" y="185.078281" transform="rotate(-0 475.035 185.078281)">2.5</text>
     </g>
    </g>
    <g id="text_18">
     <text style="fill: #262626; font: 12px 'Arial', 'DejaVu Sans', 'Liberation Sans', 'Bitstream Vera Sans', sans-serif; text-anchor: middle" x="423.03" y="200.484062" transform="rotate(-0 423.03 200.484062)">multiplier</text>
    </g>
   </g>
   <g id="matplotlib.axis_4">
    <g id="ytick_7">
     <g id="line2d_23">
      <g>
       <use xlink:href="#ma34caca0b1" x="319.02" y="173.22" style="fill: #262626; stroke: #262626; stroke-width: 1.25"/>
      </g>
     </g>
     <g id="text_19">
      <text style="fill: #262626; font: 11px 'Arial', 'DejaVu Sans', 'Liberation Sans', 'Bitstream Vera Sans', sans-serif; text-anchor: end" x="309.52" y="177.399141" transform="rotate(-0 309.52 177.399141)">0.0</text>
     </g>
    </g>
    <g id="ytick_8">
     <g id="line2d_24">
      <g>
       <use xlink:href="#ma34caca0b1" x="319.02" y="142.694286" style="fill: #262626; stroke: #262626; stroke-width: 1.25"/>
      </g>
     </g>
     <g id="text_20">
      <text style="fill: #262626; font: 11px 'Arial', 'DejaVu Sans', 'Liberation Sans', 'Bitstream Vera Sans', sans-serif; text-anchor: end" x="309.52" y="146.873426" transform="rotate(-0 309.52 146.873426)">0.2</text>
     </g>
    </g>
    <g id="ytick_9">
     <g id="line2d_25">
      <g>
       <use xlink:href="#ma34caca0b1" x="319.02" y="112.168571" style="fill: #262626; stroke: #262626; stroke-width: 1.25"/>
      </g>
     </g>
     <g id="text_21">
      <text style="fill: #262626; font: 11px 'Arial', 'DejaVu Sans', 'Liberation Sans', 'Bitstream Vera Sans', sans-serif; text-anchor: end" x="309.52" y="116.347712" transform="rotate(-0 309.52 116.347712)">0.4</text>
     </g>
    </g>
    <g id="ytick_10">
     <g id="line2d_26">
      <g>
       <use xlink:href="#ma34caca0b1" x="319.02" y="81.642857" style="fill: #262626; stroke: #262626; stroke-width: 1.25"/>
      </g>
     </g>
     <g id="text_22">
      <text style="fill: #262626; font: 11px 'Arial', 'DejaVu Sans', 'Liberation Sans', 'Bitstream Vera Sans', sans-serif; text-anchor: end" x="309.52" y="85.821998" transform="rotate(-0 309.52 85.821998)">0.6</text>
     </g>
    </g>
    <g id="ytick_11">
     <g id="line2d_27">
      <g>
       <use xlink:href="#ma34caca0b1" x="319.02" y="51.117143" style="fill: #262626; stroke: #262626; stroke-width: 1.25"/>
      </g>
     </g>
     <g id="text_23">
      <text style="fill: #262626; font: 11px 'Arial', 'DejaVu Sans', 'Liberation Sans', 'Bitstream Vera Sans', sans-serif; text-anchor: end" x="309.52" y="55.296283" transform="rotate(-0 309.52 55.296283)">0.8</text>
     </g>
    </g>
    <g id="ytick_12">
     <g id="line2d_28">
      <g>
       <use xlink:href="#ma34caca0b1" x="319.02" y="20.591429" style="fill: #262626; stroke: #262626; stroke-width: 1.25"/>
      </g>
     </g>
     <g id="text_24">
      <text style="fill: #262626; font: 11px 'Arial', 'DejaVu Sans', 'Liberation Sans', 'Bitstream Vera Sans', sans-serif; text-anchor: end" x="309.52" y="24.770569" transform="rotate(-0 309.52 24.770569)">1.0</text>
     </g>
    </g>
    <g id="text_25">
     <text style="fill: #262626; font: 12px 'Arial', 'DejaVu Sans', 'Liberation Sans', 'Bitstream Vera Sans', sans-serif; text-anchor: middle" x="285.530937" y="93.09" transform="rotate(-90 285.530937 93.09)">payoff</text>
    </g>
   </g>
   <g id="PathCollection_9">
    <defs>
     <path id="C4_0_406cb9f35e" d="M 0 3.5 
C 0.928211 3.5 1.81853 3.131218 2.474874 2.474874 
C 3.131218 1.81853 3.5 0.928211 3.5 -0 
C 3.5 -0.928211 3.131218 -1.81853 2.474874 -2.474874 
C 1.81853 -3.131218 0.928211 -3.5 0 -3.5 
C -0.928211 -3.5 -1.81853 -3.131218 -2.474874 -2.474874 
C -3.131218 -1.81853 -3.5 -0.928211 -3.5 0 
C -3.5 0.928211 -3.131218 1.81853 -2.474874 2.474874 
C -1.81853 3.131218 -0.928211 3.5 0 3.5 
z
"/>
    </defs>
    <use xlink:href="#C4_0_406cb9f35e" x="353.871193" y="108.468485" style="fill: #a6cee3; fill-opacity: 0.8; stroke: #ffffff; stroke-opacity: 0.8; stroke-width: 0.95"/>
    <use xlink:href="#C4_0_406cb9f35e" x="353.304352" y="120.031255" style="fill: #a6cee3; fill-opacity: 0.8; stroke: #ffffff; stroke-opacity: 0.8; stroke-width: 0.95"/>
    <use xlink:href="#C4_0_406cb9f35e" x="349.777862" y="45.104502" style="fill: #a6cee3; fill-opacity: 0.8; stroke: #ffffff; stroke-opacity: 0.8; stroke-width: 0.95"/>
    <use xlink:href="#C4_0_406cb9f35e" x="354.437199" y="51.579654" style="fill: #a6cee3; fill-opacity: 0.8; stroke: #ffffff; stroke-opacity: 0.8; stroke-width: 0.95"/>
    <use xlink:href="#C4_0_406cb9f35e" x="351.856604" y="79.792814" style="fill: #a6cee3; fill-opacity: 0.8; stroke: #ffffff; stroke-opacity: 0.8; stroke-width: 0.95"/>
    <use xlink:href="#C4_0_406cb9f35e" x="346.16358" y="100.605801" style="fill: #a6cee3; fill-opacity: 0.8; stroke: #ffffff; stroke-opacity: 0.8; stroke-width: 0.95"/>
    <use xlink:href="#C4_0_406cb9f35e" x="354.380377" y="69.617576" style="fill: #a6cee3; fill-opacity: 0.8; stroke: #ffffff; stroke-opacity: 0.8; stroke-width: 0.95"/>
    <use xlink:href="#C4_0_406cb9f35e" x="345.243572" y="67.305022" style="fill: #a6cee3; fill-opacity: 0.8; stroke: #ffffff; stroke-opacity: 0.8; stroke-width: 0.95"/>
    <use xlink:href="#C4_0_406cb9f35e" x="346.357178" y="65.454978" style="fill: #a6cee3; fill-opacity: 0.8; stroke: #ffffff; stroke-opacity: 0.8; stroke-width: 0.95"/>
    <use xlink:href="#C4_0_406cb9f35e" x="347.946131" y="103.380866" style="fill: #a6cee3; fill-opacity: 0.8; stroke: #ffffff; stroke-opacity: 0.8; stroke-width: 0.95"/>
    <use xlink:href="#C4_0_406cb9f35e" x="353.490618" y="173.22" style="fill: #a6cee3; fill-opacity: 0.8; stroke: #ffffff; stroke-opacity: 0.8; stroke-width: 0.95"/>
    <use xlink:href="#C4_0_406cb9f35e" x="347.356369" y="139.45671" style="fill: #a6cee3; fill-opacity: 0.8; stroke: #ffffff; stroke-opacity: 0.8; stroke-width: 0.95"/>
    <use xlink:href="#C4_0_406cb9f35e" x="347.470212" y="25.216537" style="fill: #a6cee3; fill-opacity: 0.8; stroke: #ffffff; stroke-opacity: 0.8; stroke-width: 0.95"/>
    <use xlink:href="#C4_0_406cb9f35e" x="346.55542" y="116.79368" style="fill: #a6cee3; fill-opacity: 0.8; stroke: #ffffff; stroke-opacity: 0.8; stroke-width: 0.95"/>
    <use xlink:href="#C4_0_406cb9f35e" x="352.269679" y="120.956277" style="fill: #a6cee3; fill-opacity: 0.8; stroke: #ffffff; stroke-opacity: 0.8; stroke-width: 0.95"/>
    <use xlink:href="#C4_0_406cb9f35e" x="353.658056" y="51.579654" style="fill: #a6cee3; fill-opacity: 0.8; stroke: #ffffff; stroke-opacity: 0.8; stroke-width: 0.95"/>
   </g>
   <g id="PathCollection_10">
    <defs>
     <path id="C5_0_585dba54a7" d="M 0 3.5 
C 0.928211 3.5 1.81853 3.131218 2.474874 2.474874 
C 3.131218 1.81853 3.5 0.928211 3.5 -0 
C 3.5 -0.928211 3.131218 -1.81853 2.474874 -2.474874 
C 1.81853 -3.131218 0.928211 -3.5 0 -3.5 
C -0.928211 -3.5 -1.81853 -3.131218 -2.474874 -2.474874 
C -3.131218 -1.81853 -3.5 -0.928211 -3.5 0 
C -3.5 0.928211 -3.131218 1.81853 -2.474874 2.474874 
C -1.81853 3.131218 -0.928211 3.5 0 3.5 
z
"/>
    </defs>
    <use xlink:href="#C5_0_585dba54a7" x="395.281654" y="162.582251" style="fill: #1f78b4; fill-opacity: 0.8; stroke: #ffffff; stroke-opacity: 0.8; stroke-width: 0.95"/>
    <use xlink:href="#C5_0_585dba54a7" x="389.344892" y="109.393506" style="fill: #1f78b4; fill-opacity: 0.8; stroke: #ffffff; stroke-opacity: 0.8; stroke-width: 0.95"/>
    <use xlink:href="#C5_0_585dba54a7" x="390.229868" y="57.129784" style="fill: #1f78b4; fill-opacity: 0.8; stroke: #ffffff; stroke-opacity: 0.8; stroke-width: 0.95"/>
    <use xlink:href="#C5_0_585dba54a7" x="389.47987" y="52.504675" style="fill: #1f78b4; fill-opacity: 0.8; stroke: #ffffff; stroke-opacity: 0.8; stroke-width: 0.95"/>
    <use xlink:href="#C5_0_585dba54a7" x="392.873092" y="173.22" style="fill: #1f78b4; fill-opacity: 0.8; stroke: #ffffff; stroke-opacity: 0.8; stroke-width: 0.95"/>
    <use xlink:href="#C5_0_585dba54a7" x="392.768735" y="139.45671" style="fill: #1f78b4; fill-opacity: 0.8; stroke: #ffffff; stroke-opacity: 0.8; stroke-width: 0.95"/>
    <use xlink:href="#C5_0_585dba54a7" x="387.898012" y="164.894805" style="fill: #1f78b4; fill-opacity: 0.8; stroke: #ffffff; stroke-opacity: 0.8; stroke-width: 0.95"/>
    <use xlink:href="#C5_0_585dba54a7" x="396.311256" y="108.005974" style="fill: #1f78b4; fill-opacity: 0.8; stroke: #ffffff; stroke-opacity: 0.8; stroke-width: 0.95"/>
    <use xlink:href="#C5_0_585dba54a7" x="392.207796" y="130.669004" style="fill: #1f78b4; fill-opacity: 0.8; stroke: #ffffff; stroke-opacity: 0.8; stroke-width: 0.95"/>
    <use xlink:href="#C5_0_585dba54a7" x="386.720432" y="83.4929" style="fill: #1f78b4; fill-opacity: 0.8; stroke: #ffffff; stroke-opacity: 0.8; stroke-width: 0.95"/>
    <use xlink:href="#C5_0_585dba54a7" x="388.799062" y="94.130649" style="fill: #1f78b4; fill-opacity: 0.8; stroke: #ffffff; stroke-opacity: 0.8; stroke-width: 0.95"/>
    <use xlink:href="#C5_0_585dba54a7" x="392.120311" y="108.468485" style="fill: #1f78b4; fill-opacity: 0.8; stroke: #ffffff; stroke-opacity: 0.8; stroke-width: 0.95"/>
   </g>
   <g id="PathCollection_11">
    <defs>
     <path id="C6_0_136f689257" d="M 0 3.5 
C 0.928211 3.5 1.81853 3.131218 2.474874 2.474874 
C 3.131218 1.81853 3.5 0.928211 3.5 -0 
C 3.5 -0.928211 3.131218 -1.81853 2.474874 -2.474874 
C 1.81853 -3.131218 0.928211 -3.5 0 -3.5 
C -0.928211 -3.5 -1.81853 -3.131218 -2.474874 -2.474874 
C -3.131218 -1.81853 -3.5 -0.928211 -3.5 0 
C -3.5 0.928211 -3.131218 1.81853 -2.474874 2.474874 
C -1.81853 3.131218 -0.928211 3.5 0 3.5 
z
"/>
    </defs>
    <use xlink:href="#C6_0_136f689257" x="456.702289" y="136.681645" style="fill: #a6cee3; fill-opacity: 0.8; stroke: #ffffff; stroke-opacity: 0.8; stroke-width: 0.95"/>
    <use xlink:href="#C6_0_136f689257" x="454.998883" y="37.704329" style="fill: #a6cee3; fill-opacity: 0.8; stroke: #ffffff; stroke-opacity: 0.8; stroke-width: 0.95"/>
    <use xlink:href="#C6_0_136f689257" x="451.506602" y="104.305887" style="fill: #a6cee3; fill-opacity: 0.8; stroke: #ffffff; stroke-opacity: 0.8; stroke-width: 0.95"/>
    <use xlink:href="#C6_0_136f689257" x="459.137099" y="95.518182" style="fill: #a6cee3; fill-opacity: 0.8; stroke: #ffffff; stroke-opacity: 0.8; stroke-width: 0.95"/>
    <use xlink:href="#C6_0_136f689257" x="455.751057" y="80.717835" style="fill: #a6cee3; fill-opacity: 0.8; stroke: #ffffff; stroke-opacity: 0.8; stroke-width: 0.95"/>
    <use xlink:href="#C6_0_136f689257" x="459.368856" y="114.018615" style="fill: #a6cee3; fill-opacity: 0.8; stroke: #ffffff; stroke-opacity: 0.8; stroke-width: 0.95"/>
    <use xlink:href="#C6_0_136f689257" x="457.710002" y="75.167706" style="fill: #a6cee3; fill-opacity: 0.8; stroke: #ffffff; stroke-opacity: 0.8; stroke-width: 0.95"/>
    <use xlink:href="#C6_0_136f689257" x="455.232988" y="42.791948" style="fill: #a6cee3; fill-opacity: 0.8; stroke: #ffffff; stroke-opacity: 0.8; stroke-width: 0.95"/>
    <use xlink:href="#C6_0_136f689257" x="458.127794" y="25.216537" style="fill: #a6cee3; fill-opacity: 0.8; stroke: #ffffff; stroke-opacity: 0.8; stroke-width: 0.95"/>
    <use xlink:href="#C6_0_136f689257" x="456.566721" y="88.580519" style="fill: #a6cee3; fill-opacity: 0.8; stroke: #ffffff; stroke-opacity: 0.8; stroke-width: 0.95"/>
    <use xlink:href="#C6_0_136f689257" x="450.21509" y="83.03039" style="fill: #a6cee3; fill-opacity: 0.8; stroke: #ffffff; stroke-opacity: 0.8; stroke-width: 0.95"/>
    <use xlink:href="#C6_0_136f689257" x="452.641095" y="68.692554" style="fill: #a6cee3; fill-opacity: 0.8; stroke: #ffffff; stroke-opacity: 0.8; stroke-width: 0.95"/>
    <use xlink:href="#C6_0_136f689257" x="454.564649" y="51.579654" style="fill: #a6cee3; fill-opacity: 0.8; stroke: #ffffff; stroke-opacity: 0.8; stroke-width: 0.95"/>
   </g>
   <g id="PathCollection_12">
    <defs>
     <path id="C7_0_d9c7474b34" d="M 0 3.5 
C 0.928211 3.5 1.81853 3.131218 2.474874 2.474874 
C 3.131218 1.81853 3.5 0.928211 3.5 -0 
C 3.5 -0.928211 3.131218 -1.81853 2.474874 -2.474874 
C 1.81853 -3.131218 0.928211 -3.5 0 -3.5 
C -0.928211 -3.5 -1.81853 -3.131218 -2.474874 -2.474874 
C -3.131218 -1.81853 -3.5 -0.928211 -3.5 0 
C -3.5 0.928211 -3.131218 1.81853 -2.474874 2.474874 
C -1.81853 3.131218 -0.928211 3.5 0 3.5 
z
"/>
    </defs>
    <use xlink:href="#C7_0_d9c7474b34" x="495.609593" y="23.366494" style="fill: #1f78b4; fill-opacity: 0.8; stroke: #ffffff; stroke-opacity: 0.8; stroke-width: 0.95"/>
    <use xlink:href="#C7_0_d9c7474b34" x="492.311901" y="27.991602" style="fill: #1f78b4; fill-opacity: 0.8; stroke: #ffffff; stroke-opacity: 0.8; stroke-width: 0.95"/>
    <use xlink:href="#C7_0_d9c7474b34" x="495.304818" y="20.591429" style="fill: #1f78b4; fill-opacity: 0.8; stroke: #ffffff; stroke-opacity: 0.8; stroke-width: 0.95"/>
    <use xlink:href="#C7_0_d9c7474b34" x="500.523519" y="78.867792" style="fill: #1f78b4; fill-opacity: 0.8; stroke: #ffffff; stroke-opacity: 0.8; stroke-width: 0.95"/>
    <use xlink:href="#C7_0_d9c7474b34" x="499.774468" y="32.61671" style="fill: #1f78b4; fill-opacity: 0.8; stroke: #ffffff; stroke-opacity: 0.8; stroke-width: 0.95"/>
    <use xlink:href="#C7_0_d9c7474b34" x="490.876229" y="77.942771" style="fill: #1f78b4; fill-opacity: 0.8; stroke: #ffffff; stroke-opacity: 0.8; stroke-width: 0.95"/>
    <use xlink:href="#C7_0_d9c7474b34" x="497.6" y="29.379134" style="fill: #1f78b4; fill-opacity: 0.8; stroke: #ffffff; stroke-opacity: 0.8; stroke-width: 0.95"/>
    <use xlink:href="#C7_0_d9c7474b34" x="493.334522" y="51.579654" style="fill: #1f78b4; fill-opacity: 0.8; stroke: #ffffff; stroke-opacity: 0.8; stroke-width: 0.95"/>
    <use xlink:href="#C7_0_d9c7474b34" x="492.916614" y="88.580519" style="fill: #1f78b4; fill-opacity: 0.8; stroke: #ffffff; stroke-opacity: 0.8; stroke-width: 0.95"/>
    <use xlink:href="#C7_0_d9c7474b34" x="499.70968" y="23.829004" style="fill: #1f78b4; fill-opacity: 0.8; stroke: #ffffff; stroke-opacity: 0.8; stroke-width: 0.95"/>
    <use xlink:href="#C7_0_d9c7474b34" x="492.759764" y="41.866926" style="fill: #1f78b4; fill-opacity: 0.8; stroke: #ffffff; stroke-opacity: 0.8; stroke-width: 0.95"/>
    <use xlink:href="#C7_0_d9c7474b34" x="491.392741" y="54.354719" style="fill: #1f78b4; fill-opacity: 0.8; stroke: #ffffff; stroke-opacity: 0.8; stroke-width: 0.95"/>
    <use xlink:href="#C7_0_d9c7474b34" x="497.55313" y="20.591429" style="fill: #1f78b4; fill-opacity: 0.8; stroke: #ffffff; stroke-opacity: 0.8; stroke-width: 0.95"/>
    <use xlink:href="#C7_0_d9c7474b34" x="493.108683" y="45.104502" style="fill: #1f78b4; fill-opacity: 0.8; stroke: #ffffff; stroke-opacity: 0.8; stroke-width: 0.95"/>
    <use xlink:href="#C7_0_d9c7474b34" x="491.000267" y="110.318528" style="fill: #1f78b4; fill-opacity: 0.8; stroke: #ffffff; stroke-opacity: 0.8; stroke-width: 0.95"/>
   </g>
   <g id="PathCollection_13"/>
   <g id="PathCollection_14"/>
   <g id="line2d_29">
    <path d="M 350.223 99.781068 
L 350.223 80.039408 
" clip-path="url(#p9541322ecf)" style="fill: none; stroke: #000000; stroke-width: 1.9; stroke-linecap: round"/>
   </g>
   <g id="line2d_30">
    <path d="M 350.223 99.781068 
L 350.223 99.781068 
" clip-path="url(#p9541322ecf)" style="fill: none; stroke: #000000; stroke-width: 1.9; stroke-linecap: round"/>
   </g>
   <g id="line2d_31">
    <path d="M 350.223 80.039408 
L 350.223 80.039408 
" clip-path="url(#p9541322ecf)" style="fill: none; stroke: #000000; stroke-width: 1.9; stroke-linecap: round"/>
   </g>
   <g id="line2d_32">
    <path d="M 454.233 86.117551 
L 454.233 68.34488 
" clip-path="url(#p9541322ecf)" style="fill: none; stroke: #000000; stroke-width: 1.9; stroke-linecap: round"/>
   </g>
   <g id="line2d_33">
    <path d="M 454.233 86.117551 
L 454.233 86.117551 
" clip-path="url(#p9541322ecf)" style="fill: none; stroke: #000000; stroke-width: 1.9; stroke-linecap: round"/>
   </g>
   <g id="line2d_34">
    <path d="M 454.233 68.34488 
L 454.233 68.34488 
" clip-path="url(#p9541322ecf)" style="fill: none; stroke: #000000; stroke-width: 1.9; stroke-linecap: round"/>
   </g>
   <g id="line2d_35">
    <path d="M 391.827 126.938666 
L 391.827 103.719458 
" clip-path="url(#p9541322ecf)" style="fill: none; stroke: #000000; stroke-width: 1.9; stroke-linecap: round"/>
   </g>
   <g id="line2d_36">
    <path d="M 391.827 126.938666 
L 391.827 126.938666 
" clip-path="url(#p9541322ecf)" style="fill: none; stroke: #000000; stroke-width: 1.9; stroke-linecap: round"/>
   </g>
   <g id="line2d_37">
    <path d="M 391.827 103.719458 
L 391.827 103.719458 
" clip-path="url(#p9541322ecf)" style="fill: none; stroke: #000000; stroke-width: 1.9; stroke-linecap: round"/>
   </g>
   <g id="line2d_38">
    <path d="M 495.837 55.753022 
L 495.837 41.177806 
" clip-path="url(#p9541322ecf)" style="fill: none; stroke: #000000; stroke-width: 1.9; stroke-linecap: round"/>
   </g>
   <g id="line2d_39">
    <path d="M 495.837 55.753022 
L 495.837 55.753022 
" clip-path="url(#p9541322ecf)" style="fill: none; stroke: #000000; stroke-width: 1.9; stroke-linecap: round"/>
   </g>
   <g id="line2d_40">
    <path d="M 495.837 41.177806 
L 495.837 41.177806 
" clip-path="url(#p9541322ecf)" style="fill: none; stroke: #000000; stroke-width: 1.9; stroke-linecap: round"/>
   </g>
   <g id="patch_16">
    <path d="M 319.02 173.22 
L 319.02 20.591429 
" style="fill: none; stroke: #262626; stroke-width: 1.25; stroke-linejoin: miter; stroke-linecap: square"/>
   </g>
   <g id="legend_2"/>
  </g>
 </g>
 <defs>
  <clipPath id="pe2ec1394a3">
   <rect x="55.5" y="12.96" width="208.02" height="160.26"/>
  </clipPath>
  <clipPath id="p9541322ecf">
   <rect x="319.02" y="12.96" width="208.02" height="160.26"/>
  </clipPath>
 </defs>
</svg>
