<?xml version="1.0" encoding="utf-8" standalone="no"?>
<!DOCTYPE svg PUBLIC "-//W3C//DTD SVG 1.1//EN"
  "http://www.w3.org/Graphics/SVG/1.1/DTD/svg11.dtd">
<svg xmlns:xlink="http://www.w3.org/1999/xlink" width="540pt" height="216pt" viewBox="0 0 540 216" xmlns="http://www.w3.org/2000/svg" version="1.1">
 <metadata>
  <rdf:RDF xmlns:dc="http://purl.org/dc/elements/1.1/" xmlns:cc="http://creativecommons.org/ns#" xmlns:rdf="http://www.w3.org/1999/02/22-rdf-syntax-ns#">
   <cc:Work>
    <dc:type rdf:resource="http://purl.org/dc/dcmitype/StillImage"/>
    <dc:date>2023-03-16T19:41:29.968749</dc:date>
    <dc:format>image/svg+xml</dc:format>
    <dc:creator>
     <cc:Agent>
      <dc:title>Matplotlib v3.7.0, https://matplotlib.org/</dc:title>
     </cc:Agent>
    </dc:creator>
   </cc:Work>
  </rdf:RDF>
 </metadata>
 <defs>
  <style type="text/css">*{stroke-linejoin: round; stroke-linecap: butt}</style>
 </defs>
 <g id="figure_1">
  <g id="patch_1">
   <path d="M 0 216 
L 540 216 
L 540 0 
L 0 0 
z
" style="fill: #ffffff"/>
  </g>
  <g id="axes_1">
   <g id="patch_2">
    <path d="M 55.5 173.22 
L 263.52 173.22 
L 263.52 12.96 
L 55.5 12.96 
z
" style="fill: #ffffff"/>
   </g>
   <g id="patch_3">
    <path d="M 65.901 173.22 
L 107.505 173.22 
L 107.505 103.921273 
L 65.901 103.921273 
z
" clip-path="url(#p43dd41d034)" style="fill: #aeccdb; opacity: 0.5; stroke: #ffffff; stroke-linejoin: miter"/>
   </g>
   <g id="patch_4">
    <path d="M 169.911 173.22 
L 211.515 173.22 
L 211.515 41.477444 
L 169.911 41.477444 
z
" clip-path="url(#p43dd41d034)" style="fill: #aeccdb; opacity: 0.5; stroke: #ffffff; stroke-linejoin: miter"/>
   </g>
   <g id="patch_5">
    <path d="M 107.505 173.22 
L 149.109 173.22 
L 149.109 56.663795 
L 107.505 56.663795 
z
" clip-path="url(#p43dd41d034)" style="fill: #3274a1; opacity: 0.5; stroke: #ffffff; stroke-linejoin: miter"/>
   </g>
   <g id="patch_6">
    <path d="M 211.515 173.22 
L 253.119 173.22 
L 253.119 34.568992 
L 211.515 34.568992 
z
" clip-path="url(#p43dd41d034)" style="fill: #3274a1; opacity: 0.5; stroke: #ffffff; stroke-linejoin: miter"/>
   </g>
   <g id="matplotlib.axis_1">
    <g id="xtick_1">
     <g id="line2d_1"/>
     <g id="text_1">
      <text style="fill: #262626; font: 11px 'Arial', 'DejaVu Sans', 'Liberation Sans', 'Bitstream Vera Sans', sans-serif; text-anchor: middle" x="107.505" y="185.078281" transform="rotate(-0 107.505 185.078281)">1.5</text>
     </g>
    </g>
    <g id="xtick_2">
     <g id="line2d_2"/>
     <g id="text_2">
      <text style="fill: #262626; font: 11px 'Arial', 'DejaVu Sans', 'Liberation Sans', 'Bitstream Vera Sans', sans-serif; text-anchor: middle" x="211.515" y="185.078281" transform="rotate(-0 211.515 185.078281)">2.5</text>
     </g>
    </g>
    <g id="text_3">
     <text style="fill: #262626; font: 12px 'Arial', 'DejaVu Sans', 'Liberation Sans', 'Bitstream Vera Sans', sans-serif; text-anchor: middle" x="159.51" y="200.484062" transform="rotate(-0 159.51 200.484062)">multiplier</text>
    </g>
   </g>
   <g id="matplotlib.axis_2">
    <g id="ytick_1">
     <g id="line2d_3">
      <defs>
       <path id="ma6cc571b28" d="M 0 0 
L -6 0 
" style="stroke: #262626; stroke-width: 1.25"/>
      </defs>
      <g>
       <use xlink:href="#ma6cc571b28" x="55.5" y="173.22" style="fill: #262626; stroke: #262626; stroke-width: 1.25"/>
      </g>
     </g>
     <g id="text_4">
      <text style="fill: #262626; font: 11px 'Arial', 'DejaVu Sans', 'Liberation Sans', 'Bitstream Vera Sans', sans-serif; text-anchor: end" x="46" y="177.399141" transform="rotate(-0 46 177.399141)">0.0</text>
     </g>
    </g>
    <g id="ytick_2">
     <g id="line2d_4">
      <g>
       <use xlink:href="#ma6cc571b28" x="55.5" y="142.694286" style="fill: #262626; stroke: #262626; stroke-width: 1.25"/>
      </g>
     </g>
     <g id="text_5">
      <text style="fill: #262626; font: 11px 'Arial', 'DejaVu Sans', 'Liberation Sans', 'Bitstream Vera Sans', sans-serif; text-anchor: end" x="46" y="146.873426" transform="rotate(-0 46 146.873426)">0.2</text>
     </g>
    </g>
    <g id="ytick_3">
     <g id="line2d_5">
      <g>
       <use xlink:href="#ma6cc571b28" x="55.5" y="112.168571" style="fill: #262626; stroke: #262626; stroke-width: 1.25"/>
      </g>
     </g>
     <g id="text_6">
      <text style="fill: #262626; font: 11px 'Arial', 'DejaVu Sans', 'Liberation Sans', 'Bitstream Vera Sans', sans-serif; text-anchor: end" x="46" y="116.347712" transform="rotate(-0 46 116.347712)">0.4</text>
     </g>
    </g>
    <g id="ytick_4">
     <g id="line2d_6">
      <g>
       <use xlink:href="#ma6cc571b28" x="55.5" y="81.642857" style="fill: #262626; stroke: #262626; stroke-width: 1.25"/>
      </g>
     </g>
     <g id="text_7">
      <text style="fill: #262626; font: 11px 'Arial', 'DejaVu Sans', 'Liberation Sans', 'Bitstream Vera Sans', sans-serif; text-anchor: end" x="46" y="85.821998" transform="rotate(-0 46 85.821998)">0.6</text>
     </g>
    </g>
    <g id="ytick_5">
     <g id="line2d_7">
      <g>
       <use xlink:href="#ma6cc571b28" x="55.5" y="51.117143" style="fill: #262626; stroke: #262626; stroke-width: 1.25"/>
      </g>
     </g>
     <g id="text_8">
      <text style="fill: #262626; font: 11px 'Arial', 'DejaVu Sans', 'Liberation Sans', 'Bitstream Vera Sans', sans-serif; text-anchor: end" x="46" y="55.296283" transform="rotate(-0 46 55.296283)">0.8</text>
     </g>
    </g>
    <g id="ytick_6">
     <g id="line2d_8">
      <g>
       <use xlink:href="#ma6cc571b28" x="55.5" y="20.591429" style="fill: #262626; stroke: #262626; stroke-width: 1.25"/>
      </g>
     </g>
     <g id="text_9">
      <text style="fill: #262626; font: 11px 'Arial', 'DejaVu Sans', 'Liberation Sans', 'Bitstream Vera Sans', sans-serif; text-anchor: end" x="46" y="24.770569" transform="rotate(-0 46 24.770569)">1.0</text>
     </g>
    </g>
    <g id="text_10">
     <text style="fill: #262626; font: 12px 'Arial', 'DejaVu Sans', 'Liberation Sans', 'Bitstream Vera Sans', sans-serif; text-anchor: middle" x="22.010938" y="93.09" transform="rotate(-90 22.010938 93.09)">contribution</text>
    </g>
   </g>
   <g id="PathCollection_1">
    <defs>
     <path id="C0_0_ffc1c663ff" d="M 0 3.5 
C 0.928211 3.5 1.81853 3.131218 2.474874 2.474874 
C 3.131218 1.81853 3.5 0.928211 3.5 -0 
C 3.5 -0.928211 3.131218 -1.81853 2.474874 -2.474874 
C 1.81853 -3.131218 0.928211 -3.5 0 -3.5 
C -0.928211 -3.5 -1.81853 -3.131218 -2.474874 -2.474874 
C -3.131218 -1.81853 -3.5 -0.928211 -3.5 0 
C -3.5 0.928211 -3.131218 1.81853 -2.474874 2.474874 
C -1.81853 3.131218 -0.928211 3.5 0 3.5 
z
"/>
    </defs>
    <use xlink:href="#C0_0_ffc1c663ff" x="83.94442" y="118.327268" style="fill: #a6cee3; fill-opacity: 0.8; stroke: #ffffff; stroke-opacity: 0.8; stroke-width: 0.95"/>
    <use xlink:href="#C0_0_ffc1c663ff" x="90.788243" y="91.550326" style="fill: #a6cee3; fill-opacity: 0.8; stroke: #ffffff; stroke-opacity: 0.8; stroke-width: 0.95"/>
    <use xlink:href="#C0_0_ffc1c663ff" x="84.362678" y="142.158747" style="fill: #a6cee3; fill-opacity: 0.8; stroke: #ffffff; stroke-opacity: 0.8; stroke-width: 0.95"/>
    <use xlink:href="#C0_0_ffc1c663ff" x="87.990686" y="114.578496" style="fill: #a6cee3; fill-opacity: 0.8; stroke: #ffffff; stroke-opacity: 0.8; stroke-width: 0.95"/>
    <use xlink:href="#C0_0_ffc1c663ff" x="88.814833" y="52.991529" style="fill: #a6cee3; fill-opacity: 0.8; stroke: #ffffff; stroke-opacity: 0.8; stroke-width: 0.95"/>
   </g>
   <g id="PathCollection_2">
    <defs>
     <path id="C1_0_e90ce3f07f" d="M 0 3.5 
C 0.928211 3.5 1.81853 3.131218 2.474874 2.474874 
C 3.131218 1.81853 3.5 0.928211 3.5 -0 
C 3.5 -0.928211 3.131218 -1.81853 2.474874 -2.474874 
C 1.81853 -3.131218 0.928211 -3.5 0 -3.5 
C -0.928211 -3.5 -1.81853 -3.131218 -2.474874 -2.474874 
C -3.131218 -1.81853 -3.5 -0.928211 -3.5 0 
C -3.5 0.928211 -3.131218 1.81853 -2.474874 2.474874 
C -1.81853 3.131218 -0.928211 3.5 0 3.5 
z
"/>
    </defs>
    <use xlink:href="#C1_0_e90ce3f07f" x="132.932699" y="28.624511" style="fill: #1f78b4; fill-opacity: 0.8; stroke: #ffffff; stroke-opacity: 0.8; stroke-width: 0.95"/>
    <use xlink:href="#C1_0_e90ce3f07f" x="123.598154" y="102.796642" style="fill: #1f78b4; fill-opacity: 0.8; stroke: #ffffff; stroke-opacity: 0.8; stroke-width: 0.95"/>
    <use xlink:href="#C1_0_e90ce3f07f" x="132.376119" y="20.591429" style="fill: #1f78b4; fill-opacity: 0.8; stroke: #ffffff; stroke-opacity: 0.8; stroke-width: 0.95"/>
    <use xlink:href="#C1_0_e90ce3f07f" x="131.898346" y="52.188221" style="fill: #1f78b4; fill-opacity: 0.8; stroke: #ffffff; stroke-opacity: 0.8; stroke-width: 0.95"/>
    <use xlink:href="#C1_0_e90ce3f07f" x="132.257752" y="38.799749" style="fill: #1f78b4; fill-opacity: 0.8; stroke: #ffffff; stroke-opacity: 0.8; stroke-width: 0.95"/>
    <use xlink:href="#C1_0_e90ce3f07f" x="130.515955" y="117.52396" style="fill: #1f78b4; fill-opacity: 0.8; stroke: #ffffff; stroke-opacity: 0.8; stroke-width: 0.95"/>
    <use xlink:href="#C1_0_e90ce3f07f" x="132.68542" y="36.122055" style="fill: #1f78b4; fill-opacity: 0.8; stroke: #ffffff; stroke-opacity: 0.8; stroke-width: 0.95"/>
   </g>
   <g id="PathCollection_3">
    <defs>
     <path id="C2_0_d083f91b42" d="M 0 3.5 
C 0.928211 3.5 1.81853 3.131218 2.474874 2.474874 
C 3.131218 1.81853 3.5 0.928211 3.5 -0 
C 3.5 -0.928211 3.131218 -1.81853 2.474874 -2.474874 
C 1.81853 -3.131218 0.928211 -3.5 0 -3.5 
C -0.928211 -3.5 -1.81853 -3.131218 -2.474874 -2.474874 
C -3.131218 -1.81853 -3.5 -0.928211 -3.5 0 
C -3.5 0.928211 -3.131218 1.81853 -2.474874 2.474874 
C -1.81853 3.131218 -0.928211 3.5 0 3.5 
z
"/>
    </defs>
    <use xlink:href="#C2_0_d083f91b42" x="185.900811" y="29.42782" style="fill: #a6cee3; fill-opacity: 0.8; stroke: #ffffff; stroke-opacity: 0.8; stroke-width: 0.95"/>
    <use xlink:href="#C2_0_d083f91b42" x="190.803663" y="28.356742" style="fill: #a6cee3; fill-opacity: 0.8; stroke: #ffffff; stroke-opacity: 0.8; stroke-width: 0.95"/>
    <use xlink:href="#C2_0_d083f91b42" x="192.123528" y="24.60797" style="fill: #a6cee3; fill-opacity: 0.8; stroke: #ffffff; stroke-opacity: 0.8; stroke-width: 0.95"/>
    <use xlink:href="#C2_0_d083f91b42" x="186.434353" y="32.908822" style="fill: #a6cee3; fill-opacity: 0.8; stroke: #ffffff; stroke-opacity: 0.8; stroke-width: 0.95"/>
    <use xlink:href="#C2_0_d083f91b42" x="190.083795" y="47.63614" style="fill: #a6cee3; fill-opacity: 0.8; stroke: #ffffff; stroke-opacity: 0.8; stroke-width: 0.95"/>
    <use xlink:href="#C2_0_d083f91b42" x="187.945311" y="63.434536" style="fill: #a6cee3; fill-opacity: 0.8; stroke: #ffffff; stroke-opacity: 0.8; stroke-width: 0.95"/>
    <use xlink:href="#C2_0_d083f91b42" x="189.158026" y="63.970075" style="fill: #a6cee3; fill-opacity: 0.8; stroke: #ffffff; stroke-opacity: 0.8; stroke-width: 0.95"/>
   </g>
   <g id="PathCollection_4">
    <defs>
     <path id="C3_0_cdd2381f5f" d="M 0 3.5 
C 0.928211 3.5 1.81853 3.131218 2.474874 2.474874 
C 3.131218 1.81853 3.5 0.928211 3.5 -0 
C 3.5 -0.928211 3.131218 -1.81853 2.474874 -2.474874 
C 1.81853 -3.131218 0.928211 -3.5 0 -3.5 
C -0.928211 -3.5 -1.81853 -3.131218 -2.474874 -2.474874 
C -3.131218 -1.81853 -3.5 -0.928211 -3.5 0 
C -3.5 0.928211 -3.131218 1.81853 -2.474874 2.474874 
C -1.81853 3.131218 -0.928211 3.5 0 3.5 
z
"/>
    </defs>
    <use xlink:href="#C3_0_cdd2381f5f" x="233.620509" y="20.591429" style="fill: #1f78b4; fill-opacity: 0.8; stroke: #ffffff; stroke-opacity: 0.8; stroke-width: 0.95"/>
    <use xlink:href="#C3_0_cdd2381f5f" x="228.138854" y="20.591429" style="fill: #1f78b4; fill-opacity: 0.8; stroke: #ffffff; stroke-opacity: 0.8; stroke-width: 0.95"/>
    <use xlink:href="#C3_0_cdd2381f5f" x="236.035891" y="20.591429" style="fill: #1f78b4; fill-opacity: 0.8; stroke: #ffffff; stroke-opacity: 0.8; stroke-width: 0.95"/>
    <use xlink:href="#C3_0_cdd2381f5f" x="231.914685" y="81.642857" style="fill: #1f78b4; fill-opacity: 0.8; stroke: #ffffff; stroke-opacity: 0.8; stroke-width: 0.95"/>
    <use xlink:href="#C3_0_cdd2381f5f" x="233.970542" y="29.42782" style="fill: #1f78b4; fill-opacity: 0.8; stroke: #ffffff; stroke-opacity: 0.8; stroke-width: 0.95"/>
   </g>
   <g id="PathCollection_5"/>
   <g id="PathCollection_6"/>
   <g id="line2d_9">
    <path d="M 86.703 118.971344 
L 86.703 88.871202 
" clip-path="url(#p43dd41d034)" style="fill: none; stroke: #000000; stroke-width: 1.9; stroke-linecap: round"/>
   </g>
   <g id="line2d_10">
    <path d="M 86.703 118.971344 
L 86.703 118.971344 
" clip-path="url(#p43dd41d034)" style="fill: none; stroke: #000000; stroke-width: 1.9; stroke-linecap: round"/>
   </g>
   <g id="line2d_11">
    <path d="M 86.703 88.871202 
L 86.703 88.871202 
" clip-path="url(#p43dd41d034)" style="fill: none; stroke: #000000; stroke-width: 1.9; stroke-linecap: round"/>
   </g>
   <g id="line2d_12">
    <path d="M 190.713 47.841982 
L 190.713 35.112905 
" clip-path="url(#p43dd41d034)" style="fill: none; stroke: #000000; stroke-width: 1.9; stroke-linecap: round"/>
   </g>
   <g id="line2d_13">
    <path d="M 190.713 47.841982 
L 190.713 47.841982 
" clip-path="url(#p43dd41d034)" style="fill: none; stroke: #000000; stroke-width: 1.9; stroke-linecap: round"/>
   </g>
   <g id="line2d_14">
    <path d="M 190.713 35.112905 
L 190.713 35.112905 
" clip-path="url(#p43dd41d034)" style="fill: none; stroke: #000000; stroke-width: 1.9; stroke-linecap: round"/>
   </g>
   <g id="line2d_15">
    <path d="M 128.307 71.040309 
L 128.307 42.287281 
" clip-path="url(#p43dd41d034)" style="fill: none; stroke: #000000; stroke-width: 1.9; stroke-linecap: round"/>
   </g>
   <g id="line2d_16">
    <path d="M 128.307 71.040309 
L 128.307 71.040309 
" clip-path="url(#p43dd41d034)" style="fill: none; stroke: #000000; stroke-width: 1.9; stroke-linecap: round"/>
   </g>
   <g id="line2d_17">
    <path d="M 128.307 42.287281 
L 128.307 42.287281 
" clip-path="url(#p43dd41d034)" style="fill: none; stroke: #000000; stroke-width: 1.9; stroke-linecap: round"/>
   </g>
   <g id="line2d_18">
    <path d="M 232.317 46.461211 
L 232.317 22.676774 
" clip-path="url(#p43dd41d034)" style="fill: none; stroke: #000000; stroke-width: 1.9; stroke-linecap: round"/>
   </g>
   <g id="line2d_19">
    <path d="M 232.317 46.461211 
L 232.317 46.461211 
" clip-path="url(#p43dd41d034)" style="fill: none; stroke: #000000; stroke-width: 1.9; stroke-linecap: round"/>
   </g>
   <g id="line2d_20">
    <path d="M 232.317 22.676774 
L 232.317 22.676774 
" clip-path="url(#p43dd41d034)" style="fill: none; stroke: #000000; stroke-width: 1.9; stroke-linecap: round"/>
   </g>
   <g id="patch_7">
    <path d="M 55.5 173.22 
L 55.5 20.591429 
" style="fill: none; stroke: #262626; stroke-width: 1.25; stroke-linejoin: miter; stroke-linecap: square"/>
   </g>
   <g id="legend_1">
    <g id="patch_8">
     <path d="M 147.353125 167.72 
L 255.82 167.72 
Q 258.02 167.72 258.02 165.52 
L 258.02 84.58875 
Q 258.02 82.38875 255.82 82.38875 
L 147.353125 82.38875 
Q 145.153125 82.38875 145.153125 84.58875 
L 145.153125 165.52 
Q 145.153125 167.72 147.353125 167.72 
z
" style="fill: #ffffff; opacity: 0.8; stroke: #cccccc; stroke-linejoin: miter"/>
    </g>
    <g id="text_11">
     <text style="fill: #262626; font: 12px 'Arial', 'DejaVu Sans', 'Liberation Sans', 'Bitstream Vera Sans', sans-serif; text-anchor: start" x="158.659375" y="95.906875" transform="rotate(-0 158.659375 95.906875)">discloser_type</text>
    </g>
    <g id="PathCollection_7">
     <defs>
      <path id="m19cdbd6615" d="M 0 3 
C 0.795609 3 1.55874 2.683901 2.12132 2.12132 
C 2.683901 1.55874 3 0.795609 3 0 
C 3 -0.795609 2.683901 -1.55874 2.12132 -2.12132 
C 1.55874 -2.683901 0.795609 -3 0 -3 
C -0.795609 -3 -1.55874 -2.683901 -2.12132 -2.12132 
C -2.683901 -1.55874 -3 -0.795609 -3 0 
C -3 0.795609 -2.683901 1.55874 -2.12132 2.12132 
C -1.55874 2.683901 -0.795609 3 0 3 
z
" style="stroke: #a6cee3"/>
     </defs>
     <g>
      <use xlink:href="#m19cdbd6615" x="160.553125" y="109.707031" style="fill: #a6cee3; stroke: #a6cee3"/>
     </g>
    </g>
    <g id="text_12">
     <text style="fill: #262626; font: 11px 'Arial', 'DejaVu Sans', 'Liberation Sans', 'Bitstream Vera Sans', sans-serif; text-anchor: start" x="180.353125" y="112.594531" transform="rotate(-0 180.353125 112.594531)">non-discloser</text>
    </g>
    <g id="PathCollection_8">
     <defs>
      <path id="m9dddfbd26d" d="M 0 3 
C 0.795609 3 1.55874 2.683901 2.12132 2.12132 
C 2.683901 1.55874 3 0.795609 3 0 
C 3 -0.795609 2.683901 -1.55874 2.12132 -2.12132 
C 1.55874 -2.683901 0.795609 -3 0 -3 
C -0.795609 -3 -1.55874 -2.683901 -2.12132 -2.12132 
C -2.683901 -1.55874 -3 -0.795609 -3 0 
C -3 0.795609 -2.683901 1.55874 -2.12132 2.12132 
C -1.55874 2.683901 -0.795609 3 0 3 
z
" style="stroke: #1f78b4"/>
     </defs>
     <g>
      <use xlink:href="#m9dddfbd26d" x="160.553125" y="125.852969" style="fill: #1f78b4; stroke: #1f78b4"/>
     </g>
    </g>
    <g id="text_13">
     <text style="fill: #262626; font: 11px 'Arial', 'DejaVu Sans', 'Liberation Sans', 'Bitstream Vera Sans', sans-serif; text-anchor: start" x="180.353125" y="128.740469" transform="rotate(-0 180.353125 128.740469)">discloser</text>
    </g>
    <g id="patch_9">
     <path d="M 149.553125 144.886406 
L 171.553125 144.886406 
L 171.553125 137.186406 
L 149.553125 137.186406 
z
" style="fill: #aeccdb; opacity: 0.5; stroke: #ffffff; stroke-linejoin: miter"/>
    </g>
    <g id="text_14">
     <text style="fill: #262626; font: 11px 'Arial', 'DejaVu Sans', 'Liberation Sans', 'Bitstream Vera Sans', sans-serif; text-anchor: start" x="180.353125" y="144.886406" transform="rotate(-0 180.353125 144.886406)">non-discloser</text>
    </g>
    <g id="patch_10">
     <path d="M 149.553125 161.032344 
L 171.553125 161.032344 
L 171.553125 153.332344 
L 149.553125 153.332344 
z
" style="fill: #3274a1; opacity: 0.5; stroke: #ffffff; stroke-linejoin: miter"/>
    </g>
    <g id="text_15">
     <text style="fill: #262626; font: 11px 'Arial', 'DejaVu Sans', 'Liberation Sans', 'Bitstream Vera Sans', sans-serif; text-anchor: start" x="180.353125" y="161.032344" transform="rotate(-0 180.353125 161.032344)">discloser</text>
    </g>
   </g>
  </g>
  <g id="axes_2">
   <g id="patch_11">
    <path d="M 319.02 173.22 
L 527.04 173.22 
L 527.04 12.96 
L 319.02 12.96 
z
" style="fill: #ffffff"/>
   </g>
   <g id="patch_12">
    <path d="M 329.421 173.22 
L 371.025 173.22 
L 371.025 130.242841 
L 329.421 130.242841 
z
" clip-path="url(#pac791ed2db)" style="fill: #aeccdb; opacity: 0.5; stroke: #ffffff; stroke-linejoin: miter"/>
   </g>
   <g id="patch_13">
    <path d="M 433.431 173.22 
L 475.035 173.22 
L 475.035 65.142471 
L 433.431 65.142471 
z
" clip-path="url(#pac791ed2db)" style="fill: #aeccdb; opacity: 0.5; stroke: #ffffff; stroke-linejoin: miter"/>
   </g>
   <g id="patch_14">
    <path d="M 371.025 173.22 
L 412.629 173.22 
L 412.629 134.480357 
L 371.025 134.480357 
z
" clip-path="url(#pac791ed2db)" style="fill: #3274a1; opacity: 0.5; stroke: #ffffff; stroke-linejoin: miter"/>
   </g>
   <g id="patch_15">
    <path d="M 475.035 173.22 
L 516.639 173.22 
L 516.639 53.934901 
L 475.035 53.934901 
z
" clip-path="url(#pac791ed2db)" style="fill: #3274a1; opacity: 0.5; stroke: #ffffff; stroke-linejoin: miter"/>
   </g>
   <g id="matplotlib.axis_3">
    <g id="xtick_3">
     <g id="line2d_21"/>
     <g id="text_16">
      <text style="fill: #262626; font: 11px 'Arial', 'DejaVu Sans', 'Liberation Sans', 'Bitstream Vera Sans', sans-serif; text-anchor: middle" x="371.025" y="185.078281" transform="rotate(-0 371.025 185.078281)">1.5</text>
     </g>
    </g>
    <g id="xtick_4">
     <g id="line2d_22"/>
     <g id="text_17">
      <text style="fill: #262626; font: 11px 'Arial', 'DejaVu Sans', 'Liberation Sans', 'Bitstream Vera Sans', sans-serif; text-anchor: middle" x="475.035" y="185.078281" transform="rotate(-0 475.035 185.078281)">2.5</text>
     </g>
    </g>
    <g id="text_18">
     <text style="fill: #262626; font: 12px 'Arial', 'DejaVu Sans', 'Liberation Sans', 'Bitstream Vera Sans', sans-serif; text-anchor: middle" x="423.03" y="200.484062" transform="rotate(-0 423.03 200.484062)">multiplier</text>
    </g>
   </g>
   <g id="matplotlib.axis_4">
    <g id="ytick_7">
     <g id="line2d_23">
      <g>
       <use xlink:href="#ma6cc571b28" x="319.02" y="173.22" style="fill: #262626; stroke: #262626; stroke-width: 1.25"/>
      </g>
     </g>
     <g id="text_19">
      <text style="fill: #262626; font: 11px 'Arial', 'DejaVu Sans', 'Liberation Sans', 'Bitstream Vera Sans', sans-serif; text-anchor: end" x="309.52" y="177.399141" transform="rotate(-0 309.52 177.399141)">0.0</text>
     </g>
    </g>
    <g id="ytick_8">
     <g id="line2d_24">
      <g>
       <use xlink:href="#ma6cc571b28" x="319.02" y="142.694286" style="fill: #262626; stroke: #262626; stroke-width: 1.25"/>
      </g>
     </g>
     <g id="text_20">
      <text style="fill: #262626; font: 11px 'Arial', 'DejaVu Sans', 'Liberation Sans', 'Bitstream Vera Sans', sans-serif; text-anchor: end" x="309.52" y="146.873426" transform="rotate(-0 309.52 146.873426)">0.2</text>
     </g>
    </g>
    <g id="ytick_9">
     <g id="line2d_25">
      <g>
       <use xlink:href="#ma6cc571b28" x="319.02" y="112.168571" style="fill: #262626; stroke: #262626; stroke-width: 1.25"/>
      </g>
     </g>
     <g id="text_21">
      <text style="fill: #262626; font: 11px 'Arial', 'DejaVu Sans', 'Liberation Sans', 'Bitstream Vera Sans', sans-serif; text-anchor: end" x="309.52" y="116.347712" transform="rotate(-0 309.52 116.347712)">0.4</text>
     </g>
    </g>
    <g id="ytick_10">
     <g id="line2d_26">
      <g>
       <use xlink:href="#ma6cc571b28" x="319.02" y="81.642857" style="fill: #262626; stroke: #262626; stroke-width: 1.25"/>
      </g>
     </g>
     <g id="text_22">
      <text style="fill: #262626; font: 11px 'Arial', 'DejaVu Sans', 'Liberation Sans', 'Bitstream Vera Sans', sans-serif; text-anchor: end" x="309.52" y="85.821998" transform="rotate(-0 309.52 85.821998)">0.6</text>
     </g>
    </g>
    <g id="ytick_11">
     <g id="line2d_27">
      <g>
       <use xlink:href="#ma6cc571b28" x="319.02" y="51.117143" style="fill: #262626; stroke: #262626; stroke-width: 1.25"/>
      </g>
     </g>
     <g id="text_23">
      <text style="fill: #262626; font: 11px 'Arial', 'DejaVu Sans', 'Liberation Sans', 'Bitstream Vera Sans', sans-serif; text-anchor: end" x="309.52" y="55.296283" transform="rotate(-0 309.52 55.296283)">0.8</text>
     </g>
    </g>
    <g id="ytick_12">
     <g id="line2d_28">
      <g>
       <use xlink:href="#ma6cc571b28" x="319.02" y="20.591429" style="fill: #262626; stroke: #262626; stroke-width: 1.25"/>
      </g>
     </g>
     <g id="text_24">
      <text style="fill: #262626; font: 11px 'Arial', 'DejaVu Sans', 'Liberation Sans', 'Bitstream Vera Sans', sans-serif; text-anchor: end" x="309.52" y="24.770569" transform="rotate(-0 309.52 24.770569)">1.0</text>
     </g>
    </g>
    <g id="text_25">
     <text style="fill: #262626; font: 12px 'Arial', 'DejaVu Sans', 'Liberation Sans', 'Bitstream Vera Sans', sans-serif; text-anchor: middle" x="285.530937" y="93.09" transform="rotate(-90 285.530937 93.09)">payoff</text>
    </g>
   </g>
   <g id="PathCollection_9">
    <defs>
     <path id="C4_0_2d7f83b879" d="M 0 3.5 
C 0.928211 3.5 1.81853 3.131218 2.474874 2.474874 
C 3.131218 1.81853 3.5 0.928211 3.5 -0 
C 3.5 -0.928211 3.131218 -1.81853 2.474874 -2.474874 
C 1.81853 -3.131218 0.928211 -3.5 0 -3.5 
C -0.928211 -3.5 -1.81853 -3.131218 -2.474874 -2.474874 
C -3.131218 -1.81853 -3.5 -0.928211 -3.5 0 
C -3.5 0.928211 -3.131218 1.81853 -2.474874 2.474874 
C -1.81853 3.131218 -0.928211 3.5 0 3.5 
z
"/>
    </defs>
    <use xlink:href="#C4_0_2d7f83b879" x="352.535591" y="173.22" style="fill: #a6cee3; fill-opacity: 0.8; stroke: #ffffff; stroke-opacity: 0.8; stroke-width: 0.95"/>
    <use xlink:href="#C4_0_2d7f83b879" x="348.883875" y="114.072462" style="fill: #a6cee3; fill-opacity: 0.8; stroke: #ffffff; stroke-opacity: 0.8; stroke-width: 0.95"/>
    <use xlink:href="#C4_0_2d7f83b879" x="351.586359" y="126.320826" style="fill: #a6cee3; fill-opacity: 0.8; stroke: #ffffff; stroke-opacity: 0.8; stroke-width: 0.95"/>
    <use xlink:href="#C4_0_2d7f83b879" x="347.259888" y="91.733478" style="fill: #a6cee3; fill-opacity: 0.8; stroke: #ffffff; stroke-opacity: 0.8; stroke-width: 0.95"/>
    <use xlink:href="#C4_0_2d7f83b879" x="346.258046" y="145.867437" style="fill: #a6cee3; fill-opacity: 0.8; stroke: #ffffff; stroke-opacity: 0.8; stroke-width: 0.95"/>
   </g>
   <g id="PathCollection_10">
    <defs>
     <path id="C5_0_89b2c8261e" d="M 0 3.5 
C 0.928211 3.5 1.81853 3.131218 2.474874 2.474874 
C 3.131218 1.81853 3.5 0.928211 3.5 -0 
C 3.5 -0.928211 3.131218 -1.81853 2.474874 -2.474874 
C 1.81853 -3.131218 0.928211 -3.5 0 -3.5 
C -0.928211 -3.5 -1.81853 -3.131218 -2.474874 -2.474874 
C -3.131218 -1.81853 -3.5 -0.928211 -3.5 0 
C -3.5 0.928211 -3.131218 1.81853 -2.474874 2.474874 
C -1.81853 3.131218 -0.928211 3.5 0 3.5 
z
"/>
    </defs>
    <use xlink:href="#C5_0_89b2c8261e" x="387.775479" y="142.123119" style="fill: #1f78b4; fill-opacity: 0.8; stroke: #ffffff; stroke-opacity: 0.8; stroke-width: 0.95"/>
    <use xlink:href="#C5_0_89b2c8261e" x="394.055893" y="93.573906" style="fill: #1f78b4; fill-opacity: 0.8; stroke: #ffffff; stroke-opacity: 0.8; stroke-width: 0.95"/>
    <use xlink:href="#C5_0_89b2c8261e" x="388.373498" y="148.977125" style="fill: #1f78b4; fill-opacity: 0.8; stroke: #ffffff; stroke-opacity: 0.8; stroke-width: 0.95"/>
    <use xlink:href="#C5_0_89b2c8261e" x="395.033268" y="152.150276" style="fill: #1f78b4; fill-opacity: 0.8; stroke: #ffffff; stroke-opacity: 0.8; stroke-width: 0.95"/>
    <use xlink:href="#C5_0_89b2c8261e" x="397.012551" y="159.892765" style="fill: #1f78b4; fill-opacity: 0.8; stroke: #ffffff; stroke-opacity: 0.8; stroke-width: 0.95"/>
    <use xlink:href="#C5_0_89b2c8261e" x="395.663544" y="77.962002" style="fill: #1f78b4; fill-opacity: 0.8; stroke: #ffffff; stroke-opacity: 0.8; stroke-width: 0.95"/>
    <use xlink:href="#C5_0_89b2c8261e" x="387.705312" y="166.683309" style="fill: #1f78b4; fill-opacity: 0.8; stroke: #ffffff; stroke-opacity: 0.8; stroke-width: 0.95"/>
   </g>
   <g id="PathCollection_11">
    <defs>
     <path id="C6_0_a12cdc1ae0" d="M 0 3.5 
C 0.928211 3.5 1.81853 3.131218 2.474874 2.474874 
C 3.131218 1.81853 3.5 0.928211 3.5 -0 
C 3.5 -0.928211 3.131218 -1.81853 2.474874 -2.474874 
C 1.81853 -3.131218 0.928211 -3.5 0 -3.5 
C -0.928211 -3.5 -1.81853 -3.131218 -2.474874 -2.474874 
C -3.131218 -1.81853 -3.5 -0.928211 -3.5 0 
C -3.5 0.928211 -3.131218 1.81853 -2.474874 2.474874 
C -1.81853 3.131218 -0.928211 3.5 0 3.5 
z
"/>
    </defs>
    <use xlink:href="#C6_0_a12cdc1ae0" x="452.858464" y="60.255818" style="fill: #a6cee3; fill-opacity: 0.8; stroke: #ffffff; stroke-opacity: 0.8; stroke-width: 0.95"/>
    <use xlink:href="#C6_0_a12cdc1ae0" x="458.957442" y="59.050021" style="fill: #a6cee3; fill-opacity: 0.8; stroke: #ffffff; stroke-opacity: 0.8; stroke-width: 0.95"/>
    <use xlink:href="#C6_0_a12cdc1ae0" x="449.673862" y="51.370995" style="fill: #a6cee3; fill-opacity: 0.8; stroke: #ffffff; stroke-opacity: 0.8; stroke-width: 0.95"/>
    <use xlink:href="#C6_0_a12cdc1ae0" x="449.352343" y="74.281146" style="fill: #a6cee3; fill-opacity: 0.8; stroke: #ffffff; stroke-opacity: 0.8; stroke-width: 0.95"/>
    <use xlink:href="#C6_0_a12cdc1ae0" x="457.493524" y="77.454298" style="fill: #a6cee3; fill-opacity: 0.8; stroke: #ffffff; stroke-opacity: 0.8; stroke-width: 0.95"/>
    <use xlink:href="#C6_0_a12cdc1ae0" x="458.701886" y="57.082667" style="fill: #a6cee3; fill-opacity: 0.8; stroke: #ffffff; stroke-opacity: 0.8; stroke-width: 0.95"/>
    <use xlink:href="#C6_0_a12cdc1ae0" x="452.857231" y="76.502352" style="fill: #a6cee3; fill-opacity: 0.8; stroke: #ffffff; stroke-opacity: 0.8; stroke-width: 0.95"/>
   </g>
   <g id="PathCollection_12">
    <defs>
     <path id="C7_0_fe241bfe89" d="M 0 3.5 
C 0.928211 3.5 1.81853 3.131218 2.474874 2.474874 
C 3.131218 1.81853 3.5 0.928211 3.5 -0 
C 3.5 -0.928211 3.131218 -1.81853 2.474874 -2.474874 
C 1.81853 -3.131218 0.928211 -3.5 0 -3.5 
C -0.928211 -3.5 -1.81853 -3.131218 -2.474874 -2.474874 
C -3.131218 -1.81853 -3.5 -0.928211 -3.5 0 
C -3.5 0.928211 -3.131218 1.81853 -2.474874 2.474874 
C -1.81853 3.131218 -0.928211 3.5 0 3.5 
z
"/>
    </defs>
    <use xlink:href="#C7_0_fe241bfe89" x="500.07285" y="60.700059" style="fill: #1f78b4; fill-opacity: 0.8; stroke: #ffffff; stroke-opacity: 0.8; stroke-width: 0.95"/>
    <use xlink:href="#C7_0_fe241bfe89" x="497.559471" y="53.465275" style="fill: #1f78b4; fill-opacity: 0.8; stroke: #ffffff; stroke-opacity: 0.8; stroke-width: 0.95"/>
    <use xlink:href="#C7_0_fe241bfe89" x="491.332942" y="20.591429" style="fill: #1f78b4; fill-opacity: 0.8; stroke: #ffffff; stroke-opacity: 0.8; stroke-width: 0.95"/>
    <use xlink:href="#C7_0_fe241bfe89" x="496.434781" y="91.670015" style="fill: #1f78b4; fill-opacity: 0.8; stroke: #ffffff; stroke-opacity: 0.8; stroke-width: 0.95"/>
    <use xlink:href="#C7_0_fe241bfe89" x="491.960904" y="43.247728" style="fill: #1f78b4; fill-opacity: 0.8; stroke: #ffffff; stroke-opacity: 0.8; stroke-width: 0.95"/>
   </g>
   <g id="PathCollection_13"/>
   <g id="PathCollection_14"/>
   <g id="line2d_29">
    <path d="M 350.223 144.119077 
L 350.223 116.366604 
" clip-path="url(#pac791ed2db)" style="fill: none; stroke: #000000; stroke-width: 1.9; stroke-linecap: round"/>
   </g>
   <g id="line2d_30">
    <path d="M 350.223 144.119077 
L 350.223 144.119077 
" clip-path="url(#pac791ed2db)" style="fill: none; stroke: #000000; stroke-width: 1.9; stroke-linecap: round"/>
   </g>
   <g id="line2d_31">
    <path d="M 350.223 116.366604 
L 350.223 116.366604 
" clip-path="url(#pac791ed2db)" style="fill: none; stroke: #000000; stroke-width: 1.9; stroke-linecap: round"/>
   </g>
   <g id="line2d_32">
    <path d="M 454.233 69.165484 
L 454.233 61.119458 
" clip-path="url(#pac791ed2db)" style="fill: none; stroke: #000000; stroke-width: 1.9; stroke-linecap: round"/>
   </g>
   <g id="line2d_33">
    <path d="M 454.233 69.165484 
L 454.233 69.165484 
" clip-path="url(#pac791ed2db)" style="fill: none; stroke: #000000; stroke-width: 1.9; stroke-linecap: round"/>
   </g>
   <g id="line2d_34">
    <path d="M 454.233 61.119458 
L 454.233 61.119458 
" clip-path="url(#pac791ed2db)" style="fill: none; stroke: #000000; stroke-width: 1.9; stroke-linecap: round"/>
   </g>
   <g id="line2d_35">
    <path d="M 391.827 147.510795 
L 391.827 121.449919 
" clip-path="url(#pac791ed2db)" style="fill: none; stroke: #000000; stroke-width: 1.9; stroke-linecap: round"/>
   </g>
   <g id="line2d_36">
    <path d="M 391.827 147.510795 
L 391.827 147.510795 
" clip-path="url(#pac791ed2db)" style="fill: none; stroke: #000000; stroke-width: 1.9; stroke-linecap: round"/>
   </g>
   <g id="line2d_37">
    <path d="M 391.827 121.449919 
L 391.827 121.449919 
" clip-path="url(#pac791ed2db)" style="fill: none; stroke: #000000; stroke-width: 1.9; stroke-linecap: round"/>
   </g>
   <g id="line2d_38">
    <path d="M 495.837 65.54509 
L 495.837 42.324713 
" clip-path="url(#pac791ed2db)" style="fill: none; stroke: #000000; stroke-width: 1.9; stroke-linecap: round"/>
   </g>
   <g id="line2d_39">
    <path d="M 495.837 65.54509 
L 495.837 65.54509 
" clip-path="url(#pac791ed2db)" style="fill: none; stroke: #000000; stroke-width: 1.9; stroke-linecap: round"/>
   </g>
   <g id="line2d_40">
    <path d="M 495.837 42.324713 
L 495.837 42.324713 
" clip-path="url(#pac791ed2db)" style="fill: none; stroke: #000000; stroke-width: 1.9; stroke-linecap: round"/>
   </g>
   <g id="patch_16">
    <path d="M 319.02 173.22 
L 319.02 20.591429 
" style="fill: none; stroke: #262626; stroke-width: 1.25; stroke-linejoin: miter; stroke-linecap: square"/>
   </g>
   <g id="legend_2"/>
  </g>
 </g>
 <defs>
  <clipPath id="p43dd41d034">
   <rect x="55.5" y="12.96" width="208.02" height="160.26"/>
  </clipPath>
  <clipPath id="pac791ed2db">
   <rect x="319.02" y="12.96" width="208.02" height="160.26"/>
  </clipPath>
 </defs>
</svg>
