<?xml version="1.0" encoding="utf-8" standalone="no"?>
<!DOCTYPE svg PUBLIC "-//W3C//DTD SVG 1.1//EN"
  "http://www.w3.org/Graphics/SVG/1.1/DTD/svg11.dtd">
<svg xmlns:xlink="http://www.w3.org/1999/xlink" width="335.95pt" height="216pt" viewBox="0 0 335.95 216" xmlns="http://www.w3.org/2000/svg" version="1.1">
 <metadata>
  <rdf:RDF xmlns:dc="http://purl.org/dc/elements/1.1/" xmlns:cc="http://creativecommons.org/ns#" xmlns:rdf="http://www.w3.org/1999/02/22-rdf-syntax-ns#">
   <cc:Work>
    <dc:type rdf:resource="http://purl.org/dc/dcmitype/StillImage"/>
    <dc:date>2023-05-30T17:40:15.957931</dc:date>
    <dc:format>image/svg+xml</dc:format>
    <dc:creator>
     <cc:Agent>
      <dc:title>Matplotlib v3.7.0, https://matplotlib.org/</dc:title>
     </cc:Agent>
    </dc:creator>
   </cc:Work>
  </rdf:RDF>
 </metadata>
 <defs>
  <style type="text/css">*{stroke-linejoin: round; stroke-linecap: butt}</style>
 </defs>
 <g id="figure_1">
  <g id="patch_1">
   <path d="M 0 216 
L 335.95 216 
L 335.95 0 
L 0 0 
z
" style="fill: #ffffff"/>
  </g>
  <g id="axes_1">
   <g id="patch_2">
    <path d="M 79.634148 165.78 
L 266.6405 165.78 
L 266.6405 12.96 
L 79.634148 12.96 
z
" style="fill: #ffffff"/>
   </g>
   <g id="matplotlib.axis_1">
    <g id="xtick_1">
     <g id="line2d_1">
      <defs>
       <path id="mc8970a45fe" d="M 0 0 
L 0 6 
" style="stroke: #262626; stroke-width: 1.25"/>
      </defs>
      <g>
       <use xlink:href="#mc8970a45fe" x="88.134437" y="165.78" style="fill: #262626; stroke: #262626; stroke-width: 1.25"/>
      </g>
     </g>
     <g id="text_1">
      <text style="fill: #262626; font: 11px 'Arial', 'DejaVu Sans', 'Liberation Sans', 'Bitstream Vera Sans', sans-serif; text-anchor: middle" x="88.134437" y="183.638281" transform="rotate(-0 88.134437 183.638281)">0.00</text>
     </g>
    </g>
    <g id="xtick_2">
     <g id="line2d_2">
      <g>
       <use xlink:href="#mc8970a45fe" x="130.63588" y="165.78" style="fill: #262626; stroke: #262626; stroke-width: 1.25"/>
      </g>
     </g>
     <g id="text_2">
      <text style="fill: #262626; font: 11px 'Arial', 'DejaVu Sans', 'Liberation Sans', 'Bitstream Vera Sans', sans-serif; text-anchor: middle" x="130.63588" y="183.638281" transform="rotate(-0 130.63588 183.638281)">0.25</text>
     </g>
    </g>
    <g id="xtick_3">
     <g id="line2d_3">
      <g>
       <use xlink:href="#mc8970a45fe" x="173.137324" y="165.78" style="fill: #262626; stroke: #262626; stroke-width: 1.25"/>
      </g>
     </g>
     <g id="text_3">
      <text style="fill: #262626; font: 11px 'Arial', 'DejaVu Sans', 'Liberation Sans', 'Bitstream Vera Sans', sans-serif; text-anchor: middle" x="173.137324" y="183.638281" transform="rotate(-0 173.137324 183.638281)">0.50</text>
     </g>
    </g>
    <g id="xtick_4">
     <g id="line2d_4">
      <g>
       <use xlink:href="#mc8970a45fe" x="215.638768" y="165.78" style="fill: #262626; stroke: #262626; stroke-width: 1.25"/>
      </g>
     </g>
     <g id="text_4">
      <text style="fill: #262626; font: 11px 'Arial', 'DejaVu Sans', 'Liberation Sans', 'Bitstream Vera Sans', sans-serif; text-anchor: middle" x="215.638768" y="183.638281" transform="rotate(-0 215.638768 183.638281)">0.75</text>
     </g>
    </g>
    <g id="xtick_5">
     <g id="line2d_5">
      <g>
       <use xlink:href="#mc8970a45fe" x="258.140211" y="165.78" style="fill: #262626; stroke: #262626; stroke-width: 1.25"/>
      </g>
     </g>
     <g id="text_5">
      <text style="fill: #262626; font: 11px 'Arial', 'DejaVu Sans', 'Liberation Sans', 'Bitstream Vera Sans', sans-serif; text-anchor: middle" x="258.140211" y="183.638281" transform="rotate(-0 258.140211 183.638281)">1.00</text>
     </g>
    </g>
    <g id="text_6">
     <text style="fill: #262626; font: 12px 'Arial', 'DejaVu Sans', 'Liberation Sans', 'Bitstream Vera Sans', sans-serif; text-anchor: middle" x="173.137324" y="199.044062" transform="rotate(-0 173.137324 199.044062)">p(disclose)</text>
    </g>
   </g>
   <g id="matplotlib.axis_2">
    <g id="ytick_1">
     <g id="line2d_6">
      <defs>
       <path id="m7e4cc02ef8" d="M 0 0 
L -6 0 
" style="stroke: #262626; stroke-width: 1.25"/>
      </defs>
      <g>
       <use xlink:href="#m7e4cc02ef8" x="79.634148" y="165.78" style="fill: #262626; stroke: #262626; stroke-width: 1.25"/>
      </g>
     </g>
     <g id="text_7">
      <text style="fill: #262626; font: 11px 'Arial', 'DejaVu Sans', 'Liberation Sans', 'Bitstream Vera Sans', sans-serif; text-anchor: end" x="70.134148" y="169.959141" transform="rotate(-0 70.134148 169.959141)">0.0</text>
     </g>
    </g>
    <g id="ytick_2">
     <g id="line2d_7">
      <g>
       <use xlink:href="#m7e4cc02ef8" x="79.634148" y="135.216" style="fill: #262626; stroke: #262626; stroke-width: 1.25"/>
      </g>
     </g>
     <g id="text_8">
      <text style="fill: #262626; font: 11px 'Arial', 'DejaVu Sans', 'Liberation Sans', 'Bitstream Vera Sans', sans-serif; text-anchor: end" x="70.134148" y="139.395141" transform="rotate(-0 70.134148 139.395141)">0.2</text>
     </g>
    </g>
    <g id="ytick_3">
     <g id="line2d_8">
      <g>
       <use xlink:href="#m7e4cc02ef8" x="79.634148" y="104.652" style="fill: #262626; stroke: #262626; stroke-width: 1.25"/>
      </g>
     </g>
     <g id="text_9">
      <text style="fill: #262626; font: 11px 'Arial', 'DejaVu Sans', 'Liberation Sans', 'Bitstream Vera Sans', sans-serif; text-anchor: end" x="70.134148" y="108.831141" transform="rotate(-0 70.134148 108.831141)">0.4</text>
     </g>
    </g>
    <g id="ytick_4">
     <g id="line2d_9">
      <g>
       <use xlink:href="#m7e4cc02ef8" x="79.634148" y="74.088" style="fill: #262626; stroke: #262626; stroke-width: 1.25"/>
      </g>
     </g>
     <g id="text_10">
      <text style="fill: #262626; font: 11px 'Arial', 'DejaVu Sans', 'Liberation Sans', 'Bitstream Vera Sans', sans-serif; text-anchor: end" x="70.134148" y="78.267141" transform="rotate(-0 70.134148 78.267141)">0.6</text>
     </g>
    </g>
    <g id="ytick_5">
     <g id="line2d_10">
      <g>
       <use xlink:href="#m7e4cc02ef8" x="79.634148" y="43.524" style="fill: #262626; stroke: #262626; stroke-width: 1.25"/>
      </g>
     </g>
     <g id="text_11">
      <text style="fill: #262626; font: 11px 'Arial', 'DejaVu Sans', 'Liberation Sans', 'Bitstream Vera Sans', sans-serif; text-anchor: end" x="70.134148" y="47.703141" transform="rotate(-0 70.134148 47.703141)">0.8</text>
     </g>
    </g>
    <g id="ytick_6">
     <g id="line2d_11">
      <g>
       <use xlink:href="#m7e4cc02ef8" x="79.634148" y="12.96" style="fill: #262626; stroke: #262626; stroke-width: 1.25"/>
      </g>
     </g>
     <g id="text_12">
      <text style="fill: #262626; font: 11px 'Arial', 'DejaVu Sans', 'Liberation Sans', 'Bitstream Vera Sans', sans-serif; text-anchor: end" x="70.134148" y="17.139141" transform="rotate(-0 70.134148 17.139141)">1.0</text>
     </g>
    </g>
    <g id="text_13">
     <text style="fill: #262626; font: 12px 'Arial', 'DejaVu Sans', 'Liberation Sans', 'Bitstream Vera Sans', sans-serif; text-anchor: middle" x="46.145085" y="89.37" transform="rotate(-90 46.145085 89.37)">payoff</text>
    </g>
   </g>
   <g id="PolyCollection_1">
    <defs>
     <path id="mf2738a350c" d="M 88.134437 -165.919846 
L 88.134437 -156.987451 
L 89.136154 -157.046213 
L 90.137872 -157.048942 
L 91.139589 -157.079009 
L 92.141307 -157.104385 
L 93.143024 -157.110096 
L 94.144742 -157.171368 
L 95.146459 -157.272164 
L 96.148177 -157.321999 
L 97.149894 -157.40175 
L 98.151612 -157.334657 
L 99.153329 -157.324981 
L 100.155047 -157.260124 
L 101.156765 -157.271841 
L 102.158482 -157.254922 
L 103.1602 -157.221194 
L 104.161917 -157.167475 
L 105.163635 -157.150513 
L 106.165352 -157.124212 
L 107.16707 -157.12608 
L 108.168787 -157.107502 
L 109.170505 -157.17602 
L 110.172222 -157.179019 
L 111.17394 -157.161412 
L 112.175657 -157.118786 
L 113.177375 -157.116833 
L 114.179092 -157.033878 
L 115.18081 -157.002692 
L 116.182527 -156.941479 
L 117.184245 -156.860603 
L 118.185962 -156.829317 
L 119.18768 -156.680267 
L 120.189398 -156.62623 
L 121.191115 -156.592643 
L 122.192833 -156.556881 
L 123.19455 -156.503908 
L 124.196268 -156.478642 
L 125.197985 -156.321343 
L 126.199703 -156.222733 
L 127.20142 -156.091047 
L 128.203138 -155.95936 
L 129.204855 -155.830385 
L 130.206573 -155.741925 
L 131.20829 -155.715148 
L 132.210008 -155.688999 
L 133.211725 -155.61762 
L 134.213443 -155.49246 
L 135.21516 -155.357255 
L 136.216878 -155.196381 
L 137.218595 -155.069019 
L 138.220313 -154.997669 
L 139.222031 -154.855894 
L 140.223748 -154.757627 
L 141.225466 -154.626994 
L 142.227183 -154.495666 
L 143.228901 -154.366177 
L 144.230618 -154.241472 
L 145.232336 -154.105627 
L 146.234053 -153.982454 
L 147.235771 -153.898241 
L 148.237488 -153.750563 
L 149.239206 -153.603231 
L 150.240923 -153.496225 
L 151.242641 -153.37114 
L 152.244358 -153.199063 
L 153.246076 -153.088321 
L 154.247793 -152.978439 
L 155.249511 -152.803727 
L 156.251228 -152.672129 
L 157.252946 -152.542609 
L 158.254664 -152.426408 
L 159.256381 -152.341899 
L 160.258099 -152.257389 
L 161.259816 -152.121118 
L 162.261534 -151.955545 
L 163.263251 -151.789972 
L 164.264969 -151.631513 
L 165.266686 -151.495942 
L 166.268404 -151.370512 
L 167.270121 -151.249925 
L 168.271839 -151.139416 
L 169.273556 -150.99722 
L 170.275274 -150.855025 
L 171.276991 -150.719774 
L 172.278709 -150.589219 
L 173.280426 -150.458663 
L 174.282144 -150.328108 
L 175.283862 -150.179707 
L 176.285579 -150.028936 
L 177.287297 -149.878164 
L 178.289014 -149.727393 
L 179.290732 -149.576622 
L 180.292449 -149.430019 
L 181.294167 -149.287305 
L 182.295884 -149.144591 
L 183.297602 -149.001877 
L 184.299319 -148.859163 
L 185.301037 -148.68635 
L 186.302754 -148.519505 
L 187.304472 -148.367787 
L 187.304472 -169.606804 
L 187.304472 -169.606804 
L 186.302754 -169.480602 
L 185.301037 -169.37576 
L 184.299319 -169.291003 
L 183.297602 -169.179128 
L 182.295884 -169.064137 
L 181.294167 -168.948805 
L 180.292449 -168.832678 
L 179.290732 -168.71655 
L 178.289014 -168.600422 
L 177.287297 -168.484294 
L 176.285579 -168.368166 
L 175.283862 -168.249016 
L 174.282144 -168.136675 
L 173.280426 -168.020993 
L 172.278709 -167.904876 
L 171.276991 -167.780795 
L 170.275274 -167.673567 
L 169.273556 -167.558612 
L 168.271839 -167.444876 
L 167.270121 -167.330736 
L 166.268404 -167.245785 
L 165.266686 -167.147919 
L 164.264969 -167.050039 
L 163.263251 -166.951004 
L 162.261534 -166.851298 
L 161.259816 -166.751055 
L 160.258099 -166.650812 
L 159.256381 -166.550568 
L 158.254664 -166.459335 
L 157.252946 -166.367706 
L 156.251228 -166.328994 
L 155.249511 -166.278763 
L 154.247793 -166.20145 
L 153.246076 -166.137404 
L 152.244358 -166.071706 
L 151.242641 -165.971424 
L 150.240923 -165.861039 
L 149.239206 -165.729263 
L 148.237488 -165.659904 
L 147.235771 -165.606447 
L 146.234053 -165.55664 
L 145.232336 -165.466618 
L 144.230618 -165.401045 
L 143.228901 -165.270533 
L 142.227183 -165.13373 
L 141.225466 -164.996927 
L 140.223748 -164.949154 
L 139.222031 -164.942973 
L 138.220313 -164.85113 
L 137.218595 -164.759967 
L 136.216878 -164.678999 
L 135.21516 -164.698984 
L 134.213443 -164.682552 
L 133.211725 -164.648051 
L 132.210008 -164.614404 
L 131.20829 -164.472988 
L 130.206573 -164.389117 
L 129.204855 -164.27991 
L 128.203138 -164.223902 
L 127.20142 -164.141756 
L 126.199703 -164.178767 
L 125.197985 -164.195741 
L 124.196268 -164.20934 
L 123.19455 -164.199505 
L 122.192833 -164.136374 
L 121.191115 -164.195764 
L 120.189398 -164.170657 
L 119.18768 -164.176573 
L 118.185962 -164.143223 
L 117.184245 -164.133567 
L 116.182527 -164.141973 
L 115.18081 -164.131439 
L 114.179092 -164.120809 
L 113.177375 -164.078751 
L 112.175657 -164.124005 
L 111.17394 -164.146344 
L 110.172222 -164.248975 
L 109.170505 -164.259915 
L 108.168787 -164.331329 
L 107.16707 -164.418861 
L 106.165352 -164.473859 
L 105.163635 -164.532786 
L 104.161917 -164.654351 
L 103.1602 -164.647949 
L 102.158482 -164.774794 
L 101.156765 -164.876081 
L 100.155047 -164.906681 
L 99.153329 -164.934104 
L 98.151612 -165.045078 
L 97.149894 -165.106038 
L 96.148177 -165.161379 
L 95.146459 -165.248767 
L 94.144742 -165.358738 
L 93.143024 -165.439667 
L 92.141307 -165.584729 
L 91.139589 -165.65164 
L 90.137872 -165.765973 
L 89.136154 -165.833445 
L 88.134437 -165.919846 
z
" style="stroke: #ffffff; stroke-opacity: 0.15"/>
    </defs>
    <g clip-path="url(#p8ec226cd05)">
     <use xlink:href="#mf2738a350c" x="0" y="216" style="fill: #66c2a5; fill-opacity: 0.15; stroke: #ffffff; stroke-opacity: 0.15"/>
    </g>
   </g>
   <g id="PolyCollection_2">
    <defs>
     <path id="m61a8b3888f" d="M 90.967866 -165.911782 
L 90.967866 -155.980765 
L 92.656476 -156.079054 
L 94.345085 -156.199014 
L 96.033695 -156.373509 
L 97.722304 -156.489138 
L 99.410914 -156.577285 
L 101.099524 -156.666553 
L 102.788133 -156.76418 
L 104.476743 -156.920077 
L 106.165352 -157.054413 
L 107.853962 -157.134568 
L 109.542571 -157.214723 
L 111.231181 -157.294878 
L 112.91979 -157.375775 
L 114.6084 -157.456637 
L 116.297009 -157.545018 
L 117.985619 -157.675679 
L 119.674229 -157.786142 
L 121.362838 -157.843197 
L 123.051448 -157.955602 
L 124.740057 -157.997471 
L 126.428667 -158.045528 
L 128.117276 -158.102305 
L 129.805886 -158.162516 
L 131.494495 -158.189672 
L 133.183105 -158.236622 
L 134.871714 -158.241609 
L 136.560324 -158.24112 
L 138.248934 -158.125557 
L 139.937543 -158.066316 
L 141.626153 -158.010839 
L 143.314762 -158.044789 
L 145.003372 -158.008654 
L 146.691981 -158.020808 
L 148.380591 -157.899432 
L 150.0692 -157.868724 
L 151.75781 -157.852152 
L 153.446419 -157.835622 
L 155.135029 -157.783792 
L 156.823639 -157.681902 
L 158.512248 -157.582534 
L 160.200858 -157.454428 
L 161.889467 -157.337513 
L 163.578077 -157.327872 
L 165.266686 -157.233041 
L 166.955296 -157.062274 
L 168.643905 -156.909147 
L 170.332515 -156.802892 
L 172.021124 -156.712629 
L 173.709734 -156.633571 
L 175.398344 -156.528883 
L 177.086953 -156.411524 
L 178.775563 -156.294164 
L 180.464172 -156.160627 
L 182.152782 -156.024852 
L 183.841391 -155.881338 
L 185.530001 -155.739851 
L 187.21861 -155.598363 
L 188.90722 -155.506409 
L 190.595829 -155.416792 
L 192.284439 -155.327176 
L 193.973049 -155.224151 
L 195.661658 -155.039947 
L 197.350268 -154.856184 
L 199.038877 -154.672505 
L 200.727487 -154.514647 
L 202.416096 -154.391493 
L 204.104706 -154.269153 
L 205.793315 -154.146813 
L 207.481925 -154.024473 
L 209.170534 -153.899445 
L 210.859144 -153.737129 
L 212.547754 -153.575025 
L 214.236363 -153.413185 
L 215.924973 -153.251344 
L 217.613582 -153.09268 
L 219.302192 -152.967898 
L 220.990801 -152.802235 
L 222.679411 -152.646551 
L 224.36802 -152.520118 
L 226.05663 -152.39397 
L 227.745239 -152.268146 
L 229.433849 -152.112365 
L 231.122459 -151.945666 
L 232.811068 -151.778966 
L 234.499678 -151.612266 
L 236.188287 -151.455445 
L 237.876897 -151.311996 
L 239.565506 -151.169691 
L 241.254116 -151.036447 
L 242.942725 -150.907815 
L 244.631335 -150.747458 
L 246.319944 -150.598295 
L 248.008554 -150.454994 
L 249.697164 -150.311693 
L 251.385773 -150.168392 
L 253.074383 -150.02509 
L 254.762992 -149.881789 
L 256.451602 -149.738488 
L 258.140211 -149.595187 
L 258.140211 -169.384154 
L 258.140211 -169.384154 
L 256.451602 -169.28061 
L 254.762992 -169.191281 
L 253.074383 -169.093375 
L 251.385773 -168.9936 
L 249.697164 -168.893385 
L 248.008554 -168.742293 
L 246.319944 -168.6261 
L 244.631335 -168.524534 
L 242.942725 -168.416307 
L 241.254116 -168.324719 
L 239.565506 -168.207827 
L 237.876897 -168.119567 
L 236.188287 -168.034579 
L 234.499678 -167.948103 
L 232.811068 -167.861627 
L 231.122459 -167.77258 
L 229.433849 -167.633807 
L 227.745239 -167.494771 
L 226.05663 -167.408191 
L 224.36802 -167.352509 
L 222.679411 -167.270852 
L 220.990801 -167.18739 
L 219.302192 -167.092837 
L 217.613582 -166.992236 
L 215.924973 -166.890786 
L 214.236363 -166.768074 
L 212.547754 -166.645126 
L 210.859144 -166.560658 
L 209.170534 -166.492098 
L 207.481925 -166.407518 
L 205.793315 -166.341068 
L 204.104706 -166.256271 
L 202.416096 -166.181023 
L 200.727487 -166.104511 
L 199.038877 -166.0212 
L 197.350268 -165.942 
L 195.661658 -165.873408 
L 193.973049 -165.826469 
L 192.284439 -165.764146 
L 190.595829 -165.695263 
L 188.90722 -165.599945 
L 187.21861 -165.52884 
L 185.530001 -165.463839 
L 183.841391 -165.394725 
L 182.152782 -165.326364 
L 180.464172 -165.258005 
L 178.775563 -165.221939 
L 177.086953 -165.161893 
L 175.398344 -165.101645 
L 173.709734 -165.070863 
L 172.021124 -164.995912 
L 170.332515 -164.970919 
L 168.643905 -164.91263 
L 166.955296 -164.860703 
L 165.266686 -164.80796 
L 163.578077 -164.783078 
L 161.889467 -164.76115 
L 160.200858 -164.741788 
L 158.512248 -164.681679 
L 156.823639 -164.613568 
L 155.135029 -164.545457 
L 153.446419 -164.477345 
L 151.75781 -164.434599 
L 150.0692 -164.471979 
L 148.380591 -164.440025 
L 146.691981 -164.482776 
L 145.003372 -164.465464 
L 143.314762 -164.502099 
L 141.626153 -164.508118 
L 139.937543 -164.512316 
L 138.248934 -164.492817 
L 136.560324 -164.466165 
L 134.871714 -164.45439 
L 133.183105 -164.494609 
L 131.494495 -164.488369 
L 129.805886 -164.536155 
L 128.117276 -164.576535 
L 126.428667 -164.619852 
L 124.740057 -164.595594 
L 123.051448 -164.554499 
L 121.362838 -164.617187 
L 119.674229 -164.68946 
L 117.985619 -164.805772 
L 116.297009 -164.834047 
L 114.6084 -164.82441 
L 112.91979 -164.833819 
L 111.231181 -164.854518 
L 109.542571 -164.877275 
L 107.853962 -164.937872 
L 106.165352 -164.98018 
L 104.476743 -165.0492 
L 102.788133 -165.144915 
L 101.099524 -165.249369 
L 99.410914 -165.329957 
L 97.722304 -165.414529 
L 96.033695 -165.562132 
L 94.345085 -165.71041 
L 92.656476 -165.823312 
L 90.967866 -165.911782 
z
" style="stroke: #ffffff; stroke-opacity: 0.15"/>
    </defs>
    <g clip-path="url(#p8ec226cd05)">
     <use xlink:href="#m61a8b3888f" x="0" y="216" style="fill: #fc8d62; fill-opacity: 0.15; stroke: #ffffff; stroke-opacity: 0.15"/>
    </g>
   </g>
   <g id="line2d_12">
    <path d="M 88.134437 54.383047 
L 89.136154 54.417728 
L 90.137872 54.452409 
L 91.139589 54.48709 
L 92.141307 54.521771 
L 93.143024 54.556452 
L 94.144742 54.591133 
L 95.146459 54.625814 
L 96.148177 54.660495 
L 97.149894 54.695176 
L 98.151612 54.729856 
L 99.153329 54.764537 
L 100.155047 54.799218 
L 101.156765 54.833899 
L 102.158482 54.86858 
L 103.1602 54.903261 
L 104.161917 54.937942 
L 105.163635 54.972623 
L 106.165352 55.007304 
L 107.16707 55.041985 
L 108.168787 55.076666 
L 109.170505 55.111347 
L 110.172222 55.146027 
L 111.17394 55.180708 
L 112.175657 55.215389 
L 113.177375 55.25007 
L 114.179092 55.284751 
L 115.18081 55.319432 
L 116.182527 55.354113 
L 117.184245 55.388794 
L 118.185962 55.423475 
L 119.18768 55.458156 
L 120.189398 55.492837 
L 121.191115 55.527518 
L 122.192833 55.562198 
L 123.19455 55.596879 
L 124.196268 55.63156 
L 125.197985 55.666241 
L 126.199703 55.700922 
L 127.20142 55.735603 
L 128.203138 55.770284 
L 129.204855 55.804965 
L 130.206573 55.839646 
L 131.20829 55.874327 
L 132.210008 55.909008 
L 133.211725 55.943689 
L 134.213443 55.978369 
L 135.21516 56.01305 
L 136.216878 56.047731 
L 137.218595 56.082412 
L 138.220313 56.117093 
L 139.222031 56.151774 
L 140.223748 56.186455 
L 141.225466 56.221136 
L 142.227183 56.255817 
L 143.228901 56.290498 
L 144.230618 56.325179 
L 145.232336 56.35986 
L 146.234053 56.394541 
L 147.235771 56.429221 
L 148.237488 56.463902 
L 149.239206 56.498583 
L 150.240923 56.533264 
L 151.242641 56.567945 
L 152.244358 56.602626 
L 153.246076 56.637307 
L 154.247793 56.671988 
L 155.249511 56.706669 
L 156.251228 56.74135 
L 157.252946 56.776031 
L 158.254664 56.810712 
L 159.256381 56.845392 
L 160.258099 56.880073 
L 161.259816 56.914754 
L 162.261534 56.949435 
L 163.263251 56.984116 
L 164.264969 57.018797 
L 165.266686 57.053478 
L 166.268404 57.088159 
L 167.270121 57.12284 
L 168.271839 57.157521 
L 169.273556 57.192202 
L 170.275274 57.226883 
L 171.276991 57.261563 
L 172.278709 57.296244 
L 173.280426 57.330925 
L 174.282144 57.365606 
L 175.283862 57.400287 
L 176.285579 57.434968 
L 177.287297 57.469649 
L 178.289014 57.50433 
L 179.290732 57.539011 
L 180.292449 57.573692 
L 181.294167 57.608373 
L 182.295884 57.643054 
L 183.297602 57.677734 
L 184.299319 57.712415 
L 185.301037 57.747096 
L 186.302754 57.781777 
L 187.304472 57.816458 
" clip-path="url(#p8ec226cd05)" style="fill: none; stroke: #66c2a5; stroke-width: 2.25; stroke-linecap: round"/>
   </g>
   <g id="line2d_13">
    <path d="M 90.967866 54.787935 
L 92.656476 54.771007 
L 94.345085 54.75408 
L 96.033695 54.737152 
L 97.722304 54.720224 
L 99.410914 54.703296 
L 101.099524 54.686369 
L 102.788133 54.669441 
L 104.476743 54.652513 
L 106.165352 54.635585 
L 107.853962 54.618658 
L 109.542571 54.60173 
L 111.231181 54.584802 
L 112.91979 54.567875 
L 114.6084 54.550947 
L 116.297009 54.534019 
L 117.985619 54.517091 
L 119.674229 54.500164 
L 121.362838 54.483236 
L 123.051448 54.466308 
L 124.740057 54.44938 
L 126.428667 54.432453 
L 128.117276 54.415525 
L 129.805886 54.398597 
L 131.494495 54.381669 
L 133.183105 54.364742 
L 134.871714 54.347814 
L 136.560324 54.330886 
L 138.248934 54.313959 
L 139.937543 54.297031 
L 141.626153 54.280103 
L 143.314762 54.263175 
L 145.003372 54.246248 
L 146.691981 54.22932 
L 148.380591 54.212392 
L 150.0692 54.195464 
L 151.75781 54.178537 
L 153.446419 54.161609 
L 155.135029 54.144681 
L 156.823639 54.127753 
L 158.512248 54.110826 
L 160.200858 54.093898 
L 161.889467 54.07697 
L 163.578077 54.060043 
L 165.266686 54.043115 
L 166.955296 54.026187 
L 168.643905 54.009259 
L 170.332515 53.992332 
L 172.021124 53.975404 
L 173.709734 53.958476 
L 175.398344 53.941548 
L 177.086953 53.924621 
L 178.775563 53.907693 
L 180.464172 53.890765 
L 182.152782 53.873837 
L 183.841391 53.85691 
L 185.530001 53.839982 
L 187.21861 53.823054 
L 188.90722 53.806127 
L 190.595829 53.789199 
L 192.284439 53.772271 
L 193.973049 53.755343 
L 195.661658 53.738416 
L 197.350268 53.721488 
L 199.038877 53.70456 
L 200.727487 53.687632 
L 202.416096 53.670705 
L 204.104706 53.653777 
L 205.793315 53.636849 
L 207.481925 53.619921 
L 209.170534 53.602994 
L 210.859144 53.586066 
L 212.547754 53.569138 
L 214.236363 53.552211 
L 215.924973 53.535283 
L 217.613582 53.518355 
L 219.302192 53.501427 
L 220.990801 53.4845 
L 222.679411 53.467572 
L 224.36802 53.450644 
L 226.05663 53.433716 
L 227.745239 53.416789 
L 229.433849 53.399861 
L 231.122459 53.382933 
L 232.811068 53.366005 
L 234.499678 53.349078 
L 236.188287 53.33215 
L 237.876897 53.315222 
L 239.565506 53.298295 
L 241.254116 53.281367 
L 242.942725 53.264439 
L 244.631335 53.247511 
L 246.319944 53.230584 
L 248.008554 53.213656 
L 249.697164 53.196728 
L 251.385773 53.1798 
L 253.074383 53.162873 
L 254.762992 53.145945 
L 256.451602 53.129017 
L 258.140211 53.112089 
" clip-path="url(#p8ec226cd05)" style="fill: none; stroke: #fc8d62; stroke-width: 2.25; stroke-linecap: round"/>
   </g>
   <g id="patch_3">
    <path d="M 79.634148 165.78 
L 79.634148 12.96 
" style="fill: none; stroke: #262626; stroke-width: 1.25; stroke-linejoin: miter; stroke-linecap: square"/>
   </g>
   <g id="patch_4">
    <path d="M 79.634148 165.78 
L 266.6405 165.78 
" style="fill: none; stroke: #262626; stroke-width: 1.25; stroke-linejoin: miter; stroke-linecap: square"/>
   </g>
   <g id="PathCollection_1">
    <defs>
     <path id="mdc54435a7a" d="M 0 2.738613 
C 0.726289 2.738613 1.422928 2.450055 1.936492 1.936492 
C 2.450055 1.422928 2.738613 0.726289 2.738613 0 
C 2.738613 -0.726289 2.450055 -1.422928 1.936492 -1.936492 
C 1.422928 -2.450055 0.726289 -2.738613 0 -2.738613 
C -0.726289 -2.738613 -1.422928 -2.450055 -1.936492 -1.936492 
C -2.450055 -1.422928 -2.738613 -0.726289 -2.738613 0 
C -2.738613 0.726289 -2.450055 1.422928 -1.936492 1.936492 
C -1.422928 2.450055 -0.726289 2.738613 0 2.738613 
z
" style="stroke: #ffffff; stroke-opacity: 0.8; stroke-width: 0.5"/>
    </defs>
    <g>
     <use xlink:href="#mdc54435a7a" x="90.967866" y="56.032845" style="fill: #66c2a5; fill-opacity: 0.8; stroke: #ffffff; stroke-opacity: 0.8; stroke-width: 0.5"/>
     <use xlink:href="#mdc54435a7a" x="88.134437" y="43.237837" style="fill: #66c2a5; fill-opacity: 0.8; stroke: #ffffff; stroke-opacity: 0.8; stroke-width: 0.5"/>
     <use xlink:href="#mdc54435a7a" x="141.969599" y="46.235829" style="fill: #66c2a5; fill-opacity: 0.8; stroke: #ffffff; stroke-opacity: 0.8; stroke-width: 0.5"/>
     <use xlink:href="#mdc54435a7a" x="88.134437" y="70.677018" style="fill: #66c2a5; fill-opacity: 0.8; stroke: #ffffff; stroke-opacity: 0.8; stroke-width: 0.5"/>
     <use xlink:href="#mdc54435a7a" x="90.967866" y="43.733254" style="fill: #66c2a5; fill-opacity: 0.8; stroke: #ffffff; stroke-opacity: 0.8; stroke-width: 0.5"/>
     <use xlink:href="#mdc54435a7a" x="107.968444" y="43.23556" style="fill: #66c2a5; fill-opacity: 0.8; stroke: #ffffff; stroke-opacity: 0.8; stroke-width: 0.5"/>
     <use xlink:href="#mdc54435a7a" x="122.135592" y="52.323997" style="fill: #66c2a5; fill-opacity: 0.8; stroke: #ffffff; stroke-opacity: 0.8; stroke-width: 0.5"/>
     <use xlink:href="#mdc54435a7a" x="90.967866" y="46.808132" style="fill: #66c2a5; fill-opacity: 0.8; stroke: #ffffff; stroke-opacity: 0.8; stroke-width: 0.5"/>
     <use xlink:href="#mdc54435a7a" x="88.134437" y="54.309296" style="fill: #66c2a5; fill-opacity: 0.8; stroke: #ffffff; stroke-opacity: 0.8; stroke-width: 0.5"/>
     <use xlink:href="#mdc54435a7a" x="113.635303" y="46.401404" style="fill: #66c2a5; fill-opacity: 0.8; stroke: #ffffff; stroke-opacity: 0.8; stroke-width: 0.5"/>
     <use xlink:href="#mdc54435a7a" x="187.304472" y="54.591728" style="fill: #66c2a5; fill-opacity: 0.8; stroke: #ffffff; stroke-opacity: 0.8; stroke-width: 0.5"/>
     <use xlink:href="#mdc54435a7a" x="93.801296" y="62.960393" style="fill: #66c2a5; fill-opacity: 0.8; stroke: #ffffff; stroke-opacity: 0.8; stroke-width: 0.5"/>
     <use xlink:href="#mdc54435a7a" x="116.468732" y="70.435281" style="fill: #66c2a5; fill-opacity: 0.8; stroke: #ffffff; stroke-opacity: 0.8; stroke-width: 0.5"/>
     <use xlink:href="#mdc54435a7a" x="127.802451" y="49.232898" style="fill: #66c2a5; fill-opacity: 0.8; stroke: #ffffff; stroke-opacity: 0.8; stroke-width: 0.5"/>
     <use xlink:href="#mdc54435a7a" x="102.301585" y="69.487074" style="fill: #66c2a5; fill-opacity: 0.8; stroke: #ffffff; stroke-opacity: 0.8; stroke-width: 0.5"/>
     <use xlink:href="#mdc54435a7a" x="127.802451" y="56.247816" style="fill: #66c2a5; fill-opacity: 0.8; stroke: #ffffff; stroke-opacity: 0.8; stroke-width: 0.5"/>
     <use xlink:href="#mdc54435a7a" x="93.801296" y="48.799286" style="fill: #66c2a5; fill-opacity: 0.8; stroke: #ffffff; stroke-opacity: 0.8; stroke-width: 0.5"/>
     <use xlink:href="#mdc54435a7a" x="175.970754" y="65.698647" style="fill: #66c2a5; fill-opacity: 0.8; stroke: #ffffff; stroke-opacity: 0.8; stroke-width: 0.5"/>
     <use xlink:href="#mdc54435a7a" x="93.801296" y="52.740894" style="fill: #66c2a5; fill-opacity: 0.8; stroke: #ffffff; stroke-opacity: 0.8; stroke-width: 0.5"/>
     <use xlink:href="#mdc54435a7a" x="88.134437" y="63.942949" style="fill: #66c2a5; fill-opacity: 0.8; stroke: #ffffff; stroke-opacity: 0.8; stroke-width: 0.5"/>
     <use xlink:href="#mdc54435a7a" x="107.968444" y="54.362537" style="fill: #66c2a5; fill-opacity: 0.8; stroke: #ffffff; stroke-opacity: 0.8; stroke-width: 0.5"/>
     <use xlink:href="#mdc54435a7a" x="88.134437" y="47.992237" style="fill: #66c2a5; fill-opacity: 0.8; stroke: #ffffff; stroke-opacity: 0.8; stroke-width: 0.5"/>
     <use xlink:href="#mdc54435a7a" x="116.468732" y="69.432195" style="fill: #66c2a5; fill-opacity: 0.8; stroke: #ffffff; stroke-opacity: 0.8; stroke-width: 0.5"/>
     <use xlink:href="#mdc54435a7a" x="88.134437" y="55.590288" style="fill: #66c2a5; fill-opacity: 0.8; stroke: #ffffff; stroke-opacity: 0.8; stroke-width: 0.5"/>
     <use xlink:href="#mdc54435a7a" x="110.801873" y="53.705301" style="fill: #66c2a5; fill-opacity: 0.8; stroke: #ffffff; stroke-opacity: 0.8; stroke-width: 0.5"/>
    </g>
   </g>
   <g id="PathCollection_2">
    <defs>
     <path id="mf0e7a09a8a" d="M 0 2.738613 
C 0.726289 2.738613 1.422928 2.450055 1.936492 1.936492 
C 2.450055 1.422928 2.738613 0.726289 2.738613 0 
C 2.738613 -0.726289 2.450055 -1.422928 1.936492 -1.936492 
C 1.422928 -2.450055 0.726289 -2.738613 0 -2.738613 
C -0.726289 -2.738613 -1.422928 -2.450055 -1.936492 -1.936492 
C -2.450055 -1.422928 -2.738613 -0.726289 -2.738613 0 
C -2.738613 0.726289 -2.450055 1.422928 -1.936492 1.936492 
C -1.422928 2.450055 -0.726289 2.738613 0 2.738613 
z
" style="stroke: #ffffff; stroke-opacity: 0.8; stroke-width: 0.5"/>
    </defs>
    <g>
     <use xlink:href="#mf0e7a09a8a" x="99.468155" y="48.850713" style="fill: #fc8d62; fill-opacity: 0.8; stroke: #ffffff; stroke-opacity: 0.8; stroke-width: 0.5"/>
     <use xlink:href="#mf0e7a09a8a" x="110.801873" y="70.215148" style="fill: #fc8d62; fill-opacity: 0.8; stroke: #ffffff; stroke-opacity: 0.8; stroke-width: 0.5"/>
     <use xlink:href="#mf0e7a09a8a" x="90.967866" y="46.358661" style="fill: #fc8d62; fill-opacity: 0.8; stroke: #ffffff; stroke-opacity: 0.8; stroke-width: 0.5"/>
     <use xlink:href="#mf0e7a09a8a" x="170.303894" y="56.541632" style="fill: #fc8d62; fill-opacity: 0.8; stroke: #ffffff; stroke-opacity: 0.8; stroke-width: 0.5"/>
     <use xlink:href="#mf0e7a09a8a" x="224.139056" y="59.381804" style="fill: #fc8d62; fill-opacity: 0.8; stroke: #ffffff; stroke-opacity: 0.8; stroke-width: 0.5"/>
     <use xlink:href="#mf0e7a09a8a" x="90.967866" y="45.775848" style="fill: #fc8d62; fill-opacity: 0.8; stroke: #ffffff; stroke-opacity: 0.8; stroke-width: 0.5"/>
     <use xlink:href="#mf0e7a09a8a" x="127.802451" y="60.935512" style="fill: #fc8d62; fill-opacity: 0.8; stroke: #ffffff; stroke-opacity: 0.8; stroke-width: 0.5"/>
     <use xlink:href="#mf0e7a09a8a" x="107.968444" y="54.898034" style="fill: #fc8d62; fill-opacity: 0.8; stroke: #ffffff; stroke-opacity: 0.8; stroke-width: 0.5"/>
     <use xlink:href="#mf0e7a09a8a" x="119.302162" y="48.213155" style="fill: #fc8d62; fill-opacity: 0.8; stroke: #ffffff; stroke-opacity: 0.8; stroke-width: 0.5"/>
     <use xlink:href="#mf0e7a09a8a" x="156.136746" y="52.630837" style="fill: #fc8d62; fill-opacity: 0.8; stroke: #ffffff; stroke-opacity: 0.8; stroke-width: 0.5"/>
     <use xlink:href="#mf0e7a09a8a" x="158.970176" y="49.499084" style="fill: #fc8d62; fill-opacity: 0.8; stroke: #ffffff; stroke-opacity: 0.8; stroke-width: 0.5"/>
     <use xlink:href="#mf0e7a09a8a" x="113.635303" y="57.186496" style="fill: #fc8d62; fill-opacity: 0.8; stroke: #ffffff; stroke-opacity: 0.8; stroke-width: 0.5"/>
     <use xlink:href="#mf0e7a09a8a" x="158.970176" y="51.996521" style="fill: #fc8d62; fill-opacity: 0.8; stroke: #ffffff; stroke-opacity: 0.8; stroke-width: 0.5"/>
     <use xlink:href="#mf0e7a09a8a" x="122.135592" y="54.808281" style="fill: #fc8d62; fill-opacity: 0.8; stroke: #ffffff; stroke-opacity: 0.8; stroke-width: 0.5"/>
     <use xlink:href="#mf0e7a09a8a" x="102.301585" y="52.203277" style="fill: #fc8d62; fill-opacity: 0.8; stroke: #ffffff; stroke-opacity: 0.8; stroke-width: 0.5"/>
     <use xlink:href="#mf0e7a09a8a" x="192.971331" y="50.353802" style="fill: #fc8d62; fill-opacity: 0.8; stroke: #ffffff; stroke-opacity: 0.8; stroke-width: 0.5"/>
     <use xlink:href="#mf0e7a09a8a" x="133.46931" y="68.71456" style="fill: #fc8d62; fill-opacity: 0.8; stroke: #ffffff; stroke-opacity: 0.8; stroke-width: 0.5"/>
     <use xlink:href="#mf0e7a09a8a" x="119.302162" y="48.300529" style="fill: #fc8d62; fill-opacity: 0.8; stroke: #ffffff; stroke-opacity: 0.8; stroke-width: 0.5"/>
     <use xlink:href="#mf0e7a09a8a" x="258.140211" y="44.353547" style="fill: #fc8d62; fill-opacity: 0.8; stroke: #ffffff; stroke-opacity: 0.8; stroke-width: 0.5"/>
     <use xlink:href="#mf0e7a09a8a" x="144.803028" y="64.96774" style="fill: #fc8d62; fill-opacity: 0.8; stroke: #ffffff; stroke-opacity: 0.8; stroke-width: 0.5"/>
     <use xlink:href="#mf0e7a09a8a" x="107.968444" y="54.334786" style="fill: #fc8d62; fill-opacity: 0.8; stroke: #ffffff; stroke-opacity: 0.8; stroke-width: 0.5"/>
    </g>
   </g>
  </g>
  <g id="legend_1">
   <g id="text_14">
    <text style="fill: #262626; font: 12px 'Arial', 'DejaVu Sans', 'Liberation Sans', 'Bitstream Vera Sans', sans-serif; text-anchor: start" x="268.781875" y="95.165312" transform="rotate(-0 268.781875 95.165312)">multiplier</text>
   </g>
   <g id="PathCollection_3">
    <g>
     <use xlink:href="#mdc54435a7a" x="284.269219" y="108.631719" style="fill: #66c2a5; fill-opacity: 0.8; stroke: #ffffff; stroke-opacity: 0.8; stroke-width: 0.5"/>
    </g>
   </g>
   <g id="text_15">
    <text style="fill: #262626; font: 11px 'Arial', 'DejaVu Sans', 'Liberation Sans', 'Bitstream Vera Sans', sans-serif; text-anchor: start" x="304.069219" y="111.519219" transform="rotate(-0 304.069219 111.519219)">1.5</text>
   </g>
   <g id="PathCollection_4">
    <g>
     <use xlink:href="#mf0e7a09a8a" x="284.269219" y="124.777656" style="fill: #fc8d62; fill-opacity: 0.8; stroke: #ffffff; stroke-opacity: 0.8; stroke-width: 0.5"/>
    </g>
   </g>
   <g id="text_16">
    <text style="fill: #262626; font: 11px 'Arial', 'DejaVu Sans', 'Liberation Sans', 'Bitstream Vera Sans', sans-serif; text-anchor: start" x="304.069219" y="127.665156" transform="rotate(-0 304.069219 127.665156)">2.5</text>
   </g>
  </g>
 </g>
 <defs>
  <clipPath id="p8ec226cd05">
   <rect x="79.634148" y="12.96" width="187.006352" height="152.82"/>
  </clipPath>
 </defs>
</svg>
