<?xml version="1.0" encoding="utf-8" standalone="no"?>
<!DOCTYPE svg PUBLIC "-//W3C//DTD SVG 1.1//EN"
  "http://www.w3.org/Graphics/SVG/1.1/DTD/svg11.dtd">
<svg xmlns:xlink="http://www.w3.org/1999/xlink" width="335.95pt" height="216pt" viewBox="0 0 335.95 216" xmlns="http://www.w3.org/2000/svg" version="1.1">
 <metadata>
  <rdf:RDF xmlns:dc="http://purl.org/dc/elements/1.1/" xmlns:cc="http://creativecommons.org/ns#" xmlns:rdf="http://www.w3.org/1999/02/22-rdf-syntax-ns#">
   <cc:Work>
    <dc:type rdf:resource="http://purl.org/dc/dcmitype/StillImage"/>
    <dc:date>2023-05-30T17:21:41.536768</dc:date>
    <dc:format>image/svg+xml</dc:format>
    <dc:creator>
     <cc:Agent>
      <dc:title>Matplotlib v3.7.0, https://matplotlib.org/</dc:title>
     </cc:Agent>
    </dc:creator>
   </cc:Work>
  </rdf:RDF>
 </metadata>
 <defs>
  <style type="text/css">*{stroke-linejoin: round; stroke-linecap: butt}</style>
 </defs>
 <g id="figure_1">
  <g id="patch_1">
   <path d="M 0 216 
L 335.95 216 
L 335.95 0 
L 0 0 
z
" style="fill: #ffffff"/>
  </g>
  <g id="axes_1">
   <g id="patch_2">
    <path d="M 71.011431 165.78 
L 266.6405 165.78 
L 266.6405 16.927589 
L 71.011431 16.927589 
z
" style="fill: #ffffff"/>
   </g>
   <g id="matplotlib.axis_1">
    <g id="xtick_1">
     <g id="line2d_1">
      <defs>
       <path id="me276f566e9" d="M 0 0 
L 0 6 
" style="stroke: #262626; stroke-width: 1.25"/>
      </defs>
      <g>
       <use xlink:href="#me276f566e9" x="71.631819" y="165.78" style="fill: #262626; stroke: #262626; stroke-width: 1.25"/>
      </g>
     </g>
     <g id="text_1">
      <text style="fill: #262626; font: 11px 'Arial', 'DejaVu Sans', 'Liberation Sans', 'Bitstream Vera Sans', sans-serif; text-anchor: middle" x="71.631819" y="183.638281" transform="rotate(-0 71.631819 183.638281)">0.00</text>
     </g>
    </g>
    <g id="xtick_2">
     <g id="line2d_2">
      <g>
       <use xlink:href="#me276f566e9" x="118.160932" y="165.78" style="fill: #262626; stroke: #262626; stroke-width: 1.25"/>
      </g>
     </g>
     <g id="text_2">
      <text style="fill: #262626; font: 11px 'Arial', 'DejaVu Sans', 'Liberation Sans', 'Bitstream Vera Sans', sans-serif; text-anchor: middle" x="118.160932" y="183.638281" transform="rotate(-0 118.160932 183.638281)">0.25</text>
     </g>
    </g>
    <g id="xtick_3">
     <g id="line2d_3">
      <g>
       <use xlink:href="#me276f566e9" x="164.690045" y="165.78" style="fill: #262626; stroke: #262626; stroke-width: 1.25"/>
      </g>
     </g>
     <g id="text_3">
      <text style="fill: #262626; font: 11px 'Arial', 'DejaVu Sans', 'Liberation Sans', 'Bitstream Vera Sans', sans-serif; text-anchor: middle" x="164.690045" y="183.638281" transform="rotate(-0 164.690045 183.638281)">0.50</text>
     </g>
    </g>
    <g id="xtick_4">
     <g id="line2d_4">
      <g>
       <use xlink:href="#me276f566e9" x="211.219157" y="165.78" style="fill: #262626; stroke: #262626; stroke-width: 1.25"/>
      </g>
     </g>
     <g id="text_4">
      <text style="fill: #262626; font: 11px 'Arial', 'DejaVu Sans', 'Liberation Sans', 'Bitstream Vera Sans', sans-serif; text-anchor: middle" x="211.219157" y="183.638281" transform="rotate(-0 211.219157 183.638281)">0.75</text>
     </g>
    </g>
    <g id="xtick_5">
     <g id="line2d_5">
      <g>
       <use xlink:href="#me276f566e9" x="257.74827" y="165.78" style="fill: #262626; stroke: #262626; stroke-width: 1.25"/>
      </g>
     </g>
     <g id="text_5">
      <text style="fill: #262626; font: 11px 'Arial', 'DejaVu Sans', 'Liberation Sans', 'Bitstream Vera Sans', sans-serif; text-anchor: middle" x="257.74827" y="183.638281" transform="rotate(-0 257.74827 183.638281)">1.00</text>
     </g>
    </g>
    <g id="text_6">
     <text style="fill: #262626; font: 12px 'Arial', 'DejaVu Sans', 'Liberation Sans', 'Bitstream Vera Sans', sans-serif; text-anchor: middle" x="168.825966" y="199.044062" transform="rotate(-0 168.825966 199.044062)">p(disclose)</text>
    </g>
   </g>
   <g id="matplotlib.axis_2">
    <g id="ytick_1">
     <g id="line2d_6">
      <defs>
       <path id="m5eb9382c59" d="M 0 0 
L -6 0 
" style="stroke: #262626; stroke-width: 1.25"/>
      </defs>
      <g>
       <use xlink:href="#m5eb9382c59" x="71.011431" y="165.78" style="fill: #262626; stroke: #262626; stroke-width: 1.25"/>
      </g>
     </g>
     <g id="text_7">
      <text style="fill: #262626; font: 11px 'Arial', 'DejaVu Sans', 'Liberation Sans', 'Bitstream Vera Sans', sans-serif; text-anchor: end" x="61.511431" y="169.959141" transform="rotate(-0 61.511431 169.959141)">0.0</text>
     </g>
    </g>
    <g id="ytick_2">
     <g id="line2d_7">
      <g>
       <use xlink:href="#m5eb9382c59" x="71.011431" y="136.009518" style="fill: #262626; stroke: #262626; stroke-width: 1.25"/>
      </g>
     </g>
     <g id="text_8">
      <text style="fill: #262626; font: 11px 'Arial', 'DejaVu Sans', 'Liberation Sans', 'Bitstream Vera Sans', sans-serif; text-anchor: end" x="61.511431" y="140.188658" transform="rotate(-0 61.511431 140.188658)">0.2</text>
     </g>
    </g>
    <g id="ytick_3">
     <g id="line2d_8">
      <g>
       <use xlink:href="#m5eb9382c59" x="71.011431" y="106.239036" style="fill: #262626; stroke: #262626; stroke-width: 1.25"/>
      </g>
     </g>
     <g id="text_9">
      <text style="fill: #262626; font: 11px 'Arial', 'DejaVu Sans', 'Liberation Sans', 'Bitstream Vera Sans', sans-serif; text-anchor: end" x="61.511431" y="110.418176" transform="rotate(-0 61.511431 110.418176)">0.4</text>
     </g>
    </g>
    <g id="ytick_4">
     <g id="line2d_9">
      <g>
       <use xlink:href="#m5eb9382c59" x="71.011431" y="76.468554" style="fill: #262626; stroke: #262626; stroke-width: 1.25"/>
      </g>
     </g>
     <g id="text_10">
      <text style="fill: #262626; font: 11px 'Arial', 'DejaVu Sans', 'Liberation Sans', 'Bitstream Vera Sans', sans-serif; text-anchor: end" x="61.511431" y="80.647694" transform="rotate(-0 61.511431 80.647694)">0.6</text>
     </g>
    </g>
    <g id="ytick_5">
     <g id="line2d_10">
      <g>
       <use xlink:href="#m5eb9382c59" x="71.011431" y="46.698071" style="fill: #262626; stroke: #262626; stroke-width: 1.25"/>
      </g>
     </g>
     <g id="text_11">
      <text style="fill: #262626; font: 11px 'Arial', 'DejaVu Sans', 'Liberation Sans', 'Bitstream Vera Sans', sans-serif; text-anchor: end" x="61.511431" y="50.877212" transform="rotate(-0 61.511431 50.877212)">0.8</text>
     </g>
    </g>
    <g id="ytick_6">
     <g id="line2d_11">
      <g>
       <use xlink:href="#m5eb9382c59" x="71.011431" y="16.927589" style="fill: #262626; stroke: #262626; stroke-width: 1.25"/>
      </g>
     </g>
     <g id="text_12">
      <text style="fill: #262626; font: 11px 'Arial', 'DejaVu Sans', 'Liberation Sans', 'Bitstream Vera Sans', sans-serif; text-anchor: end" x="61.511431" y="21.10673" transform="rotate(-0 61.511431 21.10673)">1.0</text>
     </g>
    </g>
    <g id="text_13">
     <text style="fill: #262626; font: 12px 'Arial', 'DejaVu Sans', 'Liberation Sans', 'Bitstream Vera Sans', sans-serif; text-anchor: middle" x="37.522369" y="91.353795" transform="rotate(-90 37.522369 91.353795)">payoff</text>
    </g>
   </g>
   <g id="PolyCollection_1">
    <defs>
     <path id="m0fcffff2ac" d="M 79.903662 -251.941529 
L 79.903662 -111.154237 
L 81.700072 -111.481123 
L 83.496482 -111.808009 
L 85.292892 -112.134895 
L 87.089302 -112.461781 
L 88.885713 -112.788667 
L 90.682123 -113.115553 
L 92.478533 -113.44244 
L 94.274943 -113.769326 
L 96.071353 -114.096212 
L 97.867763 -114.423098 
L 99.664174 -114.749984 
L 101.460584 -115.07687 
L 103.256994 -115.403756 
L 105.053404 -115.730642 
L 106.849814 -116.057528 
L 108.646225 -116.384414 
L 110.442635 -116.7113 
L 112.239045 -117.038186 
L 114.035455 -117.365072 
L 115.831865 -117.691958 
L 117.628275 -118.018844 
L 119.424686 -118.34573 
L 121.221096 -118.672616 
L 123.017506 -118.999502 
L 124.813916 -119.326388 
L 126.610326 -119.653274 
L 128.406737 -119.98016 
L 130.203147 -120.307046 
L 131.999557 -120.633932 
L 133.795967 -120.960818 
L 135.592377 -121.287705 
L 137.388787 -121.614591 
L 139.185198 -121.941477 
L 140.981608 -122.268363 
L 142.778018 -122.595249 
L 144.574428 -122.922135 
L 146.370838 -123.249021 
L 148.167249 -123.575907 
L 149.963659 -123.902793 
L 151.760069 -124.229679 
L 153.556479 -124.556565 
L 155.352889 -124.883451 
L 157.149299 -125.210337 
L 158.94571 -125.537223 
L 160.74212 -125.864109 
L 162.53853 -126.190995 
L 164.33494 -126.61627 
L 166.13135 -127.104261 
L 167.927761 -127.592253 
L 169.724171 -128.084337 
L 171.520581 -128.576497 
L 173.316991 -129.068657 
L 175.113401 -129.560817 
L 176.909811 -130.052978 
L 178.706222 -130.545138 
L 180.502632 -131.037381 
L 182.299042 -131.530971 
L 184.095452 -132.02456 
L 185.891862 -132.518149 
L 187.688273 -133.011739 
L 189.484683 -133.505328 
L 191.281093 -133.998918 
L 193.077503 -134.492507 
L 194.873913 -134.986097 
L 196.670323 -135.50499 
L 198.466734 -136.050192 
L 200.263144 -136.595394 
L 202.059554 -136.955383 
L 203.855964 -137.439801 
L 205.652374 -137.927542 
L 207.448785 -138.419703 
L 209.245195 -138.880864 
L 211.041605 -138.90232 
L 212.838015 -139.384296 
L 214.634425 -139.800891 
L 216.430835 -139.777567 
L 218.227246 -139.742247 
L 220.023656 -140.020053 
L 221.820066 -140.174298 
L 223.616476 -140.048213 
L 225.412886 -140.06095 
L 227.209297 -139.985951 
L 229.005707 -139.910952 
L 230.802117 -139.979227 
L 232.598527 -140.321266 
L 234.394937 -140.339393 
L 236.191347 -140.351327 
L 237.987758 -140.506419 
L 239.784168 -140.650971 
L 241.580578 -140.656132 
L 243.376988 -140.701601 
L 245.173398 -140.76346 
L 246.969809 -140.981898 
L 248.766219 -141.499133 
L 250.562629 -141.431409 
L 252.359039 -141.403624 
L 254.155449 -141.397086 
L 255.951859 -141.376993 
L 257.74827 -141.077323 
L 257.74827 -154.34698 
L 257.74827 -154.34698 
L 255.951859 -154.229845 
L 254.155449 -154.136309 
L 252.359039 -154.029335 
L 250.562629 -153.997588 
L 248.766219 -153.984445 
L 246.969809 -154.215193 
L 245.173398 -154.516557 
L 243.376988 -154.954295 
L 241.580578 -155.503172 
L 239.784168 -156.533948 
L 237.987758 -157.371251 
L 236.191347 -158.181026 
L 234.394937 -159.181377 
L 232.598527 -160.481299 
L 230.802117 -161.31426 
L 229.005707 -162.110507 
L 227.209297 -163.287598 
L 225.412886 -164.328695 
L 223.616476 -165.475902 
L 221.820066 -166.730416 
L 220.023656 -168.004177 
L 218.227246 -169.198454 
L 216.430835 -170.143837 
L 214.634425 -171.309443 
L 212.838015 -172.472174 
L 211.041605 -173.553923 
L 209.245195 -174.57245 
L 207.448785 -175.717744 
L 205.652374 -176.87009 
L 203.855964 -178.017606 
L 202.059554 -178.987586 
L 200.263144 -180.081423 
L 198.466734 -181.305718 
L 196.670323 -182.437986 
L 194.873913 -183.486377 
L 193.077503 -184.534079 
L 191.281093 -185.581782 
L 189.484683 -186.629484 
L 187.688273 -187.677187 
L 185.891862 -188.724889 
L 184.095452 -189.772592 
L 182.299042 -190.820294 
L 180.502632 -191.987087 
L 178.706222 -193.165617 
L 176.909811 -194.341324 
L 175.113401 -195.350181 
L 173.316991 -196.357082 
L 171.520581 -197.363442 
L 169.724171 -198.369802 
L 167.927761 -199.376162 
L 166.13135 -200.382522 
L 164.33494 -201.388882 
L 162.53853 -202.395242 
L 160.74212 -203.401602 
L 158.94571 -204.440426 
L 157.149299 -205.498928 
L 155.352889 -206.59775 
L 153.556479 -207.696572 
L 151.760069 -208.795395 
L 149.963659 -209.894217 
L 148.167249 -210.99304 
L 146.370838 -212.091862 
L 144.574428 -213.190684 
L 142.778018 -214.289507 
L 140.981608 -215.388329 
L 139.185198 -216.486713 
L 137.388787 -217.584378 
L 135.592377 -218.682044 
L 133.795967 -219.779709 
L 131.999557 -220.877374 
L 130.203147 -221.97504 
L 128.406737 -223.072705 
L 126.610326 -224.170371 
L 124.813916 -225.268036 
L 123.017506 -226.365701 
L 121.221096 -227.463367 
L 119.424686 -228.561032 
L 117.628275 -229.609562 
L 115.831865 -230.647173 
L 114.035455 -231.684784 
L 112.239045 -232.722395 
L 110.442635 -233.760006 
L 108.646225 -234.797617 
L 106.849814 -235.835228 
L 105.053404 -236.872839 
L 103.256994 -237.91045 
L 101.460584 -238.94806 
L 99.664174 -239.985671 
L 97.867763 -241.038339 
L 96.071353 -242.128658 
L 94.274943 -243.218977 
L 92.478533 -244.309296 
L 90.682123 -245.399615 
L 88.885713 -246.489934 
L 87.089302 -247.580253 
L 85.292892 -248.670572 
L 83.496482 -249.760891 
L 81.700072 -250.85121 
L 79.903662 -251.941529 
z
" style="stroke: #ffffff; stroke-opacity: 0.15"/>
    </defs>
    <g clip-path="url(#p7c4c7bd4c4)">
     <use xlink:href="#m0fcffff2ac" x="0" y="216" style="fill: #66c2a5; fill-opacity: 0.15; stroke: #ffffff; stroke-opacity: 0.15"/>
    </g>
   </g>
   <g id="PolyCollection_2">
    <defs>
     <path id="m56755ded9e" d="M 208.770256 -173.506648 
L 208.770256 -136.100142 
L 209.264984 -136.499723 
L 209.759711 -136.899304 
L 210.254439 -137.29793 
L 210.749166 -137.683013 
L 211.243893 -138.068097 
L 211.738621 -138.45318 
L 212.233348 -138.838264 
L 212.728076 -139.223347 
L 213.222803 -139.60843 
L 213.71753 -139.993514 
L 214.212258 -140.378597 
L 214.706985 -140.763681 
L 215.201713 -141.148764 
L 215.69644 -141.533847 
L 216.191167 -141.918931 
L 216.685895 -142.304014 
L 217.180622 -142.689097 
L 217.67535 -143.074181 
L 218.170077 -143.459264 
L 218.664805 -143.844348 
L 219.159532 -144.229431 
L 219.654259 -144.614514 
L 220.148987 -144.999598 
L 220.643714 -145.384681 
L 221.138442 -145.769764 
L 221.633169 -146.154848 
L 222.127896 -146.539931 
L 222.622624 -146.925015 
L 223.117351 -147.310098 
L 223.612079 -147.695181 
L 224.106806 -148.080265 
L 224.601533 -148.465348 
L 225.096261 -148.850431 
L 225.590988 -149.235515 
L 226.085716 -149.620598 
L 226.580443 -150.005682 
L 227.07517 -150.390765 
L 227.569898 -150.775848 
L 228.064625 -151.160932 
L 228.559353 -151.546015 
L 229.05408 -151.931099 
L 229.548807 -152.291816 
L 230.043535 -152.635972 
L 230.538262 -152.981038 
L 231.03299 -153.326104 
L 231.527717 -153.697739 
L 232.022444 -154.124261 
L 232.517172 -154.424612 
L 233.011899 -154.725358 
L 233.506627 -155.121517 
L 234.001354 -155.53215 
L 234.496082 -155.942783 
L 234.990809 -156.353416 
L 235.485536 -156.764049 
L 235.980264 -157.174682 
L 236.474991 -157.585315 
L 236.969719 -157.975425 
L 237.464446 -158.313921 
L 237.959173 -158.652417 
L 238.453901 -158.976673 
L 238.948628 -159.29119 
L 239.443356 -159.653044 
L 239.938083 -160.002155 
L 240.43281 -160.33765 
L 240.927538 -160.673145 
L 241.422265 -161.00864 
L 241.916993 -161.344135 
L 242.41172 -161.67963 
L 242.906447 -162.018057 
L 243.401175 -162.356707 
L 243.895902 -162.691277 
L 244.39063 -163.029301 
L 244.885357 -163.493353 
L 245.380084 -163.976607 
L 245.874812 -164.481443 
L 246.369539 -164.930876 
L 246.864267 -165.283572 
L 247.358994 -165.560255 
L 247.853721 -166.051964 
L 248.348449 -166.098674 
L 248.843176 -166.313753 
L 249.337904 -166.556344 
L 249.832631 -166.582283 
L 250.327359 -166.869975 
L 250.822086 -167.101067 
L 251.316813 -167.156415 
L 251.811541 -167.278893 
L 252.306268 -167.452468 
L 252.800996 -167.463779 
L 253.295723 -167.460929 
L 253.79045 -167.492241 
L 254.285178 -167.462291 
L 254.779905 -167.431617 
L 255.274633 -167.399462 
L 255.76936 -167.369777 
L 256.264087 -167.347057 
L 256.758815 -167.331121 
L 257.253542 -167.335466 
L 257.74827 -167.265677 
L 257.74827 -176.140566 
L 257.74827 -176.140566 
L 257.253542 -175.989769 
L 256.758815 -175.83739 
L 256.264087 -175.657115 
L 255.76936 -175.548258 
L 255.274633 -175.436661 
L 254.779905 -175.327356 
L 254.285178 -175.231034 
L 253.79045 -175.134713 
L 253.295723 -174.99976 
L 252.800996 -174.915016 
L 252.306268 -174.83695 
L 251.811541 -174.745526 
L 251.316813 -174.652588 
L 250.822086 -174.55613 
L 250.327359 -174.452954 
L 249.832631 -174.346714 
L 249.337904 -174.267824 
L 248.843176 -174.171503 
L 248.348449 -174.075182 
L 247.853721 -173.978861 
L 247.358994 -173.882519 
L 246.864267 -173.785608 
L 246.369539 -173.689897 
L 245.874812 -173.624317 
L 245.380084 -173.567421 
L 244.885357 -173.467148 
L 244.39063 -173.366725 
L 243.895902 -173.290219 
L 243.401175 -173.249608 
L 242.906447 -173.226107 
L 242.41172 -173.156756 
L 241.916993 -173.059358 
L 241.422265 -172.972617 
L 240.927538 -172.887879 
L 240.43281 -172.804851 
L 239.938083 -172.719038 
L 239.443356 -172.634422 
L 238.948628 -172.553452 
L 238.453901 -172.516801 
L 237.959173 -172.425096 
L 237.464446 -172.323432 
L 236.969719 -172.243937 
L 236.474991 -172.151956 
L 235.980264 -172.081985 
L 235.485536 -172.043877 
L 234.990809 -172.008886 
L 234.496082 -171.979701 
L 234.001354 -171.898925 
L 233.506627 -171.799498 
L 233.011899 -171.795769 
L 232.517172 -171.760006 
L 232.022444 -171.766884 
L 231.527717 -171.719004 
L 231.03299 -171.628444 
L 230.538262 -171.619974 
L 230.043535 -171.646333 
L 229.548807 -171.672691 
L 229.05408 -171.69905 
L 228.559353 -171.725408 
L 228.064625 -171.751766 
L 227.569898 -171.778125 
L 227.07517 -171.804483 
L 226.580443 -171.830842 
L 226.085716 -171.8572 
L 225.590988 -171.866239 
L 225.096261 -171.90395 
L 224.601533 -171.938054 
L 224.106806 -171.978187 
L 223.612079 -172.037172 
L 223.117351 -172.096157 
L 222.622624 -172.146804 
L 222.127896 -172.199403 
L 221.633169 -172.274192 
L 221.138442 -172.328767 
L 220.643714 -172.351158 
L 220.148987 -172.390951 
L 219.654259 -172.43978 
L 219.159532 -172.48861 
L 218.664805 -172.537439 
L 218.170077 -172.586268 
L 217.67535 -172.635098 
L 217.180622 -172.683927 
L 216.685895 -172.732757 
L 216.191167 -172.781586 
L 215.69644 -172.830415 
L 215.201713 -172.878526 
L 214.706985 -172.926556 
L 214.212258 -172.974587 
L 213.71753 -173.022617 
L 213.222803 -173.070648 
L 212.728076 -173.118678 
L 212.233348 -173.166709 
L 211.738621 -173.20667 
L 211.243893 -173.234496 
L 210.749166 -173.289605 
L 210.254439 -173.346942 
L 209.759711 -173.404279 
L 209.264984 -173.457861 
L 208.770256 -173.506648 
z
" style="stroke: #ffffff; stroke-opacity: 0.15"/>
    </defs>
    <g clip-path="url(#p7c4c7bd4c4)">
     <use xlink:href="#m56755ded9e" x="0" y="216" style="fill: #fc8d62; fill-opacity: 0.15; stroke: #ffffff; stroke-opacity: 0.15"/>
    </g>
   </g>
   <g id="line2d_12">
    <path d="M 79.903662 71.903424 
L 81.700072 71.866177 
L 83.496482 71.828931 
L 85.292892 71.791685 
L 87.089302 71.754438 
L 88.885713 71.717192 
L 90.682123 71.679946 
L 92.478533 71.642699 
L 94.274943 71.605453 
L 96.071353 71.568207 
L 97.867763 71.53096 
L 99.664174 71.493714 
L 101.460584 71.456468 
L 103.256994 71.419221 
L 105.053404 71.381975 
L 106.849814 71.344729 
L 108.646225 71.307482 
L 110.442635 71.270236 
L 112.239045 71.23299 
L 114.035455 71.195744 
L 115.831865 71.158497 
L 117.628275 71.121251 
L 119.424686 71.084005 
L 121.221096 71.046758 
L 123.017506 71.009512 
L 124.813916 70.972266 
L 126.610326 70.935019 
L 128.406737 70.897773 
L 130.203147 70.860527 
L 131.999557 70.82328 
L 133.795967 70.786034 
L 135.592377 70.748788 
L 137.388787 70.711541 
L 139.185198 70.674295 
L 140.981608 70.637049 
L 142.778018 70.599802 
L 144.574428 70.562556 
L 146.370838 70.52531 
L 148.167249 70.488063 
L 149.963659 70.450817 
L 151.760069 70.413571 
L 153.556479 70.376324 
L 155.352889 70.339078 
L 157.149299 70.301832 
L 158.94571 70.264586 
L 160.74212 70.227339 
L 162.53853 70.190093 
L 164.33494 70.152847 
L 166.13135 70.1156 
L 167.927761 70.078354 
L 169.724171 70.041108 
L 171.520581 70.003861 
L 173.316991 69.966615 
L 175.113401 69.929369 
L 176.909811 69.892122 
L 178.706222 69.854876 
L 180.502632 69.81763 
L 182.299042 69.780383 
L 184.095452 69.743137 
L 185.891862 69.705891 
L 187.688273 69.668644 
L 189.484683 69.631398 
L 191.281093 69.594152 
L 193.077503 69.556905 
L 194.873913 69.519659 
L 196.670323 69.482413 
L 198.466734 69.445167 
L 200.263144 69.40792 
L 202.059554 69.370674 
L 203.855964 69.333428 
L 205.652374 69.296181 
L 207.448785 69.258935 
L 209.245195 69.221689 
L 211.041605 69.184442 
L 212.838015 69.147196 
L 214.634425 69.10995 
L 216.430835 69.072703 
L 218.227246 69.035457 
L 220.023656 68.998211 
L 221.820066 68.960964 
L 223.616476 68.923718 
L 225.412886 68.886472 
L 227.209297 68.849225 
L 229.005707 68.811979 
L 230.802117 68.774733 
L 232.598527 68.737486 
L 234.394937 68.70024 
L 236.191347 68.662994 
L 237.987758 68.625747 
L 239.784168 68.588501 
L 241.580578 68.551255 
L 243.376988 68.514009 
L 245.173398 68.476762 
L 246.969809 68.439516 
L 248.766219 68.40227 
L 250.562629 68.365023 
L 252.359039 68.327777 
L 254.155449 68.290531 
L 255.951859 68.253284 
L 257.74827 68.216038 
" clip-path="url(#p7c4c7bd4c4)" style="fill: none; stroke: #66c2a5; stroke-width: 2.25; stroke-linecap: round"/>
   </g>
   <g id="line2d_13">
    <path d="M 208.770256 49.350325 
L 209.264984 49.298438 
L 209.759711 49.246551 
L 210.254439 49.194664 
L 210.749166 49.142776 
L 211.243893 49.090889 
L 211.738621 49.039002 
L 212.233348 48.987115 
L 212.728076 48.935228 
L 213.222803 48.883341 
L 213.71753 48.831454 
L 214.212258 48.779567 
L 214.706985 48.72768 
L 215.201713 48.675793 
L 215.69644 48.623906 
L 216.191167 48.572019 
L 216.685895 48.520132 
L 217.180622 48.468245 
L 217.67535 48.416358 
L 218.170077 48.364471 
L 218.664805 48.312584 
L 219.159532 48.260697 
L 219.654259 48.20881 
L 220.148987 48.156923 
L 220.643714 48.105036 
L 221.138442 48.053149 
L 221.633169 48.001262 
L 222.127896 47.949375 
L 222.622624 47.897488 
L 223.117351 47.845601 
L 223.612079 47.793714 
L 224.106806 47.741826 
L 224.601533 47.689939 
L 225.096261 47.638052 
L 225.590988 47.586165 
L 226.085716 47.534278 
L 226.580443 47.482391 
L 227.07517 47.430504 
L 227.569898 47.378617 
L 228.064625 47.32673 
L 228.559353 47.274843 
L 229.05408 47.222956 
L 229.548807 47.171069 
L 230.043535 47.119182 
L 230.538262 47.067295 
L 231.03299 47.015408 
L 231.527717 46.963521 
L 232.022444 46.911634 
L 232.517172 46.859747 
L 233.011899 46.80786 
L 233.506627 46.755973 
L 234.001354 46.704086 
L 234.496082 46.652199 
L 234.990809 46.600312 
L 235.485536 46.548425 
L 235.980264 46.496538 
L 236.474991 46.444651 
L 236.969719 46.392763 
L 237.464446 46.340876 
L 237.959173 46.288989 
L 238.453901 46.237102 
L 238.948628 46.185215 
L 239.443356 46.133328 
L 239.938083 46.081441 
L 240.43281 46.029554 
L 240.927538 45.977667 
L 241.422265 45.92578 
L 241.916993 45.873893 
L 242.41172 45.822006 
L 242.906447 45.770119 
L 243.401175 45.718232 
L 243.895902 45.666345 
L 244.39063 45.614458 
L 244.885357 45.562571 
L 245.380084 45.510684 
L 245.874812 45.458797 
L 246.369539 45.40691 
L 246.864267 45.355023 
L 247.358994 45.303136 
L 247.853721 45.251249 
L 248.348449 45.199362 
L 248.843176 45.147475 
L 249.337904 45.095588 
L 249.832631 45.043701 
L 250.327359 44.991813 
L 250.822086 44.939926 
L 251.316813 44.888039 
L 251.811541 44.836152 
L 252.306268 44.784265 
L 252.800996 44.732378 
L 253.295723 44.680491 
L 253.79045 44.628604 
L 254.285178 44.576717 
L 254.779905 44.52483 
L 255.274633 44.472943 
L 255.76936 44.421056 
L 256.264087 44.369169 
L 256.758815 44.317282 
L 257.253542 44.265395 
L 257.74827 44.213508 
" clip-path="url(#p7c4c7bd4c4)" style="fill: none; stroke: #fc8d62; stroke-width: 2.25; stroke-linecap: round"/>
   </g>
   <g id="patch_3">
    <path d="M 71.011431 165.78 
L 71.011431 16.927589 
" style="fill: none; stroke: #262626; stroke-width: 1.25; stroke-linejoin: miter; stroke-linecap: square"/>
   </g>
   <g id="patch_4">
    <path d="M 71.011431 165.78 
L 266.6405 165.78 
" style="fill: none; stroke: #262626; stroke-width: 1.25; stroke-linejoin: miter; stroke-linecap: square"/>
   </g>
   <g id="PathCollection_1">
    <defs>
     <path id="m9548947d39" d="M 0 2.738613 
C 0.726289 2.738613 1.422928 2.450055 1.936492 1.936492 
C 2.450055 1.422928 2.738613 0.726289 2.738613 0 
C 2.738613 -0.726289 2.450055 -1.422928 1.936492 -1.936492 
C 1.422928 -2.450055 0.726289 -2.738613 0 -2.738613 
C -0.726289 -2.738613 -1.422928 -2.450055 -1.936492 -1.936492 
C -2.450055 -1.422928 -2.738613 -0.726289 -2.738613 0 
C -2.738613 0.726289 -2.450055 1.422928 -1.936492 1.936492 
C -1.422928 2.450055 -0.726289 2.738613 0 2.738613 
z
" style="stroke: #ffffff; stroke-opacity: 0.8; stroke-width: 0.5"/>
    </defs>
    <g>
     <use xlink:href="#m9548947d39" x="79.903662" y="75.862118" style="fill: #66c2a5; fill-opacity: 0.8; stroke: #ffffff; stroke-opacity: 0.8; stroke-width: 0.5"/>
     <use xlink:href="#m9548947d39" x="257.74827" y="73.182484" style="fill: #66c2a5; fill-opacity: 0.8; stroke: #ffffff; stroke-opacity: 0.8; stroke-width: 0.5"/>
     <use xlink:href="#m9548947d39" x="257.74827" y="56.534517" style="fill: #66c2a5; fill-opacity: 0.8; stroke: #ffffff; stroke-opacity: 0.8; stroke-width: 0.5"/>
     <use xlink:href="#m9548947d39" x="257.74827" y="75.532785" style="fill: #66c2a5; fill-opacity: 0.8; stroke: #ffffff; stroke-opacity: 0.8; stroke-width: 0.5"/>
     <use xlink:href="#m9548947d39" x="257.74827" y="76.620888" style="fill: #66c2a5; fill-opacity: 0.8; stroke: #ffffff; stroke-opacity: 0.8; stroke-width: 0.5"/>
     <use xlink:href="#m9548947d39" x="257.74827" y="58.007936" style="fill: #66c2a5; fill-opacity: 0.8; stroke: #ffffff; stroke-opacity: 0.8; stroke-width: 0.5"/>
     <use xlink:href="#m9548947d39" x="110.81423" y="67.763734" style="fill: #66c2a5; fill-opacity: 0.8; stroke: #ffffff; stroke-opacity: 0.8; stroke-width: 0.5"/>
     <use xlink:href="#m9548947d39" x="238.157064" y="55.903418" style="fill: #66c2a5; fill-opacity: 0.8; stroke: #ffffff; stroke-opacity: 0.8; stroke-width: 0.5"/>
     <use xlink:href="#m9548947d39" x="257.74827" y="79.275858" style="fill: #66c2a5; fill-opacity: 0.8; stroke: #ffffff; stroke-opacity: 0.8; stroke-width: 0.5"/>
     <use xlink:href="#m9548947d39" x="257.74827" y="51.181053" style="fill: #66c2a5; fill-opacity: 0.8; stroke: #ffffff; stroke-opacity: 0.8; stroke-width: 0.5"/>
     <use xlink:href="#m9548947d39" x="257.74827" y="81.604397" style="fill: #66c2a5; fill-opacity: 0.8; stroke: #ffffff; stroke-opacity: 0.8; stroke-width: 0.5"/>
     <use xlink:href="#m9548947d39" x="247.952667" y="74.466445" style="fill: #66c2a5; fill-opacity: 0.8; stroke: #ffffff; stroke-opacity: 0.8; stroke-width: 0.5"/>
    </g>
   </g>
   <g id="PathCollection_2">
    <defs>
     <path id="m59e4e03974" d="M 0 2.738613 
C 0.726289 2.738613 1.422928 2.450055 1.936492 1.936492 
C 2.450055 1.422928 2.738613 0.726289 2.738613 0 
C 2.738613 -0.726289 2.450055 -1.422928 1.936492 -1.936492 
C 1.422928 -2.450055 0.726289 -2.738613 0 -2.738613 
C -0.726289 -2.738613 -1.422928 -2.450055 -1.936492 -1.936492 
C -2.450055 -1.422928 -2.738613 -0.726289 -2.738613 0 
C -2.738613 0.726289 -2.450055 1.422928 -1.936492 1.936492 
C -1.422928 2.450055 -0.726289 2.738613 0 2.738613 
z
" style="stroke: #ffffff; stroke-opacity: 0.8; stroke-width: 0.5"/>
    </defs>
    <g>
     <use xlink:href="#m59e4e03974" x="257.74827" y="45.261776" style="fill: #fc8d62; fill-opacity: 0.8; stroke: #ffffff; stroke-opacity: 0.8; stroke-width: 0.5"/>
     <use xlink:href="#m59e4e03974" x="257.74827" y="42.780903" style="fill: #fc8d62; fill-opacity: 0.8; stroke: #ffffff; stroke-opacity: 0.8; stroke-width: 0.5"/>
     <use xlink:href="#m59e4e03974" x="257.74827" y="31.508162" style="fill: #fc8d62; fill-opacity: 0.8; stroke: #ffffff; stroke-opacity: 0.8; stroke-width: 0.5"/>
     <use xlink:href="#m59e4e03974" x="225.096261" y="45.109442" style="fill: #fc8d62; fill-opacity: 0.8; stroke: #ffffff; stroke-opacity: 0.8; stroke-width: 0.5"/>
     <use xlink:href="#m59e4e03974" x="254.483069" y="44.695963" style="fill: #fc8d62; fill-opacity: 0.8; stroke: #ffffff; stroke-opacity: 0.8; stroke-width: 0.5"/>
     <use xlink:href="#m59e4e03974" x="254.483069" y="42.062755" style="fill: #fc8d62; fill-opacity: 0.8; stroke: #ffffff; stroke-opacity: 0.8; stroke-width: 0.5"/>
     <use xlink:href="#m59e4e03974" x="208.770256" y="49.918855" style="fill: #fc8d62; fill-opacity: 0.8; stroke: #ffffff; stroke-opacity: 0.8; stroke-width: 0.5"/>
     <use xlink:href="#m59e4e03974" x="257.74827" y="55.881656" style="fill: #fc8d62; fill-opacity: 0.8; stroke: #ffffff; stroke-opacity: 0.8; stroke-width: 0.5"/>
     <use xlink:href="#m59e4e03974" x="254.483069" y="51.006957" style="fill: #fc8d62; fill-opacity: 0.8; stroke: #ffffff; stroke-opacity: 0.8; stroke-width: 0.5"/>
     <use xlink:href="#m59e4e03974" x="247.952667" y="44.021339" style="fill: #fc8d62; fill-opacity: 0.8; stroke: #ffffff; stroke-opacity: 0.8; stroke-width: 0.5"/>
     <use xlink:href="#m59e4e03974" x="247.952667" y="50.680526" style="fill: #fc8d62; fill-opacity: 0.8; stroke: #ffffff; stroke-opacity: 0.8; stroke-width: 0.5"/>
     <use xlink:href="#m59e4e03974" x="257.74827" y="39.277213" style="fill: #fc8d62; fill-opacity: 0.8; stroke: #ffffff; stroke-opacity: 0.8; stroke-width: 0.5"/>
    </g>
   </g>
  </g>
  <g id="legend_1">
   <g id="text_14">
    <text style="fill: #262626; font: 12px 'Arial', 'DejaVu Sans', 'Liberation Sans', 'Bitstream Vera Sans', sans-serif; text-anchor: start" x="268.781875" y="95.165312" transform="rotate(-0 268.781875 95.165312)">multiplier</text>
   </g>
   <g id="PathCollection_3">
    <g>
     <use xlink:href="#m9548947d39" x="284.269219" y="108.631719" style="fill: #66c2a5; fill-opacity: 0.8; stroke: #ffffff; stroke-opacity: 0.8; stroke-width: 0.5"/>
    </g>
   </g>
   <g id="text_15">
    <text style="fill: #262626; font: 11px 'Arial', 'DejaVu Sans', 'Liberation Sans', 'Bitstream Vera Sans', sans-serif; text-anchor: start" x="304.069219" y="111.519219" transform="rotate(-0 304.069219 111.519219)">1.5</text>
   </g>
   <g id="PathCollection_4">
    <g>
     <use xlink:href="#m59e4e03974" x="284.269219" y="124.777656" style="fill: #fc8d62; fill-opacity: 0.8; stroke: #ffffff; stroke-opacity: 0.8; stroke-width: 0.5"/>
    </g>
   </g>
   <g id="text_16">
    <text style="fill: #262626; font: 11px 'Arial', 'DejaVu Sans', 'Liberation Sans', 'Bitstream Vera Sans', sans-serif; text-anchor: start" x="304.069219" y="127.665156" transform="rotate(-0 304.069219 127.665156)">2.5</text>
   </g>
  </g>
 </g>
 <defs>
  <clipPath id="p7c4c7bd4c4">
   <rect x="71.011431" y="16.927589" width="195.629069" height="148.852411"/>
  </clipPath>
 </defs>
</svg>
