<?xml version="1.0" encoding="utf-8" standalone="no"?>
<!DOCTYPE svg PUBLIC "-//W3C//DTD SVG 1.1//EN"
  "http://www.w3.org/Graphics/SVG/1.1/DTD/svg11.dtd">
<svg xmlns:xlink="http://www.w3.org/1999/xlink" width="270pt" height="216pt" viewBox="0 0 270 216" xmlns="http://www.w3.org/2000/svg" version="1.1">
 <metadata>
  <rdf:RDF xmlns:dc="http://purl.org/dc/elements/1.1/" xmlns:cc="http://creativecommons.org/ns#" xmlns:rdf="http://www.w3.org/1999/02/22-rdf-syntax-ns#">
   <cc:Work>
    <dc:type rdf:resource="http://purl.org/dc/dcmitype/StillImage"/>
    <dc:date>2023-05-19T18:38:51.836663</dc:date>
    <dc:format>image/svg+xml</dc:format>
    <dc:creator>
     <cc:Agent>
      <dc:title>Matplotlib v3.7.0, https://matplotlib.org/</dc:title>
     </cc:Agent>
    </dc:creator>
   </cc:Work>
  </rdf:RDF>
 </metadata>
 <defs>
  <style type="text/css">*{stroke-linejoin: round; stroke-linecap: butt}</style>
 </defs>
 <g id="figure_1">
  <g id="patch_1">
   <path d="M 0 216 
L 270 216 
L 270 0 
L 0 0 
z
" style="fill: #ffffff"/>
  </g>
  <g id="axes_1">
   <g id="patch_2">
    <path d="M 33.75 192.24 
L 243 192.24 
L 243 25.92 
L 33.75 25.92 
z
" style="fill: #ffffff"/>
   </g>
   <g id="patch_3">
    <path d="M 44.2125 192.24 
L 65.1375 192.24 
L 65.1375 168.28992 
L 44.2125 168.28992 
z
" style="fill: #66c2a5; fill-opacity: 0.2; stroke: #ffffff; stroke-linejoin: miter"/>
   </g>
   <g id="patch_4">
    <path d="M 148.8375 192.24 
L 169.7625 192.24 
L 169.7625 146.832 
L 148.8375 146.832 
z
" style="fill: #fc8d62; fill-opacity: 0.2; stroke: #ffffff; stroke-linejoin: miter"/>
   </g>
   <g id="patch_5">
    <path d="M 65.1375 192.24 
L 86.0625 192.24 
L 86.0625 173.61216 
L 65.1375 173.61216 
z
" style="fill: #66c2a5; fill-opacity: 0.4; stroke: #ffffff; stroke-linejoin: miter"/>
   </g>
   <g id="patch_6">
    <path d="M 169.7625 192.24 
L 190.6875 192.24 
L 190.6875 137.328 
L 169.7625 137.328 
z
" style="fill: #fc8d62; fill-opacity: 0.4; stroke: #ffffff; stroke-linejoin: miter"/>
   </g>
   <g id="patch_7">
    <path d="M 86.0625 192.24 
L 106.9875 192.24 
L 106.9875 174.05568 
L 86.0625 174.05568 
z
" style="fill: #66c2a5; fill-opacity: 0.6; stroke: #ffffff; stroke-linejoin: miter"/>
   </g>
   <g id="patch_8">
    <path d="M 190.6875 192.24 
L 211.6125 192.24 
L 211.6125 153.168 
L 190.6875 153.168 
z
" style="fill: #fc8d62; fill-opacity: 0.6; stroke: #ffffff; stroke-linejoin: miter"/>
   </g>
   <g id="patch_9">
    <path d="M 106.9875 192.24 
L 127.9125 192.24 
L 127.9125 168.73344 
L 106.9875 168.73344 
z
" style="fill: #66c2a5; fill-opacity: 0.8; stroke: #ffffff; stroke-linejoin: miter"/>
   </g>
   <g id="patch_10">
    <path d="M 211.6125 192.24 
L 232.5375 192.24 
L 232.5375 134.16 
L 211.6125 134.16 
z
" style="fill: #fc8d62; fill-opacity: 0.8; stroke: #ffffff; stroke-linejoin: miter"/>
   </g>
   <g id="matplotlib.axis_1">
    <g id="xtick_1">
     <g id="line2d_1"/>
     <g id="text_1">
      <text style="fill: #262626; font: 11px 'Arial', 'DejaVu Sans', 'Liberation Sans', 'Bitstream Vera Sans', sans-serif; text-anchor: middle" x="86.0625" y="204.098281" transform="rotate(-0 86.0625 204.098281)">1.5</text>
     </g>
    </g>
    <g id="xtick_2">
     <g id="line2d_2"/>
     <g id="text_2">
      <text style="fill: #262626; font: 11px 'Arial', 'DejaVu Sans', 'Liberation Sans', 'Bitstream Vera Sans', sans-serif; text-anchor: middle" x="190.6875" y="204.098281" transform="rotate(-0 190.6875 204.098281)">2.5</text>
     </g>
    </g>
    <g id="text_3">
     <text style="fill: #262626; font: 12px 'Arial', 'DejaVu Sans', 'Liberation Sans', 'Bitstream Vera Sans', sans-serif; text-anchor: middle" x="138.375" y="219.504063" transform="rotate(-0 138.375 219.504063)">multiplier</text>
    </g>
   </g>
   <g id="matplotlib.axis_2">
    <g id="ytick_1">
     <g id="line2d_3">
      <defs>
       <path id="me5dcabae4e" d="M 0 0 
L -6 0 
" style="stroke: #262626; stroke-width: 1.25"/>
      </defs>
      <g>
       <use xlink:href="#me5dcabae4e" x="33.75" y="192.24" style="fill: #262626; stroke: #262626; stroke-width: 1.25"/>
      </g>
     </g>
     <g id="text_4">
      <text style="fill: #262626; font: 11px 'Arial', 'DejaVu Sans', 'Liberation Sans', 'Bitstream Vera Sans', sans-serif; text-anchor: end" x="24.25" y="196.419141" transform="rotate(-0 24.25 196.419141)">0.0</text>
     </g>
    </g>
    <g id="ytick_2">
     <g id="line2d_4">
      <g>
       <use xlink:href="#me5dcabae4e" x="33.75" y="158.976" style="fill: #262626; stroke: #262626; stroke-width: 1.25"/>
      </g>
     </g>
     <g id="text_5">
      <text style="fill: #262626; font: 11px 'Arial', 'DejaVu Sans', 'Liberation Sans', 'Bitstream Vera Sans', sans-serif; text-anchor: end" x="24.25" y="163.155141" transform="rotate(-0 24.25 163.155141)">0.2</text>
     </g>
    </g>
    <g id="ytick_3">
     <g id="line2d_5">
      <g>
       <use xlink:href="#me5dcabae4e" x="33.75" y="125.712" style="fill: #262626; stroke: #262626; stroke-width: 1.25"/>
      </g>
     </g>
     <g id="text_6">
      <text style="fill: #262626; font: 11px 'Arial', 'DejaVu Sans', 'Liberation Sans', 'Bitstream Vera Sans', sans-serif; text-anchor: end" x="24.25" y="129.891141" transform="rotate(-0 24.25 129.891141)">0.4</text>
     </g>
    </g>
    <g id="ytick_4">
     <g id="line2d_6">
      <g>
       <use xlink:href="#me5dcabae4e" x="33.75" y="92.448" style="fill: #262626; stroke: #262626; stroke-width: 1.25"/>
      </g>
     </g>
     <g id="text_7">
      <text style="fill: #262626; font: 11px 'Arial', 'DejaVu Sans', 'Liberation Sans', 'Bitstream Vera Sans', sans-serif; text-anchor: end" x="24.25" y="96.627141" transform="rotate(-0 24.25 96.627141)">0.6</text>
     </g>
    </g>
    <g id="ytick_5">
     <g id="line2d_7">
      <g>
       <use xlink:href="#me5dcabae4e" x="33.75" y="59.184" style="fill: #262626; stroke: #262626; stroke-width: 1.25"/>
      </g>
     </g>
     <g id="text_8">
      <text style="fill: #262626; font: 11px 'Arial', 'DejaVu Sans', 'Liberation Sans', 'Bitstream Vera Sans', sans-serif; text-anchor: end" x="24.25" y="63.363141" transform="rotate(-0 24.25 63.363141)">0.8</text>
     </g>
    </g>
    <g id="ytick_6">
     <g id="line2d_8">
      <g>
       <use xlink:href="#me5dcabae4e" x="33.75" y="25.92" style="fill: #262626; stroke: #262626; stroke-width: 1.25"/>
      </g>
     </g>
     <g id="text_9">
      <text style="fill: #262626; font: 11px 'Arial', 'DejaVu Sans', 'Liberation Sans', 'Bitstream Vera Sans', sans-serif; text-anchor: end" x="24.25" y="30.099141" transform="rotate(-0 24.25 30.099141)">1.0</text>
     </g>
    </g>
    <g id="text_10">
     <text style="fill: #262626; font: 12px 'Arial', 'DejaVu Sans', 'Liberation Sans', 'Bitstream Vera Sans', sans-serif; text-anchor: middle" x="0.260938" y="109.08" transform="rotate(-90 0.260938 109.08)">p(disclose)</text>
    </g>
   </g>
   <g id="PathCollection_1">
    <defs>
     <path id="C0_0_ddbd8588c5" d="M 0 2.5 
C 0.663008 2.5 1.29895 2.236584 1.767767 1.767767 
C 2.236584 1.29895 2.5 0.663008 2.5 -0 
C 2.5 -0.663008 2.236584 -1.29895 1.767767 -1.767767 
C 1.29895 -2.236584 0.663008 -2.5 0 -2.5 
C -0.663008 -2.5 -1.29895 -2.236584 -1.767767 -1.767767 
C -2.236584 -1.29895 -2.5 -0.663008 -2.5 0 
C -2.5 0.663008 -2.236584 1.29895 -1.767767 1.767767 
C -1.29895 2.236584 -0.663008 2.5 0 2.5 
z
"/>
    </defs>
    <use xlink:href="#C0_0_ddbd8588c5" x="54.693366" y="192.24" style="fill: #66c2a5; fill-opacity: 0.8; stroke: #ffffff; stroke-opacity: 0.8; stroke-width: 0.5"/>
    <use xlink:href="#C0_0_ddbd8588c5" x="57.248166" y="192.24" style="fill: #66c2a5; fill-opacity: 0.8; stroke: #ffffff; stroke-opacity: 0.8; stroke-width: 0.5"/>
    <use xlink:href="#C0_0_ddbd8588c5" x="56.221565" y="158.976" style="fill: #66c2a5; fill-opacity: 0.8; stroke: #ffffff; stroke-opacity: 0.8; stroke-width: 0.5"/>
    <use xlink:href="#C0_0_ddbd8588c5" x="56.814812" y="192.24" style="fill: #66c2a5; fill-opacity: 0.8; stroke: #ffffff; stroke-opacity: 0.8; stroke-width: 0.5"/>
    <use xlink:href="#C0_0_ddbd8588c5" x="55.465245" y="192.24" style="fill: #66c2a5; fill-opacity: 0.8; stroke: #ffffff; stroke-opacity: 0.8; stroke-width: 0.5"/>
    <use xlink:href="#C0_0_ddbd8588c5" x="57.086595" y="158.976" style="fill: #66c2a5; fill-opacity: 0.8; stroke: #ffffff; stroke-opacity: 0.8; stroke-width: 0.5"/>
    <use xlink:href="#C0_0_ddbd8588c5" x="54.650552" y="170.064" style="fill: #66c2a5; fill-opacity: 0.8; stroke: #ffffff; stroke-opacity: 0.8; stroke-width: 0.5"/>
    <use xlink:href="#C0_0_ddbd8588c5" x="55.937212" y="192.24" style="fill: #66c2a5; fill-opacity: 0.8; stroke: #ffffff; stroke-opacity: 0.8; stroke-width: 0.5"/>
    <use xlink:href="#C0_0_ddbd8588c5" x="52.375451" y="192.24" style="fill: #66c2a5; fill-opacity: 0.8; stroke: #ffffff; stroke-opacity: 0.8; stroke-width: 0.5"/>
    <use xlink:href="#C0_0_ddbd8588c5" x="53.466488" y="192.24" style="fill: #66c2a5; fill-opacity: 0.8; stroke: #ffffff; stroke-opacity: 0.8; stroke-width: 0.5"/>
    <use xlink:href="#C0_0_ddbd8588c5" x="53.193247" y="114.624" style="fill: #66c2a5; fill-opacity: 0.8; stroke: #ffffff; stroke-opacity: 0.8; stroke-width: 0.5"/>
    <use xlink:href="#C0_0_ddbd8588c5" x="53.916971" y="170.064" style="fill: #66c2a5; fill-opacity: 0.8; stroke: #ffffff; stroke-opacity: 0.8; stroke-width: 0.5"/>
    <use xlink:href="#C0_0_ddbd8588c5" x="53.229889" y="81.36" style="fill: #66c2a5; fill-opacity: 0.8; stroke: #ffffff; stroke-opacity: 0.8; stroke-width: 0.5"/>
    <use xlink:href="#C0_0_ddbd8588c5" x="56.798245" y="181.152" style="fill: #66c2a5; fill-opacity: 0.8; stroke: #ffffff; stroke-opacity: 0.8; stroke-width: 0.5"/>
    <use xlink:href="#C0_0_ddbd8588c5" x="56.29435" y="181.152" style="fill: #66c2a5; fill-opacity: 0.8; stroke: #ffffff; stroke-opacity: 0.8; stroke-width: 0.5"/>
    <use xlink:href="#C0_0_ddbd8588c5" x="54.919609" y="170.064" style="fill: #66c2a5; fill-opacity: 0.8; stroke: #ffffff; stroke-opacity: 0.8; stroke-width: 0.5"/>
    <use xlink:href="#C0_0_ddbd8588c5" x="55.733088" y="192.24" style="fill: #66c2a5; fill-opacity: 0.8; stroke: #ffffff; stroke-opacity: 0.8; stroke-width: 0.5"/>
    <use xlink:href="#C0_0_ddbd8588c5" x="53.200438" y="70.272" style="fill: #66c2a5; fill-opacity: 0.8; stroke: #ffffff; stroke-opacity: 0.8; stroke-width: 0.5"/>
    <use xlink:href="#C0_0_ddbd8588c5" x="54.398643" y="192.24" style="fill: #66c2a5; fill-opacity: 0.8; stroke: #ffffff; stroke-opacity: 0.8; stroke-width: 0.5"/>
    <use xlink:href="#C0_0_ddbd8588c5" x="54.695289" y="192.24" style="fill: #66c2a5; fill-opacity: 0.8; stroke: #ffffff; stroke-opacity: 0.8; stroke-width: 0.5"/>
    <use xlink:href="#C0_0_ddbd8588c5" x="55.79876" y="147.888" style="fill: #66c2a5; fill-opacity: 0.8; stroke: #ffffff; stroke-opacity: 0.8; stroke-width: 0.5"/>
    <use xlink:href="#C0_0_ddbd8588c5" x="52.751154" y="192.24" style="fill: #66c2a5; fill-opacity: 0.8; stroke: #ffffff; stroke-opacity: 0.8; stroke-width: 0.5"/>
    <use xlink:href="#C0_0_ddbd8588c5" x="54.245904" y="103.536" style="fill: #66c2a5; fill-opacity: 0.8; stroke: #ffffff; stroke-opacity: 0.8; stroke-width: 0.5"/>
    <use xlink:href="#C0_0_ddbd8588c5" x="56.822414" y="192.24" style="fill: #66c2a5; fill-opacity: 0.8; stroke: #ffffff; stroke-opacity: 0.8; stroke-width: 0.5"/>
    <use xlink:href="#C0_0_ddbd8588c5" x="53.869786" y="192.24" style="fill: #66c2a5; fill-opacity: 0.8; stroke: #ffffff; stroke-opacity: 0.8; stroke-width: 0.5"/>
   </g>
   <g id="PathCollection_2">
    <defs>
     <path id="C1_0_7382ea765a" d="M 0 2.5 
C 0.663008 2.5 1.29895 2.236584 1.767767 1.767767 
C 2.236584 1.29895 2.5 0.663008 2.5 -0 
C 2.5 -0.663008 2.236584 -1.29895 1.767767 -1.767767 
C 1.29895 -2.236584 0.663008 -2.5 0 -2.5 
C -0.663008 -2.5 -1.29895 -2.236584 -1.767767 -1.767767 
C -2.236584 -1.29895 -2.5 -0.663008 -2.5 0 
C -2.5 0.663008 -2.236584 1.29895 -1.767767 1.767767 
C -1.29895 2.236584 -0.663008 2.5 0 2.5 
z
"/>
    </defs>
    <use xlink:href="#C1_0_7382ea765a" x="75.140388" y="181.152" style="fill: #fc8d62; fill-opacity: 0.8; stroke: #ffffff; stroke-opacity: 0.8; stroke-width: 0.5"/>
    <use xlink:href="#C1_0_7382ea765a" x="76.573715" y="192.24" style="fill: #fc8d62; fill-opacity: 0.8; stroke: #ffffff; stroke-opacity: 0.8; stroke-width: 0.5"/>
    <use xlink:href="#C1_0_7382ea765a" x="75.811671" y="181.152" style="fill: #fc8d62; fill-opacity: 0.8; stroke: #ffffff; stroke-opacity: 0.8; stroke-width: 0.5"/>
    <use xlink:href="#C1_0_7382ea765a" x="74.284503" y="192.24" style="fill: #fc8d62; fill-opacity: 0.8; stroke: #ffffff; stroke-opacity: 0.8; stroke-width: 0.5"/>
    <use xlink:href="#C1_0_7382ea765a" x="73.4539" y="192.24" style="fill: #fc8d62; fill-opacity: 0.8; stroke: #ffffff; stroke-opacity: 0.8; stroke-width: 0.5"/>
    <use xlink:href="#C1_0_7382ea765a" x="77.839079" y="170.064" style="fill: #fc8d62; fill-opacity: 0.8; stroke: #ffffff; stroke-opacity: 0.8; stroke-width: 0.5"/>
    <use xlink:href="#C1_0_7382ea765a" x="73.110698" y="125.712" style="fill: #fc8d62; fill-opacity: 0.8; stroke: #ffffff; stroke-opacity: 0.8; stroke-width: 0.5"/>
    <use xlink:href="#C1_0_7382ea765a" x="76.868341" y="181.152" style="fill: #fc8d62; fill-opacity: 0.8; stroke: #ffffff; stroke-opacity: 0.8; stroke-width: 0.5"/>
    <use xlink:href="#C1_0_7382ea765a" x="73.669617" y="192.24" style="fill: #fc8d62; fill-opacity: 0.8; stroke: #ffffff; stroke-opacity: 0.8; stroke-width: 0.5"/>
    <use xlink:href="#C1_0_7382ea765a" x="75.088045" y="114.624" style="fill: #fc8d62; fill-opacity: 0.8; stroke: #ffffff; stroke-opacity: 0.8; stroke-width: 0.5"/>
    <use xlink:href="#C1_0_7382ea765a" x="73.37134" y="103.536" style="fill: #fc8d62; fill-opacity: 0.8; stroke: #ffffff; stroke-opacity: 0.8; stroke-width: 0.5"/>
    <use xlink:href="#C1_0_7382ea765a" x="74.427238" y="192.24" style="fill: #fc8d62; fill-opacity: 0.8; stroke: #ffffff; stroke-opacity: 0.8; stroke-width: 0.5"/>
    <use xlink:href="#C1_0_7382ea765a" x="75.598749" y="192.24" style="fill: #fc8d62; fill-opacity: 0.8; stroke: #ffffff; stroke-opacity: 0.8; stroke-width: 0.5"/>
    <use xlink:href="#C1_0_7382ea765a" x="74.732118" y="170.064" style="fill: #fc8d62; fill-opacity: 0.8; stroke: #ffffff; stroke-opacity: 0.8; stroke-width: 0.5"/>
    <use xlink:href="#C1_0_7382ea765a" x="76.065296" y="170.064" style="fill: #fc8d62; fill-opacity: 0.8; stroke: #ffffff; stroke-opacity: 0.8; stroke-width: 0.5"/>
    <use xlink:href="#C1_0_7382ea765a" x="75.158493" y="170.064" style="fill: #fc8d62; fill-opacity: 0.8; stroke: #ffffff; stroke-opacity: 0.8; stroke-width: 0.5"/>
    <use xlink:href="#C1_0_7382ea765a" x="73.346702" y="170.064" style="fill: #fc8d62; fill-opacity: 0.8; stroke: #ffffff; stroke-opacity: 0.8; stroke-width: 0.5"/>
    <use xlink:href="#C1_0_7382ea765a" x="73.368743" y="147.888" style="fill: #fc8d62; fill-opacity: 0.8; stroke: #ffffff; stroke-opacity: 0.8; stroke-width: 0.5"/>
    <use xlink:href="#C1_0_7382ea765a" x="73.275811" y="181.152" style="fill: #fc8d62; fill-opacity: 0.8; stroke: #ffffff; stroke-opacity: 0.8; stroke-width: 0.5"/>
    <use xlink:href="#C1_0_7382ea765a" x="77.938168" y="192.24" style="fill: #fc8d62; fill-opacity: 0.8; stroke: #ffffff; stroke-opacity: 0.8; stroke-width: 0.5"/>
    <use xlink:href="#C1_0_7382ea765a" x="77.937977" y="170.064" style="fill: #fc8d62; fill-opacity: 0.8; stroke: #ffffff; stroke-opacity: 0.8; stroke-width: 0.5"/>
    <use xlink:href="#C1_0_7382ea765a" x="73.725532" y="192.24" style="fill: #fc8d62; fill-opacity: 0.8; stroke: #ffffff; stroke-opacity: 0.8; stroke-width: 0.5"/>
    <use xlink:href="#C1_0_7382ea765a" x="74.7099" y="192.24" style="fill: #fc8d62; fill-opacity: 0.8; stroke: #ffffff; stroke-opacity: 0.8; stroke-width: 0.5"/>
    <use xlink:href="#C1_0_7382ea765a" x="76.202758" y="192.24" style="fill: #fc8d62; fill-opacity: 0.8; stroke: #ffffff; stroke-opacity: 0.8; stroke-width: 0.5"/>
    <use xlink:href="#C1_0_7382ea765a" x="73.998511" y="181.152" style="fill: #fc8d62; fill-opacity: 0.8; stroke: #ffffff; stroke-opacity: 0.8; stroke-width: 0.5"/>
   </g>
   <g id="PathCollection_3">
    <defs>
     <path id="C2_0_2555fa0f17" d="M 0 2.5 
C 0.663008 2.5 1.29895 2.236584 1.767767 1.767767 
C 2.236584 1.29895 2.5 0.663008 2.5 -0 
C 2.5 -0.663008 2.236584 -1.29895 1.767767 -1.767767 
C 1.29895 -2.236584 0.663008 -2.5 0 -2.5 
C -0.663008 -2.5 -1.29895 -2.236584 -1.767767 -1.767767 
C -2.236584 -1.29895 -2.5 -0.663008 -2.5 0 
C -2.5 0.663008 -2.236584 1.29895 -1.767767 1.767767 
C -1.29895 2.236584 -0.663008 2.5 0 2.5 
z
"/>
    </defs>
    <use xlink:href="#C2_0_2555fa0f17" x="95.582379" y="192.24" style="fill: #66c2a5; fill-opacity: 0.8; stroke: #ffffff; stroke-opacity: 0.8; stroke-width: 0.5"/>
    <use xlink:href="#C2_0_2555fa0f17" x="95.297323" y="192.24" style="fill: #66c2a5; fill-opacity: 0.8; stroke: #ffffff; stroke-opacity: 0.8; stroke-width: 0.5"/>
    <use xlink:href="#C2_0_2555fa0f17" x="96.38717" y="59.184" style="fill: #66c2a5; fill-opacity: 0.8; stroke: #ffffff; stroke-opacity: 0.8; stroke-width: 0.5"/>
    <use xlink:href="#C2_0_2555fa0f17" x="95.044763" y="192.24" style="fill: #66c2a5; fill-opacity: 0.8; stroke: #ffffff; stroke-opacity: 0.8; stroke-width: 0.5"/>
    <use xlink:href="#C2_0_2555fa0f17" x="98.376434" y="181.152" style="fill: #66c2a5; fill-opacity: 0.8; stroke: #ffffff; stroke-opacity: 0.8; stroke-width: 0.5"/>
    <use xlink:href="#C2_0_2555fa0f17" x="95.925624" y="192.24" style="fill: #66c2a5; fill-opacity: 0.8; stroke: #ffffff; stroke-opacity: 0.8; stroke-width: 0.5"/>
    <use xlink:href="#C2_0_2555fa0f17" x="94.46314" y="158.976" style="fill: #66c2a5; fill-opacity: 0.8; stroke: #ffffff; stroke-opacity: 0.8; stroke-width: 0.5"/>
    <use xlink:href="#C2_0_2555fa0f17" x="97.398832" y="192.24" style="fill: #66c2a5; fill-opacity: 0.8; stroke: #ffffff; stroke-opacity: 0.8; stroke-width: 0.5"/>
    <use xlink:href="#C2_0_2555fa0f17" x="94.517069" y="192.24" style="fill: #66c2a5; fill-opacity: 0.8; stroke: #ffffff; stroke-opacity: 0.8; stroke-width: 0.5"/>
    <use xlink:href="#C2_0_2555fa0f17" x="94.67954" y="181.152" style="fill: #66c2a5; fill-opacity: 0.8; stroke: #ffffff; stroke-opacity: 0.8; stroke-width: 0.5"/>
    <use xlink:href="#C2_0_2555fa0f17" x="98.360153" y="81.36" style="fill: #66c2a5; fill-opacity: 0.8; stroke: #ffffff; stroke-opacity: 0.8; stroke-width: 0.5"/>
    <use xlink:href="#C2_0_2555fa0f17" x="93.977108" y="192.24" style="fill: #66c2a5; fill-opacity: 0.8; stroke: #ffffff; stroke-opacity: 0.8; stroke-width: 0.5"/>
    <use xlink:href="#C2_0_2555fa0f17" x="93.956657" y="192.24" style="fill: #66c2a5; fill-opacity: 0.8; stroke: #ffffff; stroke-opacity: 0.8; stroke-width: 0.5"/>
    <use xlink:href="#C2_0_2555fa0f17" x="95.643312" y="136.8" style="fill: #66c2a5; fill-opacity: 0.8; stroke: #ffffff; stroke-opacity: 0.8; stroke-width: 0.5"/>
    <use xlink:href="#C2_0_2555fa0f17" x="98.687874" y="170.064" style="fill: #66c2a5; fill-opacity: 0.8; stroke: #ffffff; stroke-opacity: 0.8; stroke-width: 0.5"/>
    <use xlink:href="#C2_0_2555fa0f17" x="94.662579" y="158.976" style="fill: #66c2a5; fill-opacity: 0.8; stroke: #ffffff; stroke-opacity: 0.8; stroke-width: 0.5"/>
    <use xlink:href="#C2_0_2555fa0f17" x="97.154154" y="192.24" style="fill: #66c2a5; fill-opacity: 0.8; stroke: #ffffff; stroke-opacity: 0.8; stroke-width: 0.5"/>
    <use xlink:href="#C2_0_2555fa0f17" x="96.299517" y="170.064" style="fill: #66c2a5; fill-opacity: 0.8; stroke: #ffffff; stroke-opacity: 0.8; stroke-width: 0.5"/>
    <use xlink:href="#C2_0_2555fa0f17" x="98.749386" y="181.152" style="fill: #66c2a5; fill-opacity: 0.8; stroke: #ffffff; stroke-opacity: 0.8; stroke-width: 0.5"/>
    <use xlink:href="#C2_0_2555fa0f17" x="97.766219" y="192.24" style="fill: #66c2a5; fill-opacity: 0.8; stroke: #ffffff; stroke-opacity: 0.8; stroke-width: 0.5"/>
    <use xlink:href="#C2_0_2555fa0f17" x="97.044703" y="181.152" style="fill: #66c2a5; fill-opacity: 0.8; stroke: #ffffff; stroke-opacity: 0.8; stroke-width: 0.5"/>
    <use xlink:href="#C2_0_2555fa0f17" x="97.572312" y="192.24" style="fill: #66c2a5; fill-opacity: 0.8; stroke: #ffffff; stroke-opacity: 0.8; stroke-width: 0.5"/>
    <use xlink:href="#C2_0_2555fa0f17" x="96.48335" y="192.24" style="fill: #66c2a5; fill-opacity: 0.8; stroke: #ffffff; stroke-opacity: 0.8; stroke-width: 0.5"/>
    <use xlink:href="#C2_0_2555fa0f17" x="97.583177" y="192.24" style="fill: #66c2a5; fill-opacity: 0.8; stroke: #ffffff; stroke-opacity: 0.8; stroke-width: 0.5"/>
    <use xlink:href="#C2_0_2555fa0f17" x="95.597248" y="192.24" style="fill: #66c2a5; fill-opacity: 0.8; stroke: #ffffff; stroke-opacity: 0.8; stroke-width: 0.5"/>
   </g>
   <g id="PathCollection_4">
    <defs>
     <path id="C3_0_1da58ea958" d="M 0 2.5 
C 0.663008 2.5 1.29895 2.236584 1.767767 1.767767 
C 2.236584 1.29895 2.5 0.663008 2.5 -0 
C 2.5 -0.663008 2.236584 -1.29895 1.767767 -1.767767 
C 1.29895 -2.236584 0.663008 -2.5 0 -2.5 
C -0.663008 -2.5 -1.29895 -2.236584 -1.767767 -1.767767 
C -2.236584 -1.29895 -2.5 -0.663008 -2.5 0 
C -2.5 0.663008 -2.236584 1.29895 -1.767767 1.767767 
C -1.29895 2.236584 -0.663008 2.5 0 2.5 
z
"/>
    </defs>
    <use xlink:href="#C3_0_1da58ea958" x="115.047198" y="192.24" style="fill: #fc8d62; fill-opacity: 0.8; stroke: #ffffff; stroke-opacity: 0.8; stroke-width: 0.5"/>
    <use xlink:href="#C3_0_1da58ea958" x="119.718466" y="192.24" style="fill: #fc8d62; fill-opacity: 0.8; stroke: #ffffff; stroke-opacity: 0.8; stroke-width: 0.5"/>
    <use xlink:href="#C3_0_1da58ea958" x="117.434783" y="158.976" style="fill: #fc8d62; fill-opacity: 0.8; stroke: #ffffff; stroke-opacity: 0.8; stroke-width: 0.5"/>
    <use xlink:href="#C3_0_1da58ea958" x="118.265828" y="192.24" style="fill: #fc8d62; fill-opacity: 0.8; stroke: #ffffff; stroke-opacity: 0.8; stroke-width: 0.5"/>
    <use xlink:href="#C3_0_1da58ea958" x="117.001408" y="192.24" style="fill: #fc8d62; fill-opacity: 0.8; stroke: #ffffff; stroke-opacity: 0.8; stroke-width: 0.5"/>
    <use xlink:href="#C3_0_1da58ea958" x="116.35765" y="170.064" style="fill: #fc8d62; fill-opacity: 0.8; stroke: #ffffff; stroke-opacity: 0.8; stroke-width: 0.5"/>
    <use xlink:href="#C3_0_1da58ea958" x="116.790236" y="181.152" style="fill: #fc8d62; fill-opacity: 0.8; stroke: #ffffff; stroke-opacity: 0.8; stroke-width: 0.5"/>
    <use xlink:href="#C3_0_1da58ea958" x="117.229044" y="192.24" style="fill: #fc8d62; fill-opacity: 0.8; stroke: #ffffff; stroke-opacity: 0.8; stroke-width: 0.5"/>
    <use xlink:href="#C3_0_1da58ea958" x="118.133525" y="192.24" style="fill: #fc8d62; fill-opacity: 0.8; stroke: #ffffff; stroke-opacity: 0.8; stroke-width: 0.5"/>
    <use xlink:href="#C3_0_1da58ea958" x="115.859672" y="181.152" style="fill: #fc8d62; fill-opacity: 0.8; stroke: #ffffff; stroke-opacity: 0.8; stroke-width: 0.5"/>
    <use xlink:href="#C3_0_1da58ea958" x="115.85169" y="81.36" style="fill: #fc8d62; fill-opacity: 0.8; stroke: #ffffff; stroke-opacity: 0.8; stroke-width: 0.5"/>
    <use xlink:href="#C3_0_1da58ea958" x="117.943528" y="192.24" style="fill: #fc8d62; fill-opacity: 0.8; stroke: #ffffff; stroke-opacity: 0.8; stroke-width: 0.5"/>
    <use xlink:href="#C3_0_1da58ea958" x="116.832965" y="192.24" style="fill: #fc8d62; fill-opacity: 0.8; stroke: #ffffff; stroke-opacity: 0.8; stroke-width: 0.5"/>
    <use xlink:href="#C3_0_1da58ea958" x="118.874604" y="125.712" style="fill: #fc8d62; fill-opacity: 0.8; stroke: #ffffff; stroke-opacity: 0.8; stroke-width: 0.5"/>
    <use xlink:href="#C3_0_1da58ea958" x="117.644425" y="192.24" style="fill: #fc8d62; fill-opacity: 0.8; stroke: #ffffff; stroke-opacity: 0.8; stroke-width: 0.5"/>
    <use xlink:href="#C3_0_1da58ea958" x="118.943801" y="114.624" style="fill: #fc8d62; fill-opacity: 0.8; stroke: #ffffff; stroke-opacity: 0.8; stroke-width: 0.5"/>
    <use xlink:href="#C3_0_1da58ea958" x="119.561539" y="192.24" style="fill: #fc8d62; fill-opacity: 0.8; stroke: #ffffff; stroke-opacity: 0.8; stroke-width: 0.5"/>
    <use xlink:href="#C3_0_1da58ea958" x="118.881889" y="37.008" style="fill: #fc8d62; fill-opacity: 0.8; stroke: #ffffff; stroke-opacity: 0.8; stroke-width: 0.5"/>
    <use xlink:href="#C3_0_1da58ea958" x="116.770547" y="192.24" style="fill: #fc8d62; fill-opacity: 0.8; stroke: #ffffff; stroke-opacity: 0.8; stroke-width: 0.5"/>
    <use xlink:href="#C3_0_1da58ea958" x="115.166598" y="192.24" style="fill: #fc8d62; fill-opacity: 0.8; stroke: #ffffff; stroke-opacity: 0.8; stroke-width: 0.5"/>
    <use xlink:href="#C3_0_1da58ea958" x="115.626803" y="192.24" style="fill: #fc8d62; fill-opacity: 0.8; stroke: #ffffff; stroke-opacity: 0.8; stroke-width: 0.5"/>
    <use xlink:href="#C3_0_1da58ea958" x="115.222435" y="192.24" style="fill: #fc8d62; fill-opacity: 0.8; stroke: #ffffff; stroke-opacity: 0.8; stroke-width: 0.5"/>
    <use xlink:href="#C3_0_1da58ea958" x="116.420723" y="170.064" style="fill: #fc8d62; fill-opacity: 0.8; stroke: #ffffff; stroke-opacity: 0.8; stroke-width: 0.5"/>
    <use xlink:href="#C3_0_1da58ea958" x="116.756665" y="192.24" style="fill: #fc8d62; fill-opacity: 0.8; stroke: #ffffff; stroke-opacity: 0.8; stroke-width: 0.5"/>
    <use xlink:href="#C3_0_1da58ea958" x="119.553522" y="114.624" style="fill: #fc8d62; fill-opacity: 0.8; stroke: #ffffff; stroke-opacity: 0.8; stroke-width: 0.5"/>
   </g>
   <g id="PathCollection_5">
    <defs>
     <path id="C4_0_def6847a96" d="M 0 2.5 
C 0.663008 2.5 1.29895 2.236584 1.767767 1.767767 
C 2.236584 1.29895 2.5 0.663008 2.5 -0 
C 2.5 -0.663008 2.236584 -1.29895 1.767767 -1.767767 
C 1.29895 -2.236584 0.663008 -2.5 0 -2.5 
C -0.663008 -2.5 -1.29895 -2.236584 -1.767767 -1.767767 
C -2.236584 -1.29895 -2.5 -0.663008 -2.5 0 
C -2.5 0.663008 -2.236584 1.29895 -1.767767 1.767767 
C -1.29895 2.236584 -0.663008 2.5 0 2.5 
z
"/>
    </defs>
    <use xlink:href="#C4_0_def6847a96" x="161.162997" y="147.888" style="fill: #66c2a5; fill-opacity: 0.8; stroke: #ffffff; stroke-opacity: 0.8; stroke-width: 0.5"/>
    <use xlink:href="#C4_0_def6847a96" x="156.785615" y="181.152" style="fill: #66c2a5; fill-opacity: 0.8; stroke: #ffffff; stroke-opacity: 0.8; stroke-width: 0.5"/>
    <use xlink:href="#C4_0_def6847a96" x="158.376456" y="192.24" style="fill: #66c2a5; fill-opacity: 0.8; stroke: #ffffff; stroke-opacity: 0.8; stroke-width: 0.5"/>
    <use xlink:href="#C4_0_def6847a96" x="161.533997" y="114.624" style="fill: #66c2a5; fill-opacity: 0.8; stroke: #ffffff; stroke-opacity: 0.8; stroke-width: 0.5"/>
    <use xlink:href="#C4_0_def6847a96" x="159.874932" y="70.272" style="fill: #66c2a5; fill-opacity: 0.8; stroke: #ffffff; stroke-opacity: 0.8; stroke-width: 0.5"/>
    <use xlink:href="#C4_0_def6847a96" x="161.261318" y="192.24" style="fill: #66c2a5; fill-opacity: 0.8; stroke: #ffffff; stroke-opacity: 0.8; stroke-width: 0.5"/>
    <use xlink:href="#C4_0_def6847a96" x="156.704889" y="170.064" style="fill: #66c2a5; fill-opacity: 0.8; stroke: #ffffff; stroke-opacity: 0.8; stroke-width: 0.5"/>
    <use xlink:href="#C4_0_def6847a96" x="160.644119" y="192.24" style="fill: #66c2a5; fill-opacity: 0.8; stroke: #ffffff; stroke-opacity: 0.8; stroke-width: 0.5"/>
    <use xlink:href="#C4_0_def6847a96" x="159.861329" y="158.976" style="fill: #66c2a5; fill-opacity: 0.8; stroke: #ffffff; stroke-opacity: 0.8; stroke-width: 0.5"/>
    <use xlink:href="#C4_0_def6847a96" x="161.639412" y="136.8" style="fill: #66c2a5; fill-opacity: 0.8; stroke: #ffffff; stroke-opacity: 0.8; stroke-width: 0.5"/>
    <use xlink:href="#C4_0_def6847a96" x="161.615922" y="81.36" style="fill: #66c2a5; fill-opacity: 0.8; stroke: #ffffff; stroke-opacity: 0.8; stroke-width: 0.5"/>
    <use xlink:href="#C4_0_def6847a96" x="156.709429" y="192.24" style="fill: #66c2a5; fill-opacity: 0.8; stroke: #ffffff; stroke-opacity: 0.8; stroke-width: 0.5"/>
    <use xlink:href="#C4_0_def6847a96" x="157.543558" y="147.888" style="fill: #66c2a5; fill-opacity: 0.8; stroke: #ffffff; stroke-opacity: 0.8; stroke-width: 0.5"/>
    <use xlink:href="#C4_0_def6847a96" x="156.777623" y="136.8" style="fill: #66c2a5; fill-opacity: 0.8; stroke: #ffffff; stroke-opacity: 0.8; stroke-width: 0.5"/>
    <use xlink:href="#C4_0_def6847a96" x="160.297922" y="192.24" style="fill: #66c2a5; fill-opacity: 0.8; stroke: #ffffff; stroke-opacity: 0.8; stroke-width: 0.5"/>
    <use xlink:href="#C4_0_def6847a96" x="158.162352" y="125.712" style="fill: #66c2a5; fill-opacity: 0.8; stroke: #ffffff; stroke-opacity: 0.8; stroke-width: 0.5"/>
    <use xlink:href="#C4_0_def6847a96" x="159.075346" y="147.888" style="fill: #66c2a5; fill-opacity: 0.8; stroke: #ffffff; stroke-opacity: 0.8; stroke-width: 0.5"/>
    <use xlink:href="#C4_0_def6847a96" x="157.444269" y="192.24" style="fill: #66c2a5; fill-opacity: 0.8; stroke: #ffffff; stroke-opacity: 0.8; stroke-width: 0.5"/>
    <use xlink:href="#C4_0_def6847a96" x="161.835783" y="25.92" style="fill: #66c2a5; fill-opacity: 0.8; stroke: #ffffff; stroke-opacity: 0.8; stroke-width: 0.5"/>
    <use xlink:href="#C4_0_def6847a96" x="160.213795" y="114.624" style="fill: #66c2a5; fill-opacity: 0.8; stroke: #ffffff; stroke-opacity: 0.8; stroke-width: 0.5"/>
    <use xlink:href="#C4_0_def6847a96" x="157.798189" y="170.064" style="fill: #66c2a5; fill-opacity: 0.8; stroke: #ffffff; stroke-opacity: 0.8; stroke-width: 0.5"/>
   </g>
   <g id="PathCollection_6">
    <defs>
     <path id="C5_0_b27f495e9a" d="M 0 2.5 
C 0.663008 2.5 1.29895 2.236584 1.767767 1.767767 
C 2.236584 1.29895 2.5 0.663008 2.5 -0 
C 2.5 -0.663008 2.236584 -1.29895 1.767767 -1.767767 
C 1.29895 -2.236584 0.663008 -2.5 0 -2.5 
C -0.663008 -2.5 -1.29895 -2.236584 -1.767767 -1.767767 
C -2.236584 -1.29895 -2.5 -0.663008 -2.5 0 
C -2.5 0.663008 -2.236584 1.29895 -1.767767 1.767767 
C -1.29895 2.236584 -0.663008 2.5 0 2.5 
z
"/>
    </defs>
    <use xlink:href="#C5_0_b27f495e9a" x="178.28104" y="192.24" style="fill: #fc8d62; fill-opacity: 0.8; stroke: #ffffff; stroke-opacity: 0.8; stroke-width: 0.5"/>
    <use xlink:href="#C5_0_b27f495e9a" x="178.514748" y="158.976" style="fill: #fc8d62; fill-opacity: 0.8; stroke: #ffffff; stroke-opacity: 0.8; stroke-width: 0.5"/>
    <use xlink:href="#C5_0_b27f495e9a" x="178.367887" y="192.24" style="fill: #fc8d62; fill-opacity: 0.8; stroke: #ffffff; stroke-opacity: 0.8; stroke-width: 0.5"/>
    <use xlink:href="#C5_0_b27f495e9a" x="182.094714" y="25.92" style="fill: #fc8d62; fill-opacity: 0.8; stroke: #ffffff; stroke-opacity: 0.8; stroke-width: 0.5"/>
    <use xlink:href="#C5_0_b27f495e9a" x="181.319355" y="59.184" style="fill: #fc8d62; fill-opacity: 0.8; stroke: #ffffff; stroke-opacity: 0.8; stroke-width: 0.5"/>
    <use xlink:href="#C5_0_b27f495e9a" x="180.742596" y="192.24" style="fill: #fc8d62; fill-opacity: 0.8; stroke: #ffffff; stroke-opacity: 0.8; stroke-width: 0.5"/>
    <use xlink:href="#C5_0_b27f495e9a" x="178.409741" y="125.712" style="fill: #fc8d62; fill-opacity: 0.8; stroke: #ffffff; stroke-opacity: 0.8; stroke-width: 0.5"/>
    <use xlink:href="#C5_0_b27f495e9a" x="180.369375" y="136.8" style="fill: #fc8d62; fill-opacity: 0.8; stroke: #ffffff; stroke-opacity: 0.8; stroke-width: 0.5"/>
    <use xlink:href="#C5_0_b27f495e9a" x="179.463485" y="181.152" style="fill: #fc8d62; fill-opacity: 0.8; stroke: #ffffff; stroke-opacity: 0.8; stroke-width: 0.5"/>
    <use xlink:href="#C5_0_b27f495e9a" x="178.515839" y="147.888" style="fill: #fc8d62; fill-opacity: 0.8; stroke: #ffffff; stroke-opacity: 0.8; stroke-width: 0.5"/>
    <use xlink:href="#C5_0_b27f495e9a" x="181.230407" y="147.888" style="fill: #fc8d62; fill-opacity: 0.8; stroke: #ffffff; stroke-opacity: 0.8; stroke-width: 0.5"/>
    <use xlink:href="#C5_0_b27f495e9a" x="179.572488" y="147.888" style="fill: #fc8d62; fill-opacity: 0.8; stroke: #ffffff; stroke-opacity: 0.8; stroke-width: 0.5"/>
    <use xlink:href="#C5_0_b27f495e9a" x="181.205877" y="181.152" style="fill: #fc8d62; fill-opacity: 0.8; stroke: #ffffff; stroke-opacity: 0.8; stroke-width: 0.5"/>
    <use xlink:href="#C5_0_b27f495e9a" x="180.87352" y="158.976" style="fill: #fc8d62; fill-opacity: 0.8; stroke: #ffffff; stroke-opacity: 0.8; stroke-width: 0.5"/>
    <use xlink:href="#C5_0_b27f495e9a" x="179.158754" y="192.24" style="fill: #fc8d62; fill-opacity: 0.8; stroke: #ffffff; stroke-opacity: 0.8; stroke-width: 0.5"/>
    <use xlink:href="#C5_0_b27f495e9a" x="182.699783" y="114.624" style="fill: #fc8d62; fill-opacity: 0.8; stroke: #ffffff; stroke-opacity: 0.8; stroke-width: 0.5"/>
    <use xlink:href="#C5_0_b27f495e9a" x="178.059832" y="114.624" style="fill: #fc8d62; fill-opacity: 0.8; stroke: #ffffff; stroke-opacity: 0.8; stroke-width: 0.5"/>
    <use xlink:href="#C5_0_b27f495e9a" x="180.39455" y="81.36" style="fill: #fc8d62; fill-opacity: 0.8; stroke: #ffffff; stroke-opacity: 0.8; stroke-width: 0.5"/>
    <use xlink:href="#C5_0_b27f495e9a" x="178.445934" y="25.92" style="fill: #fc8d62; fill-opacity: 0.8; stroke: #ffffff; stroke-opacity: 0.8; stroke-width: 0.5"/>
    <use xlink:href="#C5_0_b27f495e9a" x="178.591298" y="147.888" style="fill: #fc8d62; fill-opacity: 0.8; stroke: #ffffff; stroke-opacity: 0.8; stroke-width: 0.5"/>
    <use xlink:href="#C5_0_b27f495e9a" x="179.90311" y="158.976" style="fill: #fc8d62; fill-opacity: 0.8; stroke: #ffffff; stroke-opacity: 0.8; stroke-width: 0.5"/>
   </g>
   <g id="PathCollection_7">
    <defs>
     <path id="C6_0_faabfb51a0" d="M 0 2.5 
C 0.663008 2.5 1.29895 2.236584 1.767767 1.767767 
C 2.236584 1.29895 2.5 0.663008 2.5 -0 
C 2.5 -0.663008 2.236584 -1.29895 1.767767 -1.767767 
C 1.29895 -2.236584 0.663008 -2.5 0 -2.5 
C -0.663008 -2.5 -1.29895 -2.236584 -1.767767 -1.767767 
C -2.236584 -1.29895 -2.5 -0.663008 -2.5 0 
C -2.5 0.663008 -2.236584 1.29895 -1.767767 1.767767 
C -1.29895 2.236584 -0.663008 2.5 0 2.5 
z
"/>
    </defs>
    <use xlink:href="#C6_0_faabfb51a0" x="203.219585" y="192.24" style="fill: #66c2a5; fill-opacity: 0.8; stroke: #ffffff; stroke-opacity: 0.8; stroke-width: 0.5"/>
    <use xlink:href="#C6_0_faabfb51a0" x="201.532731" y="192.24" style="fill: #66c2a5; fill-opacity: 0.8; stroke: #ffffff; stroke-opacity: 0.8; stroke-width: 0.5"/>
    <use xlink:href="#C6_0_faabfb51a0" x="202.397429" y="192.24" style="fill: #66c2a5; fill-opacity: 0.8; stroke: #ffffff; stroke-opacity: 0.8; stroke-width: 0.5"/>
    <use xlink:href="#C6_0_faabfb51a0" x="198.805989" y="158.976" style="fill: #66c2a5; fill-opacity: 0.8; stroke: #ffffff; stroke-opacity: 0.8; stroke-width: 0.5"/>
    <use xlink:href="#C6_0_faabfb51a0" x="203.34143" y="81.36" style="fill: #66c2a5; fill-opacity: 0.8; stroke: #ffffff; stroke-opacity: 0.8; stroke-width: 0.5"/>
    <use xlink:href="#C6_0_faabfb51a0" x="200.254007" y="181.152" style="fill: #66c2a5; fill-opacity: 0.8; stroke: #ffffff; stroke-opacity: 0.8; stroke-width: 0.5"/>
    <use xlink:href="#C6_0_faabfb51a0" x="203.193216" y="158.976" style="fill: #66c2a5; fill-opacity: 0.8; stroke: #ffffff; stroke-opacity: 0.8; stroke-width: 0.5"/>
    <use xlink:href="#C6_0_faabfb51a0" x="198.623256" y="192.24" style="fill: #66c2a5; fill-opacity: 0.8; stroke: #ffffff; stroke-opacity: 0.8; stroke-width: 0.5"/>
    <use xlink:href="#C6_0_faabfb51a0" x="200.725434" y="136.8" style="fill: #66c2a5; fill-opacity: 0.8; stroke: #ffffff; stroke-opacity: 0.8; stroke-width: 0.5"/>
    <use xlink:href="#C6_0_faabfb51a0" x="199.167675" y="147.888" style="fill: #66c2a5; fill-opacity: 0.8; stroke: #ffffff; stroke-opacity: 0.8; stroke-width: 0.5"/>
    <use xlink:href="#C6_0_faabfb51a0" x="201.7054" y="158.976" style="fill: #66c2a5; fill-opacity: 0.8; stroke: #ffffff; stroke-opacity: 0.8; stroke-width: 0.5"/>
    <use xlink:href="#C6_0_faabfb51a0" x="201.815276" y="181.152" style="fill: #66c2a5; fill-opacity: 0.8; stroke: #ffffff; stroke-opacity: 0.8; stroke-width: 0.5"/>
    <use xlink:href="#C6_0_faabfb51a0" x="203.17111" y="114.624" style="fill: #66c2a5; fill-opacity: 0.8; stroke: #ffffff; stroke-opacity: 0.8; stroke-width: 0.5"/>
    <use xlink:href="#C6_0_faabfb51a0" x="201.095474" y="147.888" style="fill: #66c2a5; fill-opacity: 0.8; stroke: #ffffff; stroke-opacity: 0.8; stroke-width: 0.5"/>
    <use xlink:href="#C6_0_faabfb51a0" x="203.133387" y="170.064" style="fill: #66c2a5; fill-opacity: 0.8; stroke: #ffffff; stroke-opacity: 0.8; stroke-width: 0.5"/>
    <use xlink:href="#C6_0_faabfb51a0" x="202.237171" y="70.272" style="fill: #66c2a5; fill-opacity: 0.8; stroke: #ffffff; stroke-opacity: 0.8; stroke-width: 0.5"/>
    <use xlink:href="#C6_0_faabfb51a0" x="201.289291" y="181.152" style="fill: #66c2a5; fill-opacity: 0.8; stroke: #ffffff; stroke-opacity: 0.8; stroke-width: 0.5"/>
    <use xlink:href="#C6_0_faabfb51a0" x="199.318234" y="192.24" style="fill: #66c2a5; fill-opacity: 0.8; stroke: #ffffff; stroke-opacity: 0.8; stroke-width: 0.5"/>
    <use xlink:href="#C6_0_faabfb51a0" x="199.315996" y="25.92" style="fill: #66c2a5; fill-opacity: 0.8; stroke: #ffffff; stroke-opacity: 0.8; stroke-width: 0.5"/>
    <use xlink:href="#C6_0_faabfb51a0" x="201.630289" y="158.976" style="fill: #66c2a5; fill-opacity: 0.8; stroke: #ffffff; stroke-opacity: 0.8; stroke-width: 0.5"/>
    <use xlink:href="#C6_0_faabfb51a0" x="203.223623" y="181.152" style="fill: #66c2a5; fill-opacity: 0.8; stroke: #ffffff; stroke-opacity: 0.8; stroke-width: 0.5"/>
   </g>
   <g id="PathCollection_8">
    <defs>
     <path id="C7_0_7dd9cf8497" d="M 0 2.5 
C 0.663008 2.5 1.29895 2.236584 1.767767 1.767767 
C 2.236584 1.29895 2.5 0.663008 2.5 -0 
C 2.5 -0.663008 2.236584 -1.29895 1.767767 -1.767767 
C 1.29895 -2.236584 0.663008 -2.5 0 -2.5 
C -0.663008 -2.5 -1.29895 -2.236584 -1.767767 -1.767767 
C -2.236584 -1.29895 -2.5 -0.663008 -2.5 0 
C -2.5 0.663008 -2.236584 1.29895 -1.767767 1.767767 
C -1.29895 2.236584 -0.663008 2.5 0 2.5 
z
"/>
    </defs>
    <use xlink:href="#C7_0_7dd9cf8497" x="221.012252" y="192.24" style="fill: #fc8d62; fill-opacity: 0.8; stroke: #ffffff; stroke-opacity: 0.8; stroke-width: 0.5"/>
    <use xlink:href="#C7_0_7dd9cf8497" x="222.185043" y="147.888" style="fill: #fc8d62; fill-opacity: 0.8; stroke: #ffffff; stroke-opacity: 0.8; stroke-width: 0.5"/>
    <use xlink:href="#C7_0_7dd9cf8497" x="221.466099" y="181.152" style="fill: #fc8d62; fill-opacity: 0.8; stroke: #ffffff; stroke-opacity: 0.8; stroke-width: 0.5"/>
    <use xlink:href="#C7_0_7dd9cf8497" x="222.267578" y="147.888" style="fill: #fc8d62; fill-opacity: 0.8; stroke: #ffffff; stroke-opacity: 0.8; stroke-width: 0.5"/>
    <use xlink:href="#C7_0_7dd9cf8497" x="223.11438" y="25.92" style="fill: #fc8d62; fill-opacity: 0.8; stroke: #ffffff; stroke-opacity: 0.8; stroke-width: 0.5"/>
    <use xlink:href="#C7_0_7dd9cf8497" x="224.105965" y="192.24" style="fill: #fc8d62; fill-opacity: 0.8; stroke: #ffffff; stroke-opacity: 0.8; stroke-width: 0.5"/>
    <use xlink:href="#C7_0_7dd9cf8497" x="220.279373" y="158.976" style="fill: #fc8d62; fill-opacity: 0.8; stroke: #ffffff; stroke-opacity: 0.8; stroke-width: 0.5"/>
    <use xlink:href="#C7_0_7dd9cf8497" x="219.513704" y="170.064" style="fill: #fc8d62; fill-opacity: 0.8; stroke: #ffffff; stroke-opacity: 0.8; stroke-width: 0.5"/>
    <use xlink:href="#C7_0_7dd9cf8497" x="223.288419" y="170.064" style="fill: #fc8d62; fill-opacity: 0.8; stroke: #ffffff; stroke-opacity: 0.8; stroke-width: 0.5"/>
    <use xlink:href="#C7_0_7dd9cf8497" x="219.567736" y="70.272" style="fill: #fc8d62; fill-opacity: 0.8; stroke: #ffffff; stroke-opacity: 0.8; stroke-width: 0.5"/>
    <use xlink:href="#C7_0_7dd9cf8497" x="220.137656" y="103.536" style="fill: #fc8d62; fill-opacity: 0.8; stroke: #ffffff; stroke-opacity: 0.8; stroke-width: 0.5"/>
    <use xlink:href="#C7_0_7dd9cf8497" x="222.753581" y="147.888" style="fill: #fc8d62; fill-opacity: 0.8; stroke: #ffffff; stroke-opacity: 0.8; stroke-width: 0.5"/>
    <use xlink:href="#C7_0_7dd9cf8497" x="219.769244" y="48.096" style="fill: #fc8d62; fill-opacity: 0.8; stroke: #ffffff; stroke-opacity: 0.8; stroke-width: 0.5"/>
    <use xlink:href="#C7_0_7dd9cf8497" x="222.524355" y="192.24" style="fill: #fc8d62; fill-opacity: 0.8; stroke: #ffffff; stroke-opacity: 0.8; stroke-width: 0.5"/>
    <use xlink:href="#C7_0_7dd9cf8497" x="222.805557" y="158.976" style="fill: #fc8d62; fill-opacity: 0.8; stroke: #ffffff; stroke-opacity: 0.8; stroke-width: 0.5"/>
    <use xlink:href="#C7_0_7dd9cf8497" x="223.179527" y="48.096" style="fill: #fc8d62; fill-opacity: 0.8; stroke: #ffffff; stroke-opacity: 0.8; stroke-width: 0.5"/>
    <use xlink:href="#C7_0_7dd9cf8497" x="223.617511" y="147.888" style="fill: #fc8d62; fill-opacity: 0.8; stroke: #ffffff; stroke-opacity: 0.8; stroke-width: 0.5"/>
    <use xlink:href="#C7_0_7dd9cf8497" x="222.504348" y="181.152" style="fill: #fc8d62; fill-opacity: 0.8; stroke: #ffffff; stroke-opacity: 0.8; stroke-width: 0.5"/>
    <use xlink:href="#C7_0_7dd9cf8497" x="224.404007" y="25.92" style="fill: #fc8d62; fill-opacity: 0.8; stroke: #ffffff; stroke-opacity: 0.8; stroke-width: 0.5"/>
    <use xlink:href="#C7_0_7dd9cf8497" x="219.904244" y="125.712" style="fill: #fc8d62; fill-opacity: 0.8; stroke: #ffffff; stroke-opacity: 0.8; stroke-width: 0.5"/>
    <use xlink:href="#C7_0_7dd9cf8497" x="219.908122" y="181.152" style="fill: #fc8d62; fill-opacity: 0.8; stroke: #ffffff; stroke-opacity: 0.8; stroke-width: 0.5"/>
   </g>
   <g id="PathCollection_9"/>
   <g id="PathCollection_10"/>
   <g id="PathCollection_11"/>
   <g id="PathCollection_12"/>
   <g id="line2d_9">
    <path d="M 54.675 175.38624 
L 54.675 162.08064 
" clip-path="url(#p97235e90fc)" style="fill: none; stroke: #000000; stroke-width: 1.9; stroke-linecap: round"/>
   </g>
   <g id="line2d_10">
    <path d="M 159.3 156.864 
L 159.3 136.272 
" clip-path="url(#p97235e90fc)" style="fill: none; stroke: #000000; stroke-width: 1.9; stroke-linecap: round"/>
   </g>
   <g id="line2d_11">
    <path d="M 75.6 178.49088 
L 75.6 168.73344 
" clip-path="url(#p97235e90fc)" style="fill: none; stroke: #000000; stroke-width: 1.9; stroke-linecap: round"/>
   </g>
   <g id="line2d_12">
    <path d="M 180.225 148.416 
L 180.225 126.768 
" clip-path="url(#p97235e90fc)" style="fill: none; stroke: #000000; stroke-width: 1.9; stroke-linecap: round"/>
   </g>
   <g id="line2d_13">
    <path d="M 96.525 181.152 
L 96.525 167.331917 
" clip-path="url(#p97235e90fc)" style="fill: none; stroke: #000000; stroke-width: 1.9; stroke-linecap: round"/>
   </g>
   <g id="line2d_14">
    <path d="M 201.15 161.616 
L 201.15 143.136 
" clip-path="url(#p97235e90fc)" style="fill: none; stroke: #000000; stroke-width: 1.9; stroke-linecap: round"/>
   </g>
   <g id="line2d_15">
    <path d="M 117.45 176.344243 
L 117.45 161.122637 
" clip-path="url(#p97235e90fc)" style="fill: none; stroke: #000000; stroke-width: 1.9; stroke-linecap: round"/>
   </g>
   <g id="line2d_16">
    <path d="M 222.075 147.36 
L 222.075 122.544 
" clip-path="url(#p97235e90fc)" style="fill: none; stroke: #000000; stroke-width: 1.9; stroke-linecap: round"/>
   </g>
   <g id="patch_11">
    <path d="M 33.75 192.24 
L 33.75 25.92 
" style="fill: none; stroke: #262626; stroke-width: 1.25; stroke-linejoin: miter; stroke-linecap: square"/>
   </g>
   <g id="legend_1">
    <g id="patch_12">
     <path d="M 41.45 181.335 
L 136.159375 181.335 
Q 138.359375 181.335 138.359375 179.135 
L 138.359375 33.62 
Q 138.359375 31.42 136.159375 31.42 
L 41.45 31.42 
Q 39.25 31.42 39.25 33.62 
L 39.25 179.135 
Q 39.25 181.335 41.45 181.335 
z
" style="fill: #ffffff; opacity: 0.8; stroke: #cccccc; stroke-linejoin: miter"/>
    </g>
    <g id="text_11">
     <text style="fill: #262626; font: 12px 'Arial', 'DejaVu Sans', 'Liberation Sans', 'Bitstream Vera Sans', sans-serif; text-anchor: start" x="43.65" y="44.938125" transform="rotate(-0 43.65 44.938125)">opp_p_disclose</text>
    </g>
    <g id="PathCollection_13">
     <defs>
      <path id="m1c5bbe6150" d="M 0 3 
C 0.795609 3 1.55874 2.683901 2.12132 2.12132 
C 2.683901 1.55874 3 0.795609 3 0 
C 3 -0.795609 2.683901 -1.55874 2.12132 -2.12132 
C 1.55874 -2.683901 0.795609 -3 0 -3 
C -0.795609 -3 -1.55874 -2.683901 -2.12132 -2.12132 
C -2.683901 -1.55874 -3 -0.795609 -3 0 
C -3 0.795609 -2.683901 1.55874 -2.12132 2.12132 
C -1.55874 2.683901 -0.795609 3 0 3 
z
" style="stroke: #66c2a5; stroke-opacity: 0.2"/>
     </defs>
     <g>
      <use xlink:href="#m1c5bbe6150" x="72.158594" y="58.738281" style="fill: #66c2a5; fill-opacity: 0.2; stroke: #66c2a5; stroke-opacity: 0.2"/>
     </g>
    </g>
    <g id="text_12">
     <text style="fill: #262626; font: 11px 'Arial', 'DejaVu Sans', 'Liberation Sans', 'Bitstream Vera Sans', sans-serif; text-anchor: start" x="91.958594" y="61.625781" transform="rotate(-0 91.958594 61.625781)">0.25</text>
    </g>
    <g id="PathCollection_14">
     <defs>
      <path id="m83eb2ac4cc" d="M 0 3 
C 0.795609 3 1.55874 2.683901 2.12132 2.12132 
C 2.683901 1.55874 3 0.795609 3 0 
C 3 -0.795609 2.683901 -1.55874 2.12132 -2.12132 
C 1.55874 -2.683901 0.795609 -3 0 -3 
C -0.795609 -3 -1.55874 -2.683901 -2.12132 -2.12132 
C -2.683901 -1.55874 -3 -0.795609 -3 0 
C -3 0.795609 -2.683901 1.55874 -2.12132 2.12132 
C -1.55874 2.683901 -0.795609 3 0 3 
z
" style="stroke: #fc8d62; stroke-opacity: 0.2"/>
     </defs>
     <g>
      <use xlink:href="#m83eb2ac4cc" x="72.158594" y="74.884219" style="fill: #fc8d62; fill-opacity: 0.2; stroke: #fc8d62; stroke-opacity: 0.2"/>
     </g>
    </g>
    <g id="text_13">
     <text style="fill: #262626; font: 11px 'Arial', 'DejaVu Sans', 'Liberation Sans', 'Bitstream Vera Sans', sans-serif; text-anchor: start" x="91.958594" y="77.771719" transform="rotate(-0 91.958594 77.771719)">0.5</text>
    </g>
    <g id="PathCollection_15">
     <defs>
      <path id="me8db72a5da" d="M 0 3 
C 0.795609 3 1.55874 2.683901 2.12132 2.12132 
C 2.683901 1.55874 3 0.795609 3 0 
C 3 -0.795609 2.683901 -1.55874 2.12132 -2.12132 
C 1.55874 -2.683901 0.795609 -3 0 -3 
C -0.795609 -3 -1.55874 -2.683901 -2.12132 -2.12132 
C -2.683901 -1.55874 -3 -0.795609 -3 0 
C -3 0.795609 -2.683901 1.55874 -2.12132 2.12132 
C -1.55874 2.683901 -0.795609 3 0 3 
z
" style="stroke: #66c2a5; stroke-opacity: 0.4"/>
     </defs>
     <g>
      <use xlink:href="#me8db72a5da" x="72.158594" y="91.030156" style="fill: #66c2a5; fill-opacity: 0.4; stroke: #66c2a5; stroke-opacity: 0.4"/>
     </g>
    </g>
    <g id="text_14">
     <text style="fill: #262626; font: 11px 'Arial', 'DejaVu Sans', 'Liberation Sans', 'Bitstream Vera Sans', sans-serif; text-anchor: start" x="91.958594" y="93.917656" transform="rotate(-0 91.958594 93.917656)">0.75</text>
    </g>
    <g id="PathCollection_16">
     <defs>
      <path id="m4d76b8e2df" d="M 0 3 
C 0.795609 3 1.55874 2.683901 2.12132 2.12132 
C 2.683901 1.55874 3 0.795609 3 0 
C 3 -0.795609 2.683901 -1.55874 2.12132 -2.12132 
C 1.55874 -2.683901 0.795609 -3 0 -3 
C -0.795609 -3 -1.55874 -2.683901 -2.12132 -2.12132 
C -2.683901 -1.55874 -3 -0.795609 -3 0 
C -3 0.795609 -2.683901 1.55874 -2.12132 2.12132 
C -1.55874 2.683901 -0.795609 3 0 3 
z
" style="stroke: #fc8d62; stroke-opacity: 0.4"/>
     </defs>
     <g>
      <use xlink:href="#m4d76b8e2df" x="72.158594" y="107.176094" style="fill: #fc8d62; fill-opacity: 0.4; stroke: #fc8d62; stroke-opacity: 0.4"/>
     </g>
    </g>
    <g id="text_15">
     <text style="fill: #262626; font: 11px 'Arial', 'DejaVu Sans', 'Liberation Sans', 'Bitstream Vera Sans', sans-serif; text-anchor: start" x="91.958594" y="110.063594" transform="rotate(-0 91.958594 110.063594)">1.0</text>
    </g>
    <g id="patch_13">
     <path d="M 61.158594 126.209531 
L 83.158594 126.209531 
L 83.158594 118.509531 
L 61.158594 118.509531 
z
" style="fill: #66c2a5; fill-opacity: 0.2; stroke: #ffffff; stroke-linejoin: miter"/>
    </g>
    <g id="text_16">
     <text style="fill: #262626; font: 11px 'Arial', 'DejaVu Sans', 'Liberation Sans', 'Bitstream Vera Sans', sans-serif; text-anchor: start" x="91.958594" y="126.209531" transform="rotate(-0 91.958594 126.209531)">0.25</text>
    </g>
    <g id="patch_14">
     <path d="M 61.158594 142.355469 
L 83.158594 142.355469 
L 83.158594 134.655469 
L 61.158594 134.655469 
z
" style="fill: #66c2a5; fill-opacity: 0.4; stroke: #ffffff; stroke-linejoin: miter"/>
    </g>
    <g id="text_17">
     <text style="fill: #262626; font: 11px 'Arial', 'DejaVu Sans', 'Liberation Sans', 'Bitstream Vera Sans', sans-serif; text-anchor: start" x="91.958594" y="142.355469" transform="rotate(-0 91.958594 142.355469)">0.5</text>
    </g>
    <g id="patch_15">
     <path d="M 61.158594 158.501406 
L 83.158594 158.501406 
L 83.158594 150.801406 
L 61.158594 150.801406 
z
" style="fill: #66c2a5; fill-opacity: 0.6; stroke: #ffffff; stroke-linejoin: miter"/>
    </g>
    <g id="text_18">
     <text style="fill: #262626; font: 11px 'Arial', 'DejaVu Sans', 'Liberation Sans', 'Bitstream Vera Sans', sans-serif; text-anchor: start" x="91.958594" y="158.501406" transform="rotate(-0 91.958594 158.501406)">0.75</text>
    </g>
    <g id="patch_16">
     <path d="M 61.158594 174.647344 
L 83.158594 174.647344 
L 83.158594 166.947344 
L 61.158594 166.947344 
z
" style="fill: #66c2a5; fill-opacity: 0.8; stroke: #ffffff; stroke-linejoin: miter"/>
    </g>
    <g id="text_19">
     <text style="fill: #262626; font: 11px 'Arial', 'DejaVu Sans', 'Liberation Sans', 'Bitstream Vera Sans', sans-serif; text-anchor: start" x="91.958594" y="174.647344" transform="rotate(-0 91.958594 174.647344)">1.0</text>
    </g>
   </g>
  </g>
 </g>
 <defs>
  <clipPath id="p97235e90fc">
   <rect x="33.75" y="25.92" width="209.25" height="166.32"/>
  </clipPath>
 </defs>
</svg>
