<?xml version="1.0" encoding="utf-8" standalone="no"?>
<!DOCTYPE svg PUBLIC "-//W3C//DTD SVG 1.1//EN"
  "http://www.w3.org/Graphics/SVG/1.1/DTD/svg11.dtd">
<svg xmlns:xlink="http://www.w3.org/1999/xlink" width="335.95pt" height="216pt" viewBox="0 0 335.95 216" xmlns="http://www.w3.org/2000/svg" version="1.1">
 <metadata>
  <rdf:RDF xmlns:dc="http://purl.org/dc/elements/1.1/" xmlns:cc="http://creativecommons.org/ns#" xmlns:rdf="http://www.w3.org/1999/02/22-rdf-syntax-ns#">
   <cc:Work>
    <dc:type rdf:resource="http://purl.org/dc/dcmitype/StillImage"/>
    <dc:date>2023-03-08T18:39:08.013884</dc:date>
    <dc:format>image/svg+xml</dc:format>
    <dc:creator>
     <cc:Agent>
      <dc:title>Matplotlib v3.7.0, https://matplotlib.org/</dc:title>
     </cc:Agent>
    </dc:creator>
   </cc:Work>
  </rdf:RDF>
 </metadata>
 <defs>
  <style type="text/css">*{stroke-linejoin: round; stroke-linecap: butt}</style>
 </defs>
 <g id="figure_1">
  <g id="patch_1">
   <path d="M 0 216 
L 335.95 216 
L 335.95 0 
L 0 0 
z
" style="fill: #ffffff"/>
  </g>
  <g id="axes_1">
   <g id="patch_2">
    <path d="M 66.644081 165.78 
L 266.6405 165.78 
L 266.6405 12.96 
L 66.644081 12.96 
z
" style="fill: #ffffff"/>
   </g>
   <g id="matplotlib.axis_1">
    <g id="xtick_1">
     <g id="line2d_1">
      <defs>
       <path id="md9f1a6b108" d="M 0 0 
L 0 6 
" style="stroke: #262626; stroke-width: 1.25"/>
      </defs>
      <g>
       <use xlink:href="#md9f1a6b108" x="75.734828" y="165.78" style="fill: #262626; stroke: #262626; stroke-width: 1.25"/>
      </g>
     </g>
     <g id="text_1">
      <text style="fill: #262626; font: 11px 'Arial', 'DejaVu Sans', 'Liberation Sans', 'Bitstream Vera Sans', sans-serif; text-anchor: middle" x="75.734828" y="183.638281" transform="rotate(-0 75.734828 183.638281)">0.0</text>
     </g>
    </g>
    <g id="xtick_2">
     <g id="line2d_2">
      <g>
       <use xlink:href="#md9f1a6b108" x="112.097813" y="165.78" style="fill: #262626; stroke: #262626; stroke-width: 1.25"/>
      </g>
     </g>
     <g id="text_2">
      <text style="fill: #262626; font: 11px 'Arial', 'DejaVu Sans', 'Liberation Sans', 'Bitstream Vera Sans', sans-serif; text-anchor: middle" x="112.097813" y="183.638281" transform="rotate(-0 112.097813 183.638281)">0.2</text>
     </g>
    </g>
    <g id="xtick_3">
     <g id="line2d_3">
      <g>
       <use xlink:href="#md9f1a6b108" x="148.460798" y="165.78" style="fill: #262626; stroke: #262626; stroke-width: 1.25"/>
      </g>
     </g>
     <g id="text_3">
      <text style="fill: #262626; font: 11px 'Arial', 'DejaVu Sans', 'Liberation Sans', 'Bitstream Vera Sans', sans-serif; text-anchor: middle" x="148.460798" y="183.638281" transform="rotate(-0 148.460798 183.638281)">0.4</text>
     </g>
    </g>
    <g id="xtick_4">
     <g id="line2d_4">
      <g>
       <use xlink:href="#md9f1a6b108" x="184.823783" y="165.78" style="fill: #262626; stroke: #262626; stroke-width: 1.25"/>
      </g>
     </g>
     <g id="text_4">
      <text style="fill: #262626; font: 11px 'Arial', 'DejaVu Sans', 'Liberation Sans', 'Bitstream Vera Sans', sans-serif; text-anchor: middle" x="184.823783" y="183.638281" transform="rotate(-0 184.823783 183.638281)">0.6</text>
     </g>
    </g>
    <g id="xtick_5">
     <g id="line2d_5">
      <g>
       <use xlink:href="#md9f1a6b108" x="221.186768" y="165.78" style="fill: #262626; stroke: #262626; stroke-width: 1.25"/>
      </g>
     </g>
     <g id="text_5">
      <text style="fill: #262626; font: 11px 'Arial', 'DejaVu Sans', 'Liberation Sans', 'Bitstream Vera Sans', sans-serif; text-anchor: middle" x="221.186768" y="183.638281" transform="rotate(-0 221.186768 183.638281)">0.8</text>
     </g>
    </g>
    <g id="xtick_6">
     <g id="line2d_6">
      <g>
       <use xlink:href="#md9f1a6b108" x="257.549754" y="165.78" style="fill: #262626; stroke: #262626; stroke-width: 1.25"/>
      </g>
     </g>
     <g id="text_6">
      <text style="fill: #262626; font: 11px 'Arial', 'DejaVu Sans', 'Liberation Sans', 'Bitstream Vera Sans', sans-serif; text-anchor: middle" x="257.549754" y="183.638281" transform="rotate(-0 257.549754 183.638281)">1.0</text>
     </g>
    </g>
    <g id="text_7">
     <text style="fill: #262626; font: 12px 'Arial', 'DejaVu Sans', 'Liberation Sans', 'Bitstream Vera Sans', sans-serif; text-anchor: middle" x="166.642291" y="199.044062" transform="rotate(-0 166.642291 199.044062)">p(disclose)</text>
    </g>
   </g>
   <g id="matplotlib.axis_2">
    <g id="ytick_1">
     <g id="line2d_7">
      <defs>
       <path id="m8ff8fccb24" d="M 0 0 
L -6 0 
" style="stroke: #262626; stroke-width: 1.25"/>
      </defs>
      <g>
       <use xlink:href="#m8ff8fccb24" x="66.644081" y="153.776327" style="fill: #262626; stroke: #262626; stroke-width: 1.25"/>
      </g>
     </g>
     <g id="text_8">
      <text style="fill: #262626; font: 11px 'Arial', 'DejaVu Sans', 'Liberation Sans', 'Bitstream Vera Sans', sans-serif; text-anchor: end" x="57.144081" y="157.955467" transform="rotate(-0 57.144081 157.955467)">35</text>
     </g>
    </g>
    <g id="ytick_2">
     <g id="line2d_8">
      <g>
       <use xlink:href="#m8ff8fccb24" x="66.644081" y="109.153006" style="fill: #262626; stroke: #262626; stroke-width: 1.25"/>
      </g>
     </g>
     <g id="text_9">
      <text style="fill: #262626; font: 11px 'Arial', 'DejaVu Sans', 'Liberation Sans', 'Bitstream Vera Sans', sans-serif; text-anchor: end" x="57.144081" y="113.332146" transform="rotate(-0 57.144081 113.332146)">40</text>
     </g>
    </g>
    <g id="ytick_3">
     <g id="line2d_9">
      <g>
       <use xlink:href="#m8ff8fccb24" x="66.644081" y="64.529685" style="fill: #262626; stroke: #262626; stroke-width: 1.25"/>
      </g>
     </g>
     <g id="text_10">
      <text style="fill: #262626; font: 11px 'Arial', 'DejaVu Sans', 'Liberation Sans', 'Bitstream Vera Sans', sans-serif; text-anchor: end" x="57.144081" y="68.708825" transform="rotate(-0 57.144081 68.708825)">45</text>
     </g>
    </g>
    <g id="ytick_4">
     <g id="line2d_10">
      <g>
       <use xlink:href="#m8ff8fccb24" x="66.644081" y="19.906364" style="fill: #262626; stroke: #262626; stroke-width: 1.25"/>
      </g>
     </g>
     <g id="text_11">
      <text style="fill: #262626; font: 11px 'Arial', 'DejaVu Sans', 'Liberation Sans', 'Bitstream Vera Sans', sans-serif; text-anchor: end" x="57.144081" y="24.085504" transform="rotate(-0 57.144081 24.085504)">50</text>
     </g>
    </g>
    <g id="text_12">
     <text style="fill: #262626; font: 12px 'Arial', 'DejaVu Sans', 'Liberation Sans', 'Bitstream Vera Sans', sans-serif; text-anchor: middle" x="36.650956" y="89.37" transform="rotate(-90 36.650956 89.37)">social wellfare</text>
    </g>
   </g>
   <g id="PolyCollection_1">
    <defs>
     <path id="m71e50b16be" d="M 75.734828 -88.786101 
L 75.734828 -62.698089 
L 77.571342 -63.026312 
L 79.407856 -63.359728 
L 81.244371 -63.713983 
L 83.080885 -64.068238 
L 84.9174 -64.415129 
L 86.753914 -64.757628 
L 88.590428 -65.100127 
L 90.426943 -65.44286 
L 92.263457 -65.786075 
L 94.099972 -66.12236 
L 95.936486 -66.404312 
L 97.773 -66.752782 
L 99.609515 -67.108933 
L 101.446029 -67.465083 
L 103.282544 -67.777475 
L 105.119058 -68.132568 
L 106.955572 -68.496713 
L 108.792087 -68.874591 
L 110.628601 -69.246349 
L 112.465116 -69.602207 
L 114.30163 -69.950456 
L 116.138144 -70.295564 
L 117.974659 -70.615243 
L 119.811173 -70.968237 
L 121.647688 -71.285801 
L 123.484202 -71.602499 
L 125.320717 -71.917962 
L 127.157231 -72.234583 
L 128.993745 -72.552842 
L 130.83026 -72.887954 
L 132.666774 -73.187329 
L 134.503289 -73.502456 
L 136.339803 -73.809345 
L 138.176317 -74.099758 
L 140.012832 -74.385404 
L 141.849346 -74.628119 
L 143.685861 -74.932343 
L 145.522375 -75.270242 
L 147.358889 -75.607589 
L 149.195404 -75.898334 
L 151.031918 -76.169446 
L 152.868433 -76.564191 
L 154.704947 -76.853665 
L 156.541461 -77.16251 
L 158.377976 -77.4748 
L 160.21449 -77.773159 
L 162.051005 -78.034536 
L 163.887519 -78.280549 
L 165.724033 -78.55804 
L 167.560548 -78.841113 
L 169.397062 -79.126776 
L 171.233577 -79.52186 
L 173.070091 -79.841043 
L 174.906605 -80.201329 
L 176.74312 -80.499223 
L 178.579634 -80.866483 
L 180.416149 -81.158665 
L 182.252663 -81.202896 
L 184.089177 -81.457568 
L 185.925692 -81.691359 
L 187.762206 -81.965746 
L 189.598721 -82.219707 
L 191.435235 -82.533917 
L 193.27175 -82.746748 
L 195.108264 -83.032172 
L 196.944778 -83.302764 
L 198.781293 -83.495631 
L 200.617807 -83.708178 
L 202.454322 -83.878685 
L 204.290836 -84.014427 
L 206.12735 -84.173079 
L 207.963865 -84.349278 
L 209.800379 -84.503334 
L 211.636894 -84.66398 
L 213.473408 -84.783201 
L 215.309922 -84.919848 
L 217.146437 -85.118708 
L 218.982951 -85.214049 
L 220.819466 -85.44418 
L 222.65598 -85.558429 
L 224.492494 -85.650363 
L 226.329009 -85.769225 
L 228.165523 -85.897184 
L 230.002038 -86.012184 
L 231.838552 -86.091237 
L 233.675066 -86.102952 
L 235.511581 -86.135676 
L 237.348095 -86.222728 
L 239.18461 -86.267141 
L 241.021124 -86.310301 
L 242.857638 -86.382313 
L 244.694153 -86.464572 
L 246.530667 -86.491372 
L 248.367182 -86.590299 
L 250.203696 -86.610614 
L 252.04021 -86.631006 
L 253.876725 -86.651766 
L 255.713239 -86.672527 
L 257.549754 -86.726792 
L 257.549754 -98.393932 
L 257.549754 -98.393932 
L 255.713239 -98.088714 
L 253.876725 -97.726299 
L 252.04021 -97.507747 
L 250.203696 -97.225694 
L 248.367182 -96.930236 
L 246.530667 -96.634678 
L 244.694153 -96.347366 
L 242.857638 -96.039153 
L 241.021124 -95.711118 
L 239.18461 -95.443197 
L 237.348095 -95.160812 
L 235.511581 -94.908693 
L 233.675066 -94.742669 
L 231.838552 -94.505747 
L 230.002038 -94.318573 
L 228.165523 -94.135877 
L 226.329009 -93.9594 
L 224.492494 -93.807842 
L 222.65598 -93.618575 
L 220.819466 -93.485173 
L 218.982951 -93.31329 
L 217.146437 -93.10188 
L 215.309922 -92.913721 
L 213.473408 -92.716894 
L 211.636894 -92.631458 
L 209.800379 -92.476666 
L 207.963865 -92.256286 
L 206.12735 -92.144518 
L 204.290836 -92.006037 
L 202.454322 -91.900104 
L 200.617807 -91.816754 
L 198.781293 -91.721791 
L 196.944778 -91.597049 
L 195.108264 -91.508295 
L 193.27175 -91.440169 
L 191.435235 -91.391269 
L 189.598721 -91.339139 
L 187.762206 -91.235519 
L 185.925692 -91.150515 
L 184.089177 -91.100426 
L 182.252663 -91.071583 
L 180.416149 -91.033816 
L 178.579634 -90.993123 
L 176.74312 -90.914739 
L 174.906605 -90.850612 
L 173.070091 -90.791934 
L 171.233577 -90.730478 
L 169.397062 -90.740632 
L 167.560548 -90.704024 
L 165.724033 -90.558948 
L 163.887519 -90.424057 
L 162.051005 -90.528289 
L 160.21449 -90.433961 
L 158.377976 -90.371266 
L 156.541461 -90.38477 
L 154.704947 -90.303158 
L 152.868433 -90.213965 
L 151.031918 -90.124771 
L 149.195404 -90.037349 
L 147.358889 -89.951075 
L 145.522375 -89.864801 
L 143.685861 -89.77671 
L 141.849346 -89.748653 
L 140.012832 -89.720596 
L 138.176317 -89.704406 
L 136.339803 -89.731921 
L 134.503289 -89.649457 
L 132.666774 -89.61418 
L 130.83026 -89.589041 
L 128.993745 -89.563901 
L 127.157231 -89.538761 
L 125.320717 -89.51703 
L 123.484202 -89.506116 
L 121.647688 -89.495133 
L 119.811173 -89.484149 
L 117.974659 -89.473166 
L 116.138144 -89.459271 
L 114.30163 -89.453435 
L 112.465116 -89.447621 
L 110.628601 -89.441888 
L 108.792087 -89.435877 
L 106.955572 -89.416724 
L 105.119058 -89.381158 
L 103.282544 -89.305202 
L 101.446029 -89.24365 
L 99.609515 -89.187581 
L 97.773 -89.131511 
L 95.936486 -89.081841 
L 94.099972 -89.054955 
L 92.263457 -89.02807 
L 90.426943 -89.001184 
L 88.590428 -88.974299 
L 86.753914 -88.947414 
L 84.9174 -88.920528 
L 83.080885 -88.893643 
L 81.244371 -88.866757 
L 79.407856 -88.839872 
L 77.571342 -88.812986 
L 75.734828 -88.786101 
z
" style="stroke: #ffffff; stroke-opacity: 0.15"/>
    </defs>
    <g clip-path="url(#p07d1198847)">
     <use xlink:href="#m71e50b16be" x="0" y="216" style="fill: #66c2a5; fill-opacity: 0.15; stroke: #ffffff; stroke-opacity: 0.15"/>
    </g>
   </g>
   <g id="PolyCollection_2">
    <defs>
     <path id="m9ca507405a" d="M 75.734828 -168.470738 
L 75.734828 -93.524336 
L 77.571342 -94.385238 
L 79.407856 -95.246991 
L 81.244371 -96.11124 
L 83.080885 -97.046509 
L 84.9174 -97.981779 
L 86.753914 -98.917048 
L 88.590428 -99.852318 
L 90.426943 -100.787588 
L 92.263457 -101.722857 
L 94.099972 -102.61961 
L 95.936486 -103.506513 
L 97.773 -104.387209 
L 99.609515 -105.235287 
L 101.446029 -106.085673 
L 103.282544 -106.936059 
L 105.119058 -107.786446 
L 106.955572 -108.636832 
L 108.792087 -109.537769 
L 110.628601 -110.498919 
L 112.465116 -111.460068 
L 114.30163 -112.386614 
L 116.138144 -113.273208 
L 117.974659 -114.159802 
L 119.811173 -115.046397 
L 121.647688 -115.932991 
L 123.484202 -116.819585 
L 125.320717 -117.707879 
L 127.157231 -118.596768 
L 128.993745 -119.485658 
L 130.83026 -120.374547 
L 132.666774 -121.263437 
L 134.503289 -122.152326 
L 136.339803 -123.041216 
L 138.176317 -123.930106 
L 140.012832 -124.818995 
L 141.849346 -125.707885 
L 143.685861 -126.565442 
L 145.522375 -127.35176 
L 147.358889 -128.233386 
L 149.195404 -129.159014 
L 151.031918 -130.084641 
L 152.868433 -131.010269 
L 154.704947 -131.909741 
L 156.541461 -132.797908 
L 158.377976 -133.594041 
L 160.21449 -134.310791 
L 162.051005 -135.3303 
L 163.887519 -136.349845 
L 165.724033 -137.117992 
L 167.560548 -137.805225 
L 169.397062 -138.493528 
L 171.233577 -139.432803 
L 173.070091 -140.432684 
L 174.906605 -141.435658 
L 176.74312 -142.022683 
L 178.579634 -142.723272 
L 180.416149 -143.40014 
L 182.252663 -143.988592 
L 184.089177 -144.581159 
L 185.925692 -145.429335 
L 187.762206 -146.357646 
L 189.598721 -147.300893 
L 191.435235 -148.199476 
L 193.27175 -149.122272 
L 195.108264 -149.981005 
L 196.944778 -150.595127 
L 198.781293 -151.186396 
L 200.617807 -151.993445 
L 202.454322 -152.720433 
L 204.290836 -153.440446 
L 206.12735 -154.131371 
L 207.963865 -154.583344 
L 209.800379 -155.242747 
L 211.636894 -155.69642 
L 213.473408 -156.15024 
L 215.309922 -156.606104 
L 217.146437 -157.061876 
L 218.982951 -157.709955 
L 220.819466 -158.27206 
L 222.65598 -158.7635 
L 224.492494 -159.20095 
L 226.329009 -159.409301 
L 228.165523 -159.943476 
L 230.002038 -160.239991 
L 231.838552 -160.643477 
L 233.675066 -160.743545 
L 235.511581 -161.056084 
L 237.348095 -161.293698 
L 239.18461 -161.429648 
L 241.021124 -161.567606 
L 242.857638 -161.700466 
L 244.694153 -161.77507 
L 246.530667 -162.068419 
L 248.367182 -162.347163 
L 250.203696 -162.474133 
L 252.04021 -162.685381 
L 253.876725 -163.047128 
L 255.713239 -163.207496 
L 257.549754 -163.328191 
L 257.549754 -185.003417 
L 257.549754 -185.003417 
L 255.713239 -184.3273 
L 253.876725 -183.756379 
L 252.04021 -183.051099 
L 250.203696 -182.417983 
L 248.367182 -181.75466 
L 246.530667 -181.398375 
L 244.694153 -180.873868 
L 242.857638 -180.248412 
L 241.021124 -179.836437 
L 239.18461 -179.318113 
L 237.348095 -178.807872 
L 235.511581 -178.529904 
L 233.675066 -178.086798 
L 231.838552 -177.637649 
L 230.002038 -177.246717 
L 228.165523 -176.856174 
L 226.329009 -176.50555 
L 224.492494 -176.191279 
L 222.65598 -175.874191 
L 220.819466 -175.69777 
L 218.982951 -175.470452 
L 217.146437 -175.235845 
L 215.309922 -175.053878 
L 213.473408 -174.855369 
L 211.636894 -174.711162 
L 209.800379 -174.544689 
L 207.963865 -174.311363 
L 206.12735 -174.073276 
L 204.290836 -173.83519 
L 202.454322 -173.712889 
L 200.617807 -173.400561 
L 198.781293 -173.290164 
L 196.944778 -173.350115 
L 195.108264 -173.157899 
L 193.27175 -173.009981 
L 191.435235 -172.807988 
L 189.598721 -172.640835 
L 187.762206 -172.383552 
L 185.925692 -172.264352 
L 184.089177 -172.210557 
L 182.252663 -172.156763 
L 180.416149 -172.102969 
L 178.579634 -172.049175 
L 176.74312 -171.99538 
L 174.906605 -171.94306 
L 173.070091 -171.836239 
L 171.233577 -171.839416 
L 169.397062 -171.791214 
L 167.560548 -171.742023 
L 165.724033 -171.685791 
L 163.887519 -171.629558 
L 162.051005 -171.571838 
L 160.21449 -171.383078 
L 158.377976 -171.19367 
L 156.541461 -171.002414 
L 154.704947 -170.867882 
L 152.868433 -170.771724 
L 151.031918 -170.675567 
L 149.195404 -170.579409 
L 147.358889 -170.526864 
L 145.522375 -170.446896 
L 143.685861 -170.493031 
L 141.849346 -170.532057 
L 140.012832 -170.369916 
L 138.176317 -170.325881 
L 136.339803 -170.199661 
L 134.503289 -170.070863 
L 132.666774 -169.940173 
L 130.83026 -169.808711 
L 128.993745 -169.677249 
L 127.157231 -169.545787 
L 125.320717 -169.414324 
L 123.484202 -169.282862 
L 121.647688 -169.168175 
L 119.811173 -169.073237 
L 117.974659 -168.978298 
L 116.138144 -168.88336 
L 114.30163 -168.788421 
L 112.465116 -168.693482 
L 110.628601 -168.706509 
L 108.792087 -168.807468 
L 106.955572 -168.807281 
L 105.119058 -168.708425 
L 103.282544 -168.604507 
L 101.446029 -168.50059 
L 99.609515 -168.396673 
L 97.773 -168.498831 
L 95.936486 -168.407178 
L 94.099972 -168.249294 
L 92.263457 -168.091409 
L 90.426943 -168.065867 
L 88.590428 -168.044531 
L 86.753914 -168.03778 
L 84.9174 -168.079136 
L 83.080885 -168.13246 
L 81.244371 -168.21703 
L 79.407856 -168.301599 
L 77.571342 -168.386169 
L 75.734828 -168.470738 
z
" style="stroke: #ffffff; stroke-opacity: 0.15"/>
    </defs>
    <g clip-path="url(#p07d1198847)">
     <use xlink:href="#m9ca507405a" x="0" y="216" style="fill: #fc8d62; fill-opacity: 0.15; stroke: #ffffff; stroke-opacity: 0.15"/>
    </g>
   </g>
   <g id="line2d_11">
    <path d="M 75.734828 139.214536 
L 77.571342 139.051428 
L 79.407856 138.88832 
L 81.244371 138.725211 
L 83.080885 138.562103 
L 84.9174 138.398995 
L 86.753914 138.235886 
L 88.590428 138.072778 
L 90.426943 137.90967 
L 92.263457 137.746561 
L 94.099972 137.583453 
L 95.936486 137.420345 
L 97.773 137.257237 
L 99.609515 137.094128 
L 101.446029 136.93102 
L 103.282544 136.767912 
L 105.119058 136.604803 
L 106.955572 136.441695 
L 108.792087 136.278587 
L 110.628601 136.115479 
L 112.465116 135.95237 
L 114.30163 135.789262 
L 116.138144 135.626154 
L 117.974659 135.463045 
L 119.811173 135.299937 
L 121.647688 135.136829 
L 123.484202 134.973721 
L 125.320717 134.810612 
L 127.157231 134.647504 
L 128.993745 134.484396 
L 130.83026 134.321287 
L 132.666774 134.158179 
L 134.503289 133.995071 
L 136.339803 133.831963 
L 138.176317 133.668854 
L 140.012832 133.505746 
L 141.849346 133.342638 
L 143.685861 133.179529 
L 145.522375 133.016421 
L 147.358889 132.853313 
L 149.195404 132.690205 
L 151.031918 132.527096 
L 152.868433 132.363988 
L 154.704947 132.20088 
L 156.541461 132.037771 
L 158.377976 131.874663 
L 160.21449 131.711555 
L 162.051005 131.548446 
L 163.887519 131.385338 
L 165.724033 131.22223 
L 167.560548 131.059122 
L 169.397062 130.896013 
L 171.233577 130.732905 
L 173.070091 130.569797 
L 174.906605 130.406688 
L 176.74312 130.24358 
L 178.579634 130.080472 
L 180.416149 129.917364 
L 182.252663 129.754255 
L 184.089177 129.591147 
L 185.925692 129.428039 
L 187.762206 129.26493 
L 189.598721 129.101822 
L 191.435235 128.938714 
L 193.27175 128.775606 
L 195.108264 128.612497 
L 196.944778 128.449389 
L 198.781293 128.286281 
L 200.617807 128.123172 
L 202.454322 127.960064 
L 204.290836 127.796956 
L 206.12735 127.633848 
L 207.963865 127.470739 
L 209.800379 127.307631 
L 211.636894 127.144523 
L 213.473408 126.981414 
L 215.309922 126.818306 
L 217.146437 126.655198 
L 218.982951 126.49209 
L 220.819466 126.328981 
L 222.65598 126.165873 
L 224.492494 126.002765 
L 226.329009 125.839656 
L 228.165523 125.676548 
L 230.002038 125.51344 
L 231.838552 125.350331 
L 233.675066 125.187223 
L 235.511581 125.024115 
L 237.348095 124.861007 
L 239.18461 124.697898 
L 241.021124 124.53479 
L 242.857638 124.371682 
L 244.694153 124.208573 
L 246.530667 124.045465 
L 248.367182 123.882357 
L 250.203696 123.719249 
L 252.04021 123.55614 
L 253.876725 123.393032 
L 255.713239 123.229924 
L 257.549754 123.066815 
" clip-path="url(#p07d1198847)" style="fill: none; stroke: #66c2a5; stroke-width: 2.25; stroke-linecap: round"/>
   </g>
   <g id="line2d_12">
    <path d="M 75.734828 75.593947 
L 77.571342 75.248693 
L 79.407856 74.903439 
L 81.244371 74.558185 
L 83.080885 74.21293 
L 84.9174 73.867676 
L 86.753914 73.522422 
L 88.590428 73.177168 
L 90.426943 72.831914 
L 92.263457 72.486659 
L 94.099972 72.141405 
L 95.936486 71.796151 
L 97.773 71.450897 
L 99.609515 71.105642 
L 101.446029 70.760388 
L 103.282544 70.415134 
L 105.119058 70.06988 
L 106.955572 69.724626 
L 108.792087 69.379371 
L 110.628601 69.034117 
L 112.465116 68.688863 
L 114.30163 68.343609 
L 116.138144 67.998355 
L 117.974659 67.6531 
L 119.811173 67.307846 
L 121.647688 66.962592 
L 123.484202 66.617338 
L 125.320717 66.272083 
L 127.157231 65.926829 
L 128.993745 65.581575 
L 130.83026 65.236321 
L 132.666774 64.891067 
L 134.503289 64.545812 
L 136.339803 64.200558 
L 138.176317 63.855304 
L 140.012832 63.51005 
L 141.849346 63.164795 
L 143.685861 62.819541 
L 145.522375 62.474287 
L 147.358889 62.129033 
L 149.195404 61.783779 
L 151.031918 61.438524 
L 152.868433 61.09327 
L 154.704947 60.748016 
L 156.541461 60.402762 
L 158.377976 60.057507 
L 160.21449 59.712253 
L 162.051005 59.366999 
L 163.887519 59.021745 
L 165.724033 58.676491 
L 167.560548 58.331236 
L 169.397062 57.985982 
L 171.233577 57.640728 
L 173.070091 57.295474 
L 174.906605 56.950219 
L 176.74312 56.604965 
L 178.579634 56.259711 
L 180.416149 55.914457 
L 182.252663 55.569203 
L 184.089177 55.223948 
L 185.925692 54.878694 
L 187.762206 54.53344 
L 189.598721 54.188186 
L 191.435235 53.842932 
L 193.27175 53.497677 
L 195.108264 53.152423 
L 196.944778 52.807169 
L 198.781293 52.461915 
L 200.617807 52.11666 
L 202.454322 51.771406 
L 204.290836 51.426152 
L 206.12735 51.080898 
L 207.963865 50.735644 
L 209.800379 50.390389 
L 211.636894 50.045135 
L 213.473408 49.699881 
L 215.309922 49.354627 
L 217.146437 49.009372 
L 218.982951 48.664118 
L 220.819466 48.318864 
L 222.65598 47.97361 
L 224.492494 47.628356 
L 226.329009 47.283101 
L 228.165523 46.937847 
L 230.002038 46.592593 
L 231.838552 46.247339 
L 233.675066 45.902084 
L 235.511581 45.55683 
L 237.348095 45.211576 
L 239.18461 44.866322 
L 241.021124 44.521068 
L 242.857638 44.175813 
L 244.694153 43.830559 
L 246.530667 43.485305 
L 248.367182 43.140051 
L 250.203696 42.794796 
L 252.04021 42.449542 
L 253.876725 42.104288 
L 255.713239 41.759034 
L 257.549754 41.41378 
" clip-path="url(#p07d1198847)" style="fill: none; stroke: #fc8d62; stroke-width: 2.25; stroke-linecap: round"/>
   </g>
   <g id="patch_3">
    <path d="M 66.644081 153.776327 
L 66.644081 19.906364 
" style="fill: none; stroke: #262626; stroke-width: 1.25; stroke-linejoin: miter; stroke-linecap: square"/>
   </g>
   <g id="patch_4">
    <path d="M 75.734828 165.78 
L 257.549754 165.78 
" style="fill: none; stroke: #262626; stroke-width: 1.25; stroke-linejoin: miter; stroke-linecap: square"/>
   </g>
   <g id="text_13">
    <text style="fill: #262626; font: 12px 'Arial', 'DejaVu Sans', 'Liberation Sans', 'Bitstream Vera Sans', sans-serif; text-anchor: middle" x="166.642291" y="6.96" transform="rotate(-0 166.642291 6.96)">Opponent multiplier = 2.5</text>
   </g>
   <g id="PathCollection_1">
    <defs>
     <path id="m700513838f" d="M 0 2.738613 
C 0.726289 2.738613 1.422928 2.450055 1.936492 1.936492 
C 2.450055 1.422928 2.738613 0.726289 2.738613 0 
C 2.738613 -0.726289 2.450055 -1.422928 1.936492 -1.936492 
C 1.422928 -2.450055 0.726289 -2.738613 0 -2.738613 
C -0.726289 -2.738613 -1.422928 -2.450055 -1.936492 -1.936492 
C -2.450055 -1.422928 -2.738613 -0.726289 -2.738613 0 
C -2.738613 0.726289 -2.450055 1.422928 -1.936492 1.936492 
C -1.422928 2.450055 -0.726289 2.738613 0 2.738613 
z
" style="stroke: #ffffff; stroke-opacity: 0.8; stroke-width: 0.5"/>
    </defs>
    <g>
     <use xlink:href="#m700513838f" x="136.339803" y="127.002334" style="fill: #66c2a5; fill-opacity: 0.8; stroke: #ffffff; stroke-opacity: 0.8; stroke-width: 0.5"/>
     <use xlink:href="#m700513838f" x="239.368261" y="117.482692" style="fill: #66c2a5; fill-opacity: 0.8; stroke: #ffffff; stroke-opacity: 0.8; stroke-width: 0.5"/>
     <use xlink:href="#m700513838f" x="209.065773" y="115.102782" style="fill: #66c2a5; fill-opacity: 0.8; stroke: #ffffff; stroke-opacity: 0.8; stroke-width: 0.5"/>
     <use xlink:href="#m700513838f" x="81.795325" y="153.776327" style="fill: #66c2a5; fill-opacity: 0.8; stroke: #ffffff; stroke-opacity: 0.8; stroke-width: 0.5"/>
     <use xlink:href="#m700513838f" x="106.037315" y="143.661707" style="fill: #66c2a5; fill-opacity: 0.8; stroke: #ffffff; stroke-opacity: 0.8; stroke-width: 0.5"/>
     <use xlink:href="#m700513838f" x="257.549754" y="126.109868" style="fill: #66c2a5; fill-opacity: 0.8; stroke: #ffffff; stroke-opacity: 0.8; stroke-width: 0.5"/>
     <use xlink:href="#m700513838f" x="184.823783" y="134.142065" style="fill: #66c2a5; fill-opacity: 0.8; stroke: #ffffff; stroke-opacity: 0.8; stroke-width: 0.5"/>
     <use xlink:href="#m700513838f" x="209.065773" y="140.38933" style="fill: #66c2a5; fill-opacity: 0.8; stroke: #ffffff; stroke-opacity: 0.8; stroke-width: 0.5"/>
     <use xlink:href="#m700513838f" x="251.489256" y="136.819465" style="fill: #66c2a5; fill-opacity: 0.8; stroke: #ffffff; stroke-opacity: 0.8; stroke-width: 0.5"/>
     <use xlink:href="#m700513838f" x="203.005276" y="131.464666" style="fill: #66c2a5; fill-opacity: 0.8; stroke: #ffffff; stroke-opacity: 0.8; stroke-width: 0.5"/>
     <use xlink:href="#m700513838f" x="166.642291" y="144.851662" style="fill: #66c2a5; fill-opacity: 0.8; stroke: #ffffff; stroke-opacity: 0.8; stroke-width: 0.5"/>
     <use xlink:href="#m700513838f" x="257.549754" y="109.153006" style="fill: #66c2a5; fill-opacity: 0.8; stroke: #ffffff; stroke-opacity: 0.8; stroke-width: 0.5"/>
     <use xlink:href="#m700513838f" x="245.428759" y="116.887715" style="fill: #66c2a5; fill-opacity: 0.8; stroke: #ffffff; stroke-opacity: 0.8; stroke-width: 0.5"/>
     <use xlink:href="#m700513838f" x="148.460798" y="145.149151" style="fill: #66c2a5; fill-opacity: 0.8; stroke: #ffffff; stroke-opacity: 0.8; stroke-width: 0.5"/>
     <use xlink:href="#m700513838f" x="154.521296" y="139.199375" style="fill: #66c2a5; fill-opacity: 0.8; stroke: #ffffff; stroke-opacity: 0.8; stroke-width: 0.5"/>
     <use xlink:href="#m700513838f" x="257.549754" y="109.153006" style="fill: #66c2a5; fill-opacity: 0.8; stroke: #ffffff; stroke-opacity: 0.8; stroke-width: 0.5"/>
     <use xlink:href="#m700513838f" x="81.795325" y="121.350047" style="fill: #66c2a5; fill-opacity: 0.8; stroke: #ffffff; stroke-opacity: 0.8; stroke-width: 0.5"/>
     <use xlink:href="#m700513838f" x="75.734828" y="109.153006" style="fill: #66c2a5; fill-opacity: 0.8; stroke: #ffffff; stroke-opacity: 0.8; stroke-width: 0.5"/>
     <use xlink:href="#m700513838f" x="227.247266" y="130.274711" style="fill: #66c2a5; fill-opacity: 0.8; stroke: #ffffff; stroke-opacity: 0.8; stroke-width: 0.5"/>
     <use xlink:href="#m700513838f" x="184.823783" y="119.862603" style="fill: #66c2a5; fill-opacity: 0.8; stroke: #ffffff; stroke-opacity: 0.8; stroke-width: 0.5"/>
     <use xlink:href="#m700513838f" x="257.549754" y="120.45758" style="fill: #66c2a5; fill-opacity: 0.8; stroke: #ffffff; stroke-opacity: 0.8; stroke-width: 0.5"/>
     <use xlink:href="#m700513838f" x="251.489256" y="130.274711" style="fill: #66c2a5; fill-opacity: 0.8; stroke: #ffffff; stroke-opacity: 0.8; stroke-width: 0.5"/>
     <use xlink:href="#m700513838f" x="81.795325" y="158.833636" style="fill: #66c2a5; fill-opacity: 0.8; stroke: #ffffff; stroke-opacity: 0.8; stroke-width: 0.5"/>
     <use xlink:href="#m700513838f" x="251.489256" y="119.862603" style="fill: #66c2a5; fill-opacity: 0.8; stroke: #ffffff; stroke-opacity: 0.8; stroke-width: 0.5"/>
     <use xlink:href="#m700513838f" x="93.91632" y="127.8948" style="fill: #66c2a5; fill-opacity: 0.8; stroke: #ffffff; stroke-opacity: 0.8; stroke-width: 0.5"/>
     <use xlink:href="#m700513838f" x="172.702788" y="126.109868" style="fill: #66c2a5; fill-opacity: 0.8; stroke: #ffffff; stroke-opacity: 0.8; stroke-width: 0.5"/>
     <use xlink:href="#m700513838f" x="209.065773" y="144.554174" style="fill: #66c2a5; fill-opacity: 0.8; stroke: #ffffff; stroke-opacity: 0.8; stroke-width: 0.5"/>
     <use xlink:href="#m700513838f" x="257.549754" y="120.755069" style="fill: #66c2a5; fill-opacity: 0.8; stroke: #ffffff; stroke-opacity: 0.8; stroke-width: 0.5"/>
    </g>
   </g>
   <g id="PathCollection_2">
    <defs>
     <path id="m7436e14000" d="M 0 2.738613 
C 0.726289 2.738613 1.422928 2.450055 1.936492 1.936492 
C 2.450055 1.422928 2.738613 0.726289 2.738613 0 
C 2.738613 -0.726289 2.450055 -1.422928 1.936492 -1.936492 
C 1.422928 -2.450055 0.726289 -2.738613 0 -2.738613 
C -0.726289 -2.738613 -1.422928 -2.450055 -1.936492 -1.936492 
C -2.450055 -1.422928 -2.738613 -0.726289 -2.738613 0 
C -2.738613 0.726289 -2.450055 1.422928 -1.936492 1.936492 
C -1.422928 2.450055 -0.726289 2.738613 0 2.738613 
z
" style="stroke: #ffffff; stroke-opacity: 0.8; stroke-width: 0.5"/>
    </defs>
    <g>
     <use xlink:href="#m7436e14000" x="257.549754" y="19.906364" style="fill: #fc8d62; fill-opacity: 0.8; stroke: #ffffff; stroke-opacity: 0.8; stroke-width: 0.5"/>
     <use xlink:href="#m7436e14000" x="251.489256" y="23.178741" style="fill: #fc8d62; fill-opacity: 0.8; stroke: #ffffff; stroke-opacity: 0.8; stroke-width: 0.5"/>
     <use xlink:href="#m7436e14000" x="257.549754" y="19.906364" style="fill: #fc8d62; fill-opacity: 0.8; stroke: #ffffff; stroke-opacity: 0.8; stroke-width: 0.5"/>
     <use xlink:href="#m7436e14000" x="160.581793" y="121.647536" style="fill: #fc8d62; fill-opacity: 0.8; stroke: #ffffff; stroke-opacity: 0.8; stroke-width: 0.5"/>
     <use xlink:href="#m7436e14000" x="75.734828" y="42.813002" style="fill: #fc8d62; fill-opacity: 0.8; stroke: #ffffff; stroke-opacity: 0.8; stroke-width: 0.5"/>
     <use xlink:href="#m7436e14000" x="239.368261" y="93.08861" style="fill: #fc8d62; fill-opacity: 0.8; stroke: #ffffff; stroke-opacity: 0.8; stroke-width: 0.5"/>
     <use xlink:href="#m7436e14000" x="75.734828" y="86.841345" style="fill: #fc8d62; fill-opacity: 0.8; stroke: #ffffff; stroke-opacity: 0.8; stroke-width: 0.5"/>
     <use xlink:href="#m7436e14000" x="245.428759" y="48.762778" style="fill: #fc8d62; fill-opacity: 0.8; stroke: #ffffff; stroke-opacity: 0.8; stroke-width: 0.5"/>
     <use xlink:href="#m7436e14000" x="148.460798" y="78.809147" style="fill: #fc8d62; fill-opacity: 0.8; stroke: #ffffff; stroke-opacity: 0.8; stroke-width: 0.5"/>
     <use xlink:href="#m7436e14000" x="257.549754" y="27.938561" style="fill: #fc8d62; fill-opacity: 0.8; stroke: #ffffff; stroke-opacity: 0.8; stroke-width: 0.5"/>
     <use xlink:href="#m7436e14000" x="124.218808" y="99.930853" style="fill: #fc8d62; fill-opacity: 0.8; stroke: #ffffff; stroke-opacity: 0.8; stroke-width: 0.5"/>
     <use xlink:href="#m7436e14000" x="209.065773" y="51.142688" style="fill: #fc8d62; fill-opacity: 0.8; stroke: #ffffff; stroke-opacity: 0.8; stroke-width: 0.5"/>
     <use xlink:href="#m7436e14000" x="221.186768" y="73.454349" style="fill: #fc8d62; fill-opacity: 0.8; stroke: #ffffff; stroke-opacity: 0.8; stroke-width: 0.5"/>
     <use xlink:href="#m7436e14000" x="257.549754" y="30.318472" style="fill: #fc8d62; fill-opacity: 0.8; stroke: #ffffff; stroke-opacity: 0.8; stroke-width: 0.5"/>
     <use xlink:href="#m7436e14000" x="251.489256" y="32.400894" style="fill: #fc8d62; fill-opacity: 0.8; stroke: #ffffff; stroke-opacity: 0.8; stroke-width: 0.5"/>
     <use xlink:href="#m7436e14000" x="215.126271" y="65.71964" style="fill: #fc8d62; fill-opacity: 0.8; stroke: #ffffff; stroke-opacity: 0.8; stroke-width: 0.5"/>
     <use xlink:href="#m7436e14000" x="75.734828" y="19.906364" style="fill: #fc8d62; fill-opacity: 0.8; stroke: #ffffff; stroke-opacity: 0.8; stroke-width: 0.5"/>
     <use xlink:href="#m7436e14000" x="257.549754" y="24.071207" style="fill: #fc8d62; fill-opacity: 0.8; stroke: #ffffff; stroke-opacity: 0.8; stroke-width: 0.5"/>
     <use xlink:href="#m7436e14000" x="184.823783" y="24.368696" style="fill: #fc8d62; fill-opacity: 0.8; stroke: #ffffff; stroke-opacity: 0.8; stroke-width: 0.5"/>
     <use xlink:href="#m7436e14000" x="257.549754" y="30.318472" style="fill: #fc8d62; fill-opacity: 0.8; stroke: #ffffff; stroke-opacity: 0.8; stroke-width: 0.5"/>
     <use xlink:href="#m7436e14000" x="227.247266" y="34.483315" style="fill: #fc8d62; fill-opacity: 0.8; stroke: #ffffff; stroke-opacity: 0.8; stroke-width: 0.5"/>
     <use xlink:href="#m7436e14000" x="257.549754" y="19.906364" style="fill: #fc8d62; fill-opacity: 0.8; stroke: #ffffff; stroke-opacity: 0.8; stroke-width: 0.5"/>
     <use xlink:href="#m7436e14000" x="190.884281" y="75.53677" style="fill: #fc8d62; fill-opacity: 0.8; stroke: #ffffff; stroke-opacity: 0.8; stroke-width: 0.5"/>
     <use xlink:href="#m7436e14000" x="257.549754" y="46.977845" style="fill: #fc8d62; fill-opacity: 0.8; stroke: #ffffff; stroke-opacity: 0.8; stroke-width: 0.5"/>
     <use xlink:href="#m7436e14000" x="221.186768" y="52.332644" style="fill: #fc8d62; fill-opacity: 0.8; stroke: #ffffff; stroke-opacity: 0.8; stroke-width: 0.5"/>
     <use xlink:href="#m7436e14000" x="178.763286" y="64.232196" style="fill: #fc8d62; fill-opacity: 0.8; stroke: #ffffff; stroke-opacity: 0.8; stroke-width: 0.5"/>
     <use xlink:href="#m7436e14000" x="251.489256" y="71.371927" style="fill: #fc8d62; fill-opacity: 0.8; stroke: #ffffff; stroke-opacity: 0.8; stroke-width: 0.5"/>
     <use xlink:href="#m7436e14000" x="203.005276" y="43.407979" style="fill: #fc8d62; fill-opacity: 0.8; stroke: #ffffff; stroke-opacity: 0.8; stroke-width: 0.5"/>
    </g>
   </g>
  </g>
  <g id="legend_1">
   <g id="text_14">
    <text style="fill: #262626; font: 12px 'Arial', 'DejaVu Sans', 'Liberation Sans', 'Bitstream Vera Sans', sans-serif; text-anchor: start" x="268.781875" y="95.165312" transform="rotate(-0 268.781875 95.165312)">multiplier</text>
   </g>
   <g id="PathCollection_3">
    <g>
     <use xlink:href="#m700513838f" x="284.269219" y="108.631719" style="fill: #66c2a5; fill-opacity: 0.8; stroke: #ffffff; stroke-opacity: 0.8; stroke-width: 0.5"/>
    </g>
   </g>
   <g id="text_15">
    <text style="fill: #262626; font: 11px 'Arial', 'DejaVu Sans', 'Liberation Sans', 'Bitstream Vera Sans', sans-serif; text-anchor: start" x="304.069219" y="111.519219" transform="rotate(-0 304.069219 111.519219)">1.5</text>
   </g>
   <g id="PathCollection_4">
    <g>
     <use xlink:href="#m7436e14000" x="284.269219" y="124.777656" style="fill: #fc8d62; fill-opacity: 0.8; stroke: #ffffff; stroke-opacity: 0.8; stroke-width: 0.5"/>
    </g>
   </g>
   <g id="text_16">
    <text style="fill: #262626; font: 11px 'Arial', 'DejaVu Sans', 'Liberation Sans', 'Bitstream Vera Sans', sans-serif; text-anchor: start" x="304.069219" y="127.665156" transform="rotate(-0 304.069219 127.665156)">2.5</text>
   </g>
  </g>
 </g>
 <defs>
  <clipPath id="p07d1198847">
   <rect x="66.644081" y="12.96" width="199.996419" height="152.82"/>
  </clipPath>
 </defs>
</svg>
