<?xml version="1.0" encoding="utf-8" standalone="no"?>
<!DOCTYPE svg PUBLIC "-//W3C//DTD SVG 1.1//EN"
  "http://www.w3.org/Graphics/SVG/1.1/DTD/svg11.dtd">
<svg xmlns:xlink="http://www.w3.org/1999/xlink" width="335.95pt" height="216pt" viewBox="0 0 335.95 216" xmlns="http://www.w3.org/2000/svg" version="1.1">
 <metadata>
  <rdf:RDF xmlns:dc="http://purl.org/dc/elements/1.1/" xmlns:cc="http://creativecommons.org/ns#" xmlns:rdf="http://www.w3.org/1999/02/22-rdf-syntax-ns#">
   <cc:Work>
    <dc:type rdf:resource="http://purl.org/dc/dcmitype/StillImage"/>
    <dc:date>2023-03-08T18:47:03.571120</dc:date>
    <dc:format>image/svg+xml</dc:format>
    <dc:creator>
     <cc:Agent>
      <dc:title>Matplotlib v3.7.0, https://matplotlib.org/</dc:title>
     </cc:Agent>
    </dc:creator>
   </cc:Work>
  </rdf:RDF>
 </metadata>
 <defs>
  <style type="text/css">*{stroke-linejoin: round; stroke-linecap: butt}</style>
 </defs>
 <g id="figure_1">
  <g id="patch_1">
   <path d="M 0 216 
L 335.95 216 
L 335.95 0 
L 0 0 
z
" style="fill: #ffffff"/>
  </g>
  <g id="axes_1">
   <g id="patch_2">
    <path d="M 71.011431 165.78 
L 266.6405 165.78 
L 266.6405 12.96 
L 71.011431 12.96 
z
" style="fill: #ffffff"/>
   </g>
   <g id="matplotlib.axis_1">
    <g id="xtick_1">
     <g id="line2d_1">
      <defs>
       <path id="m43672fe813" d="M 0 0 
L 0 6 
" style="stroke: #262626; stroke-width: 1.25"/>
      </defs>
      <g>
       <use xlink:href="#m43672fe813" x="79.903662" y="165.78" style="fill: #262626; stroke: #262626; stroke-width: 1.25"/>
      </g>
     </g>
     <g id="text_1">
      <text style="fill: #262626; font: 11px 'Arial', 'DejaVu Sans', 'Liberation Sans', 'Bitstream Vera Sans', sans-serif; text-anchor: middle" x="79.903662" y="183.638281" transform="rotate(-0 79.903662 183.638281)">0.00</text>
     </g>
    </g>
    <g id="xtick_2">
     <g id="line2d_2">
      <g>
       <use xlink:href="#m43672fe813" x="124.364814" y="165.78" style="fill: #262626; stroke: #262626; stroke-width: 1.25"/>
      </g>
     </g>
     <g id="text_2">
      <text style="fill: #262626; font: 11px 'Arial', 'DejaVu Sans', 'Liberation Sans', 'Bitstream Vera Sans', sans-serif; text-anchor: middle" x="124.364814" y="183.638281" transform="rotate(-0 124.364814 183.638281)">0.25</text>
     </g>
    </g>
    <g id="xtick_3">
     <g id="line2d_3">
      <g>
       <use xlink:href="#m43672fe813" x="168.825966" y="165.78" style="fill: #262626; stroke: #262626; stroke-width: 1.25"/>
      </g>
     </g>
     <g id="text_3">
      <text style="fill: #262626; font: 11px 'Arial', 'DejaVu Sans', 'Liberation Sans', 'Bitstream Vera Sans', sans-serif; text-anchor: middle" x="168.825966" y="183.638281" transform="rotate(-0 168.825966 183.638281)">0.50</text>
     </g>
    </g>
    <g id="xtick_4">
     <g id="line2d_4">
      <g>
       <use xlink:href="#m43672fe813" x="213.287118" y="165.78" style="fill: #262626; stroke: #262626; stroke-width: 1.25"/>
      </g>
     </g>
     <g id="text_4">
      <text style="fill: #262626; font: 11px 'Arial', 'DejaVu Sans', 'Liberation Sans', 'Bitstream Vera Sans', sans-serif; text-anchor: middle" x="213.287118" y="183.638281" transform="rotate(-0 213.287118 183.638281)">0.75</text>
     </g>
    </g>
    <g id="xtick_5">
     <g id="line2d_5">
      <g>
       <use xlink:href="#m43672fe813" x="257.74827" y="165.78" style="fill: #262626; stroke: #262626; stroke-width: 1.25"/>
      </g>
     </g>
     <g id="text_5">
      <text style="fill: #262626; font: 11px 'Arial', 'DejaVu Sans', 'Liberation Sans', 'Bitstream Vera Sans', sans-serif; text-anchor: middle" x="257.74827" y="183.638281" transform="rotate(-0 257.74827 183.638281)">1.00</text>
     </g>
    </g>
    <g id="text_6">
     <text style="fill: #262626; font: 12px 'Arial', 'DejaVu Sans', 'Liberation Sans', 'Bitstream Vera Sans', sans-serif; text-anchor: middle" x="168.825966" y="199.044062" transform="rotate(-0 168.825966 199.044062)">p(disclose)</text>
    </g>
   </g>
   <g id="matplotlib.axis_2">
    <g id="ytick_1">
     <g id="line2d_6">
      <defs>
       <path id="mc34b0d19fd" d="M 0 0 
L -6 0 
" style="stroke: #262626; stroke-width: 1.25"/>
      </defs>
      <g>
       <use xlink:href="#mc34b0d19fd" x="71.011431" y="165.78" style="fill: #262626; stroke: #262626; stroke-width: 1.25"/>
      </g>
     </g>
     <g id="text_7">
      <text style="fill: #262626; font: 11px 'Arial', 'DejaVu Sans', 'Liberation Sans', 'Bitstream Vera Sans', sans-serif; text-anchor: end" x="61.511431" y="169.959141" transform="rotate(-0 61.511431 169.959141)">0.0</text>
     </g>
    </g>
    <g id="ytick_2">
     <g id="line2d_7">
      <g>
       <use xlink:href="#mc34b0d19fd" x="71.011431" y="135.216" style="fill: #262626; stroke: #262626; stroke-width: 1.25"/>
      </g>
     </g>
     <g id="text_8">
      <text style="fill: #262626; font: 11px 'Arial', 'DejaVu Sans', 'Liberation Sans', 'Bitstream Vera Sans', sans-serif; text-anchor: end" x="61.511431" y="139.395141" transform="rotate(-0 61.511431 139.395141)">0.2</text>
     </g>
    </g>
    <g id="ytick_3">
     <g id="line2d_8">
      <g>
       <use xlink:href="#mc34b0d19fd" x="71.011431" y="104.652" style="fill: #262626; stroke: #262626; stroke-width: 1.25"/>
      </g>
     </g>
     <g id="text_9">
      <text style="fill: #262626; font: 11px 'Arial', 'DejaVu Sans', 'Liberation Sans', 'Bitstream Vera Sans', sans-serif; text-anchor: end" x="61.511431" y="108.831141" transform="rotate(-0 61.511431 108.831141)">0.4</text>
     </g>
    </g>
    <g id="ytick_4">
     <g id="line2d_9">
      <g>
       <use xlink:href="#mc34b0d19fd" x="71.011431" y="74.088" style="fill: #262626; stroke: #262626; stroke-width: 1.25"/>
      </g>
     </g>
     <g id="text_10">
      <text style="fill: #262626; font: 11px 'Arial', 'DejaVu Sans', 'Liberation Sans', 'Bitstream Vera Sans', sans-serif; text-anchor: end" x="61.511431" y="78.267141" transform="rotate(-0 61.511431 78.267141)">0.6</text>
     </g>
    </g>
    <g id="ytick_5">
     <g id="line2d_10">
      <g>
       <use xlink:href="#mc34b0d19fd" x="71.011431" y="43.524" style="fill: #262626; stroke: #262626; stroke-width: 1.25"/>
      </g>
     </g>
     <g id="text_11">
      <text style="fill: #262626; font: 11px 'Arial', 'DejaVu Sans', 'Liberation Sans', 'Bitstream Vera Sans', sans-serif; text-anchor: end" x="61.511431" y="47.703141" transform="rotate(-0 61.511431 47.703141)">0.8</text>
     </g>
    </g>
    <g id="ytick_6">
     <g id="line2d_11">
      <g>
       <use xlink:href="#mc34b0d19fd" x="71.011431" y="12.96" style="fill: #262626; stroke: #262626; stroke-width: 1.25"/>
      </g>
     </g>
     <g id="text_12">
      <text style="fill: #262626; font: 11px 'Arial', 'DejaVu Sans', 'Liberation Sans', 'Bitstream Vera Sans', sans-serif; text-anchor: end" x="61.511431" y="17.139141" transform="rotate(-0 61.511431 17.139141)">1.0</text>
     </g>
    </g>
    <g id="text_13">
     <text style="fill: #262626; font: 12px 'Arial', 'DejaVu Sans', 'Liberation Sans', 'Bitstream Vera Sans', sans-serif; text-anchor: middle" x="37.522369" y="89.37" transform="rotate(-90 37.522369 89.37)">social wellfare</text>
    </g>
   </g>
   <g id="PolyCollection_1">
    <defs>
     <path id="m26cd10473d" d="M 79.903662 -132.530995 
L 79.903662 -119.358311 
L 80.741986 -119.457514 
L 81.580311 -119.654149 
L 82.418636 -119.740749 
L 83.256961 -119.871666 
L 84.095285 -119.943869 
L 84.93361 -120.016071 
L 85.771935 -120.088274 
L 86.61026 -120.161449 
L 87.448584 -120.244663 
L 88.286909 -120.328374 
L 89.125234 -120.403664 
L 89.963559 -120.472885 
L 90.801883 -120.542105 
L 91.640208 -120.611325 
L 92.478533 -120.680937 
L 93.316858 -120.782193 
L 94.155182 -120.861887 
L 94.993507 -120.953298 
L 95.831832 -121.044709 
L 96.670157 -121.096509 
L 97.508481 -121.160055 
L 98.346806 -121.246596 
L 99.185131 -121.299949 
L 100.023456 -121.380274 
L 100.86178 -121.382799 
L 101.700105 -121.43024 
L 102.53843 -121.509966 
L 103.376755 -121.547389 
L 104.215079 -121.496176 
L 105.053404 -121.444641 
L 105.891729 -121.415591 
L 106.730054 -121.436507 
L 107.568378 -121.526267 
L 108.406703 -121.500914 
L 109.245028 -121.433142 
L 110.083353 -121.401481 
L 110.921677 -121.385503 
L 111.760002 -121.376915 
L 112.598327 -121.342342 
L 113.436652 -121.27074 
L 114.274976 -121.196577 
L 115.113301 -121.130975 
L 115.951626 -121.039261 
L 116.789951 -120.931739 
L 117.628275 -120.754783 
L 118.4666 -120.704464 
L 119.304925 -120.604008 
L 120.14325 -120.546206 
L 120.981574 -120.470061 
L 121.819899 -120.418313 
L 122.658224 -120.32622 
L 123.496549 -120.194371 
L 124.334873 -120.144876 
L 125.173198 -120.065641 
L 126.011523 -119.937373 
L 126.849848 -119.791506 
L 127.688172 -119.723252 
L 128.526497 -119.642652 
L 129.364822 -119.589522 
L 130.203147 -119.544487 
L 131.041471 -119.478315 
L 131.879796 -119.384125 
L 132.718121 -119.320351 
L 133.556446 -119.264075 
L 134.39477 -119.148747 
L 135.233095 -119.019264 
L 136.07142 -118.890114 
L 136.909745 -118.762225 
L 137.748069 -118.634757 
L 138.586394 -118.508188 
L 139.424719 -118.38362 
L 140.263044 -118.290798 
L 141.101368 -118.151825 
L 141.939693 -117.996616 
L 142.778018 -117.867163 
L 143.616343 -117.671058 
L 144.454667 -117.551094 
L 145.292992 -117.42445 
L 146.131317 -117.245143 
L 146.969642 -117.067357 
L 147.807967 -116.931972 
L 148.646291 -116.842676 
L 149.484616 -116.75338 
L 150.322941 -116.615346 
L 151.161266 -116.476664 
L 151.99959 -116.337982 
L 152.837915 -116.1993 
L 153.67624 -116.059373 
L 154.514565 -115.906823 
L 155.352889 -115.754273 
L 156.191214 -115.601724 
L 157.029539 -115.472013 
L 157.867864 -115.326878 
L 158.706188 -115.178286 
L 159.544513 -115.029693 
L 160.382838 -114.881101 
L 161.221163 -114.732508 
L 162.059487 -114.583915 
L 162.897812 -114.435323 
L 162.897812 -139.507131 
L 162.897812 -139.507131 
L 162.059487 -139.31247 
L 161.221163 -139.175742 
L 160.382838 -139.011378 
L 159.544513 -138.847015 
L 158.706188 -138.682651 
L 157.867864 -138.518241 
L 157.029539 -138.353072 
L 156.191214 -138.187904 
L 155.352889 -138.022735 
L 154.514565 -137.857567 
L 153.67624 -137.725486 
L 152.837915 -137.642884 
L 151.99959 -137.560281 
L 151.161266 -137.477679 
L 150.322941 -137.395076 
L 149.484616 -137.307744 
L 148.646291 -137.164899 
L 147.807967 -137.021474 
L 146.969642 -136.87805 
L 146.131317 -136.687055 
L 145.292992 -136.48302 
L 144.454667 -136.31164 
L 143.616343 -136.1439 
L 142.778018 -135.958304 
L 141.939693 -135.772553 
L 141.101368 -135.586213 
L 140.263044 -135.398659 
L 139.424719 -135.307051 
L 138.586394 -135.23238 
L 137.748069 -135.04332 
L 136.909745 -134.851084 
L 136.07142 -134.658847 
L 135.233095 -134.524006 
L 134.39477 -134.37347 
L 133.556446 -134.25861 
L 132.718121 -134.126996 
L 131.879796 -134.044842 
L 131.041471 -133.993896 
L 130.203147 -133.904733 
L 129.364822 -133.756951 
L 128.526497 -133.609168 
L 127.688172 -133.460316 
L 126.849848 -133.318208 
L 126.011523 -133.265015 
L 125.173198 -133.154112 
L 124.334873 -133.026809 
L 123.496549 -133.027268 
L 122.658224 -132.988565 
L 121.819899 -132.844794 
L 120.981574 -132.787502 
L 120.14325 -132.718334 
L 119.304925 -132.550109 
L 118.4666 -132.459059 
L 117.628275 -132.378354 
L 116.789951 -132.313931 
L 115.951626 -132.235952 
L 115.113301 -132.183276 
L 114.274976 -132.117819 
L 113.436652 -132.053153 
L 112.598327 -131.988092 
L 111.760002 -131.888252 
L 110.921677 -131.804542 
L 110.083353 -131.777728 
L 109.245028 -131.748119 
L 108.406703 -131.706933 
L 107.568378 -131.644362 
L 106.730054 -131.581252 
L 105.891729 -131.454475 
L 105.053404 -131.40132 
L 104.215079 -131.337479 
L 103.376755 -131.272417 
L 102.53843 -131.207356 
L 101.700105 -131.161015 
L 100.86178 -131.190349 
L 100.023456 -131.173299 
L 99.185131 -131.196353 
L 98.346806 -131.298442 
L 97.508481 -131.310945 
L 96.670157 -131.261602 
L 95.831832 -131.289558 
L 94.993507 -131.314122 
L 94.155182 -131.287663 
L 93.316858 -131.314843 
L 92.478533 -131.380811 
L 91.640208 -131.368687 
L 90.801883 -131.500745 
L 89.963559 -131.551041 
L 89.125234 -131.53762 
L 88.286909 -131.638401 
L 87.448584 -131.672259 
L 86.61026 -131.737035 
L 85.771935 -131.856759 
L 84.93361 -132.001263 
L 84.095285 -132.18383 
L 83.256961 -132.291917 
L 82.418636 -132.365169 
L 81.580311 -132.432517 
L 80.741986 -132.470645 
L 79.903662 -132.530995 
z
" style="stroke: #ffffff; stroke-opacity: 0.15"/>
    </defs>
    <g clip-path="url(#pc5e0e43310)">
     <use xlink:href="#m26cd10473d" x="0" y="216" style="fill: #66c2a5; fill-opacity: 0.15; stroke: #ffffff; stroke-opacity: 0.15"/>
    </g>
   </g>
   <g id="PolyCollection_2">
    <defs>
     <path id="mbf0321cb8b" d="M 79.903662 -149.1833 
L 79.903662 -120.650213 
L 81.700072 -120.973026 
L 83.496482 -121.140506 
L 85.292892 -121.327802 
L 87.089302 -121.590309 
L 88.885713 -121.729684 
L 90.682123 -121.86906 
L 92.478533 -122.008436 
L 94.274943 -122.147812 
L 96.071353 -122.289344 
L 97.867763 -122.433256 
L 99.664174 -122.703179 
L 101.460584 -123.018229 
L 103.256994 -123.236293 
L 105.053404 -123.484523 
L 106.849814 -123.692771 
L 108.646225 -123.863665 
L 110.442635 -123.992348 
L 112.239045 -124.329925 
L 114.035455 -124.345279 
L 115.831865 -124.374201 
L 117.628275 -124.366475 
L 119.424686 -124.378525 
L 121.221096 -124.396723 
L 123.017506 -124.603841 
L 124.813916 -124.79757 
L 126.610326 -124.819338 
L 128.406737 -124.740578 
L 130.203147 -124.589056 
L 131.999557 -124.507343 
L 133.795967 -124.590571 
L 135.592377 -124.379183 
L 137.388787 -124.236883 
L 139.185198 -123.939568 
L 140.981608 -123.760792 
L 142.778018 -123.497805 
L 144.574428 -123.577237 
L 146.370838 -123.57943 
L 148.167249 -123.450729 
L 149.963659 -123.166357 
L 151.760069 -122.725458 
L 153.556479 -122.338085 
L 155.352889 -121.893654 
L 157.149299 -121.450416 
L 158.94571 -121.007178 
L 160.74212 -120.525041 
L 162.53853 -120.026536 
L 164.33494 -119.527991 
L 166.13135 -119.023506 
L 167.927761 -118.72902 
L 169.724171 -118.282644 
L 171.520581 -117.733763 
L 173.316991 -117.184881 
L 175.113401 -116.635999 
L 176.909811 -116.087117 
L 178.706222 -115.538235 
L 180.502632 -114.989878 
L 182.299042 -114.484455 
L 184.095452 -113.978362 
L 185.891862 -113.428157 
L 187.688273 -112.968247 
L 189.484683 -112.463652 
L 191.281093 -111.959056 
L 193.077503 -111.45446 
L 194.873913 -110.832471 
L 196.670323 -110.262356 
L 198.466734 -109.785536 
L 200.263144 -109.308717 
L 202.059554 -108.831897 
L 203.855964 -108.30313 
L 205.652374 -107.725891 
L 207.448785 -107.148652 
L 209.245195 -106.588373 
L 211.041605 -106.069914 
L 212.838015 -105.551456 
L 214.634425 -105.032998 
L 216.430835 -104.514539 
L 218.227246 -103.997706 
L 220.023656 -103.48233 
L 221.820066 -102.86951 
L 223.616476 -102.371832 
L 225.412886 -101.911634 
L 227.209297 -101.335049 
L 229.005707 -100.757394 
L 230.802117 -100.180412 
L 232.598527 -99.603429 
L 234.394937 -99.029716 
L 236.191347 -98.574021 
L 237.987758 -98.184853 
L 239.784168 -97.795685 
L 241.580578 -97.232902 
L 243.376988 -96.717823 
L 245.173398 -96.24946 
L 246.969809 -95.734648 
L 248.766219 -95.262761 
L 250.562629 -94.790874 
L 252.359039 -94.308576 
L 254.155449 -93.741433 
L 255.951859 -93.174291 
L 257.74827 -92.631567 
L 257.74827 -151.258967 
L 257.74827 -151.258967 
L 255.951859 -151.116407 
L 254.155449 -150.97266 
L 252.359039 -150.828914 
L 250.562629 -150.685167 
L 248.766219 -150.533165 
L 246.969809 -150.294078 
L 245.173398 -150.052719 
L 243.376988 -149.861126 
L 241.580578 -149.666579 
L 239.784168 -149.328539 
L 237.987758 -149.086416 
L 236.191347 -148.844293 
L 234.394937 -148.602169 
L 232.598527 -148.358929 
L 230.802117 -148.066353 
L 229.005707 -147.723512 
L 227.209297 -147.433351 
L 225.412886 -147.253286 
L 223.616476 -147.10467 
L 221.820066 -146.86544 
L 220.023656 -146.669477 
L 218.227246 -146.496239 
L 216.430835 -146.426457 
L 214.634425 -146.378182 
L 212.838015 -146.293053 
L 211.041605 -146.178682 
L 209.245195 -145.994372 
L 207.448785 -145.783981 
L 205.652374 -145.664097 
L 203.855964 -145.472538 
L 202.059554 -145.283494 
L 200.263144 -145.198614 
L 198.466734 -145.032519 
L 196.670323 -144.916249 
L 194.873913 -144.734958 
L 193.077503 -144.619097 
L 191.281093 -144.499183 
L 189.484683 -144.346987 
L 187.688273 -144.140496 
L 185.891862 -144.078834 
L 184.095452 -144.016788 
L 182.299042 -143.903827 
L 180.502632 -143.728655 
L 178.706222 -143.665752 
L 176.909811 -143.600487 
L 175.113401 -143.536027 
L 173.316991 -143.470036 
L 171.520581 -143.403394 
L 169.724171 -143.253749 
L 167.927761 -143.143706 
L 166.13135 -143.047756 
L 164.33494 -142.975368 
L 162.53853 -142.903913 
L 160.74212 -142.883089 
L 158.94571 -142.810085 
L 157.149299 -142.766688 
L 155.352889 -142.704965 
L 153.556479 -142.65541 
L 151.760069 -142.655419 
L 149.963659 -142.533515 
L 148.167249 -142.565508 
L 146.370838 -142.491302 
L 144.574428 -142.351979 
L 142.778018 -142.316314 
L 140.981608 -142.207664 
L 139.185198 -142.145803 
L 137.388787 -142.127228 
L 135.592377 -142.108653 
L 133.795967 -142.092314 
L 131.999557 -142.207858 
L 130.203147 -142.308715 
L 128.406737 -142.306871 
L 126.610326 -142.34686 
L 124.813916 -142.480074 
L 123.017506 -142.614849 
L 121.221096 -142.811654 
L 119.424686 -143.066122 
L 117.628275 -143.31322 
L 115.831865 -143.407333 
L 114.035455 -143.700706 
L 112.239045 -143.69632 
L 110.442635 -143.787345 
L 108.646225 -144.017887 
L 106.849814 -144.312374 
L 105.053404 -144.705978 
L 103.256994 -144.91971 
L 101.460584 -145.229656 
L 99.664174 -145.529941 
L 97.867763 -145.76582 
L 96.071353 -146.133013 
L 94.274943 -146.449084 
L 92.478533 -146.753814 
L 90.682123 -147.0581 
L 88.885713 -147.346629 
L 87.089302 -147.568529 
L 85.292892 -147.923565 
L 83.496482 -148.253842 
L 81.700072 -148.749702 
L 79.903662 -149.1833 
z
" style="stroke: #ffffff; stroke-opacity: 0.15"/>
    </defs>
    <g clip-path="url(#pc5e0e43310)">
     <use xlink:href="#mbf0321cb8b" x="0" y="216" style="fill: #fc8d62; fill-opacity: 0.15; stroke: #ffffff; stroke-opacity: 0.15"/>
    </g>
   </g>
   <g id="line2d_12">
    <path d="M 79.903662 90.57837 
L 80.741986 90.561141 
L 81.580311 90.543912 
L 82.418636 90.526683 
L 83.256961 90.509454 
L 84.095285 90.492225 
L 84.93361 90.474996 
L 85.771935 90.457767 
L 86.61026 90.440538 
L 87.448584 90.423309 
L 88.286909 90.40608 
L 89.125234 90.388851 
L 89.963559 90.371622 
L 90.801883 90.354393 
L 91.640208 90.337164 
L 92.478533 90.319935 
L 93.316858 90.302706 
L 94.155182 90.285477 
L 94.993507 90.268248 
L 95.831832 90.251019 
L 96.670157 90.23379 
L 97.508481 90.216561 
L 98.346806 90.199332 
L 99.185131 90.182103 
L 100.023456 90.164874 
L 100.86178 90.147645 
L 101.700105 90.130416 
L 102.53843 90.113187 
L 103.376755 90.095958 
L 104.215079 90.078729 
L 105.053404 90.0615 
L 105.891729 90.044271 
L 106.730054 90.027042 
L 107.568378 90.009813 
L 108.406703 89.992584 
L 109.245028 89.975355 
L 110.083353 89.958126 
L 110.921677 89.940897 
L 111.760002 89.923668 
L 112.598327 89.906439 
L 113.436652 89.88921 
L 114.274976 89.871981 
L 115.113301 89.854752 
L 115.951626 89.837523 
L 116.789951 89.820294 
L 117.628275 89.803065 
L 118.4666 89.785836 
L 119.304925 89.768607 
L 120.14325 89.751378 
L 120.981574 89.734149 
L 121.819899 89.71692 
L 122.658224 89.699691 
L 123.496549 89.682462 
L 124.334873 89.665233 
L 125.173198 89.648004 
L 126.011523 89.630775 
L 126.849848 89.613546 
L 127.688172 89.596318 
L 128.526497 89.579089 
L 129.364822 89.56186 
L 130.203147 89.544631 
L 131.041471 89.527402 
L 131.879796 89.510173 
L 132.718121 89.492944 
L 133.556446 89.475715 
L 134.39477 89.458486 
L 135.233095 89.441257 
L 136.07142 89.424028 
L 136.909745 89.406799 
L 137.748069 89.38957 
L 138.586394 89.372341 
L 139.424719 89.355112 
L 140.263044 89.337883 
L 141.101368 89.320654 
L 141.939693 89.303425 
L 142.778018 89.286196 
L 143.616343 89.268967 
L 144.454667 89.251738 
L 145.292992 89.234509 
L 146.131317 89.21728 
L 146.969642 89.200051 
L 147.807967 89.182822 
L 148.646291 89.165593 
L 149.484616 89.148364 
L 150.322941 89.131135 
L 151.161266 89.113906 
L 151.99959 89.096677 
L 152.837915 89.079448 
L 153.67624 89.062219 
L 154.514565 89.04499 
L 155.352889 89.027761 
L 156.191214 89.010532 
L 157.029539 88.993303 
L 157.867864 88.976074 
L 158.706188 88.958845 
L 159.544513 88.941616 
L 160.382838 88.924387 
L 161.221163 88.907158 
L 162.059487 88.889929 
L 162.897812 88.8727 
" clip-path="url(#pc5e0e43310)" style="fill: none; stroke: #66c2a5; stroke-width: 2.25; stroke-linecap: round"/>
   </g>
   <g id="line2d_13">
    <path d="M 79.903662 80.505701 
L 81.700072 80.535654 
L 83.496482 80.565606 
L 85.292892 80.595558 
L 87.089302 80.62551 
L 88.885713 80.655462 
L 90.682123 80.685414 
L 92.478533 80.715366 
L 94.274943 80.745318 
L 96.071353 80.775271 
L 97.867763 80.805223 
L 99.664174 80.835175 
L 101.460584 80.865127 
L 103.256994 80.895079 
L 105.053404 80.925031 
L 106.849814 80.954983 
L 108.646225 80.984935 
L 110.442635 81.014887 
L 112.239045 81.04484 
L 114.035455 81.074792 
L 115.831865 81.104744 
L 117.628275 81.134696 
L 119.424686 81.164648 
L 121.221096 81.1946 
L 123.017506 81.224552 
L 124.813916 81.254504 
L 126.610326 81.284457 
L 128.406737 81.314409 
L 130.203147 81.344361 
L 131.999557 81.374313 
L 133.795967 81.404265 
L 135.592377 81.434217 
L 137.388787 81.464169 
L 139.185198 81.494121 
L 140.981608 81.524074 
L 142.778018 81.554026 
L 144.574428 81.583978 
L 146.370838 81.61393 
L 148.167249 81.643882 
L 149.963659 81.673834 
L 151.760069 81.703786 
L 153.556479 81.733738 
L 155.352889 81.763691 
L 157.149299 81.793643 
L 158.94571 81.823595 
L 160.74212 81.853547 
L 162.53853 81.883499 
L 164.33494 81.913451 
L 166.13135 81.943403 
L 167.927761 81.973355 
L 169.724171 82.003307 
L 171.520581 82.03326 
L 173.316991 82.063212 
L 175.113401 82.093164 
L 176.909811 82.123116 
L 178.706222 82.153068 
L 180.502632 82.18302 
L 182.299042 82.212972 
L 184.095452 82.242924 
L 185.891862 82.272877 
L 187.688273 82.302829 
L 189.484683 82.332781 
L 191.281093 82.362733 
L 193.077503 82.392685 
L 194.873913 82.422637 
L 196.670323 82.452589 
L 198.466734 82.482541 
L 200.263144 82.512494 
L 202.059554 82.542446 
L 203.855964 82.572398 
L 205.652374 82.60235 
L 207.448785 82.632302 
L 209.245195 82.662254 
L 211.041605 82.692206 
L 212.838015 82.722158 
L 214.634425 82.752111 
L 216.430835 82.782063 
L 218.227246 82.812015 
L 220.023656 82.841967 
L 221.820066 82.871919 
L 223.616476 82.901871 
L 225.412886 82.931823 
L 227.209297 82.961775 
L 229.005707 82.991727 
L 230.802117 83.02168 
L 232.598527 83.051632 
L 234.394937 83.081584 
L 236.191347 83.111536 
L 237.987758 83.141488 
L 239.784168 83.17144 
L 241.580578 83.201392 
L 243.376988 83.231344 
L 245.173398 83.261297 
L 246.969809 83.291249 
L 248.766219 83.321201 
L 250.562629 83.351153 
L 252.359039 83.381105 
L 254.155449 83.411057 
L 255.951859 83.441009 
L 257.74827 83.470961 
" clip-path="url(#pc5e0e43310)" style="fill: none; stroke: #fc8d62; stroke-width: 2.25; stroke-linecap: round"/>
   </g>
   <g id="patch_3">
    <path d="M 71.011431 165.78 
L 71.011431 12.96 
" style="fill: none; stroke: #262626; stroke-width: 1.25; stroke-linejoin: miter; stroke-linecap: square"/>
   </g>
   <g id="patch_4">
    <path d="M 79.903662 165.78 
L 257.74827 165.78 
" style="fill: none; stroke: #262626; stroke-width: 1.25; stroke-linejoin: miter; stroke-linecap: square"/>
   </g>
   <g id="text_14">
    <text style="fill: #262626; font: 12px 'Arial', 'DejaVu Sans', 'Liberation Sans', 'Bitstream Vera Sans', sans-serif; text-anchor: middle" x="168.825966" y="6.96" transform="rotate(-0 168.825966 6.96)">Opponent multiplier = 1.5</text>
   </g>
   <g id="PathCollection_1">
    <defs>
     <path id="m390c2f11e7" d="M 0 2.738613 
C 0.726289 2.738613 1.422928 2.450055 1.936492 1.936492 
C 2.450055 1.422928 2.738613 0.726289 2.738613 0 
C 2.738613 -0.726289 2.450055 -1.422928 1.936492 -1.936492 
C 1.422928 -2.450055 0.726289 -2.738613 0 -2.738613 
C -0.726289 -2.738613 -1.422928 -2.450055 -1.936492 -1.936492 
C -2.450055 -1.422928 -2.738613 -0.726289 -2.738613 0 
C -2.738613 0.726289 -2.450055 1.422928 -1.936492 1.936492 
C -1.422928 2.450055 -0.726289 2.738613 0 2.738613 
z
" style="stroke: #ffffff; stroke-opacity: 0.8; stroke-width: 0.5"/>
    </defs>
    <g>
     <use xlink:href="#m390c2f11e7" x="85.831815" y="85.570791" style="fill: #66c2a5; fill-opacity: 0.8; stroke: #ffffff; stroke-opacity: 0.8; stroke-width: 0.5"/>
     <use xlink:href="#m390c2f11e7" x="79.903662" y="103.959658" style="fill: #66c2a5; fill-opacity: 0.8; stroke: #ffffff; stroke-opacity: 0.8; stroke-width: 0.5"/>
     <use xlink:href="#m390c2f11e7" x="133.257044" y="96.289876" style="fill: #66c2a5; fill-opacity: 0.8; stroke: #ffffff; stroke-opacity: 0.8; stroke-width: 0.5"/>
     <use xlink:href="#m390c2f11e7" x="79.903662" y="63.978854" style="fill: #66c2a5; fill-opacity: 0.8; stroke: #ffffff; stroke-opacity: 0.8; stroke-width: 0.5"/>
     <use xlink:href="#m390c2f11e7" x="79.903662" y="106.799208" style="fill: #66c2a5; fill-opacity: 0.8; stroke: #ffffff; stroke-opacity: 0.8; stroke-width: 0.5"/>
     <use xlink:href="#m390c2f11e7" x="97.688122" y="104.278624" style="fill: #66c2a5; fill-opacity: 0.8; stroke: #ffffff; stroke-opacity: 0.8; stroke-width: 0.5"/>
     <use xlink:href="#m390c2f11e7" x="115.472583" y="95.072757" style="fill: #66c2a5; fill-opacity: 0.8; stroke: #ffffff; stroke-opacity: 0.8; stroke-width: 0.5"/>
     <use xlink:href="#m390c2f11e7" x="79.903662" y="100.919817" style="fill: #66c2a5; fill-opacity: 0.8; stroke: #ffffff; stroke-opacity: 0.8; stroke-width: 0.5"/>
     <use xlink:href="#m390c2f11e7" x="79.903662" y="90.962861" style="fill: #66c2a5; fill-opacity: 0.8; stroke: #ffffff; stroke-opacity: 0.8; stroke-width: 0.5"/>
     <use xlink:href="#m390c2f11e7" x="109.54443" y="100.610707" style="fill: #66c2a5; fill-opacity: 0.8; stroke: #ffffff; stroke-opacity: 0.8; stroke-width: 0.5"/>
     <use xlink:href="#m390c2f11e7" x="162.897812" y="93.495864" style="fill: #66c2a5; fill-opacity: 0.8; stroke: #ffffff; stroke-opacity: 0.8; stroke-width: 0.5"/>
     <use xlink:href="#m390c2f11e7" x="85.831815" y="83.060064" style="fill: #66c2a5; fill-opacity: 0.8; stroke: #ffffff; stroke-opacity: 0.8; stroke-width: 0.5"/>
     <use xlink:href="#m390c2f11e7" x="109.54443" y="66.973748" style="fill: #66c2a5; fill-opacity: 0.8; stroke: #ffffff; stroke-opacity: 0.8; stroke-width: 0.5"/>
     <use xlink:href="#m390c2f11e7" x="127.32889" y="96.694991" style="fill: #66c2a5; fill-opacity: 0.8; stroke: #ffffff; stroke-opacity: 0.8; stroke-width: 0.5"/>
     <use xlink:href="#m390c2f11e7" x="85.831815" y="68.482234" style="fill: #66c2a5; fill-opacity: 0.8; stroke: #ffffff; stroke-opacity: 0.8; stroke-width: 0.5"/>
     <use xlink:href="#m390c2f11e7" x="115.472583" y="96.704256" style="fill: #66c2a5; fill-opacity: 0.8; stroke: #ffffff; stroke-opacity: 0.8; stroke-width: 0.5"/>
     <use xlink:href="#m390c2f11e7" x="91.759969" y="96.438911" style="fill: #66c2a5; fill-opacity: 0.8; stroke: #ffffff; stroke-opacity: 0.8; stroke-width: 0.5"/>
     <use xlink:href="#m390c2f11e7" x="162.897812" y="77.863553" style="fill: #66c2a5; fill-opacity: 0.8; stroke: #ffffff; stroke-opacity: 0.8; stroke-width: 0.5"/>
     <use xlink:href="#m390c2f11e7" x="85.831815" y="95.485363" style="fill: #66c2a5; fill-opacity: 0.8; stroke: #ffffff; stroke-opacity: 0.8; stroke-width: 0.5"/>
     <use xlink:href="#m390c2f11e7" x="79.903662" y="79.831761" style="fill: #66c2a5; fill-opacity: 0.8; stroke: #ffffff; stroke-opacity: 0.8; stroke-width: 0.5"/>
     <use xlink:href="#m390c2f11e7" x="103.616276" y="95.840011" style="fill: #66c2a5; fill-opacity: 0.8; stroke: #ffffff; stroke-opacity: 0.8; stroke-width: 0.5"/>
     <use xlink:href="#m390c2f11e7" x="79.903662" y="102.444863" style="fill: #66c2a5; fill-opacity: 0.8; stroke: #ffffff; stroke-opacity: 0.8; stroke-width: 0.5"/>
     <use xlink:href="#m390c2f11e7" x="103.616276" y="65.093857" style="fill: #66c2a5; fill-opacity: 0.8; stroke: #ffffff; stroke-opacity: 0.8; stroke-width: 0.5"/>
     <use xlink:href="#m390c2f11e7" x="79.903662" y="90.548086" style="fill: #66c2a5; fill-opacity: 0.8; stroke: #ffffff; stroke-opacity: 0.8; stroke-width: 0.5"/>
     <use xlink:href="#m390c2f11e7" x="91.759969" y="96.580849" style="fill: #66c2a5; fill-opacity: 0.8; stroke: #ffffff; stroke-opacity: 0.8; stroke-width: 0.5"/>
    </g>
   </g>
   <g id="PathCollection_2">
    <defs>
     <path id="mf874410a07" d="M 0 2.738613 
C 0.726289 2.738613 1.422928 2.450055 1.936492 1.936492 
C 2.450055 1.422928 2.738613 0.726289 2.738613 0 
C 2.738613 -0.726289 2.450055 -1.422928 1.936492 -1.936492 
C 1.422928 -2.450055 0.726289 -2.738613 0 -2.738613 
C -0.726289 -2.738613 -1.422928 -2.450055 -1.936492 -1.936492 
C -2.450055 -1.422928 -2.738613 -0.726289 -2.738613 0 
C -2.738613 0.726289 -2.450055 1.422928 -1.936492 1.936492 
C -1.422928 2.450055 -0.726289 2.738613 0 2.738613 
z
" style="stroke: #ffffff; stroke-opacity: 0.8; stroke-width: 0.5"/>
    </defs>
    <g>
     <use xlink:href="#mf874410a07" x="91.759969" y="67.436201" style="fill: #fc8d62; fill-opacity: 0.8; stroke: #ffffff; stroke-opacity: 0.8; stroke-width: 0.5"/>
     <use xlink:href="#mf874410a07" x="103.616276" y="116.781334" style="fill: #fc8d62; fill-opacity: 0.8; stroke: #ffffff; stroke-opacity: 0.8; stroke-width: 0.5"/>
     <use xlink:href="#mf874410a07" x="79.903662" y="56.250389" style="fill: #fc8d62; fill-opacity: 0.8; stroke: #ffffff; stroke-opacity: 0.8; stroke-width: 0.5"/>
     <use xlink:href="#mf874410a07" x="156.969658" y="87.40779" style="fill: #fc8d62; fill-opacity: 0.8; stroke: #ffffff; stroke-opacity: 0.8; stroke-width: 0.5"/>
     <use xlink:href="#mf874410a07" x="228.107502" y="93.758985" style="fill: #fc8d62; fill-opacity: 0.8; stroke: #ffffff; stroke-opacity: 0.8; stroke-width: 0.5"/>
     <use xlink:href="#mf874410a07" x="85.831815" y="56.137161" style="fill: #fc8d62; fill-opacity: 0.8; stroke: #ffffff; stroke-opacity: 0.8; stroke-width: 0.5"/>
     <use xlink:href="#mf874410a07" x="115.472583" y="101.916742" style="fill: #fc8d62; fill-opacity: 0.8; stroke: #ffffff; stroke-opacity: 0.8; stroke-width: 0.5"/>
     <use xlink:href="#mf874410a07" x="109.54443" y="86.660002" style="fill: #fc8d62; fill-opacity: 0.8; stroke: #ffffff; stroke-opacity: 0.8; stroke-width: 0.5"/>
     <use xlink:href="#mf874410a07" x="115.472583" y="52.930698" style="fill: #fc8d62; fill-opacity: 0.8; stroke: #ffffff; stroke-opacity: 0.8; stroke-width: 0.5"/>
     <use xlink:href="#mf874410a07" x="145.113351" y="76.21205" style="fill: #fc8d62; fill-opacity: 0.8; stroke: #ffffff; stroke-opacity: 0.8; stroke-width: 0.5"/>
     <use xlink:href="#mf874410a07" x="151.041505" y="73.957634" style="fill: #fc8d62; fill-opacity: 0.8; stroke: #ffffff; stroke-opacity: 0.8; stroke-width: 0.5"/>
     <use xlink:href="#mf874410a07" x="109.54443" y="88.974228" style="fill: #fc8d62; fill-opacity: 0.8; stroke: #ffffff; stroke-opacity: 0.8; stroke-width: 0.5"/>
     <use xlink:href="#mf874410a07" x="174.754119" y="81.554926" style="fill: #fc8d62; fill-opacity: 0.8; stroke: #ffffff; stroke-opacity: 0.8; stroke-width: 0.5"/>
     <use xlink:href="#mf874410a07" x="121.400737" y="84.190708" style="fill: #fc8d62; fill-opacity: 0.8; stroke: #ffffff; stroke-opacity: 0.8; stroke-width: 0.5"/>
     <use xlink:href="#mf874410a07" x="91.759969" y="84.861087" style="fill: #fc8d62; fill-opacity: 0.8; stroke: #ffffff; stroke-opacity: 0.8; stroke-width: 0.5"/>
     <use xlink:href="#mf874410a07" x="192.53858" y="76.143201" style="fill: #fc8d62; fill-opacity: 0.8; stroke: #ffffff; stroke-opacity: 0.8; stroke-width: 0.5"/>
     <use xlink:href="#mf874410a07" x="133.257044" y="114.256707" style="fill: #fc8d62; fill-opacity: 0.8; stroke: #ffffff; stroke-opacity: 0.8; stroke-width: 0.5"/>
     <use xlink:href="#mf874410a07" x="103.616276" y="61.03992" style="fill: #fc8d62; fill-opacity: 0.8; stroke: #ffffff; stroke-opacity: 0.8; stroke-width: 0.5"/>
     <use xlink:href="#mf874410a07" x="257.74827" y="54.094273" style="fill: #fc8d62; fill-opacity: 0.8; stroke: #ffffff; stroke-opacity: 0.8; stroke-width: 0.5"/>
     <use xlink:href="#mf874410a07" x="156.969658" y="117.296325" style="fill: #fc8d62; fill-opacity: 0.8; stroke: #ffffff; stroke-opacity: 0.8; stroke-width: 0.5"/>
     <use xlink:href="#mf874410a07" x="91.759969" y="77.737032" style="fill: #fc8d62; fill-opacity: 0.8; stroke: #ffffff; stroke-opacity: 0.8; stroke-width: 0.5"/>
    </g>
   </g>
  </g>
  <g id="legend_1">
   <g id="text_15">
    <text style="fill: #262626; font: 12px 'Arial', 'DejaVu Sans', 'Liberation Sans', 'Bitstream Vera Sans', sans-serif; text-anchor: start" x="268.781875" y="95.165312" transform="rotate(-0 268.781875 95.165312)">multiplier</text>
   </g>
   <g id="PathCollection_3">
    <g>
     <use xlink:href="#m390c2f11e7" x="284.269219" y="108.631719" style="fill: #66c2a5; fill-opacity: 0.8; stroke: #ffffff; stroke-opacity: 0.8; stroke-width: 0.5"/>
    </g>
   </g>
   <g id="text_16">
    <text style="fill: #262626; font: 11px 'Arial', 'DejaVu Sans', 'Liberation Sans', 'Bitstream Vera Sans', sans-serif; text-anchor: start" x="304.069219" y="111.519219" transform="rotate(-0 304.069219 111.519219)">1.5</text>
   </g>
   <g id="PathCollection_4">
    <g>
     <use xlink:href="#mf874410a07" x="284.269219" y="124.777656" style="fill: #fc8d62; fill-opacity: 0.8; stroke: #ffffff; stroke-opacity: 0.8; stroke-width: 0.5"/>
    </g>
   </g>
   <g id="text_17">
    <text style="fill: #262626; font: 11px 'Arial', 'DejaVu Sans', 'Liberation Sans', 'Bitstream Vera Sans', sans-serif; text-anchor: start" x="304.069219" y="127.665156" transform="rotate(-0 304.069219 127.665156)">2.5</text>
   </g>
  </g>
 </g>
 <defs>
  <clipPath id="pc5e0e43310">
   <rect x="71.011431" y="12.96" width="195.629069" height="152.82"/>
  </clipPath>
 </defs>
</svg>
