<?xml version="1.0" encoding="utf-8" standalone="no"?>
<!DOCTYPE svg PUBLIC "-//W3C//DTD SVG 1.1//EN"
  "http://www.w3.org/Graphics/SVG/1.1/DTD/svg11.dtd">
<svg xmlns:xlink="http://www.w3.org/1999/xlink" width="336.22pt" height="216pt" viewBox="0 0 336.22 216" xmlns="http://www.w3.org/2000/svg" version="1.1">
 <metadata>
  <rdf:RDF xmlns:dc="http://purl.org/dc/elements/1.1/" xmlns:cc="http://creativecommons.org/ns#" xmlns:rdf="http://www.w3.org/1999/02/22-rdf-syntax-ns#">
   <cc:Work>
    <dc:type rdf:resource="http://purl.org/dc/dcmitype/StillImage"/>
    <dc:date>2023-05-15T19:55:55.288758</dc:date>
    <dc:format>image/svg+xml</dc:format>
    <dc:creator>
     <cc:Agent>
      <dc:title>Matplotlib v3.7.0, https://matplotlib.org/</dc:title>
     </cc:Agent>
    </dc:creator>
   </cc:Work>
  </rdf:RDF>
 </metadata>
 <defs>
  <style type="text/css">*{stroke-linejoin: round; stroke-linecap: butt}</style>
 </defs>
 <g id="figure_1">
  <g id="patch_1">
   <path d="M 0 216 
L 336.22 216 
L 336.22 0 
L 0 0 
z
" style="fill: #ffffff"/>
  </g>
  <g id="axes_1">
   <g id="patch_2">
    <path d="M 78.451333 167.22 
L 266.6378 167.22 
L 266.6378 12.96 
L 78.451333 12.96 
z
" style="fill: #ffffff"/>
   </g>
   <g id="matplotlib.axis_1">
    <g id="xtick_1">
     <g id="line2d_1">
      <defs>
       <path id="m1a1f7eb1a4" d="M 0 0 
L 0 6 
" style="stroke: #262626; stroke-width: 1.25"/>
      </defs>
      <g>
       <use xlink:href="#m1a1f7eb1a4" x="87.005264" y="167.22" style="fill: #262626; stroke: #262626; stroke-width: 1.25"/>
      </g>
     </g>
     <g id="text_1">
      <text style="fill: #262626; font: 11px 'Arial', 'DejaVu Sans', 'Liberation Sans', 'Bitstream Vera Sans', sans-serif; text-anchor: middle" x="87.005264" y="185.078281" transform="rotate(-0 87.005264 185.078281)">0.00</text>
     </g>
    </g>
    <g id="xtick_2">
     <g id="line2d_2">
      <g>
       <use xlink:href="#m1a1f7eb1a4" x="129.774915" y="167.22" style="fill: #262626; stroke: #262626; stroke-width: 1.25"/>
      </g>
     </g>
     <g id="text_2">
      <text style="fill: #262626; font: 11px 'Arial', 'DejaVu Sans', 'Liberation Sans', 'Bitstream Vera Sans', sans-serif; text-anchor: middle" x="129.774915" y="185.078281" transform="rotate(-0 129.774915 185.078281)">0.25</text>
     </g>
    </g>
    <g id="xtick_3">
     <g id="line2d_3">
      <g>
       <use xlink:href="#m1a1f7eb1a4" x="172.544567" y="167.22" style="fill: #262626; stroke: #262626; stroke-width: 1.25"/>
      </g>
     </g>
     <g id="text_3">
      <text style="fill: #262626; font: 11px 'Arial', 'DejaVu Sans', 'Liberation Sans', 'Bitstream Vera Sans', sans-serif; text-anchor: middle" x="172.544567" y="185.078281" transform="rotate(-0 172.544567 185.078281)">0.50</text>
     </g>
    </g>
    <g id="xtick_4">
     <g id="line2d_4">
      <g>
       <use xlink:href="#m1a1f7eb1a4" x="215.314218" y="167.22" style="fill: #262626; stroke: #262626; stroke-width: 1.25"/>
      </g>
     </g>
     <g id="text_4">
      <text style="fill: #262626; font: 11px 'Arial', 'DejaVu Sans', 'Liberation Sans', 'Bitstream Vera Sans', sans-serif; text-anchor: middle" x="215.314218" y="185.078281" transform="rotate(-0 215.314218 185.078281)">0.75</text>
     </g>
    </g>
    <g id="xtick_5">
     <g id="line2d_5">
      <g>
       <use xlink:href="#m1a1f7eb1a4" x="258.08387" y="167.22" style="fill: #262626; stroke: #262626; stroke-width: 1.25"/>
      </g>
     </g>
     <g id="text_5">
      <text style="fill: #262626; font: 11px 'Arial', 'DejaVu Sans', 'Liberation Sans', 'Bitstream Vera Sans', sans-serif; text-anchor: middle" x="258.08387" y="185.078281" transform="rotate(-0 258.08387 185.078281)">1.00</text>
     </g>
    </g>
    <g id="text_6">
     <text style="fill: #262626; font: 12px 'Arial', 'DejaVu Sans', 'Liberation Sans', 'Bitstream Vera Sans', sans-serif; text-anchor: middle" x="172.544567" y="200.484062" transform="rotate(-0 172.544567 200.484062)">p(disclose)</text>
    </g>
   </g>
   <g id="matplotlib.axis_2">
    <g id="ytick_1">
     <g id="line2d_6">
      <defs>
       <path id="m69104f5c6e" d="M 0 0 
L -6 0 
" style="stroke: #262626; stroke-width: 1.25"/>
      </defs>
      <g>
       <use xlink:href="#m69104f5c6e" x="78.451333" y="167.22" style="fill: #262626; stroke: #262626; stroke-width: 1.25"/>
      </g>
     </g>
     <g id="text_7">
      <text style="fill: #262626; font: 11px 'Arial', 'DejaVu Sans', 'Liberation Sans', 'Bitstream Vera Sans', sans-serif; text-anchor: end" x="68.951333" y="171.399141" transform="rotate(-0 68.951333 171.399141)">0.60</text>
     </g>
    </g>
    <g id="ytick_2">
     <g id="line2d_7">
      <g>
       <use xlink:href="#m69104f5c6e" x="78.451333" y="129.015545" style="fill: #262626; stroke: #262626; stroke-width: 1.25"/>
      </g>
     </g>
     <g id="text_8">
      <text style="fill: #262626; font: 11px 'Arial', 'DejaVu Sans', 'Liberation Sans', 'Bitstream Vera Sans', sans-serif; text-anchor: end" x="68.951333" y="133.194685" transform="rotate(-0 68.951333 133.194685)">0.65</text>
     </g>
    </g>
    <g id="ytick_3">
     <g id="line2d_8">
      <g>
       <use xlink:href="#m69104f5c6e" x="78.451333" y="90.811089" style="fill: #262626; stroke: #262626; stroke-width: 1.25"/>
      </g>
     </g>
     <g id="text_9">
      <text style="fill: #262626; font: 11px 'Arial', 'DejaVu Sans', 'Liberation Sans', 'Bitstream Vera Sans', sans-serif; text-anchor: end" x="68.951333" y="94.99023" transform="rotate(-0 68.951333 94.99023)">0.70</text>
     </g>
    </g>
    <g id="ytick_4">
     <g id="line2d_9">
      <g>
       <use xlink:href="#m69104f5c6e" x="78.451333" y="52.606634" style="fill: #262626; stroke: #262626; stroke-width: 1.25"/>
      </g>
     </g>
     <g id="text_10">
      <text style="fill: #262626; font: 11px 'Arial', 'DejaVu Sans', 'Liberation Sans', 'Bitstream Vera Sans', sans-serif; text-anchor: end" x="68.951333" y="56.785774" transform="rotate(-0 68.951333 56.785774)">0.75</text>
     </g>
    </g>
    <g id="ytick_5">
     <g id="line2d_10">
      <g>
       <use xlink:href="#m69104f5c6e" x="78.451333" y="14.402178" style="fill: #262626; stroke: #262626; stroke-width: 1.25"/>
      </g>
     </g>
     <g id="text_11">
      <text style="fill: #262626; font: 11px 'Arial', 'DejaVu Sans', 'Liberation Sans', 'Bitstream Vera Sans', sans-serif; text-anchor: end" x="68.951333" y="18.581319" transform="rotate(-0 68.951333 18.581319)">0.80</text>
     </g>
    </g>
    <g id="text_12">
     <text style="fill: #262626; font: 12px 'Arial', 'DejaVu Sans', 'Liberation Sans', 'Bitstream Vera Sans', sans-serif; text-anchor: middle" x="37.963521" y="90.09" transform="rotate(-90 37.963521 90.09)">payoff</text>
    </g>
   </g>
   <g id="PolyCollection_1">
    <defs>
     <path id="m074d3080f6" d="M 87.005264 -169.848295 
L 87.005264 -125.043068 
L 88.013303 -125.228462 
L 89.021341 -125.618869 
L 90.02938 -125.58174 
L 91.037419 -125.637075 
L 92.045458 -125.53202 
L 93.053497 -125.633835 
L 94.061536 -125.501505 
L 95.069575 -125.382298 
L 96.077614 -125.831939 
L 97.085653 -125.865214 
L 98.093692 -126.152102 
L 99.101731 -126.175774 
L 100.10977 -126.413206 
L 101.117809 -126.280775 
L 102.125848 -126.502689 
L 103.133886 -126.519834 
L 104.141925 -126.25903 
L 105.149964 -126.373407 
L 106.158003 -126.739257 
L 107.166042 -126.688114 
L 108.174081 -126.53034 
L 109.18212 -126.060196 
L 110.190159 -125.612353 
L 111.198198 -125.013235 
L 112.206237 -124.614279 
L 113.214276 -123.819564 
L 114.222315 -124.151967 
L 115.230354 -124.488624 
L 116.238392 -124.507545 
L 117.246431 -123.895331 
L 118.25447 -123.474829 
L 119.262509 -123.379251 
L 120.270548 -123.171631 
L 121.278587 -122.979983 
L 122.286626 -122.652916 
L 123.294665 -122.32585 
L 124.302704 -122.012005 
L 125.310743 -121.507077 
L 126.318782 -120.795818 
L 127.326821 -120.050054 
L 128.33486 -119.232581 
L 129.342898 -118.453135 
L 130.350937 -118.129341 
L 131.358976 -117.816811 
L 132.367015 -117.246361 
L 133.375054 -116.501972 
L 134.383093 -115.759699 
L 135.391132 -114.811909 
L 136.399171 -114.120894 
L 137.40721 -113.512503 
L 138.415249 -112.770221 
L 139.423288 -112.036094 
L 140.431327 -111.318545 
L 141.439366 -110.552231 
L 142.447404 -109.807816 
L 143.455443 -109.065671 
L 144.463482 -108.318929 
L 145.471521 -107.572187 
L 146.47956 -106.825446 
L 147.487599 -106.078704 
L 148.495638 -105.331962 
L 149.503677 -104.588458 
L 150.511716 -103.702906 
L 151.519755 -102.81631 
L 152.527794 -101.865395 
L 153.535833 -100.945505 
L 154.543872 -100.134715 
L 155.551911 -99.017815 
L 156.559949 -98.06408 
L 157.567988 -97.116465 
L 158.576027 -96.230432 
L 159.584066 -95.611321 
L 160.592105 -94.992796 
L 161.600144 -94.374272 
L 162.608183 -93.755747 
L 163.616222 -93.137222 
L 164.624261 -92.52069 
L 165.6323 -91.637093 
L 166.640339 -90.70657 
L 167.648378 -89.776046 
L 168.656417 -89.027176 
L 169.664455 -88.28577 
L 170.672494 -87.407243 
L 171.680533 -86.528716 
L 172.688572 -85.650189 
L 173.696611 -84.772401 
L 174.70465 -83.899669 
L 175.712689 -83.026937 
L 176.720728 -82.154204 
L 177.728767 -81.324836 
L 178.736806 -80.611157 
L 179.744845 -79.897477 
L 180.752884 -79.184382 
L 181.760923 -78.474615 
L 182.768961 -77.764849 
L 183.777 -77.055083 
L 184.785039 -76.345317 
L 185.793078 -75.635551 
L 186.801117 -74.925785 
L 186.801117 -188.320365 
L 186.801117 -188.320365 
L 185.793078 -187.711083 
L 184.785039 -187.097843 
L 183.777 -186.484602 
L 182.768961 -185.942966 
L 181.760923 -185.436134 
L 180.752884 -184.929303 
L 179.744845 -184.422471 
L 178.736806 -183.915639 
L 177.728767 -183.408808 
L 176.720728 -182.901976 
L 175.712689 -182.395144 
L 174.70465 -181.888312 
L 173.696611 -181.298396 
L 172.688572 -180.69621 
L 171.680533 -180.091489 
L 170.672494 -179.485624 
L 169.664455 -178.879758 
L 168.656417 -178.320481 
L 167.648378 -177.676371 
L 166.640339 -177.077349 
L 165.6323 -176.478326 
L 164.624261 -175.878727 
L 163.616222 -175.276541 
L 162.608183 -174.674356 
L 161.600144 -174.072171 
L 160.592105 -173.823517 
L 159.584066 -173.729114 
L 158.576027 -173.634712 
L 157.567988 -173.317715 
L 156.559949 -172.615495 
L 155.551911 -172.306514 
L 154.543872 -171.807834 
L 153.535833 -171.303247 
L 152.527794 -170.704159 
L 151.519755 -169.876038 
L 150.511716 -169.206583 
L 149.503677 -169.281258 
L 148.495638 -168.793077 
L 147.487599 -168.289717 
L 146.47956 -167.781331 
L 145.471521 -167.272944 
L 144.463482 -166.764557 
L 143.455443 -166.256171 
L 142.447404 -165.758341 
L 141.439366 -165.367245 
L 140.431327 -165.168881 
L 139.423288 -164.97831 
L 138.415249 -164.859396 
L 137.40721 -164.542325 
L 136.399171 -164.341782 
L 135.391132 -164.133428 
L 134.383093 -163.844081 
L 133.375054 -163.453173 
L 132.367015 -163.266027 
L 131.358976 -163.11631 
L 130.350937 -163.081748 
L 129.342898 -162.774779 
L 128.33486 -162.512592 
L 127.326821 -161.914185 
L 126.318782 -161.706144 
L 125.310743 -161.482487 
L 124.302704 -161.543104 
L 123.294665 -161.382974 
L 122.286626 -161.009948 
L 121.278587 -161.041209 
L 120.270548 -160.975482 
L 119.262509 -160.83312 
L 118.25447 -160.753417 
L 117.246431 -160.48902 
L 116.238392 -160.635797 
L 115.230354 -160.333595 
L 114.222315 -160.325742 
L 113.214276 -160.631196 
L 112.206237 -160.596306 
L 111.198198 -160.639468 
L 110.190159 -160.808391 
L 109.18212 -160.818609 
L 108.174081 -161.010599 
L 107.166042 -161.046657 
L 106.158003 -161.417152 
L 105.149964 -161.425264 
L 104.141925 -161.839625 
L 103.133886 -162.266176 
L 102.125848 -162.78125 
L 101.117809 -163.339018 
L 100.10977 -163.872299 
L 99.101731 -164.384493 
L 98.093692 -164.896688 
L 97.085653 -165.344136 
L 96.077614 -165.615339 
L 95.069575 -165.815784 
L 94.061536 -166.079851 
L 93.053497 -166.651369 
L 92.045458 -167.220914 
L 91.037419 -167.884317 
L 90.02938 -168.305873 
L 89.021341 -168.883327 
L 88.013303 -169.462132 
L 87.005264 -169.848295 
z
" style="stroke: #ffffff; stroke-opacity: 0.15"/>
    </defs>
    <g clip-path="url(#p09f52a6ad8)">
     <use xlink:href="#m074d3080f6" x="0" y="216" style="fill: #66c2a5; fill-opacity: 0.15; stroke: #ffffff; stroke-opacity: 0.15"/>
    </g>
   </g>
   <g id="PolyCollection_2">
    <defs>
     <path id="m52b82c196e" d="M 89.856574 -168.284904 
L 89.856574 -118.633879 
L 91.555839 -119.335454 
L 93.255105 -119.833308 
L 94.954371 -120.210246 
L 96.653636 -120.587184 
L 98.352902 -121.166871 
L 100.052167 -121.826073 
L 101.751433 -122.339551 
L 103.450699 -123.001683 
L 105.149964 -123.333809 
L 106.84923 -123.730825 
L 108.548496 -124.193871 
L 110.247761 -124.664701 
L 111.947027 -125.141301 
L 113.646292 -125.290178 
L 115.345558 -125.620076 
L 117.044824 -126.285561 
L 118.744089 -126.810972 
L 120.443355 -127.256544 
L 122.14262 -127.640383 
L 123.841886 -128.024221 
L 125.541152 -128.354975 
L 127.240417 -128.207002 
L 128.939683 -128.362323 
L 130.638949 -128.419961 
L 132.338214 -128.578192 
L 134.03748 -128.736894 
L 135.736745 -129.246316 
L 137.436011 -129.47167 
L 139.135277 -129.121693 
L 140.834542 -129.244583 
L 142.533808 -129.074913 
L 144.233073 -128.722308 
L 145.932339 -128.630755 
L 147.631605 -128.193985 
L 149.33087 -127.92862 
L 151.030136 -127.663878 
L 152.729402 -127.393654 
L 154.428667 -127.092091 
L 156.127933 -126.690086 
L 157.827198 -126.293634 
L 159.526464 -125.762894 
L 161.22573 -125.278907 
L 162.924995 -125.074793 
L 164.624261 -124.563035 
L 166.323526 -124.110237 
L 168.022792 -123.523474 
L 169.722058 -123.116951 
L 171.421323 -122.877124 
L 173.120589 -122.649101 
L 174.819855 -122.245193 
L 176.51912 -121.841285 
L 178.218386 -121.437377 
L 179.917651 -121.033468 
L 181.616917 -120.558905 
L 183.316183 -120.047615 
L 185.015448 -119.468473 
L 186.714714 -118.774474 
L 188.413979 -118.211583 
L 190.113245 -117.829784 
L 191.812511 -117.447985 
L 193.511776 -117.066186 
L 195.211042 -116.687957 
L 196.910308 -116.185855 
L 198.609573 -115.580467 
L 200.308839 -115.080556 
L 202.008104 -114.504393 
L 203.70737 -113.92823 
L 205.406636 -113.352067 
L 207.105901 -112.775905 
L 208.805167 -112.199742 
L 210.504432 -111.623579 
L 212.203698 -111.048923 
L 213.902964 -110.4769 
L 215.602229 -109.904876 
L 217.301495 -109.374785 
L 219.000761 -108.789354 
L 220.700026 -108.197053 
L 222.399292 -107.627571 
L 224.098557 -107.239989 
L 225.797823 -106.645101 
L 227.497089 -106.096879 
L 229.196354 -105.417155 
L 230.89562 -104.73743 
L 232.594885 -104.152729 
L 234.294151 -103.628333 
L 235.993417 -103.209661 
L 237.692682 -102.790989 
L 239.391948 -102.332463 
L 241.091214 -101.583224 
L 242.790479 -100.833985 
L 244.489745 -100.127912 
L 246.18901 -99.54828 
L 247.888276 -98.972083 
L 249.587542 -98.396475 
L 251.286807 -97.735555 
L 252.986073 -97.058983 
L 254.685338 -96.382411 
L 256.384604 -95.748785 
L 258.08387 -95.153895 
L 258.08387 -187.546578 
L 258.08387 -187.546578 
L 256.384604 -186.928986 
L 254.685338 -186.303659 
L 252.986073 -185.937659 
L 251.286807 -185.476186 
L 249.587542 -184.761963 
L 247.888276 -184.075084 
L 246.18901 -183.388639 
L 244.489745 -183.049315 
L 242.790479 -182.632066 
L 241.091214 -182.14452 
L 239.391948 -181.785447 
L 237.692682 -181.422328 
L 235.993417 -180.830212 
L 234.294151 -180.22668 
L 232.594885 -179.70289 
L 230.89562 -179.290776 
L 229.196354 -178.667678 
L 227.497089 -178.049111 
L 225.797823 -177.425498 
L 224.098557 -176.801885 
L 222.399292 -176.427586 
L 220.700026 -176.195072 
L 219.000761 -175.64091 
L 217.301495 -174.995764 
L 215.602229 -174.603309 
L 213.902964 -174.257466 
L 212.203698 -173.801843 
L 210.504432 -173.509375 
L 208.805167 -173.181939 
L 207.105901 -172.91465 
L 205.406636 -172.667403 
L 203.70737 -172.348188 
L 202.008104 -172.015238 
L 200.308839 -171.656229 
L 198.609573 -171.346327 
L 196.910308 -170.878941 
L 195.211042 -170.343687 
L 193.511776 -169.753998 
L 191.812511 -169.212238 
L 190.113245 -168.882922 
L 188.413979 -168.498429 
L 186.714714 -167.925615 
L 185.015448 -167.581338 
L 183.316183 -167.272248 
L 181.616917 -166.961365 
L 179.917651 -166.749213 
L 178.218386 -166.338841 
L 176.51912 -166.028715 
L 174.819855 -165.717832 
L 173.120589 -165.461142 
L 171.421323 -165.353794 
L 169.722058 -165.244052 
L 168.022792 -165.09541 
L 166.323526 -164.581347 
L 164.624261 -164.342791 
L 162.924995 -164.23382 
L 161.22573 -164.123219 
L 159.526464 -164.009381 
L 157.827198 -163.925036 
L 156.127933 -163.784094 
L 154.428667 -163.421501 
L 152.729402 -163.185766 
L 151.030136 -163.220099 
L 149.33087 -163.18111 
L 147.631605 -163.126535 
L 145.932339 -163.067352 
L 144.233073 -162.917546 
L 142.533808 -162.741377 
L 140.834542 -162.593959 
L 139.135277 -162.592453 
L 137.436011 -162.516361 
L 135.736745 -162.333312 
L 134.03748 -162.129035 
L 132.338214 -162.19075 
L 130.638949 -162.151847 
L 128.939683 -162.041282 
L 127.240417 -161.940221 
L 125.541152 -161.83645 
L 123.841886 -161.842234 
L 122.14262 -162.139745 
L 120.443355 -162.226971 
L 118.744089 -162.268091 
L 117.044824 -162.546586 
L 115.345558 -162.894832 
L 113.646292 -162.989488 
L 111.947027 -163.351903 
L 110.247761 -163.470091 
L 108.548496 -163.714795 
L 106.84923 -163.953814 
L 105.149964 -164.229809 
L 103.450699 -164.605175 
L 101.751433 -164.9437 
L 100.052167 -165.509938 
L 98.352902 -165.825779 
L 96.653636 -166.311678 
L 94.954371 -166.720235 
L 93.255105 -167.293171 
L 91.555839 -167.715134 
L 89.856574 -168.284904 
z
" style="stroke: #ffffff; stroke-opacity: 0.15"/>
    </defs>
    <g clip-path="url(#p09f52a6ad8)">
     <use xlink:href="#m52b82c196e" x="0" y="216" style="fill: #fc8d62; fill-opacity: 0.15; stroke: #ffffff; stroke-opacity: 0.15"/>
    </g>
   </g>
   <g id="line2d_11">
    <path d="M 87.005264 68.696641 
L 88.013303 68.870043 
L 89.021341 69.043445 
L 90.02938 69.216847 
L 91.037419 69.390249 
L 92.045458 69.563651 
L 93.053497 69.737053 
L 94.061536 69.910456 
L 95.069575 70.083858 
L 96.077614 70.25726 
L 97.085653 70.430662 
L 98.093692 70.604064 
L 99.101731 70.777466 
L 100.10977 70.950868 
L 101.117809 71.12427 
L 102.125848 71.297672 
L 103.133886 71.471075 
L 104.141925 71.644477 
L 105.149964 71.817879 
L 106.158003 71.991281 
L 107.166042 72.164683 
L 108.174081 72.338085 
L 109.18212 72.511487 
L 110.190159 72.684889 
L 111.198198 72.858292 
L 112.206237 73.031694 
L 113.214276 73.205096 
L 114.222315 73.378498 
L 115.230354 73.5519 
L 116.238392 73.725302 
L 117.246431 73.898704 
L 118.25447 74.072106 
L 119.262509 74.245508 
L 120.270548 74.418911 
L 121.278587 74.592313 
L 122.286626 74.765715 
L 123.294665 74.939117 
L 124.302704 75.112519 
L 125.310743 75.285921 
L 126.318782 75.459323 
L 127.326821 75.632725 
L 128.33486 75.806128 
L 129.342898 75.97953 
L 130.350937 76.152932 
L 131.358976 76.326334 
L 132.367015 76.499736 
L 133.375054 76.673138 
L 134.383093 76.84654 
L 135.391132 77.019942 
L 136.399171 77.193344 
L 137.40721 77.366747 
L 138.415249 77.540149 
L 139.423288 77.713551 
L 140.431327 77.886953 
L 141.439366 78.060355 
L 142.447404 78.233757 
L 143.455443 78.407159 
L 144.463482 78.580561 
L 145.471521 78.753964 
L 146.47956 78.927366 
L 147.487599 79.100768 
L 148.495638 79.27417 
L 149.503677 79.447572 
L 150.511716 79.620974 
L 151.519755 79.794376 
L 152.527794 79.967778 
L 153.535833 80.14118 
L 154.543872 80.314583 
L 155.551911 80.487985 
L 156.559949 80.661387 
L 157.567988 80.834789 
L 158.576027 81.008191 
L 159.584066 81.181593 
L 160.592105 81.354995 
L 161.600144 81.528397 
L 162.608183 81.701799 
L 163.616222 81.875202 
L 164.624261 82.048604 
L 165.6323 82.222006 
L 166.640339 82.395408 
L 167.648378 82.56881 
L 168.656417 82.742212 
L 169.664455 82.915614 
L 170.672494 83.089016 
L 171.680533 83.262419 
L 172.688572 83.435821 
L 173.696611 83.609223 
L 174.70465 83.782625 
L 175.712689 83.956027 
L 176.720728 84.129429 
L 177.728767 84.302831 
L 178.736806 84.476233 
L 179.744845 84.649635 
L 180.752884 84.823038 
L 181.760923 84.99644 
L 182.768961 85.169842 
L 183.777 85.343244 
L 184.785039 85.516646 
L 185.793078 85.690048 
L 186.801117 85.86345 
" clip-path="url(#p09f52a6ad8)" style="fill: none; stroke: #66c2a5; stroke-width: 2.25; stroke-linecap: round"/>
   </g>
   <g id="line2d_12">
    <path d="M 89.856574 70.721051 
L 91.555839 70.636413 
L 93.255105 70.551776 
L 94.954371 70.467138 
L 96.653636 70.382501 
L 98.352902 70.297863 
L 100.052167 70.213226 
L 101.751433 70.128588 
L 103.450699 70.043951 
L 105.149964 69.959314 
L 106.84923 69.874676 
L 108.548496 69.790039 
L 110.247761 69.705401 
L 111.947027 69.620764 
L 113.646292 69.536126 
L 115.345558 69.451489 
L 117.044824 69.366851 
L 118.744089 69.282214 
L 120.443355 69.197576 
L 122.14262 69.112939 
L 123.841886 69.028301 
L 125.541152 68.943664 
L 127.240417 68.859027 
L 128.939683 68.774389 
L 130.638949 68.689752 
L 132.338214 68.605114 
L 134.03748 68.520477 
L 135.736745 68.435839 
L 137.436011 68.351202 
L 139.135277 68.266564 
L 140.834542 68.181927 
L 142.533808 68.097289 
L 144.233073 68.012652 
L 145.932339 67.928015 
L 147.631605 67.843377 
L 149.33087 67.75874 
L 151.030136 67.674102 
L 152.729402 67.589465 
L 154.428667 67.504827 
L 156.127933 67.42019 
L 157.827198 67.335552 
L 159.526464 67.250915 
L 161.22573 67.166277 
L 162.924995 67.08164 
L 164.624261 66.997003 
L 166.323526 66.912365 
L 168.022792 66.827728 
L 169.722058 66.74309 
L 171.421323 66.658453 
L 173.120589 66.573815 
L 174.819855 66.489178 
L 176.51912 66.40454 
L 178.218386 66.319903 
L 179.917651 66.235265 
L 181.616917 66.150628 
L 183.316183 66.06599 
L 185.015448 65.981353 
L 186.714714 65.896716 
L 188.413979 65.812078 
L 190.113245 65.727441 
L 191.812511 65.642803 
L 193.511776 65.558166 
L 195.211042 65.473528 
L 196.910308 65.388891 
L 198.609573 65.304253 
L 200.308839 65.219616 
L 202.008104 65.134978 
L 203.70737 65.050341 
L 205.406636 64.965704 
L 207.105901 64.881066 
L 208.805167 64.796429 
L 210.504432 64.711791 
L 212.203698 64.627154 
L 213.902964 64.542516 
L 215.602229 64.457879 
L 217.301495 64.373241 
L 219.000761 64.288604 
L 220.700026 64.203966 
L 222.399292 64.119329 
L 224.098557 64.034692 
L 225.797823 63.950054 
L 227.497089 63.865417 
L 229.196354 63.780779 
L 230.89562 63.696142 
L 232.594885 63.611504 
L 234.294151 63.526867 
L 235.993417 63.442229 
L 237.692682 63.357592 
L 239.391948 63.272954 
L 241.091214 63.188317 
L 242.790479 63.103679 
L 244.489745 63.019042 
L 246.18901 62.934405 
L 247.888276 62.849767 
L 249.587542 62.76513 
L 251.286807 62.680492 
L 252.986073 62.595855 
L 254.685338 62.511217 
L 256.384604 62.42658 
L 258.08387 62.341942 
" clip-path="url(#p09f52a6ad8)" style="fill: none; stroke: #fc8d62; stroke-width: 2.25; stroke-linecap: round"/>
   </g>
   <g id="patch_3">
    <path d="M 78.451333 167.22 
L 78.451333 14.402178 
" style="fill: none; stroke: #262626; stroke-width: 1.25; stroke-linejoin: miter; stroke-linecap: square"/>
   </g>
   <g id="patch_4">
    <path d="M 87.005264 167.22 
L 258.08387 167.22 
" style="fill: none; stroke: #262626; stroke-width: 1.25; stroke-linejoin: miter; stroke-linecap: square"/>
   </g>
   <g id="PathCollection_1">
    <defs>
     <path id="mebba594d2b" d="M 0 2.738613 
C 0.726289 2.738613 1.422928 2.450055 1.936492 1.936492 
C 2.450055 1.422928 2.738613 0.726289 2.738613 0 
C 2.738613 -0.726289 2.450055 -1.422928 1.936492 -1.936492 
C 1.422928 -2.450055 0.726289 -2.738613 0 -2.738613 
C -0.726289 -2.738613 -1.422928 -2.450055 -1.936492 -1.936492 
C -2.450055 -1.422928 -2.738613 -0.726289 -2.738613 0 
C -2.738613 0.726289 -2.450055 1.422928 -1.936492 1.936492 
C -1.422928 2.450055 -0.726289 2.738613 0 2.738613 
z
" style="stroke: #ffffff; stroke-opacity: 0.8; stroke-width: 0.5"/>
    </defs>
    <g>
     <use xlink:href="#mebba594d2b" x="89.856574" y="76.945513" style="fill: #66c2a5; fill-opacity: 0.8; stroke: #ffffff; stroke-opacity: 0.8; stroke-width: 0.5"/>
     <use xlink:href="#mebba594d2b" x="87.005264" y="12.971384" style="fill: #66c2a5; fill-opacity: 0.8; stroke: #ffffff; stroke-opacity: 0.8; stroke-width: 0.5"/>
     <use xlink:href="#mebba594d2b" x="141.180156" y="27.961132" style="fill: #66c2a5; fill-opacity: 0.8; stroke: #ffffff; stroke-opacity: 0.8; stroke-width: 0.5"/>
     <use xlink:href="#mebba594d2b" x="87.005264" y="150.165331" style="fill: #66c2a5; fill-opacity: 0.8; stroke: #ffffff; stroke-opacity: 0.8; stroke-width: 0.5"/>
     <use xlink:href="#mebba594d2b" x="89.856574" y="15.448431" style="fill: #66c2a5; fill-opacity: 0.8; stroke: #ffffff; stroke-opacity: 0.8; stroke-width: 0.5"/>
     <use xlink:href="#mebba594d2b" x="106.964434" y="12.96" style="fill: #66c2a5; fill-opacity: 0.8; stroke: #ffffff; stroke-opacity: 0.8; stroke-width: 0.5"/>
     <use xlink:href="#mebba594d2b" x="121.220985" y="58.401536" style="fill: #66c2a5; fill-opacity: 0.8; stroke: #ffffff; stroke-opacity: 0.8; stroke-width: 0.5"/>
     <use xlink:href="#mebba594d2b" x="89.856574" y="30.822603" style="fill: #66c2a5; fill-opacity: 0.8; stroke: #ffffff; stroke-opacity: 0.8; stroke-width: 0.5"/>
     <use xlink:href="#mebba594d2b" x="87.005264" y="68.327892" style="fill: #66c2a5; fill-opacity: 0.8; stroke: #ffffff; stroke-opacity: 0.8; stroke-width: 0.5"/>
     <use xlink:href="#mebba594d2b" x="112.667055" y="28.788993" style="fill: #66c2a5; fill-opacity: 0.8; stroke: #ffffff; stroke-opacity: 0.8; stroke-width: 0.5"/>
     <use xlink:href="#mebba594d2b" x="186.801117" y="69.740031" style="fill: #66c2a5; fill-opacity: 0.8; stroke: #ffffff; stroke-opacity: 0.8; stroke-width: 0.5"/>
     <use xlink:href="#mebba594d2b" x="92.707884" y="111.58276" style="fill: #66c2a5; fill-opacity: 0.8; stroke: #ffffff; stroke-opacity: 0.8; stroke-width: 0.5"/>
     <use xlink:href="#mebba594d2b" x="115.518365" y="148.956666" style="fill: #66c2a5; fill-opacity: 0.8; stroke: #ffffff; stroke-opacity: 0.8; stroke-width: 0.5"/>
     <use xlink:href="#mebba594d2b" x="126.923605" y="42.94626" style="fill: #66c2a5; fill-opacity: 0.8; stroke: #ffffff; stroke-opacity: 0.8; stroke-width: 0.5"/>
     <use xlink:href="#mebba594d2b" x="101.261814" y="144.2157" style="fill: #66c2a5; fill-opacity: 0.8; stroke: #ffffff; stroke-opacity: 0.8; stroke-width: 0.5"/>
     <use xlink:href="#mebba594d2b" x="126.923605" y="78.020353" style="fill: #66c2a5; fill-opacity: 0.8; stroke: #ffffff; stroke-opacity: 0.8; stroke-width: 0.5"/>
     <use xlink:href="#mebba594d2b" x="92.707884" y="40.778235" style="fill: #66c2a5; fill-opacity: 0.8; stroke: #ffffff; stroke-opacity: 0.8; stroke-width: 0.5"/>
     <use xlink:href="#mebba594d2b" x="175.395877" y="125.273832" style="fill: #66c2a5; fill-opacity: 0.8; stroke: #ffffff; stroke-opacity: 0.8; stroke-width: 0.5"/>
     <use xlink:href="#mebba594d2b" x="92.707884" y="60.48599" style="fill: #66c2a5; fill-opacity: 0.8; stroke: #ffffff; stroke-opacity: 0.8; stroke-width: 0.5"/>
     <use xlink:href="#mebba594d2b" x="87.005264" y="116.49547" style="fill: #66c2a5; fill-opacity: 0.8; stroke: #ffffff; stroke-opacity: 0.8; stroke-width: 0.5"/>
     <use xlink:href="#mebba594d2b" x="106.964434" y="68.59409" style="fill: #66c2a5; fill-opacity: 0.8; stroke: #ffffff; stroke-opacity: 0.8; stroke-width: 0.5"/>
     <use xlink:href="#mebba594d2b" x="87.005264" y="36.743045" style="fill: #66c2a5; fill-opacity: 0.8; stroke: #ffffff; stroke-opacity: 0.8; stroke-width: 0.5"/>
     <use xlink:href="#mebba594d2b" x="115.518365" y="143.941308" style="fill: #66c2a5; fill-opacity: 0.8; stroke: #ffffff; stroke-opacity: 0.8; stroke-width: 0.5"/>
     <use xlink:href="#mebba594d2b" x="87.005264" y="74.732757" style="fill: #66c2a5; fill-opacity: 0.8; stroke: #ffffff; stroke-opacity: 0.8; stroke-width: 0.5"/>
     <use xlink:href="#mebba594d2b" x="109.815744" y="65.307958" style="fill: #66c2a5; fill-opacity: 0.8; stroke: #ffffff; stroke-opacity: 0.8; stroke-width: 0.5"/>
    </g>
   </g>
   <g id="PathCollection_2">
    <defs>
     <path id="m5b89b5878f" d="M 0 2.738613 
C 0.726289 2.738613 1.422928 2.450055 1.936492 1.936492 
C 2.450055 1.422928 2.738613 0.726289 2.738613 0 
C 2.738613 -0.726289 2.450055 -1.422928 1.936492 -1.936492 
C 1.422928 -2.450055 0.726289 -2.738613 0 -2.738613 
C -0.726289 -2.738613 -1.422928 -2.450055 -1.936492 -1.936492 
C -2.450055 -1.422928 -2.738613 -0.726289 -2.738613 0 
C -2.738613 0.726289 -2.450055 1.422928 -1.936492 1.936492 
C -1.422928 2.450055 -0.726289 2.738613 0 2.738613 
z
" style="stroke: #ffffff; stroke-opacity: 0.8; stroke-width: 0.5"/>
    </defs>
    <g>
     <use xlink:href="#m5b89b5878f" x="98.410504" y="41.035365" style="fill: #fc8d62; fill-opacity: 0.8; stroke: #ffffff; stroke-opacity: 0.8; stroke-width: 0.5"/>
     <use xlink:href="#m5b89b5878f" x="109.815744" y="147.856015" style="fill: #fc8d62; fill-opacity: 0.8; stroke: #ffffff; stroke-opacity: 0.8; stroke-width: 0.5"/>
     <use xlink:href="#m5b89b5878f" x="89.856574" y="28.575282" style="fill: #fc8d62; fill-opacity: 0.8; stroke: #ffffff; stroke-opacity: 0.8; stroke-width: 0.5"/>
     <use xlink:href="#m5b89b5878f" x="169.693257" y="79.489411" style="fill: #fc8d62; fill-opacity: 0.8; stroke: #ffffff; stroke-opacity: 0.8; stroke-width: 0.5"/>
     <use xlink:href="#m5b89b5878f" x="223.868148" y="93.690066" style="fill: #fc8d62; fill-opacity: 0.8; stroke: #ffffff; stroke-opacity: 0.8; stroke-width: 0.5"/>
     <use xlink:href="#m5b89b5878f" x="89.856574" y="25.661256" style="fill: #fc8d62; fill-opacity: 0.8; stroke: #ffffff; stroke-opacity: 0.8; stroke-width: 0.5"/>
     <use xlink:href="#m5b89b5878f" x="126.923605" y="101.458496" style="fill: #fc8d62; fill-opacity: 0.8; stroke: #ffffff; stroke-opacity: 0.8; stroke-width: 0.5"/>
     <use xlink:href="#m5b89b5878f" x="106.964434" y="71.271538" style="fill: #fc8d62; fill-opacity: 0.8; stroke: #ffffff; stroke-opacity: 0.8; stroke-width: 0.5"/>
     <use xlink:href="#m5b89b5878f" x="118.369675" y="37.847618" style="fill: #fc8d62; fill-opacity: 0.8; stroke: #ffffff; stroke-opacity: 0.8; stroke-width: 0.5"/>
     <use xlink:href="#m5b89b5878f" x="155.436706" y="59.935712" style="fill: #fc8d62; fill-opacity: 0.8; stroke: #ffffff; stroke-opacity: 0.8; stroke-width: 0.5"/>
     <use xlink:href="#m5b89b5878f" x="158.288016" y="44.277174" style="fill: #fc8d62; fill-opacity: 0.8; stroke: #ffffff; stroke-opacity: 0.8; stroke-width: 0.5"/>
     <use xlink:href="#m5b89b5878f" x="112.667055" y="82.713687" style="fill: #fc8d62; fill-opacity: 0.8; stroke: #ffffff; stroke-opacity: 0.8; stroke-width: 0.5"/>
     <use xlink:href="#m5b89b5878f" x="158.288016" y="56.764177" style="fill: #fc8d62; fill-opacity: 0.8; stroke: #ffffff; stroke-opacity: 0.8; stroke-width: 0.5"/>
     <use xlink:href="#m5b89b5878f" x="121.220985" y="70.822781" style="fill: #fc8d62; fill-opacity: 0.8; stroke: #ffffff; stroke-opacity: 0.8; stroke-width: 0.5"/>
     <use xlink:href="#m5b89b5878f" x="101.261814" y="57.797945" style="fill: #fc8d62; fill-opacity: 0.8; stroke: #ffffff; stroke-opacity: 0.8; stroke-width: 0.5"/>
     <use xlink:href="#m5b89b5878f" x="192.503737" y="48.5507" style="fill: #fc8d62; fill-opacity: 0.8; stroke: #ffffff; stroke-opacity: 0.8; stroke-width: 0.5"/>
     <use xlink:href="#m5b89b5878f" x="132.626225" y="140.353183" style="fill: #fc8d62; fill-opacity: 0.8; stroke: #ffffff; stroke-opacity: 0.8; stroke-width: 0.5"/>
     <use xlink:href="#m5b89b5878f" x="118.369675" y="38.284483" style="fill: #fc8d62; fill-opacity: 0.8; stroke: #ffffff; stroke-opacity: 0.8; stroke-width: 0.5"/>
     <use xlink:href="#m5b89b5878f" x="258.08387" y="18.549854" style="fill: #fc8d62; fill-opacity: 0.8; stroke: #ffffff; stroke-opacity: 0.8; stroke-width: 0.5"/>
     <use xlink:href="#m5b89b5878f" x="144.031466" y="121.61935" style="fill: #fc8d62; fill-opacity: 0.8; stroke: #ffffff; stroke-opacity: 0.8; stroke-width: 0.5"/>
     <use xlink:href="#m5b89b5878f" x="106.964434" y="68.45534" style="fill: #fc8d62; fill-opacity: 0.8; stroke: #ffffff; stroke-opacity: 0.8; stroke-width: 0.5"/>
    </g>
   </g>
  </g>
  <g id="legend_1">
   <g id="text_13">
    <text style="fill: #262626; font: 12px 'Arial', 'DejaVu Sans', 'Liberation Sans', 'Bitstream Vera Sans', sans-serif; text-anchor: start" x="269.051875" y="95.165312" transform="rotate(-0 269.051875 95.165312)">multiplier</text>
   </g>
   <g id="PathCollection_3">
    <g>
     <use xlink:href="#mebba594d2b" x="284.539219" y="108.631719" style="fill: #66c2a5; fill-opacity: 0.8; stroke: #ffffff; stroke-opacity: 0.8; stroke-width: 0.5"/>
    </g>
   </g>
   <g id="text_14">
    <text style="fill: #262626; font: 11px 'Arial', 'DejaVu Sans', 'Liberation Sans', 'Bitstream Vera Sans', sans-serif; text-anchor: start" x="304.339219" y="111.519219" transform="rotate(-0 304.339219 111.519219)">1.5</text>
   </g>
   <g id="PathCollection_4">
    <g>
     <use xlink:href="#m5b89b5878f" x="284.539219" y="124.777656" style="fill: #fc8d62; fill-opacity: 0.8; stroke: #ffffff; stroke-opacity: 0.8; stroke-width: 0.5"/>
    </g>
   </g>
   <g id="text_15">
    <text style="fill: #262626; font: 11px 'Arial', 'DejaVu Sans', 'Liberation Sans', 'Bitstream Vera Sans', sans-serif; text-anchor: start" x="304.339219" y="127.665156" transform="rotate(-0 304.339219 127.665156)">2.5</text>
   </g>
  </g>
 </g>
 <defs>
  <clipPath id="p09f52a6ad8">
   <rect x="78.451333" y="12.96" width="188.186467" height="154.26"/>
  </clipPath>
 </defs>
</svg>
