<?xml version="1.0" encoding="utf-8" standalone="no"?>
<!DOCTYPE svg PUBLIC "-//W3C//DTD SVG 1.1//EN"
  "http://www.w3.org/Graphics/SVG/1.1/DTD/svg11.dtd">
<svg xmlns:xlink="http://www.w3.org/1999/xlink" width="335.95pt" height="216pt" viewBox="0 0 335.95 216" xmlns="http://www.w3.org/2000/svg" version="1.1">
 <metadata>
  <rdf:RDF xmlns:dc="http://purl.org/dc/elements/1.1/" xmlns:cc="http://creativecommons.org/ns#" xmlns:rdf="http://www.w3.org/1999/02/22-rdf-syntax-ns#">
   <cc:Work>
    <dc:type rdf:resource="http://purl.org/dc/dcmitype/StillImage"/>
    <dc:date>2023-03-08T18:07:41.428992</dc:date>
    <dc:format>image/svg+xml</dc:format>
    <dc:creator>
     <cc:Agent>
      <dc:title>Matplotlib v3.7.0, https://matplotlib.org/</dc:title>
     </cc:Agent>
    </dc:creator>
   </cc:Work>
  </rdf:RDF>
 </metadata>
 <defs>
  <style type="text/css">*{stroke-linejoin: round; stroke-linecap: butt}</style>
 </defs>
 <g id="figure_1">
  <g id="patch_1">
   <path d="M 0 216 
L 335.95 216 
L 335.95 0 
L 0 0 
z
" style="fill: #ffffff"/>
  </g>
  <g id="axes_1">
   <g id="patch_2">
    <path d="M 66.644081 165.78 
L 266.6405 165.78 
L 266.6405 12.96 
L 66.644081 12.96 
z
" style="fill: #ffffff"/>
   </g>
   <g id="matplotlib.axis_1">
    <g id="xtick_1">
     <g id="line2d_1">
      <defs>
       <path id="me3714df398" d="M 0 0 
L 0 6 
" style="stroke: #262626; stroke-width: 1.25"/>
      </defs>
      <g>
       <use xlink:href="#me3714df398" x="75.734828" y="165.78" style="fill: #262626; stroke: #262626; stroke-width: 1.25"/>
      </g>
     </g>
     <g id="text_1">
      <text style="fill: #262626; font: 11px 'Arial', 'DejaVu Sans', 'Liberation Sans', 'Bitstream Vera Sans', sans-serif; text-anchor: middle" x="75.734828" y="183.638281" transform="rotate(-0 75.734828 183.638281)">0.0</text>
     </g>
    </g>
    <g id="xtick_2">
     <g id="line2d_2">
      <g>
       <use xlink:href="#me3714df398" x="112.097813" y="165.78" style="fill: #262626; stroke: #262626; stroke-width: 1.25"/>
      </g>
     </g>
     <g id="text_2">
      <text style="fill: #262626; font: 11px 'Arial', 'DejaVu Sans', 'Liberation Sans', 'Bitstream Vera Sans', sans-serif; text-anchor: middle" x="112.097813" y="183.638281" transform="rotate(-0 112.097813 183.638281)">0.2</text>
     </g>
    </g>
    <g id="xtick_3">
     <g id="line2d_3">
      <g>
       <use xlink:href="#me3714df398" x="148.460798" y="165.78" style="fill: #262626; stroke: #262626; stroke-width: 1.25"/>
      </g>
     </g>
     <g id="text_3">
      <text style="fill: #262626; font: 11px 'Arial', 'DejaVu Sans', 'Liberation Sans', 'Bitstream Vera Sans', sans-serif; text-anchor: middle" x="148.460798" y="183.638281" transform="rotate(-0 148.460798 183.638281)">0.4</text>
     </g>
    </g>
    <g id="xtick_4">
     <g id="line2d_4">
      <g>
       <use xlink:href="#me3714df398" x="184.823783" y="165.78" style="fill: #262626; stroke: #262626; stroke-width: 1.25"/>
      </g>
     </g>
     <g id="text_4">
      <text style="fill: #262626; font: 11px 'Arial', 'DejaVu Sans', 'Liberation Sans', 'Bitstream Vera Sans', sans-serif; text-anchor: middle" x="184.823783" y="183.638281" transform="rotate(-0 184.823783 183.638281)">0.6</text>
     </g>
    </g>
    <g id="xtick_5">
     <g id="line2d_5">
      <g>
       <use xlink:href="#me3714df398" x="221.186768" y="165.78" style="fill: #262626; stroke: #262626; stroke-width: 1.25"/>
      </g>
     </g>
     <g id="text_5">
      <text style="fill: #262626; font: 11px 'Arial', 'DejaVu Sans', 'Liberation Sans', 'Bitstream Vera Sans', sans-serif; text-anchor: middle" x="221.186768" y="183.638281" transform="rotate(-0 221.186768 183.638281)">0.8</text>
     </g>
    </g>
    <g id="xtick_6">
     <g id="line2d_6">
      <g>
       <use xlink:href="#me3714df398" x="257.549754" y="165.78" style="fill: #262626; stroke: #262626; stroke-width: 1.25"/>
      </g>
     </g>
     <g id="text_6">
      <text style="fill: #262626; font: 11px 'Arial', 'DejaVu Sans', 'Liberation Sans', 'Bitstream Vera Sans', sans-serif; text-anchor: middle" x="257.549754" y="183.638281" transform="rotate(-0 257.549754 183.638281)">1.0</text>
     </g>
    </g>
    <g id="text_7">
     <text style="fill: #262626; font: 12px 'Arial', 'DejaVu Sans', 'Liberation Sans', 'Bitstream Vera Sans', sans-serif; text-anchor: middle" x="166.642291" y="199.044062" transform="rotate(-0 166.642291 199.044062)">p(disclose)</text>
    </g>
   </g>
   <g id="matplotlib.axis_2">
    <g id="ytick_1">
     <g id="line2d_7">
      <defs>
       <path id="m868ae07cc0" d="M 0 0 
L -6 0 
" style="stroke: #262626; stroke-width: 1.25"/>
      </defs>
      <g>
       <use xlink:href="#m868ae07cc0" x="66.644081" y="165.78" style="fill: #262626; stroke: #262626; stroke-width: 1.25"/>
      </g>
     </g>
     <g id="text_8">
      <text style="fill: #262626; font: 11px 'Arial', 'DejaVu Sans', 'Liberation Sans', 'Bitstream Vera Sans', sans-serif; text-anchor: end" x="57.144081" y="169.959141" transform="rotate(-0 57.144081 169.959141)">0.0</text>
     </g>
    </g>
    <g id="ytick_2">
     <g id="line2d_8">
      <g>
       <use xlink:href="#m868ae07cc0" x="66.644081" y="135.216" style="fill: #262626; stroke: #262626; stroke-width: 1.25"/>
      </g>
     </g>
     <g id="text_9">
      <text style="fill: #262626; font: 11px 'Arial', 'DejaVu Sans', 'Liberation Sans', 'Bitstream Vera Sans', sans-serif; text-anchor: end" x="57.144081" y="139.395141" transform="rotate(-0 57.144081 139.395141)">0.2</text>
     </g>
    </g>
    <g id="ytick_3">
     <g id="line2d_9">
      <g>
       <use xlink:href="#m868ae07cc0" x="66.644081" y="104.652" style="fill: #262626; stroke: #262626; stroke-width: 1.25"/>
      </g>
     </g>
     <g id="text_10">
      <text style="fill: #262626; font: 11px 'Arial', 'DejaVu Sans', 'Liberation Sans', 'Bitstream Vera Sans', sans-serif; text-anchor: end" x="57.144081" y="108.831141" transform="rotate(-0 57.144081 108.831141)">0.4</text>
     </g>
    </g>
    <g id="ytick_4">
     <g id="line2d_10">
      <g>
       <use xlink:href="#m868ae07cc0" x="66.644081" y="74.088" style="fill: #262626; stroke: #262626; stroke-width: 1.25"/>
      </g>
     </g>
     <g id="text_11">
      <text style="fill: #262626; font: 11px 'Arial', 'DejaVu Sans', 'Liberation Sans', 'Bitstream Vera Sans', sans-serif; text-anchor: end" x="57.144081" y="78.267141" transform="rotate(-0 57.144081 78.267141)">0.6</text>
     </g>
    </g>
    <g id="ytick_5">
     <g id="line2d_11">
      <g>
       <use xlink:href="#m868ae07cc0" x="66.644081" y="43.524" style="fill: #262626; stroke: #262626; stroke-width: 1.25"/>
      </g>
     </g>
     <g id="text_12">
      <text style="fill: #262626; font: 11px 'Arial', 'DejaVu Sans', 'Liberation Sans', 'Bitstream Vera Sans', sans-serif; text-anchor: end" x="57.144081" y="47.703141" transform="rotate(-0 57.144081 47.703141)">0.8</text>
     </g>
    </g>
    <g id="ytick_6">
     <g id="line2d_12">
      <g>
       <use xlink:href="#m868ae07cc0" x="66.644081" y="12.96" style="fill: #262626; stroke: #262626; stroke-width: 1.25"/>
      </g>
     </g>
     <g id="text_13">
      <text style="fill: #262626; font: 11px 'Arial', 'DejaVu Sans', 'Liberation Sans', 'Bitstream Vera Sans', sans-serif; text-anchor: end" x="57.144081" y="17.139141" transform="rotate(-0 57.144081 17.139141)">1.0</text>
     </g>
    </g>
    <g id="text_14">
     <text style="fill: #262626; font: 12px 'Arial', 'DejaVu Sans', 'Liberation Sans', 'Bitstream Vera Sans', sans-serif; text-anchor: middle" x="33.155019" y="89.37" transform="rotate(-90 33.155019 89.37)">payoff</text>
    </g>
   </g>
   <g id="PolyCollection_1">
    <path d="M 75.734828 -4724.554852 
L 75.734828 -4323.291573 
L 77.571342 -4328.270971 
L 79.407856 -4333.25037 
L 81.244371 -4338.234034 
L 83.080885 -4342.254651 
L 84.9174 -4346.284171 
L 86.753914 -4351.305262 
L 88.590428 -4356.086396 
L 90.426943 -4360.335301 
L 92.263457 -4364.588181 
L 94.099972 -4369.3392 
L 95.936486 -4374.258404 
L 97.773 -4378.442553 
L 99.609515 -4383.029783 
L 101.446029 -4387.845935 
L 103.282544 -4392.97892 
L 105.119058 -4397.180426 
L 106.955572 -4401.88234 
L 108.792087 -4406.322203 
L 110.628601 -4410.909774 
L 112.465116 -4415.946215 
L 114.30163 -4420.986268 
L 116.138144 -4426.010797 
L 117.974659 -4430.627217 
L 119.811173 -4434.922697 
L 121.647688 -4439.627373 
L 123.484202 -4444.332049 
L 125.320717 -4449.051601 
L 127.157231 -4453.790371 
L 128.993745 -4458.224979 
L 130.83026 -4462.143081 
L 132.666774 -4466.089193 
L 134.503289 -4470.508312 
L 136.339803 -4475.127175 
L 138.176317 -4479.625997 
L 140.012832 -4482.392489 
L 141.849346 -4485.719045 
L 143.685861 -4490.940938 
L 145.522375 -4495.43139 
L 147.358889 -4498.903062 
L 149.195404 -4502.581928 
L 151.031918 -4507.183074 
L 152.868433 -4510.943253 
L 154.704947 -4514.713072 
L 156.541461 -4518.008767 
L 158.377976 -4521.695737 
L 160.21449 -4525.701888 
L 162.051005 -4530.760663 
L 163.887519 -4534.754951 
L 165.724033 -4538.282118 
L 167.560548 -4541.814438 
L 169.397062 -4545.687462 
L 171.233577 -4549.687528 
L 173.070091 -4553.684063 
L 174.906605 -4557.286626 
L 176.74312 -4560.040081 
L 178.579634 -4563.662427 
L 180.416149 -4567.462953 
L 182.252663 -4569.812948 
L 184.089177 -4572.654924 
L 185.925692 -4574.475328 
L 187.762206 -4576.228571 
L 189.598721 -4578.385036 
L 191.435235 -4581.561503 
L 193.27175 -4584.310477 
L 195.108264 -4587.417011 
L 196.944778 -4590.432372 
L 198.781293 -4593.320471 
L 200.617807 -4596.408389 
L 202.454322 -4598.457812 
L 204.290836 -4600.687557 
L 206.12735 -4601.219144 
L 207.963865 -4602.707133 
L 209.800379 -4603.896685 
L 211.636894 -4605.620772 
L 213.473408 -4606.921796 
L 215.309922 -4607.452671 
L 217.146437 -4607.980874 
L 218.982951 -4608.985349 
L 220.819466 -4610.379973 
L 222.65598 -4610.645601 
L 224.492494 -4611.018854 
L 226.329009 -4611.04686 
L 228.165523 -4612.563587 
L 230.002038 -4614.067291 
L 231.838552 -4615.232282 
L 233.675066 -4615.813864 
L 235.511581 -4615.781655 
L 237.348095 -4616.530183 
L 239.18461 -4617.278712 
L 241.021124 -4617.048688 
L 242.857638 -4616.141903 
L 244.694153 -4615.235118 
L 246.530667 -4615.904609 
L 248.367182 -4616.590872 
L 250.203696 -4617.277135 
L 252.04021 -4617.963397 
L 253.876725 -4618.64966 
L 255.713239 -4619.335923 
L 257.549754 -4619.493288 
L 257.549754 -4829.756665 
L 257.549754 -4829.756665 
L 255.713239 -4825.765394 
L 253.876725 -4821.855043 
L 252.04021 -4818.084316 
L 250.203696 -4814.333655 
L 248.367182 -4810.708367 
L 246.530667 -4806.559094 
L 244.694153 -4803.597139 
L 242.857638 -4799.686178 
L 241.021124 -4794.056909 
L 239.18461 -4790.144152 
L 237.348095 -4787.901037 
L 235.511581 -4784.583232 
L 233.675066 -4780.140239 
L 231.838552 -4776.8453 
L 230.002038 -4774.263878 
L 228.165523 -4770.320555 
L 226.329009 -4767.45614 
L 224.492494 -4764.68654 
L 222.65598 -4762.931737 
L 220.819466 -4758.730017 
L 218.982951 -4755.021255 
L 217.146437 -4751.885482 
L 215.309922 -4749.101351 
L 213.473408 -4746.379312 
L 211.636894 -4743.684195 
L 209.800379 -4740.758662 
L 207.963865 -4738.237906 
L 206.12735 -4736.475154 
L 204.290836 -4734.363739 
L 202.454322 -4731.974607 
L 200.617807 -4729.586979 
L 198.781293 -4727.803885 
L 196.944778 -4725.556069 
L 195.108264 -4723.567717 
L 193.27175 -4722.406149 
L 191.435235 -4721.696259 
L 189.598721 -4720.334935 
L 187.762206 -4719.275823 
L 185.925692 -4718.216711 
L 184.089177 -4717.482954 
L 182.252663 -4716.353934 
L 180.416149 -4716.798126 
L 178.579634 -4717.293431 
L 176.74312 -4715.794467 
L 174.906605 -4714.262682 
L 173.070091 -4712.739583 
L 171.233577 -4711.511044 
L 169.397062 -4710.476284 
L 167.560548 -4709.468801 
L 165.724033 -4708.476586 
L 163.887519 -4708.442527 
L 162.051005 -4708.824572 
L 160.21449 -4708.731515 
L 158.377976 -4708.50792 
L 156.541461 -4709.011879 
L 154.704947 -4709.231076 
L 152.868433 -4709.612562 
L 151.031918 -4709.994047 
L 149.195404 -4710.375532 
L 147.358889 -4710.748709 
L 145.522375 -4710.971507 
L 143.685861 -4711.099865 
L 141.849346 -4710.948182 
L 140.012832 -4710.701607 
L 138.176317 -4711.677075 
L 136.339803 -4711.566751 
L 134.503289 -4711.426252 
L 132.666774 -4711.83064 
L 130.83026 -4711.055392 
L 128.993745 -4711.478425 
L 127.157231 -4712.087748 
L 125.320717 -4711.935745 
L 123.484202 -4712.088629 
L 121.647688 -4713.94581 
L 119.811173 -4714.575065 
L 117.974659 -4715.194393 
L 116.138144 -4715.81372 
L 114.30163 -4716.348283 
L 112.465116 -4716.797648 
L 110.628601 -4717.257725 
L 108.792087 -4717.712188 
L 106.955572 -4718.162973 
L 105.119058 -4718.599919 
L 103.282544 -4718.639175 
L 101.446029 -4718.575122 
L 99.609515 -4718.492316 
L 97.773 -4718.409509 
L 95.936486 -4718.326703 
L 94.099972 -4718.243896 
L 92.263457 -4718.25643 
L 90.426943 -4719.012427 
L 88.590428 -4719.711405 
L 86.753914 -4720.404617 
L 84.9174 -4721.096322 
L 83.080885 -4721.788028 
L 81.244371 -4722.479734 
L 79.407856 -4723.17144 
L 77.571342 -4723.863146 
L 75.734828 -4724.554852 
z
" clip-path="url(#pf60755fff4)" style="fill: #66c2a5; fill-opacity: 0.15; stroke: #ffffff; stroke-opacity: 0.15"/>
   </g>
   <g id="PolyCollection_2">
    <path d="M 75.734828 -5940.053409 
L 75.734828 -4772.465029 
L 77.571342 -4786.559575 
L 79.407856 -4800.680151 
L 81.244371 -4814.805038 
L 83.080885 -4828.929925 
L 84.9174 -4843.054812 
L 86.753914 -4857.179699 
L 88.590428 -4871.304586 
L 90.426943 -4885.429473 
L 92.263457 -4898.058595 
L 94.099972 -4910.454301 
L 95.936486 -4922.850007 
L 97.773 -4935.245714 
L 99.609515 -4949.058592 
L 101.446029 -4963.781331 
L 103.282544 -4978.526725 
L 105.119058 -4994.281412 
L 106.955572 -5010.122592 
L 108.792087 -5025.963772 
L 110.628601 -5040.803229 
L 112.465116 -5054.928116 
L 114.30163 -5069.053003 
L 116.138144 -5083.17789 
L 117.974659 -5097.302777 
L 119.811173 -5111.427664 
L 121.647688 -5125.690938 
L 123.484202 -5140.392324 
L 125.320717 -5155.093711 
L 127.157231 -5169.795098 
L 128.993745 -5184.513619 
L 130.83026 -5199.246108 
L 132.666774 -5213.978596 
L 134.503289 -5228.733921 
L 136.339803 -5244.044189 
L 138.176317 -5258.135421 
L 140.012832 -5272.827976 
L 141.849346 -5287.52053 
L 143.685861 -5302.213085 
L 145.522375 -5316.90564 
L 147.358889 -5331.598194 
L 149.195404 -5345.915755 
L 151.031918 -5358.816037 
L 152.868433 -5371.717412 
L 154.704947 -5384.640547 
L 156.541461 -5397.563683 
L 158.377976 -5411.886553 
L 160.21449 -5425.596182 
L 162.051005 -5437.717891 
L 163.887519 -5450.066471 
L 165.724033 -5464.107962 
L 167.560548 -5477.842443 
L 169.397062 -5491.576924 
L 171.233577 -5505.311405 
L 173.070091 -5517.350933 
L 174.906605 -5526.353378 
L 176.74312 -5539.218932 
L 178.579634 -5552.096813 
L 180.416149 -5567.099643 
L 182.252663 -5578.095573 
L 184.089177 -5589.010115 
L 185.925692 -5602.409758 
L 187.762206 -5615.555997 
L 189.598721 -5628.420376 
L 191.435235 -5637.554091 
L 193.27175 -5649.640801 
L 195.108264 -5660.106225 
L 196.944778 -5675.432969 
L 198.781293 -5686.641335 
L 200.617807 -5696.781504 
L 202.454322 -5706.108261 
L 204.290836 -5715.674599 
L 206.12735 -5722.959211 
L 207.963865 -5731.082686 
L 209.800379 -5740.648578 
L 211.636894 -5743.096474 
L 213.473408 -5746.106409 
L 215.309922 -5752.315256 
L 217.146437 -5756.964826 
L 218.982951 -5762.848054 
L 220.819466 -5769.349238 
L 222.65598 -5775.291766 
L 224.492494 -5784.31236 
L 226.329009 -5789.62738 
L 228.165523 -5793.423197 
L 230.002038 -5792.623721 
L 231.838552 -5797.260606 
L 233.675066 -5799.023127 
L 235.511581 -5801.310555 
L 237.348095 -5806.245809 
L 239.18461 -5809.540298 
L 241.021124 -5809.850194 
L 242.857638 -5810.192408 
L 244.694153 -5812.312045 
L 246.530667 -5815.432485 
L 248.367182 -5818.517478 
L 250.203696 -5821.940289 
L 252.04021 -5824.699943 
L 253.876725 -5827.15813 
L 255.713239 -5830.826743 
L 257.549754 -5833.901051 
L 257.549754 -6241.755403 
L 257.549754 -6241.755403 
L 255.713239 -6229.499093 
L 253.876725 -6220.06034 
L 252.04021 -6206.871418 
L 250.203696 -6196.081975 
L 248.367182 -6187.486337 
L 246.530667 -6178.066372 
L 244.694153 -6170.377755 
L 242.857638 -6162.16992 
L 241.021124 -6155.132744 
L 239.18461 -6145.16817 
L 237.348095 -6138.37134 
L 235.511581 -6130.809541 
L 233.675066 -6125.4738 
L 231.838552 -6119.029297 
L 230.002038 -6109.945675 
L 228.165523 -6103.527022 
L 226.329009 -6097.538472 
L 224.492494 -6093.348381 
L 222.65598 -6088.495946 
L 220.819466 -6083.950297 
L 218.982951 -6079.971338 
L 217.146437 -6074.301845 
L 215.309922 -6068.025982 
L 213.473408 -6063.868534 
L 211.636894 -6058.015067 
L 209.800379 -6054.02027 
L 207.963865 -6050.158342 
L 206.12735 -6047.97031 
L 204.290836 -6047.402964 
L 202.454322 -6042.816909 
L 200.617807 -6039.521517 
L 198.781293 -6035.417449 
L 196.944778 -6031.590688 
L 195.108264 -6032.14538 
L 193.27175 -6030.482652 
L 191.435235 -6028.094562 
L 189.598721 -6024.650566 
L 187.762206 -6021.194507 
L 185.925692 -6017.729013 
L 184.089177 -6014.263519 
L 182.252663 -6012.660371 
L 180.416149 -6011.888353 
L 178.579634 -6011.116335 
L 176.74312 -6009.948345 
L 174.906605 -6007.480295 
L 173.070091 -6004.97595 
L 171.233577 -6002.429009 
L 169.397062 -5999.946145 
L 167.560548 -5997.430822 
L 165.724033 -5994.915498 
L 163.887519 -5992.400174 
L 162.051005 -5989.884851 
L 160.21449 -5987.369527 
L 158.377976 -5986.487155 
L 156.541461 -5984.025074 
L 154.704947 -5983.086362 
L 152.868433 -5982.147649 
L 151.031918 -5981.166274 
L 149.195404 -5980.159466 
L 147.358889 -5979.152658 
L 145.522375 -5978.499731 
L 143.685861 -5977.276878 
L 141.849346 -5977.751841 
L 140.012832 -5976.267042 
L 138.176317 -5974.351552 
L 136.339803 -5973.34608 
L 134.503289 -5972.340608 
L 132.666774 -5971.005946 
L 130.83026 -5970.437889 
L 128.993745 -5969.490307 
L 127.157231 -5968.50358 
L 125.320717 -5967.516853 
L 123.484202 -5966.530126 
L 121.647688 -5965.543398 
L 119.811173 -5964.3493 
L 117.974659 -5963.202275 
L 116.138144 -5961.533955 
L 114.30163 -5960.247674 
L 112.465116 -5958.177973 
L 110.628601 -5956.470344 
L 108.792087 -5954.762715 
L 106.955572 -5953.055086 
L 105.119058 -5951.347457 
L 103.282544 -5949.810909 
L 101.446029 -5948.011248 
L 99.609515 -5946.743928 
L 97.773 -5949.051926 
L 95.936486 -5949.980332 
L 94.099972 -5949.702382 
L 92.263457 -5949.410421 
L 90.426943 -5949.049558 
L 88.590428 -5948.097285 
L 86.753914 -5947.145013 
L 84.9174 -5946.19274 
L 83.080885 -5945.186215 
L 81.244371 -5943.313709 
L 79.407856 -5940.766578 
L 77.571342 -5940.155966 
L 75.734828 -5940.053409 
z
" clip-path="url(#pf60755fff4)" style="fill: #fc8d62; fill-opacity: 0.15; stroke: #ffffff; stroke-opacity: 0.15"/>
   </g>
   <g id="line2d_13">
    <path clip-path="url(#pf60755fff4)" style="fill: none; stroke: #66c2a5; stroke-width: 2.25; stroke-linecap: round"/>
   </g>
   <g id="line2d_14">
    <path clip-path="url(#pf60755fff4)" style="fill: none; stroke: #fc8d62; stroke-width: 2.25; stroke-linecap: round"/>
   </g>
   <g id="patch_3">
    <path d="M 66.644081 165.78 
L 66.644081 12.96 
" style="fill: none; stroke: #262626; stroke-width: 1.25; stroke-linejoin: miter; stroke-linecap: square"/>
   </g>
   <g id="patch_4">
    <path d="M 75.734828 165.78 
L 257.549754 165.78 
" style="fill: none; stroke: #262626; stroke-width: 1.25; stroke-linejoin: miter; stroke-linecap: square"/>
   </g>
   <g id="PathCollection_1">
    <defs>
     <path id="m314a10228d" d="M 0 2.738613 
C 0.726289 2.738613 1.422928 2.450055 1.936492 1.936492 
C 2.450055 1.422928 2.738613 0.726289 2.738613 0 
C 2.738613 -0.726289 2.450055 -1.422928 1.936492 -1.936492 
C 1.422928 -2.450055 0.726289 -2.738613 0 -2.738613 
C -0.726289 -2.738613 -1.422928 -2.450055 -1.936492 -1.936492 
C -2.450055 -1.422928 -2.738613 -0.726289 -2.738613 0 
C -2.738613 0.726289 -2.450055 1.422928 -1.936492 1.936492 
C -1.422928 2.450055 -0.726289 2.738613 0 2.738613 
z
" style="stroke: #ffffff; stroke-opacity: 0.8; stroke-width: 0.5"/>
    </defs>
    <g/>
   </g>
   <g id="PathCollection_2">
    <defs>
     <path id="m3b929eebb3" d="M 0 2.738613 
C 0.726289 2.738613 1.422928 2.450055 1.936492 1.936492 
C 2.450055 1.422928 2.738613 0.726289 2.738613 0 
C 2.738613 -0.726289 2.450055 -1.422928 1.936492 -1.936492 
C 1.422928 -2.450055 0.726289 -2.738613 0 -2.738613 
C -0.726289 -2.738613 -1.422928 -2.450055 -1.936492 -1.936492 
C -2.450055 -1.422928 -2.738613 -0.726289 -2.738613 0 
C -2.738613 0.726289 -2.450055 1.422928 -1.936492 1.936492 
C -1.422928 2.450055 -0.726289 2.738613 0 2.738613 
z
" style="stroke: #ffffff; stroke-opacity: 0.8; stroke-width: 0.5"/>
    </defs>
    <g/>
   </g>
  </g>
  <g id="legend_1">
   <g id="text_15">
    <text style="fill: #262626; font: 12px 'Arial', 'DejaVu Sans', 'Liberation Sans', 'Bitstream Vera Sans', sans-serif; text-anchor: start" x="268.781875" y="95.165312" transform="rotate(-0 268.781875 95.165312)">multiplier</text>
   </g>
   <g id="PathCollection_3">
    <g>
     <use xlink:href="#m314a10228d" x="284.269219" y="108.631719" style="fill: #66c2a5; fill-opacity: 0.8; stroke: #ffffff; stroke-opacity: 0.8; stroke-width: 0.5"/>
    </g>
   </g>
   <g id="text_16">
    <text style="fill: #262626; font: 11px 'Arial', 'DejaVu Sans', 'Liberation Sans', 'Bitstream Vera Sans', sans-serif; text-anchor: start" x="304.069219" y="111.519219" transform="rotate(-0 304.069219 111.519219)">1.5</text>
   </g>
   <g id="PathCollection_4">
    <g>
     <use xlink:href="#m3b929eebb3" x="284.269219" y="124.777656" style="fill: #fc8d62; fill-opacity: 0.8; stroke: #ffffff; stroke-opacity: 0.8; stroke-width: 0.5"/>
    </g>
   </g>
   <g id="text_17">
    <text style="fill: #262626; font: 11px 'Arial', 'DejaVu Sans', 'Liberation Sans', 'Bitstream Vera Sans', sans-serif; text-anchor: start" x="304.069219" y="127.665156" transform="rotate(-0 304.069219 127.665156)">2.5</text>
   </g>
  </g>
 </g>
 <defs>
  <clipPath id="pf60755fff4">
   <rect x="66.644081" y="12.96" width="199.996419" height="152.82"/>
  </clipPath>
 </defs>
</svg>
