<?xml version="1.0" encoding="utf-8" standalone="no"?>
<!DOCTYPE svg PUBLIC "-//W3C//DTD SVG 1.1//EN"
  "http://www.w3.org/Graphics/SVG/1.1/DTD/svg11.dtd">
<svg xmlns:xlink="http://www.w3.org/1999/xlink" width="335.95pt" height="216pt" viewBox="0 0 335.95 216" xmlns="http://www.w3.org/2000/svg" version="1.1">
 <metadata>
  <rdf:RDF xmlns:dc="http://purl.org/dc/elements/1.1/" xmlns:cc="http://creativecommons.org/ns#" xmlns:rdf="http://www.w3.org/1999/02/22-rdf-syntax-ns#">
   <cc:Work>
    <dc:type rdf:resource="http://purl.org/dc/dcmitype/StillImage"/>
    <dc:date>2023-03-14T19:16:13.577684</dc:date>
    <dc:format>image/svg+xml</dc:format>
    <dc:creator>
     <cc:Agent>
      <dc:title>Matplotlib v3.7.0, https://matplotlib.org/</dc:title>
     </cc:Agent>
    </dc:creator>
   </cc:Work>
  </rdf:RDF>
 </metadata>
 <defs>
  <style type="text/css">*{stroke-linejoin: round; stroke-linecap: butt}</style>
 </defs>
 <g id="figure_1">
  <g id="patch_1">
   <path d="M 0 216 
L 335.95 216 
L 335.95 0 
L 0 0 
z
" style="fill: #ffffff"/>
  </g>
  <g id="axes_1">
   <g id="patch_2">
    <path d="M 71.011431 165.78 
L 266.6405 165.78 
L 266.6405 12.96 
L 71.011431 12.96 
z
" style="fill: #ffffff"/>
   </g>
   <g id="matplotlib.axis_1">
    <g id="xtick_1">
     <g id="line2d_1">
      <defs>
       <path id="m8ef2a8c9f1" d="M 0 0 
L 0 6 
" style="stroke: #262626; stroke-width: 1.25"/>
      </defs>
      <g>
       <use xlink:href="#m8ef2a8c9f1" x="88.795892" y="165.78" style="fill: #262626; stroke: #262626; stroke-width: 1.25"/>
      </g>
     </g>
     <g id="text_1">
      <text style="fill: #262626; font: 11px 'Arial', 'DejaVu Sans', 'Liberation Sans', 'Bitstream Vera Sans', sans-serif; text-anchor: middle" x="88.795892" y="183.638281" transform="rotate(-0 88.795892 183.638281)">0.2</text>
     </g>
    </g>
    <g id="xtick_2">
     <g id="line2d_2">
      <g>
       <use xlink:href="#m8ef2a8c9f1" x="131.033986" y="165.78" style="fill: #262626; stroke: #262626; stroke-width: 1.25"/>
      </g>
     </g>
     <g id="text_2">
      <text style="fill: #262626; font: 11px 'Arial', 'DejaVu Sans', 'Liberation Sans', 'Bitstream Vera Sans', sans-serif; text-anchor: middle" x="131.033986" y="183.638281" transform="rotate(-0 131.033986 183.638281)">0.4</text>
     </g>
    </g>
    <g id="xtick_3">
     <g id="line2d_3">
      <g>
       <use xlink:href="#m8ef2a8c9f1" x="173.272081" y="165.78" style="fill: #262626; stroke: #262626; stroke-width: 1.25"/>
      </g>
     </g>
     <g id="text_3">
      <text style="fill: #262626; font: 11px 'Arial', 'DejaVu Sans', 'Liberation Sans', 'Bitstream Vera Sans', sans-serif; text-anchor: middle" x="173.272081" y="183.638281" transform="rotate(-0 173.272081 183.638281)">0.6</text>
     </g>
    </g>
    <g id="xtick_4">
     <g id="line2d_4">
      <g>
       <use xlink:href="#m8ef2a8c9f1" x="215.510175" y="165.78" style="fill: #262626; stroke: #262626; stroke-width: 1.25"/>
      </g>
     </g>
     <g id="text_4">
      <text style="fill: #262626; font: 11px 'Arial', 'DejaVu Sans', 'Liberation Sans', 'Bitstream Vera Sans', sans-serif; text-anchor: middle" x="215.510175" y="183.638281" transform="rotate(-0 215.510175 183.638281)">0.8</text>
     </g>
    </g>
    <g id="xtick_5">
     <g id="line2d_5">
      <g>
       <use xlink:href="#m8ef2a8c9f1" x="257.74827" y="165.78" style="fill: #262626; stroke: #262626; stroke-width: 1.25"/>
      </g>
     </g>
     <g id="text_5">
      <text style="fill: #262626; font: 11px 'Arial', 'DejaVu Sans', 'Liberation Sans', 'Bitstream Vera Sans', sans-serif; text-anchor: middle" x="257.74827" y="183.638281" transform="rotate(-0 257.74827 183.638281)">1.0</text>
     </g>
    </g>
    <g id="text_6">
     <text style="fill: #262626; font: 12px 'Arial', 'DejaVu Sans', 'Liberation Sans', 'Bitstream Vera Sans', sans-serif; text-anchor: middle" x="168.825966" y="199.044062" transform="rotate(-0 168.825966 199.044062)">p(disclose)</text>
    </g>
   </g>
   <g id="matplotlib.axis_2">
    <g id="ytick_1">
     <g id="line2d_6">
      <defs>
       <path id="m0b8873c649" d="M 0 0 
L -6 0 
" style="stroke: #262626; stroke-width: 1.25"/>
      </defs>
      <g>
       <use xlink:href="#m0b8873c649" x="71.011431" y="165.78" style="fill: #262626; stroke: #262626; stroke-width: 1.25"/>
      </g>
     </g>
     <g id="text_7">
      <text style="fill: #262626; font: 11px 'Arial', 'DejaVu Sans', 'Liberation Sans', 'Bitstream Vera Sans', sans-serif; text-anchor: end" x="61.511431" y="169.959141" transform="rotate(-0 61.511431 169.959141)">0.0</text>
     </g>
    </g>
    <g id="ytick_2">
     <g id="line2d_7">
      <g>
       <use xlink:href="#m0b8873c649" x="71.011431" y="135.216" style="fill: #262626; stroke: #262626; stroke-width: 1.25"/>
      </g>
     </g>
     <g id="text_8">
      <text style="fill: #262626; font: 11px 'Arial', 'DejaVu Sans', 'Liberation Sans', 'Bitstream Vera Sans', sans-serif; text-anchor: end" x="61.511431" y="139.395141" transform="rotate(-0 61.511431 139.395141)">0.2</text>
     </g>
    </g>
    <g id="ytick_3">
     <g id="line2d_8">
      <g>
       <use xlink:href="#m0b8873c649" x="71.011431" y="104.652" style="fill: #262626; stroke: #262626; stroke-width: 1.25"/>
      </g>
     </g>
     <g id="text_9">
      <text style="fill: #262626; font: 11px 'Arial', 'DejaVu Sans', 'Liberation Sans', 'Bitstream Vera Sans', sans-serif; text-anchor: end" x="61.511431" y="108.831141" transform="rotate(-0 61.511431 108.831141)">0.4</text>
     </g>
    </g>
    <g id="ytick_4">
     <g id="line2d_9">
      <g>
       <use xlink:href="#m0b8873c649" x="71.011431" y="74.088" style="fill: #262626; stroke: #262626; stroke-width: 1.25"/>
      </g>
     </g>
     <g id="text_10">
      <text style="fill: #262626; font: 11px 'Arial', 'DejaVu Sans', 'Liberation Sans', 'Bitstream Vera Sans', sans-serif; text-anchor: end" x="61.511431" y="78.267141" transform="rotate(-0 61.511431 78.267141)">0.6</text>
     </g>
    </g>
    <g id="ytick_5">
     <g id="line2d_10">
      <g>
       <use xlink:href="#m0b8873c649" x="71.011431" y="43.524" style="fill: #262626; stroke: #262626; stroke-width: 1.25"/>
      </g>
     </g>
     <g id="text_11">
      <text style="fill: #262626; font: 11px 'Arial', 'DejaVu Sans', 'Liberation Sans', 'Bitstream Vera Sans', sans-serif; text-anchor: end" x="61.511431" y="47.703141" transform="rotate(-0 61.511431 47.703141)">0.8</text>
     </g>
    </g>
    <g id="ytick_6">
     <g id="line2d_11">
      <g>
       <use xlink:href="#m0b8873c649" x="71.011431" y="12.96" style="fill: #262626; stroke: #262626; stroke-width: 1.25"/>
      </g>
     </g>
     <g id="text_12">
      <text style="fill: #262626; font: 11px 'Arial', 'DejaVu Sans', 'Liberation Sans', 'Bitstream Vera Sans', sans-serif; text-anchor: end" x="61.511431" y="17.139141" transform="rotate(-0 61.511431 17.139141)">1.0</text>
     </g>
    </g>
    <g id="text_13">
     <text style="fill: #262626; font: 12px 'Arial', 'DejaVu Sans', 'Liberation Sans', 'Bitstream Vera Sans', sans-serif; text-anchor: middle" x="37.188619" y="89.37" transform="rotate(-90 37.188619 89.37)">norm_payoff</text>
    </g>
   </g>
   <g id="PolyCollection_1">
    <defs>
     <path id="m26cf042d99" d="M 79.903662 -145.576925 
L 79.903662 -63.478142 
L 81.700072 -64.441274 
L 83.496482 -65.322457 
L 85.292892 -66.184739 
L 87.089302 -67.04702 
L 88.885713 -67.909302 
L 90.682123 -68.771584 
L 92.478533 -69.633929 
L 94.274943 -70.497281 
L 96.071353 -71.371712 
L 97.867763 -72.321668 
L 99.664174 -73.27269 
L 101.460584 -74.223712 
L 103.256994 -75.174734 
L 105.053404 -76.125756 
L 106.849814 -77.077108 
L 108.646225 -78.028897 
L 110.442635 -78.980686 
L 112.239045 -79.932476 
L 114.035455 -80.884265 
L 115.831865 -81.815994 
L 117.628275 -82.692577 
L 119.424686 -83.56916 
L 121.221096 -84.445743 
L 123.017506 -85.322326 
L 124.813916 -86.201047 
L 126.610326 -87.140249 
L 128.406737 -88.079451 
L 130.203147 -89.018654 
L 131.999557 -89.891734 
L 133.795967 -90.726777 
L 135.592377 -91.562625 
L 137.388787 -92.441953 
L 139.185198 -93.365209 
L 140.981608 -94.288686 
L 142.778018 -95.213836 
L 144.574428 -96.139007 
L 146.370838 -97.064178 
L 148.167249 -97.989949 
L 149.963659 -98.876502 
L 151.760069 -99.71496 
L 153.556479 -100.568748 
L 155.352889 -101.510086 
L 157.149299 -102.452407 
L 158.94571 -103.395605 
L 160.74212 -104.338803 
L 162.53853 -105.282001 
L 164.33494 -106.108081 
L 166.13135 -106.892228 
L 167.927761 -107.826614 
L 169.724171 -108.705224 
L 171.520581 -109.544668 
L 173.316991 -110.471735 
L 175.113401 -111.415857 
L 176.909811 -112.346461 
L 178.706222 -113.193041 
L 180.502632 -114.095053 
L 182.299042 -115.013062 
L 184.095452 -115.855966 
L 185.891862 -116.669669 
L 187.688273 -117.537086 
L 189.484683 -118.408081 
L 191.281093 -119.331194 
L 193.077503 -120.212648 
L 194.873913 -121.040023 
L 196.670323 -121.883941 
L 198.466734 -122.737171 
L 200.263144 -123.489365 
L 202.059554 -124.187022 
L 203.855964 -125.098277 
L 205.652374 -125.885562 
L 207.448785 -126.673736 
L 209.245195 -127.46191 
L 211.041605 -128.267317 
L 212.838015 -129.105885 
L 214.634425 -130.057835 
L 216.430835 -130.818691 
L 218.227246 -131.518306 
L 220.023656 -132.210505 
L 221.820066 -132.777087 
L 223.616476 -133.596548 
L 225.412886 -134.184087 
L 227.209297 -134.613884 
L 229.005707 -135.138367 
L 230.802117 -135.467516 
L 232.598527 -135.750311 
L 234.394937 -135.9437 
L 236.191347 -136.094927 
L 237.987758 -136.396773 
L 239.784168 -136.71393 
L 241.580578 -136.754385 
L 243.376988 -136.896682 
L 245.173398 -137.234907 
L 246.969809 -137.374774 
L 248.766219 -137.399143 
L 250.562629 -137.545367 
L 252.359039 -137.622114 
L 254.155449 -137.70534 
L 255.951859 -137.814507 
L 257.74827 -137.991223 
L 257.74827 -155.030628 
L 257.74827 -155.030628 
L 255.951859 -154.532396 
L 254.155449 -153.93007 
L 252.359039 -153.362844 
L 250.562629 -152.911669 
L 248.766219 -152.770497 
L 246.969809 -152.624297 
L 245.173398 -152.433358 
L 243.376988 -152.219189 
L 241.580578 -151.896835 
L 239.784168 -151.655789 
L 237.987758 -151.310652 
L 236.191347 -151.172315 
L 234.394937 -151.030675 
L 232.598527 -150.847712 
L 230.802117 -150.71031 
L 229.005707 -150.645031 
L 227.209297 -150.563642 
L 225.412886 -150.492891 
L 223.616476 -150.320838 
L 221.820066 -150.148333 
L 220.023656 -149.992284 
L 218.227246 -149.839333 
L 216.430835 -149.669113 
L 214.634425 -149.533871 
L 212.838015 -149.398323 
L 211.041605 -149.345074 
L 209.245195 -149.207528 
L 207.448785 -149.030736 
L 205.652374 -148.950945 
L 203.855964 -148.898296 
L 202.059554 -148.895728 
L 200.263144 -148.802146 
L 198.466734 -148.754072 
L 196.670323 -148.657747 
L 194.873913 -148.488078 
L 193.077503 -148.352742 
L 191.281093 -148.289283 
L 189.484683 -148.192866 
L 187.688273 -148.113203 
L 185.891862 -147.993383 
L 184.095452 -147.912474 
L 182.299042 -147.790502 
L 180.502632 -147.722454 
L 178.706222 -147.702708 
L 176.909811 -147.667355 
L 175.113401 -147.593879 
L 173.316991 -147.520404 
L 171.520581 -147.444383 
L 169.724171 -147.368317 
L 167.927761 -147.282972 
L 166.13135 -147.162224 
L 164.33494 -147.041476 
L 162.53853 -146.937531 
L 160.74212 -146.891288 
L 158.94571 -146.845044 
L 157.149299 -146.816384 
L 155.352889 -146.769688 
L 153.556479 -146.709839 
L 151.760069 -146.665702 
L 149.963659 -146.621564 
L 148.167249 -146.577427 
L 146.370838 -146.533289 
L 144.574428 -146.489152 
L 142.778018 -146.445014 
L 140.981608 -146.400877 
L 139.185198 -146.356739 
L 137.388787 -146.312602 
L 135.592377 -146.268464 
L 133.795967 -146.224327 
L 131.999557 -146.179917 
L 130.203147 -146.134505 
L 128.406737 -146.095827 
L 126.610326 -146.097251 
L 124.813916 -146.098675 
L 123.017506 -146.099338 
L 121.221096 -146.098179 
L 119.424686 -146.09702 
L 117.628275 -146.095861 
L 115.831865 -146.094703 
L 114.035455 -146.000894 
L 112.239045 -145.994309 
L 110.442635 -145.987724 
L 108.646225 -145.981138 
L 106.849814 -145.989282 
L 105.053404 -146.009024 
L 103.256994 -146.028767 
L 101.460584 -146.047433 
L 99.664174 -145.980148 
L 97.867763 -145.937802 
L 96.071353 -145.930565 
L 94.274943 -145.924306 
L 92.478533 -145.910424 
L 90.682123 -145.863281 
L 88.885713 -145.816138 
L 87.089302 -145.768976 
L 85.292892 -145.720964 
L 83.496482 -145.672951 
L 81.700072 -145.624938 
L 79.903662 -145.576925 
z
" style="stroke: #ffffff; stroke-opacity: 0.15"/>
    </defs>
    <g clip-path="url(#p7bcd55b992)">
     <use xlink:href="#m26cf042d99" x="0" y="216" style="fill: #66c2a5; fill-opacity: 0.15; stroke: #ffffff; stroke-opacity: 0.15"/>
    </g>
   </g>
   <g id="PolyCollection_2">
    <defs>
     <path id="m9e29296f36" d="M 131.775006 -158.194574 
L 131.775006 -110.796922 
L 133.047463 -111.5013 
L 134.31992 -112.205678 
L 135.592377 -112.910056 
L 136.864834 -113.603209 
L 138.137292 -114.308732 
L 139.409749 -115.000634 
L 140.682206 -115.655087 
L 141.954663 -116.302536 
L 143.227121 -116.950876 
L 144.499578 -117.636443 
L 145.772035 -118.29473 
L 147.044492 -118.953017 
L 148.316949 -119.611303 
L 149.589407 -120.26959 
L 150.861864 -120.927877 
L 152.134321 -121.5863 
L 153.406778 -122.223786 
L 154.679235 -122.854118 
L 155.951693 -123.485114 
L 157.22415 -124.166717 
L 158.496607 -124.852989 
L 159.769064 -125.538667 
L 161.041522 -126.198606 
L 162.313979 -126.877443 
L 163.586436 -127.536747 
L 164.858893 -128.196051 
L 166.13135 -128.855356 
L 167.403808 -129.51466 
L 168.676265 -130.173964 
L 169.948722 -130.833269 
L 171.221179 -131.492573 
L 172.493636 -132.151877 
L 173.766094 -132.811182 
L 175.038551 -133.470486 
L 176.311008 -134.12979 
L 177.583465 -134.789094 
L 178.855922 -135.448399 
L 180.12838 -136.107703 
L 181.400837 -136.7612 
L 182.673294 -137.423206 
L 183.945751 -138.085971 
L 185.218209 -138.745137 
L 186.490666 -139.404303 
L 187.763123 -140.063529 
L 189.03558 -140.722833 
L 190.308037 -141.382151 
L 191.580495 -142.042076 
L 192.852952 -142.713754 
L 194.125409 -143.360312 
L 195.397866 -143.980932 
L 196.670323 -144.64561 
L 197.942781 -145.297392 
L 199.215238 -145.955482 
L 200.487695 -146.613933 
L 201.760152 -147.272384 
L 203.032609 -147.930835 
L 204.305067 -148.570476 
L 205.577524 -149.169334 
L 206.849981 -149.822272 
L 208.122438 -150.473785 
L 209.394896 -151.076137 
L 210.667353 -151.733546 
L 211.93981 -152.391629 
L 213.212267 -153.035794 
L 214.484724 -153.625543 
L 215.757182 -154.214424 
L 217.029639 -154.823521 
L 218.302096 -155.451833 
L 219.574553 -156.057988 
L 220.84701 -156.694147 
L 222.119468 -157.34842 
L 223.391925 -157.966222 
L 224.664382 -158.552786 
L 225.936839 -159.137745 
L 227.209297 -159.751919 
L 228.481754 -160.409254 
L 229.754211 -161.016895 
L 231.026668 -161.608931 
L 232.299125 -162.203164 
L 233.571583 -162.827415 
L 234.84404 -163.385169 
L 236.116497 -163.908494 
L 237.388954 -164.452183 
L 238.661411 -165.063275 
L 239.933869 -165.664275 
L 241.206326 -166.263015 
L 242.478783 -166.793433 
L 243.75124 -167.46354 
L 245.023697 -167.926715 
L 246.296155 -168.38336 
L 247.568612 -168.983154 
L 248.841069 -169.552716 
L 250.113526 -170.153726 
L 251.385984 -170.694839 
L 252.658441 -171.223022 
L 253.930898 -171.669637 
L 255.203355 -172.22837 
L 256.475812 -172.661043 
L 257.74827 -173.114134 
L 257.74827 -183.102493 
L 257.74827 -183.102493 
L 256.475812 -182.433503 
L 255.203355 -181.764273 
L 253.930898 -181.094703 
L 252.658441 -180.423598 
L 251.385984 -179.740144 
L 250.113526 -179.056691 
L 248.841069 -178.392935 
L 247.568612 -177.748835 
L 246.296155 -177.093708 
L 245.023697 -176.516119 
L 243.75124 -176.038236 
L 242.478783 -175.402278 
L 241.206326 -174.897845 
L 239.933869 -174.531115 
L 238.661411 -174.110529 
L 237.388954 -173.723492 
L 236.116497 -173.441802 
L 234.84404 -173.060435 
L 233.571583 -173.001602 
L 232.299125 -172.739555 
L 231.026668 -172.491963 
L 229.754211 -172.012284 
L 228.481754 -171.754066 
L 227.209297 -171.621924 
L 225.936839 -171.487943 
L 224.664382 -171.353963 
L 223.391925 -171.224437 
L 222.119468 -171.092798 
L 220.84701 -170.959179 
L 219.574553 -170.825189 
L 218.302096 -170.691199 
L 217.029639 -170.557209 
L 215.757182 -170.420913 
L 214.484724 -170.288201 
L 213.212267 -170.155239 
L 211.93981 -170.021249 
L 210.667353 -169.867308 
L 209.394896 -169.714064 
L 208.122438 -169.551541 
L 206.849981 -169.388954 
L 205.577524 -169.223943 
L 204.305067 -169.06041 
L 203.032609 -168.859452 
L 201.760152 -168.621556 
L 200.487695 -168.385392 
L 199.215238 -168.162817 
L 197.942781 -167.9651 
L 196.670323 -167.76233 
L 195.397866 -167.516832 
L 194.125409 -167.271015 
L 192.852952 -167.024977 
L 191.580495 -166.778938 
L 190.308037 -166.544993 
L 189.03558 -166.313876 
L 187.763123 -166.082758 
L 186.490666 -165.85164 
L 185.218209 -165.620523 
L 183.945751 -165.389405 
L 182.673294 -165.205719 
L 181.400837 -165.03044 
L 180.12838 -164.855162 
L 178.855922 -164.679883 
L 177.583465 -164.504605 
L 176.311008 -164.329326 
L 175.038551 -164.154047 
L 173.766094 -163.978769 
L 172.493636 -163.80349 
L 171.221179 -163.628211 
L 169.948722 -163.452933 
L 168.676265 -163.277654 
L 167.403808 -163.102376 
L 166.13135 -162.927097 
L 164.858893 -162.751818 
L 163.586436 -162.57654 
L 162.313979 -162.401261 
L 161.041522 -162.225982 
L 159.769064 -162.050704 
L 158.496607 -161.875425 
L 157.22415 -161.700147 
L 155.951693 -161.524868 
L 154.679235 -161.349589 
L 153.406778 -161.174311 
L 152.134321 -160.999032 
L 150.861864 -160.823753 
L 149.589407 -160.648475 
L 148.316949 -160.473196 
L 147.044492 -160.297918 
L 145.772035 -160.122639 
L 144.499578 -159.94736 
L 143.227121 -159.772082 
L 141.954663 -159.596803 
L 140.682206 -159.421524 
L 139.409749 -159.246246 
L 138.137292 -159.070967 
L 136.864834 -158.895689 
L 135.592377 -158.72041 
L 134.31992 -158.545131 
L 133.047463 -158.369853 
L 131.775006 -158.194574 
z
" style="stroke: #ffffff; stroke-opacity: 0.15"/>
    </defs>
    <g clip-path="url(#p7bcd55b992)">
     <use xlink:href="#m9e29296f36" x="0" y="216" style="fill: #fc8d62; fill-opacity: 0.15; stroke: #ffffff; stroke-opacity: 0.15"/>
    </g>
   </g>
   <g id="line2d_12">
    <path d="M 79.903662 89.432362 
L 81.700072 89.235024 
L 83.496482 89.037686 
L 85.292892 88.840348 
L 87.089302 88.64301 
L 88.885713 88.445672 
L 90.682123 88.248334 
L 92.478533 88.050996 
L 94.274943 87.853658 
L 96.071353 87.65632 
L 97.867763 87.458982 
L 99.664174 87.261644 
L 101.460584 87.064306 
L 103.256994 86.866968 
L 105.053404 86.66963 
L 106.849814 86.472292 
L 108.646225 86.274954 
L 110.442635 86.077617 
L 112.239045 85.880279 
L 114.035455 85.682941 
L 115.831865 85.485603 
L 117.628275 85.288265 
L 119.424686 85.090927 
L 121.221096 84.893589 
L 123.017506 84.696251 
L 124.813916 84.498913 
L 126.610326 84.301575 
L 128.406737 84.104237 
L 130.203147 83.906899 
L 131.999557 83.709561 
L 133.795967 83.512223 
L 135.592377 83.314885 
L 137.388787 83.117547 
L 139.185198 82.920209 
L 140.981608 82.722871 
L 142.778018 82.525533 
L 144.574428 82.328195 
L 146.370838 82.130857 
L 148.167249 81.933519 
L 149.963659 81.736181 
L 151.760069 81.538843 
L 153.556479 81.341505 
L 155.352889 81.144167 
L 157.149299 80.946829 
L 158.94571 80.749492 
L 160.74212 80.552154 
L 162.53853 80.354816 
L 164.33494 80.157478 
L 166.13135 79.96014 
L 167.927761 79.762802 
L 169.724171 79.565464 
L 171.520581 79.368126 
L 173.316991 79.170788 
L 175.113401 78.97345 
L 176.909811 78.776112 
L 178.706222 78.578774 
L 180.502632 78.381436 
L 182.299042 78.184098 
L 184.095452 77.98676 
L 185.891862 77.789422 
L 187.688273 77.592084 
L 189.484683 77.394746 
L 191.281093 77.197408 
L 193.077503 77.00007 
L 194.873913 76.802732 
L 196.670323 76.605394 
L 198.466734 76.408056 
L 200.263144 76.210718 
L 202.059554 76.01338 
L 203.855964 75.816042 
L 205.652374 75.618705 
L 207.448785 75.421367 
L 209.245195 75.224029 
L 211.041605 75.026691 
L 212.838015 74.829353 
L 214.634425 74.632015 
L 216.430835 74.434677 
L 218.227246 74.237339 
L 220.023656 74.040001 
L 221.820066 73.842663 
L 223.616476 73.645325 
L 225.412886 73.447987 
L 227.209297 73.250649 
L 229.005707 73.053311 
L 230.802117 72.855973 
L 232.598527 72.658635 
L 234.394937 72.461297 
L 236.191347 72.263959 
L 237.987758 72.066621 
L 239.784168 71.869283 
L 241.580578 71.671945 
L 243.376988 71.474607 
L 245.173398 71.277269 
L 246.969809 71.079931 
L 248.766219 70.882593 
L 250.562629 70.685255 
L 252.359039 70.487917 
L 254.155449 70.29058 
L 255.951859 70.093242 
L 257.74827 69.895904 
" clip-path="url(#p7bcd55b992)" style="fill: none; stroke: #66c2a5; stroke-width: 2.25; stroke-linecap: round"/>
   </g>
   <g id="line2d_13">
    <path d="M 131.775006 95.647595 
L 133.047463 95.066433 
L 134.31992 94.48527 
L 135.592377 93.904108 
L 136.864834 93.322945 
L 138.137292 92.741783 
L 139.409749 92.160621 
L 140.682206 91.579458 
L 141.954663 90.998296 
L 143.227121 90.417133 
L 144.499578 89.835971 
L 145.772035 89.254809 
L 147.044492 88.673646 
L 148.316949 88.092484 
L 149.589407 87.511321 
L 150.861864 86.930159 
L 152.134321 86.348997 
L 153.406778 85.767834 
L 154.679235 85.186672 
L 155.951693 84.605509 
L 157.22415 84.024347 
L 158.496607 83.443185 
L 159.769064 82.862022 
L 161.041522 82.28086 
L 162.313979 81.699697 
L 163.586436 81.118535 
L 164.858893 80.537373 
L 166.13135 79.95621 
L 167.403808 79.375048 
L 168.676265 78.793885 
L 169.948722 78.212723 
L 171.221179 77.63156 
L 172.493636 77.050398 
L 173.766094 76.469236 
L 175.038551 75.888073 
L 176.311008 75.306911 
L 177.583465 74.725748 
L 178.855922 74.144586 
L 180.12838 73.563424 
L 181.400837 72.982261 
L 182.673294 72.401099 
L 183.945751 71.819936 
L 185.218209 71.238774 
L 186.490666 70.657612 
L 187.763123 70.076449 
L 189.03558 69.495287 
L 190.308037 68.914124 
L 191.580495 68.332962 
L 192.852952 67.7518 
L 194.125409 67.170637 
L 195.397866 66.589475 
L 196.670323 66.008312 
L 197.942781 65.42715 
L 199.215238 64.845988 
L 200.487695 64.264825 
L 201.760152 63.683663 
L 203.032609 63.1025 
L 204.305067 62.521338 
L 205.577524 61.940175 
L 206.849981 61.359013 
L 208.122438 60.777851 
L 209.394896 60.196688 
L 210.667353 59.615526 
L 211.93981 59.034363 
L 213.212267 58.453201 
L 214.484724 57.872039 
L 215.757182 57.290876 
L 217.029639 56.709714 
L 218.302096 56.128551 
L 219.574553 55.547389 
L 220.84701 54.966227 
L 222.119468 54.385064 
L 223.391925 53.803902 
L 224.664382 53.222739 
L 225.936839 52.641577 
L 227.209297 52.060415 
L 228.481754 51.479252 
L 229.754211 50.89809 
L 231.026668 50.316927 
L 232.299125 49.735765 
L 233.571583 49.154603 
L 234.84404 48.57344 
L 236.116497 47.992278 
L 237.388954 47.411115 
L 238.661411 46.829953 
L 239.933869 46.248791 
L 241.206326 45.667628 
L 242.478783 45.086466 
L 243.75124 44.505303 
L 245.023697 43.924141 
L 246.296155 43.342978 
L 247.568612 42.761816 
L 248.841069 42.180654 
L 250.113526 41.599491 
L 251.385984 41.018329 
L 252.658441 40.437166 
L 253.930898 39.856004 
L 255.203355 39.274842 
L 256.475812 38.693679 
L 257.74827 38.112517 
" clip-path="url(#p7bcd55b992)" style="fill: none; stroke: #fc8d62; stroke-width: 2.25; stroke-linecap: round"/>
   </g>
   <g id="patch_3">
    <path d="M 71.011431 165.78 
L 71.011431 12.96 
" style="fill: none; stroke: #262626; stroke-width: 1.25; stroke-linejoin: miter; stroke-linecap: square"/>
   </g>
   <g id="patch_4">
    <path d="M 88.795892 165.78 
L 257.74827 165.78 
" style="fill: none; stroke: #262626; stroke-width: 1.25; stroke-linejoin: miter; stroke-linecap: square"/>
   </g>
   <g id="PathCollection_1">
    <defs>
     <path id="m6d2962241f" d="M 0 2.738613 
C 0.726289 2.738613 1.422928 2.450055 1.936492 1.936492 
C 2.450055 1.422928 2.738613 0.726289 2.738613 0 
C 2.738613 -0.726289 2.450055 -1.422928 1.936492 -1.936492 
C 1.422928 -2.450055 0.726289 -2.738613 0 -2.738613 
C -0.726289 -2.738613 -1.422928 -2.450055 -1.936492 -1.936492 
C -2.450055 -1.422928 -2.738613 -0.726289 -2.738613 0 
C -2.738613 0.726289 -2.450055 1.422928 -1.936492 1.936492 
C -1.422928 2.450055 -0.726289 2.738613 0 2.738613 
z
" style="stroke: #ffffff; stroke-opacity: 0.8; stroke-width: 0.5"/>
    </defs>
    <g>
     <use xlink:href="#m6d2962241f" x="179.941254" y="108.539526" style="fill: #66c2a5; fill-opacity: 0.8; stroke: #ffffff; stroke-opacity: 0.8; stroke-width: 0.5"/>
     <use xlink:href="#m6d2962241f" x="79.903662" y="81.661974" style="fill: #66c2a5; fill-opacity: 0.8; stroke: #ffffff; stroke-opacity: 0.8; stroke-width: 0.5"/>
     <use xlink:href="#m6d2962241f" x="172.531062" y="102.149684" style="fill: #66c2a5; fill-opacity: 0.8; stroke: #ffffff; stroke-opacity: 0.8; stroke-width: 0.5"/>
     <use xlink:href="#m6d2962241f" x="257.74827" y="70.714342" style="fill: #66c2a5; fill-opacity: 0.8; stroke: #ffffff; stroke-opacity: 0.8; stroke-width: 0.5"/>
     <use xlink:href="#m6d2962241f" x="257.74827" y="53.622632" style="fill: #66c2a5; fill-opacity: 0.8; stroke: #ffffff; stroke-opacity: 0.8; stroke-width: 0.5"/>
     <use xlink:href="#m6d2962241f" x="257.74827" y="73.127289" style="fill: #66c2a5; fill-opacity: 0.8; stroke: #ffffff; stroke-opacity: 0.8; stroke-width: 0.5"/>
     <use xlink:href="#m6d2962241f" x="183.64635" y="97.301447" style="fill: #66c2a5; fill-opacity: 0.8; stroke: #ffffff; stroke-opacity: 0.8; stroke-width: 0.5"/>
     <use xlink:href="#m6d2962241f" x="257.74827" y="74.244395" style="fill: #66c2a5; fill-opacity: 0.8; stroke: #ffffff; stroke-opacity: 0.8; stroke-width: 0.5"/>
     <use xlink:href="#m6d2962241f" x="250.338078" y="60.839132" style="fill: #66c2a5; fill-opacity: 0.8; stroke: #ffffff; stroke-opacity: 0.8; stroke-width: 0.5"/>
     <use xlink:href="#m6d2962241f" x="91.01895" y="65.151158" style="fill: #66c2a5; fill-opacity: 0.8; stroke: #ffffff; stroke-opacity: 0.8; stroke-width: 0.5"/>
     <use xlink:href="#m6d2962241f" x="235.517694" y="52.974711" style="fill: #66c2a5; fill-opacity: 0.8; stroke: #ffffff; stroke-opacity: 0.8; stroke-width: 0.5"/>
     <use xlink:href="#m6d2962241f" x="257.74827" y="76.970132" style="fill: #66c2a5; fill-opacity: 0.8; stroke: #ffffff; stroke-opacity: 0.8; stroke-width: 0.5"/>
     <use xlink:href="#m6d2962241f" x="257.74827" y="48.126474" style="fill: #66c2a5; fill-opacity: 0.8; stroke: #ffffff; stroke-opacity: 0.8; stroke-width: 0.5"/>
     <use xlink:href="#m6d2962241f" x="257.74827" y="79.360737" style="fill: #66c2a5; fill-opacity: 0.8; stroke: #ffffff; stroke-opacity: 0.8; stroke-width: 0.5"/>
     <use xlink:href="#m6d2962241f" x="246.632982" y="72.032526" style="fill: #66c2a5; fill-opacity: 0.8; stroke: #ffffff; stroke-opacity: 0.8; stroke-width: 0.5"/>
    </g>
   </g>
   <g id="PathCollection_2">
    <defs>
     <path id="maeb508e7fe" d="M 0 2.738613 
C 0.726289 2.738613 1.422928 2.450055 1.936492 1.936492 
C 2.450055 1.422928 2.738613 0.726289 2.738613 0 
C 2.738613 -0.726289 2.450055 -1.422928 1.936492 -1.936492 
C 1.422928 -2.450055 0.726289 -2.738613 0 -2.738613 
C -0.726289 -2.738613 -1.422928 -2.450055 -1.936492 -1.936492 
C -2.450055 -1.422928 -2.738613 -0.726289 -2.738613 0 
C -2.738613 0.726289 -2.450055 1.422928 -1.936492 1.936492 
C -1.422928 2.450055 -0.726289 2.738613 0 2.738613 
z
" style="stroke: #ffffff; stroke-opacity: 0.8; stroke-width: 0.5"/>
    </defs>
    <g>
     <use xlink:href="#maeb508e7fe" x="257.74827" y="42.049421" style="fill: #fc8d62; fill-opacity: 0.8; stroke: #ffffff; stroke-opacity: 0.8; stroke-width: 0.5"/>
     <use xlink:href="#maeb508e7fe" x="257.74827" y="39.502421" style="fill: #fc8d62; fill-opacity: 0.8; stroke: #ffffff; stroke-opacity: 0.8; stroke-width: 0.5"/>
     <use xlink:href="#maeb508e7fe" x="257.74827" y="27.929211" style="fill: #fc8d62; fill-opacity: 0.8; stroke: #ffffff; stroke-opacity: 0.8; stroke-width: 0.5"/>
     <use xlink:href="#maeb508e7fe" x="131.775006" y="107.556474" style="fill: #fc8d62; fill-opacity: 0.8; stroke: #ffffff; stroke-opacity: 0.8; stroke-width: 0.5"/>
     <use xlink:href="#maeb508e7fe" x="220.69731" y="41.893026" style="fill: #fc8d62; fill-opacity: 0.8; stroke: #ffffff; stroke-opacity: 0.8; stroke-width: 0.5"/>
     <use xlink:href="#maeb508e7fe" x="254.043174" y="41.468526" style="fill: #fc8d62; fill-opacity: 0.8; stroke: #ffffff; stroke-opacity: 0.8; stroke-width: 0.5"/>
     <use xlink:href="#maeb508e7fe" x="146.59539" y="86.152737" style="fill: #fc8d62; fill-opacity: 0.8; stroke: #ffffff; stroke-opacity: 0.8; stroke-width: 0.5"/>
     <use xlink:href="#maeb508e7fe" x="254.043174" y="38.765132" style="fill: #fc8d62; fill-opacity: 0.8; stroke: #ffffff; stroke-opacity: 0.8; stroke-width: 0.5"/>
     <use xlink:href="#maeb508e7fe" x="202.17183" y="46.830632" style="fill: #fc8d62; fill-opacity: 0.8; stroke: #ffffff; stroke-opacity: 0.8; stroke-width: 0.5"/>
     <use xlink:href="#maeb508e7fe" x="179.941254" y="75.718974" style="fill: #fc8d62; fill-opacity: 0.8; stroke: #ffffff; stroke-opacity: 0.8; stroke-width: 0.5"/>
     <use xlink:href="#maeb508e7fe" x="257.74827" y="52.952368" style="fill: #fc8d62; fill-opacity: 0.8; stroke: #ffffff; stroke-opacity: 0.8; stroke-width: 0.5"/>
     <use xlink:href="#maeb508e7fe" x="254.043174" y="47.947737" style="fill: #fc8d62; fill-opacity: 0.8; stroke: #ffffff; stroke-opacity: 0.8; stroke-width: 0.5"/>
     <use xlink:href="#maeb508e7fe" x="246.632982" y="40.775921" style="fill: #fc8d62; fill-opacity: 0.8; stroke: #ffffff; stroke-opacity: 0.8; stroke-width: 0.5"/>
     <use xlink:href="#maeb508e7fe" x="246.632982" y="47.612605" style="fill: #fc8d62; fill-opacity: 0.8; stroke: #ffffff; stroke-opacity: 0.8; stroke-width: 0.5"/>
     <use xlink:href="#maeb508e7fe" x="257.74827" y="35.905342" style="fill: #fc8d62; fill-opacity: 0.8; stroke: #ffffff; stroke-opacity: 0.8; stroke-width: 0.5"/>
    </g>
   </g>
  </g>
  <g id="legend_1">
   <g id="text_14">
    <text style="fill: #262626; font: 12px 'Arial', 'DejaVu Sans', 'Liberation Sans', 'Bitstream Vera Sans', sans-serif; text-anchor: start" x="268.781875" y="95.165312" transform="rotate(-0 268.781875 95.165312)">multiplier</text>
   </g>
   <g id="PathCollection_3">
    <g>
     <use xlink:href="#m6d2962241f" x="284.269219" y="108.631719" style="fill: #66c2a5; fill-opacity: 0.8; stroke: #ffffff; stroke-opacity: 0.8; stroke-width: 0.5"/>
    </g>
   </g>
   <g id="text_15">
    <text style="fill: #262626; font: 11px 'Arial', 'DejaVu Sans', 'Liberation Sans', 'Bitstream Vera Sans', sans-serif; text-anchor: start" x="304.069219" y="111.519219" transform="rotate(-0 304.069219 111.519219)">1.5</text>
   </g>
   <g id="PathCollection_4">
    <g>
     <use xlink:href="#maeb508e7fe" x="284.269219" y="124.777656" style="fill: #fc8d62; fill-opacity: 0.8; stroke: #ffffff; stroke-opacity: 0.8; stroke-width: 0.5"/>
    </g>
   </g>
   <g id="text_16">
    <text style="fill: #262626; font: 11px 'Arial', 'DejaVu Sans', 'Liberation Sans', 'Bitstream Vera Sans', sans-serif; text-anchor: start" x="304.069219" y="127.665156" transform="rotate(-0 304.069219 127.665156)">2.5</text>
   </g>
  </g>
 </g>
 <defs>
  <clipPath id="p7bcd55b992">
   <rect x="71.011431" y="12.96" width="195.629069" height="152.82"/>
  </clipPath>
 </defs>
</svg>
