<?xml version="1.0" encoding="utf-8" standalone="no"?>
<!DOCTYPE svg PUBLIC "-//W3C//DTD SVG 1.1//EN"
  "http://www.w3.org/Graphics/SVG/1.1/DTD/svg11.dtd">
<svg xmlns:xlink="http://www.w3.org/1999/xlink" width="335.95pt" height="216pt" viewBox="0 0 335.95 216" xmlns="http://www.w3.org/2000/svg" version="1.1">
 <metadata>
  <rdf:RDF xmlns:dc="http://purl.org/dc/elements/1.1/" xmlns:cc="http://creativecommons.org/ns#" xmlns:rdf="http://www.w3.org/1999/02/22-rdf-syntax-ns#">
   <cc:Work>
    <dc:type rdf:resource="http://purl.org/dc/dcmitype/StillImage"/>
    <dc:date>2023-03-08T18:42:59.571898</dc:date>
    <dc:format>image/svg+xml</dc:format>
    <dc:creator>
     <cc:Agent>
      <dc:title>Matplotlib v3.7.0, https://matplotlib.org/</dc:title>
     </cc:Agent>
    </dc:creator>
   </cc:Work>
  </rdf:RDF>
 </metadata>
 <defs>
  <style type="text/css">*{stroke-linejoin: round; stroke-linecap: butt}</style>
 </defs>
 <g id="figure_1">
  <g id="patch_1">
   <path d="M 0 216 
L 335.95 216 
L 335.95 0 
L 0 0 
z
" style="fill: #ffffff"/>
  </g>
  <g id="axes_1">
   <g id="patch_2">
    <path d="M 71.011431 165.78 
L 266.6405 165.78 
L 266.6405 12.96 
L 71.011431 12.96 
z
" style="fill: #ffffff"/>
   </g>
   <g id="matplotlib.axis_1">
    <g id="xtick_1">
     <g id="line2d_1">
      <defs>
       <path id="md77a760eda" d="M 0 0 
L 0 6 
" style="stroke: #262626; stroke-width: 1.25"/>
      </defs>
      <g>
       <use xlink:href="#md77a760eda" x="79.903662" y="165.78" style="fill: #262626; stroke: #262626; stroke-width: 1.25"/>
      </g>
     </g>
     <g id="text_1">
      <text style="fill: #262626; font: 11px 'Arial', 'DejaVu Sans', 'Liberation Sans', 'Bitstream Vera Sans', sans-serif; text-anchor: middle" x="79.903662" y="183.638281" transform="rotate(-0 79.903662 183.638281)">0.00</text>
     </g>
    </g>
    <g id="xtick_2">
     <g id="line2d_2">
      <g>
       <use xlink:href="#md77a760eda" x="124.364814" y="165.78" style="fill: #262626; stroke: #262626; stroke-width: 1.25"/>
      </g>
     </g>
     <g id="text_2">
      <text style="fill: #262626; font: 11px 'Arial', 'DejaVu Sans', 'Liberation Sans', 'Bitstream Vera Sans', sans-serif; text-anchor: middle" x="124.364814" y="183.638281" transform="rotate(-0 124.364814 183.638281)">0.25</text>
     </g>
    </g>
    <g id="xtick_3">
     <g id="line2d_3">
      <g>
       <use xlink:href="#md77a760eda" x="168.825966" y="165.78" style="fill: #262626; stroke: #262626; stroke-width: 1.25"/>
      </g>
     </g>
     <g id="text_3">
      <text style="fill: #262626; font: 11px 'Arial', 'DejaVu Sans', 'Liberation Sans', 'Bitstream Vera Sans', sans-serif; text-anchor: middle" x="168.825966" y="183.638281" transform="rotate(-0 168.825966 183.638281)">0.50</text>
     </g>
    </g>
    <g id="xtick_4">
     <g id="line2d_4">
      <g>
       <use xlink:href="#md77a760eda" x="213.287118" y="165.78" style="fill: #262626; stroke: #262626; stroke-width: 1.25"/>
      </g>
     </g>
     <g id="text_4">
      <text style="fill: #262626; font: 11px 'Arial', 'DejaVu Sans', 'Liberation Sans', 'Bitstream Vera Sans', sans-serif; text-anchor: middle" x="213.287118" y="183.638281" transform="rotate(-0 213.287118 183.638281)">0.75</text>
     </g>
    </g>
    <g id="xtick_5">
     <g id="line2d_5">
      <g>
       <use xlink:href="#md77a760eda" x="257.74827" y="165.78" style="fill: #262626; stroke: #262626; stroke-width: 1.25"/>
      </g>
     </g>
     <g id="text_5">
      <text style="fill: #262626; font: 11px 'Arial', 'DejaVu Sans', 'Liberation Sans', 'Bitstream Vera Sans', sans-serif; text-anchor: middle" x="257.74827" y="183.638281" transform="rotate(-0 257.74827 183.638281)">1.00</text>
     </g>
    </g>
    <g id="text_6">
     <text style="fill: #262626; font: 12px 'Arial', 'DejaVu Sans', 'Liberation Sans', 'Bitstream Vera Sans', sans-serif; text-anchor: middle" x="168.825966" y="199.044062" transform="rotate(-0 168.825966 199.044062)">p(disclose)</text>
    </g>
   </g>
   <g id="matplotlib.axis_2">
    <g id="ytick_1">
     <g id="line2d_6">
      <defs>
       <path id="ma3a5a40965" d="M 0 0 
L -6 0 
" style="stroke: #262626; stroke-width: 1.25"/>
      </defs>
      <g>
       <use xlink:href="#ma3a5a40965" x="71.011431" y="165.78" style="fill: #262626; stroke: #262626; stroke-width: 1.25"/>
      </g>
     </g>
     <g id="text_7">
      <text style="fill: #262626; font: 11px 'Arial', 'DejaVu Sans', 'Liberation Sans', 'Bitstream Vera Sans', sans-serif; text-anchor: end" x="61.511431" y="169.959141" transform="rotate(-0 61.511431 169.959141)">0.0</text>
     </g>
    </g>
    <g id="ytick_2">
     <g id="line2d_7">
      <g>
       <use xlink:href="#ma3a5a40965" x="71.011431" y="135.216" style="fill: #262626; stroke: #262626; stroke-width: 1.25"/>
      </g>
     </g>
     <g id="text_8">
      <text style="fill: #262626; font: 11px 'Arial', 'DejaVu Sans', 'Liberation Sans', 'Bitstream Vera Sans', sans-serif; text-anchor: end" x="61.511431" y="139.395141" transform="rotate(-0 61.511431 139.395141)">0.2</text>
     </g>
    </g>
    <g id="ytick_3">
     <g id="line2d_8">
      <g>
       <use xlink:href="#ma3a5a40965" x="71.011431" y="104.652" style="fill: #262626; stroke: #262626; stroke-width: 1.25"/>
      </g>
     </g>
     <g id="text_9">
      <text style="fill: #262626; font: 11px 'Arial', 'DejaVu Sans', 'Liberation Sans', 'Bitstream Vera Sans', sans-serif; text-anchor: end" x="61.511431" y="108.831141" transform="rotate(-0 61.511431 108.831141)">0.4</text>
     </g>
    </g>
    <g id="ytick_4">
     <g id="line2d_9">
      <g>
       <use xlink:href="#ma3a5a40965" x="71.011431" y="74.088" style="fill: #262626; stroke: #262626; stroke-width: 1.25"/>
      </g>
     </g>
     <g id="text_10">
      <text style="fill: #262626; font: 11px 'Arial', 'DejaVu Sans', 'Liberation Sans', 'Bitstream Vera Sans', sans-serif; text-anchor: end" x="61.511431" y="78.267141" transform="rotate(-0 61.511431 78.267141)">0.6</text>
     </g>
    </g>
    <g id="ytick_5">
     <g id="line2d_10">
      <g>
       <use xlink:href="#ma3a5a40965" x="71.011431" y="43.524" style="fill: #262626; stroke: #262626; stroke-width: 1.25"/>
      </g>
     </g>
     <g id="text_11">
      <text style="fill: #262626; font: 11px 'Arial', 'DejaVu Sans', 'Liberation Sans', 'Bitstream Vera Sans', sans-serif; text-anchor: end" x="61.511431" y="47.703141" transform="rotate(-0 61.511431 47.703141)">0.8</text>
     </g>
    </g>
    <g id="ytick_6">
     <g id="line2d_11">
      <g>
       <use xlink:href="#ma3a5a40965" x="71.011431" y="12.96" style="fill: #262626; stroke: #262626; stroke-width: 1.25"/>
      </g>
     </g>
     <g id="text_12">
      <text style="fill: #262626; font: 11px 'Arial', 'DejaVu Sans', 'Liberation Sans', 'Bitstream Vera Sans', sans-serif; text-anchor: end" x="61.511431" y="17.139141" transform="rotate(-0 61.511431 17.139141)">1.0</text>
     </g>
    </g>
    <g id="text_13">
     <text style="fill: #262626; font: 12px 'Arial', 'DejaVu Sans', 'Liberation Sans', 'Bitstream Vera Sans', sans-serif; text-anchor: middle" x="37.522369" y="89.37" transform="rotate(-90 37.522369 89.37)">payoff</text>
    </g>
   </g>
   <g id="PolyCollection_1">
    <defs>
     <path id="ma4426d2014" d="M 79.903662 -153.244442 
L 79.903662 -131.961951 
L 81.700072 -132.207389 
L 83.496482 -132.452827 
L 85.292892 -132.698265 
L 87.089302 -132.943703 
L 88.885713 -133.189141 
L 90.682123 -133.434579 
L 92.478533 -133.680017 
L 94.274943 -133.92572 
L 96.071353 -134.171849 
L 97.867763 -134.417978 
L 99.664174 -134.664107 
L 101.460584 -134.910236 
L 103.256994 -135.156365 
L 105.053404 -135.402494 
L 106.849814 -135.648623 
L 108.646225 -135.894752 
L 110.442635 -136.140881 
L 112.239045 -136.386604 
L 114.035455 -136.629871 
L 115.831865 -136.852259 
L 117.628275 -137.074647 
L 119.424686 -137.297035 
L 121.221096 -137.519423 
L 123.017506 -137.741811 
L 124.813916 -137.95423 
L 126.610326 -138.166154 
L 128.406737 -138.409965 
L 130.203147 -138.632203 
L 131.999557 -138.902796 
L 133.795967 -139.154006 
L 135.592377 -139.405373 
L 137.388787 -139.656458 
L 139.185198 -139.915521 
L 140.981608 -140.156584 
L 142.778018 -140.405294 
L 144.574428 -140.654003 
L 146.370838 -140.903765 
L 148.167249 -141.108347 
L 149.963659 -141.276879 
L 151.760069 -141.446824 
L 153.556479 -141.617593 
L 155.352889 -141.873548 
L 157.149299 -142.157959 
L 158.94571 -142.393168 
L 160.74212 -142.57073 
L 162.53853 -142.803188 
L 164.33494 -143.051105 
L 166.13135 -143.212067 
L 167.927761 -143.424193 
L 169.724171 -143.63657 
L 171.520581 -143.893752 
L 173.316991 -144.106923 
L 175.113401 -144.264069 
L 176.909811 -144.480578 
L 178.706222 -144.650073 
L 180.502632 -144.859034 
L 182.299042 -145.082812 
L 184.095452 -145.304363 
L 185.891862 -145.501588 
L 187.688273 -145.632118 
L 189.484683 -145.817727 
L 191.281093 -145.994607 
L 193.077503 -146.106699 
L 194.873913 -146.290288 
L 196.670323 -146.463508 
L 198.466734 -146.559297 
L 200.263144 -146.571243 
L 202.059554 -146.678458 
L 203.855964 -146.793568 
L 205.652374 -146.888786 
L 207.448785 -147.007134 
L 209.245195 -147.126329 
L 211.041605 -147.247025 
L 212.838015 -147.363759 
L 214.634425 -147.415159 
L 216.430835 -147.457085 
L 218.227246 -147.516362 
L 220.023656 -147.609921 
L 221.820066 -147.76332 
L 223.616476 -147.843888 
L 225.412886 -147.834305 
L 227.209297 -147.823461 
L 229.005707 -147.869024 
L 230.802117 -147.936714 
L 232.598527 -147.905519 
L 234.394937 -147.915548 
L 236.191347 -147.890882 
L 237.987758 -147.928588 
L 239.784168 -147.891955 
L 241.580578 -147.845189 
L 243.376988 -147.886451 
L 245.173398 -147.940947 
L 246.969809 -147.995442 
L 248.766219 -148.051505 
L 250.562629 -148.123724 
L 252.359039 -148.242579 
L 254.155449 -148.285849 
L 255.951859 -148.321662 
L 257.74827 -148.32791 
L 257.74827 -159.180164 
L 257.74827 -159.180164 
L 255.951859 -159.007362 
L 254.155449 -158.855304 
L 252.359039 -158.703246 
L 250.562629 -158.492898 
L 248.766219 -158.245571 
L 246.969809 -157.987178 
L 245.173398 -157.735253 
L 243.376988 -157.540079 
L 241.580578 -157.335843 
L 239.784168 -157.155246 
L 237.987758 -156.963369 
L 236.191347 -156.796782 
L 234.394937 -156.600696 
L 232.598527 -156.412168 
L 230.802117 -156.226025 
L 229.005707 -156.088821 
L 227.209297 -155.891353 
L 225.412886 -155.684025 
L 223.616476 -155.471457 
L 221.820066 -155.257518 
L 220.023656 -155.167375 
L 218.227246 -155.042873 
L 216.430835 -154.934911 
L 214.634425 -154.732234 
L 212.838015 -154.58158 
L 211.041605 -154.481854 
L 209.245195 -154.401638 
L 207.448785 -154.31745 
L 205.652374 -154.186268 
L 203.855964 -154.036318 
L 202.059554 -153.863229 
L 200.263144 -153.713064 
L 198.466734 -153.603617 
L 196.670323 -153.516745 
L 194.873913 -153.495606 
L 193.077503 -153.431776 
L 191.281093 -153.380018 
L 189.484683 -153.285811 
L 187.688273 -153.18344 
L 185.891862 -153.104277 
L 184.095452 -153.007043 
L 182.299042 -152.919116 
L 180.502632 -152.854393 
L 178.706222 -152.791231 
L 176.909811 -152.732999 
L 175.113401 -152.737207 
L 173.316991 -152.68534 
L 171.520581 -152.696972 
L 169.724171 -152.669941 
L 167.927761 -152.630154 
L 166.13135 -152.606913 
L 164.33494 -152.54782 
L 162.53853 -152.57118 
L 160.74212 -152.612915 
L 158.94571 -152.513805 
L 157.149299 -152.422508 
L 155.352889 -152.470392 
L 153.556479 -152.49577 
L 151.760069 -152.504348 
L 149.963659 -152.492376 
L 148.167249 -152.469522 
L 146.370838 -152.441013 
L 144.574428 -152.425702 
L 142.778018 -152.423803 
L 140.981608 -152.443424 
L 139.185198 -152.450361 
L 137.388787 -152.485307 
L 135.592377 -152.50224 
L 133.795967 -152.521908 
L 131.999557 -152.541317 
L 130.203147 -152.538137 
L 128.406737 -152.570887 
L 126.610326 -152.598981 
L 124.813916 -152.618825 
L 123.017506 -152.627985 
L 121.221096 -152.653218 
L 119.424686 -152.677281 
L 117.628275 -152.697298 
L 115.831865 -152.717315 
L 114.035455 -152.737333 
L 112.239045 -152.75735 
L 110.442635 -152.776983 
L 108.646225 -152.796604 
L 106.849814 -152.816225 
L 105.053404 -152.835426 
L 103.256994 -152.855758 
L 101.460584 -152.905919 
L 99.664174 -152.949174 
L 97.867763 -152.955387 
L 96.071353 -152.961601 
L 94.274943 -152.967454 
L 92.478533 -152.973194 
L 90.682123 -152.992815 
L 88.885713 -153.031633 
L 87.089302 -153.074195 
L 85.292892 -153.116757 
L 83.496482 -153.159319 
L 81.700072 -153.20188 
L 79.903662 -153.244442 
z
" style="stroke: #ffffff; stroke-opacity: 0.15"/>
    </defs>
    <g clip-path="url(#p0d1173e775)">
     <use xlink:href="#ma4426d2014" x="0" y="216" style="fill: #66c2a5; fill-opacity: 0.15; stroke: #ffffff; stroke-opacity: 0.15"/>
    </g>
   </g>
   <g id="PolyCollection_2">
    <defs>
     <path id="m3cbdfeccbd" d="M 79.903662 -164.38674 
L 79.903662 -126.265099 
L 81.700072 -126.760781 
L 83.496482 -127.256558 
L 85.292892 -127.69469 
L 87.089302 -128.126228 
L 88.885713 -128.557766 
L 90.682123 -128.989304 
L 92.478533 -129.420842 
L 94.274943 -129.852379 
L 96.071353 -130.302239 
L 97.867763 -130.800275 
L 99.664174 -131.298311 
L 101.460584 -131.796347 
L 103.256994 -132.294383 
L 105.053404 -132.792418 
L 106.849814 -133.290454 
L 108.646225 -133.78849 
L 110.442635 -134.286526 
L 112.239045 -134.784562 
L 114.035455 -135.282598 
L 115.831865 -135.72621 
L 117.628275 -136.152516 
L 119.424686 -136.578823 
L 121.221096 -137.005129 
L 123.017506 -137.431822 
L 124.813916 -137.858685 
L 126.610326 -138.285548 
L 128.406737 -138.690181 
L 130.203147 -139.081273 
L 131.999557 -139.472364 
L 133.795967 -139.863456 
L 135.592377 -140.255283 
L 137.388787 -140.647671 
L 139.185198 -141.040059 
L 140.981608 -141.450748 
L 142.778018 -141.951796 
L 144.574428 -142.430313 
L 146.370838 -142.825718 
L 148.167249 -143.22214 
L 149.963659 -143.618561 
L 151.760069 -144.015721 
L 153.556479 -144.533453 
L 155.352889 -145.059552 
L 157.149299 -145.542487 
L 158.94571 -145.971274 
L 160.74212 -146.455714 
L 162.53853 -146.888148 
L 164.33494 -147.303 
L 166.13135 -147.844199 
L 167.927761 -148.40248 
L 169.724171 -148.960761 
L 171.520581 -149.519042 
L 173.316991 -150.077323 
L 175.113401 -150.593965 
L 176.909811 -151.042202 
L 178.706222 -151.423207 
L 180.502632 -151.812386 
L 182.299042 -152.201565 
L 184.095452 -152.687694 
L 185.891862 -153.248928 
L 187.688273 -153.577189 
L 189.484683 -153.87429 
L 191.281093 -154.182601 
L 193.077503 -154.657786 
L 194.873913 -154.89545 
L 196.670323 -155.279771 
L 198.466734 -155.600685 
L 200.263144 -156.065795 
L 202.059554 -156.293337 
L 203.855964 -156.626568 
L 205.652374 -157.015673 
L 207.448785 -157.238083 
L 209.245195 -157.640789 
L 211.041605 -157.968782 
L 212.838015 -158.364221 
L 214.634425 -158.660198 
L 216.430835 -158.855311 
L 218.227246 -159.06397 
L 220.023656 -159.084922 
L 221.820066 -159.266091 
L 223.616476 -159.542947 
L 225.412886 -159.688389 
L 227.209297 -159.849762 
L 229.005707 -160.005654 
L 230.802117 -160.109321 
L 232.598527 -160.23663 
L 234.394937 -160.327554 
L 236.191347 -160.387061 
L 237.987758 -160.443327 
L 239.784168 -160.52557 
L 241.580578 -160.554443 
L 243.376988 -160.72032 
L 245.173398 -160.89457 
L 246.969809 -161.051334 
L 248.766219 -161.112257 
L 250.562629 -161.168823 
L 252.359039 -161.177822 
L 254.155449 -161.310902 
L 255.951859 -161.465877 
L 257.74827 -161.473514 
L 257.74827 -175.490099 
L 257.74827 -175.490099 
L 255.951859 -175.129151 
L 254.155449 -174.831723 
L 252.359039 -174.368142 
L 250.562629 -173.952472 
L 248.766219 -173.588617 
L 246.969809 -173.229109 
L 245.173398 -172.922084 
L 243.376988 -172.708918 
L 241.580578 -172.498846 
L 239.784168 -172.2816 
L 237.987758 -171.96214 
L 236.191347 -171.640259 
L 234.394937 -171.360075 
L 232.598527 -171.173823 
L 230.802117 -170.975257 
L 229.005707 -170.777633 
L 227.209297 -170.579868 
L 225.412886 -170.333455 
L 223.616476 -170.18938 
L 221.820066 -170.084178 
L 220.023656 -169.898331 
L 218.227246 -169.75248 
L 216.430835 -169.526248 
L 214.634425 -169.376668 
L 212.838015 -169.314303 
L 211.041605 -169.163914 
L 209.245195 -169.074434 
L 207.448785 -168.979322 
L 205.652374 -168.924379 
L 203.855964 -168.865463 
L 202.059554 -168.796196 
L 200.263144 -168.604585 
L 198.466734 -168.521437 
L 196.670323 -168.465074 
L 194.873913 -168.408711 
L 193.077503 -168.345896 
L 191.281093 -168.254364 
L 189.484683 -168.045044 
L 187.688273 -167.89385 
L 185.891862 -167.812413 
L 184.095452 -167.622535 
L 182.299042 -167.596649 
L 180.502632 -167.557356 
L 178.706222 -167.41305 
L 176.909811 -167.291212 
L 175.113401 -167.162679 
L 173.316991 -167.056682 
L 171.520581 -167.01441 
L 169.724171 -166.905177 
L 167.927761 -166.852755 
L 166.13135 -166.837109 
L 164.33494 -166.82023 
L 162.53853 -166.790236 
L 160.74212 -166.700596 
L 158.94571 -166.610829 
L 157.149299 -166.520707 
L 155.352889 -166.430586 
L 153.556479 -166.340344 
L 151.760069 -166.248467 
L 149.963659 -166.155974 
L 148.167249 -166.06276 
L 146.370838 -165.98662 
L 144.574428 -165.938823 
L 142.778018 -165.880788 
L 140.981608 -165.853712 
L 139.185198 -165.788783 
L 137.388787 -165.680469 
L 135.592377 -165.647491 
L 133.795967 -165.646405 
L 131.999557 -165.570898 
L 130.203147 -165.500217 
L 128.406737 -165.390727 
L 126.610326 -165.300216 
L 124.813916 -165.210476 
L 123.017506 -165.16931 
L 121.221096 -165.088739 
L 119.424686 -165.092433 
L 117.628275 -165.075979 
L 115.831865 -164.987481 
L 114.035455 -164.89007 
L 112.239045 -164.794285 
L 110.442635 -164.72966 
L 108.646225 -164.643862 
L 106.849814 -164.574523 
L 105.053404 -164.562414 
L 103.256994 -164.548741 
L 101.460584 -164.562802 
L 99.664174 -164.593765 
L 97.867763 -164.60797 
L 96.071353 -164.619813 
L 94.274943 -164.630335 
L 92.478533 -164.566478 
L 90.682123 -164.497079 
L 88.885713 -164.444914 
L 87.089302 -164.374888 
L 85.292892 -164.304861 
L 83.496482 -164.331237 
L 81.700072 -164.388371 
L 79.903662 -164.38674 
z
" style="stroke: #ffffff; stroke-opacity: 0.15"/>
    </defs>
    <g clip-path="url(#p0d1173e775)">
     <use xlink:href="#m3cbdfeccbd" x="0" y="216" style="fill: #fc8d62; fill-opacity: 0.15; stroke: #ffffff; stroke-opacity: 0.15"/>
    </g>
   </g>
   <g id="line2d_12">
    <path d="M 79.903662 72.793352 
L 81.700072 72.686392 
L 83.496482 72.579433 
L 85.292892 72.472474 
L 87.089302 72.365514 
L 88.885713 72.258555 
L 90.682123 72.151596 
L 92.478533 72.044636 
L 94.274943 71.937677 
L 96.071353 71.830718 
L 97.867763 71.723758 
L 99.664174 71.616799 
L 101.460584 71.50984 
L 103.256994 71.40288 
L 105.053404 71.295921 
L 106.849814 71.188962 
L 108.646225 71.082002 
L 110.442635 70.975043 
L 112.239045 70.868084 
L 114.035455 70.761124 
L 115.831865 70.654165 
L 117.628275 70.547206 
L 119.424686 70.440246 
L 121.221096 70.333287 
L 123.017506 70.226328 
L 124.813916 70.119368 
L 126.610326 70.012409 
L 128.406737 69.90545 
L 130.203147 69.79849 
L 131.999557 69.691531 
L 133.795967 69.584572 
L 135.592377 69.477613 
L 137.388787 69.370653 
L 139.185198 69.263694 
L 140.981608 69.156735 
L 142.778018 69.049775 
L 144.574428 68.942816 
L 146.370838 68.835857 
L 148.167249 68.728897 
L 149.963659 68.621938 
L 151.760069 68.514979 
L 153.556479 68.408019 
L 155.352889 68.30106 
L 157.149299 68.194101 
L 158.94571 68.087141 
L 160.74212 67.980182 
L 162.53853 67.873223 
L 164.33494 67.766263 
L 166.13135 67.659304 
L 167.927761 67.552345 
L 169.724171 67.445385 
L 171.520581 67.338426 
L 173.316991 67.231467 
L 175.113401 67.124507 
L 176.909811 67.017548 
L 178.706222 66.910589 
L 180.502632 66.803629 
L 182.299042 66.69667 
L 184.095452 66.589711 
L 185.891862 66.482751 
L 187.688273 66.375792 
L 189.484683 66.268833 
L 191.281093 66.161873 
L 193.077503 66.054914 
L 194.873913 65.947955 
L 196.670323 65.840995 
L 198.466734 65.734036 
L 200.263144 65.627077 
L 202.059554 65.520117 
L 203.855964 65.413158 
L 205.652374 65.306199 
L 207.448785 65.199239 
L 209.245195 65.09228 
L 211.041605 64.985321 
L 212.838015 64.878361 
L 214.634425 64.771402 
L 216.430835 64.664443 
L 218.227246 64.557483 
L 220.023656 64.450524 
L 221.820066 64.343565 
L 223.616476 64.236605 
L 225.412886 64.129646 
L 227.209297 64.022687 
L 229.005707 63.915728 
L 230.802117 63.808768 
L 232.598527 63.701809 
L 234.394937 63.59485 
L 236.191347 63.48789 
L 237.987758 63.380931 
L 239.784168 63.273972 
L 241.580578 63.167012 
L 243.376988 63.060053 
L 245.173398 62.953094 
L 246.969809 62.846134 
L 248.766219 62.739175 
L 250.562629 62.632216 
L 252.359039 62.525256 
L 254.155449 62.418297 
L 255.951859 62.311338 
L 257.74827 62.204378 
" clip-path="url(#p0d1173e775)" style="fill: none; stroke: #66c2a5; stroke-width: 2.25; stroke-linecap: round"/>
   </g>
   <g id="line2d_13">
    <path d="M 79.903662 65.532264 
L 81.700072 65.348638 
L 83.496482 65.165011 
L 85.292892 64.981385 
L 87.089302 64.797758 
L 88.885713 64.614131 
L 90.682123 64.430505 
L 92.478533 64.246878 
L 94.274943 64.063252 
L 96.071353 63.879625 
L 97.867763 63.695998 
L 99.664174 63.512372 
L 101.460584 63.328745 
L 103.256994 63.145119 
L 105.053404 62.961492 
L 106.849814 62.777865 
L 108.646225 62.594239 
L 110.442635 62.410612 
L 112.239045 62.226986 
L 114.035455 62.043359 
L 115.831865 61.859732 
L 117.628275 61.676106 
L 119.424686 61.492479 
L 121.221096 61.308853 
L 123.017506 61.125226 
L 124.813916 60.941599 
L 126.610326 60.757973 
L 128.406737 60.574346 
L 130.203147 60.39072 
L 131.999557 60.207093 
L 133.795967 60.023466 
L 135.592377 59.83984 
L 137.388787 59.656213 
L 139.185198 59.472587 
L 140.981608 59.28896 
L 142.778018 59.105333 
L 144.574428 58.921707 
L 146.370838 58.73808 
L 148.167249 58.554453 
L 149.963659 58.370827 
L 151.760069 58.1872 
L 153.556479 58.003574 
L 155.352889 57.819947 
L 157.149299 57.63632 
L 158.94571 57.452694 
L 160.74212 57.269067 
L 162.53853 57.085441 
L 164.33494 56.901814 
L 166.13135 56.718187 
L 167.927761 56.534561 
L 169.724171 56.350934 
L 171.520581 56.167308 
L 173.316991 55.983681 
L 175.113401 55.800054 
L 176.909811 55.616428 
L 178.706222 55.432801 
L 180.502632 55.249175 
L 182.299042 55.065548 
L 184.095452 54.881921 
L 185.891862 54.698295 
L 187.688273 54.514668 
L 189.484683 54.331042 
L 191.281093 54.147415 
L 193.077503 53.963788 
L 194.873913 53.780162 
L 196.670323 53.596535 
L 198.466734 53.412909 
L 200.263144 53.229282 
L 202.059554 53.045655 
L 203.855964 52.862029 
L 205.652374 52.678402 
L 207.448785 52.494776 
L 209.245195 52.311149 
L 211.041605 52.127522 
L 212.838015 51.943896 
L 214.634425 51.760269 
L 216.430835 51.576643 
L 218.227246 51.393016 
L 220.023656 51.209389 
L 221.820066 51.025763 
L 223.616476 50.842136 
L 225.412886 50.65851 
L 227.209297 50.474883 
L 229.005707 50.291256 
L 230.802117 50.10763 
L 232.598527 49.924003 
L 234.394937 49.740377 
L 236.191347 49.55675 
L 237.987758 49.373123 
L 239.784168 49.189497 
L 241.580578 49.00587 
L 243.376988 48.822244 
L 245.173398 48.638617 
L 246.969809 48.45499 
L 248.766219 48.271364 
L 250.562629 48.087737 
L 252.359039 47.904111 
L 254.155449 47.720484 
L 255.951859 47.536857 
L 257.74827 47.353231 
" clip-path="url(#p0d1173e775)" style="fill: none; stroke: #fc8d62; stroke-width: 2.25; stroke-linecap: round"/>
   </g>
   <g id="patch_3">
    <path d="M 71.011431 165.78 
L 71.011431 12.96 
" style="fill: none; stroke: #262626; stroke-width: 1.25; stroke-linejoin: miter; stroke-linecap: square"/>
   </g>
   <g id="patch_4">
    <path d="M 79.903662 165.78 
L 257.74827 165.78 
" style="fill: none; stroke: #262626; stroke-width: 1.25; stroke-linejoin: miter; stroke-linecap: square"/>
   </g>
   <g id="PathCollection_1">
    <defs>
     <path id="mff2a95f76f" d="M 0 2.738613 
C 0.726289 2.738613 1.422928 2.450055 1.936492 1.936492 
C 2.450055 1.422928 2.738613 0.726289 2.738613 0 
C 2.738613 -0.726289 2.450055 -1.422928 1.936492 -1.936492 
C 1.422928 -2.450055 0.726289 -2.738613 0 -2.738613 
C -0.726289 -2.738613 -1.422928 -2.450055 -1.936492 -1.936492 
C -2.450055 -1.422928 -2.738613 -0.726289 -2.738613 0 
C -2.738613 0.726289 -2.450055 1.422928 -1.936492 1.936492 
C -1.422928 2.450055 -0.726289 2.738613 0 2.738613 
z
" style="stroke: #ffffff; stroke-opacity: 0.8; stroke-width: 0.5"/>
    </defs>
    <g>
     <use xlink:href="#mff2a95f76f" x="133.257044" y="65.98005" style="fill: #66c2a5; fill-opacity: 0.8; stroke: #ffffff; stroke-opacity: 0.8; stroke-width: 0.5"/>
     <use xlink:href="#mff2a95f76f" x="245.891962" y="51.8442" style="fill: #66c2a5; fill-opacity: 0.8; stroke: #ffffff; stroke-opacity: 0.8; stroke-width: 0.5"/>
     <use xlink:href="#mff2a95f76f" x="201.43081" y="60.80115" style="fill: #66c2a5; fill-opacity: 0.8; stroke: #ffffff; stroke-opacity: 0.8; stroke-width: 0.5"/>
     <use xlink:href="#mff2a95f76f" x="91.759969" y="83.21475" style="fill: #66c2a5; fill-opacity: 0.8; stroke: #ffffff; stroke-opacity: 0.8; stroke-width: 0.5"/>
     <use xlink:href="#mff2a95f76f" x="115.472583" y="78.5877" style="fill: #66c2a5; fill-opacity: 0.8; stroke: #ffffff; stroke-opacity: 0.8; stroke-width: 0.5"/>
     <use xlink:href="#mff2a95f76f" x="251.820116" y="63.77265" style="fill: #66c2a5; fill-opacity: 0.8; stroke: #ffffff; stroke-opacity: 0.8; stroke-width: 0.5"/>
     <use xlink:href="#mff2a95f76f" x="183.64635" y="71.24385" style="fill: #66c2a5; fill-opacity: 0.8; stroke: #ffffff; stroke-opacity: 0.8; stroke-width: 0.5"/>
     <use xlink:href="#mff2a95f76f" x="225.143425" y="78.5877" style="fill: #66c2a5; fill-opacity: 0.8; stroke: #ffffff; stroke-opacity: 0.8; stroke-width: 0.5"/>
     <use xlink:href="#mff2a95f76f" x="239.963809" y="76.3803" style="fill: #66c2a5; fill-opacity: 0.8; stroke: #ffffff; stroke-opacity: 0.8; stroke-width: 0.5"/>
     <use xlink:href="#mff2a95f76f" x="189.574503" y="68.95155" style="fill: #66c2a5; fill-opacity: 0.8; stroke: #ffffff; stroke-opacity: 0.8; stroke-width: 0.5"/>
     <use xlink:href="#mff2a95f76f" x="162.897812" y="76.0407" style="fill: #66c2a5; fill-opacity: 0.8; stroke: #ffffff; stroke-opacity: 0.8; stroke-width: 0.5"/>
     <use xlink:href="#mff2a95f76f" x="257.74827" y="46.071" style="fill: #66c2a5; fill-opacity: 0.8; stroke: #ffffff; stroke-opacity: 0.8; stroke-width: 0.5"/>
     <use xlink:href="#mff2a95f76f" x="234.035655" y="56.8533" style="fill: #66c2a5; fill-opacity: 0.8; stroke: #ffffff; stroke-opacity: 0.8; stroke-width: 0.5"/>
     <use xlink:href="#mff2a95f76f" x="133.257044" y="76.59255" style="fill: #66c2a5; fill-opacity: 0.8; stroke: #ffffff; stroke-opacity: 0.8; stroke-width: 0.5"/>
     <use xlink:href="#mff2a95f76f" x="159.933735" y="74.89455" style="fill: #66c2a5; fill-opacity: 0.8; stroke: #ffffff; stroke-opacity: 0.8; stroke-width: 0.5"/>
     <use xlink:href="#mff2a95f76f" x="257.74827" y="47.5992" style="fill: #66c2a5; fill-opacity: 0.8; stroke: #ffffff; stroke-opacity: 0.8; stroke-width: 0.5"/>
     <use xlink:href="#mff2a95f76f" x="94.724046" y="63.2208" style="fill: #66c2a5; fill-opacity: 0.8; stroke: #ffffff; stroke-opacity: 0.8; stroke-width: 0.5"/>
     <use xlink:href="#mff2a95f76f" x="79.903662" y="46.071" style="fill: #66c2a5; fill-opacity: 0.8; stroke: #ffffff; stroke-opacity: 0.8; stroke-width: 0.5"/>
     <use xlink:href="#mff2a95f76f" x="231.071578" y="63.00855" style="fill: #66c2a5; fill-opacity: 0.8; stroke: #ffffff; stroke-opacity: 0.8; stroke-width: 0.5"/>
     <use xlink:href="#mff2a95f76f" x="180.682273" y="56.98065" style="fill: #66c2a5; fill-opacity: 0.8; stroke: #ffffff; stroke-opacity: 0.8; stroke-width: 0.5"/>
     <use xlink:href="#mff2a95f76f" x="257.74827" y="59.9946" style="fill: #66c2a5; fill-opacity: 0.8; stroke: #ffffff; stroke-opacity: 0.8; stroke-width: 0.5"/>
     <use xlink:href="#mff2a95f76f" x="248.856039" y="69.4185" style="fill: #66c2a5; fill-opacity: 0.8; stroke: #ffffff; stroke-opacity: 0.8; stroke-width: 0.5"/>
     <use xlink:href="#mff2a95f76f" x="91.759969" y="87.37485" style="fill: #66c2a5; fill-opacity: 0.8; stroke: #ffffff; stroke-opacity: 0.8; stroke-width: 0.5"/>
     <use xlink:href="#mff2a95f76f" x="254.784193" y="66.1923" style="fill: #66c2a5; fill-opacity: 0.8; stroke: #ffffff; stroke-opacity: 0.8; stroke-width: 0.5"/>
     <use xlink:href="#mff2a95f76f" x="94.724046" y="62.0322" style="fill: #66c2a5; fill-opacity: 0.8; stroke: #ffffff; stroke-opacity: 0.8; stroke-width: 0.5"/>
     <use xlink:href="#mff2a95f76f" x="177.718196" y="64.5792" style="fill: #66c2a5; fill-opacity: 0.8; stroke: #ffffff; stroke-opacity: 0.8; stroke-width: 0.5"/>
     <use xlink:href="#mff2a95f76f" x="216.251194" y="79.73385" style="fill: #66c2a5; fill-opacity: 0.8; stroke: #ffffff; stroke-opacity: 0.8; stroke-width: 0.5"/>
     <use xlink:href="#mff2a95f76f" x="257.74827" y="61.65015" style="fill: #66c2a5; fill-opacity: 0.8; stroke: #ffffff; stroke-opacity: 0.8; stroke-width: 0.5"/>
    </g>
   </g>
   <g id="PathCollection_2">
    <defs>
     <path id="mfc0f7db0f9" d="M 0 2.738613 
C 0.726289 2.738613 1.422928 2.450055 1.936492 1.936492 
C 2.450055 1.422928 2.738613 0.726289 2.738613 0 
C 2.738613 -0.726289 2.450055 -1.422928 1.936492 -1.936492 
C 1.422928 -2.450055 0.726289 -2.738613 0 -2.738613 
C -0.726289 -2.738613 -1.422928 -2.450055 -1.936492 -1.936492 
C -2.450055 -1.422928 -2.738613 -0.726289 -2.738613 0 
C -2.738613 0.726289 -2.450055 1.422928 -1.936492 1.936492 
C -1.422928 2.450055 -0.726289 2.738613 0 2.738613 
z
" style="stroke: #ffffff; stroke-opacity: 0.8; stroke-width: 0.5"/>
    </defs>
    <g>
     <use xlink:href="#mfc0f7db0f9" x="248.856039" y="33.2511" style="fill: #fc8d62; fill-opacity: 0.8; stroke: #ffffff; stroke-opacity: 0.8; stroke-width: 0.5"/>
     <use xlink:href="#mfc0f7db0f9" x="236.999732" y="35.5434" style="fill: #fc8d62; fill-opacity: 0.8; stroke: #ffffff; stroke-opacity: 0.8; stroke-width: 0.5"/>
     <use xlink:href="#mfc0f7db0f9" x="257.74827" y="32.0625" style="fill: #fc8d62; fill-opacity: 0.8; stroke: #ffffff; stroke-opacity: 0.8; stroke-width: 0.5"/>
     <use xlink:href="#mfc0f7db0f9" x="159.933735" y="88.56345" style="fill: #fc8d62; fill-opacity: 0.8; stroke: #ffffff; stroke-opacity: 0.8; stroke-width: 0.5"/>
     <use xlink:href="#mfc0f7db0f9" x="79.903662" y="40.93455" style="fill: #fc8d62; fill-opacity: 0.8; stroke: #ffffff; stroke-opacity: 0.8; stroke-width: 0.5"/>
     <use xlink:href="#mfc0f7db0f9" x="210.323041" y="74.89455" style="fill: #fc8d62; fill-opacity: 0.8; stroke: #ffffff; stroke-opacity: 0.8; stroke-width: 0.5"/>
     <use xlink:href="#mfc0f7db0f9" x="79.903662" y="71.1165" style="fill: #fc8d62; fill-opacity: 0.8; stroke: #ffffff; stroke-opacity: 0.8; stroke-width: 0.5"/>
     <use xlink:href="#mfc0f7db0f9" x="251.820116" y="58.9758" style="fill: #fc8d62; fill-opacity: 0.8; stroke: #ffffff; stroke-opacity: 0.8; stroke-width: 0.5"/>
     <use xlink:href="#mfc0f7db0f9" x="148.077428" y="63.1359" style="fill: #fc8d62; fill-opacity: 0.8; stroke: #ffffff; stroke-opacity: 0.8; stroke-width: 0.5"/>
     <use xlink:href="#mfc0f7db0f9" x="257.74827" y="38.43" style="fill: #fc8d62; fill-opacity: 0.8; stroke: #ffffff; stroke-opacity: 0.8; stroke-width: 0.5"/>
     <use xlink:href="#mfc0f7db0f9" x="130.292967" y="77.8236" style="fill: #fc8d62; fill-opacity: 0.8; stroke: #ffffff; stroke-opacity: 0.8; stroke-width: 0.5"/>
     <use xlink:href="#mfc0f7db0f9" x="192.53858" y="57.2778" style="fill: #fc8d62; fill-opacity: 0.8; stroke: #ffffff; stroke-opacity: 0.8; stroke-width: 0.5"/>
     <use xlink:href="#mfc0f7db0f9" x="225.143425" y="62.7963" style="fill: #fc8d62; fill-opacity: 0.8; stroke: #ffffff; stroke-opacity: 0.8; stroke-width: 0.5"/>
     <use xlink:href="#mfc0f7db0f9" x="257.74827" y="36.94425" style="fill: #fc8d62; fill-opacity: 0.8; stroke: #ffffff; stroke-opacity: 0.8; stroke-width: 0.5"/>
     <use xlink:href="#mfc0f7db0f9" x="251.820116" y="48.06615" style="fill: #fc8d62; fill-opacity: 0.8; stroke: #ffffff; stroke-opacity: 0.8; stroke-width: 0.5"/>
     <use xlink:href="#mfc0f7db0f9" x="219.215271" y="64.79145" style="fill: #fc8d62; fill-opacity: 0.8; stroke: #ffffff; stroke-opacity: 0.8; stroke-width: 0.5"/>
     <use xlink:href="#mfc0f7db0f9" x="79.903662" y="42.2505" style="fill: #fc8d62; fill-opacity: 0.8; stroke: #ffffff; stroke-opacity: 0.8; stroke-width: 0.5"/>
     <use xlink:href="#mfc0f7db0f9" x="257.74827" y="33.97275" style="fill: #fc8d62; fill-opacity: 0.8; stroke: #ffffff; stroke-opacity: 0.8; stroke-width: 0.5"/>
     <use xlink:href="#mfc0f7db0f9" x="210.323041" y="34.6095" style="fill: #fc8d62; fill-opacity: 0.8; stroke: #ffffff; stroke-opacity: 0.8; stroke-width: 0.5"/>
     <use xlink:href="#mfc0f7db0f9" x="257.74827" y="42.675" style="fill: #fc8d62; fill-opacity: 0.8; stroke: #ffffff; stroke-opacity: 0.8; stroke-width: 0.5"/>
     <use xlink:href="#mfc0f7db0f9" x="234.035655" y="48.91515" style="fill: #fc8d62; fill-opacity: 0.8; stroke: #ffffff; stroke-opacity: 0.8; stroke-width: 0.5"/>
     <use xlink:href="#mfc0f7db0f9" x="257.74827" y="32.0625" style="fill: #fc8d62; fill-opacity: 0.8; stroke: #ffffff; stroke-opacity: 0.8; stroke-width: 0.5"/>
     <use xlink:href="#mfc0f7db0f9" x="201.43081" y="67.42335" style="fill: #fc8d62; fill-opacity: 0.8; stroke: #ffffff; stroke-opacity: 0.8; stroke-width: 0.5"/>
     <use xlink:href="#mfc0f7db0f9" x="257.74827" y="45.51915" style="fill: #fc8d62; fill-opacity: 0.8; stroke: #ffffff; stroke-opacity: 0.8; stroke-width: 0.5"/>
     <use xlink:href="#mfc0f7db0f9" x="216.251194" y="62.07465" style="fill: #fc8d62; fill-opacity: 0.8; stroke: #ffffff; stroke-opacity: 0.8; stroke-width: 0.5"/>
     <use xlink:href="#mfc0f7db0f9" x="162.897812" y="56.3439" style="fill: #fc8d62; fill-opacity: 0.8; stroke: #ffffff; stroke-opacity: 0.8; stroke-width: 0.5"/>
     <use xlink:href="#mfc0f7db0f9" x="254.784193" y="74.5125" style="fill: #fc8d62; fill-opacity: 0.8; stroke: #ffffff; stroke-opacity: 0.8; stroke-width: 0.5"/>
     <use xlink:href="#mfc0f7db0f9" x="189.574503" y="46.96245" style="fill: #fc8d62; fill-opacity: 0.8; stroke: #ffffff; stroke-opacity: 0.8; stroke-width: 0.5"/>
    </g>
   </g>
  </g>
  <g id="legend_1">
   <g id="text_14">
    <text style="fill: #262626; font: 12px 'Arial', 'DejaVu Sans', 'Liberation Sans', 'Bitstream Vera Sans', sans-serif; text-anchor: start" x="268.781875" y="95.165312" transform="rotate(-0 268.781875 95.165312)">multiplier</text>
   </g>
   <g id="PathCollection_3">
    <g>
     <use xlink:href="#mff2a95f76f" x="284.269219" y="108.631719" style="fill: #66c2a5; fill-opacity: 0.8; stroke: #ffffff; stroke-opacity: 0.8; stroke-width: 0.5"/>
    </g>
   </g>
   <g id="text_15">
    <text style="fill: #262626; font: 11px 'Arial', 'DejaVu Sans', 'Liberation Sans', 'Bitstream Vera Sans', sans-serif; text-anchor: start" x="304.069219" y="111.519219" transform="rotate(-0 304.069219 111.519219)">1.5</text>
   </g>
   <g id="PathCollection_4">
    <g>
     <use xlink:href="#mfc0f7db0f9" x="284.269219" y="124.777656" style="fill: #fc8d62; fill-opacity: 0.8; stroke: #ffffff; stroke-opacity: 0.8; stroke-width: 0.5"/>
    </g>
   </g>
   <g id="text_16">
    <text style="fill: #262626; font: 11px 'Arial', 'DejaVu Sans', 'Liberation Sans', 'Bitstream Vera Sans', sans-serif; text-anchor: start" x="304.069219" y="127.665156" transform="rotate(-0 304.069219 127.665156)">2.5</text>
   </g>
  </g>
 </g>
 <defs>
  <clipPath id="p0d1173e775">
   <rect x="71.011431" y="12.96" width="195.629069" height="152.82"/>
  </clipPath>
 </defs>
</svg>
