<?xml version="1.0" encoding="utf-8" standalone="no"?>
<!DOCTYPE svg PUBLIC "-//W3C//DTD SVG 1.1//EN"
  "http://www.w3.org/Graphics/SVG/1.1/DTD/svg11.dtd">
<svg xmlns:xlink="http://www.w3.org/1999/xlink" width="335.95pt" height="216pt" viewBox="0 0 335.95 216" xmlns="http://www.w3.org/2000/svg" version="1.1">
 <metadata>
  <rdf:RDF xmlns:dc="http://purl.org/dc/elements/1.1/" xmlns:cc="http://creativecommons.org/ns#" xmlns:rdf="http://www.w3.org/1999/02/22-rdf-syntax-ns#">
   <cc:Work>
    <dc:type rdf:resource="http://purl.org/dc/dcmitype/StillImage"/>
    <dc:date>2023-05-30T17:22:28.563933</dc:date>
    <dc:format>image/svg+xml</dc:format>
    <dc:creator>
     <cc:Agent>
      <dc:title>Matplotlib v3.7.0, https://matplotlib.org/</dc:title>
     </cc:Agent>
    </dc:creator>
   </cc:Work>
  </rdf:RDF>
 </metadata>
 <defs>
  <style type="text/css">*{stroke-linejoin: round; stroke-linecap: butt}</style>
 </defs>
 <g id="figure_1">
  <g id="patch_1">
   <path d="M 0 216 
L 335.95 216 
L 335.95 0 
L 0 0 
z
" style="fill: #ffffff"/>
  </g>
  <g id="axes_1">
   <g id="patch_2">
    <path d="M 79.634148 165.78 
L 266.6405 165.78 
L 266.6405 12.96 
L 79.634148 12.96 
z
" style="fill: #ffffff"/>
   </g>
   <g id="matplotlib.axis_1">
    <g id="xtick_1">
     <g id="line2d_1">
      <defs>
       <path id="ma743addeed" d="M 0 0 
L 0 6 
" style="stroke: #262626; stroke-width: 1.25"/>
      </defs>
      <g>
       <use xlink:href="#ma743addeed" x="88.134437" y="165.78" style="fill: #262626; stroke: #262626; stroke-width: 1.25"/>
      </g>
     </g>
     <g id="text_1">
      <text style="fill: #262626; font: 11px 'Arial', 'DejaVu Sans', 'Liberation Sans', 'Bitstream Vera Sans', sans-serif; text-anchor: middle" x="88.134437" y="183.638281" transform="rotate(-0 88.134437 183.638281)">0.00</text>
     </g>
    </g>
    <g id="xtick_2">
     <g id="line2d_2">
      <g>
       <use xlink:href="#ma743addeed" x="130.63588" y="165.78" style="fill: #262626; stroke: #262626; stroke-width: 1.25"/>
      </g>
     </g>
     <g id="text_2">
      <text style="fill: #262626; font: 11px 'Arial', 'DejaVu Sans', 'Liberation Sans', 'Bitstream Vera Sans', sans-serif; text-anchor: middle" x="130.63588" y="183.638281" transform="rotate(-0 130.63588 183.638281)">0.25</text>
     </g>
    </g>
    <g id="xtick_3">
     <g id="line2d_3">
      <g>
       <use xlink:href="#ma743addeed" x="173.137324" y="165.78" style="fill: #262626; stroke: #262626; stroke-width: 1.25"/>
      </g>
     </g>
     <g id="text_3">
      <text style="fill: #262626; font: 11px 'Arial', 'DejaVu Sans', 'Liberation Sans', 'Bitstream Vera Sans', sans-serif; text-anchor: middle" x="173.137324" y="183.638281" transform="rotate(-0 173.137324 183.638281)">0.50</text>
     </g>
    </g>
    <g id="xtick_4">
     <g id="line2d_4">
      <g>
       <use xlink:href="#ma743addeed" x="215.638768" y="165.78" style="fill: #262626; stroke: #262626; stroke-width: 1.25"/>
      </g>
     </g>
     <g id="text_4">
      <text style="fill: #262626; font: 11px 'Arial', 'DejaVu Sans', 'Liberation Sans', 'Bitstream Vera Sans', sans-serif; text-anchor: middle" x="215.638768" y="183.638281" transform="rotate(-0 215.638768 183.638281)">0.75</text>
     </g>
    </g>
    <g id="xtick_5">
     <g id="line2d_5">
      <g>
       <use xlink:href="#ma743addeed" x="258.140211" y="165.78" style="fill: #262626; stroke: #262626; stroke-width: 1.25"/>
      </g>
     </g>
     <g id="text_5">
      <text style="fill: #262626; font: 11px 'Arial', 'DejaVu Sans', 'Liberation Sans', 'Bitstream Vera Sans', sans-serif; text-anchor: middle" x="258.140211" y="183.638281" transform="rotate(-0 258.140211 183.638281)">1.00</text>
     </g>
    </g>
    <g id="text_6">
     <text style="fill: #262626; font: 12px 'Arial', 'DejaVu Sans', 'Liberation Sans', 'Bitstream Vera Sans', sans-serif; text-anchor: middle" x="173.137324" y="199.044062" transform="rotate(-0 173.137324 199.044062)">p(disclose)</text>
    </g>
   </g>
   <g id="matplotlib.axis_2">
    <g id="ytick_1">
     <g id="line2d_6">
      <defs>
       <path id="m5c6142920c" d="M 0 0 
L -6 0 
" style="stroke: #262626; stroke-width: 1.25"/>
      </defs>
      <g>
       <use xlink:href="#m5c6142920c" x="79.634148" y="165.78" style="fill: #262626; stroke: #262626; stroke-width: 1.25"/>
      </g>
     </g>
     <g id="text_7">
      <text style="fill: #262626; font: 11px 'Arial', 'DejaVu Sans', 'Liberation Sans', 'Bitstream Vera Sans', sans-serif; text-anchor: end" x="70.134148" y="169.959141" transform="rotate(-0 70.134148 169.959141)">0.0</text>
     </g>
    </g>
    <g id="ytick_2">
     <g id="line2d_7">
      <g>
       <use xlink:href="#m5c6142920c" x="79.634148" y="135.216" style="fill: #262626; stroke: #262626; stroke-width: 1.25"/>
      </g>
     </g>
     <g id="text_8">
      <text style="fill: #262626; font: 11px 'Arial', 'DejaVu Sans', 'Liberation Sans', 'Bitstream Vera Sans', sans-serif; text-anchor: end" x="70.134148" y="139.395141" transform="rotate(-0 70.134148 139.395141)">0.2</text>
     </g>
    </g>
    <g id="ytick_3">
     <g id="line2d_8">
      <g>
       <use xlink:href="#m5c6142920c" x="79.634148" y="104.652" style="fill: #262626; stroke: #262626; stroke-width: 1.25"/>
      </g>
     </g>
     <g id="text_9">
      <text style="fill: #262626; font: 11px 'Arial', 'DejaVu Sans', 'Liberation Sans', 'Bitstream Vera Sans', sans-serif; text-anchor: end" x="70.134148" y="108.831141" transform="rotate(-0 70.134148 108.831141)">0.4</text>
     </g>
    </g>
    <g id="ytick_4">
     <g id="line2d_9">
      <g>
       <use xlink:href="#m5c6142920c" x="79.634148" y="74.088" style="fill: #262626; stroke: #262626; stroke-width: 1.25"/>
      </g>
     </g>
     <g id="text_10">
      <text style="fill: #262626; font: 11px 'Arial', 'DejaVu Sans', 'Liberation Sans', 'Bitstream Vera Sans', sans-serif; text-anchor: end" x="70.134148" y="78.267141" transform="rotate(-0 70.134148 78.267141)">0.6</text>
     </g>
    </g>
    <g id="ytick_5">
     <g id="line2d_10">
      <g>
       <use xlink:href="#m5c6142920c" x="79.634148" y="43.524" style="fill: #262626; stroke: #262626; stroke-width: 1.25"/>
      </g>
     </g>
     <g id="text_11">
      <text style="fill: #262626; font: 11px 'Arial', 'DejaVu Sans', 'Liberation Sans', 'Bitstream Vera Sans', sans-serif; text-anchor: end" x="70.134148" y="47.703141" transform="rotate(-0 70.134148 47.703141)">0.8</text>
     </g>
    </g>
    <g id="ytick_6">
     <g id="line2d_11">
      <g>
       <use xlink:href="#m5c6142920c" x="79.634148" y="12.96" style="fill: #262626; stroke: #262626; stroke-width: 1.25"/>
      </g>
     </g>
     <g id="text_12">
      <text style="fill: #262626; font: 11px 'Arial', 'DejaVu Sans', 'Liberation Sans', 'Bitstream Vera Sans', sans-serif; text-anchor: end" x="70.134148" y="17.139141" transform="rotate(-0 70.134148 17.139141)">1.0</text>
     </g>
    </g>
    <g id="text_13">
     <text style="fill: #262626; font: 12px 'Arial', 'DejaVu Sans', 'Liberation Sans', 'Bitstream Vera Sans', sans-serif; text-anchor: middle" x="46.145085" y="89.37" transform="rotate(-90 46.145085 89.37)">payoff</text>
    </g>
   </g>
   <g id="PolyCollection_1">
    <defs>
     <path id="m21ab88848a" d="M 88.134437 -167.003748 
L 88.134437 -154.588887 
L 89.851667 -154.596812 
L 91.568897 -154.605754 
L 93.286127 -154.615186 
L 95.003357 -154.626298 
L 96.720587 -154.669421 
L 98.437817 -154.678782 
L 100.155047 -154.688143 
L 101.872277 -154.697504 
L 103.589507 -154.706865 
L 105.306737 -154.716226 
L 107.023967 -154.726127 
L 108.741197 -154.745098 
L 110.458427 -154.773594 
L 112.175657 -154.779535 
L 113.892887 -154.785475 
L 115.610117 -154.791416 
L 117.327347 -154.797357 
L 119.044577 -154.854322 
L 120.761808 -154.886163 
L 122.479038 -154.884256 
L 124.196268 -154.88235 
L 125.913498 -154.881058 
L 127.630728 -154.882433 
L 129.347958 -154.877105 
L 131.065188 -154.875072 
L 132.782418 -154.891849 
L 134.499648 -154.937407 
L 136.216878 -154.983621 
L 137.934108 -155.029979 
L 139.651338 -155.076337 
L 141.368568 -155.108581 
L 143.085798 -155.092693 
L 144.803028 -155.073412 
L 146.520258 -155.090758 
L 148.237488 -155.094681 
L 149.954718 -155.092024 
L 151.671948 -155.089367 
L 153.389178 -155.086157 
L 155.106408 -155.082811 
L 156.823639 -155.079132 
L 158.540869 -155.03775 
L 160.258099 -155.018595 
L 161.975329 -155.042319 
L 163.692559 -155.036432 
L 165.409789 -155.025792 
L 167.127019 -155.046267 
L 168.844249 -155.056696 
L 170.561479 -155.056953 
L 172.278709 -155.016485 
L 173.995939 -155.037964 
L 175.713169 -155.000927 
L 177.430399 -155.002559 
L 179.147629 -154.999297 
L 180.864859 -155.000319 
L 182.582089 -154.989535 
L 184.299319 -154.978752 
L 186.016549 -154.96556 
L 187.733779 -154.897334 
L 189.451009 -154.86979 
L 191.168239 -154.822666 
L 192.885469 -154.783137 
L 194.6027 -154.726635 
L 196.31993 -154.663531 
L 198.03716 -154.630011 
L 199.75439 -154.582389 
L 201.47162 -154.534086 
L 203.18885 -154.485871 
L 204.90608 -154.437539 
L 206.62331 -154.379081 
L 208.34054 -154.312353 
L 210.05777 -154.207208 
L 211.775 -154.132368 
L 213.49223 -153.998437 
L 215.20946 -153.876913 
L 216.92669 -153.787512 
L 218.64392 -153.702856 
L 220.36115 -153.589093 
L 222.07838 -153.473379 
L 223.79561 -153.402479 
L 225.51284 -153.35564 
L 227.23007 -153.267779 
L 228.9473 -153.181577 
L 230.664531 -153.094742 
L 232.381761 -153.02194 
L 234.098991 -152.930595 
L 235.816221 -152.818236 
L 237.533451 -152.69281 
L 239.250681 -152.573725 
L 240.967911 -152.44982 
L 242.685141 -152.332752 
L 244.402371 -152.190439 
L 246.119601 -152.051114 
L 247.836831 -151.94313 
L 249.554061 -151.821502 
L 251.271291 -151.735501 
L 252.988521 -151.621018 
L 254.705751 -151.522573 
L 256.422981 -151.393004 
L 258.140211 -151.267449 
L 258.140211 -159.033892 
L 258.140211 -159.033892 
L 256.422981 -159.017207 
L 254.705751 -159.018445 
L 252.988521 -159.035311 
L 251.271291 -159.052176 
L 249.554061 -159.068428 
L 247.836831 -159.04253 
L 246.119601 -159.042963 
L 244.402371 -159.06009 
L 242.685141 -159.053145 
L 240.967911 -159.040993 
L 239.250681 -159.028842 
L 237.533451 -159.036441 
L 235.816221 -159.077235 
L 234.098991 -159.123234 
L 232.381761 -159.174941 
L 230.664531 -159.166626 
L 228.9473 -159.161182 
L 227.23007 -159.20085 
L 225.51284 -159.161557 
L 223.79561 -159.176897 
L 222.07838 -159.186759 
L 220.36115 -159.148342 
L 218.64392 -159.161715 
L 216.92669 -159.205224 
L 215.20946 -159.249532 
L 213.49223 -159.322156 
L 211.775 -159.398678 
L 210.05777 -159.409914 
L 208.34054 -159.436594 
L 206.62331 -159.474867 
L 204.90608 -159.506939 
L 203.18885 -159.539292 
L 201.47162 -159.592122 
L 199.75439 -159.595475 
L 198.03716 -159.602268 
L 196.31993 -159.607213 
L 194.6027 -159.590235 
L 192.885469 -159.649964 
L 191.168239 -159.746972 
L 189.451009 -159.824755 
L 187.733779 -159.9419 
L 186.016549 -160.087503 
L 184.299319 -160.22911 
L 182.582089 -160.329232 
L 180.864859 -160.458968 
L 179.147629 -160.490833 
L 177.430399 -160.63357 
L 175.713169 -160.738047 
L 173.995939 -160.800663 
L 172.278709 -160.917458 
L 170.561479 -161.06818 
L 168.844249 -161.147008 
L 167.127019 -161.207769 
L 165.409789 -161.331706 
L 163.692559 -161.426395 
L 161.975329 -161.534208 
L 160.258099 -161.652999 
L 158.540869 -161.771789 
L 156.823639 -161.910451 
L 155.106408 -162.00937 
L 153.389178 -162.127192 
L 151.671948 -162.229721 
L 149.954718 -162.355278 
L 148.237488 -162.480835 
L 146.520258 -162.601473 
L 144.803028 -162.720285 
L 143.085798 -162.858196 
L 141.368568 -162.999132 
L 139.651338 -163.11743 
L 137.934108 -163.236936 
L 136.216878 -163.362649 
L 134.499648 -163.488271 
L 132.782418 -163.613092 
L 131.065188 -163.73894 
L 129.347958 -163.864279 
L 127.630728 -163.973514 
L 125.913498 -164.06658 
L 124.196268 -164.179459 
L 122.479038 -164.314137 
L 120.761808 -164.474844 
L 119.044577 -164.618666 
L 117.327347 -164.730967 
L 115.610117 -164.846926 
L 113.892887 -164.980161 
L 112.175657 -165.113396 
L 110.458427 -165.247255 
L 108.741197 -165.380976 
L 107.023967 -165.523244 
L 105.306737 -165.681477 
L 103.589507 -165.848279 
L 101.872277 -165.986721 
L 100.155047 -166.113974 
L 98.437817 -166.241226 
L 96.720587 -166.368478 
L 95.003357 -166.495649 
L 93.286127 -166.622674 
L 91.568897 -166.749699 
L 89.851667 -166.876723 
L 88.134437 -167.003748 
z
" style="stroke: #ffffff; stroke-opacity: 0.15"/>
    </defs>
    <g clip-path="url(#p47694811f8)">
     <use xlink:href="#m21ab88848a" x="0" y="216" style="fill: #66c2a5; fill-opacity: 0.15; stroke: #ffffff; stroke-opacity: 0.15"/>
    </g>
   </g>
   <g id="PolyCollection_2">
    <defs>
     <path id="m6988d6345b" d="M 88.134437 -165.509178 
L 88.134437 -150.283918 
L 89.851667 -150.471791 
L 91.568897 -150.659663 
L 93.286127 -150.847536 
L 95.003357 -151.035408 
L 96.720587 -151.223281 
L 98.437817 -151.411154 
L 100.155047 -151.599026 
L 101.872277 -151.786899 
L 103.589507 -151.961086 
L 105.306737 -152.130742 
L 107.023967 -152.308754 
L 108.741197 -152.500936 
L 110.458427 -152.693494 
L 112.175657 -152.886052 
L 113.892887 -153.07861 
L 115.610117 -153.255391 
L 117.327347 -153.427614 
L 119.044577 -153.615101 
L 120.761808 -153.808508 
L 122.479038 -154.001916 
L 124.196268 -154.195323 
L 125.913498 -154.386768 
L 127.630728 -154.543943 
L 129.347958 -154.731268 
L 131.065188 -154.918768 
L 132.782418 -155.106888 
L 134.499648 -155.295336 
L 136.216878 -155.483785 
L 137.934108 -155.672233 
L 139.651338 -155.840494 
L 141.368568 -156.014901 
L 143.085798 -156.196579 
L 144.803028 -156.351115 
L 146.520258 -156.505901 
L 148.237488 -156.681382 
L 149.954718 -156.864467 
L 151.671948 -157.047968 
L 153.389178 -157.231469 
L 155.106408 -157.415166 
L 156.823639 -157.607774 
L 158.540869 -157.800382 
L 160.258099 -157.99299 
L 161.975329 -158.185598 
L 163.692559 -158.365136 
L 165.409789 -158.569079 
L 167.127019 -158.740566 
L 168.844249 -158.912054 
L 170.561479 -159.083541 
L 172.278709 -159.255028 
L 173.995939 -159.430732 
L 175.713169 -159.613692 
L 177.430399 -159.796911 
L 179.147629 -159.980621 
L 180.864859 -160.181139 
L 182.582089 -160.346751 
L 184.299319 -160.529594 
L 186.016549 -160.676412 
L 187.733779 -160.795875 
L 189.451009 -160.965813 
L 191.168239 -161.087061 
L 192.885469 -161.21306 
L 194.6027 -161.385813 
L 196.31993 -161.484824 
L 198.03716 -161.581755 
L 199.75439 -161.724293 
L 201.47162 -161.888482 
L 203.18885 -162.009984 
L 204.90608 -162.101113 
L 206.62331 -162.225863 
L 208.34054 -162.322488 
L 210.05777 -162.435301 
L 211.775 -162.514923 
L 213.49223 -162.61363 
L 215.20946 -162.715289 
L 216.92669 -162.857015 
L 218.64392 -162.974344 
L 220.36115 -163.098727 
L 222.07838 -163.183759 
L 223.79561 -163.280607 
L 225.51284 -163.3662 
L 227.23007 -163.39033 
L 228.9473 -163.475255 
L 230.664531 -163.530274 
L 232.381761 -163.581276 
L 234.098991 -163.623981 
L 235.816221 -163.68625 
L 237.533451 -163.738887 
L 239.250681 -163.780539 
L 240.967911 -163.806626 
L 242.685141 -163.802155 
L 244.402371 -163.838645 
L 246.119601 -163.892618 
L 247.836831 -163.910516 
L 249.554061 -163.952927 
L 251.271291 -163.984804 
L 252.988521 -163.984303 
L 254.705751 -164.019597 
L 256.422981 -164.069145 
L 258.140211 -164.118214 
L 258.140211 -169.483424 
L 258.140211 -169.483424 
L 256.422981 -169.321633 
L 254.705751 -169.217212 
L 252.988521 -169.105424 
L 251.271291 -169.011234 
L 249.554061 -168.892007 
L 247.836831 -168.753852 
L 246.119601 -168.669411 
L 244.402371 -168.541349 
L 242.685141 -168.415568 
L 240.967911 -168.320306 
L 239.250681 -168.2331 
L 237.533451 -168.115935 
L 235.816221 -168.036164 
L 234.098991 -167.942181 
L 232.381761 -167.823405 
L 230.664531 -167.740687 
L 228.9473 -167.64312 
L 227.23007 -167.545273 
L 225.51284 -167.447425 
L 223.79561 -167.386863 
L 222.07838 -167.319674 
L 220.36115 -167.260282 
L 218.64392 -167.213034 
L 216.92669 -167.14967 
L 215.20946 -167.075026 
L 213.49223 -167.020934 
L 211.775 -167.003143 
L 210.05777 -166.945744 
L 208.34054 -166.909258 
L 206.62331 -166.885387 
L 204.90608 -166.837278 
L 203.18885 -166.787953 
L 201.47162 -166.71887 
L 199.75439 -166.649679 
L 198.03716 -166.592097 
L 196.31993 -166.560294 
L 194.6027 -166.534149 
L 192.885469 -166.507545 
L 191.168239 -166.433776 
L 189.451009 -166.400205 
L 187.733779 -166.370355 
L 186.016549 -166.330382 
L 184.299319 -166.277474 
L 182.582089 -166.230616 
L 180.864859 -166.234772 
L 179.147629 -166.227865 
L 177.430399 -166.199569 
L 175.713169 -166.190686 
L 173.995939 -166.186434 
L 172.278709 -166.182182 
L 170.561479 -166.177827 
L 168.844249 -166.170097 
L 167.127019 -166.110571 
L 165.409789 -166.075642 
L 163.692559 -166.063183 
L 161.975329 -166.050091 
L 160.258099 -166.036756 
L 158.540869 -166.02342 
L 156.823639 -166.009995 
L 155.106408 -165.971061 
L 153.389178 -165.934268 
L 151.671948 -165.914277 
L 149.954718 -165.900587 
L 148.237488 -165.867203 
L 146.520258 -165.849995 
L 144.803028 -165.841905 
L 143.085798 -165.833713 
L 141.368568 -165.818318 
L 139.651338 -165.790655 
L 137.934108 -165.762563 
L 136.216878 -165.734344 
L 134.499648 -165.724081 
L 132.782418 -165.702297 
L 131.065188 -165.685827 
L 129.347958 -165.659853 
L 127.630728 -165.654391 
L 125.913498 -165.656475 
L 124.196268 -165.658407 
L 122.479038 -165.660339 
L 120.761808 -165.662271 
L 119.044577 -165.65667 
L 117.327347 -165.643219 
L 115.610117 -165.639345 
L 113.892887 -165.642176 
L 112.175657 -165.646812 
L 110.458427 -165.651448 
L 108.741197 -165.655549 
L 107.023967 -165.643325 
L 105.306737 -165.630945 
L 103.589507 -165.618402 
L 101.872277 -165.605807 
L 100.155047 -165.593047 
L 98.437817 -165.580288 
L 96.720587 -165.574289 
L 95.003357 -165.573216 
L 93.286127 -165.558274 
L 91.568897 -165.5421 
L 89.851667 -165.525821 
L 88.134437 -165.509178 
z
" style="stroke: #ffffff; stroke-opacity: 0.15"/>
    </defs>
    <g clip-path="url(#p47694811f8)">
     <use xlink:href="#m6988d6345b" x="0" y="216" style="fill: #fc8d62; fill-opacity: 0.15; stroke: #ffffff; stroke-opacity: 0.15"/>
    </g>
   </g>
   <g id="line2d_12">
    <path d="M 88.134437 55.103246 
L 89.851667 55.16258 
L 91.568897 55.221915 
L 93.286127 55.28125 
L 95.003357 55.340584 
L 96.720587 55.399919 
L 98.437817 55.459253 
L 100.155047 55.518588 
L 101.872277 55.577922 
L 103.589507 55.637257 
L 105.306737 55.696591 
L 107.023967 55.755926 
L 108.741197 55.815261 
L 110.458427 55.874595 
L 112.175657 55.93393 
L 113.892887 55.993264 
L 115.610117 56.052599 
L 117.327347 56.111933 
L 119.044577 56.171268 
L 120.761808 56.230602 
L 122.479038 56.289937 
L 124.196268 56.349272 
L 125.913498 56.408606 
L 127.630728 56.467941 
L 129.347958 56.527275 
L 131.065188 56.58661 
L 132.782418 56.645944 
L 134.499648 56.705279 
L 136.216878 56.764614 
L 137.934108 56.823948 
L 139.651338 56.883283 
L 141.368568 56.942617 
L 143.085798 57.001952 
L 144.803028 57.061286 
L 146.520258 57.120621 
L 148.237488 57.179955 
L 149.954718 57.23929 
L 151.671948 57.298625 
L 153.389178 57.357959 
L 155.106408 57.417294 
L 156.823639 57.476628 
L 158.540869 57.535963 
L 160.258099 57.595297 
L 161.975329 57.654632 
L 163.692559 57.713966 
L 165.409789 57.773301 
L 167.127019 57.832636 
L 168.844249 57.89197 
L 170.561479 57.951305 
L 172.278709 58.010639 
L 173.995939 58.069974 
L 175.713169 58.129308 
L 177.430399 58.188643 
L 179.147629 58.247977 
L 180.864859 58.307312 
L 182.582089 58.366647 
L 184.299319 58.425981 
L 186.016549 58.485316 
L 187.733779 58.54465 
L 189.451009 58.603985 
L 191.168239 58.663319 
L 192.885469 58.722654 
L 194.6027 58.781988 
L 196.31993 58.841323 
L 198.03716 58.900658 
L 199.75439 58.959992 
L 201.47162 59.019327 
L 203.18885 59.078661 
L 204.90608 59.137996 
L 206.62331 59.19733 
L 208.34054 59.256665 
L 210.05777 59.315999 
L 211.775 59.375334 
L 213.49223 59.434669 
L 215.20946 59.494003 
L 216.92669 59.553338 
L 218.64392 59.612672 
L 220.36115 59.672007 
L 222.07838 59.731341 
L 223.79561 59.790676 
L 225.51284 59.85001 
L 227.23007 59.909345 
L 228.9473 59.96868 
L 230.664531 60.028014 
L 232.381761 60.087349 
L 234.098991 60.146683 
L 235.816221 60.206018 
L 237.533451 60.265352 
L 239.250681 60.324687 
L 240.967911 60.384021 
L 242.685141 60.443356 
L 244.402371 60.502691 
L 246.119601 60.562025 
L 247.836831 60.62136 
L 249.554061 60.680694 
L 251.271291 60.740029 
L 252.988521 60.799363 
L 254.705751 60.858698 
L 256.422981 60.918032 
L 258.140211 60.977367 
" clip-path="url(#p47694811f8)" style="fill: none; stroke: #66c2a5; stroke-width: 2.25; stroke-linecap: round"/>
   </g>
   <g id="line2d_13">
    <path d="M 88.134437 55.803037 
L 89.851667 55.736308 
L 91.568897 55.669579 
L 93.286127 55.602851 
L 95.003357 55.536122 
L 96.720587 55.469393 
L 98.437817 55.402664 
L 100.155047 55.335936 
L 101.872277 55.269207 
L 103.589507 55.202478 
L 105.306737 55.13575 
L 107.023967 55.069021 
L 108.741197 55.002292 
L 110.458427 54.935564 
L 112.175657 54.868835 
L 113.892887 54.802106 
L 115.610117 54.735377 
L 117.327347 54.668649 
L 119.044577 54.60192 
L 120.761808 54.535191 
L 122.479038 54.468463 
L 124.196268 54.401734 
L 125.913498 54.335005 
L 127.630728 54.268276 
L 129.347958 54.201548 
L 131.065188 54.134819 
L 132.782418 54.06809 
L 134.499648 54.001362 
L 136.216878 53.934633 
L 137.934108 53.867904 
L 139.651338 53.801176 
L 141.368568 53.734447 
L 143.085798 53.667718 
L 144.803028 53.600989 
L 146.520258 53.534261 
L 148.237488 53.467532 
L 149.954718 53.400803 
L 151.671948 53.334075 
L 153.389178 53.267346 
L 155.106408 53.200617 
L 156.823639 53.133889 
L 158.540869 53.06716 
L 160.258099 53.000431 
L 161.975329 52.933702 
L 163.692559 52.866974 
L 165.409789 52.800245 
L 167.127019 52.733516 
L 168.844249 52.666788 
L 170.561479 52.600059 
L 172.278709 52.53333 
L 173.995939 52.466602 
L 175.713169 52.399873 
L 177.430399 52.333144 
L 179.147629 52.266415 
L 180.864859 52.199687 
L 182.582089 52.132958 
L 184.299319 52.066229 
L 186.016549 51.999501 
L 187.733779 51.932772 
L 189.451009 51.866043 
L 191.168239 51.799315 
L 192.885469 51.732586 
L 194.6027 51.665857 
L 196.31993 51.599128 
L 198.03716 51.5324 
L 199.75439 51.465671 
L 201.47162 51.398942 
L 203.18885 51.332214 
L 204.90608 51.265485 
L 206.62331 51.198756 
L 208.34054 51.132027 
L 210.05777 51.065299 
L 211.775 50.99857 
L 213.49223 50.931841 
L 215.20946 50.865113 
L 216.92669 50.798384 
L 218.64392 50.731655 
L 220.36115 50.664927 
L 222.07838 50.598198 
L 223.79561 50.531469 
L 225.51284 50.46474 
L 227.23007 50.398012 
L 228.9473 50.331283 
L 230.664531 50.264554 
L 232.381761 50.197826 
L 234.098991 50.131097 
L 235.816221 50.064368 
L 237.533451 49.99764 
L 239.250681 49.930911 
L 240.967911 49.864182 
L 242.685141 49.797453 
L 244.402371 49.730725 
L 246.119601 49.663996 
L 247.836831 49.597267 
L 249.554061 49.530539 
L 251.271291 49.46381 
L 252.988521 49.397081 
L 254.705751 49.330353 
L 256.422981 49.263624 
L 258.140211 49.196895 
" clip-path="url(#p47694811f8)" style="fill: none; stroke: #fc8d62; stroke-width: 2.25; stroke-linecap: round"/>
   </g>
   <g id="patch_3">
    <path d="M 79.634148 165.78 
L 79.634148 12.96 
" style="fill: none; stroke: #262626; stroke-width: 1.25; stroke-linejoin: miter; stroke-linecap: square"/>
   </g>
   <g id="patch_4">
    <path d="M 79.634148 165.78 
L 266.6405 165.78 
" style="fill: none; stroke: #262626; stroke-width: 1.25; stroke-linejoin: miter; stroke-linecap: square"/>
   </g>
   <g id="PathCollection_1">
    <defs>
     <path id="mdc1109bc31" d="M 0 2.738613 
C 0.726289 2.738613 1.422928 2.450055 1.936492 1.936492 
C 2.450055 1.422928 2.738613 0.726289 2.738613 0 
C 2.738613 -0.726289 2.450055 -1.422928 1.936492 -1.936492 
C 1.422928 -2.450055 0.726289 -2.738613 0 -2.738613 
C -0.726289 -2.738613 -1.422928 -2.450055 -1.936492 -1.936492 
C -2.450055 -1.422928 -2.738613 -0.726289 -2.738613 0 
C -2.738613 0.726289 -2.450055 1.422928 -1.936492 1.936492 
C -1.422928 2.450055 -0.726289 2.738613 0 2.738613 
z
" style="stroke: #ffffff; stroke-opacity: 0.8; stroke-width: 0.5"/>
    </defs>
    <g>
     <use xlink:href="#mdc1109bc31" x="139.136169" y="59.655" style="fill: #66c2a5; fill-opacity: 0.8; stroke: #ffffff; stroke-opacity: 0.8; stroke-width: 0.5"/>
     <use xlink:href="#mdc1109bc31" x="246.806493" y="69.5883" style="fill: #66c2a5; fill-opacity: 0.8; stroke: #ffffff; stroke-opacity: 0.8; stroke-width: 0.5"/>
     <use xlink:href="#mdc1109bc31" x="204.305049" y="61.90485" style="fill: #66c2a5; fill-opacity: 0.8; stroke: #ffffff; stroke-opacity: 0.8; stroke-width: 0.5"/>
     <use xlink:href="#mdc1109bc31" x="99.468155" y="49.42455" style="fill: #66c2a5; fill-opacity: 0.8; stroke: #ffffff; stroke-opacity: 0.8; stroke-width: 0.5"/>
     <use xlink:href="#mdc1109bc31" x="122.135592" y="50.2311" style="fill: #66c2a5; fill-opacity: 0.8; stroke: #ffffff; stroke-opacity: 0.8; stroke-width: 0.5"/>
     <use xlink:href="#mdc1109bc31" x="252.473352" y="59.8248" style="fill: #66c2a5; fill-opacity: 0.8; stroke: #ffffff; stroke-opacity: 0.8; stroke-width: 0.5"/>
     <use xlink:href="#mdc1109bc31" x="187.304472" y="55.02795" style="fill: #66c2a5; fill-opacity: 0.8; stroke: #ffffff; stroke-opacity: 0.8; stroke-width: 0.5"/>
     <use xlink:href="#mdc1109bc31" x="226.972486" y="50.35845" style="fill: #66c2a5; fill-opacity: 0.8; stroke: #ffffff; stroke-opacity: 0.8; stroke-width: 0.5"/>
     <use xlink:href="#mdc1109bc31" x="241.139634" y="49.76415" style="fill: #66c2a5; fill-opacity: 0.8; stroke: #ffffff; stroke-opacity: 0.8; stroke-width: 0.5"/>
     <use xlink:href="#mdc1109bc31" x="192.971331" y="58.2117" style="fill: #66c2a5; fill-opacity: 0.8; stroke: #ffffff; stroke-opacity: 0.8; stroke-width: 0.5"/>
     <use xlink:href="#mdc1109bc31" x="167.470465" y="53.66955" style="fill: #66c2a5; fill-opacity: 0.8; stroke: #ffffff; stroke-opacity: 0.8; stroke-width: 0.5"/>
     <use xlink:href="#mdc1109bc31" x="258.140211" y="71.541" style="fill: #66c2a5; fill-opacity: 0.8; stroke: #ffffff; stroke-opacity: 0.8; stroke-width: 0.5"/>
     <use xlink:href="#mdc1109bc31" x="235.472775" y="65.3433" style="fill: #66c2a5; fill-opacity: 0.8; stroke: #ffffff; stroke-opacity: 0.8; stroke-width: 0.5"/>
     <use xlink:href="#mdc1109bc31" x="139.136169" y="52.99035" style="fill: #66c2a5; fill-opacity: 0.8; stroke: #ffffff; stroke-opacity: 0.8; stroke-width: 0.5"/>
     <use xlink:href="#mdc1109bc31" x="164.637035" y="52.5234" style="fill: #66c2a5; fill-opacity: 0.8; stroke: #ffffff; stroke-opacity: 0.8; stroke-width: 0.5"/>
     <use xlink:href="#mdc1109bc31" x="258.140211" y="70.14015" style="fill: #66c2a5; fill-opacity: 0.8; stroke: #ffffff; stroke-opacity: 0.8; stroke-width: 0.5"/>
     <use xlink:href="#mdc1109bc31" x="102.301585" y="59.4852" style="fill: #66c2a5; fill-opacity: 0.8; stroke: #ffffff; stroke-opacity: 0.8; stroke-width: 0.5"/>
     <use xlink:href="#mdc1109bc31" x="88.134437" y="71.541" style="fill: #66c2a5; fill-opacity: 0.8; stroke: #ffffff; stroke-opacity: 0.8; stroke-width: 0.5"/>
     <use xlink:href="#mdc1109bc31" x="232.639345" y="60.3342" style="fill: #66c2a5; fill-opacity: 0.8; stroke: #ffffff; stroke-opacity: 0.8; stroke-width: 0.5"/>
     <use xlink:href="#mdc1109bc31" x="184.471042" y="65.3433" style="fill: #66c2a5; fill-opacity: 0.8; stroke: #ffffff; stroke-opacity: 0.8; stroke-width: 0.5"/>
     <use xlink:href="#mdc1109bc31" x="258.140211" y="63.7302" style="fill: #66c2a5; fill-opacity: 0.8; stroke: #ffffff; stroke-opacity: 0.8; stroke-width: 0.5"/>
     <use xlink:href="#mdc1109bc31" x="249.639923" y="55.96185" style="fill: #66c2a5; fill-opacity: 0.8; stroke: #ffffff; stroke-opacity: 0.8; stroke-width: 0.5"/>
     <use xlink:href="#mdc1109bc31" x="99.468155" y="46.02855" style="fill: #66c2a5; fill-opacity: 0.8; stroke: #ffffff; stroke-opacity: 0.8; stroke-width: 0.5"/>
     <use xlink:href="#mdc1109bc31" x="255.306782" y="57.0231" style="fill: #66c2a5; fill-opacity: 0.8; stroke: #ffffff; stroke-opacity: 0.8; stroke-width: 0.5"/>
     <use xlink:href="#mdc1109bc31" x="102.301585" y="61.6926" style="fill: #66c2a5; fill-opacity: 0.8; stroke: #ffffff; stroke-opacity: 0.8; stroke-width: 0.5"/>
     <use xlink:href="#mdc1109bc31" x="181.637613" y="61.9473" style="fill: #66c2a5; fill-opacity: 0.8; stroke: #ffffff; stroke-opacity: 0.8; stroke-width: 0.5"/>
     <use xlink:href="#mdc1109bc31" x="218.472197" y="49.2123" style="fill: #66c2a5; fill-opacity: 0.8; stroke: #ffffff; stroke-opacity: 0.8; stroke-width: 0.5"/>
     <use xlink:href="#mdc1109bc31" x="258.140211" y="60.54645" style="fill: #66c2a5; fill-opacity: 0.8; stroke: #ffffff; stroke-opacity: 0.8; stroke-width: 0.5"/>
    </g>
   </g>
   <g id="PathCollection_2">
    <defs>
     <path id="md1485eff34" d="M 0 2.738613 
C 0.726289 2.738613 1.422928 2.450055 1.936492 1.936492 
C 2.450055 1.422928 2.738613 0.726289 2.738613 0 
C 2.738613 -0.726289 2.450055 -1.422928 1.936492 -1.936492 
C 1.422928 -2.450055 0.726289 -2.738613 0 -2.738613 
C -0.726289 -2.738613 -1.422928 -2.450055 -1.936492 -1.936492 
C -2.450055 -1.422928 -2.738613 -0.726289 -2.738613 0 
C -2.738613 0.726289 -2.450055 1.422928 -1.936492 1.936492 
C -1.422928 2.450055 -0.726289 2.738613 0 2.738613 
z
" style="stroke: #ffffff; stroke-opacity: 0.8; stroke-width: 0.5"/>
    </defs>
    <g>
     <use xlink:href="#md1485eff34" x="249.639923" y="44.0334" style="fill: #fc8d62; fill-opacity: 0.8; stroke: #ffffff; stroke-opacity: 0.8; stroke-width: 0.5"/>
     <use xlink:href="#md1485eff34" x="238.306204" y="44.8824" style="fill: #fc8d62; fill-opacity: 0.8; stroke: #ffffff; stroke-opacity: 0.8; stroke-width: 0.5"/>
     <use xlink:href="#md1485eff34" x="258.140211" y="43.524" style="fill: #fc8d62; fill-opacity: 0.8; stroke: #ffffff; stroke-opacity: 0.8; stroke-width: 0.5"/>
     <use xlink:href="#md1485eff34" x="164.637035" y="64.8339" style="fill: #fc8d62; fill-opacity: 0.8; stroke: #ffffff; stroke-opacity: 0.8; stroke-width: 0.5"/>
     <use xlink:href="#md1485eff34" x="88.134437" y="46.6653" style="fill: #fc8d62; fill-opacity: 0.8; stroke: #ffffff; stroke-opacity: 0.8; stroke-width: 0.5"/>
     <use xlink:href="#md1485eff34" x="212.805338" y="58.8909" style="fill: #fc8d62; fill-opacity: 0.8; stroke: #ffffff; stroke-opacity: 0.8; stroke-width: 0.5"/>
     <use xlink:href="#md1485eff34" x="88.134437" y="57.2778" style="fill: #fc8d62; fill-opacity: 0.8; stroke: #ffffff; stroke-opacity: 0.8; stroke-width: 0.5"/>
     <use xlink:href="#md1485eff34" x="252.473352" y="54.2214" style="fill: #fc8d62; fill-opacity: 0.8; stroke: #ffffff; stroke-opacity: 0.8; stroke-width: 0.5"/>
     <use xlink:href="#md1485eff34" x="153.303317" y="54.561" style="fill: #fc8d62; fill-opacity: 0.8; stroke: #ffffff; stroke-opacity: 0.8; stroke-width: 0.5"/>
     <use xlink:href="#md1485eff34" x="258.140211" y="45.7314" style="fill: #fc8d62; fill-opacity: 0.8; stroke: #ffffff; stroke-opacity: 0.8; stroke-width: 0.5"/>
     <use xlink:href="#md1485eff34" x="136.302739" y="60.6738" style="fill: #fc8d62; fill-opacity: 0.8; stroke: #ffffff; stroke-opacity: 0.8; stroke-width: 0.5"/>
     <use xlink:href="#md1485eff34" x="195.804761" y="53.5422" style="fill: #fc8d62; fill-opacity: 0.8; stroke: #ffffff; stroke-opacity: 0.8; stroke-width: 0.5"/>
     <use xlink:href="#md1485eff34" x="226.972486" y="54.0516" style="fill: #fc8d62; fill-opacity: 0.8; stroke: #ffffff; stroke-opacity: 0.8; stroke-width: 0.5"/>
     <use xlink:href="#md1485eff34" x="258.140211" y="45.1371" style="fill: #fc8d62; fill-opacity: 0.8; stroke: #ffffff; stroke-opacity: 0.8; stroke-width: 0.5"/>
     <use xlink:href="#md1485eff34" x="252.473352" y="49.2123" style="fill: #fc8d62; fill-opacity: 0.8; stroke: #ffffff; stroke-opacity: 0.8; stroke-width: 0.5"/>
     <use xlink:href="#md1485eff34" x="221.305627" y="56.0043" style="fill: #fc8d62; fill-opacity: 0.8; stroke: #ffffff; stroke-opacity: 0.8; stroke-width: 0.5"/>
     <use xlink:href="#md1485eff34" x="88.134437" y="47.5992" style="fill: #fc8d62; fill-opacity: 0.8; stroke: #ffffff; stroke-opacity: 0.8; stroke-width: 0.5"/>
     <use xlink:href="#md1485eff34" x="258.140211" y="44.1183" style="fill: #fc8d62; fill-opacity: 0.8; stroke: #ffffff; stroke-opacity: 0.8; stroke-width: 0.5"/>
     <use xlink:href="#md1485eff34" x="212.805338" y="44.373" style="fill: #fc8d62; fill-opacity: 0.8; stroke: #ffffff; stroke-opacity: 0.8; stroke-width: 0.5"/>
     <use xlink:href="#md1485eff34" x="258.140211" y="47.4294" style="fill: #fc8d62; fill-opacity: 0.8; stroke: #ffffff; stroke-opacity: 0.8; stroke-width: 0.5"/>
     <use xlink:href="#md1485eff34" x="235.472775" y="49.7217" style="fill: #fc8d62; fill-opacity: 0.8; stroke: #ffffff; stroke-opacity: 0.8; stroke-width: 0.5"/>
     <use xlink:href="#md1485eff34" x="258.140211" y="43.524" style="fill: #fc8d62; fill-opacity: 0.8; stroke: #ffffff; stroke-opacity: 0.8; stroke-width: 0.5"/>
     <use xlink:href="#md1485eff34" x="204.305049" y="56.0043" style="fill: #fc8d62; fill-opacity: 0.8; stroke: #ffffff; stroke-opacity: 0.8; stroke-width: 0.5"/>
     <use xlink:href="#md1485eff34" x="258.140211" y="48.0237" style="fill: #fc8d62; fill-opacity: 0.8; stroke: #ffffff; stroke-opacity: 0.8; stroke-width: 0.5"/>
     <use xlink:href="#md1485eff34" x="218.472197" y="54.9855" style="fill: #fc8d62; fill-opacity: 0.8; stroke: #ffffff; stroke-opacity: 0.8; stroke-width: 0.5"/>
     <use xlink:href="#md1485eff34" x="167.470465" y="52.3536" style="fill: #fc8d62; fill-opacity: 0.8; stroke: #ffffff; stroke-opacity: 0.8; stroke-width: 0.5"/>
     <use xlink:href="#md1485eff34" x="255.306782" y="59.9946" style="fill: #fc8d62; fill-opacity: 0.8; stroke: #ffffff; stroke-opacity: 0.8; stroke-width: 0.5"/>
     <use xlink:href="#md1485eff34" x="192.971331" y="49.2123" style="fill: #fc8d62; fill-opacity: 0.8; stroke: #ffffff; stroke-opacity: 0.8; stroke-width: 0.5"/>
    </g>
   </g>
  </g>
  <g id="legend_1">
   <g id="text_14">
    <text style="fill: #262626; font: 12px 'Arial', 'DejaVu Sans', 'Liberation Sans', 'Bitstream Vera Sans', sans-serif; text-anchor: start" x="268.781875" y="95.165312" transform="rotate(-0 268.781875 95.165312)">multiplier</text>
   </g>
   <g id="PathCollection_3">
    <g>
     <use xlink:href="#mdc1109bc31" x="284.269219" y="108.631719" style="fill: #66c2a5; fill-opacity: 0.8; stroke: #ffffff; stroke-opacity: 0.8; stroke-width: 0.5"/>
    </g>
   </g>
   <g id="text_15">
    <text style="fill: #262626; font: 11px 'Arial', 'DejaVu Sans', 'Liberation Sans', 'Bitstream Vera Sans', sans-serif; text-anchor: start" x="304.069219" y="111.519219" transform="rotate(-0 304.069219 111.519219)">1.5</text>
   </g>
   <g id="PathCollection_4">
    <g>
     <use xlink:href="#md1485eff34" x="284.269219" y="124.777656" style="fill: #fc8d62; fill-opacity: 0.8; stroke: #ffffff; stroke-opacity: 0.8; stroke-width: 0.5"/>
    </g>
   </g>
   <g id="text_16">
    <text style="fill: #262626; font: 11px 'Arial', 'DejaVu Sans', 'Liberation Sans', 'Bitstream Vera Sans', sans-serif; text-anchor: start" x="304.069219" y="127.665156" transform="rotate(-0 304.069219 127.665156)">2.5</text>
   </g>
  </g>
 </g>
 <defs>
  <clipPath id="p47694811f8">
   <rect x="79.634148" y="12.96" width="187.006352" height="152.82"/>
  </clipPath>
 </defs>
</svg>
