<?xml version="1.0" encoding="utf-8" standalone="no"?>
<!DOCTYPE svg PUBLIC "-//W3C//DTD SVG 1.1//EN"
  "http://www.w3.org/Graphics/SVG/1.1/DTD/svg11.dtd">
<svg xmlns:xlink="http://www.w3.org/1999/xlink" width="336.22pt" height="216pt" viewBox="0 0 336.22 216" xmlns="http://www.w3.org/2000/svg" version="1.1">
 <metadata>
  <rdf:RDF xmlns:dc="http://purl.org/dc/elements/1.1/" xmlns:cc="http://creativecommons.org/ns#" xmlns:rdf="http://www.w3.org/1999/02/22-rdf-syntax-ns#">
   <cc:Work>
    <dc:type rdf:resource="http://purl.org/dc/dcmitype/StillImage"/>
    <dc:date>2023-05-23T18:47:44.278006</dc:date>
    <dc:format>image/svg+xml</dc:format>
    <dc:creator>
     <cc:Agent>
      <dc:title>Matplotlib v3.7.0, https://matplotlib.org/</dc:title>
     </cc:Agent>
    </dc:creator>
   </cc:Work>
  </rdf:RDF>
 </metadata>
 <defs>
  <style type="text/css">*{stroke-linejoin: round; stroke-linecap: butt}</style>
 </defs>
 <g id="figure_1">
  <g id="patch_1">
   <path d="M 0 216 
L 336.22 216 
L 336.22 0 
L 0 0 
z
" style="fill: #ffffff"/>
  </g>
  <g id="axes_1">
   <g id="patch_2">
    <path d="M 77.890967 167.22 
L 266.6378 167.22 
L 266.6378 15.126915 
L 77.890967 15.126915 
z
" style="fill: #ffffff"/>
   </g>
   <g id="matplotlib.axis_1">
    <g id="xtick_1">
     <g id="line2d_1">
      <defs>
       <path id="mbb9f260371" d="M 0 0 
L 0 6 
" style="stroke: #262626; stroke-width: 1.25"/>
      </defs>
      <g>
       <use xlink:href="#mbb9f260371" x="95.04977" y="167.22" style="fill: #262626; stroke: #262626; stroke-width: 1.25"/>
      </g>
     </g>
     <g id="text_1">
      <text style="fill: #262626; font: 11px 'Arial', 'DejaVu Sans', 'Liberation Sans', 'Bitstream Vera Sans', sans-serif; text-anchor: middle" x="95.04977" y="185.078281" transform="rotate(-0 95.04977 185.078281)">0.2</text>
     </g>
    </g>
    <g id="xtick_2">
     <g id="line2d_2">
      <g>
       <use xlink:href="#mbb9f260371" x="135.801927" y="167.22" style="fill: #262626; stroke: #262626; stroke-width: 1.25"/>
      </g>
     </g>
     <g id="text_2">
      <text style="fill: #262626; font: 11px 'Arial', 'DejaVu Sans', 'Liberation Sans', 'Bitstream Vera Sans', sans-serif; text-anchor: middle" x="135.801927" y="185.078281" transform="rotate(-0 135.801927 185.078281)">0.4</text>
     </g>
    </g>
    <g id="xtick_3">
     <g id="line2d_3">
      <g>
       <use xlink:href="#mbb9f260371" x="176.554084" y="167.22" style="fill: #262626; stroke: #262626; stroke-width: 1.25"/>
      </g>
     </g>
     <g id="text_3">
      <text style="fill: #262626; font: 11px 'Arial', 'DejaVu Sans', 'Liberation Sans', 'Bitstream Vera Sans', sans-serif; text-anchor: middle" x="176.554084" y="185.078281" transform="rotate(-0 176.554084 185.078281)">0.6</text>
     </g>
    </g>
    <g id="xtick_4">
     <g id="line2d_4">
      <g>
       <use xlink:href="#mbb9f260371" x="217.306241" y="167.22" style="fill: #262626; stroke: #262626; stroke-width: 1.25"/>
      </g>
     </g>
     <g id="text_4">
      <text style="fill: #262626; font: 11px 'Arial', 'DejaVu Sans', 'Liberation Sans', 'Bitstream Vera Sans', sans-serif; text-anchor: middle" x="217.306241" y="185.078281" transform="rotate(-0 217.306241 185.078281)">0.8</text>
     </g>
    </g>
    <g id="xtick_5">
     <g id="line2d_5">
      <g>
       <use xlink:href="#mbb9f260371" x="258.058398" y="167.22" style="fill: #262626; stroke: #262626; stroke-width: 1.25"/>
      </g>
     </g>
     <g id="text_5">
      <text style="fill: #262626; font: 11px 'Arial', 'DejaVu Sans', 'Liberation Sans', 'Bitstream Vera Sans', sans-serif; text-anchor: middle" x="258.058398" y="185.078281" transform="rotate(-0 258.058398 185.078281)">1.0</text>
     </g>
    </g>
    <g id="text_6">
     <text style="fill: #262626; font: 12px 'Arial', 'DejaVu Sans', 'Liberation Sans', 'Bitstream Vera Sans', sans-serif; text-anchor: middle" x="172.264383" y="200.484062" transform="rotate(-0 172.264383 200.484062)">p(disclose)</text>
    </g>
   </g>
   <g id="matplotlib.axis_2">
    <g id="ytick_1">
     <g id="line2d_6">
      <defs>
       <path id="mb08208b7fa" d="M 0 0 
L -6 0 
" style="stroke: #262626; stroke-width: 1.25"/>
      </defs>
      <g>
       <use xlink:href="#mb08208b7fa" x="77.890967" y="167.22" style="fill: #262626; stroke: #262626; stroke-width: 1.25"/>
      </g>
     </g>
     <g id="text_7">
      <text style="fill: #262626; font: 11px 'Arial', 'DejaVu Sans', 'Liberation Sans', 'Bitstream Vera Sans', sans-serif; text-anchor: end" x="68.390967" y="171.399141" transform="rotate(-0 68.390967 171.399141)">0.0</text>
     </g>
    </g>
    <g id="ytick_2">
     <g id="line2d_7">
      <g>
       <use xlink:href="#mb08208b7fa" x="77.890967" y="136.801383" style="fill: #262626; stroke: #262626; stroke-width: 1.25"/>
      </g>
     </g>
     <g id="text_8">
      <text style="fill: #262626; font: 11px 'Arial', 'DejaVu Sans', 'Liberation Sans', 'Bitstream Vera Sans', sans-serif; text-anchor: end" x="68.390967" y="140.980524" transform="rotate(-0 68.390967 140.980524)">0.2</text>
     </g>
    </g>
    <g id="ytick_3">
     <g id="line2d_8">
      <g>
       <use xlink:href="#mb08208b7fa" x="77.890967" y="106.382766" style="fill: #262626; stroke: #262626; stroke-width: 1.25"/>
      </g>
     </g>
     <g id="text_9">
      <text style="fill: #262626; font: 11px 'Arial', 'DejaVu Sans', 'Liberation Sans', 'Bitstream Vera Sans', sans-serif; text-anchor: end" x="68.390967" y="110.561907" transform="rotate(-0 68.390967 110.561907)">0.4</text>
     </g>
    </g>
    <g id="ytick_4">
     <g id="line2d_9">
      <g>
       <use xlink:href="#mb08208b7fa" x="77.890967" y="75.964149" style="fill: #262626; stroke: #262626; stroke-width: 1.25"/>
      </g>
     </g>
     <g id="text_10">
      <text style="fill: #262626; font: 11px 'Arial', 'DejaVu Sans', 'Liberation Sans', 'Bitstream Vera Sans', sans-serif; text-anchor: end" x="68.390967" y="80.143289" transform="rotate(-0 68.390967 80.143289)">0.6</text>
     </g>
    </g>
    <g id="ytick_5">
     <g id="line2d_10">
      <g>
       <use xlink:href="#mb08208b7fa" x="77.890967" y="45.545532" style="fill: #262626; stroke: #262626; stroke-width: 1.25"/>
      </g>
     </g>
     <g id="text_11">
      <text style="fill: #262626; font: 11px 'Arial', 'DejaVu Sans', 'Liberation Sans', 'Bitstream Vera Sans', sans-serif; text-anchor: end" x="68.390967" y="49.724672" transform="rotate(-0 68.390967 49.724672)">0.8</text>
     </g>
    </g>
    <g id="ytick_6">
     <g id="line2d_11">
      <g>
       <use xlink:href="#mb08208b7fa" x="77.890967" y="15.126915" style="fill: #262626; stroke: #262626; stroke-width: 1.25"/>
      </g>
     </g>
     <g id="text_12">
      <text style="fill: #262626; font: 11px 'Arial', 'DejaVu Sans', 'Liberation Sans', 'Bitstream Vera Sans', sans-serif; text-anchor: end" x="68.390967" y="19.306055" transform="rotate(-0 68.390967 19.306055)">1.0</text>
     </g>
    </g>
    <g id="text_13">
     <text style="fill: #262626; font: 12px 'Arial', 'DejaVu Sans', 'Liberation Sans', 'Bitstream Vera Sans', sans-serif; text-anchor: middle" x="44.401904" y="91.173457" transform="rotate(-90 44.401904 91.173457)">payoff</text>
    </g>
   </g>
   <g id="PolyCollection_1">
    <path d="M 86.470368 -2083.997045 
L 86.470368 -1189.11888 
L 88.203581 -1199.243195 
L 89.936793 -1209.051699 
L 91.670005 -1218.639024 
L 93.403218 -1228.21948 
L 95.13643 -1237.769965 
L 96.869643 -1247.329154 
L 98.602855 -1257.415764 
L 100.336068 -1267.555915 
L 102.06928 -1277.696067 
L 103.802492 -1287.836218 
L 105.535705 -1297.976369 
L 107.268917 -1308.116521 
L 109.00213 -1318.256672 
L 110.735342 -1328.396824 
L 112.468555 -1338.549243 
L 114.201767 -1348.837101 
L 115.934979 -1358.839452 
L 117.668192 -1368.966537 
L 119.401404 -1379.097581 
L 121.134617 -1389.046824 
L 122.867829 -1398.936341 
L 124.601042 -1408.395185 
L 126.334254 -1418.161156 
L 128.067466 -1428.205063 
L 129.800679 -1438.254464 
L 131.533891 -1448.288504 
L 133.267104 -1457.31319 
L 135.000316 -1466.474022 
L 136.733529 -1477.381594 
L 138.466741 -1487.828401 
L 140.199953 -1497.689461 
L 141.933166 -1507.550521 
L 143.666378 -1517.423659 
L 145.399591 -1527.300109 
L 147.132803 -1537.17656 
L 148.866016 -1547.053011 
L 150.599228 -1556.762509 
L 152.33244 -1566.410425 
L 154.065653 -1576.094296 
L 155.798865 -1585.787051 
L 157.532078 -1595.479806 
L 159.26529 -1605.172562 
L 160.998503 -1615.849877 
L 162.731715 -1626.277546 
L 164.464927 -1635.27607 
L 166.19814 -1643.796608 
L 167.931352 -1653.428893 
L 169.664565 -1663.091636 
L 171.397777 -1672.728049 
L 173.13099 -1682.395696 
L 174.864202 -1693.73508 
L 176.597414 -1705.188895 
L 178.330627 -1715.173269 
L 180.063839 -1725.052154 
L 181.797052 -1734.931039 
L 183.530264 -1744.824675 
L 185.263477 -1754.741108 
L 186.996689 -1764.657541 
L 188.729901 -1774.345152 
L 190.463114 -1784.057959 
L 192.196326 -1793.169715 
L 193.929539 -1803.411551 
L 195.662751 -1812.890318 
L 197.395964 -1823.101028 
L 199.129176 -1833.067246 
L 200.862388 -1842.268268 
L 202.595601 -1851.479305 
L 204.328813 -1860.682117 
L 206.062026 -1869.889697 
L 207.795238 -1879.146348 
L 209.528451 -1888.604315 
L 211.261663 -1898.071042 
L 212.994875 -1907.5289 
L 214.728088 -1916.483592 
L 216.4613 -1925.689309 
L 218.194513 -1934.291065 
L 219.927725 -1942.957464 
L 221.660938 -1952.536341 
L 223.39415 -1960.967614 
L 225.127362 -1969.983579 
L 226.860575 -1979.086374 
L 228.593787 -1984.415717 
L 230.327 -1989.835974 
L 232.060212 -1997.589497 
L 233.793425 -2002.187727 
L 235.526637 -2006.37221 
L 237.259849 -2008.482534 
L 238.993062 -2012.591818 
L 240.726274 -2014.792117 
L 242.459487 -2017.02068 
L 244.192699 -2019.272383 
L 245.925911 -2022.40624 
L 247.659124 -2024.270233 
L 249.392336 -2026.41416 
L 251.125549 -2028.111302 
L 252.858761 -2029.184364 
L 254.591974 -2031.381029 
L 256.325186 -2032.851014 
L 258.058398 -2035.024376 
L 258.058398 -2227.805156 
L 258.058398 -2227.805156 
L 256.325186 -2221.19863 
L 254.591974 -2212.352917 
L 252.858761 -2206.910345 
L 251.125549 -2201.289172 
L 249.392336 -2196.831825 
L 247.659124 -2194.002219 
L 245.925911 -2191.682188 
L 244.192699 -2189.430839 
L 242.459487 -2188.16044 
L 240.726274 -2184.67251 
L 238.993062 -2181.464733 
L 237.259849 -2179.491378 
L 235.526637 -2177.105771 
L 233.793425 -2175.230123 
L 232.060212 -2173.006901 
L 230.327 -2170.872736 
L 228.593787 -2169.078784 
L 226.860575 -2167.284832 
L 225.127362 -2165.731478 
L 223.39415 -2163.775159 
L 221.660938 -2161.984958 
L 219.927725 -2161.714178 
L 218.194513 -2160.387307 
L 216.4613 -2158.686069 
L 214.728088 -2157.810955 
L 212.994875 -2156.60202 
L 211.261663 -2155.056315 
L 209.528451 -2153.510611 
L 207.795238 -2151.955758 
L 206.062026 -2150.123995 
L 204.328813 -2147.811954 
L 202.595601 -2146.857462 
L 200.862388 -2145.728182 
L 199.129176 -2144.190676 
L 197.395964 -2142.65113 
L 195.662751 -2141.860784 
L 193.929539 -2140.181931 
L 192.196326 -2138.31937 
L 190.463114 -2137.489257 
L 188.729901 -2137.233371 
L 186.996689 -2136.973562 
L 185.263477 -2136.661025 
L 183.530264 -2135.419726 
L 181.797052 -2134.486667 
L 180.063839 -2133.886149 
L 178.330627 -2133.285631 
L 176.597414 -2132.685113 
L 174.864202 -2131.827108 
L 173.13099 -2130.65733 
L 171.397777 -2128.557283 
L 169.664565 -2127.729291 
L 167.931352 -2125.706435 
L 166.19814 -2124.906286 
L 164.464927 -2124.106137 
L 162.731715 -2123.279943 
L 160.998503 -2122.129012 
L 159.26529 -2120.077195 
L 157.532078 -2118.025377 
L 155.798865 -2115.973559 
L 154.065653 -2113.986889 
L 152.33244 -2113.416047 
L 150.599228 -2113.543376 
L 148.866016 -2113.670705 
L 147.132803 -2113.798035 
L 145.399591 -2113.915174 
L 143.666378 -2113.138166 
L 141.933166 -2111.406005 
L 140.199953 -2111.312226 
L 138.466741 -2111.027714 
L 136.733529 -2109.337781 
L 135.000316 -2107.623422 
L 133.267104 -2105.909062 
L 131.533891 -2104.194703 
L 129.800679 -2102.480343 
L 128.067466 -2100.765984 
L 126.334254 -2099.208437 
L 124.601042 -2098.643006 
L 122.867829 -2097.124027 
L 121.134617 -2096.899043 
L 119.401404 -2096.67406 
L 117.668192 -2096.449077 
L 115.934979 -2095.970717 
L 114.201767 -2095.338845 
L 112.468555 -2093.653041 
L 110.735342 -2091.967237 
L 109.00213 -2090.944899 
L 107.268917 -2090.913247 
L 105.535705 -2090.881595 
L 103.802492 -2090.849943 
L 102.06928 -2090.818291 
L 100.336068 -2090.786639 
L 98.602855 -2090.500491 
L 96.869643 -2089.571427 
L 95.13643 -2088.642363 
L 93.403218 -2087.713299 
L 91.670005 -2086.784236 
L 89.936793 -2085.855172 
L 88.203581 -2084.926108 
L 86.470368 -2083.997045 
z
" clip-path="url(#p236130f699)" style="fill: #66c2a5; fill-opacity: 0.15; stroke: #ffffff; stroke-opacity: 0.15"/>
   </g>
   <g id="PolyCollection_2">
    <path d="M 136.516877 -2717.215797 
L 136.516877 -2151.297081 
L 137.744569 -2160.693455 
L 138.972261 -2170.089828 
L 140.199953 -2179.489493 
L 141.427646 -2188.890438 
L 142.655338 -2198.291383 
L 143.88303 -2207.692328 
L 145.110722 -2217.093273 
L 146.338414 -2226.494218 
L 147.566106 -2235.633792 
L 148.793798 -2244.337225 
L 150.021491 -2253.988862 
L 151.249183 -2262.985724 
L 152.476875 -2271.992035 
L 153.704567 -2280.998347 
L 154.932259 -2290.004658 
L 156.159951 -2299.081443 
L 157.387643 -2308.363555 
L 158.615335 -2317.647231 
L 159.843028 -2326.949917 
L 161.07072 -2337.080437 
L 162.298412 -2347.26755 
L 163.526104 -2357.454663 
L 164.753796 -2366.987707 
L 165.981488 -2376.230925 
L 167.20918 -2385.474142 
L 168.436873 -2394.717359 
L 169.664565 -2403.960577 
L 170.892257 -2413.211652 
L 172.119949 -2422.582655 
L 173.347641 -2432.595764 
L 174.575333 -2442.609831 
L 175.803025 -2452.187773 
L 177.030718 -2461.595921 
L 178.25841 -2471.004069 
L 179.486102 -2480.412217 
L 180.713794 -2489.821877 
L 181.941486 -2499.234485 
L 183.169178 -2508.647092 
L 184.39687 -2518.183058 
L 185.624562 -2527.346285 
L 186.852255 -2536.727893 
L 188.079947 -2545.779218 
L 189.307639 -2554.28427 
L 190.535331 -2563.996568 
L 191.763023 -2572.529508 
L 192.990715 -2581.9093 
L 194.218407 -2590.918161 
L 195.4461 -2600.616352 
L 196.673792 -2610.321253 
L 197.901484 -2619.951666 
L 199.129176 -2628.909574 
L 200.356868 -2637.867483 
L 201.58456 -2646.802248 
L 202.812252 -2655.988198 
L 204.039945 -2665.509411 
L 205.267637 -2674.777576 
L 206.495329 -2684.055237 
L 207.723021 -2693.731851 
L 208.950713 -2703.399378 
L 210.178405 -2712.211619 
L 211.406097 -2721.785491 
L 212.633789 -2730.655656 
L 213.861482 -2738.781925 
L 215.089174 -2747.451035 
L 216.316866 -2756.293831 
L 217.544558 -2765.123262 
L 218.77225 -2773.366293 
L 219.999942 -2781.85303 
L 221.227634 -2789.943789 
L 222.455327 -2798.869361 
L 223.683019 -2807.802244 
L 224.910711 -2815.50266 
L 226.138403 -2823.774461 
L 227.366095 -2832.653763 
L 228.593787 -2841.428898 
L 229.821479 -2850.204033 
L 231.049171 -2858.829403 
L 232.276864 -2866.909067 
L 233.504556 -2875.033763 
L 234.732248 -2883.124959 
L 235.95994 -2891.213041 
L 237.187632 -2898.936058 
L 238.415324 -2906.707607 
L 239.643016 -2915.301391 
L 240.870709 -2921.762676 
L 242.098401 -2929.535819 
L 243.326093 -2937.784579 
L 244.553785 -2946.333467 
L 245.781477 -2955.660823 
L 247.009169 -2964.677588 
L 248.236861 -2972.183313 
L 249.464554 -2979.182699 
L 250.692246 -2986.03691 
L 251.919938 -2992.090416 
L 253.14763 -2998.239462 
L 254.375322 -3005.066765 
L 255.603014 -3011.721692 
L 256.830706 -3017.592892 
L 258.058398 -3023.933511 
L 258.058398 -3145.440751 
L 258.058398 -3145.440751 
L 256.830706 -3135.739913 
L 255.603014 -3126.039075 
L 254.375322 -3116.937557 
L 253.14763 -3108.46349 
L 251.919938 -3100.01575 
L 250.692246 -3091.561016 
L 249.464554 -3083.070285 
L 248.236861 -3074.609037 
L 247.009169 -3066.349242 
L 245.781477 -3057.665896 
L 244.553785 -3050.330717 
L 243.326093 -3042.547681 
L 242.098401 -3034.045819 
L 240.870709 -3027.122597 
L 239.643016 -3021.301882 
L 238.415324 -3014.812663 
L 237.187632 -3007.732763 
L 235.95994 -3002.219553 
L 234.732248 -2997.151968 
L 233.504556 -2990.231326 
L 232.276864 -2982.574728 
L 231.049171 -2977.400202 
L 229.821479 -2971.635687 
L 228.593787 -2966.047832 
L 227.366095 -2963.683593 
L 226.138403 -2958.449978 
L 224.910711 -2954.959397 
L 223.683019 -2952.412581 
L 222.455327 -2949.863683 
L 221.227634 -2947.293966 
L 219.999942 -2944.724249 
L 218.77225 -2942.154532 
L 217.544558 -2939.584815 
L 216.316866 -2937.015098 
L 215.089174 -2934.445381 
L 213.861482 -2931.859263 
L 212.633789 -2928.85561 
L 211.406097 -2925.019174 
L 210.178405 -2922.48971 
L 208.950713 -2919.955296 
L 207.723021 -2917.420882 
L 206.495329 -2914.807035 
L 205.267637 -2911.727216 
L 204.039945 -2908.647397 
L 202.812252 -2905.567577 
L 201.58456 -2902.487758 
L 200.356868 -2899.407938 
L 199.129176 -2896.306965 
L 197.901484 -2893.201985 
L 196.673792 -2890.097006 
L 195.4461 -2886.992026 
L 194.218407 -2883.887047 
L 192.990715 -2880.782068 
L 191.763023 -2877.677088 
L 190.535331 -2874.24539 
L 189.307639 -2870.729737 
L 188.079947 -2867.214084 
L 186.852255 -2863.698431 
L 185.624562 -2860.182779 
L 184.39687 -2856.667126 
L 183.169178 -2853.151473 
L 181.941486 -2849.635821 
L 180.713794 -2846.120168 
L 179.486102 -2842.604515 
L 178.25841 -2839.088863 
L 177.030718 -2835.57321 
L 175.803025 -2832.057557 
L 174.575333 -2828.541905 
L 173.347641 -2825.019155 
L 172.119949 -2821.486015 
L 170.892257 -2817.952875 
L 169.664565 -2814.419734 
L 168.436873 -2810.886594 
L 167.20918 -2807.353454 
L 165.981488 -2803.820314 
L 164.753796 -2800.287173 
L 163.526104 -2796.754033 
L 162.298412 -2793.220893 
L 161.07072 -2789.687753 
L 159.843028 -2786.154612 
L 158.615335 -2782.621472 
L 157.387643 -2779.088332 
L 156.159951 -2775.555192 
L 154.932259 -2772.022051 
L 153.704567 -2768.488911 
L 152.476875 -2764.955771 
L 151.249183 -2761.422631 
L 150.021491 -2757.88949 
L 148.793798 -2754.35635 
L 147.566106 -2750.82321 
L 146.338414 -2747.29007 
L 145.110722 -2743.724758 
L 143.88303 -2739.937763 
L 142.655338 -2736.150769 
L 141.427646 -2732.363774 
L 140.199953 -2728.57678 
L 138.972261 -2724.789786 
L 137.744569 -2721.002791 
L 136.516877 -2717.215797 
z
" clip-path="url(#p236130f699)" style="fill: #fc8d62; fill-opacity: 0.15; stroke: #ffffff; stroke-opacity: 0.15"/>
   </g>
   <g id="line2d_12">
    <path clip-path="url(#p236130f699)" style="fill: none; stroke: #66c2a5; stroke-width: 2.25; stroke-linecap: round"/>
   </g>
   <g id="line2d_13">
    <path clip-path="url(#p236130f699)" style="fill: none; stroke: #fc8d62; stroke-width: 2.25; stroke-linecap: round"/>
   </g>
   <g id="patch_3">
    <path d="M 77.890967 167.22 
L 77.890967 15.126915 
" style="fill: none; stroke: #262626; stroke-width: 1.25; stroke-linejoin: miter; stroke-linecap: square"/>
   </g>
   <g id="patch_4">
    <path d="M 77.890967 167.22 
L 266.6378 167.22 
" style="fill: none; stroke: #262626; stroke-width: 1.25; stroke-linejoin: miter; stroke-linecap: square"/>
   </g>
   <g id="PathCollection_1">
    <defs>
     <path id="med87fd0279" d="M 0 2.738613 
C 0.726289 2.738613 1.422928 2.450055 1.936492 1.936492 
C 2.450055 1.422928 2.738613 0.726289 2.738613 0 
C 2.738613 -0.726289 2.450055 -1.422928 1.936492 -1.936492 
C 1.422928 -2.450055 0.726289 -2.738613 0 -2.738613 
C -0.726289 -2.738613 -1.422928 -2.450055 -1.936492 -1.936492 
C -2.450055 -1.422928 -2.738613 -0.726289 -2.738613 0 
C -2.738613 0.726289 -2.450055 1.422928 -1.936492 1.936492 
C -1.422928 2.450055 -0.726289 2.738613 0 2.738613 
z
" style="stroke: #ffffff; stroke-opacity: 0.8; stroke-width: 0.5"/>
    </defs>
    <g/>
   </g>
   <g id="PathCollection_2">
    <defs>
     <path id="mf38612a537" d="M 0 2.738613 
C 0.726289 2.738613 1.422928 2.450055 1.936492 1.936492 
C 2.450055 1.422928 2.738613 0.726289 2.738613 0 
C 2.738613 -0.726289 2.450055 -1.422928 1.936492 -1.936492 
C 1.422928 -2.450055 0.726289 -2.738613 0 -2.738613 
C -0.726289 -2.738613 -1.422928 -2.450055 -1.936492 -1.936492 
C -2.450055 -1.422928 -2.738613 -0.726289 -2.738613 0 
C -2.738613 0.726289 -2.450055 1.422928 -1.936492 1.936492 
C -1.422928 2.450055 -0.726289 2.738613 0 2.738613 
z
" style="stroke: #ffffff; stroke-opacity: 0.8; stroke-width: 0.5"/>
    </defs>
    <g/>
   </g>
  </g>
  <g id="legend_1">
   <g id="text_14">
    <text style="fill: #262626; font: 12px 'Arial', 'DejaVu Sans', 'Liberation Sans', 'Bitstream Vera Sans', sans-serif; text-anchor: start" x="269.051875" y="95.165312" transform="rotate(-0 269.051875 95.165312)">multiplier</text>
   </g>
   <g id="PathCollection_3">
    <g>
     <use xlink:href="#med87fd0279" x="284.539219" y="108.631719" style="fill: #66c2a5; fill-opacity: 0.8; stroke: #ffffff; stroke-opacity: 0.8; stroke-width: 0.5"/>
    </g>
   </g>
   <g id="text_15">
    <text style="fill: #262626; font: 11px 'Arial', 'DejaVu Sans', 'Liberation Sans', 'Bitstream Vera Sans', sans-serif; text-anchor: start" x="304.339219" y="111.519219" transform="rotate(-0 304.339219 111.519219)">1.5</text>
   </g>
   <g id="PathCollection_4">
    <g>
     <use xlink:href="#mf38612a537" x="284.539219" y="124.777656" style="fill: #fc8d62; fill-opacity: 0.8; stroke: #ffffff; stroke-opacity: 0.8; stroke-width: 0.5"/>
    </g>
   </g>
   <g id="text_16">
    <text style="fill: #262626; font: 11px 'Arial', 'DejaVu Sans', 'Liberation Sans', 'Bitstream Vera Sans', sans-serif; text-anchor: start" x="304.339219" y="127.665156" transform="rotate(-0 304.339219 127.665156)">2.5</text>
   </g>
  </g>
 </g>
 <defs>
  <clipPath id="p236130f699">
   <rect x="77.890967" y="15.126915" width="188.746833" height="152.093085"/>
  </clipPath>
 </defs>
</svg>
