<?xml version="1.0" encoding="utf-8" standalone="no"?>
<!DOCTYPE svg PUBLIC "-//W3C//DTD SVG 1.1//EN"
  "http://www.w3.org/Graphics/SVG/1.1/DTD/svg11.dtd">
<svg xmlns:xlink="http://www.w3.org/1999/xlink" width="335.95pt" height="216pt" viewBox="0 0 335.95 216" xmlns="http://www.w3.org/2000/svg" version="1.1">
 <metadata>
  <rdf:RDF xmlns:dc="http://purl.org/dc/elements/1.1/" xmlns:cc="http://creativecommons.org/ns#" xmlns:rdf="http://www.w3.org/1999/02/22-rdf-syntax-ns#">
   <cc:Work>
    <dc:type rdf:resource="http://purl.org/dc/dcmitype/StillImage"/>
    <dc:date>2023-03-14T19:16:54.376307</dc:date>
    <dc:format>image/svg+xml</dc:format>
    <dc:creator>
     <cc:Agent>
      <dc:title>Matplotlib v3.7.0, https://matplotlib.org/</dc:title>
     </cc:Agent>
    </dc:creator>
   </cc:Work>
  </rdf:RDF>
 </metadata>
 <defs>
  <style type="text/css">*{stroke-linejoin: round; stroke-linecap: butt}</style>
 </defs>
 <g id="figure_1">
  <g id="patch_1">
   <path d="M 0 216 
L 335.95 216 
L 335.95 0 
L 0 0 
z
" style="fill: #ffffff"/>
  </g>
  <g id="axes_1">
   <g id="patch_2">
    <path d="M 79.634148 165.78 
L 266.6405 165.78 
L 266.6405 12.96 
L 79.634148 12.96 
z
" style="fill: #ffffff"/>
   </g>
   <g id="matplotlib.axis_1">
    <g id="xtick_1">
     <g id="line2d_1">
      <defs>
       <path id="m677dcf13a6" d="M 0 0 
L 0 6 
" style="stroke: #262626; stroke-width: 1.25"/>
      </defs>
      <g>
       <use xlink:href="#m677dcf13a6" x="88.134437" y="165.78" style="fill: #262626; stroke: #262626; stroke-width: 1.25"/>
      </g>
     </g>
     <g id="text_1">
      <text style="fill: #262626; font: 11px 'Arial', 'DejaVu Sans', 'Liberation Sans', 'Bitstream Vera Sans', sans-serif; text-anchor: middle" x="88.134437" y="183.638281" transform="rotate(-0 88.134437 183.638281)">0.00</text>
     </g>
    </g>
    <g id="xtick_2">
     <g id="line2d_2">
      <g>
       <use xlink:href="#m677dcf13a6" x="130.63588" y="165.78" style="fill: #262626; stroke: #262626; stroke-width: 1.25"/>
      </g>
     </g>
     <g id="text_2">
      <text style="fill: #262626; font: 11px 'Arial', 'DejaVu Sans', 'Liberation Sans', 'Bitstream Vera Sans', sans-serif; text-anchor: middle" x="130.63588" y="183.638281" transform="rotate(-0 130.63588 183.638281)">0.25</text>
     </g>
    </g>
    <g id="xtick_3">
     <g id="line2d_3">
      <g>
       <use xlink:href="#m677dcf13a6" x="173.137324" y="165.78" style="fill: #262626; stroke: #262626; stroke-width: 1.25"/>
      </g>
     </g>
     <g id="text_3">
      <text style="fill: #262626; font: 11px 'Arial', 'DejaVu Sans', 'Liberation Sans', 'Bitstream Vera Sans', sans-serif; text-anchor: middle" x="173.137324" y="183.638281" transform="rotate(-0 173.137324 183.638281)">0.50</text>
     </g>
    </g>
    <g id="xtick_4">
     <g id="line2d_4">
      <g>
       <use xlink:href="#m677dcf13a6" x="215.638768" y="165.78" style="fill: #262626; stroke: #262626; stroke-width: 1.25"/>
      </g>
     </g>
     <g id="text_4">
      <text style="fill: #262626; font: 11px 'Arial', 'DejaVu Sans', 'Liberation Sans', 'Bitstream Vera Sans', sans-serif; text-anchor: middle" x="215.638768" y="183.638281" transform="rotate(-0 215.638768 183.638281)">0.75</text>
     </g>
    </g>
    <g id="xtick_5">
     <g id="line2d_5">
      <g>
       <use xlink:href="#m677dcf13a6" x="258.140211" y="165.78" style="fill: #262626; stroke: #262626; stroke-width: 1.25"/>
      </g>
     </g>
     <g id="text_5">
      <text style="fill: #262626; font: 11px 'Arial', 'DejaVu Sans', 'Liberation Sans', 'Bitstream Vera Sans', sans-serif; text-anchor: middle" x="258.140211" y="183.638281" transform="rotate(-0 258.140211 183.638281)">1.00</text>
     </g>
    </g>
    <g id="text_6">
     <text style="fill: #262626; font: 12px 'Arial', 'DejaVu Sans', 'Liberation Sans', 'Bitstream Vera Sans', sans-serif; text-anchor: middle" x="173.137324" y="199.044062" transform="rotate(-0 173.137324 199.044062)">p(disclose)</text>
    </g>
   </g>
   <g id="matplotlib.axis_2">
    <g id="ytick_1">
     <g id="line2d_6">
      <defs>
       <path id="m048e256555" d="M 0 0 
L -6 0 
" style="stroke: #262626; stroke-width: 1.25"/>
      </defs>
      <g>
       <use xlink:href="#m048e256555" x="79.634148" y="133.574132" style="fill: #262626; stroke: #262626; stroke-width: 1.25"/>
      </g>
     </g>
     <g id="text_7">
      <text style="fill: #262626; font: 11px 'Arial', 'DejaVu Sans', 'Liberation Sans', 'Bitstream Vera Sans', sans-serif; text-anchor: end" x="70.134148" y="137.753273" transform="rotate(-0 70.134148 137.753273)">0.65</text>
     </g>
    </g>
    <g id="ytick_2">
     <g id="line2d_7">
      <g>
       <use xlink:href="#m048e256555" x="79.634148" y="95.684876" style="fill: #262626; stroke: #262626; stroke-width: 1.25"/>
      </g>
     </g>
     <g id="text_8">
      <text style="fill: #262626; font: 11px 'Arial', 'DejaVu Sans', 'Liberation Sans', 'Bitstream Vera Sans', sans-serif; text-anchor: end" x="70.134148" y="99.864017" transform="rotate(-0 70.134148 99.864017)">0.70</text>
     </g>
    </g>
    <g id="ytick_3">
     <g id="line2d_8">
      <g>
       <use xlink:href="#m048e256555" x="79.634148" y="57.79562" style="fill: #262626; stroke: #262626; stroke-width: 1.25"/>
      </g>
     </g>
     <g id="text_9">
      <text style="fill: #262626; font: 11px 'Arial', 'DejaVu Sans', 'Liberation Sans', 'Bitstream Vera Sans', sans-serif; text-anchor: end" x="70.134148" y="61.97476" transform="rotate(-0 70.134148 61.97476)">0.75</text>
     </g>
    </g>
    <g id="ytick_4">
     <g id="line2d_9">
      <g>
       <use xlink:href="#m048e256555" x="79.634148" y="19.906364" style="fill: #262626; stroke: #262626; stroke-width: 1.25"/>
      </g>
     </g>
     <g id="text_10">
      <text style="fill: #262626; font: 11px 'Arial', 'DejaVu Sans', 'Liberation Sans', 'Bitstream Vera Sans', sans-serif; text-anchor: end" x="70.134148" y="24.085504" transform="rotate(-0 70.134148 24.085504)">0.80</text>
     </g>
    </g>
    <g id="text_11">
     <text style="fill: #262626; font: 12px 'Arial', 'DejaVu Sans', 'Liberation Sans', 'Bitstream Vera Sans', sans-serif; text-anchor: middle" x="38.812585" y="89.37" transform="rotate(-90 38.812585 89.37)">norm_payoff</text>
    </g>
   </g>
   <g id="PolyCollection_1">
    <defs>
     <path id="m7309278944" d="M 88.134437 -176.52473 
L 88.134437 -109.586305 
L 89.851667 -109.694135 
L 91.568897 -109.833203 
L 93.286127 -109.884573 
L 95.003357 -109.981235 
L 96.720587 -110.077896 
L 98.437817 -110.181229 
L 100.155047 -110.351274 
L 101.872277 -110.531119 
L 103.589507 -110.583912 
L 105.306737 -110.636704 
L 107.023967 -110.689497 
L 108.741197 -110.78132 
L 110.458427 -110.879722 
L 112.175657 -110.981352 
L 113.892887 -111.177806 
L 115.610117 -111.381806 
L 117.327347 -111.534931 
L 119.044577 -111.588247 
L 120.761808 -111.599397 
L 122.479038 -111.621143 
L 124.196268 -111.694403 
L 125.913498 -111.776934 
L 127.630728 -111.877092 
L 129.347958 -111.97725 
L 131.065188 -112.004169 
L 132.782418 -111.963512 
L 134.499648 -111.922854 
L 136.216878 -111.882196 
L 137.934108 -111.964024 
L 139.651338 -112.12375 
L 141.368568 -112.141144 
L 143.085798 -112.113931 
L 144.803028 -112.084352 
L 146.520258 -112.202786 
L 148.237488 -112.348159 
L 149.954718 -112.727138 
L 151.671948 -112.748888 
L 153.389178 -112.606584 
L 155.106408 -112.537671 
L 156.823639 -112.432999 
L 158.540869 -112.504297 
L 160.258099 -112.285602 
L 161.975329 -112.315515 
L 163.692559 -112.027166 
L 165.409789 -111.994712 
L 167.127019 -111.986977 
L 168.844249 -111.850741 
L 170.561479 -111.8555 
L 172.278709 -111.718649 
L 173.995939 -111.638886 
L 175.713169 -111.514416 
L 177.430399 -111.452615 
L 179.147629 -111.317205 
L 180.864859 -111.088021 
L 182.582089 -110.997986 
L 184.299319 -110.753145 
L 186.016549 -110.709756 
L 187.733779 -110.540372 
L 189.451009 -110.22668 
L 191.168239 -110.186726 
L 192.885469 -109.917204 
L 194.6027 -109.598957 
L 196.31993 -109.337031 
L 198.03716 -109.041747 
L 199.75439 -108.722074 
L 201.47162 -108.573041 
L 203.18885 -108.358844 
L 204.90608 -107.901055 
L 206.62331 -107.573516 
L 208.34054 -107.217075 
L 210.05777 -106.900488 
L 211.775 -106.482329 
L 213.49223 -106.108934 
L 215.20946 -105.462148 
L 216.92669 -104.899879 
L 218.64392 -104.597378 
L 220.36115 -104.29033 
L 222.07838 -103.898872 
L 223.79561 -103.209919 
L 225.51284 -102.512608 
L 227.23007 -102.015758 
L 228.9473 -101.469853 
L 230.664531 -100.967985 
L 232.381761 -100.384096 
L 234.098991 -99.887239 
L 235.816221 -99.3195 
L 237.533451 -98.70909 
L 239.250681 -98.099195 
L 240.967911 -97.453199 
L 242.685141 -96.879406 
L 244.402371 -96.279555 
L 246.119601 -95.6578 
L 247.836831 -95.002663 
L 249.554061 -94.248961 
L 251.271291 -93.561275 
L 252.988521 -92.875996 
L 254.705751 -92.407773 
L 256.422981 -91.983638 
L 258.140211 -91.225662 
L 258.140211 -131.776433 
L 258.140211 -131.776433 
L 256.422981 -131.800235 
L 254.705751 -131.670255 
L 252.988521 -131.53457 
L 251.271291 -131.398886 
L 249.554061 -131.296465 
L 247.836831 -131.19255 
L 246.119601 -131.172053 
L 244.402371 -131.076478 
L 242.685141 -131.050583 
L 240.967911 -130.881887 
L 239.250681 -130.757089 
L 237.533451 -130.730076 
L 235.816221 -130.627967 
L 234.098991 -130.495553 
L 232.381761 -130.373781 
L 230.664531 -130.354801 
L 228.9473 -130.451803 
L 227.23007 -130.324991 
L 225.51284 -130.439944 
L 223.79561 -130.463505 
L 222.07838 -130.725595 
L 220.36115 -130.990773 
L 218.64392 -131.038263 
L 216.92669 -131.274429 
L 215.20946 -131.384593 
L 213.49223 -131.94568 
L 211.775 -132.249714 
L 210.05777 -132.399889 
L 208.34054 -132.555506 
L 206.62331 -132.881548 
L 204.90608 -133.241628 
L 203.18885 -133.645676 
L 201.47162 -133.91101 
L 199.75439 -134.271429 
L 198.03716 -134.805175 
L 196.31993 -135.291896 
L 194.6027 -135.683068 
L 192.885469 -136.013712 
L 191.168239 -136.392271 
L 189.451009 -136.892542 
L 187.733779 -137.231445 
L 186.016549 -137.904292 
L 184.299319 -138.412312 
L 182.582089 -138.813942 
L 180.864859 -139.326948 
L 179.147629 -139.933385 
L 177.430399 -140.570009 
L 175.713169 -141.168483 
L 173.995939 -141.887642 
L 172.278709 -142.459682 
L 170.561479 -143.127946 
L 168.844249 -143.800107 
L 167.127019 -144.392397 
L 165.409789 -144.934303 
L 163.692559 -145.444785 
L 161.975329 -146.075978 
L 160.258099 -146.817278 
L 158.540869 -147.556131 
L 156.823639 -148.246161 
L 155.106408 -148.908525 
L 153.389178 -149.556251 
L 151.671948 -150.198062 
L 149.954718 -150.740021 
L 148.237488 -151.452902 
L 146.520258 -152.131048 
L 144.803028 -152.777618 
L 143.085798 -153.424188 
L 141.368568 -154.083059 
L 139.651338 -154.806831 
L 137.934108 -155.543346 
L 136.216878 -156.325984 
L 134.499648 -156.928624 
L 132.782418 -157.55896 
L 131.065188 -158.108702 
L 129.347958 -158.782144 
L 127.630728 -159.635998 
L 125.913498 -160.489851 
L 124.196268 -161.317963 
L 122.479038 -161.963691 
L 120.761808 -162.506573 
L 119.044577 -163.284082 
L 117.327347 -164.102486 
L 115.610117 -164.920891 
L 113.892887 -165.663321 
L 112.175657 -166.387175 
L 110.458427 -167.110947 
L 108.741197 -167.834719 
L 107.023967 -168.55849 
L 105.306737 -169.282262 
L 103.589507 -170.032961 
L 101.872277 -170.746986 
L 100.155047 -171.453576 
L 98.437817 -172.176261 
L 96.720587 -172.891122 
L 95.003357 -173.605982 
L 93.286127 -174.320843 
L 91.568897 -175.035704 
L 89.851667 -175.79854 
L 88.134437 -176.52473 
z
" style="stroke: #ffffff; stroke-opacity: 0.15"/>
    </defs>
    <g clip-path="url(#p942bdd5e30)">
     <use xlink:href="#m7309278944" x="0" y="216" style="fill: #66c2a5; fill-opacity: 0.15; stroke: #ffffff; stroke-opacity: 0.15"/>
    </g>
   </g>
   <g id="PolyCollection_2">
    <defs>
     <path id="m0e9a2e3f90" d="M 88.134437 -160.748851 
L 88.134437 -91.155069 
L 89.851667 -92.031825 
L 91.568897 -92.90858 
L 93.286127 -93.817204 
L 95.003357 -94.748694 
L 96.720587 -95.629381 
L 98.437817 -96.442108 
L 100.155047 -97.284964 
L 101.872277 -98.159834 
L 103.589507 -99.036239 
L 105.306737 -99.90927 
L 107.023967 -100.647292 
L 108.741197 -101.427791 
L 110.458427 -102.308463 
L 112.175657 -103.273586 
L 113.892887 -104.238708 
L 115.610117 -105.149804 
L 117.327347 -106.023131 
L 119.044577 -106.896457 
L 120.761808 -107.770977 
L 122.479038 -108.64555 
L 124.196268 -109.520123 
L 125.913498 -110.394696 
L 127.630728 -111.269269 
L 129.347958 -112.144382 
L 131.065188 -113.020833 
L 132.782418 -113.897285 
L 134.499648 -114.773736 
L 136.216878 -115.650188 
L 137.934108 -116.526639 
L 139.651338 -117.40309 
L 141.368568 -118.279542 
L 143.085798 -119.155993 
L 144.803028 -120.032445 
L 146.520258 -120.908896 
L 148.237488 -121.785348 
L 149.954718 -122.661799 
L 151.671948 -123.538251 
L 153.389178 -124.257185 
L 155.106408 -125.098955 
L 156.823639 -126.00852 
L 158.540869 -126.918965 
L 160.258099 -127.838706 
L 161.975329 -128.758448 
L 163.692559 -129.639378 
L 165.409789 -130.482327 
L 167.127019 -131.129403 
L 168.844249 -131.776478 
L 170.561479 -132.423554 
L 172.278709 -133.07063 
L 173.995939 -133.717706 
L 175.713169 -134.429065 
L 177.430399 -135.083999 
L 179.147629 -136.006618 
L 180.864859 -136.930471 
L 182.582089 -137.772659 
L 184.299319 -138.464004 
L 186.016549 -139.154136 
L 187.733779 -139.836593 
L 189.451009 -140.413901 
L 191.168239 -140.992122 
L 192.885469 -141.651578 
L 194.6027 -142.145822 
L 196.31993 -142.676776 
L 198.03716 -143.38509 
L 199.75439 -144.296128 
L 201.47162 -144.944014 
L 203.18885 -145.734767 
L 204.90608 -146.271881 
L 206.62331 -146.488594 
L 208.34054 -146.984325 
L 210.05777 -147.443217 
L 211.775 -147.966945 
L 213.49223 -148.501218 
L 215.20946 -148.851849 
L 216.92669 -149.177363 
L 218.64392 -149.331276 
L 220.36115 -149.556294 
L 222.07838 -149.995746 
L 223.79561 -150.61327 
L 225.51284 -150.697149 
L 227.23007 -150.81178 
L 228.9473 -151.086126 
L 230.664531 -151.294539 
L 232.381761 -151.531345 
L 234.098991 -151.651344 
L 235.816221 -151.771083 
L 237.533451 -151.967273 
L 239.250681 -152.237621 
L 240.967911 -152.337757 
L 242.685141 -152.437893 
L 244.402371 -152.538029 
L 246.119601 -152.639916 
L 247.836831 -152.761251 
L 249.554061 -152.839507 
L 251.271291 -152.940835 
L 252.988521 -153.039787 
L 254.705751 -153.290706 
L 256.422981 -153.456153 
L 258.140211 -153.40442 
L 258.140211 -180.492169 
L 258.140211 -180.492169 
L 256.422981 -179.838758 
L 254.705751 -179.327453 
L 252.988521 -178.882041 
L 251.271291 -178.342836 
L 249.554061 -177.743927 
L 247.836831 -177.035035 
L 246.119601 -176.3615 
L 244.402371 -175.917552 
L 242.685141 -175.342068 
L 240.967911 -174.887623 
L 239.250681 -174.437603 
L 237.533451 -173.978734 
L 235.816221 -173.416769 
L 234.098991 -172.936797 
L 232.381761 -172.456825 
L 230.664531 -172.135559 
L 228.9473 -171.847534 
L 227.23007 -171.419682 
L 225.51284 -171.077296 
L 223.79561 -170.895757 
L 222.07838 -170.549457 
L 220.36115 -170.184487 
L 218.64392 -169.938028 
L 216.92669 -169.766862 
L 215.20946 -169.560102 
L 213.49223 -169.353343 
L 211.775 -169.198968 
L 210.05777 -168.967248 
L 208.34054 -168.776542 
L 206.62331 -168.589826 
L 204.90608 -168.380626 
L 203.18885 -168.093509 
L 201.47162 -167.881247 
L 199.75439 -167.531852 
L 198.03716 -167.178769 
L 196.31993 -166.825686 
L 194.6027 -166.546952 
L 192.885469 -166.374029 
L 191.168239 -166.201106 
L 189.451009 -166.028182 
L 187.733779 -165.852448 
L 186.016549 -165.674923 
L 184.299319 -165.414978 
L 182.582089 -165.291386 
L 180.864859 -165.158689 
L 179.147629 -164.987778 
L 177.430399 -164.786997 
L 175.713169 -164.618752 
L 173.995939 -164.450506 
L 172.278709 -164.28226 
L 170.561479 -164.114014 
L 168.844249 -163.945768 
L 167.127019 -163.856365 
L 165.409789 -163.775035 
L 163.692559 -163.713185 
L 161.975329 -163.610422 
L 160.258099 -163.526738 
L 158.540869 -163.445728 
L 156.823639 -163.363503 
L 155.106408 -163.279037 
L 153.389178 -163.107305 
L 151.671948 -163.094439 
L 149.954718 -163.031805 
L 148.237488 -162.927033 
L 146.520258 -162.865488 
L 144.803028 -162.783666 
L 143.085798 -162.695726 
L 141.368568 -162.522255 
L 139.651338 -162.348716 
L 137.934108 -162.175178 
L 136.216878 -162.227301 
L 134.499648 -162.280754 
L 132.782418 -162.207034 
L 131.065188 -162.127841 
L 129.347958 -162.044934 
L 127.630728 -161.981025 
L 125.913498 -161.971957 
L 124.196268 -161.807386 
L 122.479038 -161.689877 
L 120.761808 -161.47521 
L 119.044577 -161.310997 
L 117.327347 -161.194364 
L 115.610117 -161.134976 
L 113.892887 -161.125491 
L 112.175657 -161.061954 
L 110.458427 -161.059025 
L 108.741197 -161.05575 
L 107.023967 -160.972602 
L 105.306737 -160.963582 
L 103.589507 -160.956527 
L 101.872277 -160.949471 
L 100.155047 -160.942415 
L 98.437817 -160.935359 
L 96.720587 -160.928304 
L 95.003357 -160.920699 
L 93.286127 -160.886081 
L 91.568897 -160.830692 
L 89.851667 -160.815242 
L 88.134437 -160.748851 
z
" style="stroke: #ffffff; stroke-opacity: 0.15"/>
    </defs>
    <g clip-path="url(#p942bdd5e30)">
     <use xlink:href="#m0e9a2e3f90" x="0" y="216" style="fill: #fc8d62; fill-opacity: 0.15; stroke: #ffffff; stroke-opacity: 0.15"/>
    </g>
   </g>
   <g id="line2d_10">
    <path d="M 88.134437 73.093491 
L 89.851667 73.42235 
L 91.568897 73.751208 
L 93.286127 74.080066 
L 95.003357 74.408924 
L 96.720587 74.737783 
L 98.437817 75.066641 
L 100.155047 75.395499 
L 101.872277 75.724357 
L 103.589507 76.053216 
L 105.306737 76.382074 
L 107.023967 76.710932 
L 108.741197 77.03979 
L 110.458427 77.368649 
L 112.175657 77.697507 
L 113.892887 78.026365 
L 115.610117 78.355223 
L 117.327347 78.684082 
L 119.044577 79.01294 
L 120.761808 79.341798 
L 122.479038 79.670656 
L 124.196268 79.999515 
L 125.913498 80.328373 
L 127.630728 80.657231 
L 129.347958 80.98609 
L 131.065188 81.314948 
L 132.782418 81.643806 
L 134.499648 81.972664 
L 136.216878 82.301523 
L 137.934108 82.630381 
L 139.651338 82.959239 
L 141.368568 83.288097 
L 143.085798 83.616956 
L 144.803028 83.945814 
L 146.520258 84.274672 
L 148.237488 84.60353 
L 149.954718 84.932389 
L 151.671948 85.261247 
L 153.389178 85.590105 
L 155.106408 85.918963 
L 156.823639 86.247822 
L 158.540869 86.57668 
L 160.258099 86.905538 
L 161.975329 87.234396 
L 163.692559 87.563255 
L 165.409789 87.892113 
L 167.127019 88.220971 
L 168.844249 88.549829 
L 170.561479 88.878688 
L 172.278709 89.207546 
L 173.995939 89.536404 
L 175.713169 89.865262 
L 177.430399 90.194121 
L 179.147629 90.522979 
L 180.864859 90.851837 
L 182.582089 91.180695 
L 184.299319 91.509554 
L 186.016549 91.838412 
L 187.733779 92.16727 
L 189.451009 92.496128 
L 191.168239 92.824987 
L 192.885469 93.153845 
L 194.6027 93.482703 
L 196.31993 93.811561 
L 198.03716 94.14042 
L 199.75439 94.469278 
L 201.47162 94.798136 
L 203.18885 95.126994 
L 204.90608 95.455853 
L 206.62331 95.784711 
L 208.34054 96.113569 
L 210.05777 96.442427 
L 211.775 96.771286 
L 213.49223 97.100144 
L 215.20946 97.429002 
L 216.92669 97.75786 
L 218.64392 98.086719 
L 220.36115 98.415577 
L 222.07838 98.744435 
L 223.79561 99.073293 
L 225.51284 99.402152 
L 227.23007 99.73101 
L 228.9473 100.059868 
L 230.664531 100.388727 
L 232.381761 100.717585 
L 234.098991 101.046443 
L 235.816221 101.375301 
L 237.533451 101.70416 
L 239.250681 102.033018 
L 240.967911 102.361876 
L 242.685141 102.690734 
L 244.402371 103.019593 
L 246.119601 103.348451 
L 247.836831 103.677309 
L 249.554061 104.006167 
L 251.271291 104.335026 
L 252.988521 104.663884 
L 254.705751 104.992742 
L 256.422981 105.3216 
L 258.140211 105.650459 
" clip-path="url(#p942bdd5e30)" style="fill: none; stroke: #66c2a5; stroke-width: 2.25; stroke-linecap: round"/>
   </g>
   <g id="line2d_11">
    <path d="M 88.134437 80.794149 
L 89.851667 80.463263 
L 91.568897 80.132376 
L 93.286127 79.80149 
L 95.003357 79.470604 
L 96.720587 79.139718 
L 98.437817 78.808832 
L 100.155047 78.477946 
L 101.872277 78.14706 
L 103.589507 77.816174 
L 105.306737 77.485287 
L 107.023967 77.154401 
L 108.741197 76.823515 
L 110.458427 76.492629 
L 112.175657 76.161743 
L 113.892887 75.830857 
L 115.610117 75.499971 
L 117.327347 75.169085 
L 119.044577 74.838198 
L 120.761808 74.507312 
L 122.479038 74.176426 
L 124.196268 73.84554 
L 125.913498 73.514654 
L 127.630728 73.183768 
L 129.347958 72.852882 
L 131.065188 72.521995 
L 132.782418 72.191109 
L 134.499648 71.860223 
L 136.216878 71.529337 
L 137.934108 71.198451 
L 139.651338 70.867565 
L 141.368568 70.536679 
L 143.085798 70.205793 
L 144.803028 69.874906 
L 146.520258 69.54402 
L 148.237488 69.213134 
L 149.954718 68.882248 
L 151.671948 68.551362 
L 153.389178 68.220476 
L 155.106408 67.88959 
L 156.823639 67.558704 
L 158.540869 67.227817 
L 160.258099 66.896931 
L 161.975329 66.566045 
L 163.692559 66.235159 
L 165.409789 65.904273 
L 167.127019 65.573387 
L 168.844249 65.242501 
L 170.561479 64.911615 
L 172.278709 64.580728 
L 173.995939 64.249842 
L 175.713169 63.918956 
L 177.430399 63.58807 
L 179.147629 63.257184 
L 180.864859 62.926298 
L 182.582089 62.595412 
L 184.299319 62.264526 
L 186.016549 61.933639 
L 187.733779 61.602753 
L 189.451009 61.271867 
L 191.168239 60.940981 
L 192.885469 60.610095 
L 194.6027 60.279209 
L 196.31993 59.948323 
L 198.03716 59.617436 
L 199.75439 59.28655 
L 201.47162 58.955664 
L 203.18885 58.624778 
L 204.90608 58.293892 
L 206.62331 57.963006 
L 208.34054 57.63212 
L 210.05777 57.301234 
L 211.775 56.970347 
L 213.49223 56.639461 
L 215.20946 56.308575 
L 216.92669 55.977689 
L 218.64392 55.646803 
L 220.36115 55.315917 
L 222.07838 54.985031 
L 223.79561 54.654145 
L 225.51284 54.323258 
L 227.23007 53.992372 
L 228.9473 53.661486 
L 230.664531 53.3306 
L 232.381761 52.999714 
L 234.098991 52.668828 
L 235.816221 52.337942 
L 237.533451 52.007056 
L 239.250681 51.676169 
L 240.967911 51.345283 
L 242.685141 51.014397 
L 244.402371 50.683511 
L 246.119601 50.352625 
L 247.836831 50.021739 
L 249.554061 49.690853 
L 251.271291 49.359967 
L 252.988521 49.02908 
L 254.705751 48.698194 
L 256.422981 48.367308 
L 258.140211 48.036422 
" clip-path="url(#p942bdd5e30)" style="fill: none; stroke: #fc8d62; stroke-width: 2.25; stroke-linecap: round"/>
   </g>
   <g id="patch_3">
    <path d="M 79.634148 133.574132 
L 79.634148 19.906364 
" style="fill: none; stroke: #262626; stroke-width: 1.25; stroke-linejoin: miter; stroke-linecap: square"/>
   </g>
   <g id="patch_4">
    <path d="M 88.134437 165.78 
L 258.140211 165.78 
" style="fill: none; stroke: #262626; stroke-width: 1.25; stroke-linejoin: miter; stroke-linecap: square"/>
   </g>
   <g id="PathCollection_1">
    <defs>
     <path id="m9ee2f8aec0" d="M 0 2.738613 
C 0.726289 2.738613 1.422928 2.450055 1.936492 1.936492 
C 2.450055 1.422928 2.738613 0.726289 2.738613 0 
C 2.738613 -0.726289 2.450055 -1.422928 1.936492 -1.936492 
C 1.422928 -2.450055 0.726289 -2.738613 0 -2.738613 
C -0.726289 -2.738613 -1.422928 -2.450055 -1.936492 -1.936492 
C -2.450055 -1.422928 -2.738613 -0.726289 -2.738613 0 
C -2.738613 0.726289 -2.450055 1.422928 -1.936492 1.936492 
C -1.422928 2.450055 -0.726289 2.738613 0 2.738613 
z
" style="stroke: #ffffff; stroke-opacity: 0.8; stroke-width: 0.5"/>
    </defs>
    <g>
     <use xlink:href="#m9ee2f8aec0" x="139.136169" y="99.894793" style="fill: #66c2a5; fill-opacity: 0.8; stroke: #ffffff; stroke-opacity: 0.8; stroke-width: 0.5"/>
     <use xlink:href="#m9ee2f8aec0" x="246.806493" y="149.150826" style="fill: #66c2a5; fill-opacity: 0.8; stroke: #ffffff; stroke-opacity: 0.8; stroke-width: 0.5"/>
     <use xlink:href="#m9ee2f8aec0" x="204.305049" y="110.419587" style="fill: #66c2a5; fill-opacity: 0.8; stroke: #ffffff; stroke-opacity: 0.8; stroke-width: 0.5"/>
     <use xlink:href="#m9ee2f8aec0" x="99.468155" y="42.218926" style="fill: #66c2a5; fill-opacity: 0.8; stroke: #ffffff; stroke-opacity: 0.8; stroke-width: 0.5"/>
     <use xlink:href="#m9ee2f8aec0" x="122.135592" y="48.11281" style="fill: #66c2a5; fill-opacity: 0.8; stroke: #ffffff; stroke-opacity: 0.8; stroke-width: 0.5"/>
     <use xlink:href="#m9ee2f8aec0" x="252.473352" y="100.736777" style="fill: #66c2a5; fill-opacity: 0.8; stroke: #ffffff; stroke-opacity: 0.8; stroke-width: 0.5"/>
     <use xlink:href="#m9ee2f8aec0" x="187.304472" y="73.793306" style="fill: #66c2a5; fill-opacity: 0.8; stroke: #ffffff; stroke-opacity: 0.8; stroke-width: 0.5"/>
     <use xlink:href="#m9ee2f8aec0" x="226.972486" y="53.164711" style="fill: #66c2a5; fill-opacity: 0.8; stroke: #ffffff; stroke-opacity: 0.8; stroke-width: 0.5"/>
     <use xlink:href="#m9ee2f8aec0" x="241.139634" y="48.954793" style="fill: #66c2a5; fill-opacity: 0.8; stroke: #ffffff; stroke-opacity: 0.8; stroke-width: 0.5"/>
     <use xlink:href="#m9ee2f8aec0" x="192.971331" y="92.737934" style="fill: #66c2a5; fill-opacity: 0.8; stroke: #ffffff; stroke-opacity: 0.8; stroke-width: 0.5"/>
     <use xlink:href="#m9ee2f8aec0" x="167.470465" y="64.531488" style="fill: #66c2a5; fill-opacity: 0.8; stroke: #ffffff; stroke-opacity: 0.8; stroke-width: 0.5"/>
     <use xlink:href="#m9ee2f8aec0" x="258.140211" y="158.833636" style="fill: #66c2a5; fill-opacity: 0.8; stroke: #ffffff; stroke-opacity: 0.8; stroke-width: 0.5"/>
     <use xlink:href="#m9ee2f8aec0" x="235.472775" y="128.10124" style="fill: #66c2a5; fill-opacity: 0.8; stroke: #ffffff; stroke-opacity: 0.8; stroke-width: 0.5"/>
     <use xlink:href="#m9ee2f8aec0" x="139.136169" y="62.426529" style="fill: #66c2a5; fill-opacity: 0.8; stroke: #ffffff; stroke-opacity: 0.8; stroke-width: 0.5"/>
     <use xlink:href="#m9ee2f8aec0" x="164.637035" y="60.742562" style="fill: #66c2a5; fill-opacity: 0.8; stroke: #ffffff; stroke-opacity: 0.8; stroke-width: 0.5"/>
     <use xlink:href="#m9ee2f8aec0" x="258.140211" y="151.255785" style="fill: #66c2a5; fill-opacity: 0.8; stroke: #ffffff; stroke-opacity: 0.8; stroke-width: 0.5"/>
     <use xlink:href="#m9ee2f8aec0" x="102.301585" y="95.263884" style="fill: #66c2a5; fill-opacity: 0.8; stroke: #ffffff; stroke-opacity: 0.8; stroke-width: 0.5"/>
     <use xlink:href="#m9ee2f8aec0" x="88.134437" y="158.833636" style="fill: #66c2a5; fill-opacity: 0.8; stroke: #ffffff; stroke-opacity: 0.8; stroke-width: 0.5"/>
     <use xlink:href="#m9ee2f8aec0" x="232.639345" y="99.473802" style="fill: #66c2a5; fill-opacity: 0.8; stroke: #ffffff; stroke-opacity: 0.8; stroke-width: 0.5"/>
     <use xlink:href="#m9ee2f8aec0" x="184.471042" y="128.10124" style="fill: #66c2a5; fill-opacity: 0.8; stroke: #ffffff; stroke-opacity: 0.8; stroke-width: 0.5"/>
     <use xlink:href="#m9ee2f8aec0" x="258.140211" y="120.102397" style="fill: #66c2a5; fill-opacity: 0.8; stroke: #ffffff; stroke-opacity: 0.8; stroke-width: 0.5"/>
     <use xlink:href="#m9ee2f8aec0" x="249.639923" y="77.16124" style="fill: #66c2a5; fill-opacity: 0.8; stroke: #ffffff; stroke-opacity: 0.8; stroke-width: 0.5"/>
     <use xlink:href="#m9ee2f8aec0" x="99.468155" y="24.116281" style="fill: #66c2a5; fill-opacity: 0.8; stroke: #ffffff; stroke-opacity: 0.8; stroke-width: 0.5"/>
     <use xlink:href="#m9ee2f8aec0" x="255.306782" y="86.84405" style="fill: #66c2a5; fill-opacity: 0.8; stroke: #ffffff; stroke-opacity: 0.8; stroke-width: 0.5"/>
     <use xlink:href="#m9ee2f8aec0" x="102.301585" y="107.472645" style="fill: #66c2a5; fill-opacity: 0.8; stroke: #ffffff; stroke-opacity: 0.8; stroke-width: 0.5"/>
     <use xlink:href="#m9ee2f8aec0" x="181.637613" y="111.26157" style="fill: #66c2a5; fill-opacity: 0.8; stroke: #ffffff; stroke-opacity: 0.8; stroke-width: 0.5"/>
     <use xlink:href="#m9ee2f8aec0" x="218.472197" y="48.11281" style="fill: #66c2a5; fill-opacity: 0.8; stroke: #ffffff; stroke-opacity: 0.8; stroke-width: 0.5"/>
     <use xlink:href="#m9ee2f8aec0" x="258.140211" y="99.894793" style="fill: #66c2a5; fill-opacity: 0.8; stroke: #ffffff; stroke-opacity: 0.8; stroke-width: 0.5"/>
    </g>
   </g>
   <g id="PathCollection_2">
    <defs>
     <path id="m386554e9b1" d="M 0 2.738613 
C 0.726289 2.738613 1.422928 2.450055 1.936492 1.936492 
C 2.450055 1.422928 2.738613 0.726289 2.738613 0 
C 2.738613 -0.726289 2.450055 -1.422928 1.936492 -1.936492 
C 1.422928 -2.450055 0.726289 -2.738613 0 -2.738613 
C -0.726289 -2.738613 -1.422928 -2.450055 -1.936492 -1.936492 
C -2.450055 -1.422928 -2.738613 -0.726289 -2.738613 0 
C -2.738613 0.726289 -2.450055 1.422928 -1.936492 1.936492 
C -1.422928 2.450055 -0.726289 2.738613 0 2.738613 
z
" style="stroke: #ffffff; stroke-opacity: 0.8; stroke-width: 0.5"/>
    </defs>
    <g>
     <use xlink:href="#m386554e9b1" x="249.639923" y="22.432314" style="fill: #fc8d62; fill-opacity: 0.8; stroke: #ffffff; stroke-opacity: 0.8; stroke-width: 0.5"/>
     <use xlink:href="#m386554e9b1" x="238.306204" y="26.642231" style="fill: #fc8d62; fill-opacity: 0.8; stroke: #ffffff; stroke-opacity: 0.8; stroke-width: 0.5"/>
     <use xlink:href="#m386554e9b1" x="258.140211" y="19.906364" style="fill: #fc8d62; fill-opacity: 0.8; stroke: #ffffff; stroke-opacity: 0.8; stroke-width: 0.5"/>
     <use xlink:href="#m386554e9b1" x="164.637035" y="125.575289" style="fill: #fc8d62; fill-opacity: 0.8; stroke: #ffffff; stroke-opacity: 0.8; stroke-width: 0.5"/>
     <use xlink:href="#m386554e9b1" x="88.134437" y="35.483058" style="fill: #fc8d62; fill-opacity: 0.8; stroke: #ffffff; stroke-opacity: 0.8; stroke-width: 0.5"/>
     <use xlink:href="#m386554e9b1" x="212.805338" y="96.105868" style="fill: #fc8d62; fill-opacity: 0.8; stroke: #ffffff; stroke-opacity: 0.8; stroke-width: 0.5"/>
     <use xlink:href="#m386554e9b1" x="88.134437" y="88.107025" style="fill: #fc8d62; fill-opacity: 0.8; stroke: #ffffff; stroke-opacity: 0.8; stroke-width: 0.5"/>
     <use xlink:href="#m386554e9b1" x="252.473352" y="72.951322" style="fill: #fc8d62; fill-opacity: 0.8; stroke: #ffffff; stroke-opacity: 0.8; stroke-width: 0.5"/>
     <use xlink:href="#m386554e9b1" x="153.303317" y="74.635289" style="fill: #fc8d62; fill-opacity: 0.8; stroke: #ffffff; stroke-opacity: 0.8; stroke-width: 0.5"/>
     <use xlink:href="#m386554e9b1" x="258.140211" y="30.852149" style="fill: #fc8d62; fill-opacity: 0.8; stroke: #ffffff; stroke-opacity: 0.8; stroke-width: 0.5"/>
     <use xlink:href="#m386554e9b1" x="136.302739" y="104.946694" style="fill: #fc8d62; fill-opacity: 0.8; stroke: #ffffff; stroke-opacity: 0.8; stroke-width: 0.5"/>
     <use xlink:href="#m386554e9b1" x="195.804761" y="69.583388" style="fill: #fc8d62; fill-opacity: 0.8; stroke: #ffffff; stroke-opacity: 0.8; stroke-width: 0.5"/>
     <use xlink:href="#m386554e9b1" x="226.972486" y="72.109339" style="fill: #fc8d62; fill-opacity: 0.8; stroke: #ffffff; stroke-opacity: 0.8; stroke-width: 0.5"/>
     <use xlink:href="#m386554e9b1" x="258.140211" y="27.905207" style="fill: #fc8d62; fill-opacity: 0.8; stroke: #ffffff; stroke-opacity: 0.8; stroke-width: 0.5"/>
     <use xlink:href="#m386554e9b1" x="252.473352" y="48.11281" style="fill: #fc8d62; fill-opacity: 0.8; stroke: #ffffff; stroke-opacity: 0.8; stroke-width: 0.5"/>
     <use xlink:href="#m386554e9b1" x="221.305627" y="81.792149" style="fill: #fc8d62; fill-opacity: 0.8; stroke: #ffffff; stroke-opacity: 0.8; stroke-width: 0.5"/>
     <use xlink:href="#m386554e9b1" x="88.134437" y="40.113967" style="fill: #fc8d62; fill-opacity: 0.8; stroke: #ffffff; stroke-opacity: 0.8; stroke-width: 0.5"/>
     <use xlink:href="#m386554e9b1" x="258.140211" y="22.853306" style="fill: #fc8d62; fill-opacity: 0.8; stroke: #ffffff; stroke-opacity: 0.8; stroke-width: 0.5"/>
     <use xlink:href="#m386554e9b1" x="212.805338" y="24.116281" style="fill: #fc8d62; fill-opacity: 0.8; stroke: #ffffff; stroke-opacity: 0.8; stroke-width: 0.5"/>
     <use xlink:href="#m386554e9b1" x="258.140211" y="39.271983" style="fill: #fc8d62; fill-opacity: 0.8; stroke: #ffffff; stroke-opacity: 0.8; stroke-width: 0.5"/>
     <use xlink:href="#m386554e9b1" x="235.472775" y="50.63876" style="fill: #fc8d62; fill-opacity: 0.8; stroke: #ffffff; stroke-opacity: 0.8; stroke-width: 0.5"/>
     <use xlink:href="#m386554e9b1" x="258.140211" y="19.906364" style="fill: #fc8d62; fill-opacity: 0.8; stroke: #ffffff; stroke-opacity: 0.8; stroke-width: 0.5"/>
     <use xlink:href="#m386554e9b1" x="204.305049" y="81.792149" style="fill: #fc8d62; fill-opacity: 0.8; stroke: #ffffff; stroke-opacity: 0.8; stroke-width: 0.5"/>
     <use xlink:href="#m386554e9b1" x="258.140211" y="42.218926" style="fill: #fc8d62; fill-opacity: 0.8; stroke: #ffffff; stroke-opacity: 0.8; stroke-width: 0.5"/>
     <use xlink:href="#m386554e9b1" x="218.472197" y="76.740248" style="fill: #fc8d62; fill-opacity: 0.8; stroke: #ffffff; stroke-opacity: 0.8; stroke-width: 0.5"/>
     <use xlink:href="#m386554e9b1" x="167.470465" y="63.689504" style="fill: #fc8d62; fill-opacity: 0.8; stroke: #ffffff; stroke-opacity: 0.8; stroke-width: 0.5"/>
     <use xlink:href="#m386554e9b1" x="255.306782" y="101.57876" style="fill: #fc8d62; fill-opacity: 0.8; stroke: #ffffff; stroke-opacity: 0.8; stroke-width: 0.5"/>
     <use xlink:href="#m386554e9b1" x="192.971331" y="48.11281" style="fill: #fc8d62; fill-opacity: 0.8; stroke: #ffffff; stroke-opacity: 0.8; stroke-width: 0.5"/>
    </g>
   </g>
  </g>
  <g id="legend_1">
   <g id="text_12">
    <text style="fill: #262626; font: 12px 'Arial', 'DejaVu Sans', 'Liberation Sans', 'Bitstream Vera Sans', sans-serif; text-anchor: start" x="268.781875" y="95.165312" transform="rotate(-0 268.781875 95.165312)">multiplier</text>
   </g>
   <g id="PathCollection_3">
    <g>
     <use xlink:href="#m9ee2f8aec0" x="284.269219" y="108.631719" style="fill: #66c2a5; fill-opacity: 0.8; stroke: #ffffff; stroke-opacity: 0.8; stroke-width: 0.5"/>
    </g>
   </g>
   <g id="text_13">
    <text style="fill: #262626; font: 11px 'Arial', 'DejaVu Sans', 'Liberation Sans', 'Bitstream Vera Sans', sans-serif; text-anchor: start" x="304.069219" y="111.519219" transform="rotate(-0 304.069219 111.519219)">1.5</text>
   </g>
   <g id="PathCollection_4">
    <g>
     <use xlink:href="#m386554e9b1" x="284.269219" y="124.777656" style="fill: #fc8d62; fill-opacity: 0.8; stroke: #ffffff; stroke-opacity: 0.8; stroke-width: 0.5"/>
    </g>
   </g>
   <g id="text_14">
    <text style="fill: #262626; font: 11px 'Arial', 'DejaVu Sans', 'Liberation Sans', 'Bitstream Vera Sans', sans-serif; text-anchor: start" x="304.069219" y="127.665156" transform="rotate(-0 304.069219 127.665156)">2.5</text>
   </g>
  </g>
 </g>
 <defs>
  <clipPath id="p942bdd5e30">
   <rect x="79.634148" y="12.96" width="187.006352" height="152.82"/>
  </clipPath>
 </defs>
</svg>
