<?xml version="1.0" encoding="utf-8" standalone="no"?>
<!DOCTYPE svg PUBLIC "-//W3C//DTD SVG 1.1//EN"
  "http://www.w3.org/Graphics/SVG/1.1/DTD/svg11.dtd">
<svg xmlns:xlink="http://www.w3.org/1999/xlink" width="336.22pt" height="216pt" viewBox="0 0 336.22 216" xmlns="http://www.w3.org/2000/svg" version="1.1">
 <metadata>
  <rdf:RDF xmlns:dc="http://purl.org/dc/elements/1.1/" xmlns:cc="http://creativecommons.org/ns#" xmlns:rdf="http://www.w3.org/1999/02/22-rdf-syntax-ns#">
   <cc:Work>
    <dc:type rdf:resource="http://purl.org/dc/dcmitype/StillImage"/>
    <dc:date>2023-02-24T18:39:39.478447</dc:date>
    <dc:format>image/svg+xml</dc:format>
    <dc:creator>
     <cc:Agent>
      <dc:title>Matplotlib v3.7.0, https://matplotlib.org/</dc:title>
     </cc:Agent>
    </dc:creator>
   </cc:Work>
  </rdf:RDF>
 </metadata>
 <defs>
  <style type="text/css">*{stroke-linejoin: round; stroke-linecap: butt}</style>
 </defs>
 <g id="figure_1">
  <g id="patch_1">
   <path d="M 0 216 
L 336.22 216 
L 336.22 0 
L 0 0 
z
" style="fill: #ffffff"/>
  </g>
  <g id="axes_1">
   <g id="patch_2">
    <path d="M 78.451333 167.22 
L 266.6378 167.22 
L 266.6378 12.96 
L 78.451333 12.96 
z
" style="fill: #ffffff"/>
   </g>
   <g id="matplotlib.axis_1">
    <g id="xtick_1">
     <g id="line2d_1">
      <defs>
       <path id="mfc62915073" d="M 0 0 
L 0 6 
" style="stroke: #262626; stroke-width: 1.25"/>
      </defs>
      <g>
       <use xlink:href="#mfc62915073" x="87.005264" y="167.22" style="fill: #262626; stroke: #262626; stroke-width: 1.25"/>
      </g>
     </g>
     <g id="text_1">
      <text style="fill: #262626; font: 11px 'Arial', 'DejaVu Sans', 'Liberation Sans', 'Bitstream Vera Sans', sans-serif; text-anchor: middle" x="87.005264" y="185.078281" transform="rotate(-0 87.005264 185.078281)">0.00</text>
     </g>
    </g>
    <g id="xtick_2">
     <g id="line2d_2">
      <g>
       <use xlink:href="#mfc62915073" x="130.464748" y="167.22" style="fill: #262626; stroke: #262626; stroke-width: 1.25"/>
      </g>
     </g>
     <g id="text_2">
      <text style="fill: #262626; font: 11px 'Arial', 'DejaVu Sans', 'Liberation Sans', 'Bitstream Vera Sans', sans-serif; text-anchor: middle" x="130.464748" y="185.078281" transform="rotate(-0 130.464748 185.078281)">0.25</text>
     </g>
    </g>
    <g id="xtick_3">
     <g id="line2d_3">
      <g>
       <use xlink:href="#mfc62915073" x="173.924233" y="167.22" style="fill: #262626; stroke: #262626; stroke-width: 1.25"/>
      </g>
     </g>
     <g id="text_3">
      <text style="fill: #262626; font: 11px 'Arial', 'DejaVu Sans', 'Liberation Sans', 'Bitstream Vera Sans', sans-serif; text-anchor: middle" x="173.924233" y="185.078281" transform="rotate(-0 173.924233 185.078281)">0.50</text>
     </g>
    </g>
    <g id="xtick_4">
     <g id="line2d_4">
      <g>
       <use xlink:href="#mfc62915073" x="217.383717" y="167.22" style="fill: #262626; stroke: #262626; stroke-width: 1.25"/>
      </g>
     </g>
     <g id="text_4">
      <text style="fill: #262626; font: 11px 'Arial', 'DejaVu Sans', 'Liberation Sans', 'Bitstream Vera Sans', sans-serif; text-anchor: middle" x="217.383717" y="185.078281" transform="rotate(-0 217.383717 185.078281)">0.75</text>
     </g>
    </g>
    <g id="xtick_5">
     <g id="line2d_5">
      <g>
       <use xlink:href="#mfc62915073" x="260.843202" y="167.22" style="fill: #262626; stroke: #262626; stroke-width: 1.25"/>
      </g>
     </g>
     <g id="text_5">
      <text style="fill: #262626; font: 11px 'Arial', 'DejaVu Sans', 'Liberation Sans', 'Bitstream Vera Sans', sans-serif; text-anchor: middle" x="260.843202" y="185.078281" transform="rotate(-0 260.843202 185.078281)">1.00</text>
     </g>
    </g>
    <g id="text_6">
     <text style="fill: #262626; font: 12px 'Arial', 'DejaVu Sans', 'Liberation Sans', 'Bitstream Vera Sans', sans-serif; text-anchor: middle" x="172.544567" y="200.484062" transform="rotate(-0 172.544567 200.484062)">p(disclose)</text>
    </g>
   </g>
   <g id="matplotlib.axis_2">
    <g id="ytick_1">
     <g id="line2d_6">
      <defs>
       <path id="m7169113a2d" d="M 0 0 
L -6 0 
" style="stroke: #262626; stroke-width: 1.25"/>
      </defs>
      <g>
       <use xlink:href="#m7169113a2d" x="78.451333" y="167.22" style="fill: #262626; stroke: #262626; stroke-width: 1.25"/>
      </g>
     </g>
     <g id="text_7">
      <text style="fill: #262626; font: 11px 'Arial', 'DejaVu Sans', 'Liberation Sans', 'Bitstream Vera Sans', sans-serif; text-anchor: end" x="68.951333" y="171.399141" transform="rotate(-0 68.951333 171.399141)">0.0</text>
     </g>
    </g>
    <g id="ytick_2">
     <g id="line2d_7">
      <g>
       <use xlink:href="#m7169113a2d" x="78.451333" y="136.368" style="fill: #262626; stroke: #262626; stroke-width: 1.25"/>
      </g>
     </g>
     <g id="text_8">
      <text style="fill: #262626; font: 11px 'Arial', 'DejaVu Sans', 'Liberation Sans', 'Bitstream Vera Sans', sans-serif; text-anchor: end" x="68.951333" y="140.547141" transform="rotate(-0 68.951333 140.547141)">0.2</text>
     </g>
    </g>
    <g id="ytick_3">
     <g id="line2d_8">
      <g>
       <use xlink:href="#m7169113a2d" x="78.451333" y="105.516" style="fill: #262626; stroke: #262626; stroke-width: 1.25"/>
      </g>
     </g>
     <g id="text_9">
      <text style="fill: #262626; font: 11px 'Arial', 'DejaVu Sans', 'Liberation Sans', 'Bitstream Vera Sans', sans-serif; text-anchor: end" x="68.951333" y="109.695141" transform="rotate(-0 68.951333 109.695141)">0.4</text>
     </g>
    </g>
    <g id="ytick_4">
     <g id="line2d_9">
      <g>
       <use xlink:href="#m7169113a2d" x="78.451333" y="74.664" style="fill: #262626; stroke: #262626; stroke-width: 1.25"/>
      </g>
     </g>
     <g id="text_10">
      <text style="fill: #262626; font: 11px 'Arial', 'DejaVu Sans', 'Liberation Sans', 'Bitstream Vera Sans', sans-serif; text-anchor: end" x="68.951333" y="78.843141" transform="rotate(-0 68.951333 78.843141)">0.6</text>
     </g>
    </g>
    <g id="ytick_5">
     <g id="line2d_10">
      <g>
       <use xlink:href="#m7169113a2d" x="78.451333" y="43.812" style="fill: #262626; stroke: #262626; stroke-width: 1.25"/>
      </g>
     </g>
     <g id="text_11">
      <text style="fill: #262626; font: 11px 'Arial', 'DejaVu Sans', 'Liberation Sans', 'Bitstream Vera Sans', sans-serif; text-anchor: end" x="68.951333" y="47.991141" transform="rotate(-0 68.951333 47.991141)">0.8</text>
     </g>
    </g>
    <g id="ytick_6">
     <g id="line2d_11">
      <g>
       <use xlink:href="#m7169113a2d" x="78.451333" y="12.96" style="fill: #262626; stroke: #262626; stroke-width: 1.25"/>
      </g>
     </g>
     <g id="text_12">
      <text style="fill: #262626; font: 11px 'Arial', 'DejaVu Sans', 'Liberation Sans', 'Bitstream Vera Sans', sans-serif; text-anchor: end" x="68.951333" y="17.139141" transform="rotate(-0 68.951333 17.139141)">1.0</text>
     </g>
    </g>
    <g id="text_13">
     <text style="fill: #262626; font: 12px 'Arial', 'DejaVu Sans', 'Liberation Sans', 'Bitstream Vera Sans', sans-serif; text-anchor: middle" x="44.962271" y="90.09" transform="rotate(-90 44.962271 90.09)">payoff</text>
    </g>
   </g>
   <g id="PolyCollection_1">
    <defs>
     <path id="m743f5cce91" d="M 87.005264 -165.710777 
L 87.005264 -157.359588 
L 88.036529 -157.35188 
L 89.067795 -157.42427 
L 90.099061 -157.490527 
L 91.130326 -157.519841 
L 92.161592 -157.512814 
L 93.192857 -157.505995 
L 94.224123 -157.530449 
L 95.255389 -157.566848 
L 96.286654 -157.541947 
L 97.31792 -157.611823 
L 98.349186 -157.647868 
L 99.380451 -157.675496 
L 100.411717 -157.721096 
L 101.442982 -157.751935 
L 102.474248 -157.754741 
L 103.505514 -157.751526 
L 104.536779 -157.649067 
L 105.568045 -157.592561 
L 106.599311 -157.618731 
L 107.630576 -157.582717 
L 108.661842 -157.621558 
L 109.693107 -157.615267 
L 110.724373 -157.556626 
L 111.755639 -157.505542 
L 112.786904 -157.549248 
L 113.81817 -157.514546 
L 114.849436 -157.42685 
L 115.880701 -157.377888 
L 116.911967 -157.298355 
L 117.943232 -157.260151 
L 118.974498 -157.115613 
L 120.005764 -156.968424 
L 121.037029 -156.886874 
L 122.068295 -156.76836 
L 123.099561 -156.685031 
L 124.130826 -156.602403 
L 125.162092 -156.475175 
L 126.193357 -156.363687 
L 127.224623 -156.302101 
L 128.255889 -156.181652 
L 129.287154 -156.038602 
L 130.31842 -155.955573 
L 131.349686 -155.900792 
L 132.380951 -155.803092 
L 133.412217 -155.671387 
L 134.443483 -155.578559 
L 135.474748 -155.491812 
L 136.506014 -155.385848 
L 137.537279 -155.1727 
L 138.568545 -154.969805 
L 139.599811 -154.827894 
L 140.631076 -154.687906 
L 141.662342 -154.548694 
L 142.693608 -154.408164 
L 143.724873 -154.268294 
L 144.756139 -154.132905 
L 145.787404 -154.009189 
L 146.81867 -153.885473 
L 147.849936 -153.761756 
L 148.881201 -153.63804 
L 149.912467 -153.514324 
L 150.943733 -153.390608 
L 151.974998 -153.266891 
L 153.006264 -153.143175 
L 154.037529 -153.020589 
L 155.068795 -152.879685 
L 156.100061 -152.744379 
L 157.131326 -152.650249 
L 158.162592 -152.525556 
L 159.193858 -152.400878 
L 160.225123 -152.277162 
L 161.256389 -152.153445 
L 162.287654 -152.029729 
L 163.31892 -151.906013 
L 164.350186 -151.782297 
L 165.381451 -151.658581 
L 166.412717 -151.534864 
L 167.443983 -151.411148 
L 168.475248 -151.287432 
L 169.506514 -151.163716 
L 170.537779 -151.039999 
L 171.569045 -150.916283 
L 172.600311 -150.760227 
L 173.631576 -150.594284 
L 174.662842 -150.424992 
L 175.694108 -150.23683 
L 176.725373 -150.048667 
L 177.756639 -149.860504 
L 178.787905 -149.672341 
L 179.81917 -149.484178 
L 180.850436 -149.296015 
L 181.881701 -149.107852 
L 182.912967 -148.936954 
L 183.944233 -148.795432 
L 184.975498 -148.65391 
L 186.006764 -148.493199 
L 187.03803 -148.308953 
L 188.069295 -148.124707 
L 189.100561 -147.940461 
L 189.100561 -166.877392 
L 189.100561 -166.877392 
L 188.069295 -166.832519 
L 187.03803 -166.787645 
L 186.006764 -166.742771 
L 184.975498 -166.660656 
L 183.944233 -166.582743 
L 182.912967 -166.527028 
L 181.881701 -166.471313 
L 180.850436 -166.414618 
L 179.81917 -166.357623 
L 178.787905 -166.294316 
L 177.756639 -166.200235 
L 176.725373 -166.106154 
L 175.694108 -166.012073 
L 174.662842 -165.939713 
L 173.631576 -165.896453 
L 172.600311 -165.853193 
L 171.569045 -165.809934 
L 170.537779 -165.766674 
L 169.506514 -165.723414 
L 168.475248 -165.680155 
L 167.443983 -165.636895 
L 166.412717 -165.593636 
L 165.381451 -165.550376 
L 164.350186 -165.507116 
L 163.31892 -165.460596 
L 162.287654 -165.404905 
L 161.256389 -165.378619 
L 160.225123 -165.336395 
L 159.193858 -165.292426 
L 158.162592 -165.217148 
L 157.131326 -165.133775 
L 156.100061 -165.070754 
L 155.068795 -165.015062 
L 154.037529 -164.95937 
L 153.006264 -164.903237 
L 151.974998 -164.853364 
L 150.943733 -164.796264 
L 149.912467 -164.739919 
L 148.881201 -164.720013 
L 147.849936 -164.724219 
L 146.81867 -164.693255 
L 145.787404 -164.641192 
L 144.756139 -164.518337 
L 143.724873 -164.40726 
L 142.693608 -164.382069 
L 141.662342 -164.356851 
L 140.631076 -164.310474 
L 139.599811 -164.286192 
L 138.568545 -164.197738 
L 137.537279 -164.191868 
L 136.506014 -164.185997 
L 135.474748 -164.180127 
L 134.443483 -164.114486 
L 133.412217 -163.983311 
L 132.380951 -163.906205 
L 131.349686 -163.870978 
L 130.31842 -163.842018 
L 129.287154 -163.908603 
L 128.255889 -163.813026 
L 127.224623 -163.767931 
L 126.193357 -163.779798 
L 125.162092 -163.804409 
L 124.130826 -163.83287 
L 123.099561 -163.799902 
L 122.068295 -163.808053 
L 121.037029 -163.814458 
L 120.005764 -163.822731 
L 118.974498 -163.828248 
L 117.943232 -163.817695 
L 116.911967 -163.842069 
L 115.880701 -163.82642 
L 114.849436 -163.832633 
L 113.81817 -163.859603 
L 112.786904 -163.877598 
L 111.755639 -163.918351 
L 110.724373 -164.018789 
L 109.693107 -164.058194 
L 108.661842 -164.04065 
L 107.630576 -164.063386 
L 106.599311 -164.089506 
L 105.568045 -164.137929 
L 104.536779 -164.197488 
L 103.505514 -164.260514 
L 102.474248 -164.31022 
L 101.442982 -164.361972 
L 100.411717 -164.456029 
L 99.380451 -164.529229 
L 98.349186 -164.621114 
L 97.31792 -164.756305 
L 96.286654 -164.906971 
L 95.255389 -165.030367 
L 94.224123 -165.121649 
L 93.192857 -165.1783 
L 92.161592 -165.255467 
L 91.130326 -165.368932 
L 90.099061 -165.44943 
L 89.067795 -165.531218 
L 88.036529 -165.641798 
L 87.005264 -165.710777 
z
" style="stroke: #ffffff; stroke-opacity: 0.15"/>
    </defs>
    <g clip-path="url(#p61c3c4f740)">
     <use xlink:href="#m743f5cce91" x="0" y="216" style="fill: #66c2a5; fill-opacity: 0.15; stroke: #ffffff; stroke-opacity: 0.15"/>
    </g>
   </g>
   <g id="PolyCollection_2">
    <defs>
     <path id="mc2c988f19a" d="M 89.764596 -166.540807 
L 89.764596 -156.154446 
L 91.464791 -156.211019 
L 93.164985 -156.301821 
L 94.86518 -156.374565 
L 96.565375 -156.48129 
L 98.265569 -156.607324 
L 99.965764 -156.729973 
L 101.665959 -156.816506 
L 103.366153 -156.903039 
L 105.066348 -156.990395 
L 106.766543 -157.117634 
L 108.466738 -157.255552 
L 110.166932 -157.394029 
L 111.867127 -157.532506 
L 113.567322 -157.670983 
L 115.267516 -157.780034 
L 116.967711 -157.879333 
L 118.667906 -157.978632 
L 120.3681 -158.05785 
L 122.068295 -158.115087 
L 123.76849 -158.167822 
L 125.468684 -158.278687 
L 127.168879 -158.3606 
L 128.869074 -158.409566 
L 130.569268 -158.447073 
L 132.269463 -158.490687 
L 133.969658 -158.475751 
L 135.669852 -158.497036 
L 137.370047 -158.535736 
L 139.070242 -158.582333 
L 140.770437 -158.611258 
L 142.470631 -158.52609 
L 144.170826 -158.522207 
L 145.871021 -158.616072 
L 147.571215 -158.491943 
L 149.27141 -158.397823 
L 150.971605 -158.324788 
L 152.671799 -158.221873 
L 154.371994 -158.106152 
L 156.072189 -157.962397 
L 157.772383 -157.80676 
L 159.472578 -157.670769 
L 161.172773 -157.545898 
L 162.872967 -157.389954 
L 164.573162 -157.271416 
L 166.273357 -157.103043 
L 167.973551 -156.959902 
L 169.673746 -156.938577 
L 171.373941 -156.855767 
L 173.074136 -156.704298 
L 174.77433 -156.606789 
L 176.474525 -156.443567 
L 178.17472 -156.280345 
L 179.874914 -156.117848 
L 181.575109 -155.974131 
L 183.275304 -155.82582 
L 184.975498 -155.663087 
L 186.675693 -155.506415 
L 188.375888 -155.374142 
L 190.076082 -155.218277 
L 191.776277 -155.061622 
L 193.476472 -154.89736 
L 195.176666 -154.692162 
L 196.876861 -154.522874 
L 198.577056 -154.378579 
L 200.27725 -154.234699 
L 201.977445 -154.090819 
L 203.67764 -153.946939 
L 205.377834 -153.803059 
L 207.078029 -153.65173 
L 208.778224 -153.495075 
L 210.478419 -153.338421 
L 212.178613 -153.182558 
L 213.878808 -153.02693 
L 215.579003 -152.871302 
L 217.279197 -152.721841 
L 218.979392 -152.599052 
L 220.679587 -152.44213 
L 222.379781 -152.249237 
L 224.079976 -152.08869 
L 225.780171 -151.931936 
L 227.480365 -151.786197 
L 229.18056 -151.682743 
L 230.880755 -151.579289 
L 232.580949 -151.430253 
L 234.281144 -151.253075 
L 235.981339 -151.075897 
L 237.681533 -150.898719 
L 239.381728 -150.721541 
L 241.081923 -150.54463 
L 242.782118 -150.412432 
L 244.482312 -150.289838 
L 246.182507 -150.167244 
L 247.882702 -150.044651 
L 249.582896 -149.901212 
L 251.283091 -149.725279 
L 252.983286 -149.549345 
L 254.68348 -149.373412 
L 256.383675 -149.197479 
L 258.08387 -149.021546 
L 258.08387 -168.744449 
L 258.08387 -168.744449 
L 256.383675 -168.635323 
L 254.68348 -168.529765 
L 252.983286 -168.425179 
L 251.283091 -168.320778 
L 249.582896 -168.216378 
L 247.882702 -168.120048 
L 246.182507 -168.027211 
L 244.482312 -167.940877 
L 242.782118 -167.841116 
L 241.081923 -167.740916 
L 239.381728 -167.624326 
L 237.681533 -167.51713 
L 235.981339 -167.416351 
L 234.281144 -167.336961 
L 232.580949 -167.259977 
L 230.880755 -167.192006 
L 229.18056 -167.099228 
L 227.480365 -167.00675 
L 225.780171 -166.913966 
L 224.079976 -166.801163 
L 222.379781 -166.702464 
L 220.679587 -166.619377 
L 218.979392 -166.522606 
L 217.279197 -166.432571 
L 215.579003 -166.35785 
L 213.878808 -166.288116 
L 212.178613 -166.213316 
L 210.478419 -166.142257 
L 208.778224 -166.036463 
L 207.078029 -165.98174 
L 205.377834 -165.879897 
L 203.67764 -165.806655 
L 201.977445 -165.765604 
L 200.27725 -165.724553 
L 198.577056 -165.683502 
L 196.876861 -165.627961 
L 195.176666 -165.582542 
L 193.476472 -165.501789 
L 191.776277 -165.464556 
L 190.076082 -165.401829 
L 188.375888 -165.338761 
L 186.675693 -165.314363 
L 184.975498 -165.240084 
L 183.275304 -165.173631 
L 181.575109 -165.118112 
L 179.874914 -165.080393 
L 178.17472 -165.050101 
L 176.474525 -165.016713 
L 174.77433 -164.982468 
L 173.074136 -164.938209 
L 171.373941 -164.904612 
L 169.673746 -164.856028 
L 167.973551 -164.766905 
L 166.273357 -164.706061 
L 164.573162 -164.683448 
L 162.872967 -164.661316 
L 161.172773 -164.639555 
L 159.472578 -164.623218 
L 157.772383 -164.595563 
L 156.072189 -164.596756 
L 154.371994 -164.551717 
L 152.671799 -164.532022 
L 150.971605 -164.53963 
L 149.27141 -164.533701 
L 147.571215 -164.497451 
L 145.871021 -164.452421 
L 144.170826 -164.421657 
L 142.470631 -164.437231 
L 140.770437 -164.473266 
L 139.070242 -164.439092 
L 137.370047 -164.476983 
L 135.669852 -164.517545 
L 133.969658 -164.554597 
L 132.269463 -164.597996 
L 130.569268 -164.615156 
L 128.869074 -164.634344 
L 127.168879 -164.630134 
L 125.468684 -164.679115 
L 123.76849 -164.679756 
L 122.068295 -164.756575 
L 120.3681 -164.829335 
L 118.667906 -164.831268 
L 116.967711 -164.884241 
L 115.267516 -164.970256 
L 113.567322 -165.043272 
L 111.867127 -165.088899 
L 110.166932 -165.160967 
L 108.466738 -165.261667 
L 106.766543 -165.413048 
L 105.066348 -165.464139 
L 103.366153 -165.602701 
L 101.665959 -165.664806 
L 99.965764 -165.77335 
L 98.265569 -165.92453 
L 96.565375 -166.073885 
L 94.86518 -166.224767 
L 93.164985 -166.339261 
L 91.464791 -166.44507 
L 89.764596 -166.540807 
z
" style="stroke: #ffffff; stroke-opacity: 0.15"/>
    </defs>
    <g clip-path="url(#p61c3c4f740)">
     <use xlink:href="#mc2c988f19a" x="0" y="216" style="fill: #fc8d62; fill-opacity: 0.15; stroke: #ffffff; stroke-opacity: 0.15"/>
    </g>
   </g>
   <g id="line2d_12">
    <path d="M 87.005264 54.506348 
L 88.036529 54.541043 
L 89.067795 54.575738 
L 90.099061 54.610432 
L 91.130326 54.645127 
L 92.161592 54.679822 
L 93.192857 54.714517 
L 94.224123 54.749212 
L 95.255389 54.783907 
L 96.286654 54.818602 
L 97.31792 54.853296 
L 98.349186 54.887991 
L 99.380451 54.922686 
L 100.411717 54.957381 
L 101.442982 54.992076 
L 102.474248 55.026771 
L 103.505514 55.061466 
L 104.536779 55.09616 
L 105.568045 55.130855 
L 106.599311 55.16555 
L 107.630576 55.200245 
L 108.661842 55.23494 
L 109.693107 55.269635 
L 110.724373 55.30433 
L 111.755639 55.339024 
L 112.786904 55.373719 
L 113.81817 55.408414 
L 114.849436 55.443109 
L 115.880701 55.477804 
L 116.911967 55.512499 
L 117.943232 55.547194 
L 118.974498 55.581888 
L 120.005764 55.616583 
L 121.037029 55.651278 
L 122.068295 55.685973 
L 123.099561 55.720668 
L 124.130826 55.755363 
L 125.162092 55.790058 
L 126.193357 55.824752 
L 127.224623 55.859447 
L 128.255889 55.894142 
L 129.287154 55.928837 
L 130.31842 55.963532 
L 131.349686 55.998227 
L 132.380951 56.032922 
L 133.412217 56.067616 
L 134.443483 56.102311 
L 135.474748 56.137006 
L 136.506014 56.171701 
L 137.537279 56.206396 
L 138.568545 56.241091 
L 139.599811 56.275786 
L 140.631076 56.31048 
L 141.662342 56.345175 
L 142.693608 56.37987 
L 143.724873 56.414565 
L 144.756139 56.44926 
L 145.787404 56.483955 
L 146.81867 56.51865 
L 147.849936 56.553344 
L 148.881201 56.588039 
L 149.912467 56.622734 
L 150.943733 56.657429 
L 151.974998 56.692124 
L 153.006264 56.726819 
L 154.037529 56.761514 
L 155.068795 56.796208 
L 156.100061 56.830903 
L 157.131326 56.865598 
L 158.162592 56.900293 
L 159.193858 56.934988 
L 160.225123 56.969683 
L 161.256389 57.004378 
L 162.287654 57.039072 
L 163.31892 57.073767 
L 164.350186 57.108462 
L 165.381451 57.143157 
L 166.412717 57.177852 
L 167.443983 57.212547 
L 168.475248 57.247242 
L 169.506514 57.281936 
L 170.537779 57.316631 
L 171.569045 57.351326 
L 172.600311 57.386021 
L 173.631576 57.420716 
L 174.662842 57.455411 
L 175.694108 57.490106 
L 176.725373 57.5248 
L 177.756639 57.559495 
L 178.787905 57.59419 
L 179.81917 57.628885 
L 180.850436 57.66358 
L 181.881701 57.698275 
L 182.912967 57.73297 
L 183.944233 57.767664 
L 184.975498 57.802359 
L 186.006764 57.837054 
L 187.03803 57.871749 
L 188.069295 57.906444 
L 189.100561 57.941139 
" clip-path="url(#p61c3c4f740)" style="fill: none; stroke: #66c2a5; stroke-width: 2.25; stroke-linecap: round"/>
   </g>
   <g id="line2d_13">
    <path d="M 89.764596 54.560364 
L 91.464791 54.550308 
L 93.164985 54.540251 
L 94.86518 54.530194 
L 96.565375 54.520138 
L 98.265569 54.510081 
L 99.965764 54.500024 
L 101.665959 54.489968 
L 103.366153 54.479911 
L 105.066348 54.469855 
L 106.766543 54.459798 
L 108.466738 54.449741 
L 110.166932 54.439685 
L 111.867127 54.429628 
L 113.567322 54.419572 
L 115.267516 54.409515 
L 116.967711 54.399458 
L 118.667906 54.389402 
L 120.3681 54.379345 
L 122.068295 54.369288 
L 123.76849 54.359232 
L 125.468684 54.349175 
L 127.168879 54.339119 
L 128.869074 54.329062 
L 130.569268 54.319005 
L 132.269463 54.308949 
L 133.969658 54.298892 
L 135.669852 54.288836 
L 137.370047 54.278779 
L 139.070242 54.268722 
L 140.770437 54.258666 
L 142.470631 54.248609 
L 144.170826 54.238552 
L 145.871021 54.228496 
L 147.571215 54.218439 
L 149.27141 54.208383 
L 150.971605 54.198326 
L 152.671799 54.188269 
L 154.371994 54.178213 
L 156.072189 54.168156 
L 157.772383 54.1581 
L 159.472578 54.148043 
L 161.172773 54.137986 
L 162.872967 54.12793 
L 164.573162 54.117873 
L 166.273357 54.107816 
L 167.973551 54.09776 
L 169.673746 54.087703 
L 171.373941 54.077647 
L 173.074136 54.06759 
L 174.77433 54.057533 
L 176.474525 54.047477 
L 178.17472 54.03742 
L 179.874914 54.027364 
L 181.575109 54.017307 
L 183.275304 54.00725 
L 184.975498 53.997194 
L 186.675693 53.987137 
L 188.375888 53.97708 
L 190.076082 53.967024 
L 191.776277 53.956967 
L 193.476472 53.946911 
L 195.176666 53.936854 
L 196.876861 53.926797 
L 198.577056 53.916741 
L 200.27725 53.906684 
L 201.977445 53.896628 
L 203.67764 53.886571 
L 205.377834 53.876514 
L 207.078029 53.866458 
L 208.778224 53.856401 
L 210.478419 53.846344 
L 212.178613 53.836288 
L 213.878808 53.826231 
L 215.579003 53.816175 
L 217.279197 53.806118 
L 218.979392 53.796061 
L 220.679587 53.786005 
L 222.379781 53.775948 
L 224.079976 53.765892 
L 225.780171 53.755835 
L 227.480365 53.745778 
L 229.18056 53.735722 
L 230.880755 53.725665 
L 232.580949 53.715608 
L 234.281144 53.705552 
L 235.981339 53.695495 
L 237.681533 53.685439 
L 239.381728 53.675382 
L 241.081923 53.665325 
L 242.782118 53.655269 
L 244.482312 53.645212 
L 246.182507 53.635156 
L 247.882702 53.625099 
L 249.582896 53.615042 
L 251.283091 53.604986 
L 252.983286 53.594929 
L 254.68348 53.584872 
L 256.383675 53.574816 
L 258.08387 53.564759 
" clip-path="url(#p61c3c4f740)" style="fill: none; stroke: #fc8d62; stroke-width: 2.25; stroke-linecap: round"/>
   </g>
   <g id="patch_3">
    <path d="M 78.451333 167.22 
L 78.451333 12.96 
" style="fill: none; stroke: #262626; stroke-width: 1.25; stroke-linejoin: miter; stroke-linecap: square"/>
   </g>
   <g id="patch_4">
    <path d="M 87.005264 167.22 
L 260.843202 167.22 
" style="fill: none; stroke: #262626; stroke-width: 1.25; stroke-linejoin: miter; stroke-linecap: square"/>
   </g>
   <g id="PathCollection_1">
    <defs>
     <path id="m0283312840" d="M 0 2.738613 
C 0.726289 2.738613 1.422928 2.450055 1.936492 1.936492 
C 2.450055 1.422928 2.738613 0.726289 2.738613 0 
C 2.738613 -0.726289 2.450055 -1.422928 1.936492 -1.936492 
C 1.422928 -2.450055 0.726289 -2.738613 0 -2.738613 
C -0.726289 -2.738613 -1.422928 -2.450055 -1.936492 -1.936492 
C -2.450055 -1.422928 -2.738613 -0.726289 -2.738613 0 
C -2.738613 0.726289 -2.450055 1.422928 -1.936492 1.936492 
C -1.422928 2.450055 -0.726289 2.738613 0 2.738613 
z
" style="stroke: #ffffff; stroke-opacity: 0.8; stroke-width: 0.5"/>
    </defs>
    <g>
     <use xlink:href="#m0283312840" x="89.764596" y="55.548415" style="fill: #66c2a5; fill-opacity: 0.8; stroke: #ffffff; stroke-opacity: 0.8; stroke-width: 0.5"/>
     <use xlink:href="#m0283312840" x="87.005264" y="44.560015" style="fill: #66c2a5; fill-opacity: 0.8; stroke: #ffffff; stroke-opacity: 0.8; stroke-width: 0.5"/>
     <use xlink:href="#m0283312840" x="147.710575" y="47.136012" style="fill: #66c2a5; fill-opacity: 0.8; stroke: #ffffff; stroke-opacity: 0.8; stroke-width: 0.5"/>
     <use xlink:href="#m0283312840" x="89.764596" y="69.801071" style="fill: #66c2a5; fill-opacity: 0.8; stroke: #ffffff; stroke-opacity: 0.8; stroke-width: 0.5"/>
     <use xlink:href="#m0283312840" x="89.764596" y="44.421262" style="fill: #66c2a5; fill-opacity: 0.8; stroke: #ffffff; stroke-opacity: 0.8; stroke-width: 0.5"/>
     <use xlink:href="#m0283312840" x="106.32059" y="42.791974" style="fill: #66c2a5; fill-opacity: 0.8; stroke: #ffffff; stroke-opacity: 0.8; stroke-width: 0.5"/>
     <use xlink:href="#m0283312840" x="125.635917" y="53.288531" style="fill: #66c2a5; fill-opacity: 0.8; stroke: #ffffff; stroke-opacity: 0.8; stroke-width: 0.5"/>
     <use xlink:href="#m0283312840" x="89.764596" y="46.326827" style="fill: #66c2a5; fill-opacity: 0.8; stroke: #ffffff; stroke-opacity: 0.8; stroke-width: 0.5"/>
     <use xlink:href="#m0283312840" x="87.005264" y="55.98092" style="fill: #66c2a5; fill-opacity: 0.8; stroke: #ffffff; stroke-opacity: 0.8; stroke-width: 0.5"/>
     <use xlink:href="#m0283312840" x="111.839255" y="48.575347" style="fill: #66c2a5; fill-opacity: 0.8; stroke: #ffffff; stroke-opacity: 0.8; stroke-width: 0.5"/>
     <use xlink:href="#m0283312840" x="189.100561" y="53.655157" style="fill: #66c2a5; fill-opacity: 0.8; stroke: #ffffff; stroke-opacity: 0.8; stroke-width: 0.5"/>
     <use xlink:href="#m0283312840" x="92.523928" y="62.21641" style="fill: #66c2a5; fill-opacity: 0.8; stroke: #ffffff; stroke-opacity: 0.8; stroke-width: 0.5"/>
     <use xlink:href="#m0283312840" x="122.876584" y="69.057193" style="fill: #66c2a5; fill-opacity: 0.8; stroke: #ffffff; stroke-opacity: 0.8; stroke-width: 0.5"/>
     <use xlink:href="#m0283312840" x="125.635917" y="51.043085" style="fill: #66c2a5; fill-opacity: 0.8; stroke: #ffffff; stroke-opacity: 0.8; stroke-width: 0.5"/>
     <use xlink:href="#m0283312840" x="103.561258" y="68.494229" style="fill: #66c2a5; fill-opacity: 0.8; stroke: #ffffff; stroke-opacity: 0.8; stroke-width: 0.5"/>
     <use xlink:href="#m0283312840" x="125.635917" y="57.554058" style="fill: #66c2a5; fill-opacity: 0.8; stroke: #ffffff; stroke-opacity: 0.8; stroke-width: 0.5"/>
     <use xlink:href="#m0283312840" x="95.283261" y="47.849869" style="fill: #66c2a5; fill-opacity: 0.8; stroke: #ffffff; stroke-opacity: 0.8; stroke-width: 0.5"/>
     <use xlink:href="#m0283312840" x="178.063231" y="63.660567" style="fill: #66c2a5; fill-opacity: 0.8; stroke: #ffffff; stroke-opacity: 0.8; stroke-width: 0.5"/>
     <use xlink:href="#m0283312840" x="98.042593" y="51.875848" style="fill: #66c2a5; fill-opacity: 0.8; stroke: #ffffff; stroke-opacity: 0.8; stroke-width: 0.5"/>
     <use xlink:href="#m0283312840" x="89.764596" y="65.487138" style="fill: #66c2a5; fill-opacity: 0.8; stroke: #ffffff; stroke-opacity: 0.8; stroke-width: 0.5"/>
     <use xlink:href="#m0283312840" x="109.079922" y="55.366187" style="fill: #66c2a5; fill-opacity: 0.8; stroke: #ffffff; stroke-opacity: 0.8; stroke-width: 0.5"/>
     <use xlink:href="#m0283312840" x="87.005264" y="49.910863" style="fill: #66c2a5; fill-opacity: 0.8; stroke: #ffffff; stroke-opacity: 0.8; stroke-width: 0.5"/>
     <use xlink:href="#m0283312840" x="120.117252" y="68.128978" style="fill: #66c2a5; fill-opacity: 0.8; stroke: #ffffff; stroke-opacity: 0.8; stroke-width: 0.5"/>
     <use xlink:href="#m0283312840" x="87.005264" y="54.845455" style="fill: #66c2a5; fill-opacity: 0.8; stroke: #ffffff; stroke-opacity: 0.8; stroke-width: 0.5"/>
     <use xlink:href="#m0283312840" x="117.35792" y="54.949374" style="fill: #66c2a5; fill-opacity: 0.8; stroke: #ffffff; stroke-opacity: 0.8; stroke-width: 0.5"/>
    </g>
   </g>
   <g id="PathCollection_2">
    <defs>
     <path id="m5fadd90f16" d="M 0 2.738613 
C 0.726289 2.738613 1.422928 2.450055 1.936492 1.936492 
C 2.450055 1.422928 2.738613 0.726289 2.738613 0 
C 2.738613 -0.726289 2.450055 -1.422928 1.936492 -1.936492 
C 1.422928 -2.450055 0.726289 -2.738613 0 -2.738613 
C -0.726289 -2.738613 -1.422928 -2.450055 -1.936492 -1.936492 
C -2.450055 -1.422928 -2.738613 -0.726289 -2.738613 0 
C -2.738613 0.726289 -2.450055 1.422928 -1.936492 1.936492 
C -1.422928 2.450055 -0.726289 2.738613 0 2.738613 
z
" style="stroke: #ffffff; stroke-opacity: 0.8; stroke-width: 0.5"/>
    </defs>
    <g>
     <use xlink:href="#m5fadd90f16" x="100.801925" y="47.841982" style="fill: #fc8d62; fill-opacity: 0.8; stroke: #ffffff; stroke-opacity: 0.8; stroke-width: 0.5"/>
     <use xlink:href="#m5fadd90f16" x="109.079922" y="69.275785" style="fill: #fc8d62; fill-opacity: 0.8; stroke: #ffffff; stroke-opacity: 0.8; stroke-width: 0.5"/>
     <use xlink:href="#m5fadd90f16" x="89.764596" y="45.067973" style="fill: #fc8d62; fill-opacity: 0.8; stroke: #ffffff; stroke-opacity: 0.8; stroke-width: 0.5"/>
     <use xlink:href="#m5fadd90f16" x="169.785234" y="57.396775" style="fill: #fc8d62; fill-opacity: 0.8; stroke: #ffffff; stroke-opacity: 0.8; stroke-width: 0.5"/>
     <use xlink:href="#m5fadd90f16" x="222.212549" y="58.820567" style="fill: #fc8d62; fill-opacity: 0.8; stroke: #ffffff; stroke-opacity: 0.8; stroke-width: 0.5"/>
     <use xlink:href="#m5fadd90f16" x="95.283261" y="46.442054" style="fill: #fc8d62; fill-opacity: 0.8; stroke: #ffffff; stroke-opacity: 0.8; stroke-width: 0.5"/>
     <use xlink:href="#m5fadd90f16" x="128.395249" y="59.734455" style="fill: #fc8d62; fill-opacity: 0.8; stroke: #ffffff; stroke-opacity: 0.8; stroke-width: 0.5"/>
     <use xlink:href="#m5fadd90f16" x="109.079922" y="55.52228" style="fill: #fc8d62; fill-opacity: 0.8; stroke: #ffffff; stroke-opacity: 0.8; stroke-width: 0.5"/>
     <use xlink:href="#m5fadd90f16" x="122.876584" y="46.950395" style="fill: #fc8d62; fill-opacity: 0.8; stroke: #ffffff; stroke-opacity: 0.8; stroke-width: 0.5"/>
     <use xlink:href="#m5fadd90f16" x="155.988573" y="53.527001" style="fill: #fc8d62; fill-opacity: 0.8; stroke: #ffffff; stroke-opacity: 0.8; stroke-width: 0.5"/>
     <use xlink:href="#m5fadd90f16" x="158.747905" y="50.388692" style="fill: #fc8d62; fill-opacity: 0.8; stroke: #ffffff; stroke-opacity: 0.8; stroke-width: 0.5"/>
     <use xlink:href="#m5fadd90f16" x="111.839255" y="55.967082" style="fill: #fc8d62; fill-opacity: 0.8; stroke: #ffffff; stroke-opacity: 0.8; stroke-width: 0.5"/>
     <use xlink:href="#m5fadd90f16" x="158.747905" y="52.647234" style="fill: #fc8d62; fill-opacity: 0.8; stroke: #ffffff; stroke-opacity: 0.8; stroke-width: 0.5"/>
     <use xlink:href="#m5fadd90f16" x="125.635917" y="53.569321" style="fill: #fc8d62; fill-opacity: 0.8; stroke: #ffffff; stroke-opacity: 0.8; stroke-width: 0.5"/>
     <use xlink:href="#m5fadd90f16" x="103.561258" y="52.945171" style="fill: #fc8d62; fill-opacity: 0.8; stroke: #ffffff; stroke-opacity: 0.8; stroke-width: 0.5"/>
     <use xlink:href="#m5fadd90f16" x="197.378558" y="51.437838" style="fill: #fc8d62; fill-opacity: 0.8; stroke: #ffffff; stroke-opacity: 0.8; stroke-width: 0.5"/>
     <use xlink:href="#m5fadd90f16" x="133.913914" y="67.405332" style="fill: #fc8d62; fill-opacity: 0.8; stroke: #ffffff; stroke-opacity: 0.8; stroke-width: 0.5"/>
     <use xlink:href="#m5fadd90f16" x="120.117252" y="49.789696" style="fill: #fc8d62; fill-opacity: 0.8; stroke: #ffffff; stroke-opacity: 0.8; stroke-width: 0.5"/>
     <use xlink:href="#m5fadd90f16" x="258.08387" y="45.451691" style="fill: #fc8d62; fill-opacity: 0.8; stroke: #ffffff; stroke-opacity: 0.8; stroke-width: 0.5"/>
     <use xlink:href="#m5fadd90f16" x="142.191911" y="63.881439" style="fill: #fc8d62; fill-opacity: 0.8; stroke: #ffffff; stroke-opacity: 0.8; stroke-width: 0.5"/>
     <use xlink:href="#m5fadd90f16" x="111.839255" y="55.551719" style="fill: #fc8d62; fill-opacity: 0.8; stroke: #ffffff; stroke-opacity: 0.8; stroke-width: 0.5"/>
    </g>
   </g>
  </g>
  <g id="legend_1">
   <g id="text_14">
    <text style="fill: #262626; font: 12px 'Arial', 'DejaVu Sans', 'Liberation Sans', 'Bitstream Vera Sans', sans-serif; text-anchor: start" x="269.051875" y="95.165312" transform="rotate(-0 269.051875 95.165312)">multiplier</text>
   </g>
   <g id="PathCollection_3">
    <g>
     <use xlink:href="#m0283312840" x="284.539219" y="108.631719" style="fill: #66c2a5; fill-opacity: 0.8; stroke: #ffffff; stroke-opacity: 0.8; stroke-width: 0.5"/>
    </g>
   </g>
   <g id="text_15">
    <text style="fill: #262626; font: 11px 'Arial', 'DejaVu Sans', 'Liberation Sans', 'Bitstream Vera Sans', sans-serif; text-anchor: start" x="304.339219" y="111.519219" transform="rotate(-0 304.339219 111.519219)">1.5</text>
   </g>
   <g id="PathCollection_4">
    <g>
     <use xlink:href="#m5fadd90f16" x="284.539219" y="124.777656" style="fill: #fc8d62; fill-opacity: 0.8; stroke: #ffffff; stroke-opacity: 0.8; stroke-width: 0.5"/>
    </g>
   </g>
   <g id="text_16">
    <text style="fill: #262626; font: 11px 'Arial', 'DejaVu Sans', 'Liberation Sans', 'Bitstream Vera Sans', sans-serif; text-anchor: start" x="304.339219" y="127.665156" transform="rotate(-0 304.339219 127.665156)">2.5</text>
   </g>
  </g>
 </g>
 <defs>
  <clipPath id="p61c3c4f740">
   <rect x="78.451333" y="12.96" width="188.186467" height="154.26"/>
  </clipPath>
 </defs>
</svg>
