<?xml version="1.0" encoding="utf-8" standalone="no"?>
<!DOCTYPE svg PUBLIC "-//W3C//DTD SVG 1.1//EN"
  "http://www.w3.org/Graphics/SVG/1.1/DTD/svg11.dtd">
<svg xmlns:xlink="http://www.w3.org/1999/xlink" width="336.22pt" height="216pt" viewBox="0 0 336.22 216" xmlns="http://www.w3.org/2000/svg" version="1.1">
 <metadata>
  <rdf:RDF xmlns:dc="http://purl.org/dc/elements/1.1/" xmlns:cc="http://creativecommons.org/ns#" xmlns:rdf="http://www.w3.org/1999/02/22-rdf-syntax-ns#">
   <cc:Work>
    <dc:type rdf:resource="http://purl.org/dc/dcmitype/StillImage"/>
    <dc:date>2023-02-24T18:36:24.839510</dc:date>
    <dc:format>image/svg+xml</dc:format>
    <dc:creator>
     <cc:Agent>
      <dc:title>Matplotlib v3.7.0, https://matplotlib.org/</dc:title>
     </cc:Agent>
    </dc:creator>
   </cc:Work>
  </rdf:RDF>
 </metadata>
 <defs>
  <style type="text/css">*{stroke-linejoin: round; stroke-linecap: butt}</style>
 </defs>
 <g id="figure_1">
  <g id="patch_1">
   <path d="M 0 216 
L 336.22 216 
L 336.22 0 
L 0 0 
z
" style="fill: #ffffff"/>
  </g>
  <g id="axes_1">
   <g id="patch_2">
    <path d="M 69.709613 167.22 
L 266.6378 167.22 
L 266.6378 12.96 
L 69.709613 12.96 
z
" style="fill: #ffffff"/>
   </g>
   <g id="matplotlib.axis_1">
    <g id="xtick_1">
     <g id="line2d_1">
      <defs>
       <path id="m1813114405" d="M 0 0 
L 0 6 
" style="stroke: #262626; stroke-width: 1.25"/>
      </defs>
      <g>
       <use xlink:href="#m1813114405" x="78.660895" y="167.22" style="fill: #262626; stroke: #262626; stroke-width: 1.25"/>
      </g>
     </g>
     <g id="text_1">
      <text style="fill: #262626; font: 11px 'Arial', 'DejaVu Sans', 'Liberation Sans', 'Bitstream Vera Sans', sans-serif; text-anchor: middle" x="78.660895" y="185.078281" transform="rotate(-0 78.660895 185.078281)">0.00</text>
     </g>
    </g>
    <g id="xtick_2">
     <g id="line2d_2">
      <g>
       <use xlink:href="#m1813114405" x="124.139178" y="167.22" style="fill: #262626; stroke: #262626; stroke-width: 1.25"/>
      </g>
     </g>
     <g id="text_2">
      <text style="fill: #262626; font: 11px 'Arial', 'DejaVu Sans', 'Liberation Sans', 'Bitstream Vera Sans', sans-serif; text-anchor: middle" x="124.139178" y="185.078281" transform="rotate(-0 124.139178 185.078281)">0.25</text>
     </g>
    </g>
    <g id="xtick_3">
     <g id="line2d_3">
      <g>
       <use xlink:href="#m1813114405" x="169.617462" y="167.22" style="fill: #262626; stroke: #262626; stroke-width: 1.25"/>
      </g>
     </g>
     <g id="text_3">
      <text style="fill: #262626; font: 11px 'Arial', 'DejaVu Sans', 'Liberation Sans', 'Bitstream Vera Sans', sans-serif; text-anchor: middle" x="169.617462" y="185.078281" transform="rotate(-0 169.617462 185.078281)">0.50</text>
     </g>
    </g>
    <g id="xtick_4">
     <g id="line2d_4">
      <g>
       <use xlink:href="#m1813114405" x="215.095745" y="167.22" style="fill: #262626; stroke: #262626; stroke-width: 1.25"/>
      </g>
     </g>
     <g id="text_4">
      <text style="fill: #262626; font: 11px 'Arial', 'DejaVu Sans', 'Liberation Sans', 'Bitstream Vera Sans', sans-serif; text-anchor: middle" x="215.095745" y="185.078281" transform="rotate(-0 215.095745 185.078281)">0.75</text>
     </g>
    </g>
    <g id="xtick_5">
     <g id="line2d_5">
      <g>
       <use xlink:href="#m1813114405" x="260.574029" y="167.22" style="fill: #262626; stroke: #262626; stroke-width: 1.25"/>
      </g>
     </g>
     <g id="text_5">
      <text style="fill: #262626; font: 11px 'Arial', 'DejaVu Sans', 'Liberation Sans', 'Bitstream Vera Sans', sans-serif; text-anchor: middle" x="260.574029" y="185.078281" transform="rotate(-0 260.574029 185.078281)">1.00</text>
     </g>
    </g>
    <g id="text_6">
     <text style="fill: #262626; font: 12px 'Arial', 'DejaVu Sans', 'Liberation Sans', 'Bitstream Vera Sans', sans-serif; text-anchor: middle" x="168.173707" y="200.484062" transform="rotate(-0 168.173707 200.484062)">p(disclose)</text>
    </g>
   </g>
   <g id="matplotlib.axis_2">
    <g id="ytick_1">
     <g id="line2d_6">
      <defs>
       <path id="m6960d04d6f" d="M 0 0 
L -6 0 
" style="stroke: #262626; stroke-width: 1.25"/>
      </defs>
      <g>
       <use xlink:href="#m6960d04d6f" x="69.709613" y="167.22" style="fill: #262626; stroke: #262626; stroke-width: 1.25"/>
      </g>
     </g>
     <g id="text_7">
      <text style="fill: #262626; font: 11px 'Arial', 'DejaVu Sans', 'Liberation Sans', 'Bitstream Vera Sans', sans-serif; text-anchor: end" x="60.209613" y="171.399141" transform="rotate(-0 60.209613 171.399141)">0.0</text>
     </g>
    </g>
    <g id="ytick_2">
     <g id="line2d_7">
      <g>
       <use xlink:href="#m6960d04d6f" x="69.709613" y="136.368" style="fill: #262626; stroke: #262626; stroke-width: 1.25"/>
      </g>
     </g>
     <g id="text_8">
      <text style="fill: #262626; font: 11px 'Arial', 'DejaVu Sans', 'Liberation Sans', 'Bitstream Vera Sans', sans-serif; text-anchor: end" x="60.209613" y="140.547141" transform="rotate(-0 60.209613 140.547141)">0.2</text>
     </g>
    </g>
    <g id="ytick_3">
     <g id="line2d_8">
      <g>
       <use xlink:href="#m6960d04d6f" x="69.709613" y="105.516" style="fill: #262626; stroke: #262626; stroke-width: 1.25"/>
      </g>
     </g>
     <g id="text_9">
      <text style="fill: #262626; font: 11px 'Arial', 'DejaVu Sans', 'Liberation Sans', 'Bitstream Vera Sans', sans-serif; text-anchor: end" x="60.209613" y="109.695141" transform="rotate(-0 60.209613 109.695141)">0.4</text>
     </g>
    </g>
    <g id="ytick_4">
     <g id="line2d_9">
      <g>
       <use xlink:href="#m6960d04d6f" x="69.709613" y="74.664" style="fill: #262626; stroke: #262626; stroke-width: 1.25"/>
      </g>
     </g>
     <g id="text_10">
      <text style="fill: #262626; font: 11px 'Arial', 'DejaVu Sans', 'Liberation Sans', 'Bitstream Vera Sans', sans-serif; text-anchor: end" x="60.209613" y="78.843141" transform="rotate(-0 60.209613 78.843141)">0.6</text>
     </g>
    </g>
    <g id="ytick_5">
     <g id="line2d_10">
      <g>
       <use xlink:href="#m6960d04d6f" x="69.709613" y="43.812" style="fill: #262626; stroke: #262626; stroke-width: 1.25"/>
      </g>
     </g>
     <g id="text_11">
      <text style="fill: #262626; font: 11px 'Arial', 'DejaVu Sans', 'Liberation Sans', 'Bitstream Vera Sans', sans-serif; text-anchor: end" x="60.209613" y="47.991141" transform="rotate(-0 60.209613 47.991141)">0.8</text>
     </g>
    </g>
    <g id="ytick_6">
     <g id="line2d_11">
      <g>
       <use xlink:href="#m6960d04d6f" x="69.709613" y="12.96" style="fill: #262626; stroke: #262626; stroke-width: 1.25"/>
      </g>
     </g>
     <g id="text_12">
      <text style="fill: #262626; font: 11px 'Arial', 'DejaVu Sans', 'Liberation Sans', 'Bitstream Vera Sans', sans-serif; text-anchor: end" x="60.209613" y="17.139141" transform="rotate(-0 60.209613 17.139141)">1.0</text>
     </g>
    </g>
    <g id="text_13">
     <text style="fill: #262626; font: 12px 'Arial', 'DejaVu Sans', 'Liberation Sans', 'Bitstream Vera Sans', sans-serif; text-anchor: middle" x="36.220551" y="90.09" transform="rotate(-90 36.220551 90.09)">contribution</text>
    </g>
   </g>
   <g id="PolyCollection_1">
    <defs>
     <path id="mc5201ff110" d="M 78.660895 -141.199838 
L 78.660895 -98.290818 
L 79.740065 -98.792646 
L 80.819235 -99.69975 
L 81.898406 -100.094581 
L 82.977576 -100.308887 
L 84.056747 -100.776595 
L 85.135917 -101.387166 
L 86.215088 -101.770698 
L 87.294258 -102.265946 
L 88.373428 -102.971916 
L 89.452599 -103.260765 
L 90.531769 -103.640447 
L 91.61094 -103.69978 
L 92.69011 -104.098649 
L 93.769281 -104.421876 
L 94.848451 -104.361732 
L 95.927621 -104.838802 
L 97.006792 -105.046663 
L 98.085962 -105.504837 
L 99.165133 -105.524841 
L 100.244303 -105.733396 
L 101.323474 -106.04392 
L 102.402644 -106.441989 
L 103.481814 -106.59186 
L 104.560985 -106.86597 
L 105.640155 -106.731791 
L 106.719326 -106.806087 
L 107.798496 -107.021898 
L 108.877667 -106.951557 
L 109.956837 -106.929388 
L 111.036007 -107.193247 
L 112.115178 -107.225491 
L 113.194348 -107.255343 
L 114.273519 -107.360153 
L 115.352689 -107.29183 
L 116.43186 -106.960834 
L 117.51103 -106.453491 
L 118.5902 -106.232108 
L 119.669371 -105.959628 
L 120.748541 -105.829845 
L 121.827712 -105.628808 
L 122.906882 -105.297542 
L 123.986053 -105.121923 
L 125.065223 -104.776653 
L 126.144393 -104.171536 
L 127.223564 -103.803651 
L 128.302734 -103.320121 
L 129.381905 -102.700957 
L 130.461075 -102.306215 
L 131.540246 -102.116391 
L 132.619416 -101.915705 
L 133.698586 -101.621592 
L 134.777757 -101.257916 
L 135.856927 -100.894239 
L 136.936098 -100.530563 
L 138.015268 -100.168286 
L 139.094439 -99.806044 
L 140.173609 -99.443803 
L 141.252779 -99.081561 
L 142.33195 -98.594033 
L 143.41112 -98.173055 
L 144.490291 -97.863893 
L 145.569461 -97.555599 
L 146.648632 -97.248151 
L 147.727802 -96.549746 
L 148.806972 -96.247419 
L 149.886143 -95.949149 
L 150.965313 -95.650879 
L 152.044484 -95.3099 
L 153.123654 -94.776518 
L 154.202825 -94.487025 
L 155.281995 -94.30167 
L 156.361165 -93.985358 
L 157.440336 -93.62323 
L 158.519506 -93.261101 
L 159.598677 -92.885124 
L 160.677847 -92.421688 
L 161.757018 -91.979414 
L 162.836188 -91.672092 
L 163.915358 -91.364983 
L 164.994529 -91.061121 
L 166.073699 -90.716342 
L 167.15287 -90.353564 
L 168.23204 -89.990787 
L 169.311211 -89.628009 
L 170.390381 -89.265232 
L 171.469551 -88.89533 
L 172.548722 -88.394537 
L 173.627892 -88.057829 
L 174.707063 -87.727179 
L 175.786233 -87.397109 
L 176.865404 -87.067039 
L 177.944574 -86.710857 
L 179.023744 -86.347181 
L 180.102915 -85.983505 
L 181.182085 -85.619828 
L 182.261256 -85.256152 
L 183.340426 -84.892475 
L 184.419597 -84.528799 
L 185.498767 -84.165122 
L 185.498767 -189.898342 
L 185.498767 -189.898342 
L 184.419597 -189.16639 
L 183.340426 -188.334554 
L 182.261256 -187.405831 
L 181.182085 -186.736446 
L 180.102915 -186.081538 
L 179.023744 -185.353898 
L 177.944574 -184.582554 
L 176.865404 -183.788888 
L 175.786233 -182.910167 
L 174.707063 -182.266944 
L 173.627892 -181.500308 
L 172.548722 -180.73205 
L 171.469551 -179.9614 
L 170.390381 -179.19075 
L 169.311211 -178.4201 
L 168.23204 -177.792197 
L 167.15287 -177.226305 
L 166.073699 -176.597862 
L 164.994529 -175.792937 
L 163.915358 -174.986071 
L 162.836188 -174.284211 
L 161.757018 -173.703755 
L 160.677847 -173.022789 
L 159.598677 -172.197076 
L 158.519506 -171.371362 
L 157.440336 -170.545648 
L 156.361165 -169.808878 
L 155.281995 -169.129132 
L 154.202825 -168.444326 
L 153.123654 -167.507045 
L 152.044484 -166.518742 
L 150.965313 -165.588899 
L 149.886143 -164.763248 
L 148.806972 -164.048163 
L 147.727802 -163.333078 
L 146.648632 -162.809223 
L 145.569461 -162.30419 
L 144.490291 -161.560975 
L 143.41112 -160.757068 
L 142.33195 -159.946871 
L 141.252779 -159.135007 
L 140.173609 -158.343003 
L 139.094439 -157.623637 
L 138.015268 -156.904212 
L 136.936098 -155.978345 
L 135.856927 -155.124491 
L 134.777757 -154.526635 
L 133.698586 -154.035826 
L 132.619416 -153.223219 
L 131.540246 -152.40967 
L 130.461075 -151.757252 
L 129.381905 -151.20587 
L 128.302734 -150.571304 
L 127.223564 -150.128633 
L 126.144393 -149.683391 
L 125.065223 -149.045592 
L 123.986053 -148.335993 
L 122.906882 -147.598586 
L 121.827712 -146.975911 
L 120.748541 -146.341741 
L 119.669371 -146.06125 
L 118.5902 -145.572899 
L 117.51103 -145.135804 
L 116.43186 -144.420496 
L 115.352689 -144.046814 
L 114.273519 -143.893894 
L 113.194348 -143.669898 
L 112.115178 -143.012169 
L 111.036007 -142.85266 
L 109.956837 -142.510704 
L 108.877667 -142.449119 
L 107.798496 -142.23926 
L 106.719326 -141.751513 
L 105.640155 -141.104948 
L 104.560985 -140.452791 
L 103.481814 -140.19596 
L 102.402644 -140.050911 
L 101.323474 -139.729044 
L 100.244303 -139.735234 
L 99.165133 -139.694809 
L 98.085962 -139.688597 
L 97.006792 -139.824042 
L 95.927621 -139.602749 
L 94.848451 -139.403541 
L 93.769281 -139.205371 
L 92.69011 -138.99434 
L 91.61094 -139.472147 
L 90.531769 -139.564521 
L 89.452599 -139.556271 
L 88.373428 -139.605275 
L 87.294258 -139.838055 
L 86.215088 -139.815221 
L 85.135917 -140.02911 
L 84.056747 -140.084763 
L 82.977576 -140.612283 
L 81.898406 -140.652882 
L 80.819235 -140.7613 
L 79.740065 -141.107618 
L 78.660895 -141.199838 
z
" style="stroke: #ffffff; stroke-opacity: 0.15"/>
    </defs>
    <g clip-path="url(#pb388b9fe3e)">
     <use xlink:href="#mc5201ff110" x="0" y="216" style="fill: #66c2a5; fill-opacity: 0.15; stroke: #ffffff; stroke-opacity: 0.15"/>
    </g>
   </g>
   <g id="PolyCollection_2">
    <defs>
     <path id="mdc153036da" d="M 81.548405 -178.896623 
L 81.548405 -129.571696 
L 83.327577 -130.050886 
L 85.10675 -130.480551 
L 86.885923 -130.802478 
L 88.665096 -131.124406 
L 90.444269 -131.446333 
L 92.223442 -131.987493 
L 94.002615 -132.47606 
L 95.781788 -132.901288 
L 97.56096 -133.19839 
L 99.340133 -133.495493 
L 101.119306 -133.792595 
L 102.898479 -134.038427 
L 104.677652 -134.245918 
L 106.456825 -134.39018 
L 108.235998 -134.630785 
L 110.015171 -134.961589 
L 111.794343 -135.244133 
L 113.573516 -135.577156 
L 115.352689 -135.804246 
L 117.131862 -135.973223 
L 118.911035 -136.073839 
L 120.690208 -136.098557 
L 122.469381 -136.302612 
L 124.248554 -136.331589 
L 126.027726 -136.22407 
L 127.806899 -136.187874 
L 129.586072 -136.415211 
L 131.365245 -136.223773 
L 133.144418 -136.146875 
L 134.923591 -136.1094 
L 136.702764 -135.859172 
L 138.481936 -135.494441 
L 140.261109 -135.283605 
L 142.040282 -134.877092 
L 143.819455 -134.457875 
L 145.598628 -133.960818 
L 147.377801 -133.703672 
L 149.156974 -133.249164 
L 150.936147 -132.83324 
L 152.715319 -132.426637 
L 154.494492 -131.944722 
L 156.273665 -131.31817 
L 158.052838 -130.488161 
L 159.832011 -129.78678 
L 161.611184 -129.319383 
L 163.390357 -128.562323 
L 165.16953 -127.779477 
L 166.948702 -127.268635 
L 168.727875 -126.757793 
L 170.507048 -126.246951 
L 172.286221 -125.736109 
L 174.065394 -125.225267 
L 175.844567 -124.714425 
L 177.62374 -124.203583 
L 179.402912 -123.337957 
L 181.182085 -122.298539 
L 182.961258 -121.259121 
L 184.740431 -120.219704 
L 186.519604 -119.438551 
L 188.298777 -118.751103 
L 190.07795 -118.065312 
L 191.857123 -117.479863 
L 193.636295 -116.686949 
L 195.415468 -115.994411 
L 197.194641 -115.308014 
L 198.973814 -114.61328 
L 200.752987 -113.914958 
L 202.53216 -113.216636 
L 204.311333 -112.516569 
L 206.090506 -111.664439 
L 207.869678 -110.81231 
L 209.648851 -109.960181 
L 211.428024 -109.160342 
L 213.207197 -108.245575 
L 214.98637 -107.480417 
L 216.765543 -106.83701 
L 218.544716 -106.196664 
L 220.323889 -105.556318 
L 222.103061 -104.747952 
L 223.882234 -104.013691 
L 225.661407 -103.358547 
L 227.44058 -102.703403 
L 229.219753 -102.048258 
L 230.998926 -101.393114 
L 232.778099 -100.739661 
L 234.557271 -100.08918 
L 236.336444 -99.438699 
L 238.115617 -98.788219 
L 239.89479 -98.137738 
L 241.673963 -97.487257 
L 243.453136 -96.836777 
L 245.232309 -96.186296 
L 247.011482 -95.535816 
L 248.790654 -94.885335 
L 250.569827 -94.234854 
L 252.349 -93.584374 
L 254.128173 -92.891398 
L 255.907346 -92.089734 
L 257.686519 -91.28807 
L 257.686519 -178.983042 
L 257.686519 -178.983042 
L 255.907346 -178.579842 
L 254.128173 -178.098288 
L 252.349 -177.685301 
L 250.569827 -177.316035 
L 248.790654 -177.038158 
L 247.011482 -176.621823 
L 245.232309 -176.215696 
L 243.453136 -175.850145 
L 241.673963 -175.484594 
L 239.89479 -175.119042 
L 238.115617 -174.786458 
L 236.336444 -174.524473 
L 234.557271 -174.317091 
L 232.778099 -174.104726 
L 230.998926 -173.682014 
L 229.219753 -173.471806 
L 227.44058 -173.043651 
L 225.661407 -172.622178 
L 223.882234 -172.442955 
L 222.103061 -172.132401 
L 220.323889 -171.755039 
L 218.544716 -171.376966 
L 216.765543 -171.096303 
L 214.98637 -170.765676 
L 213.207197 -170.600863 
L 211.428024 -170.242643 
L 209.648851 -169.99797 
L 207.869678 -169.539533 
L 206.090506 -169.122272 
L 204.311333 -168.816063 
L 202.53216 -168.573763 
L 200.752987 -168.380249 
L 198.973814 -168.1858 
L 197.194641 -167.778606 
L 195.415468 -167.33343 
L 193.636295 -167.010663 
L 191.857123 -166.960214 
L 190.07795 -166.83754 
L 188.298777 -166.573815 
L 186.519604 -166.561578 
L 184.740431 -166.551684 
L 182.961258 -166.53089 
L 181.182085 -166.284793 
L 179.402912 -166.09542 
L 177.62374 -165.908654 
L 175.844567 -165.715318 
L 174.065394 -165.637872 
L 172.286221 -165.396398 
L 170.507048 -165.500973 
L 168.727875 -165.463958 
L 166.948702 -165.446788 
L 165.16953 -165.399832 
L 163.390357 -165.350563 
L 161.611184 -165.373181 
L 159.832011 -165.485304 
L 158.052838 -165.518864 
L 156.273665 -165.582262 
L 154.494492 -165.723298 
L 152.715319 -165.722901 
L 150.936147 -165.735954 
L 149.156974 -165.404924 
L 147.377801 -165.565847 
L 145.598628 -165.832531 
L 143.819455 -165.818248 
L 142.040282 -165.808128 
L 140.261109 -165.801825 
L 138.481936 -166.061803 
L 136.702764 -166.205336 
L 134.923591 -166.284479 
L 133.144418 -166.419273 
L 131.365245 -166.572514 
L 129.586072 -166.640941 
L 127.806899 -166.822915 
L 126.027726 -167.245063 
L 124.248554 -167.588195 
L 122.469381 -167.922469 
L 120.690208 -168.029343 
L 118.911035 -168.243284 
L 117.131862 -168.495354 
L 115.352689 -168.823398 
L 113.573516 -168.925583 
L 111.794343 -169.124247 
L 110.015171 -169.571035 
L 108.235998 -170.174261 
L 106.456825 -170.781059 
L 104.677652 -171.316019 
L 102.898479 -171.643499 
L 101.119306 -171.98523 
L 99.340133 -172.806175 
L 97.56096 -173.363347 
L 95.781788 -174.15879 
L 94.002615 -174.858322 
L 92.223442 -175.024358 
L 90.444269 -175.775066 
L 88.665096 -176.48504 
L 86.885923 -176.961801 
L 85.10675 -177.677174 
L 83.327577 -178.307178 
L 81.548405 -178.896623 
z
" style="stroke: #ffffff; stroke-opacity: 0.15"/>
    </defs>
    <g clip-path="url(#pb388b9fe3e)">
     <use xlink:href="#mdc153036da" x="0" y="216" style="fill: #fc8d62; fill-opacity: 0.15; stroke: #ffffff; stroke-opacity: 0.15"/>
    </g>
   </g>
   <g id="line2d_12">
    <path d="M 78.660895 97.238446 
L 79.740065 97.062751 
L 80.819235 96.887057 
L 81.898406 96.711362 
L 82.977576 96.535668 
L 84.056747 96.359973 
L 85.135917 96.184279 
L 86.215088 96.008584 
L 87.294258 95.83289 
L 88.373428 95.657195 
L 89.452599 95.481501 
L 90.531769 95.305806 
L 91.61094 95.130112 
L 92.69011 94.954417 
L 93.769281 94.778723 
L 94.848451 94.603028 
L 95.927621 94.427334 
L 97.006792 94.251639 
L 98.085962 94.075945 
L 99.165133 93.90025 
L 100.244303 93.724556 
L 101.323474 93.548861 
L 102.402644 93.373167 
L 103.481814 93.197472 
L 104.560985 93.021778 
L 105.640155 92.846084 
L 106.719326 92.670389 
L 107.798496 92.494695 
L 108.877667 92.319 
L 109.956837 92.143306 
L 111.036007 91.967611 
L 112.115178 91.791917 
L 113.194348 91.616222 
L 114.273519 91.440528 
L 115.352689 91.264833 
L 116.43186 91.089139 
L 117.51103 90.913444 
L 118.5902 90.73775 
L 119.669371 90.562055 
L 120.748541 90.386361 
L 121.827712 90.210666 
L 122.906882 90.034972 
L 123.986053 89.859277 
L 125.065223 89.683583 
L 126.144393 89.507888 
L 127.223564 89.332194 
L 128.302734 89.156499 
L 129.381905 88.980805 
L 130.461075 88.80511 
L 131.540246 88.629416 
L 132.619416 88.453721 
L 133.698586 88.278027 
L 134.777757 88.102332 
L 135.856927 87.926638 
L 136.936098 87.750943 
L 138.015268 87.575249 
L 139.094439 87.399554 
L 140.173609 87.22386 
L 141.252779 87.048165 
L 142.33195 86.872471 
L 143.41112 86.696776 
L 144.490291 86.521082 
L 145.569461 86.345387 
L 146.648632 86.169693 
L 147.727802 85.993998 
L 148.806972 85.818304 
L 149.886143 85.642609 
L 150.965313 85.466915 
L 152.044484 85.29122 
L 153.123654 85.115526 
L 154.202825 84.939831 
L 155.281995 84.764137 
L 156.361165 84.588442 
L 157.440336 84.412748 
L 158.519506 84.237053 
L 159.598677 84.061359 
L 160.677847 83.885664 
L 161.757018 83.70997 
L 162.836188 83.534275 
L 163.915358 83.358581 
L 164.994529 83.182887 
L 166.073699 83.007192 
L 167.15287 82.831498 
L 168.23204 82.655803 
L 169.311211 82.480109 
L 170.390381 82.304414 
L 171.469551 82.12872 
L 172.548722 81.953025 
L 173.627892 81.777331 
L 174.707063 81.601636 
L 175.786233 81.425942 
L 176.865404 81.250247 
L 177.944574 81.074553 
L 179.023744 80.898858 
L 180.102915 80.723164 
L 181.182085 80.547469 
L 182.261256 80.371775 
L 183.340426 80.19608 
L 184.419597 80.020386 
L 185.498767 79.844691 
" clip-path="url(#pb388b9fe3e)" style="fill: none; stroke: #66c2a5; stroke-width: 2.25; stroke-linecap: round"/>
   </g>
   <g id="line2d_13">
    <path d="M 81.548405 61.041394 
L 83.327577 61.106658 
L 85.10675 61.171922 
L 86.885923 61.237187 
L 88.665096 61.302451 
L 90.444269 61.367715 
L 92.223442 61.432979 
L 94.002615 61.498244 
L 95.781788 61.563508 
L 97.56096 61.628772 
L 99.340133 61.694036 
L 101.119306 61.759301 
L 102.898479 61.824565 
L 104.677652 61.889829 
L 106.456825 61.955093 
L 108.235998 62.020358 
L 110.015171 62.085622 
L 111.794343 62.150886 
L 113.573516 62.21615 
L 115.352689 62.281414 
L 117.131862 62.346679 
L 118.911035 62.411943 
L 120.690208 62.477207 
L 122.469381 62.542471 
L 124.248554 62.607736 
L 126.027726 62.673 
L 127.806899 62.738264 
L 129.586072 62.803528 
L 131.365245 62.868793 
L 133.144418 62.934057 
L 134.923591 62.999321 
L 136.702764 63.064585 
L 138.481936 63.12985 
L 140.261109 63.195114 
L 142.040282 63.260378 
L 143.819455 63.325642 
L 145.598628 63.390907 
L 147.377801 63.456171 
L 149.156974 63.521435 
L 150.936147 63.586699 
L 152.715319 63.651963 
L 154.494492 63.717228 
L 156.273665 63.782492 
L 158.052838 63.847756 
L 159.832011 63.91302 
L 161.611184 63.978285 
L 163.390357 64.043549 
L 165.16953 64.108813 
L 166.948702 64.174077 
L 168.727875 64.239342 
L 170.507048 64.304606 
L 172.286221 64.36987 
L 174.065394 64.435134 
L 175.844567 64.500399 
L 177.62374 64.565663 
L 179.402912 64.630927 
L 181.182085 64.696191 
L 182.961258 64.761456 
L 184.740431 64.82672 
L 186.519604 64.891984 
L 188.298777 64.957248 
L 190.07795 65.022512 
L 191.857123 65.087777 
L 193.636295 65.153041 
L 195.415468 65.218305 
L 197.194641 65.283569 
L 198.973814 65.348834 
L 200.752987 65.414098 
L 202.53216 65.479362 
L 204.311333 65.544626 
L 206.090506 65.609891 
L 207.869678 65.675155 
L 209.648851 65.740419 
L 211.428024 65.805683 
L 213.207197 65.870948 
L 214.98637 65.936212 
L 216.765543 66.001476 
L 218.544716 66.06674 
L 220.323889 66.132005 
L 222.103061 66.197269 
L 223.882234 66.262533 
L 225.661407 66.327797 
L 227.44058 66.393061 
L 229.219753 66.458326 
L 230.998926 66.52359 
L 232.778099 66.588854 
L 234.557271 66.654118 
L 236.336444 66.719383 
L 238.115617 66.784647 
L 239.89479 66.849911 
L 241.673963 66.915175 
L 243.453136 66.98044 
L 245.232309 67.045704 
L 247.011482 67.110968 
L 248.790654 67.176232 
L 250.569827 67.241497 
L 252.349 67.306761 
L 254.128173 67.372025 
L 255.907346 67.437289 
L 257.686519 67.502554 
" clip-path="url(#pb388b9fe3e)" style="fill: none; stroke: #fc8d62; stroke-width: 2.25; stroke-linecap: round"/>
   </g>
   <g id="patch_3">
    <path d="M 69.709613 167.22 
L 69.709613 12.96 
" style="fill: none; stroke: #262626; stroke-width: 1.25; stroke-linejoin: miter; stroke-linecap: square"/>
   </g>
   <g id="patch_4">
    <path d="M 78.660895 167.22 
L 260.574029 167.22 
" style="fill: none; stroke: #262626; stroke-width: 1.25; stroke-linejoin: miter; stroke-linecap: square"/>
   </g>
   <g id="PathCollection_1">
    <defs>
     <path id="m3a2068c2ab" d="M 0 2.738613 
C 0.726289 2.738613 1.422928 2.450055 1.936492 1.936492 
C 2.450055 1.422928 2.738613 0.726289 2.738613 0 
C 2.738613 -0.726289 2.450055 -1.422928 1.936492 -1.936492 
C 1.422928 -2.450055 0.726289 -2.738613 0 -2.738613 
C -0.726289 -2.738613 -1.422928 -2.450055 -1.936492 -1.936492 
C -2.450055 -1.422928 -2.738613 -0.726289 -2.738613 0 
C -2.738613 0.726289 -2.450055 1.422928 -1.936492 1.936492 
C -1.422928 2.450055 -0.726289 2.738613 0 2.738613 
z
" style="stroke: #ffffff; stroke-opacity: 0.8; stroke-width: 0.5"/>
    </defs>
    <g>
     <use xlink:href="#m3a2068c2ab" x="81.548405" y="94.742286" style="fill: #66c2a5; fill-opacity: 0.8; stroke: #ffffff; stroke-opacity: 0.8; stroke-width: 0.5"/>
     <use xlink:href="#m3a2068c2ab" x="78.660895" y="149.590286" style="fill: #66c2a5; fill-opacity: 0.8; stroke: #ffffff; stroke-opacity: 0.8; stroke-width: 0.5"/>
     <use xlink:href="#m3a2068c2ab" x="142.186116" y="129.879286" style="fill: #66c2a5; fill-opacity: 0.8; stroke: #ffffff; stroke-opacity: 0.8; stroke-width: 0.5"/>
     <use xlink:href="#m3a2068c2ab" x="81.548405" y="12.96" style="fill: #66c2a5; fill-opacity: 0.8; stroke: #ffffff; stroke-opacity: 0.8; stroke-width: 0.5"/>
     <use xlink:href="#m3a2068c2ab" x="81.548405" y="150.08" style="fill: #66c2a5; fill-opacity: 0.8; stroke: #ffffff; stroke-opacity: 0.8; stroke-width: 0.5"/>
     <use xlink:href="#m3a2068c2ab" x="98.873465" y="146.590786" style="fill: #66c2a5; fill-opacity: 0.8; stroke: #ffffff; stroke-opacity: 0.8; stroke-width: 0.5"/>
     <use xlink:href="#m3a2068c2ab" x="119.086036" y="109.311286" style="fill: #66c2a5; fill-opacity: 0.8; stroke: #ffffff; stroke-opacity: 0.8; stroke-width: 0.5"/>
     <use xlink:href="#m3a2068c2ab" x="81.548405" y="133.919429" style="fill: #66c2a5; fill-opacity: 0.8; stroke: #ffffff; stroke-opacity: 0.8; stroke-width: 0.5"/>
     <use xlink:href="#m3a2068c2ab" x="78.660895" y="91.804" style="fill: #66c2a5; fill-opacity: 0.8; stroke: #ffffff; stroke-opacity: 0.8; stroke-width: 0.5"/>
     <use xlink:href="#m3a2068c2ab" x="104.648485" y="140.775429" style="fill: #66c2a5; fill-opacity: 0.8; stroke: #ffffff; stroke-opacity: 0.8; stroke-width: 0.5"/>
     <use xlink:href="#m3a2068c2ab" x="185.498767" y="101.292214" style="fill: #66c2a5; fill-opacity: 0.8; stroke: #ffffff; stroke-opacity: 0.8; stroke-width: 0.5"/>
     <use xlink:href="#m3a2068c2ab" x="84.435915" y="50.790429" style="fill: #66c2a5; fill-opacity: 0.8; stroke: #ffffff; stroke-opacity: 0.8; stroke-width: 0.5"/>
     <use xlink:href="#m3a2068c2ab" x="116.198525" y="18.469286" style="fill: #66c2a5; fill-opacity: 0.8; stroke: #ffffff; stroke-opacity: 0.8; stroke-width: 0.5"/>
     <use xlink:href="#m3a2068c2ab" x="119.086036" y="126.390071" style="fill: #66c2a5; fill-opacity: 0.8; stroke: #ffffff; stroke-opacity: 0.8; stroke-width: 0.5"/>
     <use xlink:href="#m3a2068c2ab" x="95.985955" y="24.713143" style="fill: #66c2a5; fill-opacity: 0.8; stroke: #ffffff; stroke-opacity: 0.8; stroke-width: 0.5"/>
     <use xlink:href="#m3a2068c2ab" x="119.086036" y="83.111571" style="fill: #66c2a5; fill-opacity: 0.8; stroke: #ffffff; stroke-opacity: 0.8; stroke-width: 0.5"/>
     <use xlink:href="#m3a2068c2ab" x="87.323425" y="124.247571" style="fill: #66c2a5; fill-opacity: 0.8; stroke: #ffffff; stroke-opacity: 0.8; stroke-width: 0.5"/>
     <use xlink:href="#m3a2068c2ab" x="173.948727" y="47.362429" style="fill: #66c2a5; fill-opacity: 0.8; stroke: #ffffff; stroke-opacity: 0.8; stroke-width: 0.5"/>
     <use xlink:href="#m3a2068c2ab" x="90.210935" y="98.598786" style="fill: #66c2a5; fill-opacity: 0.8; stroke: #ffffff; stroke-opacity: 0.8; stroke-width: 0.5"/>
     <use xlink:href="#m3a2068c2ab" x="81.548405" y="52.871714" style="fill: #66c2a5; fill-opacity: 0.8; stroke: #ffffff; stroke-opacity: 0.8; stroke-width: 0.5"/>
     <use xlink:href="#m3a2068c2ab" x="101.760975" y="93.395571" style="fill: #66c2a5; fill-opacity: 0.8; stroke: #ffffff; stroke-opacity: 0.8; stroke-width: 0.5"/>
     <use xlink:href="#m3a2068c2ab" x="78.660895" y="122.656" style="fill: #66c2a5; fill-opacity: 0.8; stroke: #ffffff; stroke-opacity: 0.8; stroke-width: 0.5"/>
     <use xlink:href="#m3a2068c2ab" x="113.311015" y="22.203357" style="fill: #66c2a5; fill-opacity: 0.8; stroke: #ffffff; stroke-opacity: 0.8; stroke-width: 0.5"/>
     <use xlink:href="#m3a2068c2ab" x="78.660895" y="97.190857" style="fill: #66c2a5; fill-opacity: 0.8; stroke: #ffffff; stroke-opacity: 0.8; stroke-width: 0.5"/>
     <use xlink:href="#m3a2068c2ab" x="110.423505" y="107.413643" style="fill: #66c2a5; fill-opacity: 0.8; stroke: #ffffff; stroke-opacity: 0.8; stroke-width: 0.5"/>
    </g>
   </g>
   <g id="PathCollection_2">
    <defs>
     <path id="mdb821a37ca" d="M 0 2.738613 
C 0.726289 2.738613 1.422928 2.450055 1.936492 1.936492 
C 2.450055 1.422928 2.738613 0.726289 2.738613 0 
C 2.738613 -0.726289 2.450055 -1.422928 1.936492 -1.936492 
C 1.422928 -2.450055 0.726289 -2.738613 0 -2.738613 
C -0.726289 -2.738613 -1.422928 -2.450055 -1.936492 -1.936492 
C -2.450055 -1.422928 -2.738613 -0.726289 -2.738613 0 
C -2.738613 0.726289 -2.450055 1.422928 -1.936492 1.936492 
C -1.422928 2.450055 -0.726289 2.738613 0 2.738613 
z
" style="stroke: #ffffff; stroke-opacity: 0.8; stroke-width: 0.5"/>
    </defs>
    <g>
     <use xlink:href="#mdb821a37ca" x="93.098445" y="38.976071" style="fill: #fc8d62; fill-opacity: 0.8; stroke: #ffffff; stroke-opacity: 0.8; stroke-width: 0.5"/>
     <use xlink:href="#mdb821a37ca" x="101.760975" y="135.143714" style="fill: #fc8d62; fill-opacity: 0.8; stroke: #ffffff; stroke-opacity: 0.8; stroke-width: 0.5"/>
     <use xlink:href="#mdb821a37ca" x="81.548405" y="18.102" style="fill: #fc8d62; fill-opacity: 0.8; stroke: #ffffff; stroke-opacity: 0.8; stroke-width: 0.5"/>
     <use xlink:href="#mdb821a37ca" x="165.286197" y="73.439714" style="fill: #fc8d62; fill-opacity: 0.8; stroke: #ffffff; stroke-opacity: 0.8; stroke-width: 0.5"/>
     <use xlink:href="#mdb821a37ca" x="220.148888" y="95.721714" style="fill: #fc8d62; fill-opacity: 0.8; stroke: #ffffff; stroke-opacity: 0.8; stroke-width: 0.5"/>
     <use xlink:href="#mdb821a37ca" x="87.323425" y="19.693571" style="fill: #fc8d62; fill-opacity: 0.8; stroke: #ffffff; stroke-opacity: 0.8; stroke-width: 0.5"/>
     <use xlink:href="#mdb821a37ca" x="121.973546" y="95.415643" style="fill: #fc8d62; fill-opacity: 0.8; stroke: #ffffff; stroke-opacity: 0.8; stroke-width: 0.5"/>
     <use xlink:href="#mdb821a37ca" x="101.760975" y="61.625357" style="fill: #fc8d62; fill-opacity: 0.8; stroke: #ffffff; stroke-opacity: 0.8; stroke-width: 0.5"/>
     <use xlink:href="#mdb821a37ca" x="116.198525" y="27.529" style="fill: #fc8d62; fill-opacity: 0.8; stroke: #ffffff; stroke-opacity: 0.8; stroke-width: 0.5"/>
     <use xlink:href="#mdb821a37ca" x="150.848646" y="57.646429" style="fill: #fc8d62; fill-opacity: 0.8; stroke: #ffffff; stroke-opacity: 0.8; stroke-width: 0.5"/>
     <use xlink:href="#mdb821a37ca" x="153.736156" y="41.608286" style="fill: #fc8d62; fill-opacity: 0.8; stroke: #ffffff; stroke-opacity: 0.8; stroke-width: 0.5"/>
     <use xlink:href="#mdb821a37ca" x="104.648485" y="66.338857" style="fill: #fc8d62; fill-opacity: 0.8; stroke: #ffffff; stroke-opacity: 0.8; stroke-width: 0.5"/>
     <use xlink:href="#mdb821a37ca" x="153.736156" y="52.994143" style="fill: #fc8d62; fill-opacity: 0.8; stroke: #ffffff; stroke-opacity: 0.8; stroke-width: 0.5"/>
     <use xlink:href="#mdb821a37ca" x="119.086036" y="67.930429" style="fill: #fc8d62; fill-opacity: 0.8; stroke: #ffffff; stroke-opacity: 0.8; stroke-width: 0.5"/>
     <use xlink:href="#mdb821a37ca" x="95.985955" y="48.219429" style="fill: #fc8d62; fill-opacity: 0.8; stroke: #ffffff; stroke-opacity: 0.8; stroke-width: 0.5"/>
     <use xlink:href="#mdb821a37ca" x="194.161297" y="52.565643" style="fill: #fc8d62; fill-opacity: 0.8; stroke: #ffffff; stroke-opacity: 0.8; stroke-width: 0.5"/>
     <use xlink:href="#mdb821a37ca" x="127.748566" y="131.593286" style="fill: #fc8d62; fill-opacity: 0.8; stroke: #ffffff; stroke-opacity: 0.8; stroke-width: 0.5"/>
     <use xlink:href="#mdb821a37ca" x="113.311015" y="29.977571" style="fill: #fc8d62; fill-opacity: 0.8; stroke: #ffffff; stroke-opacity: 0.8; stroke-width: 0.5"/>
     <use xlink:href="#mdb821a37ca" x="257.686519" y="28.569643" style="fill: #fc8d62; fill-opacity: 0.8; stroke: #ffffff; stroke-opacity: 0.8; stroke-width: 0.5"/>
     <use xlink:href="#mdb821a37ca" x="136.411096" y="111.882286" style="fill: #fc8d62; fill-opacity: 0.8; stroke: #ffffff; stroke-opacity: 0.8; stroke-width: 0.5"/>
     <use xlink:href="#mdb821a37ca" x="104.648485" y="66.828571" style="fill: #fc8d62; fill-opacity: 0.8; stroke: #ffffff; stroke-opacity: 0.8; stroke-width: 0.5"/>
    </g>
   </g>
  </g>
  <g id="legend_1">
   <g id="text_14">
    <text style="fill: #262626; font: 12px 'Arial', 'DejaVu Sans', 'Liberation Sans', 'Bitstream Vera Sans', sans-serif; text-anchor: start" x="269.051875" y="95.165312" transform="rotate(-0 269.051875 95.165312)">multiplier</text>
   </g>
   <g id="PathCollection_3">
    <g>
     <use xlink:href="#m3a2068c2ab" x="284.539219" y="108.631719" style="fill: #66c2a5; fill-opacity: 0.8; stroke: #ffffff; stroke-opacity: 0.8; stroke-width: 0.5"/>
    </g>
   </g>
   <g id="text_15">
    <text style="fill: #262626; font: 11px 'Arial', 'DejaVu Sans', 'Liberation Sans', 'Bitstream Vera Sans', sans-serif; text-anchor: start" x="304.339219" y="111.519219" transform="rotate(-0 304.339219 111.519219)">1.5</text>
   </g>
   <g id="PathCollection_4">
    <g>
     <use xlink:href="#mdb821a37ca" x="284.539219" y="124.777656" style="fill: #fc8d62; fill-opacity: 0.8; stroke: #ffffff; stroke-opacity: 0.8; stroke-width: 0.5"/>
    </g>
   </g>
   <g id="text_16">
    <text style="fill: #262626; font: 11px 'Arial', 'DejaVu Sans', 'Liberation Sans', 'Bitstream Vera Sans', sans-serif; text-anchor: start" x="304.339219" y="127.665156" transform="rotate(-0 304.339219 127.665156)">2.5</text>
   </g>
  </g>
 </g>
 <defs>
  <clipPath id="pb388b9fe3e">
   <rect x="69.709613" y="12.96" width="196.928187" height="154.26"/>
  </clipPath>
 </defs>
</svg>
