<?xml version="1.0" encoding="utf-8" standalone="no"?>
<!DOCTYPE svg PUBLIC "-//W3C//DTD SVG 1.1//EN"
  "http://www.w3.org/Graphics/SVG/1.1/DTD/svg11.dtd">
<svg xmlns:xlink="http://www.w3.org/1999/xlink" width="336.22pt" height="216pt" viewBox="0 0 336.22 216" xmlns="http://www.w3.org/2000/svg" version="1.1">
 <metadata>
  <rdf:RDF xmlns:dc="http://purl.org/dc/elements/1.1/" xmlns:cc="http://creativecommons.org/ns#" xmlns:rdf="http://www.w3.org/1999/02/22-rdf-syntax-ns#">
   <cc:Work>
    <dc:type rdf:resource="http://purl.org/dc/dcmitype/StillImage"/>
    <dc:date>2023-02-24T18:31:06.653978</dc:date>
    <dc:format>image/svg+xml</dc:format>
    <dc:creator>
     <cc:Agent>
      <dc:title>Matplotlib v3.7.0, https://matplotlib.org/</dc:title>
     </cc:Agent>
    </dc:creator>
   </cc:Work>
  </rdf:RDF>
 </metadata>
 <defs>
  <style type="text/css">*{stroke-linejoin: round; stroke-linecap: butt}</style>
 </defs>
 <g id="figure_1">
  <g id="patch_1">
   <path d="M 0 216 
L 336.22 216 
L 336.22 0 
L 0 0 
z
" style="fill: #ffffff"/>
  </g>
  <g id="axes_1">
   <g id="patch_2">
    <path d="M 69.709613 167.22 
L 266.6378 167.22 
L 266.6378 12.96 
L 69.709613 12.96 
z
" style="fill: #ffffff"/>
   </g>
   <g id="matplotlib.axis_1">
    <g id="xtick_1">
     <g id="line2d_1">
      <defs>
       <path id="m10d543f07d" d="M 0 0 
L 0 6 
" style="stroke: #262626; stroke-width: 1.25"/>
      </defs>
      <g>
       <use xlink:href="#m10d543f07d" x="78.660895" y="167.22" style="fill: #262626; stroke: #262626; stroke-width: 1.25"/>
      </g>
     </g>
     <g id="text_1">
      <text style="fill: #262626; font: 11px 'Arial', 'DejaVu Sans', 'Liberation Sans', 'Bitstream Vera Sans', sans-serif; text-anchor: middle" x="78.660895" y="185.078281" transform="rotate(-0 78.660895 185.078281)">0.00</text>
     </g>
    </g>
    <g id="xtick_2">
     <g id="line2d_2">
      <g>
       <use xlink:href="#m10d543f07d" x="123.417301" y="167.22" style="fill: #262626; stroke: #262626; stroke-width: 1.25"/>
      </g>
     </g>
     <g id="text_2">
      <text style="fill: #262626; font: 11px 'Arial', 'DejaVu Sans', 'Liberation Sans', 'Bitstream Vera Sans', sans-serif; text-anchor: middle" x="123.417301" y="185.078281" transform="rotate(-0 123.417301 185.078281)">0.25</text>
     </g>
    </g>
    <g id="xtick_3">
     <g id="line2d_3">
      <g>
       <use xlink:href="#m10d543f07d" x="168.173707" y="167.22" style="fill: #262626; stroke: #262626; stroke-width: 1.25"/>
      </g>
     </g>
     <g id="text_3">
      <text style="fill: #262626; font: 11px 'Arial', 'DejaVu Sans', 'Liberation Sans', 'Bitstream Vera Sans', sans-serif; text-anchor: middle" x="168.173707" y="185.078281" transform="rotate(-0 168.173707 185.078281)">0.50</text>
     </g>
    </g>
    <g id="xtick_4">
     <g id="line2d_4">
      <g>
       <use xlink:href="#m10d543f07d" x="212.930113" y="167.22" style="fill: #262626; stroke: #262626; stroke-width: 1.25"/>
      </g>
     </g>
     <g id="text_4">
      <text style="fill: #262626; font: 11px 'Arial', 'DejaVu Sans', 'Liberation Sans', 'Bitstream Vera Sans', sans-serif; text-anchor: middle" x="212.930113" y="185.078281" transform="rotate(-0 212.930113 185.078281)">0.75</text>
     </g>
    </g>
    <g id="xtick_5">
     <g id="line2d_5">
      <g>
       <use xlink:href="#m10d543f07d" x="257.686519" y="167.22" style="fill: #262626; stroke: #262626; stroke-width: 1.25"/>
      </g>
     </g>
     <g id="text_5">
      <text style="fill: #262626; font: 11px 'Arial', 'DejaVu Sans', 'Liberation Sans', 'Bitstream Vera Sans', sans-serif; text-anchor: middle" x="257.686519" y="185.078281" transform="rotate(-0 257.686519 185.078281)">1.00</text>
     </g>
    </g>
    <g id="text_6">
     <text style="fill: #262626; font: 12px 'Arial', 'DejaVu Sans', 'Liberation Sans', 'Bitstream Vera Sans', sans-serif; text-anchor: middle" x="168.173707" y="200.484062" transform="rotate(-0 168.173707 200.484062)">p(disclose)</text>
    </g>
   </g>
   <g id="matplotlib.axis_2">
    <g id="ytick_1">
     <g id="line2d_6">
      <defs>
       <path id="m3ff487dabd" d="M 0 0 
L -6 0 
" style="stroke: #262626; stroke-width: 1.25"/>
      </defs>
      <g>
       <use xlink:href="#m3ff487dabd" x="69.709613" y="167.22" style="fill: #262626; stroke: #262626; stroke-width: 1.25"/>
      </g>
     </g>
     <g id="text_7">
      <text style="fill: #262626; font: 11px 'Arial', 'DejaVu Sans', 'Liberation Sans', 'Bitstream Vera Sans', sans-serif; text-anchor: end" x="60.209613" y="171.399141" transform="rotate(-0 60.209613 171.399141)">0.0</text>
     </g>
    </g>
    <g id="ytick_2">
     <g id="line2d_7">
      <g>
       <use xlink:href="#m3ff487dabd" x="69.709613" y="136.368" style="fill: #262626; stroke: #262626; stroke-width: 1.25"/>
      </g>
     </g>
     <g id="text_8">
      <text style="fill: #262626; font: 11px 'Arial', 'DejaVu Sans', 'Liberation Sans', 'Bitstream Vera Sans', sans-serif; text-anchor: end" x="60.209613" y="140.547141" transform="rotate(-0 60.209613 140.547141)">0.2</text>
     </g>
    </g>
    <g id="ytick_3">
     <g id="line2d_8">
      <g>
       <use xlink:href="#m3ff487dabd" x="69.709613" y="105.516" style="fill: #262626; stroke: #262626; stroke-width: 1.25"/>
      </g>
     </g>
     <g id="text_9">
      <text style="fill: #262626; font: 11px 'Arial', 'DejaVu Sans', 'Liberation Sans', 'Bitstream Vera Sans', sans-serif; text-anchor: end" x="60.209613" y="109.695141" transform="rotate(-0 60.209613 109.695141)">0.4</text>
     </g>
    </g>
    <g id="ytick_4">
     <g id="line2d_9">
      <g>
       <use xlink:href="#m3ff487dabd" x="69.709613" y="74.664" style="fill: #262626; stroke: #262626; stroke-width: 1.25"/>
      </g>
     </g>
     <g id="text_10">
      <text style="fill: #262626; font: 11px 'Arial', 'DejaVu Sans', 'Liberation Sans', 'Bitstream Vera Sans', sans-serif; text-anchor: end" x="60.209613" y="78.843141" transform="rotate(-0 60.209613 78.843141)">0.6</text>
     </g>
    </g>
    <g id="ytick_5">
     <g id="line2d_10">
      <g>
       <use xlink:href="#m3ff487dabd" x="69.709613" y="43.812" style="fill: #262626; stroke: #262626; stroke-width: 1.25"/>
      </g>
     </g>
     <g id="text_11">
      <text style="fill: #262626; font: 11px 'Arial', 'DejaVu Sans', 'Liberation Sans', 'Bitstream Vera Sans', sans-serif; text-anchor: end" x="60.209613" y="47.991141" transform="rotate(-0 60.209613 47.991141)">0.8</text>
     </g>
    </g>
    <g id="ytick_6">
     <g id="line2d_11">
      <g>
       <use xlink:href="#m3ff487dabd" x="69.709613" y="12.96" style="fill: #262626; stroke: #262626; stroke-width: 1.25"/>
      </g>
     </g>
     <g id="text_12">
      <text style="fill: #262626; font: 11px 'Arial', 'DejaVu Sans', 'Liberation Sans', 'Bitstream Vera Sans', sans-serif; text-anchor: end" x="60.209613" y="17.139141" transform="rotate(-0 60.209613 17.139141)">1.0</text>
     </g>
    </g>
    <g id="text_13">
     <text style="fill: #262626; font: 12px 'Arial', 'DejaVu Sans', 'Liberation Sans', 'Bitstream Vera Sans', sans-serif; text-anchor: middle" x="36.220551" y="90.09" transform="rotate(-90 36.220551 90.09)">contribution</text>
    </g>
   </g>
   <g id="PolyCollection_1">
    <defs>
     <path id="m11a4786b67" d="M 81.502571 -145.990198 
L 81.502571 -75.188252 
L 83.282207 -76.068924 
L 85.061843 -76.948582 
L 86.841479 -77.828748 
L 88.621114 -78.69133 
L 90.40075 -79.466391 
L 92.180386 -80.324512 
L 93.960022 -81.182982 
L 95.739658 -82.041451 
L 97.519294 -82.89992 
L 99.298929 -83.74956 
L 101.078565 -84.476576 
L 102.858201 -85.33822 
L 104.637837 -86.232499 
L 106.417473 -86.943853 
L 108.197109 -87.720703 
L 109.976744 -88.613256 
L 111.75638 -89.505809 
L 113.536016 -90.32735 
L 115.315652 -91.117093 
L 117.095288 -91.850998 
L 118.874924 -92.611728 
L 120.654559 -93.372459 
L 122.434195 -94.13319 
L 124.213831 -94.812002 
L 125.993467 -95.500403 
L 127.773103 -96.232573 
L 129.552739 -96.964579 
L 131.332375 -97.691618 
L 133.11201 -98.434248 
L 134.891646 -99.340476 
L 136.671282 -100.068855 
L 138.450918 -100.61781 
L 140.230554 -101.35175 
L 142.01019 -102.156204 
L 143.789825 -102.811184 
L 145.569461 -103.381511 
L 147.349097 -104.09669 
L 149.128733 -104.686044 
L 150.908369 -105.24777 
L 152.688005 -106.09191 
L 154.46764 -106.550817 
L 156.247276 -107.355235 
L 158.026912 -108.145551 
L 159.806548 -108.733771 
L 161.586184 -109.38685 
L 163.36582 -109.916169 
L 165.145455 -110.510823 
L 166.925091 -111.128679 
L 168.704727 -111.986025 
L 170.484363 -112.835348 
L 172.263999 -113.280114 
L 174.043635 -113.677575 
L 175.82327 -114.094145 
L 177.602906 -114.489726 
L 179.382542 -115.194451 
L 181.162178 -116.148926 
L 182.941814 -116.983387 
L 184.72145 -117.821834 
L 186.501085 -118.126656 
L 188.280721 -118.633203 
L 190.060357 -119.143437 
L 191.839993 -119.828758 
L 193.619629 -120.436285 
L 195.399265 -120.66916 
L 197.1789 -121.121081 
L 198.958536 -121.494531 
L 200.738172 -121.791482 
L 202.517808 -122.297222 
L 204.297444 -122.683262 
L 206.07708 -122.892391 
L 207.856715 -123.135684 
L 209.636351 -123.465256 
L 211.415987 -123.580117 
L 213.195623 -123.813706 
L 214.975259 -124.088722 
L 216.754895 -124.155953 
L 218.53453 -124.20812 
L 220.314166 -124.364335 
L 222.093802 -124.4954 
L 223.873438 -124.640762 
L 225.653074 -124.672628 
L 227.43271 -124.806426 
L 229.212345 -124.864481 
L 230.991981 -124.895358 
L 232.771617 -124.853409 
L 234.551253 -124.731521 
L 236.330889 -124.72084 
L 238.110525 -124.790892 
L 239.89016 -124.873233 
L 241.669796 -124.856802 
L 243.449432 -124.855878 
L 245.229068 -124.834879 
L 247.008704 -124.912226 
L 248.78834 -124.795393 
L 250.567975 -124.641004 
L 252.347611 -124.548569 
L 254.127247 -124.372101 
L 255.906883 -124.171409 
L 257.686519 -124.012423 
L 257.686519 -166.323607 
L 257.686519 -166.323607 
L 255.906883 -165.573922 
L 254.127247 -164.996107 
L 252.347611 -164.460701 
L 250.567975 -163.64556 
L 248.78834 -162.886803 
L 247.008704 -162.174237 
L 245.229068 -161.459205 
L 243.449432 -160.96674 
L 241.669796 -160.43674 
L 239.89016 -159.830942 
L 238.110525 -159.112869 
L 236.330889 -158.701055 
L 234.551253 -158.238381 
L 232.771617 -157.679475 
L 230.991981 -157.117514 
L 229.212345 -156.561975 
L 227.43271 -156.091281 
L 225.653074 -155.894741 
L 223.873438 -155.251078 
L 222.093802 -154.664396 
L 220.314166 -154.22775 
L 218.53453 -153.609273 
L 216.754895 -152.982481 
L 214.975259 -152.450829 
L 213.195623 -151.989756 
L 211.415987 -151.624954 
L 209.636351 -151.360596 
L 207.856715 -151.153286 
L 206.07708 -150.662729 
L 204.297444 -150.165995 
L 202.517808 -149.716122 
L 200.738172 -149.366469 
L 198.958536 -148.847939 
L 197.1789 -148.41247 
L 195.399265 -148.378299 
L 193.619629 -148.043018 
L 191.839993 -147.513601 
L 190.060357 -147.160725 
L 188.280721 -146.835287 
L 186.501085 -146.412088 
L 184.72145 -146.224235 
L 182.941814 -145.646393 
L 181.162178 -145.496712 
L 179.382542 -145.303268 
L 177.602906 -145.16302 
L 175.82327 -145.073082 
L 174.043635 -145.144479 
L 172.263999 -144.897977 
L 170.484363 -144.803125 
L 168.704727 -144.714271 
L 166.925091 -144.537639 
L 165.145455 -144.57409 
L 163.36582 -144.448735 
L 161.586184 -144.401007 
L 159.806548 -144.327563 
L 158.026912 -144.246959 
L 156.247276 -144.353818 
L 154.46764 -144.471099 
L 152.688005 -144.591114 
L 150.908369 -144.71113 
L 149.128733 -144.786363 
L 147.349097 -144.589726 
L 145.569461 -144.420473 
L 143.789825 -144.25122 
L 142.01019 -144.081968 
L 140.230554 -144.209371 
L 138.450918 -144.291927 
L 136.671282 -144.191944 
L 134.891646 -144.085919 
L 133.11201 -144.191263 
L 131.332375 -144.211632 
L 129.552739 -144.176003 
L 127.773103 -144.328888 
L 125.993467 -144.32606 
L 124.213831 -144.269611 
L 122.434195 -144.484816 
L 120.654559 -144.700021 
L 118.874924 -144.915227 
L 117.095288 -145.128531 
L 115.315652 -145.345637 
L 113.536016 -145.560843 
L 111.75638 -145.75376 
L 109.976744 -145.833194 
L 108.197109 -145.839071 
L 106.417473 -145.841314 
L 104.637837 -145.795137 
L 102.858201 -145.709736 
L 101.078565 -145.624335 
L 99.298929 -145.536939 
L 97.519294 -145.49618 
L 95.739658 -145.628168 
L 93.960022 -145.557444 
L 92.180386 -145.483037 
L 90.40075 -145.555738 
L 88.621114 -145.826932 
L 86.841479 -145.895653 
L 85.061843 -145.90704 
L 83.282207 -145.918426 
L 81.502571 -145.990198 
z
" style="stroke: #ffffff; stroke-opacity: 0.15"/>
    </defs>
    <g clip-path="url(#p31b8802b14)">
     <use xlink:href="#m11a4786b67" x="0" y="216" style="fill: #66c2a5; fill-opacity: 0.15; stroke: #ffffff; stroke-opacity: 0.15"/>
    </g>
   </g>
   <g id="PolyCollection_2">
    <defs>
     <path id="m0c38704964" d="M 78.660895 -162.455102 
L 78.660895 -88.869008 
L 80.469234 -89.719149 
L 82.277574 -90.674913 
L 84.085913 -91.671717 
L 85.894253 -92.66852 
L 87.702593 -93.665324 
L 89.510932 -94.662127 
L 91.319272 -95.658931 
L 93.127612 -96.655734 
L 94.935951 -97.652538 
L 96.744291 -98.649341 
L 98.552631 -99.551457 
L 100.36097 -100.416716 
L 102.16931 -101.281976 
L 103.977649 -102.147235 
L 105.785989 -103.045519 
L 107.594329 -103.998999 
L 109.402668 -104.95248 
L 111.211008 -105.90596 
L 113.019348 -106.859441 
L 114.827687 -107.812922 
L 116.636027 -108.766402 
L 118.444367 -109.719883 
L 120.252706 -110.673363 
L 122.061046 -111.626844 
L 123.869386 -112.580324 
L 125.677725 -113.53433 
L 127.486065 -114.489841 
L 129.294404 -115.445352 
L 131.102744 -116.339678 
L 132.911084 -117.231489 
L 134.719423 -118.123299 
L 136.527763 -119.01511 
L 138.336103 -119.906921 
L 140.144442 -120.798731 
L 141.952782 -121.690542 
L 143.761122 -122.582353 
L 145.569461 -123.396361 
L 147.377801 -124.207966 
L 149.18614 -125.019571 
L 150.99448 -125.831177 
L 152.80282 -126.686058 
L 154.611159 -127.563718 
L 156.419499 -128.569744 
L 158.227839 -129.510609 
L 160.036178 -130.451474 
L 161.844518 -131.392339 
L 163.652858 -132.333204 
L 165.461197 -132.958475 
L 167.269537 -133.571372 
L 169.077876 -134.184645 
L 170.886216 -134.917667 
L 172.694556 -135.83063 
L 174.502895 -136.743593 
L 176.311235 -137.656556 
L 178.119575 -138.371067 
L 179.927914 -139.036021 
L 181.736254 -139.721382 
L 183.544594 -140.535621 
L 185.352933 -141.440867 
L 187.161273 -142.160913 
L 188.969613 -142.97133 
L 190.777952 -143.825271 
L 192.586292 -144.545279 
L 194.394631 -145.411017 
L 196.202971 -146.285601 
L 198.011311 -147.033501 
L 199.81965 -147.759219 
L 201.62799 -148.54923 
L 203.43633 -149.260458 
L 205.244669 -149.780586 
L 207.053009 -150.422595 
L 208.861349 -150.864003 
L 210.669688 -151.233537 
L 212.478028 -151.48035 
L 214.286367 -151.933896 
L 216.094707 -152.505625 
L 217.903047 -152.706729 
L 219.711386 -152.788333 
L 221.519726 -152.975691 
L 223.328066 -153.251175 
L 225.136405 -153.411959 
L 226.944745 -153.633435 
L 228.753085 -153.942551 
L 230.561424 -154.107344 
L 232.369764 -154.12825 
L 234.178103 -154.118404 
L 235.986443 -154.126103 
L 237.794783 -154.247597 
L 239.603122 -154.369091 
L 241.411462 -154.493415 
L 243.219802 -154.619894 
L 245.028141 -154.750287 
L 246.836481 -154.872062 
L 248.644821 -154.997407 
L 250.45316 -155.123405 
L 252.2615 -155.249403 
L 254.06984 -155.376219 
L 255.878179 -155.544404 
L 257.686519 -155.904981 
L 257.686519 -185.038725 
L 257.686519 -185.038725 
L 255.878179 -184.439653 
L 254.06984 -183.903829 
L 252.2615 -183.083038 
L 250.45316 -182.285175 
L 248.644821 -181.622941 
L 246.836481 -180.996978 
L 245.028141 -180.19773 
L 243.219802 -179.648932 
L 241.411462 -178.937787 
L 239.603122 -178.469855 
L 237.794783 -177.920313 
L 235.986443 -177.391486 
L 234.178103 -176.879862 
L 232.369764 -176.368555 
L 230.561424 -175.695119 
L 228.753085 -175.348148 
L 226.944745 -175.08353 
L 225.136405 -174.466288 
L 223.328066 -174.00001 
L 221.519726 -173.838834 
L 219.711386 -173.474644 
L 217.903047 -173.13633 
L 216.094707 -172.770358 
L 214.286367 -172.407488 
L 212.478028 -172.048407 
L 210.669688 -171.679215 
L 208.861349 -171.428976 
L 207.053009 -171.171729 
L 205.244669 -170.769679 
L 203.43633 -170.426511 
L 201.62799 -170.188614 
L 199.81965 -169.780821 
L 198.011311 -169.69803 
L 196.202971 -169.522348 
L 194.394631 -169.411964 
L 192.586292 -169.081294 
L 190.777952 -168.822883 
L 188.969613 -168.565628 
L 187.161273 -168.34794 
L 185.352933 -168.267832 
L 183.544594 -168.185049 
L 181.736254 -167.927237 
L 179.927914 -167.811364 
L 178.119575 -167.847341 
L 176.311235 -167.69659 
L 174.502895 -167.644991 
L 172.694556 -167.454663 
L 170.886216 -167.172728 
L 169.077876 -166.999828 
L 167.269537 -166.830185 
L 165.461197 -166.660542 
L 163.652858 -166.531102 
L 161.844518 -166.520414 
L 160.036178 -166.509726 
L 158.227839 -166.430999 
L 156.419499 -166.204479 
L 154.611159 -165.921554 
L 152.80282 -165.6372 
L 150.99448 -165.352847 
L 149.18614 -165.226928 
L 147.377801 -164.966852 
L 145.569461 -164.745451 
L 143.761122 -164.638693 
L 141.952782 -164.609839 
L 140.144442 -164.581336 
L 138.336103 -164.542629 
L 136.527763 -164.50671 
L 134.719423 -164.50406 
L 132.911084 -164.480244 
L 131.102744 -164.456427 
L 129.294404 -164.428011 
L 127.486065 -164.284795 
L 125.677725 -164.064974 
L 123.869386 -164.154291 
L 122.061046 -164.243607 
L 120.252706 -164.29552 
L 118.444367 -164.272488 
L 116.636027 -164.249456 
L 114.827687 -164.226424 
L 113.019348 -164.197852 
L 111.211008 -164.168614 
L 109.402668 -164.139376 
L 107.594329 -164.016038 
L 105.785989 -164.021497 
L 103.977649 -163.975668 
L 102.16931 -163.868976 
L 100.36097 -163.759819 
L 98.552631 -163.649309 
L 96.744291 -163.538799 
L 94.935951 -163.375175 
L 93.127612 -163.315163 
L 91.319272 -163.214294 
L 89.510932 -163.104041 
L 87.702593 -162.888213 
L 85.894253 -162.833962 
L 84.085913 -162.77719 
L 82.277574 -162.669827 
L 80.469234 -162.562465 
L 78.660895 -162.455102 
z
" style="stroke: #ffffff; stroke-opacity: 0.15"/>
    </defs>
    <g clip-path="url(#p31b8802b14)">
     <use xlink:href="#m0c38704964" x="0" y="216" style="fill: #fc8d62; fill-opacity: 0.15; stroke: #ffffff; stroke-opacity: 0.15"/>
    </g>
   </g>
   <g id="line2d_12">
    <path d="M 81.502571 103.816897 
L 83.282207 103.464891 
L 85.061843 103.112885 
L 86.841479 102.760878 
L 88.621114 102.408872 
L 90.40075 102.056866 
L 92.180386 101.70486 
L 93.960022 101.352854 
L 95.739658 101.000848 
L 97.519294 100.648842 
L 99.298929 100.296836 
L 101.078565 99.94483 
L 102.858201 99.592824 
L 104.637837 99.240818 
L 106.417473 98.888812 
L 108.197109 98.536806 
L 109.976744 98.1848 
L 111.75638 97.832794 
L 113.536016 97.480788 
L 115.315652 97.128782 
L 117.095288 96.776776 
L 118.874924 96.42477 
L 120.654559 96.072764 
L 122.434195 95.720758 
L 124.213831 95.368752 
L 125.993467 95.016746 
L 127.773103 94.66474 
L 129.552739 94.312734 
L 131.332375 93.960728 
L 133.11201 93.608722 
L 134.891646 93.256716 
L 136.671282 92.90471 
L 138.450918 92.552704 
L 140.230554 92.200698 
L 142.01019 91.848692 
L 143.789825 91.496686 
L 145.569461 91.14468 
L 147.349097 90.792674 
L 149.128733 90.440668 
L 150.908369 90.088662 
L 152.688005 89.736656 
L 154.46764 89.38465 
L 156.247276 89.032644 
L 158.026912 88.680638 
L 159.806548 88.328632 
L 161.586184 87.976626 
L 163.36582 87.62462 
L 165.145455 87.272614 
L 166.925091 86.920608 
L 168.704727 86.568602 
L 170.484363 86.216596 
L 172.263999 85.86459 
L 174.043635 85.512584 
L 175.82327 85.160578 
L 177.602906 84.808572 
L 179.382542 84.456566 
L 181.162178 84.10456 
L 182.941814 83.752554 
L 184.72145 83.400548 
L 186.501085 83.048542 
L 188.280721 82.696536 
L 190.060357 82.34453 
L 191.839993 81.992524 
L 193.619629 81.640518 
L 195.399265 81.288512 
L 197.1789 80.936506 
L 198.958536 80.5845 
L 200.738172 80.232494 
L 202.517808 79.880488 
L 204.297444 79.528482 
L 206.07708 79.176476 
L 207.856715 78.82447 
L 209.636351 78.472464 
L 211.415987 78.120458 
L 213.195623 77.768452 
L 214.975259 77.416446 
L 216.754895 77.06444 
L 218.53453 76.712434 
L 220.314166 76.360428 
L 222.093802 76.008422 
L 223.873438 75.656416 
L 225.653074 75.30441 
L 227.43271 74.952404 
L 229.212345 74.600397 
L 230.991981 74.248391 
L 232.771617 73.896385 
L 234.551253 73.544379 
L 236.330889 73.192373 
L 238.110525 72.840367 
L 239.89016 72.488361 
L 241.669796 72.136355 
L 243.449432 71.784349 
L 245.229068 71.432343 
L 247.008704 71.080337 
L 248.78834 70.728331 
L 250.567975 70.376325 
L 252.347611 70.024319 
L 254.127247 69.672313 
L 255.906883 69.320307 
L 257.686519 68.968301 
" clip-path="url(#p31b8802b14)" style="fill: none; stroke: #66c2a5; stroke-width: 2.25; stroke-linecap: round"/>
   </g>
   <g id="line2d_13">
    <path d="M 78.660895 81.917611 
L 80.469234 81.537581 
L 82.277574 81.157552 
L 84.085913 80.777522 
L 85.894253 80.397493 
L 87.702593 80.017463 
L 89.510932 79.637433 
L 91.319272 79.257404 
L 93.127612 78.877374 
L 94.935951 78.497344 
L 96.744291 78.117315 
L 98.552631 77.737285 
L 100.36097 77.357256 
L 102.16931 76.977226 
L 103.977649 76.597196 
L 105.785989 76.217167 
L 107.594329 75.837137 
L 109.402668 75.457107 
L 111.211008 75.077078 
L 113.019348 74.697048 
L 114.827687 74.317019 
L 116.636027 73.936989 
L 118.444367 73.556959 
L 120.252706 73.17693 
L 122.061046 72.7969 
L 123.869386 72.41687 
L 125.677725 72.036841 
L 127.486065 71.656811 
L 129.294404 71.276781 
L 131.102744 70.896752 
L 132.911084 70.516722 
L 134.719423 70.136693 
L 136.527763 69.756663 
L 138.336103 69.376633 
L 140.144442 68.996604 
L 141.952782 68.616574 
L 143.761122 68.236544 
L 145.569461 67.856515 
L 147.377801 67.476485 
L 149.18614 67.096456 
L 150.99448 66.716426 
L 152.80282 66.336396 
L 154.611159 65.956367 
L 156.419499 65.576337 
L 158.227839 65.196307 
L 160.036178 64.816278 
L 161.844518 64.436248 
L 163.652858 64.056219 
L 165.461197 63.676189 
L 167.269537 63.296159 
L 169.077876 62.91613 
L 170.886216 62.5361 
L 172.694556 62.15607 
L 174.502895 61.776041 
L 176.311235 61.396011 
L 178.119575 61.015981 
L 179.927914 60.635952 
L 181.736254 60.255922 
L 183.544594 59.875893 
L 185.352933 59.495863 
L 187.161273 59.115833 
L 188.969613 58.735804 
L 190.777952 58.355774 
L 192.586292 57.975744 
L 194.394631 57.595715 
L 196.202971 57.215685 
L 198.011311 56.835656 
L 199.81965 56.455626 
L 201.62799 56.075596 
L 203.43633 55.695567 
L 205.244669 55.315537 
L 207.053009 54.935507 
L 208.861349 54.555478 
L 210.669688 54.175448 
L 212.478028 53.795419 
L 214.286367 53.415389 
L 216.094707 53.035359 
L 217.903047 52.65533 
L 219.711386 52.2753 
L 221.519726 51.89527 
L 223.328066 51.515241 
L 225.136405 51.135211 
L 226.944745 50.755181 
L 228.753085 50.375152 
L 230.561424 49.995122 
L 232.369764 49.615093 
L 234.178103 49.235063 
L 235.986443 48.855033 
L 237.794783 48.475004 
L 239.603122 48.094974 
L 241.411462 47.714944 
L 243.219802 47.334915 
L 245.028141 46.954885 
L 246.836481 46.574856 
L 248.644821 46.194826 
L 250.45316 45.814796 
L 252.2615 45.434767 
L 254.06984 45.054737 
L 255.878179 44.674707 
L 257.686519 44.294678 
" clip-path="url(#p31b8802b14)" style="fill: none; stroke: #fc8d62; stroke-width: 2.25; stroke-linecap: round"/>
   </g>
   <g id="patch_3">
    <path d="M 69.709613 167.22 
L 69.709613 12.96 
" style="fill: none; stroke: #262626; stroke-width: 1.25; stroke-linejoin: miter; stroke-linecap: square"/>
   </g>
   <g id="patch_4">
    <path d="M 78.660895 167.22 
L 257.686519 167.22 
" style="fill: none; stroke: #262626; stroke-width: 1.25; stroke-linejoin: miter; stroke-linecap: square"/>
   </g>
   <g id="PathCollection_1">
    <defs>
     <path id="me31101a1fe" d="M 0 2.738613 
C 0.726289 2.738613 1.422928 2.450055 1.936492 1.936492 
C 2.450055 1.422928 2.738613 0.726289 2.738613 0 
C 2.738613 -0.726289 2.450055 -1.422928 1.936492 -1.936492 
C 1.422928 -2.450055 0.726289 -2.738613 0 -2.738613 
C -0.726289 -2.738613 -1.422928 -2.450055 -1.936492 -1.936492 
C -2.450055 -1.422928 -2.738613 -0.726289 -2.738613 0 
C -2.738613 0.726289 -2.450055 1.422928 -1.936492 1.936492 
C -1.422928 2.450055 -0.726289 2.738613 0 2.738613 
z
" style="stroke: #ffffff; stroke-opacity: 0.8; stroke-width: 0.5"/>
    </defs>
    <g>
     <use xlink:href="#me31101a1fe" x="135.494426" y="80.785429" style="fill: #66c2a5; fill-opacity: 0.8; stroke: #ffffff; stroke-opacity: 0.8; stroke-width: 0.5"/>
     <use xlink:href="#me31101a1fe" x="246.319812" y="32.303714" style="fill: #66c2a5; fill-opacity: 0.8; stroke: #ffffff; stroke-opacity: 0.8; stroke-width: 0.5"/>
     <use xlink:href="#me31101a1fe" x="200.852987" y="63.155714" style="fill: #66c2a5; fill-opacity: 0.8; stroke: #ffffff; stroke-opacity: 0.8; stroke-width: 0.5"/>
     <use xlink:href="#me31101a1fe" x="95.710954" y="135.143714" style="fill: #66c2a5; fill-opacity: 0.8; stroke: #ffffff; stroke-opacity: 0.8; stroke-width: 0.5"/>
     <use xlink:href="#me31101a1fe" x="121.286043" y="123.635429" style="fill: #66c2a5; fill-opacity: 0.8; stroke: #ffffff; stroke-opacity: 0.8; stroke-width: 0.5"/>
     <use xlink:href="#me31101a1fe" x="252.003166" y="75.643429" style="fill: #66c2a5; fill-opacity: 0.8; stroke: #ffffff; stroke-opacity: 0.8; stroke-width: 0.5"/>
     <use xlink:href="#me31101a1fe" x="186.644604" y="97.925429" style="fill: #66c2a5; fill-opacity: 0.8; stroke: #ffffff; stroke-opacity: 0.8; stroke-width: 0.5"/>
     <use xlink:href="#me31101a1fe" x="217.903047" y="126.573714" style="fill: #66c2a5; fill-opacity: 0.8; stroke: #ffffff; stroke-opacity: 0.8; stroke-width: 0.5"/>
     <use xlink:href="#me31101a1fe" x="240.636459" y="123.145714" style="fill: #66c2a5; fill-opacity: 0.8; stroke: #ffffff; stroke-opacity: 0.8; stroke-width: 0.5"/>
     <use xlink:href="#me31101a1fe" x="189.486281" y="89.110571" style="fill: #66c2a5; fill-opacity: 0.8; stroke: #ffffff; stroke-opacity: 0.8; stroke-width: 0.5"/>
     <use xlink:href="#me31101a1fe" x="166.752868" y="115.310286" style="fill: #66c2a5; fill-opacity: 0.8; stroke: #ffffff; stroke-opacity: 0.8; stroke-width: 0.5"/>
     <use xlink:href="#me31101a1fe" x="257.686519" y="12.96" style="fill: #66c2a5; fill-opacity: 0.8; stroke: #ffffff; stroke-opacity: 0.8; stroke-width: 0.5"/>
     <use xlink:href="#me31101a1fe" x="232.11143" y="46.260571" style="fill: #66c2a5; fill-opacity: 0.8; stroke: #ffffff; stroke-opacity: 0.8; stroke-width: 0.5"/>
     <use xlink:href="#me31101a1fe" x="132.652749" y="115.555143" style="fill: #66c2a5; fill-opacity: 0.8; stroke: #ffffff; stroke-opacity: 0.8; stroke-width: 0.5"/>
     <use xlink:href="#me31101a1fe" x="161.069515" y="115.8" style="fill: #66c2a5; fill-opacity: 0.8; stroke: #ffffff; stroke-opacity: 0.8; stroke-width: 0.5"/>
     <use xlink:href="#me31101a1fe" x="257.686519" y="18.836571" style="fill: #66c2a5; fill-opacity: 0.8; stroke: #ffffff; stroke-opacity: 0.8; stroke-width: 0.5"/>
     <use xlink:href="#me31101a1fe" x="95.710954" y="75.888286" style="fill: #66c2a5; fill-opacity: 0.8; stroke: #ffffff; stroke-opacity: 0.8; stroke-width: 0.5"/>
     <use xlink:href="#me31101a1fe" x="81.502571" y="12.96" style="fill: #66c2a5; fill-opacity: 0.8; stroke: #ffffff; stroke-opacity: 0.8; stroke-width: 0.5"/>
     <use xlink:href="#me31101a1fe" x="232.11143" y="72.215429" style="fill: #66c2a5; fill-opacity: 0.8; stroke: #ffffff; stroke-opacity: 0.8; stroke-width: 0.5"/>
     <use xlink:href="#me31101a1fe" x="180.961251" y="50.423143" style="fill: #66c2a5; fill-opacity: 0.8; stroke: #ffffff; stroke-opacity: 0.8; stroke-width: 0.5"/>
     <use xlink:href="#me31101a1fe" x="257.686519" y="57.524" style="fill: #66c2a5; fill-opacity: 0.8; stroke: #ffffff; stroke-opacity: 0.8; stroke-width: 0.5"/>
     <use xlink:href="#me31101a1fe" x="240.636459" y="97.925429" style="fill: #66c2a5; fill-opacity: 0.8; stroke: #ffffff; stroke-opacity: 0.8; stroke-width: 0.5"/>
     <use xlink:href="#me31101a1fe" x="92.869277" y="154.732286" style="fill: #66c2a5; fill-opacity: 0.8; stroke: #ffffff; stroke-opacity: 0.8; stroke-width: 0.5"/>
     <use xlink:href="#me31101a1fe" x="252.003166" y="85.927429" style="fill: #66c2a5; fill-opacity: 0.8; stroke: #ffffff; stroke-opacity: 0.8; stroke-width: 0.5"/>
     <use xlink:href="#me31101a1fe" x="92.869277" y="66.583714" style="fill: #66c2a5; fill-opacity: 0.8; stroke: #ffffff; stroke-opacity: 0.8; stroke-width: 0.5"/>
     <use xlink:href="#me31101a1fe" x="172.436222" y="71.480857" style="fill: #66c2a5; fill-opacity: 0.8; stroke: #ffffff; stroke-opacity: 0.8; stroke-width: 0.5"/>
     <use xlink:href="#me31101a1fe" x="212.219694" y="129.756857" style="fill: #66c2a5; fill-opacity: 0.8; stroke: #ffffff; stroke-opacity: 0.8; stroke-width: 0.5"/>
     <use xlink:href="#me31101a1fe" x="254.844842" y="70.256571" style="fill: #66c2a5; fill-opacity: 0.8; stroke: #ffffff; stroke-opacity: 0.8; stroke-width: 0.5"/>
    </g>
   </g>
   <g id="PathCollection_2">
    <defs>
     <path id="m940dce8eee" d="M 0 2.738613 
C 0.726289 2.738613 1.422928 2.450055 1.936492 1.936492 
C 2.450055 1.422928 2.738613 0.726289 2.738613 0 
C 2.738613 -0.726289 2.450055 -1.422928 1.936492 -1.936492 
C 1.422928 -2.450055 0.726289 -2.738613 0 -2.738613 
C -0.726289 -2.738613 -1.422928 -2.450055 -1.936492 -1.936492 
C -2.450055 -1.422928 -2.738613 -0.726289 -2.738613 0 
C -2.738613 0.726289 -2.450055 1.422928 -1.936492 1.936492 
C -1.422928 2.450055 -0.726289 2.738613 0 2.738613 
z
" style="stroke: #ffffff; stroke-opacity: 0.8; stroke-width: 0.5"/>
    </defs>
    <g>
     <use xlink:href="#m940dce8eee" x="243.478136" y="15.163714" style="fill: #fc8d62; fill-opacity: 0.8; stroke: #ffffff; stroke-opacity: 0.8; stroke-width: 0.5"/>
     <use xlink:href="#m940dce8eee" x="237.794783" y="19.571143" style="fill: #fc8d62; fill-opacity: 0.8; stroke: #ffffff; stroke-opacity: 0.8; stroke-width: 0.5"/>
     <use xlink:href="#m940dce8eee" x="257.686519" y="12.96" style="fill: #fc8d62; fill-opacity: 0.8; stroke: #ffffff; stroke-opacity: 0.8; stroke-width: 0.5"/>
     <use xlink:href="#m940dce8eee" x="155.386162" y="124.37" style="fill: #fc8d62; fill-opacity: 0.8; stroke: #ffffff; stroke-opacity: 0.8; stroke-width: 0.5"/>
     <use xlink:href="#m940dce8eee" x="78.660895" y="31.569143" style="fill: #fc8d62; fill-opacity: 0.8; stroke: #ffffff; stroke-opacity: 0.8; stroke-width: 0.5"/>
     <use xlink:href="#m940dce8eee" x="212.219694" y="101.353429" style="fill: #fc8d62; fill-opacity: 0.8; stroke: #ffffff; stroke-opacity: 0.8; stroke-width: 0.5"/>
     <use xlink:href="#m940dce8eee" x="78.660895" y="92.538571" style="fill: #fc8d62; fill-opacity: 0.8; stroke: #ffffff; stroke-opacity: 0.8; stroke-width: 0.5"/>
     <use xlink:href="#m940dce8eee" x="252.003166" y="63.645429" style="fill: #fc8d62; fill-opacity: 0.8; stroke: #ffffff; stroke-opacity: 0.8; stroke-width: 0.5"/>
     <use xlink:href="#m940dce8eee" x="146.861132" y="74.664" style="fill: #fc8d62; fill-opacity: 0.8; stroke: #ffffff; stroke-opacity: 0.8; stroke-width: 0.5"/>
     <use xlink:href="#m940dce8eee" x="257.686519" y="30.1" style="fill: #fc8d62; fill-opacity: 0.8; stroke: #ffffff; stroke-opacity: 0.8; stroke-width: 0.5"/>
     <use xlink:href="#m940dce8eee" x="126.969396" y="106.005714" style="fill: #fc8d62; fill-opacity: 0.8; stroke: #ffffff; stroke-opacity: 0.8; stroke-width: 0.5"/>
     <use xlink:href="#m940dce8eee" x="186.644604" y="63.890286" style="fill: #fc8d62; fill-opacity: 0.8; stroke: #ffffff; stroke-opacity: 0.8; stroke-width: 0.5"/>
     <use xlink:href="#m940dce8eee" x="223.5864" y="77.357429" style="fill: #fc8d62; fill-opacity: 0.8; stroke: #ffffff; stroke-opacity: 0.8; stroke-width: 0.5"/>
     <use xlink:href="#m940dce8eee" x="252.003166" y="28.875714" style="fill: #fc8d62; fill-opacity: 0.8; stroke: #ffffff; stroke-opacity: 0.8; stroke-width: 0.5"/>
     <use xlink:href="#m940dce8eee" x="252.003166" y="47.974571" style="fill: #fc8d62; fill-opacity: 0.8; stroke: #ffffff; stroke-opacity: 0.8; stroke-width: 0.5"/>
     <use xlink:href="#m940dce8eee" x="215.06137" y="79.316286" style="fill: #fc8d62; fill-opacity: 0.8; stroke: #ffffff; stroke-opacity: 0.8; stroke-width: 0.5"/>
     <use xlink:href="#m940dce8eee" x="81.502571" y="36.711143" style="fill: #fc8d62; fill-opacity: 0.8; stroke: #ffffff; stroke-opacity: 0.8; stroke-width: 0.5"/>
     <use xlink:href="#m940dce8eee" x="252.003166" y="22.019714" style="fill: #fc8d62; fill-opacity: 0.8; stroke: #ffffff; stroke-opacity: 0.8; stroke-width: 0.5"/>
     <use xlink:href="#m940dce8eee" x="212.219694" y="19.816" style="fill: #fc8d62; fill-opacity: 0.8; stroke: #ffffff; stroke-opacity: 0.8; stroke-width: 0.5"/>
     <use xlink:href="#m940dce8eee" x="257.686519" y="37.445714" style="fill: #fc8d62; fill-opacity: 0.8; stroke: #ffffff; stroke-opacity: 0.8; stroke-width: 0.5"/>
     <use xlink:href="#m940dce8eee" x="229.269753" y="46.750286" style="fill: #fc8d62; fill-opacity: 0.8; stroke: #ffffff; stroke-opacity: 0.8; stroke-width: 0.5"/>
     <use xlink:href="#m940dce8eee" x="257.686519" y="12.96" style="fill: #fc8d62; fill-opacity: 0.8; stroke: #ffffff; stroke-opacity: 0.8; stroke-width: 0.5"/>
     <use xlink:href="#m940dce8eee" x="195.169634" y="89.845143" style="fill: #fc8d62; fill-opacity: 0.8; stroke: #ffffff; stroke-opacity: 0.8; stroke-width: 0.5"/>
     <use xlink:href="#m940dce8eee" x="257.686519" y="41.118571" style="fill: #fc8d62; fill-opacity: 0.8; stroke: #ffffff; stroke-opacity: 0.8; stroke-width: 0.5"/>
     <use xlink:href="#m940dce8eee" x="215.06137" y="72.460286" style="fill: #fc8d62; fill-opacity: 0.8; stroke: #ffffff; stroke-opacity: 0.8; stroke-width: 0.5"/>
     <use xlink:href="#m940dce8eee" x="163.911192" y="62.666" style="fill: #fc8d62; fill-opacity: 0.8; stroke: #ffffff; stroke-opacity: 0.8; stroke-width: 0.5"/>
     <use xlink:href="#m940dce8eee" x="252.003166" y="94.742286" style="fill: #fc8d62; fill-opacity: 0.8; stroke: #ffffff; stroke-opacity: 0.8; stroke-width: 0.5"/>
     <use xlink:href="#m940dce8eee" x="189.486281" y="44.301714" style="fill: #fc8d62; fill-opacity: 0.8; stroke: #ffffff; stroke-opacity: 0.8; stroke-width: 0.5"/>
    </g>
   </g>
  </g>
  <g id="legend_1">
   <g id="text_14">
    <text style="fill: #262626; font: 12px 'Arial', 'DejaVu Sans', 'Liberation Sans', 'Bitstream Vera Sans', sans-serif; text-anchor: start" x="269.051875" y="95.165312" transform="rotate(-0 269.051875 95.165312)">multiplier</text>
   </g>
   <g id="PathCollection_3">
    <g>
     <use xlink:href="#me31101a1fe" x="284.539219" y="108.631719" style="fill: #66c2a5; fill-opacity: 0.8; stroke: #ffffff; stroke-opacity: 0.8; stroke-width: 0.5"/>
    </g>
   </g>
   <g id="text_15">
    <text style="fill: #262626; font: 11px 'Arial', 'DejaVu Sans', 'Liberation Sans', 'Bitstream Vera Sans', sans-serif; text-anchor: start" x="304.339219" y="111.519219" transform="rotate(-0 304.339219 111.519219)">1.5</text>
   </g>
   <g id="PathCollection_4">
    <g>
     <use xlink:href="#m940dce8eee" x="284.539219" y="124.777656" style="fill: #fc8d62; fill-opacity: 0.8; stroke: #ffffff; stroke-opacity: 0.8; stroke-width: 0.5"/>
    </g>
   </g>
   <g id="text_16">
    <text style="fill: #262626; font: 11px 'Arial', 'DejaVu Sans', 'Liberation Sans', 'Bitstream Vera Sans', sans-serif; text-anchor: start" x="304.339219" y="127.665156" transform="rotate(-0 304.339219 127.665156)">2.5</text>
   </g>
  </g>
 </g>
 <defs>
  <clipPath id="p31b8802b14">
   <rect x="69.709613" y="12.96" width="196.928187" height="154.26"/>
  </clipPath>
 </defs>
</svg>
