<?xml version="1.0" encoding="utf-8" standalone="no"?>
<!DOCTYPE svg PUBLIC "-//W3C//DTD SVG 1.1//EN"
  "http://www.w3.org/Graphics/SVG/1.1/DTD/svg11.dtd">
<svg xmlns:xlink="http://www.w3.org/1999/xlink" width="335.95pt" height="216pt" viewBox="0 0 335.95 216" xmlns="http://www.w3.org/2000/svg" version="1.1">
 <metadata>
  <rdf:RDF xmlns:dc="http://purl.org/dc/elements/1.1/" xmlns:cc="http://creativecommons.org/ns#" xmlns:rdf="http://www.w3.org/1999/02/22-rdf-syntax-ns#">
   <cc:Work>
    <dc:type rdf:resource="http://purl.org/dc/dcmitype/StillImage"/>
    <dc:date>2023-03-14T19:16:03.661933</dc:date>
    <dc:format>image/svg+xml</dc:format>
    <dc:creator>
     <cc:Agent>
      <dc:title>Matplotlib v3.7.0, https://matplotlib.org/</dc:title>
     </cc:Agent>
    </dc:creator>
   </cc:Work>
  </rdf:RDF>
 </metadata>
 <defs>
  <style type="text/css">*{stroke-linejoin: round; stroke-linecap: butt}</style>
 </defs>
 <g id="figure_1">
  <g id="patch_1">
   <path d="M 0 216 
L 335.95 216 
L 335.95 0 
L 0 0 
z
" style="fill: #ffffff"/>
  </g>
  <g id="axes_1">
   <g id="patch_2">
    <path d="M 71.011431 165.78 
L 266.6405 165.78 
L 266.6405 12.96 
L 71.011431 12.96 
z
" style="fill: #ffffff"/>
   </g>
   <g id="matplotlib.axis_1">
    <g id="xtick_1">
     <g id="line2d_1">
      <defs>
       <path id="m965cedfc58" d="M 0 0 
L 0 6 
" style="stroke: #262626; stroke-width: 1.25"/>
      </defs>
      <g>
       <use xlink:href="#m965cedfc58" x="98.051071" y="165.78" style="fill: #262626; stroke: #262626; stroke-width: 1.25"/>
      </g>
     </g>
     <g id="text_1">
      <text style="fill: #262626; font: 11px 'Arial', 'DejaVu Sans', 'Liberation Sans', 'Bitstream Vera Sans', sans-serif; text-anchor: middle" x="98.051071" y="183.638281" transform="rotate(-0 98.051071 183.638281)">0.0</text>
     </g>
    </g>
    <g id="xtick_2">
     <g id="line2d_2">
      <g>
       <use xlink:href="#m965cedfc58" x="139.427163" y="165.78" style="fill: #262626; stroke: #262626; stroke-width: 1.25"/>
      </g>
     </g>
     <g id="text_2">
      <text style="fill: #262626; font: 11px 'Arial', 'DejaVu Sans', 'Liberation Sans', 'Bitstream Vera Sans', sans-serif; text-anchor: middle" x="139.427163" y="183.638281" transform="rotate(-0 139.427163 183.638281)">0.2</text>
     </g>
    </g>
    <g id="xtick_3">
     <g id="line2d_3">
      <g>
       <use xlink:href="#m965cedfc58" x="180.803256" y="165.78" style="fill: #262626; stroke: #262626; stroke-width: 1.25"/>
      </g>
     </g>
     <g id="text_3">
      <text style="fill: #262626; font: 11px 'Arial', 'DejaVu Sans', 'Liberation Sans', 'Bitstream Vera Sans', sans-serif; text-anchor: middle" x="180.803256" y="183.638281" transform="rotate(-0 180.803256 183.638281)">0.4</text>
     </g>
    </g>
    <g id="xtick_4">
     <g id="line2d_4">
      <g>
       <use xlink:href="#m965cedfc58" x="222.179348" y="165.78" style="fill: #262626; stroke: #262626; stroke-width: 1.25"/>
      </g>
     </g>
     <g id="text_4">
      <text style="fill: #262626; font: 11px 'Arial', 'DejaVu Sans', 'Liberation Sans', 'Bitstream Vera Sans', sans-serif; text-anchor: middle" x="222.179348" y="183.638281" transform="rotate(-0 222.179348 183.638281)">0.6</text>
     </g>
    </g>
    <g id="xtick_5">
     <g id="line2d_5">
      <g>
       <use xlink:href="#m965cedfc58" x="263.55544" y="165.78" style="fill: #262626; stroke: #262626; stroke-width: 1.25"/>
      </g>
     </g>
     <g id="text_5">
      <text style="fill: #262626; font: 11px 'Arial', 'DejaVu Sans', 'Liberation Sans', 'Bitstream Vera Sans', sans-serif; text-anchor: middle" x="263.55544" y="183.638281" transform="rotate(-0 263.55544 183.638281)">0.8</text>
     </g>
    </g>
    <g id="text_6">
     <text style="fill: #262626; font: 12px 'Arial', 'DejaVu Sans', 'Liberation Sans', 'Bitstream Vera Sans', sans-serif; text-anchor: middle" x="168.825966" y="199.044062" transform="rotate(-0 168.825966 199.044062)">p(disclose)</text>
    </g>
   </g>
   <g id="matplotlib.axis_2">
    <g id="ytick_1">
     <g id="line2d_6">
      <defs>
       <path id="me8921494e3" d="M 0 0 
L -6 0 
" style="stroke: #262626; stroke-width: 1.25"/>
      </defs>
      <g>
       <use xlink:href="#me8921494e3" x="71.011431" y="165.78" style="fill: #262626; stroke: #262626; stroke-width: 1.25"/>
      </g>
     </g>
     <g id="text_7">
      <text style="fill: #262626; font: 11px 'Arial', 'DejaVu Sans', 'Liberation Sans', 'Bitstream Vera Sans', sans-serif; text-anchor: end" x="61.511431" y="169.959141" transform="rotate(-0 61.511431 169.959141)">0.0</text>
     </g>
    </g>
    <g id="ytick_2">
     <g id="line2d_7">
      <g>
       <use xlink:href="#me8921494e3" x="71.011431" y="135.216" style="fill: #262626; stroke: #262626; stroke-width: 1.25"/>
      </g>
     </g>
     <g id="text_8">
      <text style="fill: #262626; font: 11px 'Arial', 'DejaVu Sans', 'Liberation Sans', 'Bitstream Vera Sans', sans-serif; text-anchor: end" x="61.511431" y="139.395141" transform="rotate(-0 61.511431 139.395141)">0.2</text>
     </g>
    </g>
    <g id="ytick_3">
     <g id="line2d_8">
      <g>
       <use xlink:href="#me8921494e3" x="71.011431" y="104.652" style="fill: #262626; stroke: #262626; stroke-width: 1.25"/>
      </g>
     </g>
     <g id="text_9">
      <text style="fill: #262626; font: 11px 'Arial', 'DejaVu Sans', 'Liberation Sans', 'Bitstream Vera Sans', sans-serif; text-anchor: end" x="61.511431" y="108.831141" transform="rotate(-0 61.511431 108.831141)">0.4</text>
     </g>
    </g>
    <g id="ytick_4">
     <g id="line2d_9">
      <g>
       <use xlink:href="#me8921494e3" x="71.011431" y="74.088" style="fill: #262626; stroke: #262626; stroke-width: 1.25"/>
      </g>
     </g>
     <g id="text_10">
      <text style="fill: #262626; font: 11px 'Arial', 'DejaVu Sans', 'Liberation Sans', 'Bitstream Vera Sans', sans-serif; text-anchor: end" x="61.511431" y="78.267141" transform="rotate(-0 61.511431 78.267141)">0.6</text>
     </g>
    </g>
    <g id="ytick_5">
     <g id="line2d_10">
      <g>
       <use xlink:href="#me8921494e3" x="71.011431" y="43.524" style="fill: #262626; stroke: #262626; stroke-width: 1.25"/>
      </g>
     </g>
     <g id="text_11">
      <text style="fill: #262626; font: 11px 'Arial', 'DejaVu Sans', 'Liberation Sans', 'Bitstream Vera Sans', sans-serif; text-anchor: end" x="61.511431" y="47.703141" transform="rotate(-0 61.511431 47.703141)">0.8</text>
     </g>
    </g>
    <g id="ytick_6">
     <g id="line2d_11">
      <g>
       <use xlink:href="#me8921494e3" x="71.011431" y="12.96" style="fill: #262626; stroke: #262626; stroke-width: 1.25"/>
      </g>
     </g>
     <g id="text_12">
      <text style="fill: #262626; font: 11px 'Arial', 'DejaVu Sans', 'Liberation Sans', 'Bitstream Vera Sans', sans-serif; text-anchor: end" x="61.511431" y="17.139141" transform="rotate(-0 61.511431 17.139141)">1.0</text>
     </g>
    </g>
    <g id="text_13">
     <text style="fill: #262626; font: 12px 'Arial', 'DejaVu Sans', 'Liberation Sans', 'Bitstream Vera Sans', sans-serif; text-anchor: middle" x="37.188619" y="89.37" transform="rotate(-90 37.188619 89.37)">norm_payoff</text>
    </g>
   </g>
   <g id="PolyCollection_1">
    <defs>
     <path id="m98de488b2f" d="M 83.533143 -133.014688 
L 83.533143 -101.729593 
L 84.339695 -102.479654 
L 85.146246 -103.170109 
L 85.952798 -104.305262 
L 86.759349 -105.23028 
L 87.565901 -106.136566 
L 88.372453 -107.056 
L 89.179004 -107.785984 
L 89.985556 -108.582 
L 90.792107 -109.425904 
L 91.598659 -110.250772 
L 92.40521 -110.886954 
L 93.211762 -111.446331 
L 94.018313 -112.085896 
L 94.824865 -112.697441 
L 95.631416 -113.359189 
L 96.437968 -113.945791 
L 97.244519 -114.535468 
L 98.051071 -115.101293 
L 98.857622 -115.584842 
L 99.664174 -116.031769 
L 100.470725 -116.531857 
L 101.277277 -116.933371 
L 102.083828 -117.372047 
L 102.89038 -117.817819 
L 103.696931 -118.263046 
L 104.503483 -118.666728 
L 105.310034 -119.06404 
L 106.116586 -119.401578 
L 106.923137 -119.8168 
L 107.729689 -120.135233 
L 108.53624 -120.531236 
L 109.342792 -120.885294 
L 110.149343 -121.255176 
L 110.955895 -121.64211 
L 111.762446 -122.030101 
L 112.568998 -122.417511 
L 113.375549 -122.803728 
L 114.182101 -123.160477 
L 114.988652 -123.498247 
L 115.795204 -123.836864 
L 116.601755 -124.162119 
L 117.408307 -124.509534 
L 118.214858 -124.847738 
L 119.02141 -125.19143 
L 119.827961 -125.493533 
L 120.634513 -125.769922 
L 121.441064 -126.046501 
L 122.247616 -126.424727 
L 123.054167 -126.733956 
L 123.860719 -127.118399 
L 124.66727 -127.433847 
L 125.473822 -127.752446 
L 126.280373 -128.053186 
L 127.086925 -128.35391 
L 127.893476 -128.652819 
L 128.700028 -128.937253 
L 129.50658 -129.208398 
L 130.313131 -129.490584 
L 131.119683 -129.790724 
L 131.926234 -130.075269 
L 132.732786 -130.353754 
L 133.539337 -130.646866 
L 134.345889 -130.907209 
L 135.15244 -131.163937 
L 135.958992 -131.419852 
L 136.765543 -131.648066 
L 137.572095 -131.874803 
L 138.378646 -132.116211 
L 139.185198 -132.409446 
L 139.991749 -132.627098 
L 140.798301 -132.847736 
L 141.604852 -133.099909 
L 142.411404 -133.28678 
L 143.217955 -133.515503 
L 144.024507 -133.792273 
L 144.831058 -134.069043 
L 145.63761 -134.298351 
L 146.444161 -134.487475 
L 147.250713 -134.619766 
L 148.057264 -134.820619 
L 148.863816 -135.015698 
L 149.670367 -135.19343 
L 150.476919 -135.392438 
L 151.28347 -135.59068 
L 152.090022 -135.736321 
L 152.896573 -135.900869 
L 153.703125 -136.114059 
L 154.509676 -136.348457 
L 155.316228 -136.460127 
L 156.122779 -136.611936 
L 156.929331 -136.819565 
L 157.735882 -136.971535 
L 158.542434 -137.109498 
L 159.348985 -137.227652 
L 160.155537 -137.298748 
L 160.962088 -137.380094 
L 161.76864 -137.4409 
L 162.575191 -137.628973 
L 163.381743 -137.676475 
L 163.381743 -196.318031 
L 163.381743 -196.318031 
L 162.575191 -195.33126 
L 161.76864 -194.383667 
L 160.962088 -193.505189 
L 160.155537 -192.626711 
L 159.348985 -191.748233 
L 158.542434 -190.862314 
L 157.735882 -189.906154 
L 156.929331 -188.949995 
L 156.122779 -187.992809 
L 155.316228 -187.033153 
L 154.509676 -186.073497 
L 153.703125 -185.11384 
L 152.896573 -184.134912 
L 152.090022 -183.120067 
L 151.28347 -182.105222 
L 150.476919 -181.090133 
L 149.670367 -180.074297 
L 148.863816 -179.132391 
L 148.057264 -178.223916 
L 147.250713 -177.279429 
L 146.444161 -176.252511 
L 145.63761 -175.208187 
L 144.831058 -174.163864 
L 144.024507 -173.11954 
L 143.217955 -172.075217 
L 142.411404 -171.030893 
L 141.604852 -169.98657 
L 140.798301 -168.942246 
L 139.991749 -167.900599 
L 139.185198 -166.926654 
L 138.378646 -165.952709 
L 137.572095 -164.978764 
L 136.765543 -164.00482 
L 135.958992 -163.030875 
L 135.15244 -162.05693 
L 134.345889 -161.082986 
L 133.539337 -160.109041 
L 132.732786 -159.135096 
L 131.926234 -158.246373 
L 131.119683 -157.327153 
L 130.313131 -156.34572 
L 129.50658 -155.442564 
L 128.700028 -154.548581 
L 127.893476 -153.746931 
L 127.086925 -152.936669 
L 126.280373 -152.093839 
L 125.473822 -151.24892 
L 124.66727 -150.263143 
L 123.860719 -149.265896 
L 123.054167 -148.476596 
L 122.247616 -147.684819 
L 121.441064 -146.779156 
L 120.634513 -145.826453 
L 119.827961 -144.870856 
L 119.02141 -143.917228 
L 118.214858 -142.963858 
L 117.408307 -142.009215 
L 116.601755 -141.305889 
L 115.795204 -140.870773 
L 114.988652 -140.140126 
L 114.182101 -139.434842 
L 113.375549 -138.777915 
L 112.568998 -138.296331 
L 111.762446 -137.737687 
L 110.955895 -137.206399 
L 110.149343 -136.866162 
L 109.342792 -136.434154 
L 108.53624 -136.219011 
L 107.729689 -135.727928 
L 106.923137 -135.597823 
L 106.116586 -135.492264 
L 105.310034 -135.340032 
L 104.503483 -135.133274 
L 103.696931 -135.035851 
L 102.89038 -134.928925 
L 102.083828 -134.832915 
L 101.277277 -134.75154 
L 100.470725 -134.657797 
L 99.664174 -134.584922 
L 98.857622 -134.517711 
L 98.051071 -134.440346 
L 97.244519 -134.362757 
L 96.437968 -134.282497 
L 95.631416 -134.202237 
L 94.824865 -134.121977 
L 94.018313 -134.041717 
L 93.211762 -133.919037 
L 92.40521 -133.828704 
L 91.598659 -133.758327 
L 90.792107 -133.64087 
L 89.985556 -133.508147 
L 89.179004 -133.442401 
L 88.372453 -133.395709 
L 87.565901 -133.348963 
L 86.759349 -133.302029 
L 85.952798 -133.25082 
L 85.146246 -133.172394 
L 84.339695 -133.093541 
L 83.533143 -133.014688 
z
" style="stroke: #ffffff; stroke-opacity: 0.15"/>
    </defs>
    <g clip-path="url(#p5ae2c3425f)">
     <use xlink:href="#m98de488b2f" x="0" y="216" style="fill: #66c2a5; fill-opacity: 0.15; stroke: #ffffff; stroke-opacity: 0.15"/>
    </g>
   </g>
   <g id="PolyCollection_2">
    <defs>
     <path id="mc1ae7a0ce3" d="M 79.903662 -142.18162 
L 79.903662 -118.797251 
L 81.700072 -119.367978 
L 83.496482 -119.908736 
L 85.292892 -120.442648 
L 87.089302 -121.03199 
L 88.885713 -121.489182 
L 90.682123 -121.931883 
L 92.478533 -122.405816 
L 94.274943 -122.894435 
L 96.071353 -123.487074 
L 97.867763 -123.977628 
L 99.664174 -124.566673 
L 101.460584 -125.161303 
L 103.256994 -125.556546 
L 105.053404 -125.930848 
L 106.849814 -126.477932 
L 108.646225 -126.845687 
L 110.442635 -127.333889 
L 112.239045 -127.711291 
L 114.035455 -128.077589 
L 115.831865 -128.443888 
L 117.628275 -128.810186 
L 119.424686 -129.179496 
L 121.221096 -129.66721 
L 123.017506 -130.16197 
L 124.813916 -130.657727 
L 126.610326 -131.121873 
L 128.406737 -131.520506 
L 130.203147 -131.943765 
L 131.999557 -132.311692 
L 133.795967 -132.70626 
L 135.592377 -133.163268 
L 137.388787 -133.552232 
L 139.185198 -133.956664 
L 140.981608 -134.393681 
L 142.778018 -134.748848 
L 144.574428 -135.173486 
L 146.370838 -135.608085 
L 148.167249 -136.055024 
L 149.963659 -136.496781 
L 151.760069 -136.835089 
L 153.556479 -137.242017 
L 155.352889 -137.63266 
L 157.149299 -137.956634 
L 158.94571 -138.276092 
L 160.74212 -138.644042 
L 162.53853 -139.069385 
L 164.33494 -139.433253 
L 166.13135 -139.808768 
L 167.927761 -140.198397 
L 169.724171 -140.551084 
L 171.520581 -140.937371 
L 173.316991 -141.315596 
L 175.113401 -141.577438 
L 176.909811 -141.879587 
L 178.706222 -142.165286 
L 180.502632 -142.528033 
L 182.299042 -142.829057 
L 184.095452 -143.131127 
L 185.891862 -143.392338 
L 187.688273 -143.637301 
L 189.484683 -143.952799 
L 191.281093 -144.309076 
L 193.077503 -144.664683 
L 194.873913 -144.98795 
L 196.670323 -145.232972 
L 198.466734 -145.368727 
L 200.263144 -145.681429 
L 202.059554 -145.964636 
L 203.855964 -146.150154 
L 205.652374 -146.424755 
L 207.448785 -146.630549 
L 209.245195 -146.924039 
L 211.041605 -147.166494 
L 212.838015 -147.383387 
L 214.634425 -147.613137 
L 216.430835 -147.829847 
L 218.227246 -148.062711 
L 220.023656 -148.248023 
L 221.820066 -148.503047 
L 223.616476 -148.723501 
L 225.412886 -148.936321 
L 227.209297 -149.130887 
L 229.005707 -149.36491 
L 230.802117 -149.532095 
L 232.598527 -149.642273 
L 234.394937 -149.693538 
L 236.191347 -149.810462 
L 237.987758 -149.980961 
L 239.784168 -150.115329 
L 241.580578 -150.284154 
L 243.376988 -150.45374 
L 245.173398 -150.516036 
L 246.969809 -150.691237 
L 248.766219 -150.865432 
L 250.562629 -151.040926 
L 252.359039 -151.21642 
L 254.155449 -151.392479 
L 255.951859 -151.544494 
L 257.74827 -151.679443 
L 257.74827 -185.665578 
L 257.74827 -185.665578 
L 255.951859 -185.05084 
L 254.155449 -184.436102 
L 252.359039 -183.821364 
L 250.562629 -183.206626 
L 248.766219 -182.591887 
L 246.969809 -181.977149 
L 245.173398 -181.362411 
L 243.376988 -180.747673 
L 241.580578 -180.132935 
L 239.784168 -179.518196 
L 237.987758 -178.903458 
L 236.191347 -178.28872 
L 234.394937 -177.673982 
L 232.598527 -177.059244 
L 230.802117 -176.444506 
L 229.005707 -175.829767 
L 227.209297 -175.215029 
L 225.412886 -174.600291 
L 223.616476 -173.985553 
L 221.820066 -173.424371 
L 220.023656 -172.909219 
L 218.227246 -172.394066 
L 216.430835 -171.878913 
L 214.634425 -171.36376 
L 212.838015 -170.848608 
L 211.041605 -170.333455 
L 209.245195 -169.818302 
L 207.448785 -169.30315 
L 205.652374 -168.702002 
L 203.855964 -168.073208 
L 202.059554 -167.444414 
L 200.263144 -166.81562 
L 198.466734 -166.186826 
L 196.670323 -165.558032 
L 194.873913 -164.929238 
L 193.077503 -164.300444 
L 191.281093 -163.693632 
L 189.484683 -163.232788 
L 187.688273 -162.769376 
L 185.891862 -162.305964 
L 184.095452 -161.842551 
L 182.299042 -161.379139 
L 180.502632 -160.915727 
L 178.706222 -160.42714 
L 176.909811 -159.707227 
L 175.113401 -158.987313 
L 173.316991 -158.2674 
L 171.520581 -157.631085 
L 169.724171 -157.283845 
L 167.927761 -156.711396 
L 166.13135 -156.096124 
L 164.33494 -155.476195 
L 162.53853 -154.848295 
L 160.74212 -154.220394 
L 158.94571 -153.596873 
L 157.149299 -152.922622 
L 155.352889 -152.360702 
L 153.556479 -151.941186 
L 151.760069 -151.396223 
L 149.963659 -151.032583 
L 148.167249 -150.704615 
L 146.370838 -150.060254 
L 144.574428 -149.522534 
L 142.778018 -149.407111 
L 140.981608 -149.189514 
L 139.185198 -149.096981 
L 137.388787 -148.919079 
L 135.592377 -148.272167 
L 133.795967 -147.673724 
L 131.999557 -146.889247 
L 130.203147 -146.706248 
L 128.406737 -146.461513 
L 126.610326 -146.288498 
L 124.813916 -146.15397 
L 123.017506 -145.971999 
L 121.221096 -145.787194 
L 119.424686 -145.605257 
L 117.628275 -145.423319 
L 115.831865 -145.241381 
L 114.035455 -145.051934 
L 112.239045 -144.870601 
L 110.442635 -144.685941 
L 108.646225 -144.503491 
L 106.849814 -144.318809 
L 105.053404 -144.134128 
L 103.256994 -143.927304 
L 101.460584 -143.7654 
L 99.664174 -143.583556 
L 97.867763 -143.44933 
L 96.071353 -143.324804 
L 94.274943 -143.160607 
L 92.478533 -143.052893 
L 90.682123 -142.945178 
L 88.885713 -142.833138 
L 87.089302 -142.692597 
L 85.292892 -142.572402 
L 83.496482 -142.449675 
L 81.700072 -142.315648 
L 79.903662 -142.18162 
z
" style="stroke: #ffffff; stroke-opacity: 0.15"/>
    </defs>
    <g clip-path="url(#p5ae2c3425f)">
     <use xlink:href="#mc1ae7a0ce3" x="0" y="216" style="fill: #fc8d62; fill-opacity: 0.15; stroke: #ffffff; stroke-opacity: 0.15"/>
    </g>
   </g>
   <g id="line2d_12">
    <path d="M 83.533143 97.211651 
L 84.339695 96.920837 
L 85.146246 96.630023 
L 85.952798 96.339209 
L 86.759349 96.048395 
L 87.565901 95.757581 
L 88.372453 95.466767 
L 89.179004 95.175953 
L 89.985556 94.885139 
L 90.792107 94.594325 
L 91.598659 94.303511 
L 92.40521 94.012697 
L 93.211762 93.721883 
L 94.018313 93.431069 
L 94.824865 93.140255 
L 95.631416 92.849441 
L 96.437968 92.558626 
L 97.244519 92.267812 
L 98.051071 91.976998 
L 98.857622 91.686184 
L 99.664174 91.39537 
L 100.470725 91.104556 
L 101.277277 90.813742 
L 102.083828 90.522928 
L 102.89038 90.232114 
L 103.696931 89.9413 
L 104.503483 89.650486 
L 105.310034 89.359672 
L 106.116586 89.068858 
L 106.923137 88.778044 
L 107.729689 88.48723 
L 108.53624 88.196416 
L 109.342792 87.905602 
L 110.149343 87.614788 
L 110.955895 87.323974 
L 111.762446 87.03316 
L 112.568998 86.742346 
L 113.375549 86.451532 
L 114.182101 86.160718 
L 114.988652 85.869904 
L 115.795204 85.57909 
L 116.601755 85.288275 
L 117.408307 84.997461 
L 118.214858 84.706647 
L 119.02141 84.415833 
L 119.827961 84.125019 
L 120.634513 83.834205 
L 121.441064 83.543391 
L 122.247616 83.252577 
L 123.054167 82.961763 
L 123.860719 82.670949 
L 124.66727 82.380135 
L 125.473822 82.089321 
L 126.280373 81.798507 
L 127.086925 81.507693 
L 127.893476 81.216879 
L 128.700028 80.926065 
L 129.50658 80.635251 
L 130.313131 80.344437 
L 131.119683 80.053623 
L 131.926234 79.762809 
L 132.732786 79.471995 
L 133.539337 79.181181 
L 134.345889 78.890367 
L 135.15244 78.599553 
L 135.958992 78.308739 
L 136.765543 78.017924 
L 137.572095 77.72711 
L 138.378646 77.436296 
L 139.185198 77.145482 
L 139.991749 76.854668 
L 140.798301 76.563854 
L 141.604852 76.27304 
L 142.411404 75.982226 
L 143.217955 75.691412 
L 144.024507 75.400598 
L 144.831058 75.109784 
L 145.63761 74.81897 
L 146.444161 74.528156 
L 147.250713 74.237342 
L 148.057264 73.946528 
L 148.863816 73.655714 
L 149.670367 73.3649 
L 150.476919 73.074086 
L 151.28347 72.783272 
L 152.090022 72.492458 
L 152.896573 72.201644 
L 153.703125 71.91083 
L 154.509676 71.620016 
L 155.316228 71.329202 
L 156.122779 71.038388 
L 156.929331 70.747573 
L 157.735882 70.456759 
L 158.542434 70.165945 
L 159.348985 69.875131 
L 160.155537 69.584317 
L 160.962088 69.293503 
L 161.76864 69.002689 
L 162.575191 68.711875 
L 163.381743 68.421061 
" clip-path="url(#p5ae2c3425f)" style="fill: none; stroke: #66c2a5; stroke-width: 2.25; stroke-linecap: round"/>
   </g>
   <g id="line2d_13">
    <path d="M 79.903662 85.379875 
L 81.700072 85.07621 
L 83.496482 84.772545 
L 85.292892 84.46888 
L 87.089302 84.165215 
L 88.885713 83.86155 
L 90.682123 83.557885 
L 92.478533 83.254219 
L 94.274943 82.950554 
L 96.071353 82.646889 
L 97.867763 82.343224 
L 99.664174 82.039559 
L 101.460584 81.735894 
L 103.256994 81.432229 
L 105.053404 81.128564 
L 106.849814 80.824899 
L 108.646225 80.521234 
L 110.442635 80.217569 
L 112.239045 79.913904 
L 114.035455 79.610239 
L 115.831865 79.306574 
L 117.628275 79.002908 
L 119.424686 78.699243 
L 121.221096 78.395578 
L 123.017506 78.091913 
L 124.813916 77.788248 
L 126.610326 77.484583 
L 128.406737 77.180918 
L 130.203147 76.877253 
L 131.999557 76.573588 
L 133.795967 76.269923 
L 135.592377 75.966258 
L 137.388787 75.662593 
L 139.185198 75.358928 
L 140.981608 75.055263 
L 142.778018 74.751597 
L 144.574428 74.447932 
L 146.370838 74.144267 
L 148.167249 73.840602 
L 149.963659 73.536937 
L 151.760069 73.233272 
L 153.556479 72.929607 
L 155.352889 72.625942 
L 157.149299 72.322277 
L 158.94571 72.018612 
L 160.74212 71.714947 
L 162.53853 71.411282 
L 164.33494 71.107617 
L 166.13135 70.803952 
L 167.927761 70.500287 
L 169.724171 70.196621 
L 171.520581 69.892956 
L 173.316991 69.589291 
L 175.113401 69.285626 
L 176.909811 68.981961 
L 178.706222 68.678296 
L 180.502632 68.374631 
L 182.299042 68.070966 
L 184.095452 67.767301 
L 185.891862 67.463636 
L 187.688273 67.159971 
L 189.484683 66.856306 
L 191.281093 66.552641 
L 193.077503 66.248976 
L 194.873913 65.94531 
L 196.670323 65.641645 
L 198.466734 65.33798 
L 200.263144 65.034315 
L 202.059554 64.73065 
L 203.855964 64.426985 
L 205.652374 64.12332 
L 207.448785 63.819655 
L 209.245195 63.51599 
L 211.041605 63.212325 
L 212.838015 62.90866 
L 214.634425 62.604995 
L 216.430835 62.30133 
L 218.227246 61.997665 
L 220.023656 61.694 
L 221.820066 61.390334 
L 223.616476 61.086669 
L 225.412886 60.783004 
L 227.209297 60.479339 
L 229.005707 60.175674 
L 230.802117 59.872009 
L 232.598527 59.568344 
L 234.394937 59.264679 
L 236.191347 58.961014 
L 237.987758 58.657349 
L 239.784168 58.353684 
L 241.580578 58.050019 
L 243.376988 57.746354 
L 245.173398 57.442689 
L 246.969809 57.139023 
L 248.766219 56.835358 
L 250.562629 56.531693 
L 252.359039 56.228028 
L 254.155449 55.924363 
L 255.951859 55.620698 
L 257.74827 55.317033 
" clip-path="url(#p5ae2c3425f)" style="fill: none; stroke: #fc8d62; stroke-width: 2.25; stroke-linecap: round"/>
   </g>
   <g id="patch_3">
    <path d="M 71.011431 165.78 
L 71.011431 12.96 
" style="fill: none; stroke: #262626; stroke-width: 1.25; stroke-linejoin: miter; stroke-linecap: square"/>
   </g>
   <g id="patch_4">
    <path d="M 98.051071 165.78 
L 263.55544 165.78 
" style="fill: none; stroke: #262626; stroke-width: 1.25; stroke-linejoin: miter; stroke-linecap: square"/>
   </g>
   <g id="PathCollection_1">
    <defs>
     <path id="m4d781ae121" d="M 0 2.738613 
C 0.726289 2.738613 1.422928 2.450055 1.936492 1.936492 
C 2.450055 1.422928 2.738613 0.726289 2.738613 0 
C 2.738613 -0.726289 2.450055 -1.422928 1.936492 -1.936492 
C 1.422928 -2.450055 0.726289 -2.738613 0 -2.738613 
C -0.726289 -2.738613 -1.422928 -2.450055 -1.936492 -1.936492 
C -2.450055 -1.422928 -2.738613 -0.726289 -2.738613 0 
C -2.738613 0.726289 -2.450055 1.422928 -1.936492 1.936492 
C -1.422928 2.450055 -0.726289 2.738613 0 2.738613 
z
" style="stroke: #ffffff; stroke-opacity: 0.8; stroke-width: 0.5"/>
    </defs>
    <g>
     <use xlink:href="#m4d781ae121" x="163.381743" y="82.606021" style="fill: #66c2a5; fill-opacity: 0.8; stroke: #ffffff; stroke-opacity: 0.8; stroke-width: 0.5"/>
     <use xlink:href="#m4d781ae121" x="98.051071" y="82.752268" style="fill: #66c2a5; fill-opacity: 0.8; stroke: #ffffff; stroke-opacity: 0.8; stroke-width: 0.5"/>
     <use xlink:href="#m4d781ae121" x="98.051071" y="103.482325" style="fill: #66c2a5; fill-opacity: 0.8; stroke: #ffffff; stroke-opacity: 0.8; stroke-width: 0.5"/>
     <use xlink:href="#m4d781ae121" x="105.310034" y="75.21941" style="fill: #66c2a5; fill-opacity: 0.8; stroke: #ffffff; stroke-opacity: 0.8; stroke-width: 0.5"/>
     <use xlink:href="#m4d781ae121" x="101.680552" y="87.724293" style="fill: #66c2a5; fill-opacity: 0.8; stroke: #ffffff; stroke-opacity: 0.8; stroke-width: 0.5"/>
     <use xlink:href="#m4d781ae121" x="98.051071" y="69.576998" style="fill: #66c2a5; fill-opacity: 0.8; stroke: #ffffff; stroke-opacity: 0.8; stroke-width: 0.5"/>
     <use xlink:href="#m4d781ae121" x="119.827961" y="71.07649" style="fill: #66c2a5; fill-opacity: 0.8; stroke: #ffffff; stroke-opacity: 0.8; stroke-width: 0.5"/>
     <use xlink:href="#m4d781ae121" x="112.568998" y="81.378803" style="fill: #66c2a5; fill-opacity: 0.8; stroke: #ffffff; stroke-opacity: 0.8; stroke-width: 0.5"/>
     <use xlink:href="#m4d781ae121" x="98.051071" y="85.79132" style="fill: #66c2a5; fill-opacity: 0.8; stroke: #ffffff; stroke-opacity: 0.8; stroke-width: 0.5"/>
     <use xlink:href="#m4d781ae121" x="123.457443" y="80.457802" style="fill: #66c2a5; fill-opacity: 0.8; stroke: #ffffff; stroke-opacity: 0.8; stroke-width: 0.5"/>
     <use xlink:href="#m4d781ae121" x="98.051071" y="99.98802" style="fill: #66c2a5; fill-opacity: 0.8; stroke: #ffffff; stroke-opacity: 0.8; stroke-width: 0.5"/>
     <use xlink:href="#m4d781ae121" x="98.051071" y="114.60328" style="fill: #66c2a5; fill-opacity: 0.8; stroke: #ffffff; stroke-opacity: 0.8; stroke-width: 0.5"/>
     <use xlink:href="#m4d781ae121" x="156.122779" y="77.009138" style="fill: #66c2a5; fill-opacity: 0.8; stroke: #ffffff; stroke-opacity: 0.8; stroke-width: 0.5"/>
     <use xlink:href="#m4d781ae121" x="83.533143" y="123.071442" style="fill: #66c2a5; fill-opacity: 0.8; stroke: #ffffff; stroke-opacity: 0.8; stroke-width: 0.5"/>
     <use xlink:href="#m4d781ae121" x="127.086925" y="69.0149" style="fill: #66c2a5; fill-opacity: 0.8; stroke: #ffffff; stroke-opacity: 0.8; stroke-width: 0.5"/>
    </g>
   </g>
   <g id="PathCollection_2">
    <defs>
     <path id="m34a4490778" d="M 0 2.738613 
C 0.726289 2.738613 1.422928 2.450055 1.936492 1.936492 
C 2.450055 1.422928 2.738613 0.726289 2.738613 0 
C 2.738613 -0.726289 2.450055 -1.422928 1.936492 -1.936492 
C 1.422928 -2.450055 0.726289 -2.738613 0 -2.738613 
C -0.726289 -2.738613 -1.422928 -2.450055 -1.936492 -1.936492 
C -2.450055 -1.422928 -2.738613 -0.726289 -2.738613 0 
C -2.738613 0.726289 -2.450055 1.422928 -1.936492 1.936492 
C -1.422928 2.450055 -0.726289 2.738613 0 2.738613 
z
" style="stroke: #ffffff; stroke-opacity: 0.8; stroke-width: 0.5"/>
    </defs>
    <g>
     <use xlink:href="#m34a4490778" x="127.086925" y="55.035049" style="fill: #fc8d62; fill-opacity: 0.8; stroke: #ffffff; stroke-opacity: 0.8; stroke-width: 0.5"/>
     <use xlink:href="#m34a4490778" x="221.453452" y="55.568491" style="fill: #fc8d62; fill-opacity: 0.8; stroke: #ffffff; stroke-opacity: 0.8; stroke-width: 0.5"/>
     <use xlink:href="#m34a4490778" x="101.680552" y="101.38498" style="fill: #fc8d62; fill-opacity: 0.8; stroke: #ffffff; stroke-opacity: 0.8; stroke-width: 0.5"/>
     <use xlink:href="#m34a4490778" x="116.19848" y="62.584457" style="fill: #fc8d62; fill-opacity: 0.8; stroke: #ffffff; stroke-opacity: 0.8; stroke-width: 0.5"/>
     <use xlink:href="#m34a4490778" x="105.310034" y="66.750646" style="fill: #fc8d62; fill-opacity: 0.8; stroke: #ffffff; stroke-opacity: 0.8; stroke-width: 0.5"/>
     <use xlink:href="#m34a4490778" x="119.827961" y="65.344306" style="fill: #fc8d62; fill-opacity: 0.8; stroke: #ffffff; stroke-opacity: 0.8; stroke-width: 0.5"/>
     <use xlink:href="#m34a4490778" x="105.310034" y="72.483377" style="fill: #fc8d62; fill-opacity: 0.8; stroke: #ffffff; stroke-opacity: 0.8; stroke-width: 0.5"/>
     <use xlink:href="#m34a4490778" x="156.122779" y="80.552509" style="fill: #fc8d62; fill-opacity: 0.8; stroke: #ffffff; stroke-opacity: 0.8; stroke-width: 0.5"/>
     <use xlink:href="#m34a4490778" x="98.051071" y="69.047621" style="fill: #fc8d62; fill-opacity: 0.8; stroke: #ffffff; stroke-opacity: 0.8; stroke-width: 0.5"/>
     <use xlink:href="#m34a4490778" x="90.792107" y="96.381927" style="fill: #fc8d62; fill-opacity: 0.8; stroke: #ffffff; stroke-opacity: 0.8; stroke-width: 0.5"/>
     <use xlink:href="#m34a4490778" x="214.194488" y="72.1045" style="fill: #fc8d62; fill-opacity: 0.8; stroke: #ffffff; stroke-opacity: 0.8; stroke-width: 0.5"/>
     <use xlink:href="#m34a4490778" x="127.086925" y="76.334237" style="fill: #fc8d62; fill-opacity: 0.8; stroke: #ffffff; stroke-opacity: 0.8; stroke-width: 0.5"/>
     <use xlink:href="#m34a4490778" x="257.74827" y="60.673299" style="fill: #fc8d62; fill-opacity: 0.8; stroke: #ffffff; stroke-opacity: 0.8; stroke-width: 0.5"/>
     <use xlink:href="#m34a4490778" x="98.051071" y="109.668714" style="fill: #fc8d62; fill-opacity: 0.8; stroke: #ffffff; stroke-opacity: 0.8; stroke-width: 0.5"/>
     <use xlink:href="#m34a4490778" x="79.903662" y="98.126821" style="fill: #fc8d62; fill-opacity: 0.8; stroke: #ffffff; stroke-opacity: 0.8; stroke-width: 0.5"/>
    </g>
   </g>
  </g>
  <g id="legend_1">
   <g id="text_14">
    <text style="fill: #262626; font: 12px 'Arial', 'DejaVu Sans', 'Liberation Sans', 'Bitstream Vera Sans', sans-serif; text-anchor: start" x="268.781875" y="95.165312" transform="rotate(-0 268.781875 95.165312)">multiplier</text>
   </g>
   <g id="PathCollection_3">
    <g>
     <use xlink:href="#m4d781ae121" x="284.269219" y="108.631719" style="fill: #66c2a5; fill-opacity: 0.8; stroke: #ffffff; stroke-opacity: 0.8; stroke-width: 0.5"/>
    </g>
   </g>
   <g id="text_15">
    <text style="fill: #262626; font: 11px 'Arial', 'DejaVu Sans', 'Liberation Sans', 'Bitstream Vera Sans', sans-serif; text-anchor: start" x="304.069219" y="111.519219" transform="rotate(-0 304.069219 111.519219)">1.5</text>
   </g>
   <g id="PathCollection_4">
    <g>
     <use xlink:href="#m34a4490778" x="284.269219" y="124.777656" style="fill: #fc8d62; fill-opacity: 0.8; stroke: #ffffff; stroke-opacity: 0.8; stroke-width: 0.5"/>
    </g>
   </g>
   <g id="text_16">
    <text style="fill: #262626; font: 11px 'Arial', 'DejaVu Sans', 'Liberation Sans', 'Bitstream Vera Sans', sans-serif; text-anchor: start" x="304.069219" y="127.665156" transform="rotate(-0 304.069219 127.665156)">2.5</text>
   </g>
  </g>
 </g>
 <defs>
  <clipPath id="p5ae2c3425f">
   <rect x="71.011431" y="12.96" width="195.629069" height="152.82"/>
  </clipPath>
 </defs>
</svg>
