<?xml version="1.0" encoding="utf-8" standalone="no"?>
<!DOCTYPE svg PUBLIC "-//W3C//DTD SVG 1.1//EN"
  "http://www.w3.org/Graphics/SVG/1.1/DTD/svg11.dtd">
<svg xmlns:xlink="http://www.w3.org/1999/xlink" width="336.22pt" height="216pt" viewBox="0 0 336.22 216" xmlns="http://www.w3.org/2000/svg" version="1.1">
 <metadata>
  <rdf:RDF xmlns:dc="http://purl.org/dc/elements/1.1/" xmlns:cc="http://creativecommons.org/ns#" xmlns:rdf="http://www.w3.org/1999/02/22-rdf-syntax-ns#">
   <cc:Work>
    <dc:type rdf:resource="http://purl.org/dc/dcmitype/StillImage"/>
    <dc:date>2023-02-27T16:48:36.935794</dc:date>
    <dc:format>image/svg+xml</dc:format>
    <dc:creator>
     <cc:Agent>
      <dc:title>Matplotlib v3.7.0, https://matplotlib.org/</dc:title>
     </cc:Agent>
    </dc:creator>
   </cc:Work>
  </rdf:RDF>
 </metadata>
 <defs>
  <style type="text/css">*{stroke-linejoin: round; stroke-linecap: butt}</style>
 </defs>
 <g id="figure_1">
  <g id="patch_1">
   <path d="M 0 216 
L 336.22 216 
L 336.22 0 
L 0 0 
z
" style="fill: #ffffff"/>
  </g>
  <g id="axes_1">
   <g id="patch_2">
    <path d="M 78.451333 167.22 
L 266.6378 167.22 
L 266.6378 12.96 
L 78.451333 12.96 
z
" style="fill: #ffffff"/>
   </g>
   <g id="matplotlib.axis_1">
    <g id="xtick_1">
     <g id="line2d_1">
      <defs>
       <path id="m69ad0c15b0" d="M 0 0 
L 0 6 
" style="stroke: #262626; stroke-width: 1.25"/>
      </defs>
      <g>
       <use xlink:href="#m69ad0c15b0" x="87.005264" y="167.22" style="fill: #262626; stroke: #262626; stroke-width: 1.25"/>
      </g>
     </g>
     <g id="text_1">
      <text style="fill: #262626; font: 11px 'Arial', 'DejaVu Sans', 'Liberation Sans', 'Bitstream Vera Sans', sans-serif; text-anchor: middle" x="87.005264" y="185.078281" transform="rotate(-0 87.005264 185.078281)">0.00</text>
     </g>
    </g>
    <g id="xtick_2">
     <g id="line2d_2">
      <g>
       <use xlink:href="#m69ad0c15b0" x="130.464748" y="167.22" style="fill: #262626; stroke: #262626; stroke-width: 1.25"/>
      </g>
     </g>
     <g id="text_2">
      <text style="fill: #262626; font: 11px 'Arial', 'DejaVu Sans', 'Liberation Sans', 'Bitstream Vera Sans', sans-serif; text-anchor: middle" x="130.464748" y="185.078281" transform="rotate(-0 130.464748 185.078281)">0.25</text>
     </g>
    </g>
    <g id="xtick_3">
     <g id="line2d_3">
      <g>
       <use xlink:href="#m69ad0c15b0" x="173.924233" y="167.22" style="fill: #262626; stroke: #262626; stroke-width: 1.25"/>
      </g>
     </g>
     <g id="text_3">
      <text style="fill: #262626; font: 11px 'Arial', 'DejaVu Sans', 'Liberation Sans', 'Bitstream Vera Sans', sans-serif; text-anchor: middle" x="173.924233" y="185.078281" transform="rotate(-0 173.924233 185.078281)">0.50</text>
     </g>
    </g>
    <g id="xtick_4">
     <g id="line2d_4">
      <g>
       <use xlink:href="#m69ad0c15b0" x="217.383717" y="167.22" style="fill: #262626; stroke: #262626; stroke-width: 1.25"/>
      </g>
     </g>
     <g id="text_4">
      <text style="fill: #262626; font: 11px 'Arial', 'DejaVu Sans', 'Liberation Sans', 'Bitstream Vera Sans', sans-serif; text-anchor: middle" x="217.383717" y="185.078281" transform="rotate(-0 217.383717 185.078281)">0.75</text>
     </g>
    </g>
    <g id="xtick_5">
     <g id="line2d_5">
      <g>
       <use xlink:href="#m69ad0c15b0" x="260.843202" y="167.22" style="fill: #262626; stroke: #262626; stroke-width: 1.25"/>
      </g>
     </g>
     <g id="text_5">
      <text style="fill: #262626; font: 11px 'Arial', 'DejaVu Sans', 'Liberation Sans', 'Bitstream Vera Sans', sans-serif; text-anchor: middle" x="260.843202" y="185.078281" transform="rotate(-0 260.843202 185.078281)">1.00</text>
     </g>
    </g>
    <g id="text_6">
     <text style="fill: #262626; font: 12px 'Arial', 'DejaVu Sans', 'Liberation Sans', 'Bitstream Vera Sans', sans-serif; text-anchor: middle" x="172.544567" y="200.484062" transform="rotate(-0 172.544567 200.484062)">p(disclose)</text>
    </g>
   </g>
   <g id="matplotlib.axis_2">
    <g id="ytick_1">
     <g id="line2d_6">
      <defs>
       <path id="m00d13fad1b" d="M 0 0 
L -6 0 
" style="stroke: #262626; stroke-width: 1.25"/>
      </defs>
      <g>
       <use xlink:href="#m00d13fad1b" x="78.451333" y="167.22" style="fill: #262626; stroke: #262626; stroke-width: 1.25"/>
      </g>
     </g>
     <g id="text_7">
      <text style="fill: #262626; font: 11px 'Arial', 'DejaVu Sans', 'Liberation Sans', 'Bitstream Vera Sans', sans-serif; text-anchor: end" x="68.951333" y="171.399141" transform="rotate(-0 68.951333 171.399141)">0.0</text>
     </g>
    </g>
    <g id="ytick_2">
     <g id="line2d_7">
      <g>
       <use xlink:href="#m00d13fad1b" x="78.451333" y="136.368" style="fill: #262626; stroke: #262626; stroke-width: 1.25"/>
      </g>
     </g>
     <g id="text_8">
      <text style="fill: #262626; font: 11px 'Arial', 'DejaVu Sans', 'Liberation Sans', 'Bitstream Vera Sans', sans-serif; text-anchor: end" x="68.951333" y="140.547141" transform="rotate(-0 68.951333 140.547141)">0.2</text>
     </g>
    </g>
    <g id="ytick_3">
     <g id="line2d_8">
      <g>
       <use xlink:href="#m00d13fad1b" x="78.451333" y="105.516" style="fill: #262626; stroke: #262626; stroke-width: 1.25"/>
      </g>
     </g>
     <g id="text_9">
      <text style="fill: #262626; font: 11px 'Arial', 'DejaVu Sans', 'Liberation Sans', 'Bitstream Vera Sans', sans-serif; text-anchor: end" x="68.951333" y="109.695141" transform="rotate(-0 68.951333 109.695141)">0.4</text>
     </g>
    </g>
    <g id="ytick_4">
     <g id="line2d_9">
      <g>
       <use xlink:href="#m00d13fad1b" x="78.451333" y="74.664" style="fill: #262626; stroke: #262626; stroke-width: 1.25"/>
      </g>
     </g>
     <g id="text_10">
      <text style="fill: #262626; font: 11px 'Arial', 'DejaVu Sans', 'Liberation Sans', 'Bitstream Vera Sans', sans-serif; text-anchor: end" x="68.951333" y="78.843141" transform="rotate(-0 68.951333 78.843141)">0.6</text>
     </g>
    </g>
    <g id="ytick_5">
     <g id="line2d_10">
      <g>
       <use xlink:href="#m00d13fad1b" x="78.451333" y="43.812" style="fill: #262626; stroke: #262626; stroke-width: 1.25"/>
      </g>
     </g>
     <g id="text_11">
      <text style="fill: #262626; font: 11px 'Arial', 'DejaVu Sans', 'Liberation Sans', 'Bitstream Vera Sans', sans-serif; text-anchor: end" x="68.951333" y="47.991141" transform="rotate(-0 68.951333 47.991141)">0.8</text>
     </g>
    </g>
    <g id="ytick_6">
     <g id="line2d_11">
      <g>
       <use xlink:href="#m00d13fad1b" x="78.451333" y="12.96" style="fill: #262626; stroke: #262626; stroke-width: 1.25"/>
      </g>
     </g>
     <g id="text_12">
      <text style="fill: #262626; font: 11px 'Arial', 'DejaVu Sans', 'Liberation Sans', 'Bitstream Vera Sans', sans-serif; text-anchor: end" x="68.951333" y="17.139141" transform="rotate(-0 68.951333 17.139141)">1.0</text>
     </g>
    </g>
    <g id="text_13">
     <text style="fill: #262626; font: 12px 'Arial', 'DejaVu Sans', 'Liberation Sans', 'Bitstream Vera Sans', sans-serif; text-anchor: middle" x="44.962271" y="90.09" transform="rotate(-90 44.962271 90.09)">payoff</text>
    </g>
   </g>
   <g id="PolyCollection_1">
    <defs>
     <path id="meb533a6b75" d="M 87.005264 -166.011392 
L 87.005264 -157.271621 
L 88.036529 -157.328753 
L 89.067795 -157.363988 
L 90.099061 -157.414024 
L 91.130326 -157.452566 
L 92.161592 -157.472511 
L 93.192857 -157.472099 
L 94.224123 -157.490475 
L 95.255389 -157.532345 
L 96.286654 -157.552289 
L 97.31792 -157.624416 
L 98.349186 -157.662157 
L 99.380451 -157.684544 
L 100.411717 -157.706932 
L 101.442982 -157.703855 
L 102.474248 -157.670157 
L 103.505514 -157.629203 
L 104.536779 -157.596646 
L 105.568045 -157.534567 
L 106.599311 -157.47215 
L 107.630576 -157.450144 
L 108.661842 -157.434126 
L 109.693107 -157.387875 
L 110.724373 -157.332994 
L 111.755639 -157.303126 
L 112.786904 -157.305717 
L 113.81817 -157.22191 
L 114.849436 -157.085369 
L 115.880701 -157.024745 
L 116.911967 -156.976705 
L 117.943232 -156.927463 
L 118.974498 -156.892016 
L 120.005764 -156.798737 
L 121.037029 -156.679433 
L 122.068295 -156.635528 
L 123.099561 -156.442673 
L 124.130826 -156.352866 
L 125.162092 -156.218321 
L 126.193357 -156.110505 
L 127.224623 -156.0282 
L 128.255889 -155.948356 
L 129.287154 -155.826893 
L 130.31842 -155.701703 
L 131.349686 -155.617062 
L 132.380951 -155.440248 
L 133.412217 -155.322213 
L 134.443483 -155.190353 
L 135.474748 -155.112386 
L 136.506014 -155.004051 
L 137.537279 -154.825578 
L 138.568545 -154.694437 
L 139.599811 -154.579183 
L 140.631076 -154.467625 
L 141.662342 -154.356067 
L 142.693608 -154.244509 
L 143.724873 -154.132951 
L 144.756139 -153.937934 
L 145.787404 -153.808673 
L 146.81867 -153.677184 
L 147.849936 -153.473734 
L 148.881201 -153.270284 
L 149.912467 -153.068771 
L 150.943733 -152.867332 
L 151.974998 -152.667002 
L 153.006264 -152.466987 
L 154.037529 -152.266972 
L 155.068795 -152.066957 
L 156.100061 -151.866943 
L 157.131326 -151.73663 
L 158.162592 -151.611824 
L 159.193858 -151.487018 
L 160.225123 -151.362213 
L 161.256389 -151.237407 
L 162.287654 -151.112601 
L 163.31892 -150.989135 
L 164.350186 -150.865879 
L 165.381451 -150.742624 
L 166.412717 -150.619368 
L 167.443983 -150.479916 
L 168.475248 -150.314336 
L 169.506514 -150.148756 
L 170.537779 -149.983177 
L 171.569045 -149.817597 
L 172.600311 -149.652017 
L 173.631576 -149.486438 
L 174.662842 -149.320858 
L 175.694108 -149.136649 
L 176.725373 -148.936134 
L 177.756639 -148.73562 
L 178.787905 -148.535105 
L 179.81917 -148.33459 
L 180.850436 -148.134075 
L 181.881701 -147.985782 
L 182.912967 -147.844254 
L 183.944233 -147.702725 
L 184.975498 -147.561197 
L 186.006764 -147.419669 
L 187.03803 -147.27814 
L 188.069295 -147.136612 
L 189.100561 -146.990502 
L 189.100561 -166.684848 
L 189.100561 -166.684848 
L 188.069295 -166.647283 
L 187.03803 -166.624755 
L 186.006764 -166.582586 
L 184.975498 -166.508277 
L 183.944233 -166.432486 
L 182.912967 -166.356694 
L 181.881701 -166.280902 
L 180.850436 -166.205111 
L 179.81917 -166.130095 
L 178.787905 -166.055654 
L 177.756639 -165.987691 
L 176.725373 -165.927329 
L 175.694108 -165.866967 
L 174.662842 -165.806605 
L 173.631576 -165.747205 
L 172.600311 -165.687125 
L 171.569045 -165.626666 
L 170.537779 -165.551249 
L 169.506514 -165.469504 
L 168.475248 -165.387759 
L 167.443983 -165.321646 
L 166.412717 -165.286843 
L 165.381451 -165.25204 
L 164.350186 -165.207463 
L 163.31892 -165.147419 
L 162.287654 -165.059133 
L 161.256389 -164.96623 
L 160.225123 -164.873328 
L 159.193858 -164.780425 
L 158.162592 -164.687522 
L 157.131326 -164.59462 
L 156.100061 -164.501717 
L 155.068795 -164.418786 
L 154.037529 -164.41412 
L 153.006264 -164.39873 
L 151.974998 -164.309976 
L 150.943733 -164.248474 
L 149.912467 -164.198037 
L 148.881201 -164.192792 
L 147.849936 -164.198684 
L 146.81867 -164.189323 
L 145.787404 -164.164879 
L 144.756139 -164.157754 
L 143.724873 -164.149282 
L 142.693608 -164.105755 
L 141.662342 -164.1063 
L 140.631076 -164.030118 
L 139.599811 -163.983129 
L 138.568545 -163.953962 
L 137.537279 -163.930525 
L 136.506014 -163.909667 
L 135.474748 -163.888809 
L 134.443483 -163.867951 
L 133.412217 -163.844275 
L 132.380951 -163.807217 
L 131.349686 -163.799517 
L 130.31842 -163.776919 
L 129.287154 -163.755571 
L 128.255889 -163.733656 
L 127.224623 -163.71132 
L 126.193357 -163.65953 
L 125.162092 -163.58607 
L 124.130826 -163.599103 
L 123.099561 -163.62827 
L 122.068295 -163.602988 
L 121.037029 -163.654055 
L 120.005764 -163.723506 
L 118.974498 -163.746951 
L 117.943232 -163.761851 
L 116.911967 -163.675184 
L 115.880701 -163.729008 
L 114.849436 -163.796162 
L 113.81817 -163.818324 
L 112.786904 -163.839112 
L 111.755639 -163.915785 
L 110.724373 -163.968953 
L 109.693107 -163.951579 
L 108.661842 -164.01505 
L 107.630576 -164.108512 
L 106.599311 -164.09373 
L 105.568045 -164.161522 
L 104.536779 -164.223605 
L 103.505514 -164.301829 
L 102.474248 -164.346059 
L 101.442982 -164.456065 
L 100.411717 -164.554224 
L 99.380451 -164.659279 
L 98.349186 -164.729411 
L 97.31792 -164.816009 
L 96.286654 -164.916846 
L 95.255389 -165.001343 
L 94.224123 -165.108093 
L 93.192857 -165.202095 
L 92.161592 -165.355475 
L 91.130326 -165.464835 
L 90.099061 -165.610965 
L 89.067795 -165.757883 
L 88.036529 -165.903912 
L 87.005264 -166.011392 
z
" style="stroke: #ffffff; stroke-opacity: 0.15"/>
    </defs>
    <g clip-path="url(#pac6ae6ecbf)">
     <use xlink:href="#meb533a6b75" x="0" y="216" style="fill: #66c2a5; fill-opacity: 0.15; stroke: #ffffff; stroke-opacity: 0.15"/>
    </g>
   </g>
   <g id="PolyCollection_2">
    <defs>
     <path id="m783e2923b4" d="M 89.764596 -166.479308 
L 89.764596 -156.438515 
L 91.464791 -156.510162 
L 93.164985 -156.581809 
L 94.86518 -156.668813 
L 96.565375 -156.787403 
L 98.265569 -156.912973 
L 99.965764 -157.027977 
L 101.665959 -157.092521 
L 103.366153 -157.183894 
L 105.066348 -157.295256 
L 106.766543 -157.386095 
L 108.466738 -157.460745 
L 110.166932 -157.567856 
L 111.867127 -157.676941 
L 113.567322 -157.786027 
L 115.267516 -157.892078 
L 116.967711 -157.904705 
L 118.667906 -157.947928 
L 120.3681 -158.071294 
L 122.068295 -158.119772 
L 123.76849 -158.197924 
L 125.468684 -158.319338 
L 127.168879 -158.350652 
L 128.869074 -158.354387 
L 130.569268 -158.32623 
L 132.269463 -158.366771 
L 133.969658 -158.415146 
L 135.669852 -158.462109 
L 137.370047 -158.462754 
L 139.070242 -158.430206 
L 140.770437 -158.358368 
L 142.470631 -158.178199 
L 144.170826 -158.194646 
L 145.871021 -158.132974 
L 147.571215 -158.190085 
L 149.27141 -158.077605 
L 150.971605 -157.978969 
L 152.671799 -157.966286 
L 154.371994 -157.846617 
L 156.072189 -157.753033 
L 157.772383 -157.643343 
L 159.472578 -157.507855 
L 161.172773 -157.438349 
L 162.872967 -157.335315 
L 164.573162 -157.162318 
L 166.273357 -156.953307 
L 167.973551 -156.862855 
L 169.673746 -156.783511 
L 171.373941 -156.743207 
L 173.074136 -156.681474 
L 174.77433 -156.550921 
L 176.474525 -156.361512 
L 178.17472 -156.261723 
L 179.874914 -156.109129 
L 181.575109 -155.952725 
L 183.275304 -155.798188 
L 184.975498 -155.644284 
L 186.675693 -155.490697 
L 188.375888 -155.33711 
L 190.076082 -155.183522 
L 191.776277 -155.029935 
L 193.476472 -154.876348 
L 195.176666 -154.736012 
L 196.876861 -154.625253 
L 198.577056 -154.514494 
L 200.27725 -154.403735 
L 201.977445 -154.288776 
L 203.67764 -154.110951 
L 205.377834 -153.933125 
L 207.078029 -153.75559 
L 208.778224 -153.578895 
L 210.478419 -153.431231 
L 212.178613 -153.320002 
L 213.878808 -153.208774 
L 215.579003 -153.097508 
L 217.279197 -152.929385 
L 218.979392 -152.761271 
L 220.679587 -152.593157 
L 222.379781 -152.425043 
L 224.079976 -152.257172 
L 225.780171 -152.089369 
L 227.480365 -151.921566 
L 229.18056 -151.753763 
L 230.880755 -151.58596 
L 232.580949 -151.415492 
L 234.281144 -151.248095 
L 235.981339 -151.070301 
L 237.681533 -150.88714 
L 239.381728 -150.703978 
L 241.081923 -150.544643 
L 242.782118 -150.389345 
L 244.482312 -150.234048 
L 246.182507 -150.069215 
L 247.882702 -149.900517 
L 249.582896 -149.731819 
L 251.283091 -149.563122 
L 252.983286 -149.394424 
L 254.68348 -149.225727 
L 256.383675 -149.057029 
L 258.08387 -148.889153 
L 258.08387 -168.669221 
L 258.08387 -168.669221 
L 256.383675 -168.563212 
L 254.68348 -168.459681 
L 252.983286 -168.352116 
L 251.283091 -168.245294 
L 249.582896 -168.135632 
L 247.882702 -168.02739 
L 246.182507 -167.919374 
L 244.482312 -167.811301 
L 242.782118 -167.703185 
L 241.081923 -167.595069 
L 239.381728 -167.510039 
L 237.681533 -167.453609 
L 235.981339 -167.388873 
L 234.281144 -167.274282 
L 232.580949 -167.15888 
L 230.880755 -167.041918 
L 229.18056 -166.952866 
L 227.480365 -166.915058 
L 225.780171 -166.815581 
L 224.079976 -166.709572 
L 222.379781 -166.599355 
L 220.679587 -166.489541 
L 218.979392 -166.416768 
L 217.279197 -166.323968 
L 215.579003 -166.2251 
L 213.878808 -166.089798 
L 212.178613 -165.996248 
L 210.478419 -165.919936 
L 208.778224 -165.887276 
L 207.078029 -165.831328 
L 205.377834 -165.717022 
L 203.67764 -165.636649 
L 201.977445 -165.590256 
L 200.27725 -165.510043 
L 198.577056 -165.461505 
L 196.876861 -165.430814 
L 195.176666 -165.406928 
L 193.476472 -165.359789 
L 191.776277 -165.3534 
L 190.076082 -165.320429 
L 188.375888 -165.299713 
L 186.675693 -165.247659 
L 184.975498 -165.243589 
L 183.275304 -165.19364 
L 181.575109 -165.116714 
L 179.874914 -165.125103 
L 178.17472 -165.112701 
L 176.474525 -165.028309 
L 174.77433 -164.943776 
L 173.074136 -164.895881 
L 171.373941 -164.891463 
L 169.673746 -164.888693 
L 167.973551 -164.82154 
L 166.273357 -164.760514 
L 164.573162 -164.687374 
L 162.872967 -164.641525 
L 161.172773 -164.63702 
L 159.472578 -164.586701 
L 157.772383 -164.581533 
L 156.072189 -164.584873 
L 154.371994 -164.558447 
L 152.671799 -164.532291 
L 150.971605 -164.518481 
L 149.27141 -164.499135 
L 147.571215 -164.474431 
L 145.871021 -164.483717 
L 144.170826 -164.484548 
L 142.470631 -164.493531 
L 140.770437 -164.496661 
L 139.070242 -164.527685 
L 137.370047 -164.521253 
L 135.669852 -164.537839 
L 133.969658 -164.575003 
L 132.269463 -164.58897 
L 130.569268 -164.637912 
L 128.869074 -164.614792 
L 127.168879 -164.609284 
L 125.468684 -164.641727 
L 123.76849 -164.651131 
L 122.068295 -164.70206 
L 120.3681 -164.812511 
L 118.667906 -164.826816 
L 116.967711 -164.824479 
L 115.267516 -164.870016 
L 113.567322 -164.997591 
L 111.867127 -165.09368 
L 110.166932 -165.134348 
L 108.466738 -165.214316 
L 106.766543 -165.307065 
L 105.066348 -165.408238 
L 103.366153 -165.510309 
L 101.665959 -165.629672 
L 99.965764 -165.789648 
L 98.265569 -165.940837 
L 96.565375 -166.099609 
L 94.86518 -166.240815 
L 93.164985 -166.321338 
L 91.464791 -166.419607 
L 89.764596 -166.479308 
z
" style="stroke: #ffffff; stroke-opacity: 0.15"/>
    </defs>
    <g clip-path="url(#pac6ae6ecbf)">
     <use xlink:href="#m783e2923b4" x="0" y="216" style="fill: #fc8d62; fill-opacity: 0.15; stroke: #ffffff; stroke-opacity: 0.15"/>
    </g>
   </g>
   <g id="line2d_12">
    <path d="M 87.005264 54.506348 
L 88.036529 54.541043 
L 89.067795 54.575738 
L 90.099061 54.610432 
L 91.130326 54.645127 
L 92.161592 54.679822 
L 93.192857 54.714517 
L 94.224123 54.749212 
L 95.255389 54.783907 
L 96.286654 54.818602 
L 97.31792 54.853296 
L 98.349186 54.887991 
L 99.380451 54.922686 
L 100.411717 54.957381 
L 101.442982 54.992076 
L 102.474248 55.026771 
L 103.505514 55.061466 
L 104.536779 55.09616 
L 105.568045 55.130855 
L 106.599311 55.16555 
L 107.630576 55.200245 
L 108.661842 55.23494 
L 109.693107 55.269635 
L 110.724373 55.30433 
L 111.755639 55.339024 
L 112.786904 55.373719 
L 113.81817 55.408414 
L 114.849436 55.443109 
L 115.880701 55.477804 
L 116.911967 55.512499 
L 117.943232 55.547194 
L 118.974498 55.581888 
L 120.005764 55.616583 
L 121.037029 55.651278 
L 122.068295 55.685973 
L 123.099561 55.720668 
L 124.130826 55.755363 
L 125.162092 55.790058 
L 126.193357 55.824752 
L 127.224623 55.859447 
L 128.255889 55.894142 
L 129.287154 55.928837 
L 130.31842 55.963532 
L 131.349686 55.998227 
L 132.380951 56.032922 
L 133.412217 56.067616 
L 134.443483 56.102311 
L 135.474748 56.137006 
L 136.506014 56.171701 
L 137.537279 56.206396 
L 138.568545 56.241091 
L 139.599811 56.275786 
L 140.631076 56.31048 
L 141.662342 56.345175 
L 142.693608 56.37987 
L 143.724873 56.414565 
L 144.756139 56.44926 
L 145.787404 56.483955 
L 146.81867 56.51865 
L 147.849936 56.553344 
L 148.881201 56.588039 
L 149.912467 56.622734 
L 150.943733 56.657429 
L 151.974998 56.692124 
L 153.006264 56.726819 
L 154.037529 56.761514 
L 155.068795 56.796208 
L 156.100061 56.830903 
L 157.131326 56.865598 
L 158.162592 56.900293 
L 159.193858 56.934988 
L 160.225123 56.969683 
L 161.256389 57.004378 
L 162.287654 57.039072 
L 163.31892 57.073767 
L 164.350186 57.108462 
L 165.381451 57.143157 
L 166.412717 57.177852 
L 167.443983 57.212547 
L 168.475248 57.247242 
L 169.506514 57.281936 
L 170.537779 57.316631 
L 171.569045 57.351326 
L 172.600311 57.386021 
L 173.631576 57.420716 
L 174.662842 57.455411 
L 175.694108 57.490106 
L 176.725373 57.5248 
L 177.756639 57.559495 
L 178.787905 57.59419 
L 179.81917 57.628885 
L 180.850436 57.66358 
L 181.881701 57.698275 
L 182.912967 57.73297 
L 183.944233 57.767664 
L 184.975498 57.802359 
L 186.006764 57.837054 
L 187.03803 57.871749 
L 188.069295 57.906444 
L 189.100561 57.941139 
" clip-path="url(#pac6ae6ecbf)" style="fill: none; stroke: #66c2a5; stroke-width: 2.25; stroke-linecap: round"/>
   </g>
   <g id="line2d_13">
    <path d="M 89.764596 54.560364 
L 91.464791 54.550308 
L 93.164985 54.540251 
L 94.86518 54.530194 
L 96.565375 54.520138 
L 98.265569 54.510081 
L 99.965764 54.500024 
L 101.665959 54.489968 
L 103.366153 54.479911 
L 105.066348 54.469855 
L 106.766543 54.459798 
L 108.466738 54.449741 
L 110.166932 54.439685 
L 111.867127 54.429628 
L 113.567322 54.419572 
L 115.267516 54.409515 
L 116.967711 54.399458 
L 118.667906 54.389402 
L 120.3681 54.379345 
L 122.068295 54.369288 
L 123.76849 54.359232 
L 125.468684 54.349175 
L 127.168879 54.339119 
L 128.869074 54.329062 
L 130.569268 54.319005 
L 132.269463 54.308949 
L 133.969658 54.298892 
L 135.669852 54.288836 
L 137.370047 54.278779 
L 139.070242 54.268722 
L 140.770437 54.258666 
L 142.470631 54.248609 
L 144.170826 54.238552 
L 145.871021 54.228496 
L 147.571215 54.218439 
L 149.27141 54.208383 
L 150.971605 54.198326 
L 152.671799 54.188269 
L 154.371994 54.178213 
L 156.072189 54.168156 
L 157.772383 54.1581 
L 159.472578 54.148043 
L 161.172773 54.137986 
L 162.872967 54.12793 
L 164.573162 54.117873 
L 166.273357 54.107816 
L 167.973551 54.09776 
L 169.673746 54.087703 
L 171.373941 54.077647 
L 173.074136 54.06759 
L 174.77433 54.057533 
L 176.474525 54.047477 
L 178.17472 54.03742 
L 179.874914 54.027364 
L 181.575109 54.017307 
L 183.275304 54.00725 
L 184.975498 53.997194 
L 186.675693 53.987137 
L 188.375888 53.97708 
L 190.076082 53.967024 
L 191.776277 53.956967 
L 193.476472 53.946911 
L 195.176666 53.936854 
L 196.876861 53.926797 
L 198.577056 53.916741 
L 200.27725 53.906684 
L 201.977445 53.896628 
L 203.67764 53.886571 
L 205.377834 53.876514 
L 207.078029 53.866458 
L 208.778224 53.856401 
L 210.478419 53.846344 
L 212.178613 53.836288 
L 213.878808 53.826231 
L 215.579003 53.816175 
L 217.279197 53.806118 
L 218.979392 53.796061 
L 220.679587 53.786005 
L 222.379781 53.775948 
L 224.079976 53.765892 
L 225.780171 53.755835 
L 227.480365 53.745778 
L 229.18056 53.735722 
L 230.880755 53.725665 
L 232.580949 53.715608 
L 234.281144 53.705552 
L 235.981339 53.695495 
L 237.681533 53.685439 
L 239.381728 53.675382 
L 241.081923 53.665325 
L 242.782118 53.655269 
L 244.482312 53.645212 
L 246.182507 53.635156 
L 247.882702 53.625099 
L 249.582896 53.615042 
L 251.283091 53.604986 
L 252.983286 53.594929 
L 254.68348 53.584872 
L 256.383675 53.574816 
L 258.08387 53.564759 
" clip-path="url(#pac6ae6ecbf)" style="fill: none; stroke: #fc8d62; stroke-width: 2.25; stroke-linecap: round"/>
   </g>
   <g id="patch_3">
    <path d="M 78.451333 167.22 
L 78.451333 12.96 
" style="fill: none; stroke: #262626; stroke-width: 1.25; stroke-linejoin: miter; stroke-linecap: square"/>
   </g>
   <g id="patch_4">
    <path d="M 87.005264 167.22 
L 260.843202 167.22 
" style="fill: none; stroke: #262626; stroke-width: 1.25; stroke-linejoin: miter; stroke-linecap: square"/>
   </g>
   <g id="PathCollection_1">
    <defs>
     <path id="m1030217e2f" d="M 0 2.738613 
C 0.726289 2.738613 1.422928 2.450055 1.936492 1.936492 
C 2.450055 1.422928 2.738613 0.726289 2.738613 0 
C 2.738613 -0.726289 2.450055 -1.422928 1.936492 -1.936492 
C 1.422928 -2.450055 0.726289 -2.738613 0 -2.738613 
C -0.726289 -2.738613 -1.422928 -2.450055 -1.936492 -1.936492 
C -2.450055 -1.422928 -2.738613 -0.726289 -2.738613 0 
C -2.738613 0.726289 -2.450055 1.422928 -1.936492 1.936492 
C -1.422928 2.450055 -0.726289 2.738613 0 2.738613 
z
" style="stroke: #ffffff; stroke-opacity: 0.8; stroke-width: 0.5"/>
    </defs>
    <g>
     <use xlink:href="#m1030217e2f" x="89.764596" y="55.548415" style="fill: #66c2a5; fill-opacity: 0.8; stroke: #ffffff; stroke-opacity: 0.8; stroke-width: 0.5"/>
     <use xlink:href="#m1030217e2f" x="87.005264" y="44.560015" style="fill: #66c2a5; fill-opacity: 0.8; stroke: #ffffff; stroke-opacity: 0.8; stroke-width: 0.5"/>
     <use xlink:href="#m1030217e2f" x="147.710575" y="47.136012" style="fill: #66c2a5; fill-opacity: 0.8; stroke: #ffffff; stroke-opacity: 0.8; stroke-width: 0.5"/>
     <use xlink:href="#m1030217e2f" x="89.764596" y="69.801071" style="fill: #66c2a5; fill-opacity: 0.8; stroke: #ffffff; stroke-opacity: 0.8; stroke-width: 0.5"/>
     <use xlink:href="#m1030217e2f" x="89.764596" y="44.421262" style="fill: #66c2a5; fill-opacity: 0.8; stroke: #ffffff; stroke-opacity: 0.8; stroke-width: 0.5"/>
     <use xlink:href="#m1030217e2f" x="106.32059" y="42.791974" style="fill: #66c2a5; fill-opacity: 0.8; stroke: #ffffff; stroke-opacity: 0.8; stroke-width: 0.5"/>
     <use xlink:href="#m1030217e2f" x="125.635917" y="53.288531" style="fill: #66c2a5; fill-opacity: 0.8; stroke: #ffffff; stroke-opacity: 0.8; stroke-width: 0.5"/>
     <use xlink:href="#m1030217e2f" x="89.764596" y="46.326827" style="fill: #66c2a5; fill-opacity: 0.8; stroke: #ffffff; stroke-opacity: 0.8; stroke-width: 0.5"/>
     <use xlink:href="#m1030217e2f" x="87.005264" y="55.98092" style="fill: #66c2a5; fill-opacity: 0.8; stroke: #ffffff; stroke-opacity: 0.8; stroke-width: 0.5"/>
     <use xlink:href="#m1030217e2f" x="111.839255" y="48.575347" style="fill: #66c2a5; fill-opacity: 0.8; stroke: #ffffff; stroke-opacity: 0.8; stroke-width: 0.5"/>
     <use xlink:href="#m1030217e2f" x="189.100561" y="53.655157" style="fill: #66c2a5; fill-opacity: 0.8; stroke: #ffffff; stroke-opacity: 0.8; stroke-width: 0.5"/>
     <use xlink:href="#m1030217e2f" x="92.523928" y="62.21641" style="fill: #66c2a5; fill-opacity: 0.8; stroke: #ffffff; stroke-opacity: 0.8; stroke-width: 0.5"/>
     <use xlink:href="#m1030217e2f" x="122.876584" y="69.057193" style="fill: #66c2a5; fill-opacity: 0.8; stroke: #ffffff; stroke-opacity: 0.8; stroke-width: 0.5"/>
     <use xlink:href="#m1030217e2f" x="125.635917" y="51.043085" style="fill: #66c2a5; fill-opacity: 0.8; stroke: #ffffff; stroke-opacity: 0.8; stroke-width: 0.5"/>
     <use xlink:href="#m1030217e2f" x="103.561258" y="68.494229" style="fill: #66c2a5; fill-opacity: 0.8; stroke: #ffffff; stroke-opacity: 0.8; stroke-width: 0.5"/>
     <use xlink:href="#m1030217e2f" x="125.635917" y="57.554058" style="fill: #66c2a5; fill-opacity: 0.8; stroke: #ffffff; stroke-opacity: 0.8; stroke-width: 0.5"/>
     <use xlink:href="#m1030217e2f" x="95.283261" y="47.849869" style="fill: #66c2a5; fill-opacity: 0.8; stroke: #ffffff; stroke-opacity: 0.8; stroke-width: 0.5"/>
     <use xlink:href="#m1030217e2f" x="178.063231" y="63.660567" style="fill: #66c2a5; fill-opacity: 0.8; stroke: #ffffff; stroke-opacity: 0.8; stroke-width: 0.5"/>
     <use xlink:href="#m1030217e2f" x="98.042593" y="51.875848" style="fill: #66c2a5; fill-opacity: 0.8; stroke: #ffffff; stroke-opacity: 0.8; stroke-width: 0.5"/>
     <use xlink:href="#m1030217e2f" x="89.764596" y="65.487138" style="fill: #66c2a5; fill-opacity: 0.8; stroke: #ffffff; stroke-opacity: 0.8; stroke-width: 0.5"/>
     <use xlink:href="#m1030217e2f" x="109.079922" y="55.366187" style="fill: #66c2a5; fill-opacity: 0.8; stroke: #ffffff; stroke-opacity: 0.8; stroke-width: 0.5"/>
     <use xlink:href="#m1030217e2f" x="87.005264" y="49.910863" style="fill: #66c2a5; fill-opacity: 0.8; stroke: #ffffff; stroke-opacity: 0.8; stroke-width: 0.5"/>
     <use xlink:href="#m1030217e2f" x="120.117252" y="68.128978" style="fill: #66c2a5; fill-opacity: 0.8; stroke: #ffffff; stroke-opacity: 0.8; stroke-width: 0.5"/>
     <use xlink:href="#m1030217e2f" x="87.005264" y="54.845455" style="fill: #66c2a5; fill-opacity: 0.8; stroke: #ffffff; stroke-opacity: 0.8; stroke-width: 0.5"/>
     <use xlink:href="#m1030217e2f" x="117.35792" y="54.949374" style="fill: #66c2a5; fill-opacity: 0.8; stroke: #ffffff; stroke-opacity: 0.8; stroke-width: 0.5"/>
    </g>
   </g>
   <g id="PathCollection_2">
    <defs>
     <path id="m6866a42e13" d="M 0 2.738613 
C 0.726289 2.738613 1.422928 2.450055 1.936492 1.936492 
C 2.450055 1.422928 2.738613 0.726289 2.738613 0 
C 2.738613 -0.726289 2.450055 -1.422928 1.936492 -1.936492 
C 1.422928 -2.450055 0.726289 -2.738613 0 -2.738613 
C -0.726289 -2.738613 -1.422928 -2.450055 -1.936492 -1.936492 
C -2.450055 -1.422928 -2.738613 -0.726289 -2.738613 0 
C -2.738613 0.726289 -2.450055 1.422928 -1.936492 1.936492 
C -1.422928 2.450055 -0.726289 2.738613 0 2.738613 
z
" style="stroke: #ffffff; stroke-opacity: 0.8; stroke-width: 0.5"/>
    </defs>
    <g>
     <use xlink:href="#m6866a42e13" x="100.801925" y="47.841982" style="fill: #fc8d62; fill-opacity: 0.8; stroke: #ffffff; stroke-opacity: 0.8; stroke-width: 0.5"/>
     <use xlink:href="#m6866a42e13" x="109.079922" y="69.275785" style="fill: #fc8d62; fill-opacity: 0.8; stroke: #ffffff; stroke-opacity: 0.8; stroke-width: 0.5"/>
     <use xlink:href="#m6866a42e13" x="89.764596" y="45.067973" style="fill: #fc8d62; fill-opacity: 0.8; stroke: #ffffff; stroke-opacity: 0.8; stroke-width: 0.5"/>
     <use xlink:href="#m6866a42e13" x="169.785234" y="57.396775" style="fill: #fc8d62; fill-opacity: 0.8; stroke: #ffffff; stroke-opacity: 0.8; stroke-width: 0.5"/>
     <use xlink:href="#m6866a42e13" x="222.212549" y="58.820567" style="fill: #fc8d62; fill-opacity: 0.8; stroke: #ffffff; stroke-opacity: 0.8; stroke-width: 0.5"/>
     <use xlink:href="#m6866a42e13" x="95.283261" y="46.442054" style="fill: #fc8d62; fill-opacity: 0.8; stroke: #ffffff; stroke-opacity: 0.8; stroke-width: 0.5"/>
     <use xlink:href="#m6866a42e13" x="128.395249" y="59.734455" style="fill: #fc8d62; fill-opacity: 0.8; stroke: #ffffff; stroke-opacity: 0.8; stroke-width: 0.5"/>
     <use xlink:href="#m6866a42e13" x="109.079922" y="55.52228" style="fill: #fc8d62; fill-opacity: 0.8; stroke: #ffffff; stroke-opacity: 0.8; stroke-width: 0.5"/>
     <use xlink:href="#m6866a42e13" x="122.876584" y="46.950395" style="fill: #fc8d62; fill-opacity: 0.8; stroke: #ffffff; stroke-opacity: 0.8; stroke-width: 0.5"/>
     <use xlink:href="#m6866a42e13" x="155.988573" y="53.527001" style="fill: #fc8d62; fill-opacity: 0.8; stroke: #ffffff; stroke-opacity: 0.8; stroke-width: 0.5"/>
     <use xlink:href="#m6866a42e13" x="158.747905" y="50.388692" style="fill: #fc8d62; fill-opacity: 0.8; stroke: #ffffff; stroke-opacity: 0.8; stroke-width: 0.5"/>
     <use xlink:href="#m6866a42e13" x="111.839255" y="55.967082" style="fill: #fc8d62; fill-opacity: 0.8; stroke: #ffffff; stroke-opacity: 0.8; stroke-width: 0.5"/>
     <use xlink:href="#m6866a42e13" x="158.747905" y="52.647234" style="fill: #fc8d62; fill-opacity: 0.8; stroke: #ffffff; stroke-opacity: 0.8; stroke-width: 0.5"/>
     <use xlink:href="#m6866a42e13" x="125.635917" y="53.569321" style="fill: #fc8d62; fill-opacity: 0.8; stroke: #ffffff; stroke-opacity: 0.8; stroke-width: 0.5"/>
     <use xlink:href="#m6866a42e13" x="103.561258" y="52.945171" style="fill: #fc8d62; fill-opacity: 0.8; stroke: #ffffff; stroke-opacity: 0.8; stroke-width: 0.5"/>
     <use xlink:href="#m6866a42e13" x="197.378558" y="51.437838" style="fill: #fc8d62; fill-opacity: 0.8; stroke: #ffffff; stroke-opacity: 0.8; stroke-width: 0.5"/>
     <use xlink:href="#m6866a42e13" x="133.913914" y="67.405332" style="fill: #fc8d62; fill-opacity: 0.8; stroke: #ffffff; stroke-opacity: 0.8; stroke-width: 0.5"/>
     <use xlink:href="#m6866a42e13" x="120.117252" y="49.789696" style="fill: #fc8d62; fill-opacity: 0.8; stroke: #ffffff; stroke-opacity: 0.8; stroke-width: 0.5"/>
     <use xlink:href="#m6866a42e13" x="258.08387" y="45.451691" style="fill: #fc8d62; fill-opacity: 0.8; stroke: #ffffff; stroke-opacity: 0.8; stroke-width: 0.5"/>
     <use xlink:href="#m6866a42e13" x="142.191911" y="63.881439" style="fill: #fc8d62; fill-opacity: 0.8; stroke: #ffffff; stroke-opacity: 0.8; stroke-width: 0.5"/>
     <use xlink:href="#m6866a42e13" x="111.839255" y="55.551719" style="fill: #fc8d62; fill-opacity: 0.8; stroke: #ffffff; stroke-opacity: 0.8; stroke-width: 0.5"/>
    </g>
   </g>
  </g>
  <g id="legend_1">
   <g id="text_14">
    <text style="fill: #262626; font: 12px 'Arial', 'DejaVu Sans', 'Liberation Sans', 'Bitstream Vera Sans', sans-serif; text-anchor: start" x="269.051875" y="95.165312" transform="rotate(-0 269.051875 95.165312)">multiplier</text>
   </g>
   <g id="PathCollection_3">
    <g>
     <use xlink:href="#m1030217e2f" x="284.539219" y="108.631719" style="fill: #66c2a5; fill-opacity: 0.8; stroke: #ffffff; stroke-opacity: 0.8; stroke-width: 0.5"/>
    </g>
   </g>
   <g id="text_15">
    <text style="fill: #262626; font: 11px 'Arial', 'DejaVu Sans', 'Liberation Sans', 'Bitstream Vera Sans', sans-serif; text-anchor: start" x="304.339219" y="111.519219" transform="rotate(-0 304.339219 111.519219)">1.5</text>
   </g>
   <g id="PathCollection_4">
    <g>
     <use xlink:href="#m6866a42e13" x="284.539219" y="124.777656" style="fill: #fc8d62; fill-opacity: 0.8; stroke: #ffffff; stroke-opacity: 0.8; stroke-width: 0.5"/>
    </g>
   </g>
   <g id="text_16">
    <text style="fill: #262626; font: 11px 'Arial', 'DejaVu Sans', 'Liberation Sans', 'Bitstream Vera Sans', sans-serif; text-anchor: start" x="304.339219" y="127.665156" transform="rotate(-0 304.339219 127.665156)">2.5</text>
   </g>
  </g>
 </g>
 <defs>
  <clipPath id="pac6ae6ecbf">
   <rect x="78.451333" y="12.96" width="188.186467" height="154.26"/>
  </clipPath>
 </defs>
</svg>
