<?xml version="1.0" encoding="utf-8" standalone="no"?>
<!DOCTYPE svg PUBLIC "-//W3C//DTD SVG 1.1//EN"
  "http://www.w3.org/Graphics/SVG/1.1/DTD/svg11.dtd">
<svg xmlns:xlink="http://www.w3.org/1999/xlink" width="336.22pt" height="216pt" viewBox="0 0 336.22 216" xmlns="http://www.w3.org/2000/svg" version="1.1">
 <metadata>
  <rdf:RDF xmlns:dc="http://purl.org/dc/elements/1.1/" xmlns:cc="http://creativecommons.org/ns#" xmlns:rdf="http://www.w3.org/1999/02/22-rdf-syntax-ns#">
   <cc:Work>
    <dc:type rdf:resource="http://purl.org/dc/dcmitype/StillImage"/>
    <dc:date>2023-05-15T19:41:24.738800</dc:date>
    <dc:format>image/svg+xml</dc:format>
    <dc:creator>
     <cc:Agent>
      <dc:title>Matplotlib v3.7.0, https://matplotlib.org/</dc:title>
     </cc:Agent>
    </dc:creator>
   </cc:Work>
  </rdf:RDF>
 </metadata>
 <defs>
  <style type="text/css">*{stroke-linejoin: round; stroke-linecap: butt}</style>
 </defs>
 <g id="figure_1">
  <g id="patch_1">
   <path d="M 0 216 
L 336.22 216 
L 336.22 0 
L 0 0 
z
" style="fill: #ffffff"/>
  </g>
  <g id="axes_1">
   <g id="patch_2">
    <path d="M 78.451333 167.22 
L 266.6378 167.22 
L 266.6378 12.96 
L 78.451333 12.96 
z
" style="fill: #ffffff"/>
   </g>
   <g id="matplotlib.axis_1">
    <g id="xtick_1">
     <g id="line2d_1">
      <defs>
       <path id="me065e8b86d" d="M 0 0 
L 0 6 
" style="stroke: #262626; stroke-width: 1.25"/>
      </defs>
      <g>
       <use xlink:href="#me065e8b86d" x="87.005264" y="167.22" style="fill: #262626; stroke: #262626; stroke-width: 1.25"/>
      </g>
     </g>
     <g id="text_1">
      <text style="fill: #262626; font: 11px 'Arial', 'DejaVu Sans', 'Liberation Sans', 'Bitstream Vera Sans', sans-serif; text-anchor: middle" x="87.005264" y="185.078281" transform="rotate(-0 87.005264 185.078281)">0.00</text>
     </g>
    </g>
    <g id="xtick_2">
     <g id="line2d_2">
      <g>
       <use xlink:href="#me065e8b86d" x="129.774915" y="167.22" style="fill: #262626; stroke: #262626; stroke-width: 1.25"/>
      </g>
     </g>
     <g id="text_2">
      <text style="fill: #262626; font: 11px 'Arial', 'DejaVu Sans', 'Liberation Sans', 'Bitstream Vera Sans', sans-serif; text-anchor: middle" x="129.774915" y="185.078281" transform="rotate(-0 129.774915 185.078281)">0.25</text>
     </g>
    </g>
    <g id="xtick_3">
     <g id="line2d_3">
      <g>
       <use xlink:href="#me065e8b86d" x="172.544567" y="167.22" style="fill: #262626; stroke: #262626; stroke-width: 1.25"/>
      </g>
     </g>
     <g id="text_3">
      <text style="fill: #262626; font: 11px 'Arial', 'DejaVu Sans', 'Liberation Sans', 'Bitstream Vera Sans', sans-serif; text-anchor: middle" x="172.544567" y="185.078281" transform="rotate(-0 172.544567 185.078281)">0.50</text>
     </g>
    </g>
    <g id="xtick_4">
     <g id="line2d_4">
      <g>
       <use xlink:href="#me065e8b86d" x="215.314218" y="167.22" style="fill: #262626; stroke: #262626; stroke-width: 1.25"/>
      </g>
     </g>
     <g id="text_4">
      <text style="fill: #262626; font: 11px 'Arial', 'DejaVu Sans', 'Liberation Sans', 'Bitstream Vera Sans', sans-serif; text-anchor: middle" x="215.314218" y="185.078281" transform="rotate(-0 215.314218 185.078281)">0.75</text>
     </g>
    </g>
    <g id="xtick_5">
     <g id="line2d_5">
      <g>
       <use xlink:href="#me065e8b86d" x="258.08387" y="167.22" style="fill: #262626; stroke: #262626; stroke-width: 1.25"/>
      </g>
     </g>
     <g id="text_5">
      <text style="fill: #262626; font: 11px 'Arial', 'DejaVu Sans', 'Liberation Sans', 'Bitstream Vera Sans', sans-serif; text-anchor: middle" x="258.08387" y="185.078281" transform="rotate(-0 258.08387 185.078281)">1.00</text>
     </g>
    </g>
    <g id="text_6">
     <text style="fill: #262626; font: 12px 'Arial', 'DejaVu Sans', 'Liberation Sans', 'Bitstream Vera Sans', sans-serif; text-anchor: middle" x="172.544567" y="200.484062" transform="rotate(-0 172.544567 200.484062)">p(disclose)</text>
    </g>
   </g>
   <g id="matplotlib.axis_2">
    <g id="ytick_1">
     <g id="line2d_6">
      <defs>
       <path id="mc2692dfebd" d="M 0 0 
L -6 0 
" style="stroke: #262626; stroke-width: 1.25"/>
      </defs>
      <g>
       <use xlink:href="#mc2692dfebd" x="78.451333" y="167.22" style="fill: #262626; stroke: #262626; stroke-width: 1.25"/>
      </g>
     </g>
     <g id="text_7">
      <text style="fill: #262626; font: 11px 'Arial', 'DejaVu Sans', 'Liberation Sans', 'Bitstream Vera Sans', sans-serif; text-anchor: end" x="68.951333" y="171.399141" transform="rotate(-0 68.951333 171.399141)">0.60</text>
     </g>
    </g>
    <g id="ytick_2">
     <g id="line2d_7">
      <g>
       <use xlink:href="#mc2692dfebd" x="78.451333" y="136.368" style="fill: #262626; stroke: #262626; stroke-width: 1.25"/>
      </g>
     </g>
     <g id="text_8">
      <text style="fill: #262626; font: 11px 'Arial', 'DejaVu Sans', 'Liberation Sans', 'Bitstream Vera Sans', sans-serif; text-anchor: end" x="68.951333" y="140.547141" transform="rotate(-0 68.951333 140.547141)">0.65</text>
     </g>
    </g>
    <g id="ytick_3">
     <g id="line2d_8">
      <g>
       <use xlink:href="#mc2692dfebd" x="78.451333" y="105.516" style="fill: #262626; stroke: #262626; stroke-width: 1.25"/>
      </g>
     </g>
     <g id="text_9">
      <text style="fill: #262626; font: 11px 'Arial', 'DejaVu Sans', 'Liberation Sans', 'Bitstream Vera Sans', sans-serif; text-anchor: end" x="68.951333" y="109.695141" transform="rotate(-0 68.951333 109.695141)">0.70</text>
     </g>
    </g>
    <g id="ytick_4">
     <g id="line2d_9">
      <g>
       <use xlink:href="#mc2692dfebd" x="78.451333" y="74.664" style="fill: #262626; stroke: #262626; stroke-width: 1.25"/>
      </g>
     </g>
     <g id="text_10">
      <text style="fill: #262626; font: 11px 'Arial', 'DejaVu Sans', 'Liberation Sans', 'Bitstream Vera Sans', sans-serif; text-anchor: end" x="68.951333" y="78.843141" transform="rotate(-0 68.951333 78.843141)">0.75</text>
     </g>
    </g>
    <g id="ytick_5">
     <g id="line2d_10">
      <g>
       <use xlink:href="#mc2692dfebd" x="78.451333" y="43.812" style="fill: #262626; stroke: #262626; stroke-width: 1.25"/>
      </g>
     </g>
     <g id="text_11">
      <text style="fill: #262626; font: 11px 'Arial', 'DejaVu Sans', 'Liberation Sans', 'Bitstream Vera Sans', sans-serif; text-anchor: end" x="68.951333" y="47.991141" transform="rotate(-0 68.951333 47.991141)">0.80</text>
     </g>
    </g>
    <g id="ytick_6">
     <g id="line2d_11">
      <g>
       <use xlink:href="#mc2692dfebd" x="78.451333" y="12.96" style="fill: #262626; stroke: #262626; stroke-width: 1.25"/>
      </g>
     </g>
     <g id="text_12">
      <text style="fill: #262626; font: 11px 'Arial', 'DejaVu Sans', 'Liberation Sans', 'Bitstream Vera Sans', sans-serif; text-anchor: end" x="68.951333" y="17.139141" transform="rotate(-0 68.951333 17.139141)">0.85</text>
     </g>
    </g>
    <g id="text_13">
     <text style="fill: #262626; font: 12px 'Arial', 'DejaVu Sans', 'Liberation Sans', 'Bitstream Vera Sans', sans-serif; text-anchor: middle" x="37.963521" y="90.09" transform="rotate(-90 37.963521 90.09)">payoff</text>
    </g>
   </g>
   <g id="PolyCollection_1">
    <defs>
     <path id="m75120c6318" d="M 87.005264 -145.005602 
L 87.005264 -110.301146 
L 88.013303 -110.690011 
L 89.021341 -110.599662 
L 90.02938 -110.511314 
L 91.037419 -110.523619 
L 92.045458 -110.657584 
L 93.053497 -110.797142 
L 94.061536 -110.799162 
L 95.069575 -110.898814 
L 96.077614 -110.773276 
L 97.085653 -110.860884 
L 98.093692 -110.811897 
L 99.101731 -110.758427 
L 100.10977 -110.768001 
L 101.117809 -110.612749 
L 102.125848 -110.386359 
L 103.133886 -110.203708 
L 104.141925 -110.260763 
L 105.149964 -110.044423 
L 106.158003 -109.987005 
L 107.166042 -109.911755 
L 108.174081 -109.901129 
L 109.18212 -109.760716 
L 110.190159 -109.77709 
L 111.198198 -109.453983 
L 112.206237 -109.200415 
L 113.214276 -108.75775 
L 114.222315 -108.252363 
L 115.230354 -108.141269 
L 116.238392 -107.956664 
L 117.246431 -107.588893 
L 118.25447 -107.519953 
L 119.262509 -107.443192 
L 120.270548 -107.12093 
L 121.278587 -106.843795 
L 122.286626 -106.636532 
L 123.294665 -106.406351 
L 124.302704 -105.933848 
L 125.310743 -105.317814 
L 126.318782 -105.05233 
L 127.326821 -104.86916 
L 128.33486 -104.35721 
L 129.342898 -103.753796 
L 130.350937 -103.241371 
L 131.358976 -103.086367 
L 132.367015 -102.741858 
L 133.375054 -102.422507 
L 134.383093 -102.013611 
L 135.391132 -101.589155 
L 136.399171 -101.064355 
L 137.40721 -100.47746 
L 138.415249 -99.971374 
L 139.423288 -99.424883 
L 140.431327 -98.878418 
L 141.439366 -98.435372 
L 142.447404 -98.012392 
L 143.455443 -97.509601 
L 144.463482 -96.866038 
L 145.471521 -96.224963 
L 146.47956 -95.97679 
L 147.487599 -95.756885 
L 148.495638 -95.352749 
L 149.503677 -94.735201 
L 150.511716 -94.117654 
L 151.519755 -93.500106 
L 152.527794 -92.80812 
L 153.535833 -92.091542 
L 154.543872 -91.484068 
L 155.551911 -90.889137 
L 156.559949 -90.162618 
L 157.567988 -89.576175 
L 158.576027 -89.024567 
L 159.584066 -88.47296 
L 160.592105 -87.851221 
L 161.600144 -87.113089 
L 162.608183 -86.377524 
L 163.616222 -85.649108 
L 164.624261 -85.187465 
L 165.6323 -84.816425 
L 166.640339 -84.193581 
L 167.648378 -83.570737 
L 168.656417 -82.95092 
L 169.664455 -82.334049 
L 170.672494 -81.717179 
L 171.680533 -81.100309 
L 172.688572 -80.483438 
L 173.696611 -79.866568 
L 174.70465 -79.249697 
L 175.712689 -78.632827 
L 176.720728 -78.065693 
L 177.728767 -77.39423 
L 178.736806 -76.772993 
L 179.744845 -76.151756 
L 180.752884 -75.530519 
L 181.760923 -74.909282 
L 182.768961 -74.288045 
L 183.777 -73.666808 
L 184.785039 -73.045571 
L 185.793078 -72.424334 
L 186.801117 -71.803097 
L 186.801117 -161.739989 
L 186.801117 -161.739989 
L 185.793078 -161.272102 
L 184.785039 -160.804215 
L 183.777 -160.336329 
L 182.768961 -160.048968 
L 181.760923 -159.781469 
L 180.752884 -159.51397 
L 179.744845 -159.246471 
L 178.736806 -158.792664 
L 177.728767 -158.292378 
L 176.720728 -157.792092 
L 175.712689 -157.287628 
L 174.70465 -156.778659 
L 173.696611 -156.26969 
L 172.688572 -155.760721 
L 171.680533 -155.251752 
L 170.672494 -154.742783 
L 169.664455 -154.233814 
L 168.656417 -153.724844 
L 167.648378 -153.164368 
L 166.640339 -152.713692 
L 165.6323 -152.216953 
L 164.624261 -151.720215 
L 163.616222 -151.223476 
L 162.608183 -150.726738 
L 161.600144 -150.229999 
L 160.592105 -149.733261 
L 159.584066 -149.236522 
L 158.576027 -148.738406 
L 157.567988 -148.252777 
L 156.559949 -147.844866 
L 155.551911 -147.470492 
L 154.543872 -147.096118 
L 153.535833 -146.75141 
L 152.527794 -146.516968 
L 151.519755 -146.282525 
L 150.511716 -146.048082 
L 149.503677 -145.813639 
L 148.495638 -145.579196 
L 147.487599 -145.001659 
L 146.47956 -144.370048 
L 145.471521 -143.756685 
L 144.463482 -143.392763 
L 143.455443 -143.146636 
L 142.447404 -142.924857 
L 141.439366 -142.703078 
L 140.431327 -142.471316 
L 139.423288 -142.239532 
L 138.415249 -142.007747 
L 137.40721 -141.757417 
L 136.399171 -141.566726 
L 135.391132 -141.348631 
L 134.383093 -141.009803 
L 133.375054 -140.31403 
L 132.367015 -139.618258 
L 131.358976 -139.421781 
L 130.350937 -139.414518 
L 129.342898 -139.40387 
L 128.33486 -139.391149 
L 127.326821 -139.389055 
L 126.318782 -139.159937 
L 125.310743 -139.128135 
L 124.302704 -138.912362 
L 123.294665 -138.687715 
L 122.286626 -138.512894 
L 121.278587 -138.254493 
L 120.270548 -138.233598 
L 119.262509 -138.387113 
L 118.25447 -138.234855 
L 117.246431 -138.219811 
L 116.238392 -138.078486 
L 115.230354 -138.110194 
L 114.222315 -138.110506 
L 113.214276 -138.277813 
L 112.206237 -138.478606 
L 111.198198 -138.691063 
L 110.190159 -138.786574 
L 109.18212 -138.959699 
L 108.174081 -139.019993 
L 107.166042 -139.296492 
L 106.158003 -139.482275 
L 105.149964 -139.869328 
L 104.141925 -139.646362 
L 103.133886 -139.639064 
L 102.125848 -139.420917 
L 101.117809 -139.636295 
L 100.10977 -140.210698 
L 99.101731 -140.359653 
L 98.093692 -140.783332 
L 97.085653 -141.167753 
L 96.077614 -141.643335 
L 95.069575 -141.865376 
L 94.061536 -142.405432 
L 93.053497 -142.77803 
L 92.045458 -143.26759 
L 91.037419 -143.376043 
L 90.02938 -143.67894 
L 89.021341 -144.052503 
L 88.013303 -144.537482 
L 87.005264 -145.005602 
z
" style="stroke: #ffffff; stroke-opacity: 0.15"/>
    </defs>
    <g clip-path="url(#pf4c05ed4d2)">
     <use xlink:href="#m75120c6318" x="0" y="216" style="fill: #66c2a5; fill-opacity: 0.15; stroke: #ffffff; stroke-opacity: 0.15"/>
    </g>
   </g>
   <g id="PolyCollection_2">
    <defs>
     <path id="m21caaecb51" d="M 89.856574 -145.039096 
L 89.856574 -104.111941 
L 91.555839 -104.597074 
L 93.255105 -105.066374 
L 94.954371 -105.568765 
L 96.653636 -106.076471 
L 98.352902 -106.584177 
L 100.052167 -107.091883 
L 101.751433 -107.599589 
L 103.450699 -108.129787 
L 105.149964 -108.780009 
L 106.84923 -109.430231 
L 108.548496 -109.688267 
L 110.247761 -109.978593 
L 111.947027 -110.286003 
L 113.646292 -110.466662 
L 115.345558 -110.900654 
L 117.044824 -111.37286 
L 118.744089 -111.619848 
L 120.443355 -111.628974 
L 122.14262 -111.625586 
L 123.841886 -112.078565 
L 125.541152 -112.621478 
L 127.240417 -112.679984 
L 128.939683 -113.31129 
L 130.638949 -113.194055 
L 132.338214 -113.196783 
L 134.03748 -113.190851 
L 135.736745 -113.005663 
L 137.436011 -112.634492 
L 139.135277 -112.91341 
L 140.834542 -112.826578 
L 142.533808 -112.941835 
L 144.233073 -112.662135 
L 145.932339 -112.6936 
L 147.631605 -112.604435 
L 149.33087 -112.190867 
L 151.030136 -112.062634 
L 152.729402 -112.036728 
L 154.428667 -112.052901 
L 156.127933 -111.749311 
L 157.827198 -111.585717 
L 159.526464 -111.2828 
L 161.22573 -110.61012 
L 162.924995 -110.054337 
L 164.624261 -109.670494 
L 166.323526 -108.9818 
L 168.022792 -108.582442 
L 169.722058 -107.954594 
L 171.421323 -107.330237 
L 173.120589 -106.892268 
L 174.819855 -106.751069 
L 176.51912 -106.289796 
L 178.218386 -105.608803 
L 179.917651 -104.920285 
L 181.616917 -104.231768 
L 183.316183 -103.545056 
L 185.015448 -102.87026 
L 186.714714 -102.549427 
L 188.413979 -101.849635 
L 190.113245 -101.231195 
L 191.812511 -100.840305 
L 193.511776 -100.429231 
L 195.211042 -100.056962 
L 196.910308 -99.608145 
L 198.609573 -98.99351 
L 200.308839 -98.47381 
L 202.008104 -98.013659 
L 203.70737 -97.553509 
L 205.406636 -97.093359 
L 207.105901 -96.633208 
L 208.805167 -96.143043 
L 210.504432 -95.578289 
L 212.203698 -95.013536 
L 213.902964 -94.448782 
L 215.602229 -93.884029 
L 217.301495 -93.319275 
L 219.000761 -92.754522 
L 220.700026 -92.189769 
L 222.399292 -91.625015 
L 224.098557 -91.060262 
L 225.797823 -90.495508 
L 227.497089 -89.930755 
L 229.196354 -89.366001 
L 230.89562 -88.740406 
L 232.594885 -88.110681 
L 234.294151 -87.480955 
L 235.993417 -86.85123 
L 237.692682 -86.221504 
L 239.391948 -85.592632 
L 241.091214 -84.964896 
L 242.790479 -84.337161 
L 244.489745 -83.709425 
L 246.18901 -83.081689 
L 247.888276 -82.453953 
L 249.587542 -81.826217 
L 251.286807 -81.198481 
L 252.986073 -80.570746 
L 254.685338 -79.94301 
L 256.384604 -79.315274 
L 258.08387 -78.687538 
L 258.08387 -160.792756 
L 258.08387 -160.792756 
L 256.384604 -160.281471 
L 254.685338 -159.770186 
L 252.986073 -159.3067 
L 251.286807 -159.009091 
L 249.587542 -158.645624 
L 247.888276 -158.199256 
L 246.18901 -157.763053 
L 244.489745 -157.415643 
L 242.790479 -157.068095 
L 241.091214 -156.585493 
L 239.391948 -156.156394 
L 237.692682 -155.790349 
L 235.993417 -155.486646 
L 234.294151 -155.028452 
L 232.594885 -154.591656 
L 230.89562 -154.10807 
L 229.196354 -153.581311 
L 227.497089 -152.930253 
L 225.797823 -152.544637 
L 224.098557 -151.964158 
L 222.399292 -151.529769 
L 220.700026 -151.04274 
L 219.000761 -150.692371 
L 217.301495 -150.20914 
L 215.602229 -149.723229 
L 213.902964 -149.287357 
L 212.203698 -149.075703 
L 210.504432 -148.680669 
L 208.805167 -148.189034 
L 207.105901 -147.735628 
L 205.406636 -147.364369 
L 203.70737 -147.146113 
L 202.008104 -146.936581 
L 200.308839 -146.686053 
L 198.609573 -146.519582 
L 196.910308 -146.312679 
L 195.211042 -146.028423 
L 193.511776 -145.833974 
L 191.812511 -145.575607 
L 190.113245 -145.221944 
L 188.413979 -144.787342 
L 186.714714 -144.558281 
L 185.015448 -144.101138 
L 183.316183 -143.738693 
L 181.616917 -143.536211 
L 179.917651 -143.254794 
L 178.218386 -143.003237 
L 176.51912 -142.697265 
L 174.819855 -142.498499 
L 173.120589 -142.329279 
L 171.421323 -142.159915 
L 169.722058 -142.004158 
L 168.022792 -141.919114 
L 166.323526 -141.837976 
L 164.624261 -141.755563 
L 162.924995 -141.566697 
L 161.22573 -141.323963 
L 159.526464 -141.133288 
L 157.827198 -140.860403 
L 156.127933 -140.733894 
L 154.428667 -140.463667 
L 152.729402 -140.293214 
L 151.030136 -140.12197 
L 149.33087 -139.917246 
L 147.631605 -139.933915 
L 145.932339 -139.876456 
L 144.233073 -139.827921 
L 142.533808 -139.639342 
L 140.834542 -139.64208 
L 139.135277 -139.623861 
L 137.436011 -139.525583 
L 135.736745 -139.517309 
L 134.03748 -139.546884 
L 132.338214 -139.576459 
L 130.638949 -139.70185 
L 128.939683 -139.802813 
L 127.240417 -139.758978 
L 125.541152 -139.770844 
L 123.841886 -139.821341 
L 122.14262 -139.845099 
L 120.443355 -139.896539 
L 118.744089 -140.090991 
L 117.044824 -140.326666 
L 115.345558 -140.404862 
L 113.646292 -140.742932 
L 111.947027 -140.789062 
L 110.247761 -140.86174 
L 108.548496 -141.10931 
L 106.84923 -141.39854 
L 105.149964 -141.600871 
L 103.450699 -141.935205 
L 101.751433 -142.241023 
L 100.052167 -142.647101 
L 98.352902 -142.99193 
L 96.653636 -143.513896 
L 94.954371 -143.742329 
L 93.255105 -144.067574 
L 91.555839 -144.496406 
L 89.856574 -145.039096 
z
" style="stroke: #ffffff; stroke-opacity: 0.15"/>
    </defs>
    <g clip-path="url(#pf4c05ed4d2)">
     <use xlink:href="#m21caaecb51" x="0" y="216" style="fill: #fc8d62; fill-opacity: 0.15; stroke: #ffffff; stroke-opacity: 0.15"/>
    </g>
   </g>
   <g id="line2d_12">
    <path d="M 87.005264 87.657482 
L 88.013303 87.797513 
L 89.021341 87.937544 
L 90.02938 88.077574 
L 91.037419 88.217605 
L 92.045458 88.357636 
L 93.053497 88.497667 
L 94.061536 88.637698 
L 95.069575 88.777729 
L 96.077614 88.917759 
L 97.085653 89.05779 
L 98.093692 89.197821 
L 99.101731 89.337852 
L 100.10977 89.477883 
L 101.117809 89.617914 
L 102.125848 89.757944 
L 103.133886 89.897975 
L 104.141925 90.038006 
L 105.149964 90.178037 
L 106.158003 90.318068 
L 107.166042 90.458099 
L 108.174081 90.59813 
L 109.18212 90.73816 
L 110.190159 90.878191 
L 111.198198 91.018222 
L 112.206237 91.158253 
L 113.214276 91.298284 
L 114.222315 91.438315 
L 115.230354 91.578345 
L 116.238392 91.718376 
L 117.246431 91.858407 
L 118.25447 91.998438 
L 119.262509 92.138469 
L 120.270548 92.2785 
L 121.278587 92.418531 
L 122.286626 92.558561 
L 123.294665 92.698592 
L 124.302704 92.838623 
L 125.310743 92.978654 
L 126.318782 93.118685 
L 127.326821 93.258716 
L 128.33486 93.398746 
L 129.342898 93.538777 
L 130.350937 93.678808 
L 131.358976 93.818839 
L 132.367015 93.95887 
L 133.375054 94.098901 
L 134.383093 94.238931 
L 135.391132 94.378962 
L 136.399171 94.518993 
L 137.40721 94.659024 
L 138.415249 94.799055 
L 139.423288 94.939086 
L 140.431327 95.079117 
L 141.439366 95.219147 
L 142.447404 95.359178 
L 143.455443 95.499209 
L 144.463482 95.63924 
L 145.471521 95.779271 
L 146.47956 95.919302 
L 147.487599 96.059332 
L 148.495638 96.199363 
L 149.503677 96.339394 
L 150.511716 96.479425 
L 151.519755 96.619456 
L 152.527794 96.759487 
L 153.535833 96.899517 
L 154.543872 97.039548 
L 155.551911 97.179579 
L 156.559949 97.31961 
L 157.567988 97.459641 
L 158.576027 97.599672 
L 159.584066 97.739703 
L 160.592105 97.879733 
L 161.600144 98.019764 
L 162.608183 98.159795 
L 163.616222 98.299826 
L 164.624261 98.439857 
L 165.6323 98.579888 
L 166.640339 98.719918 
L 167.648378 98.859949 
L 168.656417 98.99998 
L 169.664455 99.140011 
L 170.672494 99.280042 
L 171.680533 99.420073 
L 172.688572 99.560104 
L 173.696611 99.700134 
L 174.70465 99.840165 
L 175.712689 99.980196 
L 176.720728 100.120227 
L 177.728767 100.260258 
L 178.736806 100.400289 
L 179.744845 100.540319 
L 180.752884 100.68035 
L 181.760923 100.820381 
L 182.768961 100.960412 
L 183.777 101.100443 
L 184.785039 101.240474 
L 185.793078 101.380504 
L 186.801117 101.520535 
" clip-path="url(#pf4c05ed4d2)" style="fill: none; stroke: #66c2a5; stroke-width: 2.25; stroke-linecap: round"/>
   </g>
   <g id="line2d_13">
    <path d="M 89.856574 89.292294 
L 91.555839 89.223945 
L 93.255105 89.155596 
L 94.954371 89.087247 
L 96.653636 89.018898 
L 98.352902 88.950549 
L 100.052167 88.8822 
L 101.751433 88.813851 
L 103.450699 88.745502 
L 105.149964 88.677153 
L 106.84923 88.608804 
L 108.548496 88.540455 
L 110.247761 88.472106 
L 111.947027 88.403757 
L 113.646292 88.335408 
L 115.345558 88.267059 
L 117.044824 88.19871 
L 118.744089 88.130361 
L 120.443355 88.062012 
L 122.14262 87.993663 
L 123.841886 87.925314 
L 125.541152 87.856965 
L 127.240417 87.788617 
L 128.939683 87.720268 
L 130.638949 87.651919 
L 132.338214 87.58357 
L 134.03748 87.515221 
L 135.736745 87.446872 
L 137.436011 87.378523 
L 139.135277 87.310174 
L 140.834542 87.241825 
L 142.533808 87.173476 
L 144.233073 87.105127 
L 145.932339 87.036778 
L 147.631605 86.968429 
L 149.33087 86.90008 
L 151.030136 86.831731 
L 152.729402 86.763382 
L 154.428667 86.695033 
L 156.127933 86.626684 
L 157.827198 86.558335 
L 159.526464 86.489986 
L 161.22573 86.421637 
L 162.924995 86.353288 
L 164.624261 86.284939 
L 166.323526 86.21659 
L 168.022792 86.148241 
L 169.722058 86.079892 
L 171.421323 86.011544 
L 173.120589 85.943195 
L 174.819855 85.874846 
L 176.51912 85.806497 
L 178.218386 85.738148 
L 179.917651 85.669799 
L 181.616917 85.60145 
L 183.316183 85.533101 
L 185.015448 85.464752 
L 186.714714 85.396403 
L 188.413979 85.328054 
L 190.113245 85.259705 
L 191.812511 85.191356 
L 193.511776 85.123007 
L 195.211042 85.054658 
L 196.910308 84.986309 
L 198.609573 84.91796 
L 200.308839 84.849611 
L 202.008104 84.781262 
L 203.70737 84.712913 
L 205.406636 84.644564 
L 207.105901 84.576215 
L 208.805167 84.507866 
L 210.504432 84.439517 
L 212.203698 84.371168 
L 213.902964 84.302819 
L 215.602229 84.234471 
L 217.301495 84.166122 
L 219.000761 84.097773 
L 220.700026 84.029424 
L 222.399292 83.961075 
L 224.098557 83.892726 
L 225.797823 83.824377 
L 227.497089 83.756028 
L 229.196354 83.687679 
L 230.89562 83.61933 
L 232.594885 83.550981 
L 234.294151 83.482632 
L 235.993417 83.414283 
L 237.692682 83.345934 
L 239.391948 83.277585 
L 241.091214 83.209236 
L 242.790479 83.140887 
L 244.489745 83.072538 
L 246.18901 83.004189 
L 247.888276 82.93584 
L 249.587542 82.867491 
L 251.286807 82.799142 
L 252.986073 82.730793 
L 254.685338 82.662444 
L 256.384604 82.594095 
L 258.08387 82.525747 
" clip-path="url(#pf4c05ed4d2)" style="fill: none; stroke: #fc8d62; stroke-width: 2.25; stroke-linecap: round"/>
   </g>
   <g id="patch_3">
    <path d="M 78.451333 167.22 
L 78.451333 12.96 
" style="fill: none; stroke: #262626; stroke-width: 1.25; stroke-linejoin: miter; stroke-linecap: square"/>
   </g>
   <g id="patch_4">
    <path d="M 87.005264 167.22 
L 258.08387 167.22 
" style="fill: none; stroke: #262626; stroke-width: 1.25; stroke-linejoin: miter; stroke-linecap: square"/>
   </g>
   <g id="PathCollection_1">
    <defs>
     <path id="mdbd4ce7b73" d="M 0 2.738613 
C 0.726289 2.738613 1.422928 2.450055 1.936492 1.936492 
C 2.450055 1.422928 2.738613 0.726289 2.738613 0 
C 2.738613 -0.726289 2.450055 -1.422928 1.936492 -1.936492 
C 1.422928 -2.450055 0.726289 -2.738613 0 -2.738613 
C -0.726289 -2.738613 -1.422928 -2.450055 -1.936492 -1.936492 
C -2.450055 -1.422928 -2.738613 -0.726289 -2.738613 0 
C -2.738613 0.726289 -2.450055 1.422928 -1.936492 1.936492 
C -1.422928 2.450055 -0.726289 2.738613 0 2.738613 
z
" style="stroke: #ffffff; stroke-opacity: 0.8; stroke-width: 0.5"/>
    </defs>
    <g>
     <use xlink:href="#mdbd4ce7b73" x="89.856574" y="94.318857" style="fill: #66c2a5; fill-opacity: 0.8; stroke: #ffffff; stroke-opacity: 0.8; stroke-width: 0.5"/>
     <use xlink:href="#mdbd4ce7b73" x="87.005264" y="42.656562" style="fill: #66c2a5; fill-opacity: 0.8; stroke: #ffffff; stroke-opacity: 0.8; stroke-width: 0.5"/>
     <use xlink:href="#mdbd4ce7b73" x="141.180156" y="54.76153" style="fill: #66c2a5; fill-opacity: 0.8; stroke: #ffffff; stroke-opacity: 0.8; stroke-width: 0.5"/>
     <use xlink:href="#mdbd4ce7b73" x="87.005264" y="153.447506" style="fill: #66c2a5; fill-opacity: 0.8; stroke: #ffffff; stroke-opacity: 0.8; stroke-width: 0.5"/>
     <use xlink:href="#mdbd4ce7b73" x="89.856574" y="44.656901" style="fill: #66c2a5; fill-opacity: 0.8; stroke: #ffffff; stroke-opacity: 0.8; stroke-width: 0.5"/>
     <use xlink:href="#mdbd4ce7b73" x="106.964434" y="42.647369" style="fill: #66c2a5; fill-opacity: 0.8; stroke: #ffffff; stroke-opacity: 0.8; stroke-width: 0.5"/>
     <use xlink:href="#mdbd4ce7b73" x="121.220985" y="79.343672" style="fill: #66c2a5; fill-opacity: 0.8; stroke: #ffffff; stroke-opacity: 0.8; stroke-width: 0.5"/>
     <use xlink:href="#mdbd4ce7b73" x="89.856574" y="57.072311" style="fill: #66c2a5; fill-opacity: 0.8; stroke: #ffffff; stroke-opacity: 0.8; stroke-width: 0.5"/>
     <use xlink:href="#mdbd4ce7b73" x="87.005264" y="87.359699" style="fill: #66c2a5; fill-opacity: 0.8; stroke: #ffffff; stroke-opacity: 0.8; stroke-width: 0.5"/>
     <use xlink:href="#mdbd4ce7b73" x="112.667055" y="55.430069" style="fill: #66c2a5; fill-opacity: 0.8; stroke: #ffffff; stroke-opacity: 0.8; stroke-width: 0.5"/>
     <use xlink:href="#mdbd4ce7b73" x="186.801117" y="88.500071" style="fill: #66c2a5; fill-opacity: 0.8; stroke: #ffffff; stroke-opacity: 0.8; stroke-width: 0.5"/>
     <use xlink:href="#mdbd4ce7b73" x="92.707884" y="122.290159" style="fill: #66c2a5; fill-opacity: 0.8; stroke: #ffffff; stroke-opacity: 0.8; stroke-width: 0.5"/>
     <use xlink:href="#mdbd4ce7b73" x="115.518365" y="152.471448" style="fill: #66c2a5; fill-opacity: 0.8; stroke: #ffffff; stroke-opacity: 0.8; stroke-width: 0.5"/>
     <use xlink:href="#mdbd4ce7b73" x="126.923605" y="66.862768" style="fill: #66c2a5; fill-opacity: 0.8; stroke: #ffffff; stroke-opacity: 0.8; stroke-width: 0.5"/>
     <use xlink:href="#mdbd4ce7b73" x="101.261814" y="148.642882" style="fill: #66c2a5; fill-opacity: 0.8; stroke: #ffffff; stroke-opacity: 0.8; stroke-width: 0.5"/>
     <use xlink:href="#mdbd4ce7b73" x="126.923605" y="95.186844" style="fill: #66c2a5; fill-opacity: 0.8; stroke: #ffffff; stroke-opacity: 0.8; stroke-width: 0.5"/>
     <use xlink:href="#mdbd4ce7b73" x="92.707884" y="65.111979" style="fill: #66c2a5; fill-opacity: 0.8; stroke: #ffffff; stroke-opacity: 0.8; stroke-width: 0.5"/>
     <use xlink:href="#mdbd4ce7b73" x="175.395877" y="133.346381" style="fill: #66c2a5; fill-opacity: 0.8; stroke: #ffffff; stroke-opacity: 0.8; stroke-width: 0.5"/>
     <use xlink:href="#mdbd4ce7b73" x="92.707884" y="81.026973" style="fill: #66c2a5; fill-opacity: 0.8; stroke: #ffffff; stroke-opacity: 0.8; stroke-width: 0.5"/>
     <use xlink:href="#mdbd4ce7b73" x="87.005264" y="126.257416" style="fill: #66c2a5; fill-opacity: 0.8; stroke: #ffffff; stroke-opacity: 0.8; stroke-width: 0.5"/>
     <use xlink:href="#mdbd4ce7b73" x="106.964434" y="87.574667" style="fill: #66c2a5; fill-opacity: 0.8; stroke: #ffffff; stroke-opacity: 0.8; stroke-width: 0.5"/>
     <use xlink:href="#mdbd4ce7b73" x="87.005264" y="61.853362" style="fill: #66c2a5; fill-opacity: 0.8; stroke: #ffffff; stroke-opacity: 0.8; stroke-width: 0.5"/>
     <use xlink:href="#mdbd4ce7b73" x="115.518365" y="148.421297" style="fill: #66c2a5; fill-opacity: 0.8; stroke: #ffffff; stroke-opacity: 0.8; stroke-width: 0.5"/>
     <use xlink:href="#mdbd4ce7b73" x="87.005264" y="92.531946" style="fill: #66c2a5; fill-opacity: 0.8; stroke: #ffffff; stroke-opacity: 0.8; stroke-width: 0.5"/>
     <use xlink:href="#mdbd4ce7b73" x="109.815744" y="84.920951" style="fill: #66c2a5; fill-opacity: 0.8; stroke: #ffffff; stroke-opacity: 0.8; stroke-width: 0.5"/>
    </g>
   </g>
   <g id="PathCollection_2">
    <defs>
     <path id="m7d26743a8f" d="M 0 2.738613 
C 0.726289 2.738613 1.422928 2.450055 1.936492 1.936492 
C 2.450055 1.422928 2.738613 0.726289 2.738613 0 
C 2.738613 -0.726289 2.450055 -1.422928 1.936492 -1.936492 
C 1.422928 -2.450055 0.726289 -2.738613 0 -2.738613 
C -0.726289 -2.738613 -1.422928 -2.450055 -1.936492 -1.936492 
C -2.450055 -1.422928 -2.738613 -0.726289 -2.738613 0 
C -2.738613 0.726289 -2.450055 1.422928 -1.936492 1.936492 
C -1.422928 2.450055 -0.726289 2.738613 0 2.738613 
z
" style="stroke: #ffffff; stroke-opacity: 0.8; stroke-width: 0.5"/>
    </defs>
    <g>
     <use xlink:href="#m7d26743a8f" x="98.410504" y="65.319624" style="fill: #fc8d62; fill-opacity: 0.8; stroke: #ffffff; stroke-opacity: 0.8; stroke-width: 0.5"/>
     <use xlink:href="#m7d26743a8f" x="109.815744" y="151.582618" style="fill: #fc8d62; fill-opacity: 0.8; stroke: #ffffff; stroke-opacity: 0.8; stroke-width: 0.5"/>
     <use xlink:href="#m7d26743a8f" x="89.856574" y="55.257487" style="fill: #fc8d62; fill-opacity: 0.8; stroke: #ffffff; stroke-opacity: 0.8; stroke-width: 0.5"/>
     <use xlink:href="#m7d26743a8f" x="169.693257" y="96.373181" style="fill: #fc8d62; fill-opacity: 0.8; stroke: #ffffff; stroke-opacity: 0.8; stroke-width: 0.5"/>
     <use xlink:href="#m7d26743a8f" x="223.868148" y="107.840917" style="fill: #fc8d62; fill-opacity: 0.8; stroke: #ffffff; stroke-opacity: 0.8; stroke-width: 0.5"/>
     <use xlink:href="#m7d26743a8f" x="89.856574" y="52.904266" style="fill: #fc8d62; fill-opacity: 0.8; stroke: #ffffff; stroke-opacity: 0.8; stroke-width: 0.5"/>
     <use xlink:href="#m7d26743a8f" x="126.923605" y="114.114311" style="fill: #fc8d62; fill-opacity: 0.8; stroke: #ffffff; stroke-opacity: 0.8; stroke-width: 0.5"/>
     <use xlink:href="#m7d26743a8f" x="106.964434" y="89.73684" style="fill: #fc8d62; fill-opacity: 0.8; stroke: #ffffff; stroke-opacity: 0.8; stroke-width: 0.5"/>
     <use xlink:href="#m7d26743a8f" x="118.369675" y="62.74536" style="fill: #fc8d62; fill-opacity: 0.8; stroke: #ffffff; stroke-opacity: 0.8; stroke-width: 0.5"/>
     <use xlink:href="#m7d26743a8f" x="155.436706" y="80.582596" style="fill: #fc8d62; fill-opacity: 0.8; stroke: #ffffff; stroke-opacity: 0.8; stroke-width: 0.5"/>
     <use xlink:href="#m7d26743a8f" x="158.288016" y="67.937546" style="fill: #fc8d62; fill-opacity: 0.8; stroke: #ffffff; stroke-opacity: 0.8; stroke-width: 0.5"/>
     <use xlink:href="#m7d26743a8f" x="112.667055" y="98.976945" style="fill: #fc8d62; fill-opacity: 0.8; stroke: #ffffff; stroke-opacity: 0.8; stroke-width: 0.5"/>
     <use xlink:href="#m7d26743a8f" x="158.288016" y="78.021424" style="fill: #fc8d62; fill-opacity: 0.8; stroke: #ffffff; stroke-opacity: 0.8; stroke-width: 0.5"/>
     <use xlink:href="#m7d26743a8f" x="121.220985" y="89.374446" style="fill: #fc8d62; fill-opacity: 0.8; stroke: #ffffff; stroke-opacity: 0.8; stroke-width: 0.5"/>
     <use xlink:href="#m7d26743a8f" x="101.261814" y="78.856242" style="fill: #fc8d62; fill-opacity: 0.8; stroke: #ffffff; stroke-opacity: 0.8; stroke-width: 0.5"/>
     <use xlink:href="#m7d26743a8f" x="192.503737" y="71.388631" style="fill: #fc8d62; fill-opacity: 0.8; stroke: #ffffff; stroke-opacity: 0.8; stroke-width: 0.5"/>
     <use xlink:href="#m7d26743a8f" x="132.626225" y="145.523708" style="fill: #fc8d62; fill-opacity: 0.8; stroke: #ffffff; stroke-opacity: 0.8; stroke-width: 0.5"/>
     <use xlink:href="#m7d26743a8f" x="118.369675" y="63.098151" style="fill: #fc8d62; fill-opacity: 0.8; stroke: #ffffff; stroke-opacity: 0.8; stroke-width: 0.5"/>
     <use xlink:href="#m7d26743a8f" x="258.08387" y="47.161455" style="fill: #fc8d62; fill-opacity: 0.8; stroke: #ffffff; stroke-opacity: 0.8; stroke-width: 0.5"/>
     <use xlink:href="#m7d26743a8f" x="144.031466" y="130.395205" style="fill: #fc8d62; fill-opacity: 0.8; stroke: #ffffff; stroke-opacity: 0.8; stroke-width: 0.5"/>
     <use xlink:href="#m7d26743a8f" x="106.964434" y="87.462619" style="fill: #fc8d62; fill-opacity: 0.8; stroke: #ffffff; stroke-opacity: 0.8; stroke-width: 0.5"/>
    </g>
   </g>
  </g>
  <g id="legend_1">
   <g id="text_14">
    <text style="fill: #262626; font: 12px 'Arial', 'DejaVu Sans', 'Liberation Sans', 'Bitstream Vera Sans', sans-serif; text-anchor: start" x="269.051875" y="95.165312" transform="rotate(-0 269.051875 95.165312)">multiplier</text>
   </g>
   <g id="PathCollection_3">
    <g>
     <use xlink:href="#mdbd4ce7b73" x="284.539219" y="108.631719" style="fill: #66c2a5; fill-opacity: 0.8; stroke: #ffffff; stroke-opacity: 0.8; stroke-width: 0.5"/>
    </g>
   </g>
   <g id="text_15">
    <text style="fill: #262626; font: 11px 'Arial', 'DejaVu Sans', 'Liberation Sans', 'Bitstream Vera Sans', sans-serif; text-anchor: start" x="304.339219" y="111.519219" transform="rotate(-0 304.339219 111.519219)">1.5</text>
   </g>
   <g id="PathCollection_4">
    <g>
     <use xlink:href="#m7d26743a8f" x="284.539219" y="124.777656" style="fill: #fc8d62; fill-opacity: 0.8; stroke: #ffffff; stroke-opacity: 0.8; stroke-width: 0.5"/>
    </g>
   </g>
   <g id="text_16">
    <text style="fill: #262626; font: 11px 'Arial', 'DejaVu Sans', 'Liberation Sans', 'Bitstream Vera Sans', sans-serif; text-anchor: start" x="304.339219" y="127.665156" transform="rotate(-0 304.339219 127.665156)">2.5</text>
   </g>
  </g>
 </g>
 <defs>
  <clipPath id="pf4c05ed4d2">
   <rect x="78.451333" y="12.96" width="188.186467" height="154.26"/>
  </clipPath>
 </defs>
</svg>
