<?xml version="1.0" encoding="utf-8" standalone="no"?>
<!DOCTYPE svg PUBLIC "-//W3C//DTD SVG 1.1//EN"
  "http://www.w3.org/Graphics/SVG/1.1/DTD/svg11.dtd">
<svg xmlns:xlink="http://www.w3.org/1999/xlink" width="336.22pt" height="216pt" viewBox="0 0 336.22 216" xmlns="http://www.w3.org/2000/svg" version="1.1">
 <metadata>
  <rdf:RDF xmlns:dc="http://purl.org/dc/elements/1.1/" xmlns:cc="http://creativecommons.org/ns#" xmlns:rdf="http://www.w3.org/1999/02/22-rdf-syntax-ns#">
   <cc:Work>
    <dc:type rdf:resource="http://purl.org/dc/dcmitype/StillImage"/>
    <dc:date>2023-05-23T18:48:55.161124</dc:date>
    <dc:format>image/svg+xml</dc:format>
    <dc:creator>
     <cc:Agent>
      <dc:title>Matplotlib v3.7.0, https://matplotlib.org/</dc:title>
     </cc:Agent>
    </dc:creator>
   </cc:Work>
  </rdf:RDF>
 </metadata>
 <defs>
  <style type="text/css">*{stroke-linejoin: round; stroke-linecap: butt}</style>
 </defs>
 <g id="figure_1">
  <g id="patch_1">
   <path d="M 0 216 
L 336.22 216 
L 336.22 0 
L 0 0 
z
" style="fill: #ffffff"/>
  </g>
  <g id="axes_1">
   <g id="patch_2">
    <path d="M 69.709613 167.22 
L 266.6378 167.22 
L 266.6378 12.96 
L 69.709613 12.96 
z
" style="fill: #ffffff"/>
   </g>
   <g id="matplotlib.axis_1">
    <g id="xtick_1">
     <g id="line2d_1">
      <defs>
       <path id="ma30f864de8" d="M 0 0 
L 0 6 
" style="stroke: #262626; stroke-width: 1.25"/>
      </defs>
      <g>
       <use xlink:href="#ma30f864de8" x="78.660895" y="167.22" style="fill: #262626; stroke: #262626; stroke-width: 1.25"/>
      </g>
     </g>
     <g id="text_1">
      <text style="fill: #262626; font: 11px 'Arial', 'DejaVu Sans', 'Liberation Sans', 'Bitstream Vera Sans', sans-serif; text-anchor: middle" x="78.660895" y="185.078281" transform="rotate(-0 78.660895 185.078281)">0.2</text>
     </g>
    </g>
    <g id="xtick_2">
     <g id="line2d_2">
      <g>
       <use xlink:href="#ma30f864de8" x="123.417301" y="167.22" style="fill: #262626; stroke: #262626; stroke-width: 1.25"/>
      </g>
     </g>
     <g id="text_2">
      <text style="fill: #262626; font: 11px 'Arial', 'DejaVu Sans', 'Liberation Sans', 'Bitstream Vera Sans', sans-serif; text-anchor: middle" x="123.417301" y="185.078281" transform="rotate(-0 123.417301 185.078281)">0.4</text>
     </g>
    </g>
    <g id="xtick_3">
     <g id="line2d_3">
      <g>
       <use xlink:href="#ma30f864de8" x="168.173707" y="167.22" style="fill: #262626; stroke: #262626; stroke-width: 1.25"/>
      </g>
     </g>
     <g id="text_3">
      <text style="fill: #262626; font: 11px 'Arial', 'DejaVu Sans', 'Liberation Sans', 'Bitstream Vera Sans', sans-serif; text-anchor: middle" x="168.173707" y="185.078281" transform="rotate(-0 168.173707 185.078281)">0.6</text>
     </g>
    </g>
    <g id="xtick_4">
     <g id="line2d_4">
      <g>
       <use xlink:href="#ma30f864de8" x="212.930113" y="167.22" style="fill: #262626; stroke: #262626; stroke-width: 1.25"/>
      </g>
     </g>
     <g id="text_4">
      <text style="fill: #262626; font: 11px 'Arial', 'DejaVu Sans', 'Liberation Sans', 'Bitstream Vera Sans', sans-serif; text-anchor: middle" x="212.930113" y="185.078281" transform="rotate(-0 212.930113 185.078281)">0.8</text>
     </g>
    </g>
    <g id="xtick_5">
     <g id="line2d_5">
      <g>
       <use xlink:href="#ma30f864de8" x="257.686519" y="167.22" style="fill: #262626; stroke: #262626; stroke-width: 1.25"/>
      </g>
     </g>
     <g id="text_5">
      <text style="fill: #262626; font: 11px 'Arial', 'DejaVu Sans', 'Liberation Sans', 'Bitstream Vera Sans', sans-serif; text-anchor: middle" x="257.686519" y="185.078281" transform="rotate(-0 257.686519 185.078281)">1.0</text>
     </g>
    </g>
    <g id="text_6">
     <text style="fill: #262626; font: 12px 'Arial', 'DejaVu Sans', 'Liberation Sans', 'Bitstream Vera Sans', sans-serif; text-anchor: middle" x="168.173707" y="200.484062" transform="rotate(-0 168.173707 200.484062)">p(disclose)</text>
    </g>
   </g>
   <g id="matplotlib.axis_2">
    <g id="ytick_1">
     <g id="line2d_6">
      <defs>
       <path id="m849304ef9a" d="M 0 0 
L -6 0 
" style="stroke: #262626; stroke-width: 1.25"/>
      </defs>
      <g>
       <use xlink:href="#m849304ef9a" x="69.709613" y="156.873008" style="fill: #262626; stroke: #262626; stroke-width: 1.25"/>
      </g>
     </g>
     <g id="text_7">
      <text style="fill: #262626; font: 11px 'Arial', 'DejaVu Sans', 'Liberation Sans', 'Bitstream Vera Sans', sans-serif; text-anchor: end" x="60.209613" y="161.052148" transform="rotate(-0 60.209613 161.052148)">0.4</text>
     </g>
    </g>
    <g id="ytick_2">
     <g id="line2d_7">
      <g>
       <use xlink:href="#m849304ef9a" x="69.709613" y="116.824948" style="fill: #262626; stroke: #262626; stroke-width: 1.25"/>
      </g>
     </g>
     <g id="text_8">
      <text style="fill: #262626; font: 11px 'Arial', 'DejaVu Sans', 'Liberation Sans', 'Bitstream Vera Sans', sans-serif; text-anchor: end" x="60.209613" y="121.004089" transform="rotate(-0 60.209613 121.004089)">0.6</text>
     </g>
    </g>
    <g id="ytick_3">
     <g id="line2d_8">
      <g>
       <use xlink:href="#m849304ef9a" x="69.709613" y="76.776889" style="fill: #262626; stroke: #262626; stroke-width: 1.25"/>
      </g>
     </g>
     <g id="text_9">
      <text style="fill: #262626; font: 11px 'Arial', 'DejaVu Sans', 'Liberation Sans', 'Bitstream Vera Sans', sans-serif; text-anchor: end" x="60.209613" y="80.95603" transform="rotate(-0 60.209613 80.95603)">0.8</text>
     </g>
    </g>
    <g id="ytick_4">
     <g id="line2d_9">
      <g>
       <use xlink:href="#m849304ef9a" x="69.709613" y="36.72883" style="fill: #262626; stroke: #262626; stroke-width: 1.25"/>
      </g>
     </g>
     <g id="text_10">
      <text style="fill: #262626; font: 11px 'Arial', 'DejaVu Sans', 'Liberation Sans', 'Bitstream Vera Sans', sans-serif; text-anchor: end" x="60.209613" y="40.907971" transform="rotate(-0 60.209613 40.907971)">1.0</text>
     </g>
    </g>
    <g id="text_11">
     <text style="fill: #262626; font: 12px 'Arial', 'DejaVu Sans', 'Liberation Sans', 'Bitstream Vera Sans', sans-serif; text-anchor: middle" x="36.220551" y="90.09" transform="rotate(-90 36.220551 90.09)">payoff</text>
    </g>
   </g>
   <g id="PolyCollection_1">
    <defs>
     <path id="mdfe141a0ff" d="M 78.660895 -196.028182 
L 78.660895 -55.791818 
L 80.469234 -56.417605 
L 82.277574 -57.043391 
L 84.085913 -57.669178 
L 85.894253 -58.294965 
L 87.702593 -58.920751 
L 89.510932 -59.546538 
L 91.319272 -60.172325 
L 93.127612 -60.798111 
L 94.935951 -61.423898 
L 96.744291 -62.049685 
L 98.552631 -62.675471 
L 100.36097 -63.301258 
L 102.16931 -63.927044 
L 103.977649 -64.552831 
L 105.785989 -65.128108 
L 107.594329 -65.656083 
L 109.402668 -66.184059 
L 111.211008 -66.712035 
L 113.019348 -67.24001 
L 114.827687 -67.767986 
L 116.636027 -68.295961 
L 118.444367 -68.823937 
L 120.252706 -69.351912 
L 122.061046 -69.879888 
L 123.869386 -70.407864 
L 125.677725 -70.935839 
L 127.486065 -71.463815 
L 129.294404 -71.99179 
L 131.102744 -72.53441 
L 132.911084 -73.111017 
L 134.719423 -73.687624 
L 136.527763 -74.26423 
L 138.336103 -74.840837 
L 140.144442 -75.417444 
L 141.952782 -75.99405 
L 143.761122 -76.571284 
L 145.569461 -77.14996 
L 147.377801 -77.728636 
L 149.18614 -78.307312 
L 150.99448 -78.885988 
L 152.80282 -79.464663 
L 154.611159 -80.043339 
L 156.419499 -80.622015 
L 158.227839 -81.200691 
L 160.036178 -81.779367 
L 161.844518 -82.358043 
L 163.652858 -82.936719 
L 165.461197 -83.544155 
L 167.269537 -84.152832 
L 169.077876 -84.761508 
L 170.886216 -85.370184 
L 172.694556 -85.978861 
L 174.502895 -86.587537 
L 176.311235 -87.196213 
L 178.119575 -87.80489 
L 179.927914 -88.413566 
L 181.736254 -89.022242 
L 183.544594 -89.630919 
L 185.352933 -90.239595 
L 187.161273 -90.848271 
L 188.969613 -91.456947 
L 190.777952 -92.04554 
L 192.586292 -92.58369 
L 194.394631 -93.071118 
L 196.202971 -93.511417 
L 198.011311 -93.951716 
L 199.81965 -94.433642 
L 201.62799 -94.847087 
L 203.43633 -95.262869 
L 205.244669 -95.699042 
L 207.053009 -96.135215 
L 208.861349 -96.571388 
L 210.669688 -97.007562 
L 212.478028 -97.443735 
L 214.286367 -97.957655 
L 216.094707 -98.62864 
L 217.903047 -99.245506 
L 219.711386 -99.255602 
L 221.519726 -99.6246 
L 223.328066 -100.063772 
L 225.136405 -100.498575 
L 226.944745 -100.780065 
L 228.753085 -100.96001 
L 230.561424 -101.486788 
L 232.369764 -101.758637 
L 234.178103 -101.833993 
L 235.986443 -101.862895 
L 237.794783 -101.860794 
L 239.603122 -101.97801 
L 241.411462 -102.230433 
L 243.219802 -102.305442 
L 245.028141 -102.375134 
L 246.836481 -102.411266 
L 248.644821 -102.41831 
L 250.45316 -102.368594 
L 252.2615 -102.319267 
L 254.06984 -102.287987 
L 255.878179 -102.217109 
L 257.686519 -102.060497 
L 257.686519 -117.618462 
L 257.686519 -117.618462 
L 255.878179 -117.29169 
L 254.06984 -117.030558 
L 252.2615 -116.878013 
L 250.45316 -116.744228 
L 248.644821 -116.711041 
L 246.836481 -116.540238 
L 245.028141 -116.658495 
L 243.219802 -116.716225 
L 241.411462 -116.786668 
L 239.603122 -116.924776 
L 237.794783 -117.274091 
L 235.986443 -117.864158 
L 234.178103 -118.717589 
L 232.369764 -119.230967 
L 230.561424 -119.900933 
L 228.753085 -120.755263 
L 226.944745 -121.601588 
L 225.136405 -122.178505 
L 223.328066 -123.032676 
L 221.519726 -124.146932 
L 219.711386 -125.032711 
L 217.903047 -125.988656 
L 216.094707 -127.013398 
L 214.286367 -128.087751 
L 212.478028 -129.158792 
L 210.669688 -130.210239 
L 208.861349 -131.08064 
L 207.053009 -131.99942 
L 205.244669 -133.133175 
L 203.43633 -134.266565 
L 201.62799 -135.362243 
L 199.81965 -136.219856 
L 198.011311 -137.07581 
L 196.202971 -137.931763 
L 194.394631 -138.787716 
L 192.586292 -139.643669 
L 190.777952 -140.499622 
L 188.969613 -141.355575 
L 187.161273 -142.260011 
L 185.352933 -143.220496 
L 183.544594 -144.180982 
L 181.736254 -145.141467 
L 179.927914 -146.101953 
L 178.119575 -147.028532 
L 176.311235 -147.920001 
L 174.502895 -148.811471 
L 172.694556 -149.70294 
L 170.886216 -150.59441 
L 169.077876 -151.485879 
L 167.269537 -152.377349 
L 165.461197 -153.268818 
L 163.652858 -154.160287 
L 161.844518 -155.051757 
L 160.036178 -155.943226 
L 158.227839 -156.834696 
L 156.419499 -157.726165 
L 154.611159 -158.617635 
L 152.80282 -159.509104 
L 150.99448 -160.400574 
L 149.18614 -161.292043 
L 147.377801 -162.183513 
L 145.569461 -163.074648 
L 143.761122 -163.965354 
L 141.952782 -164.856061 
L 140.144442 -165.746767 
L 138.336103 -166.637474 
L 136.527763 -167.52818 
L 134.719423 -168.418886 
L 132.911084 -169.309593 
L 131.102744 -170.200299 
L 129.294404 -171.091006 
L 127.486065 -171.981712 
L 125.677725 -172.872419 
L 123.869386 -173.763125 
L 122.061046 -174.653831 
L 120.252706 -175.544538 
L 118.444367 -176.435244 
L 116.636027 -177.325951 
L 114.827687 -178.216657 
L 113.019348 -179.107364 
L 111.211008 -179.99807 
L 109.402668 -180.888776 
L 107.594329 -181.779483 
L 105.785989 -182.670189 
L 103.977649 -183.560896 
L 102.16931 -184.451602 
L 100.36097 -185.342308 
L 98.552631 -186.233015 
L 96.744291 -187.123721 
L 94.935951 -188.014428 
L 93.127612 -188.905134 
L 91.319272 -189.795841 
L 89.510932 -190.686547 
L 87.702593 -191.577253 
L 85.894253 -192.46796 
L 84.085913 -193.358666 
L 82.277574 -194.249373 
L 80.469234 -195.139126 
L 78.660895 -196.028182 
z
" style="stroke: #ffffff; stroke-opacity: 0.15"/>
    </defs>
    <g clip-path="url(#p86354d1572)">
     <use xlink:href="#mdfe141a0ff" x="0" y="216" style="fill: #66c2a5; fill-opacity: 0.15; stroke: #ffffff; stroke-opacity: 0.15"/>
    </g>
   </g>
   <g id="PolyCollection_2">
    <defs>
     <path id="m1eb927cb9a" d="M 198.796511 -144.271667 
L 198.796511 -120.114722 
L 199.391359 -120.363611 
L 199.986208 -120.651489 
L 200.581057 -120.939368 
L 201.175905 -121.227247 
L 201.770754 -121.515125 
L 202.365602 -121.804056 
L 202.960451 -122.093169 
L 203.555299 -122.382281 
L 204.150148 -122.671393 
L 204.744996 -122.960506 
L 205.339845 -123.249618 
L 205.934694 -123.53873 
L 206.529542 -123.827843 
L 207.124391 -124.100105 
L 207.719239 -124.298143 
L 208.314088 -124.49618 
L 208.908936 -124.694218 
L 209.503785 -124.892255 
L 210.098634 -125.090292 
L 210.693482 -125.288978 
L 211.288331 -125.48784 
L 211.883179 -125.736947 
L 212.478028 -126.031112 
L 213.072876 -126.305374 
L 213.667725 -126.505454 
L 214.262574 -126.705534 
L 214.857422 -126.95979 
L 215.452271 -127.221147 
L 216.047119 -127.482504 
L 216.641968 -127.706373 
L 217.236816 -127.924716 
L 217.831665 -128.14306 
L 218.426513 -128.363775 
L 219.021362 -128.584563 
L 219.616211 -128.805351 
L 220.211059 -129.07731 
L 220.805908 -129.336594 
L 221.400756 -129.509715 
L 221.995605 -129.780386 
L 222.590453 -130.095978 
L 223.185302 -130.406842 
L 223.780151 -130.583013 
L 224.374999 -130.88727 
L 224.969848 -131.140682 
L 225.564696 -131.402374 
L 226.159545 -131.662517 
L 226.754393 -131.932281 
L 227.349242 -132.134701 
L 227.944091 -132.342517 
L 228.538939 -132.498667 
L 229.133788 -132.620312 
L 229.728636 -132.739906 
L 230.323485 -132.924645 
L 230.918333 -133.118623 
L 231.513182 -133.308744 
L 232.10803 -133.441923 
L 232.702879 -133.598754 
L 233.297728 -133.75374 
L 233.892576 -133.844843 
L 234.487425 -133.914259 
L 235.082273 -134.138147 
L 235.677122 -134.284298 
L 236.27197 -134.576865 
L 236.866819 -134.692368 
L 237.461668 -134.806588 
L 238.056516 -134.923491 
L 238.651365 -135.101344 
L 239.246213 -135.24834 
L 239.841062 -135.280964 
L 240.43591 -135.436985 
L 241.030759 -135.462679 
L 241.625608 -135.587712 
L 242.220456 -135.709028 
L 242.815305 -135.847115 
L 243.410153 -135.962297 
L 244.005002 -136.02178 
L 244.59985 -136.159688 
L 245.194699 -136.270522 
L 245.789547 -136.369737 
L 246.384396 -136.403414 
L 246.979245 -136.508395 
L 247.574093 -136.571401 
L 248.168942 -136.618998 
L 248.76379 -136.666412 
L 249.358639 -136.737548 
L 249.953487 -136.793667 
L 250.548336 -136.849302 
L 251.143185 -136.876804 
L 251.738033 -136.881351 
L 252.332882 -136.881684 
L 252.92773 -136.929713 
L 253.522579 -136.986734 
L 254.117427 -137.043755 
L 254.712276 -137.015603 
L 255.307125 -136.926889 
L 255.901973 -136.999176 
L 256.496822 -136.96017 
L 257.09167 -137.004528 
L 257.686519 -137.085109 
L 257.686519 -149.334659 
L 257.686519 -149.334659 
L 257.09167 -149.11018 
L 256.496822 -148.934529 
L 255.901973 -148.714902 
L 255.307125 -148.535497 
L 254.712276 -148.27257 
L 254.117427 -148.066501 
L 253.522579 -147.891527 
L 252.92773 -147.716103 
L 252.332882 -147.54068 
L 251.738033 -147.364635 
L 251.143185 -147.108591 
L 250.548336 -146.976393 
L 249.953487 -146.837895 
L 249.358639 -146.662737 
L 248.76379 -146.486119 
L 248.168942 -146.275082 
L 247.574093 -146.137084 
L 246.979245 -146.01142 
L 246.384396 -145.830833 
L 245.789547 -145.684577 
L 245.194699 -145.543728 
L 244.59985 -145.47711 
L 244.005002 -145.360681 
L 243.410153 -145.223342 
L 242.815305 -145.114144 
L 242.220456 -145.009438 
L 241.625608 -144.874535 
L 241.030759 -144.703225 
L 240.43591 -144.556327 
L 239.841062 -144.402944 
L 239.246213 -144.287603 
L 238.651365 -144.204792 
L 238.056516 -144.16061 
L 237.461668 -144.103825 
L 236.866819 -144.03315 
L 236.27197 -143.944843 
L 235.677122 -143.880387 
L 235.082273 -143.823076 
L 234.487425 -143.737523 
L 233.892576 -143.667401 
L 233.297728 -143.613627 
L 232.702879 -143.542989 
L 232.10803 -143.474234 
L 231.513182 -143.460525 
L 230.918333 -143.391603 
L 230.323485 -143.327528 
L 229.728636 -143.236365 
L 229.133788 -143.185277 
L 228.538939 -143.167631 
L 227.944091 -143.140383 
L 227.349242 -143.119301 
L 226.754393 -143.099256 
L 226.159545 -143.080947 
L 225.564696 -143.060197 
L 224.969848 -143.037827 
L 224.374999 -143.01735 
L 223.780151 -143.014216 
L 223.185302 -142.976397 
L 222.590453 -143.003331 
L 221.995605 -142.991492 
L 221.400756 -143.050767 
L 220.805908 -143.109394 
L 220.211059 -143.165326 
L 219.616211 -143.13692 
L 219.021362 -143.224877 
L 218.426513 -143.273932 
L 217.831665 -143.393509 
L 217.236816 -143.459899 
L 216.641968 -143.518913 
L 216.047119 -143.549014 
L 215.452271 -143.545595 
L 214.857422 -143.541477 
L 214.262574 -143.537359 
L 213.667725 -143.533241 
L 213.072876 -143.529123 
L 212.478028 -143.551345 
L 211.883179 -143.59109 
L 211.288331 -143.642646 
L 210.693482 -143.699288 
L 210.098634 -143.721628 
L 209.503785 -143.75176 
L 208.908936 -143.776688 
L 208.314088 -143.775454 
L 207.719239 -143.77422 
L 207.124391 -143.781872 
L 206.529542 -143.794171 
L 205.934694 -143.806471 
L 205.339845 -143.81877 
L 204.744996 -143.840786 
L 204.150148 -143.883437 
L 203.555299 -143.925589 
L 202.960451 -143.967631 
L 202.365602 -144.009672 
L 201.770754 -144.051714 
L 201.175905 -144.093756 
L 200.581057 -144.169372 
L 199.986208 -144.235119 
L 199.391359 -144.253733 
L 198.796511 -144.271667 
z
" style="stroke: #ffffff; stroke-opacity: 0.15"/>
    </defs>
    <g clip-path="url(#p86354d1572)">
     <use xlink:href="#m1eb927cb9a" x="0" y="216" style="fill: #fc8d62; fill-opacity: 0.15; stroke: #ffffff; stroke-opacity: 0.15"/>
    </g>
   </g>
   <g id="line2d_10">
    <path d="M 78.660895 110.258386 
L 80.469234 110.223913 
L 82.277574 110.18944 
L 84.085913 110.154967 
L 85.894253 110.120494 
L 87.702593 110.086021 
L 89.510932 110.051548 
L 91.319272 110.017075 
L 93.127612 109.982602 
L 94.935951 109.948129 
L 96.744291 109.913656 
L 98.552631 109.879183 
L 100.36097 109.84471 
L 102.16931 109.810237 
L 103.977649 109.775764 
L 105.785989 109.741291 
L 107.594329 109.706818 
L 109.402668 109.672345 
L 111.211008 109.637872 
L 113.019348 109.603399 
L 114.827687 109.568926 
L 116.636027 109.534453 
L 118.444367 109.499979 
L 120.252706 109.465506 
L 122.061046 109.431033 
L 123.869386 109.39656 
L 125.677725 109.362087 
L 127.486065 109.327614 
L 129.294404 109.293141 
L 131.102744 109.258668 
L 132.911084 109.224195 
L 134.719423 109.189722 
L 136.527763 109.155249 
L 138.336103 109.120776 
L 140.144442 109.086303 
L 141.952782 109.05183 
L 143.761122 109.017357 
L 145.569461 108.982884 
L 147.377801 108.948411 
L 149.18614 108.913938 
L 150.99448 108.879465 
L 152.80282 108.844992 
L 154.611159 108.810519 
L 156.419499 108.776046 
L 158.227839 108.741573 
L 160.036178 108.7071 
L 161.844518 108.672627 
L 163.652858 108.638154 
L 165.461197 108.603681 
L 167.269537 108.569208 
L 169.077876 108.534735 
L 170.886216 108.500262 
L 172.694556 108.465789 
L 174.502895 108.431316 
L 176.311235 108.396843 
L 178.119575 108.36237 
L 179.927914 108.327897 
L 181.736254 108.293424 
L 183.544594 108.258951 
L 185.352933 108.224478 
L 187.161273 108.190005 
L 188.969613 108.155532 
L 190.777952 108.121059 
L 192.586292 108.086586 
L 194.394631 108.052113 
L 196.202971 108.01764 
L 198.011311 107.983167 
L 199.81965 107.948694 
L 201.62799 107.914221 
L 203.43633 107.879748 
L 205.244669 107.845275 
L 207.053009 107.810802 
L 208.861349 107.776329 
L 210.669688 107.741856 
L 212.478028 107.707383 
L 214.286367 107.67291 
L 216.094707 107.638437 
L 217.903047 107.603964 
L 219.711386 107.569491 
L 221.519726 107.535018 
L 223.328066 107.500544 
L 225.136405 107.466071 
L 226.944745 107.431598 
L 228.753085 107.397125 
L 230.561424 107.362652 
L 232.369764 107.328179 
L 234.178103 107.293706 
L 235.986443 107.259233 
L 237.794783 107.22476 
L 239.603122 107.190287 
L 241.411462 107.155814 
L 243.219802 107.121341 
L 245.028141 107.086868 
L 246.836481 107.052395 
L 248.644821 107.017922 
L 250.45316 106.983449 
L 252.2615 106.948976 
L 254.06984 106.914503 
L 255.878179 106.88003 
L 257.686519 106.845557 
" clip-path="url(#p86354d1572)" style="fill: none; stroke: #66c2a5; stroke-width: 2.25; stroke-linecap: round"/>
   </g>
   <g id="line2d_11">
    <path d="M 198.796511 83.300083 
L 199.391359 83.196533 
L 199.986208 83.092983 
L 200.581057 82.989432 
L 201.175905 82.885882 
L 201.770754 82.782332 
L 202.365602 82.678781 
L 202.960451 82.575231 
L 203.555299 82.471681 
L 204.150148 82.36813 
L 204.744996 82.26458 
L 205.339845 82.16103 
L 205.934694 82.057479 
L 206.529542 81.953929 
L 207.124391 81.850379 
L 207.719239 81.746828 
L 208.314088 81.643278 
L 208.908936 81.539728 
L 209.503785 81.436177 
L 210.098634 81.332627 
L 210.693482 81.229077 
L 211.288331 81.125526 
L 211.883179 81.021976 
L 212.478028 80.918426 
L 213.072876 80.814875 
L 213.667725 80.711325 
L 214.262574 80.607775 
L 214.857422 80.504224 
L 215.452271 80.400674 
L 216.047119 80.297124 
L 216.641968 80.193573 
L 217.236816 80.090023 
L 217.831665 79.986472 
L 218.426513 79.882922 
L 219.021362 79.779372 
L 219.616211 79.675821 
L 220.211059 79.572271 
L 220.805908 79.468721 
L 221.400756 79.36517 
L 221.995605 79.26162 
L 222.590453 79.15807 
L 223.185302 79.054519 
L 223.780151 78.950969 
L 224.374999 78.847419 
L 224.969848 78.743868 
L 225.564696 78.640318 
L 226.159545 78.536768 
L 226.754393 78.433217 
L 227.349242 78.329667 
L 227.944091 78.226117 
L 228.538939 78.122566 
L 229.133788 78.019016 
L 229.728636 77.915466 
L 230.323485 77.811915 
L 230.918333 77.708365 
L 231.513182 77.604815 
L 232.10803 77.501264 
L 232.702879 77.397714 
L 233.297728 77.294164 
L 233.892576 77.190613 
L 234.487425 77.087063 
L 235.082273 76.983513 
L 235.677122 76.879962 
L 236.27197 76.776412 
L 236.866819 76.672862 
L 237.461668 76.569311 
L 238.056516 76.465761 
L 238.651365 76.362211 
L 239.246213 76.25866 
L 239.841062 76.15511 
L 240.43591 76.05156 
L 241.030759 75.948009 
L 241.625608 75.844459 
L 242.220456 75.740909 
L 242.815305 75.637358 
L 243.410153 75.533808 
L 244.005002 75.430258 
L 244.59985 75.326707 
L 245.194699 75.223157 
L 245.789547 75.119607 
L 246.384396 75.016056 
L 246.979245 74.912506 
L 247.574093 74.808956 
L 248.168942 74.705405 
L 248.76379 74.601855 
L 249.358639 74.498305 
L 249.953487 74.394754 
L 250.548336 74.291204 
L 251.143185 74.187654 
L 251.738033 74.084103 
L 252.332882 73.980553 
L 252.92773 73.877003 
L 253.522579 73.773452 
L 254.117427 73.669902 
L 254.712276 73.566352 
L 255.307125 73.462801 
L 255.901973 73.359251 
L 256.496822 73.255701 
L 257.09167 73.15215 
L 257.686519 73.0486 
" clip-path="url(#p86354d1572)" style="fill: none; stroke: #fc8d62; stroke-width: 2.25; stroke-linecap: round"/>
   </g>
   <g id="patch_3">
    <path d="M 69.709613 167.22 
L 69.709613 12.96 
" style="fill: none; stroke: #262626; stroke-width: 1.25; stroke-linejoin: miter; stroke-linecap: square"/>
   </g>
   <g id="patch_4">
    <path d="M 69.709613 167.22 
L 266.6378 167.22 
" style="fill: none; stroke: #262626; stroke-width: 1.25; stroke-linejoin: miter; stroke-linecap: square"/>
   </g>
   <g id="PathCollection_1">
    <defs>
     <path id="m188abb7b29" d="M 0 2.738613 
C 0.726289 2.738613 1.422928 2.450055 1.936492 1.936492 
C 2.450055 1.422928 2.738613 0.726289 2.738613 0 
C 2.738613 -0.726289 2.450055 -1.422928 1.936492 -1.936492 
C 1.422928 -2.450055 0.726289 -2.738613 0 -2.738613 
C -0.726289 -2.738613 -1.422928 -2.450055 -1.936492 -1.936492 
C -2.450055 -1.422928 -2.738613 -0.726289 -2.738613 0 
C -2.738613 0.726289 -2.450055 1.422928 -1.936492 1.936492 
C -1.422928 2.450055 -0.726289 2.738613 0 2.738613 
z
" style="stroke: #ffffff; stroke-opacity: 0.8; stroke-width: 0.5"/>
    </defs>
    <g>
     <use xlink:href="#m188abb7b29" x="243.700142" y="118.354562" style="fill: #66c2a5; fill-opacity: 0.8; stroke: #ffffff; stroke-opacity: 0.8; stroke-width: 0.5"/>
     <use xlink:href="#m188abb7b29" x="78.660895" y="116.551893" style="fill: #66c2a5; fill-opacity: 0.8; stroke: #ffffff; stroke-opacity: 0.8; stroke-width: 0.5"/>
     <use xlink:href="#m188abb7b29" x="243.402559" y="104.469696" style="fill: #66c2a5; fill-opacity: 0.8; stroke: #ffffff; stroke-opacity: 0.8; stroke-width: 0.5"/>
     <use xlink:href="#m188abb7b29" x="257.686519" y="112.404439" style="fill: #66c2a5; fill-opacity: 0.8; stroke: #ffffff; stroke-opacity: 0.8; stroke-width: 0.5"/>
     <use xlink:href="#m188abb7b29" x="257.686519" y="90.009143" style="fill: #66c2a5; fill-opacity: 0.8; stroke: #ffffff; stroke-opacity: 0.8; stroke-width: 0.5"/>
     <use xlink:href="#m188abb7b29" x="257.686519" y="115.566128" style="fill: #66c2a5; fill-opacity: 0.8; stroke: #ffffff; stroke-opacity: 0.8; stroke-width: 0.5"/>
     <use xlink:href="#m188abb7b29" x="239.418598" y="107.119424" style="fill: #66c2a5; fill-opacity: 0.8; stroke: #ffffff; stroke-opacity: 0.8; stroke-width: 0.5"/>
     <use xlink:href="#m188abb7b29" x="257.686519" y="117.029873" style="fill: #66c2a5; fill-opacity: 0.8; stroke: #ffffff; stroke-opacity: 0.8; stroke-width: 0.5"/>
     <use xlink:href="#m188abb7b29" x="257.686519" y="93.970141" style="fill: #66c2a5; fill-opacity: 0.8; stroke: #ffffff; stroke-opacity: 0.8; stroke-width: 0.5"/>
     <use xlink:href="#m188abb7b29" x="81.016495" y="105.11499" style="fill: #66c2a5; fill-opacity: 0.8; stroke: #ffffff; stroke-opacity: 0.8; stroke-width: 0.5"/>
     <use xlink:href="#m188abb7b29" x="234.130516" y="89.160171" style="fill: #66c2a5; fill-opacity: 0.8; stroke: #ffffff; stroke-opacity: 0.8; stroke-width: 0.5"/>
     <use xlink:href="#m188abb7b29" x="257.686519" y="120.60141" style="fill: #66c2a5; fill-opacity: 0.8; stroke: #ffffff; stroke-opacity: 0.8; stroke-width: 0.5"/>
     <use xlink:href="#m188abb7b29" x="257.686519" y="82.807518" style="fill: #66c2a5; fill-opacity: 0.8; stroke: #ffffff; stroke-opacity: 0.8; stroke-width: 0.5"/>
     <use xlink:href="#m188abb7b29" x="257.686519" y="123.733824" style="fill: #66c2a5; fill-opacity: 0.8; stroke: #ffffff; stroke-opacity: 0.8; stroke-width: 0.5"/>
     <use xlink:href="#m188abb7b29" x="245.908517" y="114.131658" style="fill: #66c2a5; fill-opacity: 0.8; stroke: #ffffff; stroke-opacity: 0.8; stroke-width: 0.5"/>
    </g>
   </g>
   <g id="PathCollection_2">
    <defs>
     <path id="md060919be0" d="M 0 2.738613 
C 0.726289 2.738613 1.422928 2.450055 1.936492 1.936492 
C 2.450055 1.422928 2.738613 0.726289 2.738613 0 
C 2.738613 -0.726289 2.450055 -1.422928 1.936492 -1.936492 
C 1.422928 -2.450055 0.726289 -2.738613 0 -2.738613 
C -0.726289 -2.738613 -1.422928 -2.450055 -1.936492 -1.936492 
C -2.450055 -1.422928 -2.738613 -0.726289 -2.738613 0 
C -2.738613 0.726289 -2.450055 1.422928 -1.936492 1.936492 
C -1.422928 2.450055 -0.726289 2.738613 0 2.738613 
z
" style="stroke: #ffffff; stroke-opacity: 0.8; stroke-width: 0.5"/>
    </defs>
    <g>
     <use xlink:href="#md060919be0" x="257.686519" y="74.844746" style="fill: #fc8d62; fill-opacity: 0.8; stroke: #ffffff; stroke-opacity: 0.8; stroke-width: 0.5"/>
     <use xlink:href="#md060919be0" x="257.686519" y="71.507408" style="fill: #fc8d62; fill-opacity: 0.8; stroke: #ffffff; stroke-opacity: 0.8; stroke-width: 0.5"/>
     <use xlink:href="#md060919be0" x="257.686519" y="56.343011" style="fill: #fc8d62; fill-opacity: 0.8; stroke: #ffffff; stroke-opacity: 0.8; stroke-width: 0.5"/>
     <use xlink:href="#md060919be0" x="207.957179" y="94.65019" style="fill: #fc8d62; fill-opacity: 0.8; stroke: #ffffff; stroke-opacity: 0.8; stroke-width: 0.5"/>
     <use xlink:href="#md060919be0" x="218.426513" y="74.639822" style="fill: #fc8d62; fill-opacity: 0.8; stroke: #ffffff; stroke-opacity: 0.8; stroke-width: 0.5"/>
     <use xlink:href="#md060919be0" x="253.760518" y="74.083599" style="fill: #fc8d62; fill-opacity: 0.8; stroke: #ffffff; stroke-opacity: 0.8; stroke-width: 0.5"/>
     <use xlink:href="#md060919be0" x="218.767905" y="69.376704" style="fill: #fc8d62; fill-opacity: 0.8; stroke: #ffffff; stroke-opacity: 0.8; stroke-width: 0.5"/>
     <use xlink:href="#md060919be0" x="253.760518" y="70.541336" style="fill: #fc8d62; fill-opacity: 0.8; stroke: #ffffff; stroke-opacity: 0.8; stroke-width: 0.5"/>
     <use xlink:href="#md060919be0" x="198.796511" y="81.109574" style="fill: #fc8d62; fill-opacity: 0.8; stroke: #ffffff; stroke-opacity: 0.8; stroke-width: 0.5"/>
     <use xlink:href="#md060919be0" x="226.357035" y="78.946159" style="fill: #fc8d62; fill-opacity: 0.8; stroke: #ffffff; stroke-opacity: 0.8; stroke-width: 0.5"/>
     <use xlink:href="#md060919be0" x="257.686519" y="89.130896" style="fill: #fc8d62; fill-opacity: 0.8; stroke: #ffffff; stroke-opacity: 0.8; stroke-width: 0.5"/>
     <use xlink:href="#md060919be0" x="253.760518" y="82.573319" style="fill: #fc8d62; fill-opacity: 0.8; stroke: #ffffff; stroke-opacity: 0.8; stroke-width: 0.5"/>
     <use xlink:href="#md060919be0" x="245.908517" y="73.176077" style="fill: #fc8d62; fill-opacity: 0.8; stroke: #ffffff; stroke-opacity: 0.8; stroke-width: 0.5"/>
     <use xlink:href="#md060919be0" x="245.908517" y="82.134195" style="fill: #fc8d62; fill-opacity: 0.8; stroke: #ffffff; stroke-opacity: 0.8; stroke-width: 0.5"/>
     <use xlink:href="#md060919be0" x="257.686519" y="66.794149" style="fill: #fc8d62; fill-opacity: 0.8; stroke: #ffffff; stroke-opacity: 0.8; stroke-width: 0.5"/>
    </g>
   </g>
  </g>
  <g id="legend_1">
   <g id="text_12">
    <text style="fill: #262626; font: 12px 'Arial', 'DejaVu Sans', 'Liberation Sans', 'Bitstream Vera Sans', sans-serif; text-anchor: start" x="269.051875" y="95.165312" transform="rotate(-0 269.051875 95.165312)">multiplier</text>
   </g>
   <g id="PathCollection_3">
    <g>
     <use xlink:href="#m188abb7b29" x="284.539219" y="108.631719" style="fill: #66c2a5; fill-opacity: 0.8; stroke: #ffffff; stroke-opacity: 0.8; stroke-width: 0.5"/>
    </g>
   </g>
   <g id="text_13">
    <text style="fill: #262626; font: 11px 'Arial', 'DejaVu Sans', 'Liberation Sans', 'Bitstream Vera Sans', sans-serif; text-anchor: start" x="304.339219" y="111.519219" transform="rotate(-0 304.339219 111.519219)">1.5</text>
   </g>
   <g id="PathCollection_4">
    <g>
     <use xlink:href="#md060919be0" x="284.539219" y="124.777656" style="fill: #fc8d62; fill-opacity: 0.8; stroke: #ffffff; stroke-opacity: 0.8; stroke-width: 0.5"/>
    </g>
   </g>
   <g id="text_14">
    <text style="fill: #262626; font: 11px 'Arial', 'DejaVu Sans', 'Liberation Sans', 'Bitstream Vera Sans', sans-serif; text-anchor: start" x="304.339219" y="127.665156" transform="rotate(-0 304.339219 127.665156)">2.5</text>
   </g>
  </g>
 </g>
 <defs>
  <clipPath id="p86354d1572">
   <rect x="69.709613" y="12.96" width="196.928187" height="154.26"/>
  </clipPath>
 </defs>
</svg>
